G75*
G70*
%OFA0B0*%
%FSLAX24Y24*%
%IPPOS*%
%LPD*%
%AMOC8*
5,1,8,0,0,1.08239X$1,22.5*
%
%ADD10C,0.0000*%
%ADD11C,0.0060*%
%ADD12C,0.0100*%
D10*
X008826Y018518D02*
X008432Y018431D01*
X008043Y018326D01*
X007660Y018201D01*
X007283Y018059D01*
X006913Y017897D01*
X006552Y017719D01*
X006200Y017522D01*
X005858Y017309D01*
X005527Y017079D01*
X005207Y016834D01*
X004900Y016573D01*
X004605Y016298D01*
X004325Y016008D01*
X004059Y015705D01*
X003808Y015390D01*
X003572Y015063D01*
X003353Y014724D01*
X003151Y014376D01*
X002966Y014018D01*
X002798Y013651D01*
X002649Y013276D01*
X002518Y012895D01*
X002406Y012508D01*
X002313Y012116D01*
X002239Y011720D01*
X002184Y011320D01*
X002149Y010919D01*
X002134Y010516D01*
X002138Y010113D01*
X002162Y009710D01*
X002205Y009310D01*
X002268Y008911D01*
X002351Y008517D01*
X002452Y008127D01*
X002572Y007742D01*
X002711Y007364D01*
X002868Y006992D01*
X003043Y006629D01*
X003236Y006275D01*
X003446Y005931D01*
X003672Y005597D01*
X003914Y005275D01*
X004171Y004965D01*
X004444Y004668D01*
X004730Y004384D01*
X005030Y004115D01*
X005343Y003860D01*
X005668Y003622D01*
X006004Y003399D01*
X006351Y003193D01*
X006707Y003004D01*
X007072Y002833D01*
X007444Y002680D01*
X007824Y002545D01*
X008210Y002429D01*
X008601Y002331D01*
X008997Y002253D01*
X009396Y002194D01*
X009797Y002155D01*
X010199Y002135D01*
X010603Y002135D01*
X011005Y002155D01*
X011406Y002194D01*
X011805Y002253D01*
X012201Y002331D01*
X012592Y002429D01*
X012978Y002545D01*
X013358Y002680D01*
X013730Y002833D01*
X014095Y003004D01*
X014451Y003193D01*
X014798Y003399D01*
X015134Y003622D01*
X015459Y003860D01*
X015772Y004115D01*
X016072Y004384D01*
X016358Y004668D01*
X016631Y004965D01*
X016888Y005275D01*
X017130Y005597D01*
X017356Y005931D01*
X017566Y006275D01*
X017759Y006629D01*
X017934Y006992D01*
X018091Y007364D01*
X018230Y007742D01*
X018350Y008127D01*
X018451Y008517D01*
X018534Y008911D01*
X018597Y009310D01*
X018640Y009710D01*
X018664Y010113D01*
X018668Y010516D01*
X018653Y010919D01*
X018618Y011320D01*
X018563Y011720D01*
X018489Y012116D01*
X018396Y012508D01*
X018284Y012895D01*
X018153Y013276D01*
X018004Y013651D01*
X017836Y014018D01*
X017651Y014376D01*
X017449Y014724D01*
X017230Y015063D01*
X016994Y015390D01*
X016743Y015705D01*
X016477Y016008D01*
X016197Y016298D01*
X015902Y016573D01*
X015595Y016834D01*
X015275Y017079D01*
X014944Y017309D01*
X014602Y017522D01*
X014250Y017719D01*
X013889Y017897D01*
X013519Y018059D01*
X013142Y018201D01*
X012759Y018326D01*
X012370Y018431D01*
X011976Y018518D01*
X011976Y018669D01*
X011974Y018746D01*
X011968Y018823D01*
X011959Y018900D01*
X011946Y018976D01*
X011929Y019052D01*
X011908Y019126D01*
X011884Y019200D01*
X011856Y019272D01*
X011825Y019342D01*
X011790Y019411D01*
X011752Y019479D01*
X011711Y019544D01*
X011666Y019607D01*
X011618Y019668D01*
X011568Y019727D01*
X011515Y019783D01*
X011459Y019836D01*
X011400Y019886D01*
X011339Y019934D01*
X011276Y019979D01*
X011211Y020020D01*
X011143Y020058D01*
X011074Y020093D01*
X011004Y020124D01*
X010932Y020152D01*
X010858Y020176D01*
X010784Y020197D01*
X010708Y020214D01*
X010632Y020227D01*
X010555Y020236D01*
X010478Y020242D01*
X010401Y020244D01*
X009929Y019063D02*
X009931Y019106D01*
X009937Y019148D01*
X009947Y019190D01*
X009960Y019231D01*
X009977Y019271D01*
X009998Y019308D01*
X010022Y019344D01*
X010049Y019377D01*
X010079Y019408D01*
X010112Y019436D01*
X010147Y019461D01*
X010184Y019482D01*
X010223Y019500D01*
X010263Y019514D01*
X010305Y019525D01*
X010347Y019532D01*
X010390Y019535D01*
X010433Y019534D01*
X010476Y019529D01*
X010518Y019520D01*
X010559Y019508D01*
X010599Y019492D01*
X010637Y019472D01*
X010673Y019449D01*
X010707Y019422D01*
X010739Y019393D01*
X010767Y019361D01*
X010793Y019326D01*
X010815Y019290D01*
X010834Y019251D01*
X010849Y019211D01*
X010861Y019170D01*
X010869Y019127D01*
X010873Y019084D01*
X010873Y019042D01*
X010869Y018999D01*
X010861Y018956D01*
X010849Y018915D01*
X010834Y018875D01*
X010815Y018836D01*
X010793Y018800D01*
X010767Y018765D01*
X010739Y018733D01*
X010707Y018704D01*
X010673Y018677D01*
X010637Y018654D01*
X010599Y018634D01*
X010559Y018618D01*
X010518Y018606D01*
X010476Y018597D01*
X010433Y018592D01*
X010390Y018591D01*
X010347Y018594D01*
X010305Y018601D01*
X010263Y018612D01*
X010223Y018626D01*
X010184Y018644D01*
X010147Y018665D01*
X010112Y018690D01*
X010079Y018718D01*
X010049Y018749D01*
X010022Y018782D01*
X009998Y018818D01*
X009977Y018855D01*
X009960Y018895D01*
X009947Y018936D01*
X009937Y018978D01*
X009931Y019020D01*
X009929Y019063D01*
X008826Y018669D02*
X008828Y018746D01*
X008834Y018823D01*
X008843Y018900D01*
X008856Y018976D01*
X008873Y019052D01*
X008894Y019126D01*
X008918Y019200D01*
X008946Y019272D01*
X008977Y019342D01*
X009012Y019411D01*
X009050Y019479D01*
X009091Y019544D01*
X009136Y019607D01*
X009184Y019668D01*
X009234Y019727D01*
X009287Y019783D01*
X009343Y019836D01*
X009402Y019886D01*
X009463Y019934D01*
X009526Y019979D01*
X009591Y020020D01*
X009659Y020058D01*
X009728Y020093D01*
X009798Y020124D01*
X009870Y020152D01*
X009944Y020176D01*
X010018Y020197D01*
X010094Y020214D01*
X010170Y020227D01*
X010247Y020236D01*
X010324Y020242D01*
X010401Y020244D01*
X008826Y018669D02*
X008826Y018518D01*
D11*
X004556Y004988D02*
X004613Y004931D01*
X004726Y004931D01*
X004783Y004988D01*
X004556Y004988D02*
X004556Y005215D01*
X004613Y005272D01*
X004726Y005272D01*
X004783Y005215D01*
X003533Y006488D02*
X003476Y006431D01*
X003363Y006431D01*
X003306Y006488D01*
X003306Y006715D01*
X003363Y006772D01*
X003476Y006772D01*
X003533Y006715D01*
X002726Y008306D02*
X002613Y008306D01*
X002556Y008363D01*
X002556Y008590D01*
X002613Y008647D01*
X002726Y008647D01*
X002783Y008590D01*
X002783Y008363D02*
X002726Y008306D01*
X002476Y010556D02*
X002533Y010613D01*
X002476Y010556D02*
X002363Y010556D01*
X002306Y010613D01*
X002306Y010840D01*
X002363Y010897D01*
X002476Y010897D01*
X002533Y010840D01*
X002613Y011931D02*
X002726Y011931D01*
X002783Y011988D01*
X002613Y011931D02*
X002556Y011988D01*
X002556Y012215D01*
X002613Y012272D01*
X002726Y012272D01*
X002783Y012215D01*
X003363Y014056D02*
X003306Y014113D01*
X003306Y014340D01*
X003363Y014397D01*
X003476Y014397D01*
X003533Y014340D01*
X003533Y014113D02*
X003476Y014056D01*
X003363Y014056D01*
X004613Y015556D02*
X004726Y015556D01*
X004783Y015613D01*
X004613Y015556D02*
X004556Y015613D01*
X004556Y015840D01*
X004613Y015897D01*
X004726Y015897D01*
X004783Y015840D01*
X006306Y016738D02*
X006363Y016681D01*
X006476Y016681D01*
X006533Y016738D01*
X006306Y016738D02*
X006306Y016965D01*
X006363Y017022D01*
X006476Y017022D01*
X006533Y016965D01*
X009306Y016022D02*
X009306Y015681D01*
X009476Y015681D01*
X009533Y015738D01*
X009533Y015795D01*
X009476Y015851D01*
X009306Y015851D01*
X009476Y015851D02*
X009533Y015908D01*
X009533Y015965D01*
X009476Y016022D01*
X009306Y016022D01*
X009731Y015908D02*
X009845Y015908D01*
X009901Y015851D01*
X009901Y015681D01*
X009731Y015681D01*
X009675Y015738D01*
X009731Y015795D01*
X009901Y015795D01*
X010043Y015681D02*
X010156Y015681D01*
X010100Y015681D02*
X010100Y016022D01*
X010043Y016022D01*
X010288Y016022D02*
X010345Y016022D01*
X010345Y015681D01*
X010288Y015681D02*
X010402Y015681D01*
X010902Y015681D02*
X011129Y015681D01*
X011016Y015681D02*
X011016Y016022D01*
X010902Y015908D01*
X011271Y015738D02*
X011327Y015738D01*
X011327Y015681D01*
X011271Y015681D01*
X011271Y015738D01*
X011455Y015738D02*
X011455Y015965D01*
X011511Y016022D01*
X011625Y016022D01*
X011681Y015965D01*
X011455Y015738D01*
X011511Y015681D01*
X011625Y015681D01*
X011681Y015738D01*
X011681Y015965D01*
X012363Y016681D02*
X012476Y016681D01*
X012533Y016738D01*
X012363Y016681D02*
X012306Y016738D01*
X012306Y016965D01*
X012363Y017022D01*
X012476Y017022D01*
X012533Y016965D01*
X013931Y015965D02*
X013931Y015738D01*
X013988Y015681D01*
X014101Y015681D01*
X014158Y015738D01*
X014158Y015965D02*
X014101Y016022D01*
X013988Y016022D01*
X013931Y015965D01*
X015363Y014397D02*
X015306Y014340D01*
X015306Y014113D01*
X015363Y014056D01*
X015476Y014056D01*
X015533Y014113D01*
X015533Y014340D02*
X015476Y014397D01*
X015363Y014397D01*
X016238Y012897D02*
X016181Y012840D01*
X016181Y012613D01*
X016238Y012556D01*
X016351Y012556D01*
X016408Y012613D01*
X016408Y012840D02*
X016351Y012897D01*
X016238Y012897D01*
X016613Y010272D02*
X016556Y010215D01*
X016556Y009988D01*
X016613Y009931D01*
X016726Y009931D01*
X016783Y009988D01*
X016783Y010215D02*
X016726Y010272D01*
X016613Y010272D01*
X016226Y008522D02*
X016113Y008522D01*
X016056Y008465D01*
X016056Y008238D01*
X016113Y008181D01*
X016226Y008181D01*
X016283Y008238D01*
X016283Y008465D02*
X016226Y008522D01*
X015476Y006772D02*
X015363Y006772D01*
X015306Y006715D01*
X015306Y006488D01*
X015363Y006431D01*
X015476Y006431D01*
X015533Y006488D01*
X015533Y006715D02*
X015476Y006772D01*
X014101Y005272D02*
X013988Y005272D01*
X013931Y005215D01*
X013931Y004988D01*
X013988Y004931D01*
X014101Y004931D01*
X014158Y004988D01*
X014158Y005215D02*
X014101Y005272D01*
X012533Y004090D02*
X012476Y004147D01*
X012363Y004147D01*
X012306Y004090D01*
X012306Y003863D01*
X012363Y003806D01*
X012476Y003806D01*
X012533Y003863D01*
X011033Y002965D02*
X010976Y003022D01*
X010863Y003022D01*
X010806Y002965D01*
X010806Y002738D01*
X010863Y002681D01*
X010976Y002681D01*
X011033Y002738D01*
X008533Y003238D02*
X008476Y003181D01*
X008363Y003181D01*
X008306Y003238D01*
X008306Y003465D01*
X008363Y003522D01*
X008476Y003522D01*
X008533Y003465D01*
X006533Y003863D02*
X006476Y003806D01*
X006363Y003806D01*
X006306Y003863D01*
X006306Y004090D01*
X006363Y004147D01*
X006476Y004147D01*
X006533Y004090D01*
X009959Y005804D02*
X010039Y005934D01*
X009989Y006064D01*
X009839Y006094D01*
X009839Y006224D01*
X009989Y006244D01*
X010049Y006374D01*
X009959Y006504D01*
X010049Y006594D01*
X010179Y006504D01*
X010299Y006554D01*
X010329Y006714D01*
X010459Y006714D01*
X010489Y006554D01*
X010609Y006504D01*
X010749Y006594D01*
X010839Y006504D01*
X010749Y006374D01*
X010799Y006254D01*
X010949Y006224D01*
X010949Y006094D01*
X010809Y006064D01*
X010749Y005934D01*
X010839Y005804D01*
X010749Y005714D01*
X010629Y005794D01*
X010569Y005764D01*
X010479Y005994D01*
X010539Y005964D02*
X010639Y006164D01*
X010539Y006314D01*
X010389Y006364D01*
X010239Y006314D01*
X010189Y006164D01*
X010239Y006014D01*
X010289Y005964D01*
X010189Y005814D01*
X010039Y005764D01*
X009989Y005814D01*
X010089Y005964D01*
X009989Y006114D01*
X009889Y006114D01*
X009889Y006214D01*
X010039Y006214D01*
X010089Y006364D01*
X009989Y006514D01*
X010039Y006564D01*
X010189Y006464D01*
X010339Y006564D01*
X010339Y006664D01*
X010439Y006664D01*
X010489Y006514D01*
X010639Y006464D01*
X010739Y006564D01*
X010789Y006514D01*
X010739Y006364D01*
X010789Y006214D01*
X010939Y006214D01*
X010889Y006114D01*
X010739Y006064D01*
X010739Y005914D01*
X010789Y005814D01*
X010739Y005764D01*
X010639Y005814D01*
X010589Y005814D01*
X010539Y005964D01*
X010543Y005952D02*
X010739Y005952D01*
X010739Y006011D02*
X010562Y006011D01*
X010591Y006069D02*
X010755Y006069D01*
X010621Y006128D02*
X010896Y006128D01*
X010925Y006186D02*
X010624Y006186D01*
X010585Y006245D02*
X010778Y006245D01*
X010759Y006303D02*
X010546Y006303D01*
X010395Y006362D02*
X010739Y006362D01*
X010758Y006420D02*
X010051Y006420D01*
X010088Y006362D02*
X010383Y006362D01*
X010235Y006303D02*
X010069Y006303D01*
X010049Y006245D02*
X010216Y006245D01*
X010196Y006186D02*
X009889Y006186D01*
X009889Y006128D02*
X010201Y006128D01*
X010220Y006069D02*
X010019Y006069D01*
X010058Y006011D02*
X010242Y006011D01*
X010281Y005952D02*
X010081Y005952D01*
X010042Y005893D02*
X010242Y005893D01*
X010203Y005835D02*
X010003Y005835D01*
X009959Y005804D02*
X010049Y005714D01*
X010169Y005794D01*
X010219Y005764D01*
X010319Y005994D01*
X010297Y006007D01*
X010277Y006023D01*
X010259Y006042D01*
X010244Y006064D01*
X010233Y006087D01*
X010225Y006112D01*
X010221Y006137D01*
X010220Y006163D01*
X010223Y006189D01*
X010230Y006214D01*
X010241Y006237D01*
X010254Y006259D01*
X010271Y006279D01*
X010290Y006296D01*
X010312Y006311D01*
X010336Y006321D01*
X010360Y006329D01*
X010386Y006333D01*
X010412Y006333D01*
X010438Y006329D01*
X010462Y006321D01*
X010486Y006311D01*
X010508Y006296D01*
X010527Y006279D01*
X010544Y006259D01*
X010557Y006237D01*
X010568Y006214D01*
X010575Y006189D01*
X010578Y006163D01*
X010577Y006137D01*
X010573Y006112D01*
X010565Y006087D01*
X010554Y006064D01*
X010539Y006042D01*
X010521Y006023D01*
X010501Y006007D01*
X010479Y005994D01*
X010562Y005893D02*
X010749Y005893D01*
X010778Y005835D02*
X010582Y005835D01*
X010714Y005776D02*
X010751Y005776D01*
X010077Y005776D02*
X010026Y005776D01*
X010012Y006479D02*
X010166Y006479D01*
X010211Y006479D02*
X010593Y006479D01*
X010654Y006479D02*
X010777Y006479D01*
X010765Y006537D02*
X010712Y006537D01*
X010481Y006537D02*
X010299Y006537D01*
X010339Y006596D02*
X010461Y006596D01*
X010442Y006654D02*
X010339Y006654D01*
X010078Y006537D02*
X010012Y006537D01*
X007881Y007681D02*
X007654Y007681D01*
X007768Y007681D02*
X007768Y008022D01*
X007654Y007908D01*
X007513Y008022D02*
X007286Y008022D01*
X007400Y008022D02*
X007400Y007681D01*
X007031Y007681D02*
X007031Y008022D01*
X006918Y008022D02*
X007145Y008022D01*
X006776Y007908D02*
X006776Y007681D01*
X006776Y007851D02*
X006550Y007851D01*
X006550Y007908D02*
X006550Y007681D01*
X006408Y007738D02*
X006351Y007681D01*
X006181Y007681D01*
X006181Y008022D01*
X006351Y008022D01*
X006408Y007965D01*
X006408Y007908D01*
X006351Y007851D01*
X006181Y007851D01*
X006351Y007851D02*
X006408Y007795D01*
X006408Y007738D01*
X006550Y007908D02*
X006663Y008022D01*
X006776Y007908D01*
D12*
X006651Y008276D02*
X006151Y008776D01*
X006071Y008252D02*
X006071Y010023D01*
X004811Y010023D01*
X004811Y010614D01*
X004811Y012189D02*
X004811Y012779D01*
X006071Y012779D01*
X006071Y014551D01*
X014732Y014551D01*
X014732Y012779D01*
X015992Y012779D01*
X015992Y012189D01*
X015992Y010614D02*
X015992Y010023D01*
X014732Y010023D01*
X014732Y008252D01*
X006071Y008252D01*
X006547Y008901D02*
X006549Y008938D01*
X006555Y008975D01*
X006564Y009010D01*
X006578Y009045D01*
X006594Y009078D01*
X006615Y009109D01*
X006638Y009138D01*
X006664Y009164D01*
X006693Y009187D01*
X006724Y009208D01*
X006757Y009224D01*
X006792Y009238D01*
X006827Y009247D01*
X006864Y009253D01*
X006901Y009255D01*
X006938Y009253D01*
X006975Y009247D01*
X007010Y009238D01*
X007045Y009224D01*
X007078Y009208D01*
X007109Y009187D01*
X007138Y009164D01*
X007164Y009138D01*
X007187Y009109D01*
X007208Y009078D01*
X007224Y009045D01*
X007238Y009010D01*
X007247Y008975D01*
X007253Y008938D01*
X007255Y008901D01*
X007253Y008864D01*
X007247Y008827D01*
X007238Y008792D01*
X007224Y008757D01*
X007208Y008724D01*
X007187Y008693D01*
X007164Y008664D01*
X007138Y008638D01*
X007109Y008615D01*
X007078Y008594D01*
X007045Y008578D01*
X007010Y008564D01*
X006975Y008555D01*
X006938Y008549D01*
X006901Y008547D01*
X006864Y008549D01*
X006827Y008555D01*
X006792Y008564D01*
X006757Y008578D01*
X006724Y008594D01*
X006693Y008615D01*
X006664Y008638D01*
X006638Y008664D01*
X006615Y008693D01*
X006594Y008724D01*
X006578Y008757D01*
X006564Y008792D01*
X006555Y008827D01*
X006549Y008864D01*
X006547Y008901D01*
X008118Y009905D02*
X012685Y009905D01*
X012685Y012897D01*
X008118Y012897D01*
X008118Y009905D01*
X006901Y013651D02*
X006901Y014151D01*
X006547Y013901D02*
X006549Y013938D01*
X006555Y013975D01*
X006564Y014010D01*
X006578Y014045D01*
X006594Y014078D01*
X006615Y014109D01*
X006638Y014138D01*
X006664Y014164D01*
X006693Y014187D01*
X006724Y014208D01*
X006757Y014224D01*
X006792Y014238D01*
X006827Y014247D01*
X006864Y014253D01*
X006901Y014255D01*
X006938Y014253D01*
X006975Y014247D01*
X007010Y014238D01*
X007045Y014224D01*
X007078Y014208D01*
X007109Y014187D01*
X007138Y014164D01*
X007164Y014138D01*
X007187Y014109D01*
X007208Y014078D01*
X007224Y014045D01*
X007238Y014010D01*
X007247Y013975D01*
X007253Y013938D01*
X007255Y013901D01*
X007253Y013864D01*
X007247Y013827D01*
X007238Y013792D01*
X007224Y013757D01*
X007208Y013724D01*
X007187Y013693D01*
X007164Y013664D01*
X007138Y013638D01*
X007109Y013615D01*
X007078Y013594D01*
X007045Y013578D01*
X007010Y013564D01*
X006975Y013555D01*
X006938Y013549D01*
X006901Y013547D01*
X006864Y013549D01*
X006827Y013555D01*
X006792Y013564D01*
X006757Y013578D01*
X006724Y013594D01*
X006693Y013615D01*
X006664Y013638D01*
X006638Y013664D01*
X006615Y013693D01*
X006594Y013724D01*
X006578Y013757D01*
X006564Y013792D01*
X006555Y013827D01*
X006549Y013864D01*
X006547Y013901D01*
X006651Y013901D02*
X007151Y013901D01*
X013651Y008901D02*
X014151Y008901D01*
X013547Y008901D02*
X013549Y008938D01*
X013555Y008975D01*
X013564Y009010D01*
X013578Y009045D01*
X013594Y009078D01*
X013615Y009109D01*
X013638Y009138D01*
X013664Y009164D01*
X013693Y009187D01*
X013724Y009208D01*
X013757Y009224D01*
X013792Y009238D01*
X013827Y009247D01*
X013864Y009253D01*
X013901Y009255D01*
X013938Y009253D01*
X013975Y009247D01*
X014010Y009238D01*
X014045Y009224D01*
X014078Y009208D01*
X014109Y009187D01*
X014138Y009164D01*
X014164Y009138D01*
X014187Y009109D01*
X014208Y009078D01*
X014224Y009045D01*
X014238Y009010D01*
X014247Y008975D01*
X014253Y008938D01*
X014255Y008901D01*
X014253Y008864D01*
X014247Y008827D01*
X014238Y008792D01*
X014224Y008757D01*
X014208Y008724D01*
X014187Y008693D01*
X014164Y008664D01*
X014138Y008638D01*
X014109Y008615D01*
X014078Y008594D01*
X014045Y008578D01*
X014010Y008564D01*
X013975Y008555D01*
X013938Y008549D01*
X013901Y008547D01*
X013864Y008549D01*
X013827Y008555D01*
X013792Y008564D01*
X013757Y008578D01*
X013724Y008594D01*
X013693Y008615D01*
X013664Y008638D01*
X013638Y008664D01*
X013615Y008693D01*
X013594Y008724D01*
X013578Y008757D01*
X013564Y008792D01*
X013555Y008827D01*
X013549Y008864D01*
X013547Y008901D01*
X013547Y013901D02*
X013549Y013938D01*
X013555Y013975D01*
X013564Y014010D01*
X013578Y014045D01*
X013594Y014078D01*
X013615Y014109D01*
X013638Y014138D01*
X013664Y014164D01*
X013693Y014187D01*
X013724Y014208D01*
X013757Y014224D01*
X013792Y014238D01*
X013827Y014247D01*
X013864Y014253D01*
X013901Y014255D01*
X013938Y014253D01*
X013975Y014247D01*
X014010Y014238D01*
X014045Y014224D01*
X014078Y014208D01*
X014109Y014187D01*
X014138Y014164D01*
X014164Y014138D01*
X014187Y014109D01*
X014208Y014078D01*
X014224Y014045D01*
X014238Y014010D01*
X014247Y013975D01*
X014253Y013938D01*
X014255Y013901D01*
X014253Y013864D01*
X014247Y013827D01*
X014238Y013792D01*
X014224Y013757D01*
X014208Y013724D01*
X014187Y013693D01*
X014164Y013664D01*
X014138Y013638D01*
X014109Y013615D01*
X014078Y013594D01*
X014045Y013578D01*
X014010Y013564D01*
X013975Y013555D01*
X013938Y013549D01*
X013901Y013547D01*
X013864Y013549D01*
X013827Y013555D01*
X013792Y013564D01*
X013757Y013578D01*
X013724Y013594D01*
X013693Y013615D01*
X013664Y013638D01*
X013638Y013664D01*
X013615Y013693D01*
X013594Y013724D01*
X013578Y013757D01*
X013564Y013792D01*
X013555Y013827D01*
X013549Y013864D01*
X013547Y013901D01*
M02*
