G75*
G70*
%OFA0B0*%
%FSLAX24Y24*%
%IPPOS*%
%LPD*%
%AMOC8*
5,1,8,0,0,1.08239X$1,22.5*
%
%ADD10C,0.0000*%
%ADD11OC8,0.0520*%
%ADD12C,0.0104*%
%ADD13C,0.0520*%
%ADD14C,0.0600*%
%ADD15C,0.0120*%
%ADD16R,0.1417X0.1417*%
%ADD17C,0.0160*%
%ADD18C,0.0357*%
%ADD19C,0.0100*%
D10*
X008826Y018518D02*
X008432Y018431D01*
X008043Y018326D01*
X007660Y018201D01*
X007283Y018059D01*
X006913Y017897D01*
X006552Y017719D01*
X006200Y017522D01*
X005858Y017309D01*
X005527Y017079D01*
X005207Y016834D01*
X004900Y016573D01*
X004605Y016298D01*
X004325Y016008D01*
X004059Y015705D01*
X003808Y015390D01*
X003572Y015063D01*
X003353Y014724D01*
X003151Y014376D01*
X002966Y014018D01*
X002798Y013651D01*
X002649Y013276D01*
X002518Y012895D01*
X002406Y012508D01*
X002313Y012116D01*
X002239Y011720D01*
X002184Y011320D01*
X002149Y010919D01*
X002134Y010516D01*
X002138Y010113D01*
X002162Y009710D01*
X002205Y009310D01*
X002268Y008911D01*
X002351Y008517D01*
X002452Y008127D01*
X002572Y007742D01*
X002711Y007364D01*
X002868Y006992D01*
X003043Y006629D01*
X003236Y006275D01*
X003446Y005931D01*
X003672Y005597D01*
X003914Y005275D01*
X004171Y004965D01*
X004444Y004668D01*
X004730Y004384D01*
X005030Y004115D01*
X005343Y003860D01*
X005668Y003622D01*
X006004Y003399D01*
X006351Y003193D01*
X006707Y003004D01*
X007072Y002833D01*
X007444Y002680D01*
X007824Y002545D01*
X008210Y002429D01*
X008601Y002331D01*
X008997Y002253D01*
X009396Y002194D01*
X009797Y002155D01*
X010199Y002135D01*
X010603Y002135D01*
X011005Y002155D01*
X011406Y002194D01*
X011805Y002253D01*
X012201Y002331D01*
X012592Y002429D01*
X012978Y002545D01*
X013358Y002680D01*
X013730Y002833D01*
X014095Y003004D01*
X014451Y003193D01*
X014798Y003399D01*
X015134Y003622D01*
X015459Y003860D01*
X015772Y004115D01*
X016072Y004384D01*
X016358Y004668D01*
X016631Y004965D01*
X016888Y005275D01*
X017130Y005597D01*
X017356Y005931D01*
X017566Y006275D01*
X017759Y006629D01*
X017934Y006992D01*
X018091Y007364D01*
X018230Y007742D01*
X018350Y008127D01*
X018451Y008517D01*
X018534Y008911D01*
X018597Y009310D01*
X018640Y009710D01*
X018664Y010113D01*
X018668Y010516D01*
X018653Y010919D01*
X018618Y011320D01*
X018563Y011720D01*
X018489Y012116D01*
X018396Y012508D01*
X018284Y012895D01*
X018153Y013276D01*
X018004Y013651D01*
X017836Y014018D01*
X017651Y014376D01*
X017449Y014724D01*
X017230Y015063D01*
X016994Y015390D01*
X016743Y015705D01*
X016477Y016008D01*
X016197Y016298D01*
X015902Y016573D01*
X015595Y016834D01*
X015275Y017079D01*
X014944Y017309D01*
X014602Y017522D01*
X014250Y017719D01*
X013889Y017897D01*
X013519Y018059D01*
X013142Y018201D01*
X012759Y018326D01*
X012370Y018431D01*
X011976Y018518D01*
X011976Y018669D01*
X011974Y018746D01*
X011968Y018823D01*
X011959Y018900D01*
X011946Y018976D01*
X011929Y019052D01*
X011908Y019126D01*
X011884Y019200D01*
X011856Y019272D01*
X011825Y019342D01*
X011790Y019411D01*
X011752Y019479D01*
X011711Y019544D01*
X011666Y019607D01*
X011618Y019668D01*
X011568Y019727D01*
X011515Y019783D01*
X011459Y019836D01*
X011400Y019886D01*
X011339Y019934D01*
X011276Y019979D01*
X011211Y020020D01*
X011143Y020058D01*
X011074Y020093D01*
X011004Y020124D01*
X010932Y020152D01*
X010858Y020176D01*
X010784Y020197D01*
X010708Y020214D01*
X010632Y020227D01*
X010555Y020236D01*
X010478Y020242D01*
X010401Y020244D01*
X009929Y019063D02*
X009931Y019106D01*
X009937Y019148D01*
X009947Y019190D01*
X009960Y019231D01*
X009977Y019271D01*
X009998Y019308D01*
X010022Y019344D01*
X010049Y019377D01*
X010079Y019408D01*
X010112Y019436D01*
X010147Y019461D01*
X010184Y019482D01*
X010223Y019500D01*
X010263Y019514D01*
X010305Y019525D01*
X010347Y019532D01*
X010390Y019535D01*
X010433Y019534D01*
X010476Y019529D01*
X010518Y019520D01*
X010559Y019508D01*
X010599Y019492D01*
X010637Y019472D01*
X010673Y019449D01*
X010707Y019422D01*
X010739Y019393D01*
X010767Y019361D01*
X010793Y019326D01*
X010815Y019290D01*
X010834Y019251D01*
X010849Y019211D01*
X010861Y019170D01*
X010869Y019127D01*
X010873Y019084D01*
X010873Y019042D01*
X010869Y018999D01*
X010861Y018956D01*
X010849Y018915D01*
X010834Y018875D01*
X010815Y018836D01*
X010793Y018800D01*
X010767Y018765D01*
X010739Y018733D01*
X010707Y018704D01*
X010673Y018677D01*
X010637Y018654D01*
X010599Y018634D01*
X010559Y018618D01*
X010518Y018606D01*
X010476Y018597D01*
X010433Y018592D01*
X010390Y018591D01*
X010347Y018594D01*
X010305Y018601D01*
X010263Y018612D01*
X010223Y018626D01*
X010184Y018644D01*
X010147Y018665D01*
X010112Y018690D01*
X010079Y018718D01*
X010049Y018749D01*
X010022Y018782D01*
X009998Y018818D01*
X009977Y018855D01*
X009960Y018895D01*
X009947Y018936D01*
X009937Y018978D01*
X009931Y019020D01*
X009929Y019063D01*
X008826Y018669D02*
X008828Y018746D01*
X008834Y018823D01*
X008843Y018900D01*
X008856Y018976D01*
X008873Y019052D01*
X008894Y019126D01*
X008918Y019200D01*
X008946Y019272D01*
X008977Y019342D01*
X009012Y019411D01*
X009050Y019479D01*
X009091Y019544D01*
X009136Y019607D01*
X009184Y019668D01*
X009234Y019727D01*
X009287Y019783D01*
X009343Y019836D01*
X009402Y019886D01*
X009463Y019934D01*
X009526Y019979D01*
X009591Y020020D01*
X009659Y020058D01*
X009728Y020093D01*
X009798Y020124D01*
X009870Y020152D01*
X009944Y020176D01*
X010018Y020197D01*
X010094Y020214D01*
X010170Y020227D01*
X010247Y020236D01*
X010324Y020242D01*
X010401Y020244D01*
X008826Y018669D02*
X008826Y018518D01*
D11*
X007957Y016847D03*
X006957Y016847D03*
X006261Y015757D03*
X005261Y015757D03*
X004940Y014233D03*
X003940Y014233D03*
X004102Y008405D03*
X003102Y008405D03*
X003940Y006570D03*
X004940Y006570D03*
X005261Y005046D03*
X006261Y005046D03*
X006957Y003955D03*
X007957Y003955D03*
X008893Y003387D03*
X009893Y003387D03*
X010910Y003387D03*
X011910Y003387D03*
X012845Y003955D03*
X013845Y003955D03*
X014542Y005046D03*
X015542Y005046D03*
X015863Y006570D03*
X016863Y006570D03*
X016701Y008405D03*
X017701Y008405D03*
X016863Y014233D03*
X015863Y014233D03*
X015542Y015757D03*
X014542Y015757D03*
X013845Y016847D03*
X012845Y016847D03*
X007651Y007151D03*
X007651Y005151D03*
D12*
X003634Y010203D02*
X003582Y010255D01*
X003754Y010255D01*
X003875Y010134D01*
X003875Y009962D01*
X003754Y009841D01*
X003582Y009841D01*
X003461Y009962D01*
X003461Y010134D01*
X003582Y010255D01*
X003614Y010177D01*
X003722Y010177D01*
X003797Y010102D01*
X003797Y009994D01*
X003722Y009919D01*
X003614Y009919D01*
X003539Y009994D01*
X003539Y010102D01*
X003614Y010177D01*
X003647Y010099D01*
X003689Y010099D01*
X003719Y010069D01*
X003719Y010027D01*
X003689Y009997D01*
X003647Y009997D01*
X003617Y010027D01*
X003617Y010069D01*
X003647Y010099D01*
X002927Y010910D02*
X002875Y010962D01*
X003047Y010962D01*
X003168Y010841D01*
X003168Y010669D01*
X003047Y010548D01*
X002875Y010548D01*
X002754Y010669D01*
X002754Y010841D01*
X002875Y010962D01*
X002907Y010884D01*
X003015Y010884D01*
X003090Y010809D01*
X003090Y010701D01*
X003015Y010626D01*
X002907Y010626D01*
X002832Y010701D01*
X002832Y010809D01*
X002907Y010884D01*
X002940Y010806D01*
X002982Y010806D01*
X003012Y010776D01*
X003012Y010734D01*
X002982Y010704D01*
X002940Y010704D01*
X002910Y010734D01*
X002910Y010776D01*
X002940Y010806D01*
X003093Y012010D02*
X003041Y011958D01*
X003041Y012130D01*
X003162Y012251D01*
X003334Y012251D01*
X003455Y012130D01*
X003455Y011958D01*
X003334Y011837D01*
X003162Y011837D01*
X003041Y011958D01*
X003119Y011990D01*
X003119Y012098D01*
X003194Y012173D01*
X003302Y012173D01*
X003377Y012098D01*
X003377Y011990D01*
X003302Y011915D01*
X003194Y011915D01*
X003119Y011990D01*
X003197Y012023D01*
X003197Y012065D01*
X003227Y012095D01*
X003269Y012095D01*
X003299Y012065D01*
X003299Y012023D01*
X003269Y011993D01*
X003227Y011993D01*
X003197Y012023D01*
X003800Y012717D02*
X003748Y012665D01*
X003748Y012837D01*
X003869Y012958D01*
X004041Y012958D01*
X004162Y012837D01*
X004162Y012665D01*
X004041Y012544D01*
X003869Y012544D01*
X003748Y012665D01*
X003826Y012697D01*
X003826Y012805D01*
X003901Y012880D01*
X004009Y012880D01*
X004084Y012805D01*
X004084Y012697D01*
X004009Y012622D01*
X003901Y012622D01*
X003826Y012697D01*
X003904Y012730D01*
X003904Y012772D01*
X003934Y012802D01*
X003976Y012802D01*
X004006Y012772D01*
X004006Y012730D01*
X003976Y012700D01*
X003934Y012700D01*
X003904Y012730D01*
X016813Y012906D02*
X016761Y012958D01*
X016933Y012958D01*
X017054Y012837D01*
X017054Y012665D01*
X016933Y012544D01*
X016761Y012544D01*
X016640Y012665D01*
X016640Y012837D01*
X016761Y012958D01*
X016793Y012880D01*
X016901Y012880D01*
X016976Y012805D01*
X016976Y012697D01*
X016901Y012622D01*
X016793Y012622D01*
X016718Y012697D01*
X016718Y012805D01*
X016793Y012880D01*
X016826Y012802D01*
X016868Y012802D01*
X016898Y012772D01*
X016898Y012730D01*
X016868Y012700D01*
X016826Y012700D01*
X016796Y012730D01*
X016796Y012772D01*
X016826Y012802D01*
X017520Y012199D02*
X017468Y012251D01*
X017640Y012251D01*
X017761Y012130D01*
X017761Y011958D01*
X017640Y011837D01*
X017468Y011837D01*
X017347Y011958D01*
X017347Y012130D01*
X017468Y012251D01*
X017500Y012173D01*
X017608Y012173D01*
X017683Y012098D01*
X017683Y011990D01*
X017608Y011915D01*
X017500Y011915D01*
X017425Y011990D01*
X017425Y012098D01*
X017500Y012173D01*
X017533Y012095D01*
X017575Y012095D01*
X017605Y012065D01*
X017605Y012023D01*
X017575Y011993D01*
X017533Y011993D01*
X017503Y012023D01*
X017503Y012065D01*
X017533Y012095D01*
X017686Y010721D02*
X017634Y010669D01*
X017634Y010841D01*
X017755Y010962D01*
X017927Y010962D01*
X018048Y010841D01*
X018048Y010669D01*
X017927Y010548D01*
X017755Y010548D01*
X017634Y010669D01*
X017712Y010701D01*
X017712Y010809D01*
X017787Y010884D01*
X017895Y010884D01*
X017970Y010809D01*
X017970Y010701D01*
X017895Y010626D01*
X017787Y010626D01*
X017712Y010701D01*
X017790Y010734D01*
X017790Y010776D01*
X017820Y010806D01*
X017862Y010806D01*
X017892Y010776D01*
X017892Y010734D01*
X017862Y010704D01*
X017820Y010704D01*
X017790Y010734D01*
X016979Y010014D02*
X016927Y009962D01*
X016927Y010134D01*
X017048Y010255D01*
X017220Y010255D01*
X017341Y010134D01*
X017341Y009962D01*
X017220Y009841D01*
X017048Y009841D01*
X016927Y009962D01*
X017005Y009994D01*
X017005Y010102D01*
X017080Y010177D01*
X017188Y010177D01*
X017263Y010102D01*
X017263Y009994D01*
X017188Y009919D01*
X017080Y009919D01*
X017005Y009994D01*
X017083Y010027D01*
X017083Y010069D01*
X017113Y010099D01*
X017155Y010099D01*
X017185Y010069D01*
X017185Y010027D01*
X017155Y009997D01*
X017113Y009997D01*
X017083Y010027D01*
D13*
X012161Y007651D02*
X011641Y007651D01*
X011641Y006651D02*
X012161Y006651D01*
X012161Y005651D02*
X011641Y005651D01*
X011641Y004651D02*
X012161Y004651D01*
X009161Y004651D02*
X008641Y004651D01*
X008641Y005651D02*
X009161Y005651D01*
X009161Y006651D02*
X008641Y006651D01*
X008641Y007651D02*
X009161Y007651D01*
D14*
X009421Y015011D02*
X008821Y015011D01*
X008821Y016791D02*
X009421Y016791D01*
X011381Y016791D02*
X011981Y016791D01*
X011981Y015011D02*
X011381Y015011D01*
D15*
X011284Y013931D02*
X011041Y013689D01*
X011284Y013924D02*
X011284Y013219D01*
X011524Y013211D02*
X011039Y013211D01*
X010731Y013331D02*
X010611Y013211D01*
X010371Y013211D01*
X010251Y013331D01*
X010721Y013811D01*
X010731Y013811D02*
X010611Y013931D01*
X010371Y013931D01*
X010251Y013811D01*
X010251Y013331D01*
X009941Y013211D02*
X009451Y013211D01*
X009941Y013691D01*
X009941Y013811D01*
X009941Y013821D02*
X009821Y013941D01*
X009581Y013941D01*
X009451Y013811D01*
X009071Y013831D02*
X008951Y013951D01*
X008711Y013951D01*
X008591Y013831D01*
X008591Y013951D01*
X008221Y013951D01*
X008101Y013831D01*
X008101Y013581D01*
X008221Y013461D01*
X008341Y013461D01*
X008101Y013211D01*
X008341Y013461D02*
X008591Y013461D01*
X008591Y013831D01*
X008831Y013581D02*
X009081Y013581D01*
X009081Y013341D01*
X008961Y013211D01*
X008711Y013211D01*
X008591Y013331D01*
X008591Y013211D01*
X008591Y013331D02*
X008591Y013461D01*
X010731Y013331D02*
X010731Y013811D01*
X011811Y013931D02*
X011811Y013571D01*
X012061Y013691D01*
X012191Y013691D01*
X012301Y013581D01*
X012301Y013571D02*
X012301Y013331D01*
X012181Y013211D01*
X011931Y013211D01*
X011811Y013331D01*
X011811Y013931D02*
X012301Y013931D01*
D16*
X016366Y011401D03*
X004437Y011401D03*
D17*
X005276Y005030D02*
X005276Y004526D01*
X006026Y003776D01*
X006151Y003776D01*
X006526Y003401D01*
X007151Y003401D01*
X007526Y003026D01*
X007901Y003026D01*
X008026Y002901D01*
X009401Y002901D01*
X009887Y003387D01*
X009893Y003387D01*
X008893Y003387D02*
X008416Y003387D01*
X008401Y003401D01*
X007776Y003401D01*
X007222Y003955D01*
X006957Y003955D01*
X006655Y004651D02*
X006261Y005046D01*
X006655Y004651D02*
X008901Y004651D01*
X010151Y004651D01*
X010401Y004401D01*
X010901Y003955D02*
X010910Y003946D01*
X010910Y003387D01*
X010901Y003955D02*
X008705Y003955D01*
X008401Y003651D01*
X008401Y003401D01*
X008901Y005651D02*
X010401Y005651D01*
X009776Y006151D02*
X009276Y006651D01*
X008901Y006651D01*
X006151Y006651D01*
X005401Y007401D01*
X005401Y008315D01*
X003668Y010048D01*
X002961Y010755D02*
X002961Y011091D01*
X002776Y011276D01*
X002776Y012526D01*
X003651Y013401D01*
X004026Y013401D01*
X004401Y013776D01*
X004401Y014651D01*
X004651Y014901D01*
X005276Y014901D01*
X005776Y015401D01*
X005776Y016151D01*
X006026Y016401D01*
X007526Y016401D01*
X007957Y016832D01*
X007957Y016847D01*
X007401Y015901D02*
X009901Y015901D01*
X010401Y016401D01*
X010401Y016901D01*
X010901Y017401D01*
X012401Y017401D01*
X012901Y016901D01*
X012899Y016901D01*
X012845Y016847D01*
X013936Y015757D01*
X014542Y015757D01*
X015863Y014436D01*
X015863Y014233D01*
X015863Y013736D01*
X016847Y012751D01*
X017151Y012276D02*
X017322Y012276D01*
X017554Y012044D01*
X017134Y010048D02*
X017134Y008838D01*
X016701Y008405D01*
X016697Y008401D01*
X013276Y008401D01*
X014151Y007901D02*
X015401Y007901D01*
X015401Y006401D01*
X014651Y005651D01*
X012901Y005651D01*
X012845Y005595D01*
X012845Y003955D01*
X010901Y003955D01*
X011910Y003387D02*
X012145Y003151D01*
X012901Y003151D01*
X013401Y003651D01*
X013401Y004901D01*
X013546Y005046D01*
X014542Y005046D01*
X015863Y006366D01*
X015863Y006570D01*
X015863Y007567D01*
X016701Y008405D01*
X015026Y006651D02*
X011901Y006651D01*
X010151Y006651D01*
X010026Y006651D01*
X009901Y006776D01*
X009776Y006151D02*
X014526Y006151D01*
X012901Y005651D02*
X011901Y005651D01*
X011901Y007651D02*
X011901Y011901D01*
X012901Y012901D01*
X012901Y015901D01*
X011901Y016901D01*
X011791Y016901D01*
X011681Y016791D01*
X007401Y015901D02*
X004251Y012751D01*
X003955Y012751D01*
X004437Y011401D02*
X005901Y011401D01*
X006901Y010401D01*
X006901Y007401D01*
X007151Y007151D01*
X007651Y007151D01*
X008151Y007651D01*
X008901Y007651D01*
X008901Y005651D02*
X005858Y005651D01*
X004940Y006570D01*
X003940Y006570D02*
X005261Y005249D01*
X005261Y005046D01*
X005276Y005030D01*
X003940Y006570D02*
X003102Y007408D01*
X003102Y008405D01*
X002961Y008545D01*
X002961Y010755D01*
X003940Y014233D02*
X004026Y014319D01*
X004026Y015026D01*
X004757Y015757D01*
X005261Y015757D01*
X005276Y015773D01*
X005276Y016276D01*
X005847Y016847D01*
X006957Y016847D01*
X014544Y012044D02*
X014776Y012276D01*
X015526Y012276D01*
D18*
X014544Y012044D03*
X012651Y011651D03*
X012651Y011026D03*
X012651Y010401D03*
X013276Y008401D03*
X014151Y007901D03*
X015401Y007901D03*
X015026Y006651D03*
X014526Y006151D03*
X010401Y005651D03*
X009901Y006776D03*
X010401Y004401D03*
D19*
X010779Y004686D02*
X011131Y004686D01*
X011131Y004681D02*
X011871Y004681D01*
X011871Y004621D01*
X011131Y004621D01*
X011131Y004611D01*
X011144Y004532D01*
X011169Y004455D01*
X011205Y004384D01*
X011248Y004325D01*
X010975Y004325D01*
X010870Y004325D01*
X010870Y004494D01*
X010798Y004667D01*
X010667Y004798D01*
X010494Y004870D01*
X010456Y004870D01*
X010361Y004965D01*
X010225Y005021D01*
X010078Y005021D01*
X009569Y005021D01*
X009473Y005117D01*
X009391Y005151D01*
X009473Y005185D01*
X009569Y005281D01*
X010109Y005281D01*
X010136Y005254D01*
X010308Y005183D01*
X010494Y005183D01*
X010667Y005254D01*
X010798Y005386D01*
X010870Y005558D01*
X010870Y005744D01*
X010854Y005781D01*
X011100Y005781D01*
X011091Y005761D01*
X011091Y005542D01*
X011175Y005340D01*
X011330Y005185D01*
X011463Y005130D01*
X011445Y005124D01*
X011374Y005087D01*
X011309Y005040D01*
X011252Y004983D01*
X011205Y004919D01*
X011169Y004847D01*
X011144Y004771D01*
X011131Y004691D01*
X011131Y004681D01*
X011135Y004587D02*
X010831Y004587D01*
X010870Y004489D02*
X011158Y004489D01*
X011202Y004390D02*
X010870Y004390D01*
X010681Y004784D02*
X011148Y004784D01*
X011187Y004883D02*
X010443Y004883D01*
X010321Y004981D02*
X011251Y004981D01*
X011364Y005080D02*
X009510Y005080D01*
X009457Y005178D02*
X011345Y005178D01*
X011238Y005277D02*
X010689Y005277D01*
X010788Y005376D02*
X011160Y005376D01*
X011119Y005474D02*
X010835Y005474D01*
X010870Y005573D02*
X011091Y005573D01*
X011091Y005671D02*
X010870Y005671D01*
X010859Y005770D02*
X011095Y005770D01*
X010113Y005277D02*
X009565Y005277D01*
X008411Y005151D02*
X008330Y005117D01*
X008233Y005021D01*
X008161Y005021D01*
X008161Y005121D01*
X007681Y005121D01*
X007681Y005181D01*
X008161Y005181D01*
X008161Y005281D01*
X008233Y005281D01*
X008330Y005185D01*
X008411Y005151D01*
X008345Y005178D02*
X007681Y005178D01*
X007621Y005178D02*
X006810Y005178D01*
X006810Y005273D02*
X006810Y005021D01*
X007141Y005021D01*
X007141Y005121D01*
X007621Y005121D01*
X007621Y005181D01*
X007141Y005181D01*
X007141Y005281D01*
X006803Y005281D01*
X006810Y005273D01*
X006807Y005277D02*
X007141Y005277D01*
X007141Y005080D02*
X006810Y005080D01*
X008161Y005080D02*
X008292Y005080D01*
X008238Y005277D02*
X008161Y005277D01*
X009526Y007064D02*
X009473Y007117D01*
X009391Y007151D01*
X009473Y007185D01*
X009627Y007340D01*
X009711Y007542D01*
X009711Y007761D01*
X009627Y007963D01*
X009473Y008117D01*
X009271Y008201D01*
X008532Y008201D01*
X008330Y008117D01*
X008233Y008021D01*
X008225Y008021D01*
X008078Y008021D01*
X007942Y007965D01*
X007678Y007701D01*
X007423Y007701D01*
X007274Y007552D01*
X007271Y007554D01*
X007271Y010328D01*
X007271Y010475D01*
X007215Y010611D01*
X006215Y011611D01*
X006111Y011715D01*
X005975Y011771D01*
X005435Y011771D01*
X005435Y012168D01*
X005391Y012274D01*
X005310Y012356D01*
X005203Y012400D01*
X004382Y012400D01*
X004390Y012408D01*
X004461Y012438D01*
X007554Y015531D01*
X008642Y015531D01*
X008610Y015521D01*
X008533Y015482D01*
X008463Y015431D01*
X008402Y015370D01*
X008351Y015299D01*
X008312Y015222D01*
X008285Y015140D01*
X008272Y015061D01*
X009071Y015061D01*
X009071Y014961D01*
X009171Y014961D01*
X009171Y014461D01*
X009465Y014461D01*
X009550Y014475D01*
X009632Y014502D01*
X009709Y014541D01*
X009780Y014592D01*
X009841Y014653D01*
X009892Y014723D01*
X009931Y014800D01*
X009958Y014882D01*
X009970Y014961D01*
X009171Y014961D01*
X009171Y015061D01*
X009970Y015061D01*
X009958Y015140D01*
X009931Y015222D01*
X009892Y015299D01*
X009841Y015370D01*
X009780Y015431D01*
X009709Y015482D01*
X009632Y015521D01*
X009600Y015531D01*
X009828Y015531D01*
X009975Y015531D01*
X010111Y015588D01*
X010611Y016088D01*
X010715Y016192D01*
X010771Y016328D01*
X010771Y016748D01*
X010791Y016768D01*
X010791Y016674D01*
X010881Y016457D01*
X011047Y016291D01*
X011264Y016201D01*
X012078Y016201D01*
X012531Y015748D01*
X012531Y014196D01*
X012499Y014228D01*
X012371Y014281D01*
X011881Y014281D01*
X011742Y014281D01*
X011613Y014228D01*
X011547Y014162D01*
X011482Y014228D01*
X011353Y014281D01*
X011214Y014281D01*
X011085Y014228D01*
X010947Y014090D01*
X010908Y014129D01*
X010809Y014228D01*
X010681Y014281D01*
X010441Y014281D01*
X010302Y014281D01*
X010173Y014228D01*
X010101Y014156D01*
X010019Y014238D01*
X009891Y014291D01*
X009752Y014291D01*
X009512Y014291D01*
X009383Y014238D01*
X009285Y014139D01*
X009271Y014126D01*
X009149Y014248D01*
X009021Y014301D01*
X008882Y014301D01*
X008781Y014301D01*
X008642Y014301D01*
X008291Y014301D01*
X008152Y014301D01*
X008023Y014248D01*
X007903Y014128D01*
X007805Y014029D01*
X007751Y013901D01*
X007751Y013651D01*
X007751Y013512D01*
X007798Y013398D01*
X007750Y013274D01*
X007753Y013134D01*
X007809Y013007D01*
X007909Y012911D01*
X008039Y012860D01*
X008178Y012863D01*
X008306Y012919D01*
X008346Y012961D01*
X008393Y012915D01*
X008522Y012861D01*
X008642Y012861D01*
X008781Y012861D01*
X008899Y012861D01*
X008906Y012859D01*
X008968Y012861D01*
X009031Y012861D01*
X009038Y012864D01*
X009045Y012864D01*
X009101Y012890D01*
X009159Y012915D01*
X009165Y012920D01*
X009171Y012923D01*
X009206Y012961D01*
X009250Y012917D01*
X009252Y012916D01*
X009253Y012915D01*
X009316Y012888D01*
X009378Y012862D01*
X009380Y012862D01*
X009382Y012861D01*
X009449Y012861D01*
X009517Y012861D01*
X009519Y012861D01*
X010011Y012861D01*
X010139Y012915D01*
X010156Y012931D01*
X010173Y012915D01*
X010302Y012861D01*
X010441Y012861D01*
X010542Y012861D01*
X010681Y012861D01*
X010809Y012915D01*
X010825Y012930D01*
X010840Y012915D01*
X010969Y012861D01*
X011593Y012861D01*
X011722Y012915D01*
X011727Y012920D01*
X011733Y012915D01*
X011862Y012861D01*
X012001Y012861D01*
X012112Y012861D01*
X012251Y012861D01*
X012379Y012915D01*
X012531Y013066D01*
X012531Y013054D01*
X011588Y012111D01*
X011531Y011975D01*
X011531Y011828D01*
X011531Y008201D01*
X011330Y008117D01*
X011175Y007963D01*
X011091Y007761D01*
X011091Y007542D01*
X011175Y007340D01*
X011330Y007185D01*
X011411Y007151D01*
X011330Y007117D01*
X011233Y007021D01*
X010307Y007021D01*
X010298Y007042D01*
X010167Y007173D01*
X009994Y007245D01*
X009808Y007245D01*
X009636Y007173D01*
X009526Y007064D01*
X009612Y007149D02*
X009396Y007149D01*
X009536Y007248D02*
X011267Y007248D01*
X011172Y007346D02*
X009630Y007346D01*
X009671Y007445D02*
X011131Y007445D01*
X011091Y007544D02*
X009711Y007544D01*
X009711Y007642D02*
X011091Y007642D01*
X011091Y007741D02*
X009711Y007741D01*
X009679Y007839D02*
X011124Y007839D01*
X011165Y007938D02*
X009638Y007938D01*
X009554Y008036D02*
X011248Y008036D01*
X011371Y008135D02*
X009431Y008135D01*
X008371Y008135D02*
X007271Y008135D01*
X007271Y008233D02*
X011531Y008233D01*
X011531Y008332D02*
X007271Y008332D01*
X007271Y008430D02*
X011531Y008430D01*
X011531Y008529D02*
X007271Y008529D01*
X007271Y008627D02*
X011531Y008627D01*
X011531Y008726D02*
X007271Y008726D01*
X007271Y008825D02*
X011531Y008825D01*
X011531Y008923D02*
X007271Y008923D01*
X007271Y009022D02*
X011531Y009022D01*
X011531Y009120D02*
X007271Y009120D01*
X007271Y009219D02*
X011531Y009219D01*
X011531Y009317D02*
X007271Y009317D01*
X007271Y009416D02*
X011531Y009416D01*
X011531Y009514D02*
X007271Y009514D01*
X007271Y009613D02*
X011531Y009613D01*
X011531Y009711D02*
X007271Y009711D01*
X007271Y009810D02*
X011531Y009810D01*
X011531Y009909D02*
X007271Y009909D01*
X007271Y010007D02*
X011531Y010007D01*
X011531Y010106D02*
X007271Y010106D01*
X007271Y010204D02*
X011531Y010204D01*
X011531Y010303D02*
X007271Y010303D01*
X007271Y010401D02*
X011531Y010401D01*
X011531Y010500D02*
X007261Y010500D01*
X007220Y010598D02*
X011531Y010598D01*
X011531Y010697D02*
X007129Y010697D01*
X007030Y010795D02*
X011531Y010795D01*
X011531Y010894D02*
X006932Y010894D01*
X006833Y010993D02*
X011531Y010993D01*
X011531Y011091D02*
X006735Y011091D01*
X006636Y011190D02*
X011531Y011190D01*
X011531Y011288D02*
X006538Y011288D01*
X006439Y011387D02*
X011531Y011387D01*
X011531Y011485D02*
X006340Y011485D01*
X006242Y011584D02*
X011531Y011584D01*
X011531Y011682D02*
X006143Y011682D01*
X005435Y011781D02*
X011531Y011781D01*
X011531Y011879D02*
X005435Y011879D01*
X005435Y011978D02*
X011533Y011978D01*
X011573Y012076D02*
X005435Y012076D01*
X005432Y012175D02*
X011652Y012175D01*
X011750Y012274D02*
X005391Y012274D01*
X005270Y012372D02*
X011849Y012372D01*
X011947Y012471D02*
X004494Y012471D01*
X004592Y012569D02*
X012046Y012569D01*
X012145Y012668D02*
X004691Y012668D01*
X004789Y012766D02*
X012243Y012766D01*
X012259Y012865D02*
X012342Y012865D01*
X012428Y012963D02*
X012440Y012963D01*
X012527Y013062D02*
X012531Y013062D01*
X013092Y012569D02*
X014546Y012569D01*
X014567Y012590D02*
X014489Y012513D01*
X014451Y012513D01*
X014279Y012441D01*
X014147Y012310D01*
X014076Y012137D01*
X014076Y011951D01*
X014147Y011779D01*
X014279Y011647D01*
X014451Y011576D01*
X014637Y011576D01*
X014810Y011647D01*
X014941Y011779D01*
X014994Y011906D01*
X015407Y011906D01*
X015407Y011451D01*
X016316Y011451D01*
X016316Y011351D01*
X016416Y011351D01*
X016416Y010443D01*
X016752Y010443D01*
X016584Y010275D01*
X016584Y009820D01*
X016764Y009640D01*
X016764Y008991D01*
X016728Y008955D01*
X016473Y008955D01*
X016290Y008771D01*
X013569Y008771D01*
X013542Y008798D01*
X013369Y008870D01*
X013183Y008870D01*
X013011Y008798D01*
X012879Y008667D01*
X012808Y008494D01*
X012808Y008308D01*
X012879Y008136D01*
X013011Y008004D01*
X013183Y007933D01*
X013369Y007933D01*
X013542Y008004D01*
X013569Y008031D01*
X013698Y008031D01*
X013683Y007994D01*
X013683Y007808D01*
X013754Y007636D01*
X013886Y007504D01*
X014058Y007433D01*
X014244Y007433D01*
X014417Y007504D01*
X014444Y007531D01*
X015031Y007531D01*
X015031Y007120D01*
X014933Y007120D01*
X014761Y007048D01*
X014734Y007021D01*
X012569Y007021D01*
X012473Y007117D01*
X012391Y007151D01*
X012473Y007185D01*
X012627Y007340D01*
X012711Y007542D01*
X012711Y007761D01*
X012627Y007963D01*
X012473Y008117D01*
X012271Y008201D01*
X012271Y011748D01*
X013111Y012588D01*
X013215Y012692D01*
X013271Y012828D01*
X013271Y015828D01*
X013271Y015898D01*
X013726Y015443D01*
X013862Y015387D01*
X014009Y015387D01*
X014134Y015387D01*
X014314Y015207D01*
X014569Y015207D01*
X015314Y014462D01*
X015313Y014460D01*
X015313Y014005D01*
X015493Y013825D01*
X015493Y013809D01*
X015493Y013662D01*
X015549Y013526D01*
X016297Y012778D01*
X016297Y012616D01*
X015672Y012616D01*
X015600Y012646D01*
X014703Y012646D01*
X014567Y012590D01*
X014350Y012471D02*
X012994Y012471D01*
X012895Y012372D02*
X014210Y012372D01*
X014132Y012274D02*
X012797Y012274D01*
X012698Y012175D02*
X014091Y012175D01*
X014076Y012076D02*
X012600Y012076D01*
X012501Y011978D02*
X014076Y011978D01*
X014105Y011879D02*
X012403Y011879D01*
X012304Y011781D02*
X014146Y011781D01*
X014244Y011682D02*
X012271Y011682D01*
X012271Y011584D02*
X014432Y011584D01*
X014657Y011584D02*
X015407Y011584D01*
X015407Y011682D02*
X014845Y011682D01*
X014942Y011781D02*
X015407Y011781D01*
X015407Y011879D02*
X014983Y011879D01*
X015407Y011485D02*
X012271Y011485D01*
X012271Y011387D02*
X016316Y011387D01*
X016316Y011351D02*
X015407Y011351D01*
X015407Y010668D01*
X015417Y010620D01*
X015436Y010574D01*
X015463Y010533D01*
X015498Y010498D01*
X015539Y010471D01*
X015584Y010452D01*
X015633Y010443D01*
X016316Y010443D01*
X016316Y011351D01*
X016316Y011288D02*
X016416Y011288D01*
X016416Y011351D02*
X016416Y011451D01*
X017324Y011451D01*
X017324Y011496D01*
X017327Y011494D01*
X017782Y011494D01*
X018104Y011816D01*
X018104Y012272D01*
X017782Y012594D01*
X017522Y012594D01*
X017397Y012646D01*
X017397Y012979D01*
X017075Y013301D01*
X016821Y013301D01*
X016265Y013857D01*
X016363Y013955D01*
X016635Y013683D01*
X017091Y013683D01*
X017413Y014005D01*
X017413Y014180D01*
X017762Y013477D01*
X018101Y012489D01*
X018308Y011464D01*
X018337Y011037D01*
X018069Y011305D01*
X017614Y011305D01*
X017324Y011016D01*
X017324Y011351D01*
X016416Y011351D01*
X016416Y011387D02*
X018313Y011387D01*
X018304Y011485D02*
X017324Y011485D01*
X017324Y011288D02*
X017597Y011288D01*
X017499Y011190D02*
X017324Y011190D01*
X017324Y011091D02*
X017400Y011091D01*
X017872Y011584D02*
X018284Y011584D01*
X018264Y011682D02*
X017970Y011682D01*
X018069Y011781D02*
X018244Y011781D01*
X018224Y011879D02*
X018104Y011879D01*
X018104Y011978D02*
X018204Y011978D01*
X018184Y012076D02*
X018104Y012076D01*
X018104Y012175D02*
X018164Y012175D01*
X018144Y012274D02*
X018103Y012274D01*
X018125Y012372D02*
X018004Y012372D01*
X017906Y012471D02*
X018105Y012471D01*
X018073Y012569D02*
X017807Y012569D01*
X018040Y012668D02*
X017397Y012668D01*
X017397Y012766D02*
X018006Y012766D01*
X017972Y012865D02*
X017397Y012865D01*
X017397Y012963D02*
X017938Y012963D01*
X017904Y013062D02*
X017314Y013062D01*
X017216Y013160D02*
X017871Y013160D01*
X017837Y013259D02*
X017117Y013259D01*
X016764Y013358D02*
X017803Y013358D01*
X017769Y013456D02*
X016666Y013456D01*
X016567Y013555D02*
X017724Y013555D01*
X017675Y013653D02*
X016469Y013653D01*
X016566Y013752D02*
X016370Y013752D01*
X016467Y013850D02*
X016272Y013850D01*
X016357Y013949D02*
X016369Y013949D01*
X015718Y013358D02*
X013271Y013358D01*
X013271Y013456D02*
X015619Y013456D01*
X015537Y013555D02*
X013271Y013555D01*
X013271Y013653D02*
X015497Y013653D01*
X015493Y013752D02*
X013271Y013752D01*
X013271Y013850D02*
X015467Y013850D01*
X015369Y013949D02*
X013271Y013949D01*
X013271Y014047D02*
X015313Y014047D01*
X015313Y014146D02*
X013271Y014146D01*
X013271Y014244D02*
X015313Y014244D01*
X015313Y014343D02*
X013271Y014343D01*
X013271Y014442D02*
X015313Y014442D01*
X015236Y014540D02*
X013271Y014540D01*
X013271Y014639D02*
X015137Y014639D01*
X015039Y014737D02*
X013271Y014737D01*
X013271Y014836D02*
X014940Y014836D01*
X014841Y014934D02*
X013271Y014934D01*
X013271Y015033D02*
X014743Y015033D01*
X014644Y015131D02*
X013271Y015131D01*
X013271Y015230D02*
X014291Y015230D01*
X014193Y015328D02*
X013271Y015328D01*
X013271Y015427D02*
X013765Y015427D01*
X013644Y015526D02*
X013271Y015526D01*
X013271Y015624D02*
X013545Y015624D01*
X013447Y015723D02*
X013271Y015723D01*
X013271Y015821D02*
X013348Y015821D01*
X012531Y015723D02*
X010246Y015723D01*
X010344Y015821D02*
X012458Y015821D01*
X012360Y015920D02*
X010443Y015920D01*
X010541Y016018D02*
X012261Y016018D01*
X012162Y016117D02*
X010640Y016117D01*
X010725Y016215D02*
X011230Y016215D01*
X011024Y016314D02*
X010765Y016314D01*
X010771Y016412D02*
X010926Y016412D01*
X010859Y016511D02*
X010771Y016511D01*
X010771Y016609D02*
X010818Y016609D01*
X010791Y016708D02*
X010771Y016708D01*
X010147Y015624D02*
X012531Y015624D01*
X012531Y015526D02*
X012178Y015526D01*
X012192Y015521D02*
X012110Y015548D01*
X012025Y015561D01*
X011731Y015561D01*
X011731Y015061D01*
X011631Y015061D01*
X011631Y014961D01*
X011731Y014961D01*
X011731Y014461D01*
X012025Y014461D01*
X012110Y014475D01*
X012192Y014502D01*
X012269Y014541D01*
X012340Y014592D01*
X012401Y014653D01*
X012452Y014723D01*
X012491Y014800D01*
X012518Y014882D01*
X012530Y014961D01*
X011731Y014961D01*
X011731Y015061D01*
X012530Y015061D01*
X012518Y015140D01*
X012491Y015222D01*
X012452Y015299D01*
X012401Y015370D01*
X012340Y015431D01*
X012269Y015482D01*
X012192Y015521D01*
X012343Y015427D02*
X012531Y015427D01*
X012531Y015328D02*
X012431Y015328D01*
X012487Y015230D02*
X012531Y015230D01*
X012519Y015131D02*
X012531Y015131D01*
X012531Y015033D02*
X011731Y015033D01*
X011731Y015131D02*
X011631Y015131D01*
X011631Y015061D02*
X011631Y015561D01*
X011338Y015561D01*
X011252Y015548D01*
X011170Y015521D01*
X011093Y015482D01*
X011023Y015431D01*
X010962Y015370D01*
X010911Y015299D01*
X010872Y015222D01*
X010845Y015140D01*
X010832Y015061D01*
X011631Y015061D01*
X011631Y015033D02*
X009171Y015033D01*
X009171Y014934D02*
X009071Y014934D01*
X009071Y014961D02*
X009071Y014461D01*
X008778Y014461D01*
X008692Y014475D01*
X008610Y014502D01*
X008533Y014541D01*
X008463Y014592D01*
X008402Y014653D01*
X008351Y014723D01*
X008312Y014800D01*
X008285Y014882D01*
X008272Y014961D01*
X009071Y014961D01*
X009071Y015033D02*
X007056Y015033D01*
X007155Y015131D02*
X008283Y015131D01*
X008315Y015230D02*
X007253Y015230D01*
X007352Y015328D02*
X008372Y015328D01*
X008459Y015427D02*
X007450Y015427D01*
X007549Y015526D02*
X008624Y015526D01*
X008277Y014934D02*
X006957Y014934D01*
X006859Y014836D02*
X008300Y014836D01*
X008344Y014737D02*
X006760Y014737D01*
X006662Y014639D02*
X008416Y014639D01*
X008535Y014540D02*
X006563Y014540D01*
X006465Y014442D02*
X012531Y014442D01*
X012531Y014540D02*
X012268Y014540D01*
X012386Y014639D02*
X012531Y014639D01*
X012531Y014737D02*
X012459Y014737D01*
X012502Y014836D02*
X012531Y014836D01*
X012526Y014934D02*
X012531Y014934D01*
X012531Y014343D02*
X006366Y014343D01*
X006268Y014244D02*
X008019Y014244D01*
X007921Y014146D02*
X006169Y014146D01*
X006071Y014047D02*
X007822Y014047D01*
X007771Y013949D02*
X005972Y013949D01*
X005873Y013850D02*
X007751Y013850D01*
X007751Y013752D02*
X005775Y013752D01*
X005676Y013653D02*
X007751Y013653D01*
X007751Y013555D02*
X005578Y013555D01*
X005479Y013456D02*
X007774Y013456D01*
X007783Y013358D02*
X005381Y013358D01*
X005282Y013259D02*
X007750Y013259D01*
X007752Y013160D02*
X005184Y013160D01*
X005085Y013062D02*
X007785Y013062D01*
X007854Y012963D02*
X004987Y012963D01*
X004888Y012865D02*
X008026Y012865D01*
X008183Y012865D02*
X008513Y012865D01*
X009046Y012865D02*
X009371Y012865D01*
X010019Y012865D02*
X010293Y012865D01*
X010689Y012865D02*
X010960Y012865D01*
X011602Y012865D02*
X011853Y012865D01*
X013191Y012668D02*
X016297Y012668D01*
X016297Y012766D02*
X013246Y012766D01*
X013271Y012865D02*
X016211Y012865D01*
X016112Y012963D02*
X013271Y012963D01*
X013271Y013062D02*
X016013Y013062D01*
X015915Y013160D02*
X013271Y013160D01*
X013271Y013259D02*
X015816Y013259D01*
X015526Y012276D02*
X017151Y012276D01*
X018086Y011288D02*
X018320Y011288D01*
X018327Y011190D02*
X018184Y011190D01*
X018283Y011091D02*
X018333Y011091D01*
X016710Y010401D02*
X012271Y010401D01*
X012271Y010303D02*
X016612Y010303D01*
X016584Y010204D02*
X012271Y010204D01*
X012271Y010106D02*
X016584Y010106D01*
X016584Y010007D02*
X012271Y010007D01*
X012271Y009909D02*
X016584Y009909D01*
X016594Y009810D02*
X012271Y009810D01*
X012271Y009711D02*
X016693Y009711D01*
X016764Y009613D02*
X012271Y009613D01*
X012271Y009514D02*
X016764Y009514D01*
X016764Y009416D02*
X012271Y009416D01*
X012271Y009317D02*
X016764Y009317D01*
X016764Y009219D02*
X012271Y009219D01*
X012271Y009120D02*
X016764Y009120D01*
X016764Y009022D02*
X012271Y009022D01*
X012271Y008923D02*
X016441Y008923D01*
X016343Y008825D02*
X013478Y008825D01*
X013074Y008825D02*
X012271Y008825D01*
X012271Y008726D02*
X012939Y008726D01*
X012863Y008627D02*
X012271Y008627D01*
X012271Y008529D02*
X012822Y008529D01*
X012808Y008430D02*
X012271Y008430D01*
X012271Y008332D02*
X012808Y008332D01*
X012839Y008233D02*
X012271Y008233D01*
X012431Y008135D02*
X012880Y008135D01*
X012979Y008036D02*
X012554Y008036D01*
X012638Y007938D02*
X013171Y007938D01*
X013381Y007938D02*
X013683Y007938D01*
X013683Y007839D02*
X012679Y007839D01*
X012711Y007741D02*
X013711Y007741D01*
X013752Y007642D02*
X012711Y007642D01*
X012711Y007544D02*
X013847Y007544D01*
X014029Y007445D02*
X012671Y007445D01*
X012630Y007346D02*
X015031Y007346D01*
X015031Y007248D02*
X012536Y007248D01*
X012396Y007149D02*
X015031Y007149D01*
X015031Y007445D02*
X014274Y007445D01*
X014767Y007051D02*
X012539Y007051D01*
X011407Y007149D02*
X010191Y007149D01*
X010289Y007051D02*
X011263Y007051D01*
X008248Y008036D02*
X007271Y008036D01*
X007271Y007938D02*
X007914Y007938D01*
X007816Y007839D02*
X007271Y007839D01*
X007271Y007741D02*
X007717Y007741D01*
X007364Y007642D02*
X007271Y007642D01*
X012271Y010500D02*
X015496Y010500D01*
X015426Y010598D02*
X012271Y010598D01*
X012271Y010697D02*
X015407Y010697D01*
X015407Y010795D02*
X012271Y010795D01*
X012271Y010894D02*
X015407Y010894D01*
X015407Y010993D02*
X012271Y010993D01*
X012271Y011091D02*
X015407Y011091D01*
X015407Y011190D02*
X012271Y011190D01*
X012271Y011288D02*
X015407Y011288D01*
X016316Y011190D02*
X016416Y011190D01*
X016416Y011091D02*
X016316Y011091D01*
X016316Y010993D02*
X016416Y010993D01*
X016416Y010894D02*
X016316Y010894D01*
X016316Y010795D02*
X016416Y010795D01*
X016416Y010697D02*
X016316Y010697D01*
X016316Y010598D02*
X016416Y010598D01*
X016416Y010500D02*
X016316Y010500D01*
X017160Y013752D02*
X017626Y013752D01*
X017577Y013850D02*
X017258Y013850D01*
X017357Y013949D02*
X017528Y013949D01*
X017479Y014047D02*
X017413Y014047D01*
X017413Y014146D02*
X017430Y014146D01*
X012531Y014244D02*
X012460Y014244D01*
X011731Y014540D02*
X011631Y014540D01*
X011631Y014461D02*
X011631Y014961D01*
X010832Y014961D01*
X010845Y014882D01*
X010872Y014800D01*
X010911Y014723D01*
X010962Y014653D01*
X011023Y014592D01*
X011093Y014541D01*
X011170Y014502D01*
X011252Y014475D01*
X011338Y014461D01*
X011631Y014461D01*
X011631Y014639D02*
X011731Y014639D01*
X011731Y014737D02*
X011631Y014737D01*
X011631Y014836D02*
X011731Y014836D01*
X011731Y014934D02*
X011631Y014934D01*
X011631Y015230D02*
X011731Y015230D01*
X011731Y015328D02*
X011631Y015328D01*
X011631Y015427D02*
X011731Y015427D01*
X011731Y015526D02*
X011631Y015526D01*
X011184Y015526D02*
X009618Y015526D01*
X009783Y015427D02*
X011019Y015427D01*
X010932Y015328D02*
X009871Y015328D01*
X009927Y015230D02*
X010875Y015230D01*
X010843Y015131D02*
X009959Y015131D01*
X009966Y014934D02*
X010837Y014934D01*
X010860Y014836D02*
X009942Y014836D01*
X009899Y014737D02*
X010904Y014737D01*
X010976Y014639D02*
X009826Y014639D01*
X009708Y014540D02*
X011095Y014540D01*
X011125Y014244D02*
X010770Y014244D01*
X010892Y014146D02*
X011003Y014146D01*
X011442Y014244D02*
X011653Y014244D01*
X010213Y014244D02*
X010004Y014244D01*
X009399Y014244D02*
X009153Y014244D01*
X009252Y014146D02*
X009291Y014146D01*
X009171Y014540D02*
X009071Y014540D01*
X009071Y014639D02*
X009171Y014639D01*
X009171Y014737D02*
X009071Y014737D01*
X009071Y014836D02*
X009171Y014836D01*
M02*
