%
M48
M72
T01C0.0197
T02C0.0320
T03C0.0400
T04C0.0945
%
T01
X14544Y12044
X12651Y11651
X12651Y11026
X12651Y10401
X13276Y8401
X14151Y7901
X15401Y7901
X15026Y6651
X14526Y6151
X10401Y5651
X9901Y6776
X10401Y4401
T02
X5261Y5046
X6261Y5046
X6957Y3955
X7957Y3955
X8893Y3387
X9893Y3387
X10910Y3387
X11910Y3387
X12845Y3955
X11901Y4651
X11901Y5651
X11901Y6651
X11901Y7651
X14542Y5046
X15542Y5046
X15863Y6570
X16863Y6570
X16701Y8405
X17701Y8405
X17134Y10048
X17841Y10755
X17554Y12044
X16847Y12751
X16863Y14233
X15863Y14233
X15542Y15757
X14542Y15757
X13845Y16847
X12845Y16847
X7957Y16847
X6957Y16847
X6261Y15757
X5261Y15757
X4940Y14233
X3940Y14233
X3955Y12751
X3248Y12044
X2961Y10755
X3668Y10048
X4102Y8405
X3102Y8405
X3940Y6570
X4940Y6570
X7651Y7151
X8901Y6651
X8901Y5651
X8901Y4651
X7651Y5151
X8901Y7651
X13845Y3955
T03
X9121Y16791
X9121Y15011
X11681Y15011
X11681Y16791
T04
X10401Y19063
M30
