G75*
G70*
%OFA0B0*%
%FSLAX24Y24*%
%IPPOS*%
%LPD*%
%AMOC8*
5,1,8,0,0,1.08239X$1,22.5*
%
%ADD10C,0.0000*%
%ADD11OC8,0.0520*%
%ADD12C,0.0104*%
%ADD13C,0.0520*%
%ADD14C,0.0600*%
%ADD15C,0.0160*%
%ADD16C,0.0357*%
%ADD17C,0.0100*%
D10*
X008826Y018518D02*
X008432Y018431D01*
X008043Y018326D01*
X007660Y018201D01*
X007283Y018059D01*
X006913Y017897D01*
X006552Y017719D01*
X006200Y017522D01*
X005858Y017309D01*
X005527Y017079D01*
X005207Y016834D01*
X004900Y016573D01*
X004605Y016298D01*
X004325Y016008D01*
X004059Y015705D01*
X003808Y015390D01*
X003572Y015063D01*
X003353Y014724D01*
X003151Y014376D01*
X002966Y014018D01*
X002798Y013651D01*
X002649Y013276D01*
X002518Y012895D01*
X002406Y012508D01*
X002313Y012116D01*
X002239Y011720D01*
X002184Y011320D01*
X002149Y010919D01*
X002134Y010516D01*
X002138Y010113D01*
X002162Y009710D01*
X002205Y009310D01*
X002268Y008911D01*
X002351Y008517D01*
X002452Y008127D01*
X002572Y007742D01*
X002711Y007364D01*
X002868Y006992D01*
X003043Y006629D01*
X003236Y006275D01*
X003446Y005931D01*
X003672Y005597D01*
X003914Y005275D01*
X004171Y004965D01*
X004444Y004668D01*
X004730Y004384D01*
X005030Y004115D01*
X005343Y003860D01*
X005668Y003622D01*
X006004Y003399D01*
X006351Y003193D01*
X006707Y003004D01*
X007072Y002833D01*
X007444Y002680D01*
X007824Y002545D01*
X008210Y002429D01*
X008601Y002331D01*
X008997Y002253D01*
X009396Y002194D01*
X009797Y002155D01*
X010199Y002135D01*
X010603Y002135D01*
X011005Y002155D01*
X011406Y002194D01*
X011805Y002253D01*
X012201Y002331D01*
X012592Y002429D01*
X012978Y002545D01*
X013358Y002680D01*
X013730Y002833D01*
X014095Y003004D01*
X014451Y003193D01*
X014798Y003399D01*
X015134Y003622D01*
X015459Y003860D01*
X015772Y004115D01*
X016072Y004384D01*
X016358Y004668D01*
X016631Y004965D01*
X016888Y005275D01*
X017130Y005597D01*
X017356Y005931D01*
X017566Y006275D01*
X017759Y006629D01*
X017934Y006992D01*
X018091Y007364D01*
X018230Y007742D01*
X018350Y008127D01*
X018451Y008517D01*
X018534Y008911D01*
X018597Y009310D01*
X018640Y009710D01*
X018664Y010113D01*
X018668Y010516D01*
X018653Y010919D01*
X018618Y011320D01*
X018563Y011720D01*
X018489Y012116D01*
X018396Y012508D01*
X018284Y012895D01*
X018153Y013276D01*
X018004Y013651D01*
X017836Y014018D01*
X017651Y014376D01*
X017449Y014724D01*
X017230Y015063D01*
X016994Y015390D01*
X016743Y015705D01*
X016477Y016008D01*
X016197Y016298D01*
X015902Y016573D01*
X015595Y016834D01*
X015275Y017079D01*
X014944Y017309D01*
X014602Y017522D01*
X014250Y017719D01*
X013889Y017897D01*
X013519Y018059D01*
X013142Y018201D01*
X012759Y018326D01*
X012370Y018431D01*
X011976Y018518D01*
X011976Y018669D01*
X011974Y018746D01*
X011968Y018823D01*
X011959Y018900D01*
X011946Y018976D01*
X011929Y019052D01*
X011908Y019126D01*
X011884Y019200D01*
X011856Y019272D01*
X011825Y019342D01*
X011790Y019411D01*
X011752Y019479D01*
X011711Y019544D01*
X011666Y019607D01*
X011618Y019668D01*
X011568Y019727D01*
X011515Y019783D01*
X011459Y019836D01*
X011400Y019886D01*
X011339Y019934D01*
X011276Y019979D01*
X011211Y020020D01*
X011143Y020058D01*
X011074Y020093D01*
X011004Y020124D01*
X010932Y020152D01*
X010858Y020176D01*
X010784Y020197D01*
X010708Y020214D01*
X010632Y020227D01*
X010555Y020236D01*
X010478Y020242D01*
X010401Y020244D01*
X009929Y019063D02*
X009931Y019106D01*
X009937Y019148D01*
X009947Y019190D01*
X009960Y019231D01*
X009977Y019271D01*
X009998Y019308D01*
X010022Y019344D01*
X010049Y019377D01*
X010079Y019408D01*
X010112Y019436D01*
X010147Y019461D01*
X010184Y019482D01*
X010223Y019500D01*
X010263Y019514D01*
X010305Y019525D01*
X010347Y019532D01*
X010390Y019535D01*
X010433Y019534D01*
X010476Y019529D01*
X010518Y019520D01*
X010559Y019508D01*
X010599Y019492D01*
X010637Y019472D01*
X010673Y019449D01*
X010707Y019422D01*
X010739Y019393D01*
X010767Y019361D01*
X010793Y019326D01*
X010815Y019290D01*
X010834Y019251D01*
X010849Y019211D01*
X010861Y019170D01*
X010869Y019127D01*
X010873Y019084D01*
X010873Y019042D01*
X010869Y018999D01*
X010861Y018956D01*
X010849Y018915D01*
X010834Y018875D01*
X010815Y018836D01*
X010793Y018800D01*
X010767Y018765D01*
X010739Y018733D01*
X010707Y018704D01*
X010673Y018677D01*
X010637Y018654D01*
X010599Y018634D01*
X010559Y018618D01*
X010518Y018606D01*
X010476Y018597D01*
X010433Y018592D01*
X010390Y018591D01*
X010347Y018594D01*
X010305Y018601D01*
X010263Y018612D01*
X010223Y018626D01*
X010184Y018644D01*
X010147Y018665D01*
X010112Y018690D01*
X010079Y018718D01*
X010049Y018749D01*
X010022Y018782D01*
X009998Y018818D01*
X009977Y018855D01*
X009960Y018895D01*
X009947Y018936D01*
X009937Y018978D01*
X009931Y019020D01*
X009929Y019063D01*
X008826Y018669D02*
X008828Y018746D01*
X008834Y018823D01*
X008843Y018900D01*
X008856Y018976D01*
X008873Y019052D01*
X008894Y019126D01*
X008918Y019200D01*
X008946Y019272D01*
X008977Y019342D01*
X009012Y019411D01*
X009050Y019479D01*
X009091Y019544D01*
X009136Y019607D01*
X009184Y019668D01*
X009234Y019727D01*
X009287Y019783D01*
X009343Y019836D01*
X009402Y019886D01*
X009463Y019934D01*
X009526Y019979D01*
X009591Y020020D01*
X009659Y020058D01*
X009728Y020093D01*
X009798Y020124D01*
X009870Y020152D01*
X009944Y020176D01*
X010018Y020197D01*
X010094Y020214D01*
X010170Y020227D01*
X010247Y020236D01*
X010324Y020242D01*
X010401Y020244D01*
X008826Y018669D02*
X008826Y018518D01*
D11*
X005261Y005046D03*
X006261Y005046D03*
X006957Y003955D03*
X007957Y003955D03*
X008893Y003387D03*
X009893Y003387D03*
X010910Y003387D03*
X011910Y003387D03*
X012845Y003955D03*
X013845Y003955D03*
X014542Y005046D03*
X015542Y005046D03*
X015863Y006570D03*
X016863Y006570D03*
X016701Y008405D03*
X017701Y008405D03*
X016863Y014233D03*
X015863Y014233D03*
X015542Y015757D03*
X014542Y015757D03*
X013845Y016847D03*
X012845Y016847D03*
X007957Y016847D03*
X006957Y016847D03*
X006261Y015757D03*
X005261Y015757D03*
X004940Y014233D03*
X003940Y014233D03*
X004102Y008405D03*
X003102Y008405D03*
X003940Y006570D03*
X004940Y006570D03*
X007651Y007151D03*
X007651Y005151D03*
D12*
X003634Y010203D02*
X003582Y010255D01*
X003754Y010255D01*
X003875Y010134D01*
X003875Y009962D01*
X003754Y009841D01*
X003582Y009841D01*
X003461Y009962D01*
X003461Y010134D01*
X003582Y010255D01*
X003614Y010177D01*
X003722Y010177D01*
X003797Y010102D01*
X003797Y009994D01*
X003722Y009919D01*
X003614Y009919D01*
X003539Y009994D01*
X003539Y010102D01*
X003614Y010177D01*
X003647Y010099D01*
X003689Y010099D01*
X003719Y010069D01*
X003719Y010027D01*
X003689Y009997D01*
X003647Y009997D01*
X003617Y010027D01*
X003617Y010069D01*
X003647Y010099D01*
X002927Y010910D02*
X002875Y010962D01*
X003047Y010962D01*
X003168Y010841D01*
X003168Y010669D01*
X003047Y010548D01*
X002875Y010548D01*
X002754Y010669D01*
X002754Y010841D01*
X002875Y010962D01*
X002907Y010884D01*
X003015Y010884D01*
X003090Y010809D01*
X003090Y010701D01*
X003015Y010626D01*
X002907Y010626D01*
X002832Y010701D01*
X002832Y010809D01*
X002907Y010884D01*
X002940Y010806D01*
X002982Y010806D01*
X003012Y010776D01*
X003012Y010734D01*
X002982Y010704D01*
X002940Y010704D01*
X002910Y010734D01*
X002910Y010776D01*
X002940Y010806D01*
X003093Y012010D02*
X003041Y011958D01*
X003041Y012130D01*
X003162Y012251D01*
X003334Y012251D01*
X003455Y012130D01*
X003455Y011958D01*
X003334Y011837D01*
X003162Y011837D01*
X003041Y011958D01*
X003119Y011990D01*
X003119Y012098D01*
X003194Y012173D01*
X003302Y012173D01*
X003377Y012098D01*
X003377Y011990D01*
X003302Y011915D01*
X003194Y011915D01*
X003119Y011990D01*
X003197Y012023D01*
X003197Y012065D01*
X003227Y012095D01*
X003269Y012095D01*
X003299Y012065D01*
X003299Y012023D01*
X003269Y011993D01*
X003227Y011993D01*
X003197Y012023D01*
X003800Y012717D02*
X003748Y012665D01*
X003748Y012837D01*
X003869Y012958D01*
X004041Y012958D01*
X004162Y012837D01*
X004162Y012665D01*
X004041Y012544D01*
X003869Y012544D01*
X003748Y012665D01*
X003826Y012697D01*
X003826Y012805D01*
X003901Y012880D01*
X004009Y012880D01*
X004084Y012805D01*
X004084Y012697D01*
X004009Y012622D01*
X003901Y012622D01*
X003826Y012697D01*
X003904Y012730D01*
X003904Y012772D01*
X003934Y012802D01*
X003976Y012802D01*
X004006Y012772D01*
X004006Y012730D01*
X003976Y012700D01*
X003934Y012700D01*
X003904Y012730D01*
X016813Y012906D02*
X016761Y012958D01*
X016933Y012958D01*
X017054Y012837D01*
X017054Y012665D01*
X016933Y012544D01*
X016761Y012544D01*
X016640Y012665D01*
X016640Y012837D01*
X016761Y012958D01*
X016793Y012880D01*
X016901Y012880D01*
X016976Y012805D01*
X016976Y012697D01*
X016901Y012622D01*
X016793Y012622D01*
X016718Y012697D01*
X016718Y012805D01*
X016793Y012880D01*
X016826Y012802D01*
X016868Y012802D01*
X016898Y012772D01*
X016898Y012730D01*
X016868Y012700D01*
X016826Y012700D01*
X016796Y012730D01*
X016796Y012772D01*
X016826Y012802D01*
X017520Y012199D02*
X017468Y012251D01*
X017640Y012251D01*
X017761Y012130D01*
X017761Y011958D01*
X017640Y011837D01*
X017468Y011837D01*
X017347Y011958D01*
X017347Y012130D01*
X017468Y012251D01*
X017500Y012173D01*
X017608Y012173D01*
X017683Y012098D01*
X017683Y011990D01*
X017608Y011915D01*
X017500Y011915D01*
X017425Y011990D01*
X017425Y012098D01*
X017500Y012173D01*
X017533Y012095D01*
X017575Y012095D01*
X017605Y012065D01*
X017605Y012023D01*
X017575Y011993D01*
X017533Y011993D01*
X017503Y012023D01*
X017503Y012065D01*
X017533Y012095D01*
X017686Y010721D02*
X017634Y010669D01*
X017634Y010841D01*
X017755Y010962D01*
X017927Y010962D01*
X018048Y010841D01*
X018048Y010669D01*
X017927Y010548D01*
X017755Y010548D01*
X017634Y010669D01*
X017712Y010701D01*
X017712Y010809D01*
X017787Y010884D01*
X017895Y010884D01*
X017970Y010809D01*
X017970Y010701D01*
X017895Y010626D01*
X017787Y010626D01*
X017712Y010701D01*
X017790Y010734D01*
X017790Y010776D01*
X017820Y010806D01*
X017862Y010806D01*
X017892Y010776D01*
X017892Y010734D01*
X017862Y010704D01*
X017820Y010704D01*
X017790Y010734D01*
X016979Y010014D02*
X016927Y009962D01*
X016927Y010134D01*
X017048Y010255D01*
X017220Y010255D01*
X017341Y010134D01*
X017341Y009962D01*
X017220Y009841D01*
X017048Y009841D01*
X016927Y009962D01*
X017005Y009994D01*
X017005Y010102D01*
X017080Y010177D01*
X017188Y010177D01*
X017263Y010102D01*
X017263Y009994D01*
X017188Y009919D01*
X017080Y009919D01*
X017005Y009994D01*
X017083Y010027D01*
X017083Y010069D01*
X017113Y010099D01*
X017155Y010099D01*
X017185Y010069D01*
X017185Y010027D01*
X017155Y009997D01*
X017113Y009997D01*
X017083Y010027D01*
D13*
X012161Y007651D02*
X011641Y007651D01*
X011641Y006651D02*
X012161Y006651D01*
X012161Y005651D02*
X011641Y005651D01*
X011641Y004651D02*
X012161Y004651D01*
X009161Y004651D02*
X008641Y004651D01*
X008641Y005651D02*
X009161Y005651D01*
X009161Y006651D02*
X008641Y006651D01*
X008641Y007651D02*
X009161Y007651D01*
D14*
X009421Y015011D02*
X008821Y015011D01*
X008821Y016791D02*
X009421Y016791D01*
X011381Y016791D02*
X011981Y016791D01*
X011981Y015011D02*
X011381Y015011D01*
D15*
X011681Y016791D02*
X009121Y016791D01*
X007276Y017651D02*
X007026Y017401D01*
X006651Y017401D01*
X006276Y017026D01*
X006026Y017026D01*
X005651Y016651D01*
X005401Y016651D01*
X004526Y015776D01*
X004526Y014646D01*
X004940Y014233D01*
X003940Y014233D02*
X003248Y013541D01*
X003248Y012044D01*
X003668Y011624D01*
X003668Y010048D01*
X004401Y008704D02*
X004102Y008405D01*
X004401Y008105D01*
X004401Y006151D01*
X004651Y005901D01*
X005401Y005901D01*
X005776Y005526D01*
X005776Y004526D01*
X006347Y003955D01*
X006957Y003955D01*
X007957Y003955D02*
X008151Y004149D01*
X008151Y006526D01*
X008276Y006651D01*
X008901Y006651D01*
X009893Y006768D02*
X009901Y006776D01*
X009893Y006768D02*
X009893Y003387D01*
X010401Y002776D02*
X010651Y002526D01*
X011901Y002526D01*
X012276Y002901D01*
X012791Y002901D01*
X013845Y003955D01*
X013845Y007457D01*
X013776Y007526D01*
X013776Y014991D01*
X014542Y015757D01*
X013845Y015845D02*
X013276Y015276D01*
X013276Y008401D01*
X014151Y007901D02*
X014151Y013526D01*
X015542Y014917D01*
X015542Y015757D01*
X016733Y014233D02*
X015026Y012526D01*
X015026Y006651D01*
X015651Y006026D01*
X016276Y006026D01*
X016820Y006570D01*
X016863Y006570D01*
X017197Y007901D02*
X017701Y008405D01*
X017197Y007901D02*
X015401Y007901D01*
X014526Y006151D02*
X014526Y012026D01*
X014544Y012044D01*
X016847Y011749D02*
X017841Y010755D01*
X016847Y011749D02*
X016847Y012751D01*
X016863Y014233D02*
X016733Y014233D01*
X013845Y015845D02*
X013845Y016847D01*
X013845Y017332D01*
X013526Y017651D01*
X007276Y017651D01*
X006261Y015757D02*
X006261Y013761D01*
X004401Y011901D01*
X004401Y008704D01*
X010401Y005651D02*
X010401Y005151D01*
X010901Y004651D01*
X010901Y004395D01*
X011910Y003387D01*
X010401Y002776D02*
X010401Y004401D01*
X014526Y006151D02*
X015542Y005136D01*
X015542Y005046D01*
D16*
X014526Y006151D03*
X015026Y006651D03*
X015401Y007901D03*
X014151Y007901D03*
X013276Y008401D03*
X012651Y010401D03*
X012651Y011026D03*
X012651Y011651D03*
X014544Y012044D03*
X009901Y006776D03*
X010401Y005651D03*
X010401Y004401D03*
D17*
X010996Y005080D02*
X011364Y005080D01*
X011374Y005087D02*
X011309Y005040D01*
X011252Y004983D01*
X011205Y004919D01*
X011189Y004887D01*
X011111Y004965D01*
X010771Y005304D01*
X010771Y005359D01*
X010798Y005386D01*
X010870Y005558D01*
X010870Y005744D01*
X010798Y005917D01*
X010667Y006048D01*
X010494Y006120D01*
X010308Y006120D01*
X010263Y006101D01*
X010263Y006475D01*
X010298Y006511D01*
X010370Y006683D01*
X010370Y006869D01*
X010298Y007042D01*
X010167Y007173D01*
X009994Y007245D01*
X009808Y007245D01*
X009636Y007173D01*
X009526Y007064D01*
X009473Y007117D01*
X009391Y007151D01*
X009473Y007185D01*
X009627Y007340D01*
X009711Y007542D01*
X009711Y007761D01*
X009627Y007963D01*
X009473Y008117D01*
X009271Y008201D01*
X008532Y008201D01*
X008330Y008117D01*
X008175Y007963D01*
X008091Y007761D01*
X008091Y007542D01*
X008129Y007452D01*
X007879Y007701D01*
X007423Y007701D01*
X007101Y007379D01*
X007101Y006923D01*
X007423Y006601D01*
X007782Y006601D01*
X007781Y006600D01*
X007781Y006453D01*
X007781Y005661D01*
X007681Y005661D01*
X007681Y005181D01*
X007621Y005181D01*
X007621Y005121D01*
X007681Y005121D01*
X007681Y004641D01*
X007781Y004641D01*
X007781Y004505D01*
X007730Y004505D01*
X007457Y004233D01*
X007185Y004505D01*
X006730Y004505D01*
X006550Y004325D01*
X006501Y004325D01*
X006330Y004496D01*
X006488Y004496D01*
X006810Y004818D01*
X006810Y005273D01*
X006488Y005596D01*
X006146Y005596D01*
X006146Y005600D01*
X006090Y005736D01*
X005611Y006215D01*
X005475Y006271D01*
X005419Y006271D01*
X005490Y006342D01*
X005490Y006798D01*
X005167Y007120D01*
X004771Y007120D01*
X004771Y008032D01*
X004771Y008179D01*
X004715Y008315D01*
X004652Y008378D01*
X004652Y008431D01*
X004715Y008495D01*
X004771Y008631D01*
X004771Y008778D01*
X004771Y011748D01*
X006574Y013551D01*
X006630Y013687D01*
X006630Y013834D01*
X006630Y015349D01*
X006810Y015529D01*
X006810Y015985D01*
X006488Y016307D01*
X006033Y016307D01*
X005761Y016035D01*
X005534Y016261D01*
X005554Y016281D01*
X005725Y016281D01*
X005861Y016338D01*
X005965Y016442D01*
X006179Y016656D01*
X006350Y016656D01*
X006407Y016680D01*
X006407Y016620D01*
X006730Y016297D01*
X007185Y016297D01*
X007457Y016570D01*
X007730Y016297D01*
X008185Y016297D01*
X008333Y016445D01*
X008487Y016291D01*
X008704Y016201D01*
X009539Y016201D01*
X009755Y016291D01*
X009886Y016421D01*
X010917Y016421D01*
X011047Y016291D01*
X011264Y016201D01*
X012099Y016201D01*
X012315Y016291D01*
X012470Y016445D01*
X012617Y016297D01*
X013073Y016297D01*
X013345Y016570D01*
X013475Y016440D01*
X013475Y015998D01*
X013067Y015590D01*
X012963Y015486D01*
X012906Y015350D01*
X012906Y008694D01*
X012879Y008667D01*
X012808Y008494D01*
X012808Y008308D01*
X012879Y008136D01*
X013011Y008004D01*
X013183Y007933D01*
X013369Y007933D01*
X013406Y007948D01*
X013406Y007453D01*
X013463Y007317D01*
X013475Y007304D01*
X013475Y004363D01*
X013345Y004233D01*
X013073Y004505D01*
X012650Y004505D01*
X012659Y004532D01*
X012671Y004611D01*
X012671Y004621D01*
X011931Y004621D01*
X011931Y004141D01*
X012201Y004141D01*
X012281Y004154D01*
X012295Y004159D01*
X012295Y003779D01*
X012138Y003937D01*
X011883Y003937D01*
X011678Y004141D01*
X011871Y004141D01*
X011871Y004621D01*
X011931Y004621D01*
X011931Y004681D01*
X012671Y004681D01*
X012671Y004691D01*
X012659Y004771D01*
X012634Y004847D01*
X012597Y004919D01*
X012550Y004983D01*
X012493Y005040D01*
X012429Y005087D01*
X012357Y005124D01*
X012339Y005130D01*
X012473Y005185D01*
X012627Y005340D01*
X012711Y005542D01*
X012711Y005761D01*
X012627Y005963D01*
X012473Y006117D01*
X012391Y006151D01*
X012473Y006185D01*
X012627Y006340D01*
X012711Y006542D01*
X012711Y006761D01*
X012627Y006963D01*
X012473Y007117D01*
X012391Y007151D01*
X012473Y007185D01*
X012627Y007340D01*
X012711Y007542D01*
X012711Y007761D01*
X012627Y007963D01*
X012473Y008117D01*
X012271Y008201D01*
X011532Y008201D01*
X011330Y008117D01*
X011175Y007963D01*
X011091Y007761D01*
X011091Y007542D01*
X011175Y007340D01*
X011330Y007185D01*
X011411Y007151D01*
X011330Y007117D01*
X011175Y006963D01*
X011091Y006761D01*
X011091Y006542D01*
X011175Y006340D01*
X011330Y006185D01*
X011411Y006151D01*
X011330Y006117D01*
X011175Y005963D01*
X011091Y005761D01*
X011091Y005542D01*
X011175Y005340D01*
X011330Y005185D01*
X011463Y005130D01*
X011445Y005124D01*
X011374Y005087D01*
X011345Y005178D02*
X010897Y005178D01*
X010799Y005277D02*
X011238Y005277D01*
X011160Y005376D02*
X010788Y005376D01*
X010835Y005474D02*
X011119Y005474D01*
X011091Y005573D02*
X010870Y005573D01*
X010870Y005671D02*
X011091Y005671D01*
X011095Y005770D02*
X010859Y005770D01*
X010818Y005868D02*
X011136Y005868D01*
X011179Y005967D02*
X010748Y005967D01*
X010626Y006065D02*
X011278Y006065D01*
X011381Y006164D02*
X010263Y006164D01*
X010263Y006262D02*
X011252Y006262D01*
X011166Y006361D02*
X010263Y006361D01*
X010263Y006460D02*
X011125Y006460D01*
X011091Y006558D02*
X010318Y006558D01*
X010359Y006657D02*
X011091Y006657D01*
X011091Y006755D02*
X010370Y006755D01*
X010370Y006854D02*
X011130Y006854D01*
X011171Y006952D02*
X010335Y006952D01*
X010289Y007051D02*
X011263Y007051D01*
X011407Y007149D02*
X010191Y007149D01*
X009612Y007149D02*
X009396Y007149D01*
X009536Y007248D02*
X011267Y007248D01*
X011172Y007346D02*
X009630Y007346D01*
X009671Y007445D02*
X011131Y007445D01*
X011091Y007544D02*
X009711Y007544D01*
X009711Y007642D02*
X011091Y007642D01*
X011091Y007741D02*
X009711Y007741D01*
X009679Y007839D02*
X011124Y007839D01*
X011165Y007938D02*
X009638Y007938D01*
X009554Y008036D02*
X011248Y008036D01*
X011371Y008135D02*
X009431Y008135D01*
X008371Y008135D02*
X004771Y008135D01*
X004771Y008036D02*
X008248Y008036D01*
X008165Y007938D02*
X004771Y007938D01*
X004771Y007839D02*
X008124Y007839D01*
X008091Y007741D02*
X004771Y007741D01*
X004771Y007642D02*
X007364Y007642D01*
X007266Y007544D02*
X004771Y007544D01*
X004771Y007445D02*
X007167Y007445D01*
X007101Y007346D02*
X004771Y007346D01*
X004771Y007248D02*
X007101Y007248D01*
X007101Y007149D02*
X004771Y007149D01*
X005237Y007051D02*
X007101Y007051D01*
X007101Y006952D02*
X005335Y006952D01*
X005434Y006854D02*
X007171Y006854D01*
X007270Y006755D02*
X005490Y006755D01*
X005490Y006657D02*
X007368Y006657D01*
X007781Y006558D02*
X005490Y006558D01*
X005490Y006460D02*
X007781Y006460D01*
X007781Y006361D02*
X005490Y006361D01*
X005496Y006262D02*
X007781Y006262D01*
X007781Y006164D02*
X005662Y006164D01*
X005760Y006065D02*
X007781Y006065D01*
X007781Y005967D02*
X005859Y005967D01*
X005957Y005868D02*
X007781Y005868D01*
X007781Y005770D02*
X006056Y005770D01*
X006117Y005671D02*
X007781Y005671D01*
X007681Y005573D02*
X007621Y005573D01*
X007621Y005661D02*
X007440Y005661D01*
X007141Y005362D01*
X007141Y005181D01*
X007621Y005181D01*
X007621Y005661D01*
X007621Y005474D02*
X007681Y005474D01*
X007681Y005376D02*
X007621Y005376D01*
X007621Y005277D02*
X007681Y005277D01*
X007621Y005178D02*
X006810Y005178D01*
X006810Y005080D02*
X007141Y005080D01*
X007141Y005121D02*
X007141Y004940D01*
X007440Y004641D01*
X007621Y004641D01*
X007621Y005121D01*
X007141Y005121D01*
X007141Y004981D02*
X006810Y004981D01*
X006810Y004883D02*
X007198Y004883D01*
X007297Y004784D02*
X006777Y004784D01*
X006679Y004686D02*
X007396Y004686D01*
X007621Y004686D02*
X007681Y004686D01*
X007681Y004784D02*
X007621Y004784D01*
X007621Y004883D02*
X007681Y004883D01*
X007681Y004981D02*
X007621Y004981D01*
X007621Y005080D02*
X007681Y005080D01*
X007781Y004587D02*
X006580Y004587D01*
X006713Y004489D02*
X006337Y004489D01*
X006436Y004390D02*
X006615Y004390D01*
X007201Y004489D02*
X007713Y004489D01*
X007615Y004390D02*
X007300Y004390D01*
X007399Y004292D02*
X007516Y004292D01*
X007141Y005277D02*
X006807Y005277D01*
X006708Y005376D02*
X007154Y005376D01*
X007253Y005474D02*
X006610Y005474D01*
X006511Y005573D02*
X007351Y005573D01*
X008037Y007544D02*
X008091Y007544D01*
X008091Y007642D02*
X007938Y007642D01*
X011094Y004981D02*
X011251Y004981D01*
X011871Y004587D02*
X011931Y004587D01*
X011931Y004489D02*
X011871Y004489D01*
X011871Y004390D02*
X011931Y004390D01*
X011931Y004292D02*
X011871Y004292D01*
X011871Y004193D02*
X011931Y004193D01*
X011824Y003996D02*
X012295Y003996D01*
X012295Y004094D02*
X011725Y004094D01*
X012177Y003897D02*
X012295Y003897D01*
X012295Y003799D02*
X012275Y003799D01*
X013089Y004489D02*
X013475Y004489D01*
X013475Y004587D02*
X012667Y004587D01*
X012671Y004686D02*
X013475Y004686D01*
X013475Y004784D02*
X012654Y004784D01*
X012616Y004883D02*
X013475Y004883D01*
X013475Y004981D02*
X012552Y004981D01*
X012439Y005080D02*
X013475Y005080D01*
X013475Y005178D02*
X012457Y005178D01*
X012565Y005277D02*
X013475Y005277D01*
X013475Y005376D02*
X012642Y005376D01*
X012683Y005474D02*
X013475Y005474D01*
X013475Y005573D02*
X012711Y005573D01*
X012711Y005671D02*
X013475Y005671D01*
X013475Y005770D02*
X012707Y005770D01*
X012667Y005868D02*
X013475Y005868D01*
X013475Y005967D02*
X012623Y005967D01*
X012525Y006065D02*
X013475Y006065D01*
X013475Y006164D02*
X012422Y006164D01*
X012550Y006262D02*
X013475Y006262D01*
X013475Y006361D02*
X012636Y006361D01*
X012677Y006460D02*
X013475Y006460D01*
X013475Y006558D02*
X012711Y006558D01*
X012711Y006657D02*
X013475Y006657D01*
X013475Y006755D02*
X012711Y006755D01*
X012673Y006854D02*
X013475Y006854D01*
X013475Y006952D02*
X012632Y006952D01*
X012539Y007051D02*
X013475Y007051D01*
X013475Y007149D02*
X012396Y007149D01*
X012536Y007248D02*
X013475Y007248D01*
X013450Y007346D02*
X012630Y007346D01*
X012671Y007445D02*
X013409Y007445D01*
X013406Y007544D02*
X012711Y007544D01*
X012711Y007642D02*
X013406Y007642D01*
X013406Y007741D02*
X012711Y007741D01*
X012679Y007839D02*
X013406Y007839D01*
X013406Y007938D02*
X013381Y007938D01*
X013171Y007938D02*
X012638Y007938D01*
X012554Y008036D02*
X012979Y008036D01*
X012880Y008135D02*
X012431Y008135D01*
X012839Y008233D02*
X004749Y008233D01*
X004698Y008332D02*
X012808Y008332D01*
X012808Y008430D02*
X004652Y008430D01*
X004729Y008529D02*
X012822Y008529D01*
X012863Y008627D02*
X004770Y008627D01*
X004771Y008726D02*
X012906Y008726D01*
X012906Y008825D02*
X004771Y008825D01*
X004771Y008923D02*
X012906Y008923D01*
X012906Y009022D02*
X004771Y009022D01*
X004771Y009120D02*
X012906Y009120D01*
X012906Y009219D02*
X004771Y009219D01*
X004771Y009317D02*
X012906Y009317D01*
X012906Y009416D02*
X004771Y009416D01*
X004771Y009514D02*
X012906Y009514D01*
X012906Y009613D02*
X004771Y009613D01*
X004771Y009711D02*
X012906Y009711D01*
X012906Y009810D02*
X004771Y009810D01*
X004771Y009909D02*
X012906Y009909D01*
X012906Y010007D02*
X004771Y010007D01*
X004771Y010106D02*
X012906Y010106D01*
X012906Y010204D02*
X004771Y010204D01*
X004771Y010303D02*
X012906Y010303D01*
X012906Y010401D02*
X004771Y010401D01*
X004771Y010500D02*
X012906Y010500D01*
X012906Y010598D02*
X004771Y010598D01*
X004771Y010697D02*
X012906Y010697D01*
X012906Y010795D02*
X004771Y010795D01*
X004771Y010894D02*
X012906Y010894D01*
X012906Y010993D02*
X004771Y010993D01*
X004771Y011091D02*
X012906Y011091D01*
X012906Y011190D02*
X004771Y011190D01*
X004771Y011288D02*
X012906Y011288D01*
X012906Y011387D02*
X004771Y011387D01*
X004771Y011485D02*
X012906Y011485D01*
X012906Y011584D02*
X004771Y011584D01*
X004771Y011682D02*
X012906Y011682D01*
X012906Y011781D02*
X004804Y011781D01*
X004903Y011879D02*
X012906Y011879D01*
X012906Y011978D02*
X005001Y011978D01*
X005100Y012076D02*
X012906Y012076D01*
X012906Y012175D02*
X005198Y012175D01*
X005297Y012274D02*
X012906Y012274D01*
X012906Y012372D02*
X005395Y012372D01*
X005494Y012471D02*
X012906Y012471D01*
X012906Y012569D02*
X005592Y012569D01*
X005691Y012668D02*
X012906Y012668D01*
X012906Y012766D02*
X005790Y012766D01*
X005888Y012865D02*
X012906Y012865D01*
X012906Y012963D02*
X005987Y012963D01*
X006085Y013062D02*
X012906Y013062D01*
X012906Y013160D02*
X006184Y013160D01*
X006282Y013259D02*
X012906Y013259D01*
X012906Y013358D02*
X006381Y013358D01*
X006479Y013456D02*
X012906Y013456D01*
X012906Y013555D02*
X006576Y013555D01*
X006616Y013653D02*
X012906Y013653D01*
X012906Y013752D02*
X006630Y013752D01*
X006630Y013850D02*
X012906Y013850D01*
X012906Y013949D02*
X006630Y013949D01*
X006630Y014047D02*
X012906Y014047D01*
X012906Y014146D02*
X006630Y014146D01*
X006630Y014244D02*
X012906Y014244D01*
X012906Y014343D02*
X006630Y014343D01*
X006630Y014442D02*
X012906Y014442D01*
X012906Y014540D02*
X012268Y014540D01*
X012269Y014541D02*
X012340Y014592D01*
X012401Y014653D01*
X012452Y014723D01*
X012491Y014800D01*
X012518Y014882D01*
X012530Y014961D01*
X011731Y014961D01*
X011731Y014461D01*
X012025Y014461D01*
X012110Y014475D01*
X012192Y014502D01*
X012269Y014541D01*
X012386Y014639D02*
X012906Y014639D01*
X012906Y014737D02*
X012459Y014737D01*
X012502Y014836D02*
X012906Y014836D01*
X012906Y014934D02*
X012526Y014934D01*
X012530Y015061D02*
X012518Y015140D01*
X012491Y015222D01*
X012452Y015299D01*
X012401Y015370D01*
X012340Y015431D01*
X012269Y015482D01*
X012192Y015521D01*
X012110Y015548D01*
X012025Y015561D01*
X011731Y015561D01*
X011731Y015061D01*
X011631Y015061D01*
X011631Y014961D01*
X011731Y014961D01*
X011731Y015061D01*
X012530Y015061D01*
X012519Y015131D02*
X012906Y015131D01*
X012906Y015033D02*
X011731Y015033D01*
X011731Y015131D02*
X011631Y015131D01*
X011631Y015061D02*
X011631Y015561D01*
X011338Y015561D01*
X011252Y015548D01*
X011170Y015521D01*
X011093Y015482D01*
X011023Y015431D01*
X010962Y015370D01*
X010911Y015299D01*
X010872Y015222D01*
X010845Y015140D01*
X010832Y015061D01*
X011631Y015061D01*
X011631Y015033D02*
X009171Y015033D01*
X009171Y015061D02*
X009970Y015061D01*
X009958Y015140D01*
X009931Y015222D01*
X009892Y015299D01*
X009841Y015370D01*
X009780Y015431D01*
X009709Y015482D01*
X009632Y015521D01*
X009550Y015548D01*
X009465Y015561D01*
X009171Y015561D01*
X009171Y015061D01*
X009071Y015061D01*
X009071Y014961D01*
X009171Y014961D01*
X009171Y014461D01*
X009465Y014461D01*
X009550Y014475D01*
X009632Y014502D01*
X009709Y014541D01*
X009780Y014592D01*
X009841Y014653D01*
X009892Y014723D01*
X009931Y014800D01*
X009958Y014882D01*
X009970Y014961D01*
X009171Y014961D01*
X009171Y015061D01*
X009171Y015131D02*
X009071Y015131D01*
X009071Y015061D02*
X009071Y015561D01*
X008778Y015561D01*
X008692Y015548D01*
X008610Y015521D01*
X008533Y015482D01*
X008463Y015431D01*
X008402Y015370D01*
X008351Y015299D01*
X008312Y015222D01*
X008285Y015140D01*
X008272Y015061D01*
X009071Y015061D01*
X009071Y015033D02*
X006630Y015033D01*
X006630Y015131D02*
X008283Y015131D01*
X008315Y015230D02*
X006630Y015230D01*
X006630Y015328D02*
X008372Y015328D01*
X008459Y015427D02*
X006708Y015427D01*
X006807Y015526D02*
X008624Y015526D01*
X009071Y015526D02*
X009171Y015526D01*
X009171Y015427D02*
X009071Y015427D01*
X009071Y015328D02*
X009171Y015328D01*
X009171Y015230D02*
X009071Y015230D01*
X009071Y014961D02*
X008272Y014961D01*
X008285Y014882D01*
X008312Y014800D01*
X008351Y014723D01*
X008402Y014653D01*
X008463Y014592D01*
X008533Y014541D01*
X008610Y014502D01*
X008692Y014475D01*
X008778Y014461D01*
X009071Y014461D01*
X009071Y014961D01*
X009071Y014934D02*
X009171Y014934D01*
X009171Y014836D02*
X009071Y014836D01*
X009071Y014737D02*
X009171Y014737D01*
X009171Y014639D02*
X009071Y014639D01*
X009071Y014540D02*
X009171Y014540D01*
X009708Y014540D02*
X011095Y014540D01*
X011093Y014541D02*
X011170Y014502D01*
X011252Y014475D01*
X011338Y014461D01*
X011631Y014461D01*
X011631Y014961D01*
X010832Y014961D01*
X010845Y014882D01*
X010872Y014800D01*
X010911Y014723D01*
X010962Y014653D01*
X011023Y014592D01*
X011093Y014541D01*
X010976Y014639D02*
X009826Y014639D01*
X009899Y014737D02*
X010904Y014737D01*
X010860Y014836D02*
X009942Y014836D01*
X009966Y014934D02*
X010837Y014934D01*
X010843Y015131D02*
X009959Y015131D01*
X009927Y015230D02*
X010875Y015230D01*
X010932Y015328D02*
X009871Y015328D01*
X009783Y015427D02*
X011019Y015427D01*
X011184Y015526D02*
X009618Y015526D01*
X009573Y016215D02*
X011230Y016215D01*
X011024Y016314D02*
X009778Y016314D01*
X009877Y016412D02*
X010926Y016412D01*
X011631Y015526D02*
X011731Y015526D01*
X011731Y015427D02*
X011631Y015427D01*
X011631Y015328D02*
X011731Y015328D01*
X011731Y015230D02*
X011631Y015230D01*
X011631Y014934D02*
X011731Y014934D01*
X011731Y014836D02*
X011631Y014836D01*
X011631Y014737D02*
X011731Y014737D01*
X011731Y014639D02*
X011631Y014639D01*
X011631Y014540D02*
X011731Y014540D01*
X012487Y015230D02*
X012906Y015230D01*
X012906Y015328D02*
X012431Y015328D01*
X012343Y015427D02*
X012938Y015427D01*
X013002Y015526D02*
X012178Y015526D01*
X012133Y016215D02*
X013475Y016215D01*
X013475Y016117D02*
X006678Y016117D01*
X006580Y016215D02*
X008670Y016215D01*
X008464Y016314D02*
X008202Y016314D01*
X008300Y016412D02*
X008366Y016412D01*
X007713Y016314D02*
X007202Y016314D01*
X007300Y016412D02*
X007615Y016412D01*
X007516Y016511D02*
X007399Y016511D01*
X006713Y016314D02*
X005804Y016314D01*
X005936Y016412D02*
X006615Y016412D01*
X006516Y016511D02*
X006034Y016511D01*
X006133Y016609D02*
X006418Y016609D01*
X005941Y016215D02*
X005580Y016215D01*
X005678Y016117D02*
X005843Y016117D01*
X006777Y016018D02*
X013475Y016018D01*
X013396Y015920D02*
X006810Y015920D01*
X006810Y015821D02*
X013298Y015821D01*
X013199Y015723D02*
X006810Y015723D01*
X006810Y015624D02*
X013101Y015624D01*
X013089Y016314D02*
X013475Y016314D01*
X013475Y016412D02*
X013188Y016412D01*
X013286Y016511D02*
X013404Y016511D01*
X012601Y016314D02*
X012338Y016314D01*
X012437Y016412D02*
X012502Y016412D01*
X008535Y014540D02*
X006630Y014540D01*
X006630Y014639D02*
X008416Y014639D01*
X008344Y014737D02*
X006630Y014737D01*
X006630Y014836D02*
X008300Y014836D01*
X008277Y014934D02*
X006630Y014934D01*
X013188Y004390D02*
X013475Y004390D01*
X013404Y004292D02*
X013286Y004292D01*
M02*
