G75*
G70*
%OFA0B0*%
%FSLAX24Y24*%
%IPPOS*%
%LPD*%
%AMOC8*
5,1,8,0,0,1.08239X$1,22.5*
%
%ADD10C,0.0000*%
D10*
X008826Y018518D02*
X008432Y018431D01*
X008043Y018326D01*
X007660Y018201D01*
X007283Y018059D01*
X006913Y017897D01*
X006552Y017719D01*
X006200Y017522D01*
X005858Y017309D01*
X005527Y017079D01*
X005207Y016834D01*
X004900Y016573D01*
X004605Y016298D01*
X004325Y016008D01*
X004059Y015705D01*
X003808Y015390D01*
X003572Y015063D01*
X003353Y014724D01*
X003151Y014376D01*
X002966Y014018D01*
X002798Y013651D01*
X002649Y013276D01*
X002518Y012895D01*
X002406Y012508D01*
X002313Y012116D01*
X002239Y011720D01*
X002184Y011320D01*
X002149Y010919D01*
X002134Y010516D01*
X002138Y010113D01*
X002162Y009710D01*
X002205Y009310D01*
X002268Y008911D01*
X002351Y008517D01*
X002452Y008127D01*
X002572Y007742D01*
X002711Y007364D01*
X002868Y006992D01*
X003043Y006629D01*
X003236Y006275D01*
X003446Y005931D01*
X003672Y005597D01*
X003914Y005275D01*
X004171Y004965D01*
X004444Y004668D01*
X004730Y004384D01*
X005030Y004115D01*
X005343Y003860D01*
X005668Y003622D01*
X006004Y003399D01*
X006351Y003193D01*
X006707Y003004D01*
X007072Y002833D01*
X007444Y002680D01*
X007824Y002545D01*
X008210Y002429D01*
X008601Y002331D01*
X008997Y002253D01*
X009396Y002194D01*
X009797Y002155D01*
X010199Y002135D01*
X010603Y002135D01*
X011005Y002155D01*
X011406Y002194D01*
X011805Y002253D01*
X012201Y002331D01*
X012592Y002429D01*
X012978Y002545D01*
X013358Y002680D01*
X013730Y002833D01*
X014095Y003004D01*
X014451Y003193D01*
X014798Y003399D01*
X015134Y003622D01*
X015459Y003860D01*
X015772Y004115D01*
X016072Y004384D01*
X016358Y004668D01*
X016631Y004965D01*
X016888Y005275D01*
X017130Y005597D01*
X017356Y005931D01*
X017566Y006275D01*
X017759Y006629D01*
X017934Y006992D01*
X018091Y007364D01*
X018230Y007742D01*
X018350Y008127D01*
X018451Y008517D01*
X018534Y008911D01*
X018597Y009310D01*
X018640Y009710D01*
X018664Y010113D01*
X018668Y010516D01*
X018653Y010919D01*
X018618Y011320D01*
X018563Y011720D01*
X018489Y012116D01*
X018396Y012508D01*
X018284Y012895D01*
X018153Y013276D01*
X018004Y013651D01*
X017836Y014018D01*
X017651Y014376D01*
X017449Y014724D01*
X017230Y015063D01*
X016994Y015390D01*
X016743Y015705D01*
X016477Y016008D01*
X016197Y016298D01*
X015902Y016573D01*
X015595Y016834D01*
X015275Y017079D01*
X014944Y017309D01*
X014602Y017522D01*
X014250Y017719D01*
X013889Y017897D01*
X013519Y018059D01*
X013142Y018201D01*
X012759Y018326D01*
X012370Y018431D01*
X011976Y018518D01*
X011976Y018669D01*
X011974Y018746D01*
X011968Y018823D01*
X011959Y018900D01*
X011946Y018976D01*
X011929Y019052D01*
X011908Y019126D01*
X011884Y019200D01*
X011856Y019272D01*
X011825Y019342D01*
X011790Y019411D01*
X011752Y019479D01*
X011711Y019544D01*
X011666Y019607D01*
X011618Y019668D01*
X011568Y019727D01*
X011515Y019783D01*
X011459Y019836D01*
X011400Y019886D01*
X011339Y019934D01*
X011276Y019979D01*
X011211Y020020D01*
X011143Y020058D01*
X011074Y020093D01*
X011004Y020124D01*
X010932Y020152D01*
X010858Y020176D01*
X010784Y020197D01*
X010708Y020214D01*
X010632Y020227D01*
X010555Y020236D01*
X010478Y020242D01*
X010401Y020244D01*
X009929Y019063D02*
X009931Y019106D01*
X009937Y019148D01*
X009947Y019190D01*
X009960Y019231D01*
X009977Y019271D01*
X009998Y019308D01*
X010022Y019344D01*
X010049Y019377D01*
X010079Y019408D01*
X010112Y019436D01*
X010147Y019461D01*
X010184Y019482D01*
X010223Y019500D01*
X010263Y019514D01*
X010305Y019525D01*
X010347Y019532D01*
X010390Y019535D01*
X010433Y019534D01*
X010476Y019529D01*
X010518Y019520D01*
X010559Y019508D01*
X010599Y019492D01*
X010637Y019472D01*
X010673Y019449D01*
X010707Y019422D01*
X010739Y019393D01*
X010767Y019361D01*
X010793Y019326D01*
X010815Y019290D01*
X010834Y019251D01*
X010849Y019211D01*
X010861Y019170D01*
X010869Y019127D01*
X010873Y019084D01*
X010873Y019042D01*
X010869Y018999D01*
X010861Y018956D01*
X010849Y018915D01*
X010834Y018875D01*
X010815Y018836D01*
X010793Y018800D01*
X010767Y018765D01*
X010739Y018733D01*
X010707Y018704D01*
X010673Y018677D01*
X010637Y018654D01*
X010599Y018634D01*
X010559Y018618D01*
X010518Y018606D01*
X010476Y018597D01*
X010433Y018592D01*
X010390Y018591D01*
X010347Y018594D01*
X010305Y018601D01*
X010263Y018612D01*
X010223Y018626D01*
X010184Y018644D01*
X010147Y018665D01*
X010112Y018690D01*
X010079Y018718D01*
X010049Y018749D01*
X010022Y018782D01*
X009998Y018818D01*
X009977Y018855D01*
X009960Y018895D01*
X009947Y018936D01*
X009937Y018978D01*
X009931Y019020D01*
X009929Y019063D01*
X008826Y018669D02*
X008828Y018746D01*
X008834Y018823D01*
X008843Y018900D01*
X008856Y018976D01*
X008873Y019052D01*
X008894Y019126D01*
X008918Y019200D01*
X008946Y019272D01*
X008977Y019342D01*
X009012Y019411D01*
X009050Y019479D01*
X009091Y019544D01*
X009136Y019607D01*
X009184Y019668D01*
X009234Y019727D01*
X009287Y019783D01*
X009343Y019836D01*
X009402Y019886D01*
X009463Y019934D01*
X009526Y019979D01*
X009591Y020020D01*
X009659Y020058D01*
X009728Y020093D01*
X009798Y020124D01*
X009870Y020152D01*
X009944Y020176D01*
X010018Y020197D01*
X010094Y020214D01*
X010170Y020227D01*
X010247Y020236D01*
X010324Y020242D01*
X010401Y020244D01*
X008826Y018669D02*
X008826Y018518D01*
M02*
