G75*
G70*
%OFA0B0*%
%FSLAX24Y24*%
%IPPOS*%
%LPD*%
%AMOC8*
5,1,8,0,0,1.08239X$1,22.5*
%
%ADD10C,0.0000*%
%ADD11C,0.0060*%
%ADD12C,0.0100*%
%ADD13C,0.0020*%
%ADD14C,0.0120*%
D10*
X008826Y018518D02*
X008432Y018431D01*
X008043Y018326D01*
X007660Y018201D01*
X007283Y018059D01*
X006913Y017897D01*
X006552Y017719D01*
X006200Y017522D01*
X005858Y017309D01*
X005527Y017079D01*
X005207Y016834D01*
X004900Y016573D01*
X004605Y016298D01*
X004325Y016008D01*
X004059Y015705D01*
X003808Y015390D01*
X003572Y015063D01*
X003353Y014724D01*
X003151Y014376D01*
X002966Y014018D01*
X002798Y013651D01*
X002649Y013276D01*
X002518Y012895D01*
X002406Y012508D01*
X002313Y012116D01*
X002239Y011720D01*
X002184Y011320D01*
X002149Y010919D01*
X002134Y010516D01*
X002138Y010113D01*
X002162Y009710D01*
X002205Y009310D01*
X002268Y008911D01*
X002351Y008517D01*
X002452Y008127D01*
X002572Y007742D01*
X002711Y007364D01*
X002868Y006992D01*
X003043Y006629D01*
X003236Y006275D01*
X003446Y005931D01*
X003672Y005597D01*
X003914Y005275D01*
X004171Y004965D01*
X004444Y004668D01*
X004730Y004384D01*
X005030Y004115D01*
X005343Y003860D01*
X005668Y003622D01*
X006004Y003399D01*
X006351Y003193D01*
X006707Y003004D01*
X007072Y002833D01*
X007444Y002680D01*
X007824Y002545D01*
X008210Y002429D01*
X008601Y002331D01*
X008997Y002253D01*
X009396Y002194D01*
X009797Y002155D01*
X010199Y002135D01*
X010603Y002135D01*
X011005Y002155D01*
X011406Y002194D01*
X011805Y002253D01*
X012201Y002331D01*
X012592Y002429D01*
X012978Y002545D01*
X013358Y002680D01*
X013730Y002833D01*
X014095Y003004D01*
X014451Y003193D01*
X014798Y003399D01*
X015134Y003622D01*
X015459Y003860D01*
X015772Y004115D01*
X016072Y004384D01*
X016358Y004668D01*
X016631Y004965D01*
X016888Y005275D01*
X017130Y005597D01*
X017356Y005931D01*
X017566Y006275D01*
X017759Y006629D01*
X017934Y006992D01*
X018091Y007364D01*
X018230Y007742D01*
X018350Y008127D01*
X018451Y008517D01*
X018534Y008911D01*
X018597Y009310D01*
X018640Y009710D01*
X018664Y010113D01*
X018668Y010516D01*
X018653Y010919D01*
X018618Y011320D01*
X018563Y011720D01*
X018489Y012116D01*
X018396Y012508D01*
X018284Y012895D01*
X018153Y013276D01*
X018004Y013651D01*
X017836Y014018D01*
X017651Y014376D01*
X017449Y014724D01*
X017230Y015063D01*
X016994Y015390D01*
X016743Y015705D01*
X016477Y016008D01*
X016197Y016298D01*
X015902Y016573D01*
X015595Y016834D01*
X015275Y017079D01*
X014944Y017309D01*
X014602Y017522D01*
X014250Y017719D01*
X013889Y017897D01*
X013519Y018059D01*
X013142Y018201D01*
X012759Y018326D01*
X012370Y018431D01*
X011976Y018518D01*
X011976Y018669D01*
X011974Y018746D01*
X011968Y018823D01*
X011959Y018900D01*
X011946Y018976D01*
X011929Y019052D01*
X011908Y019126D01*
X011884Y019200D01*
X011856Y019272D01*
X011825Y019342D01*
X011790Y019411D01*
X011752Y019479D01*
X011711Y019544D01*
X011666Y019607D01*
X011618Y019668D01*
X011568Y019727D01*
X011515Y019783D01*
X011459Y019836D01*
X011400Y019886D01*
X011339Y019934D01*
X011276Y019979D01*
X011211Y020020D01*
X011143Y020058D01*
X011074Y020093D01*
X011004Y020124D01*
X010932Y020152D01*
X010858Y020176D01*
X010784Y020197D01*
X010708Y020214D01*
X010632Y020227D01*
X010555Y020236D01*
X010478Y020242D01*
X010401Y020244D01*
X009929Y019063D02*
X009931Y019106D01*
X009937Y019148D01*
X009947Y019190D01*
X009960Y019231D01*
X009977Y019271D01*
X009998Y019308D01*
X010022Y019344D01*
X010049Y019377D01*
X010079Y019408D01*
X010112Y019436D01*
X010147Y019461D01*
X010184Y019482D01*
X010223Y019500D01*
X010263Y019514D01*
X010305Y019525D01*
X010347Y019532D01*
X010390Y019535D01*
X010433Y019534D01*
X010476Y019529D01*
X010518Y019520D01*
X010559Y019508D01*
X010599Y019492D01*
X010637Y019472D01*
X010673Y019449D01*
X010707Y019422D01*
X010739Y019393D01*
X010767Y019361D01*
X010793Y019326D01*
X010815Y019290D01*
X010834Y019251D01*
X010849Y019211D01*
X010861Y019170D01*
X010869Y019127D01*
X010873Y019084D01*
X010873Y019042D01*
X010869Y018999D01*
X010861Y018956D01*
X010849Y018915D01*
X010834Y018875D01*
X010815Y018836D01*
X010793Y018800D01*
X010767Y018765D01*
X010739Y018733D01*
X010707Y018704D01*
X010673Y018677D01*
X010637Y018654D01*
X010599Y018634D01*
X010559Y018618D01*
X010518Y018606D01*
X010476Y018597D01*
X010433Y018592D01*
X010390Y018591D01*
X010347Y018594D01*
X010305Y018601D01*
X010263Y018612D01*
X010223Y018626D01*
X010184Y018644D01*
X010147Y018665D01*
X010112Y018690D01*
X010079Y018718D01*
X010049Y018749D01*
X010022Y018782D01*
X009998Y018818D01*
X009977Y018855D01*
X009960Y018895D01*
X009947Y018936D01*
X009937Y018978D01*
X009931Y019020D01*
X009929Y019063D01*
X008826Y018669D02*
X008828Y018746D01*
X008834Y018823D01*
X008843Y018900D01*
X008856Y018976D01*
X008873Y019052D01*
X008894Y019126D01*
X008918Y019200D01*
X008946Y019272D01*
X008977Y019342D01*
X009012Y019411D01*
X009050Y019479D01*
X009091Y019544D01*
X009136Y019607D01*
X009184Y019668D01*
X009234Y019727D01*
X009287Y019783D01*
X009343Y019836D01*
X009402Y019886D01*
X009463Y019934D01*
X009526Y019979D01*
X009591Y020020D01*
X009659Y020058D01*
X009728Y020093D01*
X009798Y020124D01*
X009870Y020152D01*
X009944Y020176D01*
X010018Y020197D01*
X010094Y020214D01*
X010170Y020227D01*
X010247Y020236D01*
X010324Y020242D01*
X010401Y020244D01*
X008826Y018669D02*
X008826Y018518D01*
D11*
X005346Y004169D02*
X005346Y003942D01*
X005402Y003885D01*
X005516Y003885D01*
X005572Y003942D01*
X005516Y004055D02*
X005346Y004055D01*
X005346Y004169D02*
X005402Y004225D01*
X005516Y004225D01*
X005572Y004169D01*
X005572Y004112D01*
X005516Y004055D01*
X005714Y003942D02*
X005714Y004169D01*
X005771Y004225D01*
X005941Y004225D01*
X005941Y003885D01*
X005771Y003885D01*
X005714Y003942D01*
X006082Y003885D02*
X006309Y003885D01*
X006309Y004225D01*
X006082Y004225D01*
X006196Y004055D02*
X006309Y004055D01*
X006451Y003885D02*
X006677Y003885D01*
X006677Y004225D01*
X007251Y004701D02*
X008051Y004701D01*
X008068Y004703D01*
X008085Y004707D01*
X008101Y004714D01*
X008115Y004724D01*
X008128Y004737D01*
X008138Y004751D01*
X008145Y004767D01*
X008149Y004784D01*
X008151Y004801D01*
X008151Y007501D01*
X008149Y007518D01*
X008145Y007535D01*
X008138Y007551D01*
X008128Y007565D01*
X008115Y007578D01*
X008101Y007588D01*
X008085Y007595D01*
X008068Y007599D01*
X008051Y007601D01*
X007251Y007601D01*
X007234Y007599D01*
X007217Y007595D01*
X007201Y007588D01*
X007187Y007578D01*
X007174Y007565D01*
X007164Y007551D01*
X007157Y007535D01*
X007153Y007518D01*
X007151Y007501D01*
X007151Y004801D01*
X007153Y004784D01*
X007157Y004767D01*
X007164Y004751D01*
X007174Y004737D01*
X007187Y004724D01*
X007201Y004714D01*
X007217Y004707D01*
X007234Y004703D01*
X007251Y004701D01*
X007931Y003587D02*
X007901Y003552D01*
X007870Y003519D01*
X007835Y003489D01*
X007799Y003462D01*
X007761Y003438D01*
X007721Y003416D01*
X007679Y003398D01*
X007636Y003382D01*
X007592Y003370D01*
X007548Y003362D01*
X007502Y003357D01*
X007457Y003355D01*
X007333Y003157D02*
X007219Y003157D01*
X007163Y003100D01*
X007389Y002873D01*
X007333Y002817D01*
X007219Y002817D01*
X007163Y002873D01*
X007163Y003100D01*
X007333Y003157D02*
X007389Y003100D01*
X007389Y002873D01*
X007531Y002817D02*
X007758Y002817D01*
X007644Y002817D02*
X007644Y003157D01*
X007758Y003044D01*
X007899Y003100D02*
X007956Y003157D01*
X008126Y003157D01*
X008126Y002817D01*
X007956Y002817D01*
X007899Y002873D01*
X007899Y003100D01*
X008268Y003157D02*
X008494Y003157D01*
X008494Y002817D01*
X008268Y002817D01*
X008381Y002987D02*
X008494Y002987D01*
X008636Y002817D02*
X008863Y002817D01*
X008863Y003157D01*
X009393Y002787D02*
X009438Y002789D01*
X009484Y002794D01*
X009528Y002802D01*
X009572Y002814D01*
X009615Y002830D01*
X009657Y002848D01*
X009697Y002870D01*
X009735Y002894D01*
X009771Y002921D01*
X009806Y002951D01*
X009837Y002984D01*
X009867Y003019D01*
X010036Y002657D02*
X010036Y002317D01*
X009923Y002317D02*
X010150Y002317D01*
X010291Y002373D02*
X010291Y002600D01*
X010348Y002657D01*
X010518Y002657D01*
X010518Y002317D01*
X010348Y002317D01*
X010291Y002373D01*
X010150Y002544D02*
X010036Y002657D01*
X009782Y002544D02*
X009668Y002657D01*
X009668Y002317D01*
X009555Y002317D02*
X009782Y002317D01*
X010660Y002317D02*
X010886Y002317D01*
X010886Y002657D01*
X010660Y002657D01*
X010773Y002487D02*
X010886Y002487D01*
X011028Y002317D02*
X011255Y002317D01*
X011255Y002657D01*
X011410Y002787D02*
X011455Y002789D01*
X011501Y002794D01*
X011545Y002802D01*
X011589Y002814D01*
X011632Y002830D01*
X011674Y002848D01*
X011714Y002870D01*
X011752Y002894D01*
X011788Y002921D01*
X011823Y002951D01*
X011854Y002984D01*
X011884Y003019D01*
X011410Y002787D02*
X011365Y002789D01*
X011319Y002794D01*
X011275Y002802D01*
X011231Y002814D01*
X011188Y002830D01*
X011146Y002848D01*
X011106Y002870D01*
X011068Y002894D01*
X011032Y002921D01*
X010997Y002951D01*
X010966Y002984D01*
X010936Y003019D01*
X011410Y003987D02*
X011456Y003985D01*
X011502Y003980D01*
X011548Y003971D01*
X011593Y003959D01*
X011636Y003943D01*
X011678Y003924D01*
X011719Y003901D01*
X011758Y003876D01*
X011794Y003848D01*
X011829Y003817D01*
X011861Y003783D01*
X011890Y003747D01*
X011501Y004151D02*
X009301Y004151D01*
X009301Y008151D01*
X010151Y008151D01*
X010153Y008121D01*
X010158Y008091D01*
X010167Y008062D01*
X010180Y008035D01*
X010195Y008009D01*
X010214Y007985D01*
X010235Y007964D01*
X010259Y007945D01*
X010285Y007930D01*
X010312Y007917D01*
X010341Y007908D01*
X010371Y007903D01*
X010401Y007901D01*
X010431Y007903D01*
X010461Y007908D01*
X010490Y007917D01*
X010517Y007930D01*
X010543Y007945D01*
X010567Y007964D01*
X010588Y007985D01*
X010607Y008009D01*
X010622Y008035D01*
X010635Y008062D01*
X010644Y008091D01*
X010649Y008121D01*
X010651Y008151D01*
X011501Y008151D01*
X011501Y004151D01*
X011410Y003987D02*
X011363Y003985D01*
X011315Y003979D01*
X011269Y003970D01*
X011223Y003957D01*
X011179Y003941D01*
X011135Y003921D01*
X011094Y003897D01*
X011055Y003871D01*
X011018Y003841D01*
X010983Y003808D01*
X010951Y003773D01*
X010922Y003736D01*
X009393Y002787D02*
X009348Y002789D01*
X009302Y002794D01*
X009258Y002802D01*
X009214Y002814D01*
X009171Y002830D01*
X009129Y002848D01*
X009089Y002870D01*
X009051Y002894D01*
X009015Y002921D01*
X008980Y002951D01*
X008949Y002984D01*
X008919Y003019D01*
X009393Y003987D02*
X009439Y003985D01*
X009485Y003980D01*
X009531Y003971D01*
X009576Y003959D01*
X009619Y003943D01*
X009661Y003924D01*
X009702Y003901D01*
X009741Y003876D01*
X009777Y003848D01*
X009812Y003817D01*
X009844Y003783D01*
X009873Y003747D01*
X009393Y003987D02*
X009346Y003985D01*
X009298Y003979D01*
X009252Y003970D01*
X009206Y003957D01*
X009162Y003941D01*
X009118Y003921D01*
X009077Y003897D01*
X009038Y003871D01*
X009001Y003841D01*
X008966Y003808D01*
X008934Y003773D01*
X008905Y003736D01*
X007457Y003355D02*
X007412Y003357D01*
X007366Y003362D01*
X007322Y003370D01*
X007278Y003382D01*
X007235Y003398D01*
X007193Y003416D01*
X007153Y003438D01*
X007115Y003462D01*
X007079Y003489D01*
X007044Y003519D01*
X007013Y003552D01*
X006983Y003587D01*
X007457Y004555D02*
X007503Y004553D01*
X007549Y004548D01*
X007595Y004539D01*
X007640Y004527D01*
X007683Y004511D01*
X007725Y004492D01*
X007766Y004469D01*
X007805Y004444D01*
X007841Y004416D01*
X007876Y004385D01*
X007908Y004351D01*
X007937Y004315D01*
X007457Y004555D02*
X007410Y004553D01*
X007362Y004547D01*
X007316Y004538D01*
X007270Y004525D01*
X007226Y004509D01*
X007182Y004489D01*
X007141Y004465D01*
X007102Y004439D01*
X007065Y004409D01*
X007030Y004376D01*
X006998Y004341D01*
X006969Y004304D01*
X006235Y004678D02*
X006205Y004643D01*
X006174Y004610D01*
X006139Y004580D01*
X006103Y004553D01*
X006065Y004529D01*
X006025Y004507D01*
X005983Y004489D01*
X005940Y004473D01*
X005896Y004461D01*
X005852Y004453D01*
X005806Y004448D01*
X005761Y004446D01*
X005716Y004448D01*
X005670Y004453D01*
X005626Y004461D01*
X005582Y004473D01*
X005539Y004489D01*
X005497Y004507D01*
X005457Y004529D01*
X005419Y004553D01*
X005383Y004580D01*
X005348Y004610D01*
X005317Y004643D01*
X005287Y004678D01*
X005761Y005646D02*
X005807Y005644D01*
X005853Y005639D01*
X005899Y005630D01*
X005944Y005618D01*
X005987Y005602D01*
X006029Y005583D01*
X006070Y005560D01*
X006109Y005535D01*
X006145Y005507D01*
X006180Y005476D01*
X006212Y005442D01*
X006241Y005406D01*
X006135Y005976D02*
X006362Y005976D01*
X006362Y006316D01*
X006135Y006316D01*
X005994Y006316D02*
X005824Y006316D01*
X005767Y006259D01*
X005767Y006032D01*
X005824Y005976D01*
X005994Y005976D01*
X005994Y006316D01*
X005626Y006259D02*
X005626Y006202D01*
X005569Y006146D01*
X005455Y006146D01*
X005399Y006089D01*
X005399Y006032D01*
X005455Y005976D01*
X005569Y005976D01*
X005626Y006032D01*
X005626Y006089D01*
X005569Y006146D01*
X005455Y006146D02*
X005399Y006202D01*
X005399Y006259D01*
X005455Y006316D01*
X005569Y006316D01*
X005626Y006259D01*
X006249Y006146D02*
X006362Y006146D01*
X006504Y005976D02*
X006731Y005976D01*
X006731Y006316D01*
X007651Y006271D02*
X007651Y006751D01*
X007651Y006021D02*
X007651Y005551D01*
X006160Y007250D02*
X005933Y007250D01*
X005791Y007250D02*
X005564Y007250D01*
X005423Y007250D02*
X005253Y007250D01*
X005196Y007307D01*
X005196Y007534D01*
X005253Y007590D01*
X005423Y007590D01*
X005423Y007250D01*
X005678Y007420D02*
X005791Y007420D01*
X005791Y007590D02*
X005791Y007250D01*
X005791Y007590D02*
X005564Y007590D01*
X005055Y007590D02*
X004828Y007590D01*
X004828Y007534D01*
X005055Y007307D01*
X005055Y007250D01*
X004914Y006202D02*
X004884Y006167D01*
X004853Y006134D01*
X004818Y006104D01*
X004782Y006077D01*
X004744Y006053D01*
X004704Y006031D01*
X004662Y006013D01*
X004619Y005997D01*
X004575Y005985D01*
X004531Y005977D01*
X004485Y005972D01*
X004440Y005970D01*
X004395Y005972D01*
X004349Y005977D01*
X004305Y005985D01*
X004261Y005997D01*
X004218Y006013D01*
X004176Y006031D01*
X004136Y006053D01*
X004098Y006077D01*
X004062Y006104D01*
X004027Y006134D01*
X003996Y006167D01*
X003966Y006202D01*
X004440Y007170D02*
X004486Y007168D01*
X004532Y007163D01*
X004578Y007154D01*
X004623Y007142D01*
X004666Y007126D01*
X004708Y007107D01*
X004749Y007084D01*
X004788Y007059D01*
X004824Y007031D01*
X004859Y007000D01*
X004891Y006966D01*
X004920Y006930D01*
X004440Y007170D02*
X004393Y007168D01*
X004345Y007162D01*
X004299Y007153D01*
X004253Y007140D01*
X004209Y007124D01*
X004165Y007104D01*
X004124Y007080D01*
X004085Y007054D01*
X004048Y007024D01*
X004013Y006991D01*
X003981Y006956D01*
X003952Y006919D01*
X004672Y008210D02*
X004615Y008266D01*
X004615Y008323D01*
X004672Y008380D01*
X004842Y008380D01*
X004842Y008266D01*
X004785Y008210D01*
X004672Y008210D01*
X004842Y008380D02*
X004728Y008493D01*
X004615Y008550D01*
X004983Y008493D02*
X005040Y008550D01*
X005210Y008550D01*
X005210Y008210D01*
X005040Y008210D01*
X004983Y008266D01*
X004983Y008493D01*
X005352Y008550D02*
X005578Y008550D01*
X005578Y008210D01*
X005352Y008210D01*
X005465Y008380D02*
X005578Y008380D01*
X005720Y008210D02*
X005947Y008210D01*
X005947Y008550D01*
X006160Y007590D02*
X006160Y007250D01*
X007301Y007781D02*
X007528Y007781D01*
X007415Y007781D02*
X007415Y008122D01*
X007528Y008008D01*
X007669Y008065D02*
X007726Y008122D01*
X007840Y008122D01*
X007896Y008065D01*
X007896Y007838D01*
X007840Y007781D01*
X007726Y007781D01*
X007669Y007838D01*
X005670Y010207D02*
X005443Y010207D01*
X005302Y010207D02*
X005302Y010547D01*
X005075Y010547D01*
X004933Y010547D02*
X004933Y010207D01*
X004763Y010207D01*
X004706Y010264D01*
X004706Y010490D01*
X004763Y010547D01*
X004933Y010547D01*
X005188Y010377D02*
X005302Y010377D01*
X005302Y010207D02*
X005075Y010207D01*
X004565Y010264D02*
X004508Y010207D01*
X004395Y010207D01*
X004338Y010264D01*
X004338Y010377D01*
X004395Y010434D01*
X004452Y010434D01*
X004565Y010377D01*
X004565Y010547D01*
X004338Y010547D01*
X003389Y009806D02*
X003344Y009802D01*
X003299Y009801D01*
X003253Y009804D01*
X003208Y009811D01*
X003164Y009820D01*
X003120Y009833D01*
X003078Y009850D01*
X003037Y009869D01*
X002997Y009892D01*
X002960Y009918D01*
X002924Y009946D01*
X002891Y009977D01*
X002860Y010010D01*
X002832Y010046D01*
X002806Y010083D01*
X002783Y010123D01*
X002764Y010164D01*
X002747Y010206D01*
X002734Y010250D01*
X002725Y010294D01*
X002718Y010339D01*
X002715Y010385D01*
X002716Y010430D01*
X002720Y010475D01*
X003739Y010825D02*
X003771Y010791D01*
X003800Y010755D01*
X003825Y010716D01*
X003848Y010676D01*
X003868Y010634D01*
X003884Y010591D01*
X003897Y010546D01*
X003907Y010501D01*
X003913Y010455D01*
X003915Y010409D01*
X003914Y010362D01*
X003909Y010316D01*
X003739Y010825D02*
X003704Y010858D01*
X003667Y010887D01*
X003627Y010913D01*
X003586Y010936D01*
X003543Y010956D01*
X003498Y010972D01*
X003452Y010985D01*
X003406Y010994D01*
X003358Y010999D01*
X003311Y011001D01*
X003263Y010999D01*
X003216Y010993D01*
X004026Y011974D02*
X004057Y012007D01*
X004085Y012043D01*
X004111Y012080D01*
X004134Y012120D01*
X004153Y012161D01*
X004170Y012203D01*
X004183Y012247D01*
X004192Y012291D01*
X004199Y012336D01*
X004202Y012382D01*
X004201Y012427D01*
X004197Y012472D01*
X004527Y012314D02*
X004754Y012314D01*
X004584Y012484D01*
X004584Y012144D01*
X004895Y012201D02*
X004895Y012428D01*
X004952Y012484D01*
X005122Y012484D01*
X005122Y012144D01*
X004952Y012144D01*
X004895Y012201D01*
X005264Y012144D02*
X005491Y012144D01*
X005491Y012484D01*
X005264Y012484D01*
X005377Y012314D02*
X005491Y012314D01*
X005632Y012144D02*
X005859Y012144D01*
X005859Y012484D01*
X005878Y014038D02*
X005821Y014094D01*
X005821Y014321D01*
X005878Y014378D01*
X006048Y014378D01*
X006048Y014038D01*
X005878Y014038D01*
X005680Y014094D02*
X005623Y014038D01*
X005510Y014038D01*
X005453Y014094D01*
X005453Y014151D01*
X005510Y014208D01*
X005566Y014208D01*
X005510Y014208D02*
X005453Y014264D01*
X005453Y014321D01*
X005510Y014378D01*
X005623Y014378D01*
X005680Y014321D01*
X006189Y014378D02*
X006416Y014378D01*
X006416Y014038D01*
X006189Y014038D01*
X006303Y014208D02*
X006416Y014208D01*
X006558Y014038D02*
X006785Y014038D01*
X006785Y014378D01*
X006824Y014812D02*
X006767Y014869D01*
X006767Y015096D01*
X006824Y015152D01*
X006994Y015152D01*
X006994Y014812D01*
X006824Y014812D01*
X006626Y014812D02*
X006399Y015039D01*
X006399Y015096D01*
X006455Y015152D01*
X006569Y015152D01*
X006626Y015096D01*
X006626Y014812D02*
X006399Y014812D01*
X006721Y015527D02*
X006947Y015527D01*
X006834Y015527D02*
X006834Y015868D01*
X006947Y015754D01*
X007089Y015811D02*
X007089Y015584D01*
X007146Y015527D01*
X007316Y015527D01*
X007316Y015868D01*
X007146Y015868D01*
X007089Y015811D01*
X007457Y015868D02*
X007684Y015868D01*
X007684Y015527D01*
X007457Y015527D01*
X007571Y015698D02*
X007684Y015698D01*
X007826Y015527D02*
X008052Y015527D01*
X008052Y015868D01*
X007731Y015152D02*
X007731Y014812D01*
X007504Y014812D01*
X007362Y014812D02*
X007362Y015152D01*
X007135Y015152D01*
X007249Y014982D02*
X007362Y014982D01*
X007362Y014812D02*
X007135Y014812D01*
X006235Y015389D02*
X006205Y015354D01*
X006174Y015321D01*
X006139Y015291D01*
X006103Y015264D01*
X006065Y015240D01*
X006025Y015218D01*
X005983Y015200D01*
X005940Y015184D01*
X005896Y015172D01*
X005852Y015164D01*
X005806Y015159D01*
X005761Y015157D01*
X005716Y015159D01*
X005670Y015164D01*
X005626Y015172D01*
X005582Y015184D01*
X005539Y015200D01*
X005497Y015218D01*
X005457Y015240D01*
X005419Y015264D01*
X005383Y015291D01*
X005348Y015321D01*
X005317Y015354D01*
X005287Y015389D01*
X005761Y016357D02*
X005807Y016355D01*
X005853Y016350D01*
X005899Y016341D01*
X005944Y016329D01*
X005987Y016313D01*
X006029Y016294D01*
X006070Y016271D01*
X006109Y016246D01*
X006145Y016218D01*
X006180Y016187D01*
X006212Y016153D01*
X006241Y016117D01*
X005761Y016357D02*
X005714Y016355D01*
X005666Y016349D01*
X005620Y016340D01*
X005574Y016327D01*
X005530Y016311D01*
X005486Y016291D01*
X005445Y016267D01*
X005406Y016241D01*
X005369Y016211D01*
X005334Y016178D01*
X005302Y016143D01*
X005273Y016106D01*
X004914Y013865D02*
X004884Y013830D01*
X004853Y013797D01*
X004818Y013767D01*
X004782Y013740D01*
X004744Y013716D01*
X004704Y013694D01*
X004662Y013676D01*
X004619Y013660D01*
X004575Y013648D01*
X004531Y013640D01*
X004485Y013635D01*
X004440Y013633D01*
X004395Y013635D01*
X004349Y013640D01*
X004305Y013648D01*
X004261Y013660D01*
X004218Y013676D01*
X004176Y013694D01*
X004136Y013716D01*
X004098Y013740D01*
X004062Y013767D01*
X004027Y013797D01*
X003996Y013830D01*
X003966Y013865D01*
X004440Y014833D02*
X004486Y014831D01*
X004532Y014826D01*
X004578Y014817D01*
X004623Y014805D01*
X004666Y014789D01*
X004708Y014770D01*
X004749Y014747D01*
X004788Y014722D01*
X004824Y014694D01*
X004859Y014663D01*
X004891Y014629D01*
X004920Y014593D01*
X004440Y014833D02*
X004393Y014831D01*
X004345Y014825D01*
X004299Y014816D01*
X004253Y014803D01*
X004209Y014787D01*
X004165Y014767D01*
X004124Y014743D01*
X004085Y014717D01*
X004048Y014687D01*
X004013Y014654D01*
X003981Y014619D01*
X003952Y014582D01*
X004026Y011974D02*
X003993Y011943D01*
X003957Y011915D01*
X003920Y011889D01*
X003880Y011866D01*
X003839Y011847D01*
X003797Y011830D01*
X003753Y011817D01*
X003709Y011808D01*
X003664Y011801D01*
X003618Y011798D01*
X003573Y011799D01*
X003528Y011803D01*
X003178Y012822D02*
X003212Y012854D01*
X003248Y012883D01*
X003287Y012908D01*
X003327Y012931D01*
X003369Y012951D01*
X003412Y012967D01*
X003457Y012980D01*
X003502Y012990D01*
X003548Y012996D01*
X003594Y012998D01*
X003641Y012997D01*
X003687Y012992D01*
X003178Y012822D02*
X003145Y012787D01*
X003116Y012750D01*
X003090Y012710D01*
X003067Y012669D01*
X003047Y012626D01*
X003031Y012581D01*
X003018Y012535D01*
X003009Y012489D01*
X003004Y012441D01*
X003002Y012394D01*
X003004Y012346D01*
X003010Y012299D01*
X005670Y010547D02*
X005670Y010207D01*
X004076Y008037D02*
X004046Y008002D01*
X004015Y007969D01*
X003980Y007939D01*
X003944Y007912D01*
X003906Y007888D01*
X003866Y007866D01*
X003824Y007848D01*
X003781Y007832D01*
X003737Y007820D01*
X003693Y007812D01*
X003647Y007807D01*
X003602Y007805D01*
X003557Y007807D01*
X003511Y007812D01*
X003467Y007820D01*
X003423Y007832D01*
X003380Y007848D01*
X003338Y007866D01*
X003298Y007888D01*
X003260Y007912D01*
X003224Y007939D01*
X003189Y007969D01*
X003158Y008002D01*
X003128Y008037D01*
X003602Y009005D02*
X003648Y009003D01*
X003694Y008998D01*
X003740Y008989D01*
X003785Y008977D01*
X003828Y008961D01*
X003870Y008942D01*
X003911Y008919D01*
X003950Y008894D01*
X003986Y008866D01*
X004021Y008835D01*
X004053Y008801D01*
X004082Y008765D01*
X003602Y009005D02*
X003555Y009003D01*
X003507Y008997D01*
X003461Y008988D01*
X003415Y008975D01*
X003371Y008959D01*
X003327Y008939D01*
X003286Y008915D01*
X003247Y008889D01*
X003210Y008859D01*
X003175Y008826D01*
X003143Y008791D01*
X003114Y008754D01*
X005273Y005395D02*
X005302Y005432D01*
X005334Y005467D01*
X005369Y005500D01*
X005406Y005530D01*
X005445Y005556D01*
X005486Y005580D01*
X005530Y005600D01*
X005574Y005616D01*
X005620Y005629D01*
X005666Y005638D01*
X005714Y005644D01*
X005761Y005646D01*
X010531Y008291D02*
X010757Y008291D01*
X010644Y008291D02*
X010644Y008632D01*
X010757Y008518D01*
X010899Y008575D02*
X010956Y008632D01*
X011069Y008632D01*
X011126Y008575D01*
X011126Y008348D01*
X011069Y008291D01*
X010956Y008291D01*
X010899Y008348D01*
X011258Y008291D02*
X011371Y008291D01*
X011315Y008291D02*
X011315Y008632D01*
X011371Y008632D02*
X011258Y008632D01*
X012619Y006066D02*
X012562Y006009D01*
X012562Y005952D01*
X012619Y005896D01*
X012562Y005839D01*
X012562Y005782D01*
X012619Y005726D01*
X012732Y005726D01*
X012789Y005782D01*
X012930Y005726D02*
X013157Y005726D01*
X013044Y005726D02*
X013044Y006066D01*
X013157Y005952D01*
X013299Y006009D02*
X013355Y006066D01*
X013525Y006066D01*
X013525Y005726D01*
X013355Y005726D01*
X013299Y005782D01*
X013299Y006009D01*
X013667Y006066D02*
X013894Y006066D01*
X013894Y005726D01*
X013667Y005726D01*
X013780Y005896D02*
X013894Y005896D01*
X014035Y005726D02*
X014262Y005726D01*
X014262Y006066D01*
X014251Y006250D02*
X014478Y006250D01*
X014365Y006250D02*
X014365Y006590D01*
X014478Y006477D01*
X014619Y006534D02*
X014619Y006307D01*
X014676Y006250D01*
X014846Y006250D01*
X014846Y006590D01*
X014676Y006590D01*
X014619Y006534D01*
X014988Y006590D02*
X015215Y006590D01*
X015215Y006250D01*
X014988Y006250D01*
X015101Y006420D02*
X015215Y006420D01*
X015356Y006250D02*
X015583Y006250D01*
X015583Y006590D01*
X016363Y005970D02*
X016408Y005972D01*
X016454Y005977D01*
X016498Y005985D01*
X016542Y005997D01*
X016585Y006013D01*
X016627Y006031D01*
X016667Y006053D01*
X016705Y006077D01*
X016741Y006104D01*
X016776Y006134D01*
X016807Y006167D01*
X016837Y006202D01*
X016363Y005970D02*
X016318Y005972D01*
X016272Y005977D01*
X016228Y005985D01*
X016184Y005997D01*
X016141Y006013D01*
X016099Y006031D01*
X016059Y006053D01*
X016021Y006077D01*
X015985Y006104D01*
X015950Y006134D01*
X015919Y006167D01*
X015889Y006202D01*
X016363Y007170D02*
X016409Y007168D01*
X016455Y007163D01*
X016501Y007154D01*
X016546Y007142D01*
X016589Y007126D01*
X016631Y007107D01*
X016672Y007084D01*
X016711Y007059D01*
X016747Y007031D01*
X016782Y007000D01*
X016814Y006966D01*
X016843Y006930D01*
X016363Y007170D02*
X016316Y007168D01*
X016268Y007162D01*
X016222Y007153D01*
X016176Y007140D01*
X016132Y007124D01*
X016088Y007104D01*
X016047Y007080D01*
X016008Y007054D01*
X015971Y007024D01*
X015936Y006991D01*
X015904Y006956D01*
X015875Y006919D01*
X015928Y008210D02*
X015701Y008210D01*
X015559Y008210D02*
X015389Y008210D01*
X015332Y008266D01*
X015332Y008493D01*
X015389Y008550D01*
X015559Y008550D01*
X015559Y008210D01*
X015191Y008210D02*
X014964Y008210D01*
X015077Y008210D02*
X015077Y008550D01*
X015191Y008437D01*
X014823Y008380D02*
X014709Y008437D01*
X014652Y008437D01*
X014596Y008380D01*
X014596Y008266D01*
X014652Y008210D01*
X014766Y008210D01*
X014823Y008266D01*
X014823Y008380D02*
X014823Y008550D01*
X014596Y008550D01*
X015701Y008550D02*
X015928Y008550D01*
X015928Y008210D01*
X016069Y008210D02*
X016296Y008210D01*
X016296Y008550D01*
X015928Y008380D02*
X015814Y008380D01*
X017201Y007805D02*
X017246Y007807D01*
X017292Y007812D01*
X017336Y007820D01*
X017380Y007832D01*
X017423Y007848D01*
X017465Y007866D01*
X017505Y007888D01*
X017543Y007912D01*
X017579Y007939D01*
X017614Y007969D01*
X017645Y008002D01*
X017675Y008037D01*
X017201Y007805D02*
X017156Y007807D01*
X017110Y007812D01*
X017066Y007820D01*
X017022Y007832D01*
X016979Y007848D01*
X016937Y007866D01*
X016897Y007888D01*
X016859Y007912D01*
X016823Y007939D01*
X016788Y007969D01*
X016757Y008002D01*
X016727Y008037D01*
X017201Y009005D02*
X017247Y009003D01*
X017293Y008998D01*
X017339Y008989D01*
X017384Y008977D01*
X017427Y008961D01*
X017469Y008942D01*
X017510Y008919D01*
X017549Y008894D01*
X017585Y008866D01*
X017620Y008835D01*
X017652Y008801D01*
X017681Y008765D01*
X017201Y009005D02*
X017154Y009003D01*
X017106Y008997D01*
X017060Y008988D01*
X017014Y008975D01*
X016970Y008959D01*
X016926Y008939D01*
X016885Y008915D01*
X016846Y008889D01*
X016809Y008859D01*
X016774Y008826D01*
X016742Y008791D01*
X016713Y008754D01*
X016545Y010270D02*
X016318Y010270D01*
X016177Y010270D02*
X015950Y010270D01*
X015808Y010270D02*
X015638Y010270D01*
X015581Y010327D01*
X015581Y010554D01*
X015638Y010610D01*
X015808Y010610D01*
X015808Y010270D01*
X016063Y010440D02*
X016177Y010440D01*
X016177Y010610D02*
X016177Y010270D01*
X016177Y010610D02*
X015950Y010610D01*
X015440Y010497D02*
X015327Y010610D01*
X015327Y010270D01*
X015440Y010270D02*
X015213Y010270D01*
X015072Y010327D02*
X015072Y010440D01*
X014902Y010440D01*
X014845Y010383D01*
X014845Y010327D01*
X014902Y010270D01*
X015015Y010270D01*
X015072Y010327D01*
X015072Y010440D02*
X014958Y010554D01*
X014845Y010610D01*
X014881Y012241D02*
X015108Y012241D01*
X014995Y012241D02*
X014995Y012582D01*
X015108Y012468D01*
X015250Y012525D02*
X015306Y012582D01*
X015476Y012582D01*
X015476Y012241D01*
X015306Y012241D01*
X015250Y012298D01*
X015250Y012525D01*
X015618Y012582D02*
X015845Y012582D01*
X015845Y012241D01*
X015618Y012241D01*
X015731Y012412D02*
X015845Y012412D01*
X015986Y012241D02*
X016213Y012241D01*
X016213Y012582D01*
X016606Y012472D02*
X016602Y012427D01*
X016601Y012382D01*
X016604Y012336D01*
X016611Y012291D01*
X016620Y012247D01*
X016633Y012203D01*
X016650Y012161D01*
X016669Y012120D01*
X016692Y012080D01*
X016718Y012043D01*
X016746Y012007D01*
X016777Y011974D01*
X017795Y012313D02*
X017800Y012359D01*
X017801Y012406D01*
X017799Y012452D01*
X017793Y012498D01*
X017783Y012543D01*
X017770Y012588D01*
X017754Y012631D01*
X017734Y012673D01*
X017711Y012713D01*
X017686Y012752D01*
X017657Y012788D01*
X017625Y012822D01*
X017275Y011803D02*
X017230Y011799D01*
X017185Y011798D01*
X017139Y011801D01*
X017094Y011808D01*
X017050Y011817D01*
X017006Y011830D01*
X016964Y011847D01*
X016923Y011866D01*
X016883Y011889D01*
X016846Y011915D01*
X016810Y011943D01*
X016777Y011974D01*
X017102Y012990D02*
X017149Y012996D01*
X017197Y012998D01*
X017244Y012996D01*
X017292Y012991D01*
X017338Y012982D01*
X017384Y012969D01*
X017429Y012953D01*
X017472Y012933D01*
X017513Y012910D01*
X017553Y012884D01*
X017590Y012855D01*
X017625Y012822D01*
X016837Y013865D02*
X016807Y013830D01*
X016776Y013797D01*
X016741Y013767D01*
X016705Y013740D01*
X016667Y013716D01*
X016627Y013694D01*
X016585Y013676D01*
X016542Y013660D01*
X016498Y013648D01*
X016454Y013640D01*
X016408Y013635D01*
X016363Y013633D01*
X016318Y013635D01*
X016272Y013640D01*
X016228Y013648D01*
X016184Y013660D01*
X016141Y013676D01*
X016099Y013694D01*
X016059Y013716D01*
X016021Y013740D01*
X015985Y013767D01*
X015950Y013797D01*
X015919Y013830D01*
X015889Y013865D01*
X015458Y014038D02*
X015231Y014038D01*
X015090Y014038D02*
X014863Y014038D01*
X014721Y014038D02*
X014551Y014038D01*
X014494Y014094D01*
X014494Y014321D01*
X014551Y014378D01*
X014721Y014378D01*
X014721Y014038D01*
X014353Y014038D02*
X014126Y014038D01*
X014240Y014038D02*
X014240Y014378D01*
X014353Y014264D01*
X013985Y014264D02*
X013985Y014321D01*
X013928Y014378D01*
X013815Y014378D01*
X013758Y014321D01*
X013758Y014264D01*
X013815Y014208D01*
X013928Y014208D01*
X013985Y014264D01*
X013928Y014208D02*
X013985Y014151D01*
X013985Y014094D01*
X013928Y014038D01*
X013815Y014038D01*
X013758Y014094D01*
X013758Y014151D01*
X013815Y014208D01*
X013894Y015062D02*
X013667Y015062D01*
X013525Y015062D02*
X013355Y015062D01*
X013299Y015119D01*
X013299Y015346D01*
X013355Y015402D01*
X013525Y015402D01*
X013525Y015062D01*
X013780Y015232D02*
X013894Y015232D01*
X013894Y015402D02*
X013894Y015062D01*
X014035Y015062D02*
X014262Y015062D01*
X014262Y015402D01*
X013940Y015652D02*
X013713Y015652D01*
X013572Y015652D02*
X013345Y015652D01*
X013204Y015652D02*
X013204Y015993D01*
X013033Y015993D01*
X012977Y015936D01*
X012977Y015709D01*
X013033Y015652D01*
X013204Y015652D01*
X013044Y015402D02*
X013044Y015062D01*
X013157Y015062D02*
X012930Y015062D01*
X012789Y015119D02*
X012732Y015062D01*
X012619Y015062D01*
X012562Y015119D01*
X012562Y015346D01*
X012619Y015402D01*
X012732Y015402D01*
X012789Y015346D01*
X012789Y015289D01*
X012732Y015232D01*
X012562Y015232D01*
X012608Y015652D02*
X012835Y015652D01*
X012608Y015879D01*
X012608Y015936D01*
X012665Y015993D01*
X012779Y015993D01*
X012835Y015936D01*
X012467Y015936D02*
X012467Y015709D01*
X012240Y015936D01*
X012240Y015709D01*
X012297Y015652D01*
X012410Y015652D01*
X012467Y015709D01*
X012467Y015936D02*
X012410Y015993D01*
X012297Y015993D01*
X012240Y015936D01*
X011701Y016201D02*
X011701Y015601D01*
X011601Y015601D01*
X011601Y015501D01*
X011601Y016201D02*
X011601Y016301D01*
X011601Y016201D02*
X011701Y016201D01*
X011251Y017101D02*
X010901Y017101D01*
X009901Y017101D01*
X009551Y017101D01*
X010101Y017256D02*
X010328Y017256D01*
X010215Y017256D02*
X010215Y017597D01*
X010328Y017483D01*
X010469Y017540D02*
X010526Y017597D01*
X010640Y017597D01*
X010696Y017540D01*
X010696Y017483D01*
X010640Y017426D01*
X010526Y017426D01*
X010469Y017370D01*
X010469Y017313D01*
X010526Y017256D01*
X010640Y017256D01*
X010696Y017313D01*
X010301Y015901D02*
X010303Y015921D01*
X010309Y015939D01*
X010318Y015957D01*
X010330Y015972D01*
X010345Y015984D01*
X010363Y015993D01*
X010381Y015999D01*
X010401Y016001D01*
X010421Y015999D01*
X010439Y015993D01*
X010457Y015984D01*
X010472Y015972D01*
X010484Y015957D01*
X010493Y015939D01*
X010499Y015921D01*
X010501Y015901D01*
X010499Y015881D01*
X010493Y015863D01*
X010484Y015845D01*
X010472Y015830D01*
X010457Y015818D01*
X010439Y015809D01*
X010421Y015803D01*
X010401Y015801D01*
X010381Y015803D01*
X010363Y015809D01*
X010345Y015818D01*
X010330Y015830D01*
X010318Y015845D01*
X010309Y015863D01*
X010303Y015881D01*
X010301Y015901D01*
X009701Y015901D02*
X009703Y015953D01*
X009709Y016005D01*
X009719Y016057D01*
X009732Y016107D01*
X009749Y016157D01*
X009770Y016205D01*
X009795Y016251D01*
X009823Y016295D01*
X009854Y016337D01*
X009888Y016377D01*
X009925Y016414D01*
X009965Y016448D01*
X010007Y016479D01*
X010051Y016507D01*
X010097Y016532D01*
X010145Y016553D01*
X010195Y016570D01*
X010245Y016583D01*
X010297Y016593D01*
X010349Y016599D01*
X010401Y016601D01*
X010453Y016599D01*
X010505Y016593D01*
X010557Y016583D01*
X010607Y016570D01*
X010657Y016553D01*
X010705Y016532D01*
X010751Y016507D01*
X010795Y016479D01*
X010837Y016448D01*
X010877Y016414D01*
X010914Y016377D01*
X010948Y016337D01*
X010979Y016295D01*
X011007Y016251D01*
X011032Y016205D01*
X011053Y016157D01*
X011070Y016107D01*
X011083Y016057D01*
X011093Y016005D01*
X011099Y015953D01*
X011101Y015901D01*
X011099Y015849D01*
X011093Y015797D01*
X011083Y015745D01*
X011070Y015695D01*
X011053Y015645D01*
X011032Y015597D01*
X011007Y015551D01*
X010979Y015507D01*
X010948Y015465D01*
X010914Y015425D01*
X010877Y015388D01*
X010837Y015354D01*
X010795Y015323D01*
X010751Y015295D01*
X010705Y015270D01*
X010657Y015249D01*
X010607Y015232D01*
X010557Y015219D01*
X010505Y015209D01*
X010453Y015203D01*
X010401Y015201D01*
X010349Y015203D01*
X010297Y015209D01*
X010245Y015219D01*
X010195Y015232D01*
X010145Y015249D01*
X010097Y015270D01*
X010051Y015295D01*
X010007Y015323D01*
X009965Y015354D01*
X009925Y015388D01*
X009888Y015425D01*
X009854Y015465D01*
X009823Y015507D01*
X009795Y015551D01*
X009770Y015597D01*
X009749Y015645D01*
X009732Y015695D01*
X009719Y015745D01*
X009709Y015797D01*
X009703Y015849D01*
X009701Y015901D01*
X009201Y015601D02*
X009201Y015501D01*
X009201Y015601D02*
X009101Y015601D01*
X009101Y016201D01*
X009201Y016201D01*
X009201Y016301D01*
X009551Y014701D02*
X009951Y014701D01*
X010901Y014701D01*
X011251Y014701D01*
X013044Y015402D02*
X013157Y015289D01*
X013667Y015402D02*
X013894Y015402D01*
X013940Y015652D02*
X013940Y015993D01*
X013572Y015993D02*
X013572Y015652D01*
X013572Y015823D02*
X013458Y015823D01*
X013345Y015993D02*
X013572Y015993D01*
X013345Y016247D02*
X013390Y016249D01*
X013436Y016254D01*
X013480Y016262D01*
X013524Y016274D01*
X013567Y016290D01*
X013609Y016308D01*
X013649Y016330D01*
X013687Y016354D01*
X013723Y016381D01*
X013758Y016411D01*
X013789Y016444D01*
X013819Y016479D01*
X013345Y016247D02*
X013300Y016249D01*
X013254Y016254D01*
X013210Y016262D01*
X013166Y016274D01*
X013123Y016290D01*
X013081Y016308D01*
X013041Y016330D01*
X013003Y016354D01*
X012967Y016381D01*
X012932Y016411D01*
X012901Y016444D01*
X012871Y016479D01*
X013345Y017447D02*
X013391Y017445D01*
X013437Y017440D01*
X013483Y017431D01*
X013528Y017419D01*
X013571Y017403D01*
X013613Y017384D01*
X013654Y017361D01*
X013693Y017336D01*
X013729Y017308D01*
X013764Y017277D01*
X013796Y017243D01*
X013825Y017207D01*
X013345Y017447D02*
X013298Y017445D01*
X013250Y017439D01*
X013204Y017430D01*
X013158Y017417D01*
X013114Y017401D01*
X013070Y017381D01*
X013029Y017357D01*
X012990Y017331D01*
X012953Y017301D01*
X012918Y017268D01*
X012886Y017233D01*
X012857Y017196D01*
X015042Y015157D02*
X015087Y015159D01*
X015133Y015164D01*
X015177Y015172D01*
X015221Y015184D01*
X015264Y015200D01*
X015306Y015218D01*
X015346Y015240D01*
X015384Y015264D01*
X015420Y015291D01*
X015455Y015321D01*
X015486Y015354D01*
X015516Y015389D01*
X015042Y015157D02*
X014997Y015159D01*
X014951Y015164D01*
X014907Y015172D01*
X014863Y015184D01*
X014820Y015200D01*
X014778Y015218D01*
X014738Y015240D01*
X014700Y015264D01*
X014664Y015291D01*
X014629Y015321D01*
X014598Y015354D01*
X014568Y015389D01*
X015042Y016357D02*
X015088Y016355D01*
X015134Y016350D01*
X015180Y016341D01*
X015225Y016329D01*
X015268Y016313D01*
X015310Y016294D01*
X015351Y016271D01*
X015390Y016246D01*
X015426Y016218D01*
X015461Y016187D01*
X015493Y016153D01*
X015522Y016117D01*
X015042Y016357D02*
X014995Y016355D01*
X014947Y016349D01*
X014901Y016340D01*
X014855Y016327D01*
X014811Y016311D01*
X014767Y016291D01*
X014726Y016267D01*
X014687Y016241D01*
X014650Y016211D01*
X014615Y016178D01*
X014583Y016143D01*
X014554Y016106D01*
X014863Y014378D02*
X015090Y014378D01*
X015090Y014038D01*
X015090Y014208D02*
X014976Y014208D01*
X015458Y014378D02*
X015458Y014038D01*
X016363Y014833D02*
X016409Y014831D01*
X016455Y014826D01*
X016501Y014817D01*
X016546Y014805D01*
X016589Y014789D01*
X016631Y014770D01*
X016672Y014747D01*
X016711Y014722D01*
X016747Y014694D01*
X016782Y014663D01*
X016814Y014629D01*
X016843Y014593D01*
X016363Y014833D02*
X016316Y014831D01*
X016268Y014825D01*
X016222Y014816D01*
X016176Y014803D01*
X016132Y014787D01*
X016088Y014767D01*
X016047Y014743D01*
X016008Y014717D01*
X015971Y014687D01*
X015936Y014654D01*
X015904Y014619D01*
X015875Y014582D01*
X014740Y012582D02*
X014513Y012582D01*
X014513Y012525D01*
X014740Y012298D01*
X014740Y012241D01*
X016545Y010610D02*
X016545Y010270D01*
X017912Y009977D02*
X017943Y010010D01*
X017971Y010046D01*
X017997Y010083D01*
X018020Y010123D01*
X018039Y010164D01*
X018056Y010206D01*
X018069Y010250D01*
X018078Y010294D01*
X018085Y010339D01*
X018088Y010385D01*
X018087Y010430D01*
X018083Y010475D01*
X017912Y009977D02*
X017879Y009946D01*
X017843Y009918D01*
X017806Y009892D01*
X017766Y009869D01*
X017725Y009850D01*
X017683Y009833D01*
X017639Y009820D01*
X017595Y009811D01*
X017550Y009804D01*
X017504Y009801D01*
X017459Y009802D01*
X017414Y009806D01*
X017064Y010825D02*
X017098Y010857D01*
X017134Y010886D01*
X017173Y010911D01*
X017213Y010934D01*
X017255Y010954D01*
X017298Y010970D01*
X017343Y010983D01*
X017388Y010993D01*
X017434Y010999D01*
X017480Y011001D01*
X017527Y011000D01*
X017573Y010995D01*
X017064Y010825D02*
X017031Y010790D01*
X017002Y010753D01*
X016976Y010713D01*
X016953Y010672D01*
X016933Y010629D01*
X016917Y010584D01*
X016904Y010538D01*
X016895Y010492D01*
X016890Y010444D01*
X016888Y010397D01*
X016890Y010349D01*
X016896Y010302D01*
X013940Y006590D02*
X014110Y006420D01*
X013883Y006420D01*
X013940Y006250D02*
X013940Y006590D01*
X012789Y006009D02*
X012732Y006066D01*
X012619Y006066D01*
X012619Y005896D02*
X012675Y005896D01*
X012672Y005225D02*
X012785Y005225D01*
X012842Y005169D01*
X012672Y005225D02*
X012615Y005169D01*
X012615Y005112D01*
X012842Y004885D01*
X012615Y004885D01*
X012983Y004885D02*
X013210Y004885D01*
X013097Y004885D02*
X013097Y005225D01*
X013210Y005112D01*
X013352Y005169D02*
X013352Y004942D01*
X013408Y004885D01*
X013579Y004885D01*
X013579Y005225D01*
X013408Y005225D01*
X013352Y005169D01*
X013720Y005225D02*
X013947Y005225D01*
X013947Y004885D01*
X013720Y004885D01*
X013833Y005055D02*
X013947Y005055D01*
X014088Y004885D02*
X014315Y004885D01*
X014315Y005225D01*
X015042Y004446D02*
X015087Y004448D01*
X015133Y004453D01*
X015177Y004461D01*
X015221Y004473D01*
X015264Y004489D01*
X015306Y004507D01*
X015346Y004529D01*
X015384Y004553D01*
X015420Y004580D01*
X015455Y004610D01*
X015486Y004643D01*
X015516Y004678D01*
X015042Y004446D02*
X014997Y004448D01*
X014951Y004453D01*
X014907Y004461D01*
X014863Y004473D01*
X014820Y004489D01*
X014778Y004507D01*
X014738Y004529D01*
X014700Y004553D01*
X014664Y004580D01*
X014629Y004610D01*
X014598Y004643D01*
X014568Y004678D01*
X015042Y005646D02*
X015088Y005644D01*
X015134Y005639D01*
X015180Y005630D01*
X015225Y005618D01*
X015268Y005602D01*
X015310Y005583D01*
X015351Y005560D01*
X015390Y005535D01*
X015426Y005507D01*
X015461Y005476D01*
X015493Y005442D01*
X015522Y005406D01*
X015042Y005646D02*
X014995Y005644D01*
X014947Y005638D01*
X014901Y005629D01*
X014855Y005616D01*
X014811Y005600D01*
X014767Y005580D01*
X014726Y005556D01*
X014687Y005530D01*
X014650Y005500D01*
X014615Y005467D01*
X014583Y005432D01*
X014554Y005395D01*
X013819Y003587D02*
X013789Y003552D01*
X013758Y003519D01*
X013723Y003489D01*
X013687Y003462D01*
X013649Y003438D01*
X013609Y003416D01*
X013567Y003398D01*
X013524Y003382D01*
X013480Y003370D01*
X013436Y003362D01*
X013390Y003357D01*
X013345Y003355D01*
X013300Y003357D01*
X013254Y003362D01*
X013210Y003370D01*
X013166Y003382D01*
X013123Y003398D01*
X013081Y003416D01*
X013041Y003438D01*
X013003Y003462D01*
X012967Y003489D01*
X012932Y003519D01*
X012901Y003552D01*
X012871Y003587D01*
X013345Y004555D02*
X013391Y004553D01*
X013437Y004548D01*
X013483Y004539D01*
X013528Y004527D01*
X013571Y004511D01*
X013613Y004492D01*
X013654Y004469D01*
X013693Y004444D01*
X013729Y004416D01*
X013764Y004385D01*
X013796Y004351D01*
X013825Y004315D01*
X013345Y004555D02*
X013298Y004553D01*
X013250Y004547D01*
X013204Y004538D01*
X013158Y004525D01*
X013114Y004509D01*
X013070Y004489D01*
X013029Y004465D01*
X012990Y004439D01*
X012953Y004409D01*
X012918Y004376D01*
X012886Y004341D01*
X012857Y004304D01*
X007457Y016247D02*
X007502Y016249D01*
X007548Y016254D01*
X007592Y016262D01*
X007636Y016274D01*
X007679Y016290D01*
X007721Y016308D01*
X007761Y016330D01*
X007799Y016354D01*
X007835Y016381D01*
X007870Y016411D01*
X007901Y016444D01*
X007931Y016479D01*
X007457Y016247D02*
X007412Y016249D01*
X007366Y016254D01*
X007322Y016262D01*
X007278Y016274D01*
X007235Y016290D01*
X007193Y016308D01*
X007153Y016330D01*
X007115Y016354D01*
X007079Y016381D01*
X007044Y016411D01*
X007013Y016444D01*
X006983Y016479D01*
X007457Y017447D02*
X007503Y017445D01*
X007549Y017440D01*
X007595Y017431D01*
X007640Y017419D01*
X007683Y017403D01*
X007725Y017384D01*
X007766Y017361D01*
X007805Y017336D01*
X007841Y017308D01*
X007876Y017277D01*
X007908Y017243D01*
X007937Y017207D01*
X007457Y017447D02*
X007410Y017445D01*
X007362Y017439D01*
X007316Y017430D01*
X007270Y017417D01*
X007226Y017401D01*
X007182Y017381D01*
X007141Y017357D01*
X007102Y017331D01*
X007065Y017301D01*
X007030Y017268D01*
X006998Y017233D01*
X006969Y017196D01*
D12*
X007457Y017647D02*
X007511Y017645D01*
X007565Y017640D01*
X007618Y017631D01*
X007671Y017618D01*
X007722Y017602D01*
X007772Y017582D01*
X007821Y017559D01*
X007869Y017533D01*
X007914Y017504D01*
X007957Y017471D01*
X007998Y017436D01*
X008037Y017398D01*
X008073Y017358D01*
X008106Y017315D01*
X008136Y017270D01*
X008163Y017223D01*
X008152Y016450D02*
X008122Y016402D01*
X008089Y016357D01*
X008053Y016314D01*
X008015Y016273D01*
X007973Y016236D01*
X007929Y016201D01*
X007883Y016170D01*
X007834Y016141D01*
X007784Y016117D01*
X007732Y016096D01*
X007678Y016078D01*
X007624Y016065D01*
X007569Y016055D01*
X007513Y016049D01*
X007457Y016047D01*
X007404Y016049D01*
X007350Y016054D01*
X007298Y016063D01*
X007246Y016075D01*
X007195Y016091D01*
X007145Y016110D01*
X007096Y016133D01*
X007049Y016159D01*
X007004Y016187D01*
X006961Y016219D01*
X006921Y016253D01*
X006882Y016291D01*
X006846Y016330D01*
X006842Y017359D02*
X006878Y017399D01*
X006917Y017437D01*
X006958Y017472D01*
X007001Y017504D01*
X007046Y017534D01*
X007093Y017560D01*
X007142Y017582D01*
X007193Y017602D01*
X007244Y017618D01*
X007296Y017631D01*
X007350Y017640D01*
X007403Y017645D01*
X007457Y017647D01*
X006456Y015360D02*
X006426Y015312D01*
X006393Y015267D01*
X006357Y015224D01*
X006319Y015183D01*
X006277Y015146D01*
X006233Y015111D01*
X006187Y015080D01*
X006138Y015051D01*
X006088Y015027D01*
X006036Y015006D01*
X005982Y014988D01*
X005928Y014975D01*
X005873Y014965D01*
X005817Y014959D01*
X005761Y014957D01*
X005708Y014959D01*
X005654Y014964D01*
X005602Y014973D01*
X005550Y014985D01*
X005499Y015001D01*
X005449Y015020D01*
X005400Y015043D01*
X005353Y015069D01*
X005308Y015097D01*
X005265Y015129D01*
X005225Y015163D01*
X005186Y015201D01*
X005150Y015240D01*
X005760Y016557D02*
X005814Y016555D01*
X005868Y016550D01*
X005921Y016541D01*
X005974Y016528D01*
X006025Y016512D01*
X006075Y016492D01*
X006124Y016469D01*
X006172Y016443D01*
X006217Y016414D01*
X006260Y016381D01*
X006301Y016346D01*
X006340Y016308D01*
X006376Y016268D01*
X006409Y016225D01*
X006439Y016180D01*
X006466Y016133D01*
X005761Y016557D02*
X005707Y016555D01*
X005654Y016550D01*
X005600Y016541D01*
X005548Y016528D01*
X005497Y016512D01*
X005446Y016492D01*
X005397Y016470D01*
X005350Y016444D01*
X005305Y016414D01*
X005262Y016382D01*
X005221Y016347D01*
X005182Y016309D01*
X005146Y016269D01*
X005135Y013836D02*
X005105Y013788D01*
X005072Y013743D01*
X005036Y013700D01*
X004998Y013659D01*
X004956Y013622D01*
X004912Y013587D01*
X004866Y013556D01*
X004817Y013527D01*
X004767Y013503D01*
X004715Y013482D01*
X004661Y013464D01*
X004607Y013451D01*
X004552Y013441D01*
X004496Y013435D01*
X004440Y013433D01*
X004387Y013435D01*
X004333Y013440D01*
X004281Y013449D01*
X004229Y013461D01*
X004178Y013477D01*
X004128Y013496D01*
X004079Y013519D01*
X004032Y013545D01*
X003987Y013573D01*
X003944Y013605D01*
X003904Y013639D01*
X003865Y013677D01*
X003829Y013716D01*
X004440Y015033D02*
X004494Y015031D01*
X004548Y015026D01*
X004601Y015017D01*
X004654Y015004D01*
X004705Y014988D01*
X004755Y014968D01*
X004804Y014945D01*
X004852Y014919D01*
X004897Y014890D01*
X004940Y014857D01*
X004981Y014822D01*
X005020Y014784D01*
X005056Y014744D01*
X005089Y014701D01*
X005119Y014656D01*
X005146Y014609D01*
X004440Y015033D02*
X004386Y015031D01*
X004333Y015026D01*
X004279Y015017D01*
X004227Y015004D01*
X004176Y014988D01*
X004125Y014968D01*
X004076Y014946D01*
X004029Y014920D01*
X003984Y014890D01*
X003941Y014858D01*
X003900Y014823D01*
X003861Y014785D01*
X003825Y014745D01*
X004374Y012608D02*
X004387Y012554D01*
X004396Y012499D01*
X004401Y012443D01*
X004402Y012387D01*
X004399Y012331D01*
X004392Y012275D01*
X004382Y012220D01*
X004368Y012166D01*
X004349Y012113D01*
X004328Y012061D01*
X004302Y012011D01*
X004273Y011963D01*
X004241Y011917D01*
X004206Y011873D01*
X004168Y011832D01*
X004129Y011796D01*
X004087Y011762D01*
X004044Y011731D01*
X003998Y011703D01*
X003951Y011678D01*
X003902Y011656D01*
X003852Y011638D01*
X003801Y011623D01*
X003748Y011612D01*
X003696Y011603D01*
X003642Y011599D01*
X003589Y011598D01*
X003536Y011601D01*
X003036Y012964D02*
X003076Y013001D01*
X003118Y013035D01*
X003162Y013066D01*
X003208Y013094D01*
X003256Y013119D01*
X003305Y013141D01*
X003356Y013159D01*
X003408Y013174D01*
X003461Y013185D01*
X003514Y013193D01*
X003568Y013197D01*
X003622Y013198D01*
X003676Y013195D01*
X003730Y013188D01*
X003783Y013177D01*
X003835Y013163D01*
X003036Y012964D02*
X003000Y012924D01*
X002965Y012883D01*
X002934Y012839D01*
X002906Y012793D01*
X002881Y012745D01*
X002859Y012696D01*
X002841Y012645D01*
X002826Y012593D01*
X002815Y012540D01*
X002807Y012487D01*
X002803Y012433D01*
X002802Y012379D01*
X002805Y012326D01*
X002518Y010467D02*
X002515Y010414D01*
X002516Y010361D01*
X002520Y010307D01*
X002529Y010255D01*
X002540Y010202D01*
X002555Y010151D01*
X002573Y010101D01*
X002595Y010052D01*
X002620Y010005D01*
X002648Y009959D01*
X002679Y009916D01*
X002713Y009874D01*
X002749Y009835D01*
X002790Y009797D01*
X002834Y009762D01*
X002880Y009730D01*
X002928Y009701D01*
X002978Y009675D01*
X003030Y009654D01*
X003083Y009635D01*
X003137Y009621D01*
X003192Y009611D01*
X003248Y009604D01*
X003304Y009601D01*
X003360Y009602D01*
X003416Y009607D01*
X003471Y009616D01*
X003525Y009629D01*
X004080Y010168D02*
X004094Y010220D01*
X004105Y010273D01*
X004112Y010327D01*
X004115Y010381D01*
X004114Y010435D01*
X004110Y010489D01*
X004102Y010542D01*
X004091Y010595D01*
X004076Y010647D01*
X004058Y010698D01*
X004036Y010747D01*
X004011Y010795D01*
X003983Y010841D01*
X003952Y010885D01*
X003918Y010927D01*
X003881Y010967D01*
X003841Y011003D01*
X003800Y011038D01*
X003756Y011069D01*
X003710Y011097D01*
X003662Y011122D01*
X003613Y011144D01*
X003562Y011162D01*
X003510Y011177D01*
X003457Y011188D01*
X003404Y011196D01*
X003350Y011200D01*
X003296Y011201D01*
X003243Y011198D01*
X004297Y008008D02*
X004267Y007960D01*
X004234Y007915D01*
X004198Y007872D01*
X004160Y007831D01*
X004118Y007794D01*
X004074Y007759D01*
X004028Y007728D01*
X003979Y007699D01*
X003929Y007675D01*
X003877Y007654D01*
X003823Y007636D01*
X003769Y007623D01*
X003714Y007613D01*
X003658Y007607D01*
X003602Y007605D01*
X003549Y007607D01*
X003495Y007612D01*
X003443Y007621D01*
X003391Y007633D01*
X003340Y007649D01*
X003290Y007668D01*
X003241Y007691D01*
X003194Y007717D01*
X003149Y007745D01*
X003106Y007777D01*
X003066Y007811D01*
X003027Y007849D01*
X002991Y007888D01*
X003602Y009205D02*
X003656Y009203D01*
X003710Y009198D01*
X003763Y009189D01*
X003816Y009176D01*
X003867Y009160D01*
X003917Y009140D01*
X003966Y009117D01*
X004014Y009091D01*
X004059Y009062D01*
X004102Y009029D01*
X004143Y008994D01*
X004182Y008956D01*
X004218Y008916D01*
X004251Y008873D01*
X004281Y008828D01*
X004308Y008781D01*
X003602Y009205D02*
X003548Y009203D01*
X003495Y009198D01*
X003441Y009189D01*
X003389Y009176D01*
X003338Y009160D01*
X003287Y009140D01*
X003238Y009118D01*
X003191Y009092D01*
X003146Y009062D01*
X003103Y009030D01*
X003062Y008995D01*
X003023Y008957D01*
X002987Y008917D01*
X003829Y006053D02*
X003865Y006014D01*
X003904Y005976D01*
X003944Y005942D01*
X003987Y005910D01*
X004032Y005882D01*
X004079Y005856D01*
X004128Y005833D01*
X004178Y005814D01*
X004229Y005798D01*
X004281Y005786D01*
X004333Y005777D01*
X004387Y005772D01*
X004440Y005770D01*
X004496Y005772D01*
X004552Y005778D01*
X004607Y005788D01*
X004661Y005801D01*
X004715Y005819D01*
X004767Y005840D01*
X004817Y005864D01*
X004866Y005893D01*
X004912Y005924D01*
X004956Y005959D01*
X004998Y005996D01*
X005036Y006037D01*
X005072Y006080D01*
X005105Y006125D01*
X005135Y006173D01*
X004440Y007370D02*
X004386Y007368D01*
X004333Y007363D01*
X004279Y007354D01*
X004227Y007341D01*
X004176Y007325D01*
X004125Y007305D01*
X004076Y007283D01*
X004029Y007257D01*
X003984Y007227D01*
X003941Y007195D01*
X003900Y007160D01*
X003861Y007122D01*
X003825Y007082D01*
X004440Y007370D02*
X004494Y007368D01*
X004548Y007363D01*
X004601Y007354D01*
X004654Y007341D01*
X004705Y007325D01*
X004755Y007305D01*
X004804Y007282D01*
X004852Y007256D01*
X004897Y007227D01*
X004940Y007194D01*
X004981Y007159D01*
X005020Y007121D01*
X005056Y007081D01*
X005089Y007038D01*
X005119Y006993D01*
X005146Y006946D01*
X005150Y004529D02*
X005186Y004490D01*
X005225Y004452D01*
X005265Y004418D01*
X005308Y004386D01*
X005353Y004358D01*
X005400Y004332D01*
X005449Y004309D01*
X005499Y004290D01*
X005550Y004274D01*
X005602Y004262D01*
X005654Y004253D01*
X005708Y004248D01*
X005761Y004246D01*
X005817Y004248D01*
X005873Y004254D01*
X005928Y004264D01*
X005982Y004277D01*
X006036Y004295D01*
X006088Y004316D01*
X006138Y004340D01*
X006187Y004369D01*
X006233Y004400D01*
X006277Y004435D01*
X006319Y004472D01*
X006357Y004513D01*
X006393Y004556D01*
X006426Y004601D01*
X006456Y004649D01*
X005761Y005846D02*
X005707Y005844D01*
X005654Y005839D01*
X005600Y005830D01*
X005548Y005817D01*
X005497Y005801D01*
X005446Y005781D01*
X005397Y005759D01*
X005350Y005733D01*
X005305Y005703D01*
X005262Y005671D01*
X005221Y005636D01*
X005182Y005598D01*
X005146Y005558D01*
X005760Y005846D02*
X005814Y005844D01*
X005868Y005839D01*
X005921Y005830D01*
X005974Y005817D01*
X006025Y005801D01*
X006075Y005781D01*
X006124Y005758D01*
X006172Y005732D01*
X006217Y005703D01*
X006260Y005670D01*
X006301Y005635D01*
X006340Y005597D01*
X006376Y005557D01*
X006409Y005514D01*
X006439Y005469D01*
X006466Y005422D01*
X006846Y003438D02*
X006882Y003399D01*
X006921Y003361D01*
X006961Y003327D01*
X007004Y003295D01*
X007049Y003267D01*
X007096Y003241D01*
X007145Y003218D01*
X007195Y003199D01*
X007246Y003183D01*
X007298Y003171D01*
X007350Y003162D01*
X007404Y003157D01*
X007457Y003155D01*
X007513Y003157D01*
X007569Y003163D01*
X007624Y003173D01*
X007678Y003186D01*
X007732Y003204D01*
X007784Y003225D01*
X007834Y003249D01*
X007883Y003278D01*
X007929Y003309D01*
X007973Y003344D01*
X008015Y003381D01*
X008053Y003422D01*
X008089Y003465D01*
X008122Y003510D01*
X008152Y003558D01*
X007457Y004755D02*
X007403Y004753D01*
X007350Y004748D01*
X007296Y004739D01*
X007244Y004726D01*
X007193Y004710D01*
X007142Y004690D01*
X007093Y004668D01*
X007046Y004642D01*
X007001Y004612D01*
X006958Y004580D01*
X006917Y004545D01*
X006878Y004507D01*
X006842Y004467D01*
X007457Y004755D02*
X007511Y004753D01*
X007565Y004748D01*
X007618Y004739D01*
X007671Y004726D01*
X007722Y004710D01*
X007772Y004690D01*
X007821Y004667D01*
X007869Y004641D01*
X007914Y004612D01*
X007957Y004579D01*
X007998Y004544D01*
X008037Y004506D01*
X008073Y004466D01*
X008106Y004423D01*
X008136Y004378D01*
X008163Y004331D01*
X009393Y004187D02*
X009447Y004185D01*
X009501Y004180D01*
X009554Y004171D01*
X009607Y004158D01*
X009658Y004142D01*
X009708Y004122D01*
X009757Y004099D01*
X009805Y004073D01*
X009850Y004044D01*
X009893Y004011D01*
X009934Y003976D01*
X009973Y003938D01*
X010009Y003898D01*
X010042Y003855D01*
X010072Y003810D01*
X010099Y003763D01*
X010088Y002990D02*
X010058Y002942D01*
X010025Y002897D01*
X009989Y002854D01*
X009951Y002813D01*
X009909Y002776D01*
X009865Y002741D01*
X009819Y002710D01*
X009770Y002681D01*
X009720Y002657D01*
X009668Y002636D01*
X009614Y002618D01*
X009560Y002605D01*
X009505Y002595D01*
X009449Y002589D01*
X009393Y002587D01*
X009340Y002589D01*
X009286Y002594D01*
X009234Y002603D01*
X009182Y002615D01*
X009131Y002631D01*
X009081Y002650D01*
X009032Y002673D01*
X008985Y002699D01*
X008940Y002727D01*
X008897Y002759D01*
X008857Y002793D01*
X008818Y002831D01*
X008782Y002870D01*
X008778Y003899D02*
X008814Y003939D01*
X008853Y003977D01*
X008894Y004012D01*
X008937Y004044D01*
X008982Y004074D01*
X009029Y004100D01*
X009078Y004122D01*
X009129Y004142D01*
X009180Y004158D01*
X009232Y004171D01*
X009286Y004180D01*
X009339Y004185D01*
X009393Y004187D01*
X011410Y004187D02*
X011464Y004185D01*
X011518Y004180D01*
X011571Y004171D01*
X011624Y004158D01*
X011675Y004142D01*
X011725Y004122D01*
X011774Y004099D01*
X011822Y004073D01*
X011867Y004044D01*
X011910Y004011D01*
X011951Y003976D01*
X011990Y003938D01*
X012026Y003898D01*
X012059Y003855D01*
X012089Y003810D01*
X012116Y003763D01*
X012105Y002990D02*
X012075Y002942D01*
X012042Y002897D01*
X012006Y002854D01*
X011968Y002813D01*
X011926Y002776D01*
X011882Y002741D01*
X011836Y002710D01*
X011787Y002681D01*
X011737Y002657D01*
X011685Y002636D01*
X011631Y002618D01*
X011577Y002605D01*
X011522Y002595D01*
X011466Y002589D01*
X011410Y002587D01*
X011357Y002589D01*
X011303Y002594D01*
X011251Y002603D01*
X011199Y002615D01*
X011148Y002631D01*
X011098Y002650D01*
X011049Y002673D01*
X011002Y002699D01*
X010957Y002727D01*
X010914Y002759D01*
X010874Y002793D01*
X010835Y002831D01*
X010799Y002870D01*
X010795Y003899D02*
X010831Y003939D01*
X010870Y003977D01*
X010911Y004012D01*
X010954Y004044D01*
X010999Y004074D01*
X011046Y004100D01*
X011095Y004122D01*
X011146Y004142D01*
X011197Y004158D01*
X011249Y004171D01*
X011303Y004180D01*
X011356Y004185D01*
X011410Y004187D01*
X013345Y004755D02*
X013399Y004753D01*
X013453Y004748D01*
X013506Y004739D01*
X013559Y004726D01*
X013610Y004710D01*
X013660Y004690D01*
X013709Y004667D01*
X013757Y004641D01*
X013802Y004612D01*
X013845Y004579D01*
X013886Y004544D01*
X013925Y004506D01*
X013961Y004466D01*
X013994Y004423D01*
X014024Y004378D01*
X014051Y004331D01*
X014040Y003558D02*
X014010Y003510D01*
X013977Y003465D01*
X013941Y003422D01*
X013903Y003381D01*
X013861Y003344D01*
X013817Y003309D01*
X013771Y003278D01*
X013722Y003249D01*
X013672Y003225D01*
X013620Y003204D01*
X013566Y003186D01*
X013512Y003173D01*
X013457Y003163D01*
X013401Y003157D01*
X013345Y003155D01*
X013292Y003157D01*
X013238Y003162D01*
X013186Y003171D01*
X013134Y003183D01*
X013083Y003199D01*
X013033Y003218D01*
X012984Y003241D01*
X012937Y003267D01*
X012892Y003295D01*
X012849Y003327D01*
X012809Y003361D01*
X012770Y003399D01*
X012734Y003438D01*
X012730Y004467D02*
X012766Y004507D01*
X012805Y004545D01*
X012846Y004580D01*
X012889Y004612D01*
X012934Y004642D01*
X012981Y004668D01*
X013030Y004690D01*
X013081Y004710D01*
X013132Y004726D01*
X013184Y004739D01*
X013238Y004748D01*
X013291Y004753D01*
X013345Y004755D01*
X015042Y005846D02*
X015096Y005844D01*
X015150Y005839D01*
X015203Y005830D01*
X015256Y005817D01*
X015307Y005801D01*
X015357Y005781D01*
X015406Y005758D01*
X015454Y005732D01*
X015499Y005703D01*
X015542Y005670D01*
X015583Y005635D01*
X015622Y005597D01*
X015658Y005557D01*
X015691Y005514D01*
X015721Y005469D01*
X015748Y005422D01*
X015737Y004649D02*
X015707Y004601D01*
X015674Y004556D01*
X015638Y004513D01*
X015600Y004472D01*
X015558Y004435D01*
X015514Y004400D01*
X015468Y004369D01*
X015419Y004340D01*
X015369Y004316D01*
X015317Y004295D01*
X015263Y004277D01*
X015209Y004264D01*
X015154Y004254D01*
X015098Y004248D01*
X015042Y004246D01*
X014989Y004248D01*
X014935Y004253D01*
X014883Y004262D01*
X014831Y004274D01*
X014780Y004290D01*
X014730Y004309D01*
X014681Y004332D01*
X014634Y004358D01*
X014589Y004386D01*
X014546Y004418D01*
X014506Y004452D01*
X014467Y004490D01*
X014431Y004529D01*
X014427Y005558D02*
X014463Y005598D01*
X014502Y005636D01*
X014543Y005671D01*
X014586Y005703D01*
X014631Y005733D01*
X014678Y005759D01*
X014727Y005781D01*
X014778Y005801D01*
X014829Y005817D01*
X014881Y005830D01*
X014935Y005839D01*
X014988Y005844D01*
X015042Y005846D01*
X015752Y006053D02*
X015788Y006014D01*
X015827Y005976D01*
X015867Y005942D01*
X015910Y005910D01*
X015955Y005882D01*
X016002Y005856D01*
X016051Y005833D01*
X016101Y005814D01*
X016152Y005798D01*
X016204Y005786D01*
X016256Y005777D01*
X016310Y005772D01*
X016363Y005770D01*
X016419Y005772D01*
X016475Y005778D01*
X016530Y005788D01*
X016584Y005801D01*
X016638Y005819D01*
X016690Y005840D01*
X016740Y005864D01*
X016789Y005893D01*
X016835Y005924D01*
X016879Y005959D01*
X016921Y005996D01*
X016959Y006037D01*
X016995Y006080D01*
X017028Y006125D01*
X017058Y006173D01*
X016363Y007370D02*
X016309Y007368D01*
X016256Y007363D01*
X016202Y007354D01*
X016150Y007341D01*
X016099Y007325D01*
X016048Y007305D01*
X015999Y007283D01*
X015952Y007257D01*
X015907Y007227D01*
X015864Y007195D01*
X015823Y007160D01*
X015784Y007122D01*
X015748Y007082D01*
X016363Y007370D02*
X016417Y007368D01*
X016471Y007363D01*
X016524Y007354D01*
X016577Y007341D01*
X016628Y007325D01*
X016678Y007305D01*
X016727Y007282D01*
X016775Y007256D01*
X016820Y007227D01*
X016863Y007194D01*
X016904Y007159D01*
X016943Y007121D01*
X016979Y007081D01*
X017012Y007038D01*
X017042Y006993D01*
X017069Y006946D01*
X017201Y007605D02*
X017148Y007607D01*
X017094Y007612D01*
X017042Y007621D01*
X016990Y007633D01*
X016939Y007649D01*
X016889Y007668D01*
X016840Y007691D01*
X016793Y007717D01*
X016748Y007745D01*
X016705Y007777D01*
X016665Y007811D01*
X016626Y007849D01*
X016590Y007888D01*
X017201Y009205D02*
X017255Y009203D01*
X017309Y009198D01*
X017362Y009189D01*
X017415Y009176D01*
X017466Y009160D01*
X017516Y009140D01*
X017565Y009117D01*
X017613Y009091D01*
X017658Y009062D01*
X017701Y009029D01*
X017742Y008994D01*
X017781Y008956D01*
X017817Y008916D01*
X017850Y008873D01*
X017880Y008828D01*
X017907Y008781D01*
X017896Y008008D02*
X017866Y007960D01*
X017833Y007915D01*
X017797Y007872D01*
X017759Y007831D01*
X017717Y007794D01*
X017673Y007759D01*
X017627Y007728D01*
X017578Y007699D01*
X017528Y007675D01*
X017476Y007654D01*
X017422Y007636D01*
X017368Y007623D01*
X017313Y007613D01*
X017257Y007607D01*
X017201Y007605D01*
X016586Y008917D02*
X016622Y008957D01*
X016661Y008995D01*
X016702Y009030D01*
X016745Y009062D01*
X016790Y009092D01*
X016837Y009118D01*
X016886Y009140D01*
X016937Y009160D01*
X016988Y009176D01*
X017040Y009189D01*
X017094Y009198D01*
X017147Y009203D01*
X017201Y009205D01*
X016922Y010967D02*
X016962Y011004D01*
X017004Y011038D01*
X017048Y011069D01*
X017094Y011097D01*
X017142Y011122D01*
X017191Y011144D01*
X017242Y011162D01*
X017294Y011177D01*
X017347Y011188D01*
X017400Y011196D01*
X017454Y011200D01*
X017508Y011201D01*
X017562Y011198D01*
X017616Y011191D01*
X017669Y011180D01*
X017721Y011166D01*
X018260Y010611D02*
X018273Y010557D01*
X018282Y010502D01*
X018287Y010446D01*
X018288Y010390D01*
X018285Y010334D01*
X018278Y010278D01*
X018268Y010223D01*
X018254Y010169D01*
X018235Y010116D01*
X018214Y010064D01*
X018188Y010014D01*
X018159Y009966D01*
X018127Y009920D01*
X018092Y009876D01*
X018054Y009835D01*
X018015Y009799D01*
X017973Y009765D01*
X017930Y009734D01*
X017884Y009706D01*
X017837Y009681D01*
X017788Y009659D01*
X017738Y009641D01*
X017687Y009626D01*
X017634Y009615D01*
X017582Y009606D01*
X017528Y009602D01*
X017475Y009601D01*
X017422Y009604D01*
X016691Y010329D02*
X016688Y010382D01*
X016689Y010436D01*
X016693Y010490D01*
X016701Y010543D01*
X016712Y010596D01*
X016727Y010648D01*
X016745Y010699D01*
X016767Y010748D01*
X016792Y010796D01*
X016820Y010842D01*
X016851Y010886D01*
X016886Y010927D01*
X016922Y010967D01*
X017411Y011626D02*
X017357Y011613D01*
X017302Y011604D01*
X017246Y011599D01*
X017190Y011598D01*
X017134Y011601D01*
X017078Y011608D01*
X017023Y011618D01*
X016969Y011632D01*
X016916Y011651D01*
X016864Y011672D01*
X016814Y011698D01*
X016766Y011727D01*
X016720Y011759D01*
X016676Y011794D01*
X016635Y011832D01*
X016599Y011871D01*
X016565Y011913D01*
X016534Y011956D01*
X016506Y012002D01*
X016481Y012049D01*
X016459Y012098D01*
X016441Y012148D01*
X016426Y012199D01*
X016415Y012252D01*
X016406Y012304D01*
X016402Y012358D01*
X016401Y012411D01*
X016404Y012464D01*
X017767Y012964D02*
X017804Y012924D01*
X017838Y012882D01*
X017869Y012838D01*
X017897Y012792D01*
X017922Y012744D01*
X017944Y012695D01*
X017962Y012644D01*
X017977Y012592D01*
X017988Y012539D01*
X017996Y012486D01*
X018000Y012432D01*
X018001Y012378D01*
X017998Y012324D01*
X017991Y012270D01*
X017980Y012217D01*
X017966Y012165D01*
X017767Y012964D02*
X017727Y013000D01*
X017686Y013035D01*
X017642Y013066D01*
X017596Y013094D01*
X017548Y013119D01*
X017499Y013141D01*
X017448Y013159D01*
X017396Y013174D01*
X017343Y013185D01*
X017290Y013193D01*
X017236Y013197D01*
X017182Y013198D01*
X017129Y013195D01*
X017058Y013836D02*
X017028Y013788D01*
X016995Y013743D01*
X016959Y013700D01*
X016921Y013659D01*
X016879Y013622D01*
X016835Y013587D01*
X016789Y013556D01*
X016740Y013527D01*
X016690Y013503D01*
X016638Y013482D01*
X016584Y013464D01*
X016530Y013451D01*
X016475Y013441D01*
X016419Y013435D01*
X016363Y013433D01*
X016310Y013435D01*
X016256Y013440D01*
X016204Y013449D01*
X016152Y013461D01*
X016101Y013477D01*
X016051Y013496D01*
X016002Y013519D01*
X015955Y013545D01*
X015910Y013573D01*
X015867Y013605D01*
X015827Y013639D01*
X015788Y013677D01*
X015752Y013716D01*
X016363Y015033D02*
X016417Y015031D01*
X016471Y015026D01*
X016524Y015017D01*
X016577Y015004D01*
X016628Y014988D01*
X016678Y014968D01*
X016727Y014945D01*
X016775Y014919D01*
X016820Y014890D01*
X016863Y014857D01*
X016904Y014822D01*
X016943Y014784D01*
X016979Y014744D01*
X017012Y014701D01*
X017042Y014656D01*
X017069Y014609D01*
X016363Y015033D02*
X016309Y015031D01*
X016256Y015026D01*
X016202Y015017D01*
X016150Y015004D01*
X016099Y014988D01*
X016048Y014968D01*
X015999Y014946D01*
X015952Y014920D01*
X015907Y014890D01*
X015864Y014858D01*
X015823Y014823D01*
X015784Y014785D01*
X015748Y014745D01*
X015737Y015360D02*
X015707Y015312D01*
X015674Y015267D01*
X015638Y015224D01*
X015600Y015183D01*
X015558Y015146D01*
X015514Y015111D01*
X015468Y015080D01*
X015419Y015051D01*
X015369Y015027D01*
X015317Y015006D01*
X015263Y014988D01*
X015209Y014975D01*
X015154Y014965D01*
X015098Y014959D01*
X015042Y014957D01*
X014989Y014959D01*
X014935Y014964D01*
X014883Y014973D01*
X014831Y014985D01*
X014780Y015001D01*
X014730Y015020D01*
X014681Y015043D01*
X014634Y015069D01*
X014589Y015097D01*
X014546Y015129D01*
X014506Y015163D01*
X014467Y015201D01*
X014431Y015240D01*
X015042Y016557D02*
X015096Y016555D01*
X015150Y016550D01*
X015203Y016541D01*
X015256Y016528D01*
X015307Y016512D01*
X015357Y016492D01*
X015406Y016469D01*
X015454Y016443D01*
X015499Y016414D01*
X015542Y016381D01*
X015583Y016346D01*
X015622Y016308D01*
X015658Y016268D01*
X015691Y016225D01*
X015721Y016180D01*
X015748Y016133D01*
X015042Y016557D02*
X014988Y016555D01*
X014935Y016550D01*
X014881Y016541D01*
X014829Y016528D01*
X014778Y016512D01*
X014727Y016492D01*
X014678Y016470D01*
X014631Y016444D01*
X014586Y016414D01*
X014543Y016382D01*
X014502Y016347D01*
X014463Y016309D01*
X014427Y016269D01*
X014040Y016450D02*
X014010Y016402D01*
X013977Y016357D01*
X013941Y016314D01*
X013903Y016273D01*
X013861Y016236D01*
X013817Y016201D01*
X013771Y016170D01*
X013722Y016141D01*
X013672Y016117D01*
X013620Y016096D01*
X013566Y016078D01*
X013512Y016065D01*
X013457Y016055D01*
X013401Y016049D01*
X013345Y016047D01*
X013292Y016049D01*
X013238Y016054D01*
X013186Y016063D01*
X013134Y016075D01*
X013083Y016091D01*
X013033Y016110D01*
X012984Y016133D01*
X012937Y016159D01*
X012892Y016187D01*
X012849Y016219D01*
X012809Y016253D01*
X012770Y016291D01*
X012734Y016330D01*
X013345Y017647D02*
X013399Y017645D01*
X013453Y017640D01*
X013506Y017631D01*
X013559Y017618D01*
X013610Y017602D01*
X013660Y017582D01*
X013709Y017559D01*
X013757Y017533D01*
X013802Y017504D01*
X013845Y017471D01*
X013886Y017436D01*
X013925Y017398D01*
X013961Y017358D01*
X013994Y017315D01*
X014024Y017270D01*
X014051Y017223D01*
X013345Y017647D02*
X013291Y017645D01*
X013238Y017640D01*
X013184Y017631D01*
X013132Y017618D01*
X013081Y017602D01*
X013030Y017582D01*
X012981Y017560D01*
X012934Y017534D01*
X012889Y017504D01*
X012846Y017472D01*
X012805Y017437D01*
X012766Y017399D01*
X012730Y017359D01*
D13*
X010901Y017101D02*
X010901Y017001D01*
X009901Y017001D01*
X009901Y017101D01*
X009951Y014801D02*
X009951Y014701D01*
X009951Y014801D02*
X010901Y014801D01*
X010901Y014701D01*
D14*
X007901Y006271D02*
X007651Y006271D01*
X007401Y006271D01*
X007401Y006021D02*
X007651Y006021D01*
X007901Y006021D01*
M02*
