%
M48
M72
T01C0.0197
T02C0.0320
T03C0.0400
T04C0.0472
T05C0.0945
%
T01
X10776Y13276
X15651Y14651
X10526Y6526
X9651Y3151
X13151Y2151
T02
X19151Y1651
X19151Y2651
X19151Y3651
X19151Y4651
X19151Y7651
X17151Y7651
X16151Y4651
X16151Y3651
X16151Y2651
X16151Y1651
X3526Y3401
X4526Y3401
X4901Y4526
X5901Y4526
X6401Y5401
X7401Y5401
X7776Y6526
X8776Y6526
X9151Y7526
X10151Y7526
X10526Y8526
X11526Y8526
X12026Y9526
X13026Y9526
X13651Y10776
X14651Y10776
X15276Y12026
X16276Y12026
X16401Y13401
X17401Y13401
X17151Y15151
X16151Y15151
X15901Y16401
X14901Y16401
X14026Y17026
X13026Y17026
X12276Y16526
X11276Y16526
X10776Y15401
X9776Y15401
X9151Y14151
X8151Y14151
T03
X1761Y8931
X3541Y8931
X3541Y6371
X1761Y6371
T04
X8161Y19256
X12641Y19256
T05
X2651Y18151
X18151Y18151
M30
