G75*
G70*
%OFA0B0*%
%FSLAX24Y24*%
%IPPOS*%
%LPD*%
%AMOC8*
5,1,8,0,0,1.08239X$1,22.5*
%
%ADD10C,0.0000*%
%ADD11OC8,0.0520*%
%ADD12C,0.0520*%
%ADD13C,0.0600*%
%ADD14C,0.0709*%
%ADD15C,0.0120*%
%ADD16C,0.0100*%
%ADD17C,0.0357*%
D10*
X000559Y001809D02*
X000559Y018994D01*
X000561Y019062D01*
X000566Y019129D01*
X000575Y019196D01*
X000588Y019263D01*
X000605Y019328D01*
X000624Y019393D01*
X000648Y019457D01*
X000675Y019519D01*
X000705Y019580D01*
X000738Y019638D01*
X000774Y019695D01*
X000814Y019750D01*
X000856Y019803D01*
X000902Y019854D01*
X000949Y019901D01*
X001000Y019947D01*
X001053Y019989D01*
X001108Y020029D01*
X001165Y020065D01*
X001223Y020098D01*
X001284Y020128D01*
X001346Y020155D01*
X001410Y020179D01*
X001475Y020198D01*
X001540Y020215D01*
X001607Y020228D01*
X001674Y020237D01*
X001741Y020242D01*
X001809Y020244D01*
X018994Y020244D01*
X019062Y020242D01*
X019129Y020237D01*
X019196Y020228D01*
X019263Y020215D01*
X019328Y020198D01*
X019393Y020179D01*
X019457Y020155D01*
X019519Y020128D01*
X019580Y020098D01*
X019638Y020065D01*
X019695Y020029D01*
X019750Y019989D01*
X019803Y019947D01*
X019854Y019901D01*
X019901Y019854D01*
X019947Y019803D01*
X019989Y019750D01*
X020029Y019695D01*
X020065Y019638D01*
X020098Y019580D01*
X020128Y019519D01*
X020155Y019457D01*
X020179Y019393D01*
X020198Y019328D01*
X020215Y019263D01*
X020228Y019196D01*
X020237Y019129D01*
X020242Y019062D01*
X020244Y018994D01*
X020244Y001809D01*
X020242Y001741D01*
X020237Y001674D01*
X020228Y001607D01*
X020215Y001540D01*
X020198Y001475D01*
X020179Y001410D01*
X020155Y001346D01*
X020128Y001284D01*
X020098Y001223D01*
X020065Y001165D01*
X020029Y001108D01*
X019989Y001053D01*
X019947Y001000D01*
X019901Y000949D01*
X019854Y000902D01*
X019803Y000856D01*
X019750Y000814D01*
X019695Y000774D01*
X019638Y000738D01*
X019580Y000705D01*
X019519Y000675D01*
X019457Y000648D01*
X019393Y000624D01*
X019328Y000605D01*
X019263Y000588D01*
X019196Y000575D01*
X019129Y000566D01*
X019062Y000561D01*
X018994Y000559D01*
X001809Y000559D01*
X001741Y000561D01*
X001674Y000566D01*
X001607Y000575D01*
X001540Y000588D01*
X001475Y000605D01*
X001410Y000624D01*
X001346Y000648D01*
X001284Y000675D01*
X001223Y000705D01*
X001165Y000738D01*
X001108Y000774D01*
X001053Y000814D01*
X001000Y000856D01*
X000949Y000902D01*
X000902Y000949D01*
X000856Y001000D01*
X000814Y001053D01*
X000774Y001108D01*
X000738Y001165D01*
X000705Y001223D01*
X000675Y001284D01*
X000648Y001346D01*
X000624Y001410D01*
X000605Y001475D01*
X000588Y001540D01*
X000575Y001607D01*
X000566Y001674D01*
X000561Y001741D01*
X000559Y001809D01*
X002179Y018151D02*
X002181Y018194D01*
X002187Y018236D01*
X002197Y018278D01*
X002210Y018319D01*
X002227Y018359D01*
X002248Y018396D01*
X002272Y018432D01*
X002299Y018465D01*
X002329Y018496D01*
X002362Y018524D01*
X002397Y018549D01*
X002434Y018570D01*
X002473Y018588D01*
X002513Y018602D01*
X002555Y018613D01*
X002597Y018620D01*
X002640Y018623D01*
X002683Y018622D01*
X002726Y018617D01*
X002768Y018608D01*
X002809Y018596D01*
X002849Y018580D01*
X002887Y018560D01*
X002923Y018537D01*
X002957Y018510D01*
X002989Y018481D01*
X003017Y018449D01*
X003043Y018414D01*
X003065Y018378D01*
X003084Y018339D01*
X003099Y018299D01*
X003111Y018258D01*
X003119Y018215D01*
X003123Y018172D01*
X003123Y018130D01*
X003119Y018087D01*
X003111Y018044D01*
X003099Y018003D01*
X003084Y017963D01*
X003065Y017924D01*
X003043Y017888D01*
X003017Y017853D01*
X002989Y017821D01*
X002957Y017792D01*
X002923Y017765D01*
X002887Y017742D01*
X002849Y017722D01*
X002809Y017706D01*
X002768Y017694D01*
X002726Y017685D01*
X002683Y017680D01*
X002640Y017679D01*
X002597Y017682D01*
X002555Y017689D01*
X002513Y017700D01*
X002473Y017714D01*
X002434Y017732D01*
X002397Y017753D01*
X002362Y017778D01*
X002329Y017806D01*
X002299Y017837D01*
X002272Y017870D01*
X002248Y017906D01*
X002227Y017943D01*
X002210Y017983D01*
X002197Y018024D01*
X002187Y018066D01*
X002181Y018108D01*
X002179Y018151D01*
X017679Y018151D02*
X017681Y018194D01*
X017687Y018236D01*
X017697Y018278D01*
X017710Y018319D01*
X017727Y018359D01*
X017748Y018396D01*
X017772Y018432D01*
X017799Y018465D01*
X017829Y018496D01*
X017862Y018524D01*
X017897Y018549D01*
X017934Y018570D01*
X017973Y018588D01*
X018013Y018602D01*
X018055Y018613D01*
X018097Y018620D01*
X018140Y018623D01*
X018183Y018622D01*
X018226Y018617D01*
X018268Y018608D01*
X018309Y018596D01*
X018349Y018580D01*
X018387Y018560D01*
X018423Y018537D01*
X018457Y018510D01*
X018489Y018481D01*
X018517Y018449D01*
X018543Y018414D01*
X018565Y018378D01*
X018584Y018339D01*
X018599Y018299D01*
X018611Y018258D01*
X018619Y018215D01*
X018623Y018172D01*
X018623Y018130D01*
X018619Y018087D01*
X018611Y018044D01*
X018599Y018003D01*
X018584Y017963D01*
X018565Y017924D01*
X018543Y017888D01*
X018517Y017853D01*
X018489Y017821D01*
X018457Y017792D01*
X018423Y017765D01*
X018387Y017742D01*
X018349Y017722D01*
X018309Y017706D01*
X018268Y017694D01*
X018226Y017685D01*
X018183Y017680D01*
X018140Y017679D01*
X018097Y017682D01*
X018055Y017689D01*
X018013Y017700D01*
X017973Y017714D01*
X017934Y017732D01*
X017897Y017753D01*
X017862Y017778D01*
X017829Y017806D01*
X017799Y017837D01*
X017772Y017870D01*
X017748Y017906D01*
X017727Y017943D01*
X017710Y017983D01*
X017697Y018024D01*
X017687Y018066D01*
X017681Y018108D01*
X017679Y018151D01*
D11*
X015901Y016401D03*
X014901Y016401D03*
X014026Y017026D03*
X013026Y017026D03*
X012276Y016526D03*
X011276Y016526D03*
X010776Y015401D03*
X009776Y015401D03*
X009151Y014151D03*
X008151Y014151D03*
X012026Y009526D03*
X013026Y009526D03*
X013651Y010776D03*
X014651Y010776D03*
X015276Y012026D03*
X016276Y012026D03*
X016401Y013401D03*
X017401Y013401D03*
X017151Y015151D03*
X016151Y015151D03*
X011526Y008526D03*
X010526Y008526D03*
X010151Y007526D03*
X009151Y007526D03*
X008776Y006526D03*
X007776Y006526D03*
X007401Y005401D03*
X006401Y005401D03*
X005901Y004526D03*
X004901Y004526D03*
X004526Y003401D03*
X003526Y003401D03*
X017151Y007651D03*
X019151Y007651D03*
D12*
X018891Y004651D02*
X019411Y004651D01*
X019411Y003651D02*
X018891Y003651D01*
X018891Y002651D02*
X019411Y002651D01*
X019411Y001651D02*
X018891Y001651D01*
X016411Y001651D02*
X015891Y001651D01*
X015891Y002651D02*
X016411Y002651D01*
X016411Y003651D02*
X015891Y003651D01*
X015891Y004651D02*
X016411Y004651D01*
D13*
X003541Y006071D02*
X003541Y006671D01*
X001761Y006671D02*
X001761Y006071D01*
X001761Y008631D02*
X001761Y009231D01*
X003541Y009231D02*
X003541Y008631D01*
D14*
X008161Y019256D03*
X012641Y019256D03*
D15*
X005551Y001681D02*
X005061Y001681D01*
X005061Y001321D01*
X005311Y001441D01*
X005441Y001441D01*
X005551Y001331D01*
X005551Y001321D02*
X005551Y001081D01*
X005431Y000961D01*
X005181Y000961D01*
X005061Y001081D01*
X004774Y000961D02*
X004289Y000961D01*
X004534Y000969D02*
X004534Y001674D01*
X004534Y001681D02*
X004291Y001439D01*
X003981Y001561D02*
X003981Y001081D01*
X003861Y000961D01*
X003621Y000961D01*
X003501Y001081D01*
X003971Y001561D01*
X003981Y001561D02*
X003861Y001681D01*
X003621Y001681D01*
X003501Y001561D01*
X003501Y001081D01*
X003191Y000961D02*
X002701Y000961D01*
X003191Y001441D01*
X003191Y001561D01*
X003191Y001571D02*
X003071Y001691D01*
X002831Y001691D01*
X002701Y001561D01*
X002321Y001581D02*
X002201Y001701D01*
X001961Y001701D01*
X001841Y001581D01*
X001841Y001701D01*
X001471Y001701D01*
X001351Y001581D01*
X001351Y001331D01*
X001471Y001211D01*
X001591Y001211D01*
X001351Y000961D01*
X001591Y001211D02*
X001841Y001211D01*
X001841Y001581D01*
X002081Y001331D02*
X002331Y001331D01*
X002331Y001091D01*
X002211Y000961D01*
X001961Y000961D01*
X001841Y001081D01*
X001841Y000961D01*
X001841Y001081D02*
X001841Y001211D01*
D16*
X001001Y001304D02*
X000922Y001441D01*
X000857Y001683D01*
X000849Y001809D01*
X000849Y018994D01*
X000857Y019119D01*
X000922Y019361D01*
X001047Y019578D01*
X001224Y019755D01*
X001441Y019881D01*
X001683Y019946D01*
X001809Y019954D01*
X001866Y019954D01*
X018936Y019954D01*
X018994Y019954D01*
X019119Y019946D01*
X019361Y019881D01*
X019578Y019755D01*
X019755Y019578D01*
X019881Y019361D01*
X019946Y019119D01*
X019954Y018994D01*
X019954Y004779D01*
X019877Y004963D01*
X019723Y005117D01*
X019521Y005201D01*
X018782Y005201D01*
X018580Y005117D01*
X018425Y004963D01*
X018341Y004761D01*
X018341Y004542D01*
X018425Y004340D01*
X018580Y004185D01*
X018661Y004151D01*
X018580Y004117D01*
X018425Y003963D01*
X018341Y003761D01*
X018341Y003542D01*
X018425Y003340D01*
X018580Y003185D01*
X018661Y003151D01*
X018580Y003117D01*
X018453Y002991D01*
X017792Y002991D01*
X017439Y003344D01*
X017344Y003439D01*
X017219Y003491D01*
X016940Y003491D01*
X016961Y003542D01*
X016961Y003761D01*
X016877Y003963D01*
X016723Y004117D01*
X016641Y004151D01*
X016723Y004185D01*
X016877Y004340D01*
X016961Y004542D01*
X016961Y004761D01*
X016877Y004963D01*
X016723Y005117D01*
X016521Y005201D01*
X015782Y005201D01*
X015580Y005117D01*
X015425Y004963D01*
X015341Y004761D01*
X015341Y004542D01*
X015425Y004340D01*
X015580Y004185D01*
X015661Y004151D01*
X015580Y004117D01*
X015453Y003991D01*
X012292Y003991D01*
X010882Y005401D01*
X013219Y007738D01*
X013314Y007834D01*
X013366Y007959D01*
X013366Y009088D01*
X013576Y009298D01*
X013576Y009754D01*
X013519Y009811D01*
X013959Y009811D01*
X014094Y009811D01*
X014219Y009863D01*
X014582Y010226D01*
X014879Y010226D01*
X015201Y010548D01*
X015201Y011004D01*
X014879Y011326D01*
X014423Y011326D01*
X014151Y011054D01*
X013991Y011214D01*
X013991Y012010D01*
X014292Y012311D01*
X014784Y012311D01*
X014726Y012254D01*
X014726Y011798D01*
X015048Y011476D01*
X015504Y011476D01*
X015776Y011748D01*
X016048Y011476D01*
X016504Y011476D01*
X016714Y011686D01*
X017959Y011686D01*
X018094Y011686D01*
X018219Y011738D01*
X018939Y012459D01*
X018991Y012584D01*
X018991Y012719D01*
X018991Y015219D01*
X018939Y015344D01*
X018844Y015439D01*
X016969Y017314D01*
X016844Y017366D01*
X016709Y017366D01*
X014464Y017366D01*
X014254Y017576D01*
X013798Y017576D01*
X013526Y017304D01*
X013254Y017576D01*
X012798Y017576D01*
X012476Y017254D01*
X012476Y017076D01*
X012048Y017076D01*
X011776Y016804D01*
X011504Y017076D01*
X011048Y017076D01*
X010726Y016754D01*
X010726Y016298D01*
X011048Y015976D01*
X011504Y015976D01*
X011776Y016248D01*
X011936Y016088D01*
X011936Y015094D01*
X011936Y014959D01*
X011988Y014834D01*
X012670Y014151D01*
X011238Y012719D01*
X011186Y012594D01*
X011186Y012459D01*
X011186Y008964D01*
X011026Y008804D01*
X010754Y009076D01*
X010298Y009076D01*
X009976Y008754D01*
X009976Y008366D01*
X008209Y008366D01*
X008084Y008314D01*
X007988Y008219D01*
X007488Y007719D01*
X007436Y007594D01*
X007436Y007459D01*
X007436Y006964D01*
X007226Y006754D01*
X007226Y006298D01*
X007548Y005976D01*
X008004Y005976D01*
X008276Y006248D01*
X008548Y005976D01*
X009004Y005976D01*
X009214Y006186D01*
X010204Y006186D01*
X010261Y006129D01*
X010433Y006058D01*
X010577Y006058D01*
X010260Y005741D01*
X007839Y005741D01*
X007629Y005951D01*
X007173Y005951D01*
X006901Y005679D01*
X006629Y005951D01*
X006173Y005951D01*
X005851Y005629D01*
X005851Y005173D01*
X005949Y005076D01*
X005673Y005076D01*
X005401Y004804D01*
X005129Y005076D01*
X004673Y005076D01*
X004351Y004754D01*
X004351Y004298D01*
X004673Y003976D01*
X005129Y003976D01*
X005401Y004248D01*
X005673Y003976D01*
X005970Y003976D01*
X007584Y002363D01*
X007709Y002311D01*
X007844Y002311D01*
X012711Y002311D01*
X012683Y002244D01*
X012683Y002058D01*
X012754Y001886D01*
X012886Y001754D01*
X013058Y001683D01*
X013244Y001683D01*
X013417Y001754D01*
X013474Y001811D01*
X015407Y001811D01*
X015394Y001771D01*
X015381Y001691D01*
X015381Y001681D01*
X016121Y001681D01*
X016121Y001621D01*
X016181Y001621D01*
X016181Y001141D01*
X016451Y001141D01*
X016531Y001154D01*
X016607Y001179D01*
X016679Y001215D01*
X016743Y001262D01*
X016800Y001319D01*
X016847Y001384D01*
X016884Y001455D01*
X016909Y001532D01*
X016921Y001611D01*
X016921Y001621D01*
X016181Y001621D01*
X016181Y001681D01*
X016921Y001681D01*
X016921Y001691D01*
X016909Y001771D01*
X016895Y001811D01*
X017010Y001811D01*
X017459Y001363D01*
X017584Y001311D01*
X017719Y001311D01*
X018453Y001311D01*
X018580Y001185D01*
X018782Y001101D01*
X019521Y001101D01*
X019711Y001180D01*
X019578Y001047D01*
X019361Y000922D01*
X019119Y000857D01*
X018994Y000849D01*
X005814Y000849D01*
X005848Y000883D01*
X005901Y001012D01*
X005901Y001151D01*
X005901Y001391D01*
X005901Y001401D01*
X005858Y001506D01*
X005901Y001612D01*
X005901Y001751D01*
X005848Y001879D01*
X005749Y001978D01*
X005621Y002031D01*
X005131Y002031D01*
X004992Y002031D01*
X004863Y001978D01*
X004797Y001912D01*
X004732Y001978D01*
X004603Y002031D01*
X004464Y002031D01*
X004335Y001978D01*
X004197Y001840D01*
X004158Y001879D01*
X004059Y001978D01*
X003931Y002031D01*
X003691Y002031D01*
X003552Y002031D01*
X003423Y001978D01*
X003351Y001906D01*
X003269Y001988D01*
X003141Y002041D01*
X003002Y002041D01*
X002762Y002041D01*
X002633Y001988D01*
X002535Y001889D01*
X002521Y001876D01*
X002399Y001998D01*
X002271Y002051D01*
X002132Y002051D01*
X001911Y002051D01*
X001541Y002051D01*
X001402Y002051D01*
X001273Y001998D01*
X001153Y001878D01*
X001055Y001779D01*
X001001Y001651D01*
X001001Y001401D01*
X001001Y001304D01*
X001001Y001335D02*
X000983Y001335D01*
X001001Y001434D02*
X000926Y001434D01*
X000897Y001532D02*
X001001Y001532D01*
X001001Y001631D02*
X000871Y001631D01*
X000854Y001729D02*
X001034Y001729D01*
X001103Y001828D02*
X000849Y001828D01*
X000849Y001927D02*
X001202Y001927D01*
X001339Y002025D02*
X000849Y002025D01*
X000849Y002124D02*
X012683Y002124D01*
X012683Y002222D02*
X000849Y002222D01*
X000849Y002321D02*
X007686Y002321D01*
X007527Y002419D02*
X000849Y002419D01*
X000849Y002518D02*
X007429Y002518D01*
X007330Y002616D02*
X000849Y002616D01*
X000849Y002715D02*
X007232Y002715D01*
X007133Y002813D02*
X000849Y002813D01*
X000849Y002912D02*
X003238Y002912D01*
X003298Y002851D02*
X002976Y003173D01*
X002976Y003629D01*
X003298Y003951D01*
X003754Y003951D01*
X004026Y003679D01*
X004298Y003951D01*
X004754Y003951D01*
X005076Y003629D01*
X005076Y003173D01*
X004754Y002851D01*
X004298Y002851D01*
X004026Y003123D01*
X003754Y002851D01*
X003298Y002851D01*
X003139Y003011D02*
X000849Y003011D01*
X000849Y003109D02*
X003041Y003109D01*
X002976Y003208D02*
X000849Y003208D01*
X000849Y003306D02*
X002976Y003306D01*
X002976Y003405D02*
X000849Y003405D01*
X000849Y003503D02*
X002976Y003503D01*
X002976Y003602D02*
X000849Y003602D01*
X000849Y003700D02*
X003048Y003700D01*
X003146Y003799D02*
X000849Y003799D01*
X000849Y003897D02*
X003245Y003897D01*
X003808Y003897D02*
X004245Y003897D01*
X004146Y003799D02*
X003906Y003799D01*
X004005Y003700D02*
X004048Y003700D01*
X004555Y004094D02*
X000849Y004094D01*
X000849Y003996D02*
X004654Y003996D01*
X004808Y003897D02*
X006049Y003897D01*
X006148Y003799D02*
X004906Y003799D01*
X005005Y003700D02*
X006246Y003700D01*
X006345Y003602D02*
X005076Y003602D01*
X005076Y003503D02*
X006443Y003503D01*
X006542Y003405D02*
X005076Y003405D01*
X005076Y003306D02*
X006641Y003306D01*
X006739Y003208D02*
X005076Y003208D01*
X005012Y003109D02*
X006838Y003109D01*
X006936Y003011D02*
X004913Y003011D01*
X004815Y002912D02*
X007035Y002912D01*
X007776Y002651D02*
X005901Y004526D01*
X005480Y004883D02*
X005322Y004883D01*
X005224Y004981D02*
X005579Y004981D01*
X005851Y005178D02*
X000849Y005178D01*
X000849Y005080D02*
X005945Y005080D01*
X005851Y005277D02*
X000849Y005277D01*
X000849Y005376D02*
X005851Y005376D01*
X005851Y005474D02*
X000849Y005474D01*
X000849Y005573D02*
X001425Y005573D01*
X001427Y005571D02*
X001644Y005481D01*
X001879Y005481D01*
X002095Y005571D01*
X002261Y005737D01*
X002351Y005954D01*
X002351Y006789D01*
X002261Y007005D01*
X002095Y007171D01*
X001879Y007261D01*
X001644Y007261D01*
X001427Y007171D01*
X001261Y007005D01*
X001171Y006789D01*
X001171Y005954D01*
X001261Y005737D01*
X001427Y005571D01*
X001327Y005671D02*
X000849Y005671D01*
X000849Y005770D02*
X001248Y005770D01*
X001207Y005868D02*
X000849Y005868D01*
X000849Y005967D02*
X001171Y005967D01*
X001171Y006065D02*
X000849Y006065D01*
X000849Y006164D02*
X001171Y006164D01*
X001171Y006262D02*
X000849Y006262D01*
X000849Y006361D02*
X001171Y006361D01*
X001171Y006460D02*
X000849Y006460D01*
X000849Y006558D02*
X001171Y006558D01*
X001171Y006657D02*
X000849Y006657D01*
X000849Y006755D02*
X001171Y006755D01*
X001198Y006854D02*
X000849Y006854D01*
X000849Y006952D02*
X001239Y006952D01*
X001306Y007051D02*
X000849Y007051D01*
X000849Y007149D02*
X001405Y007149D01*
X001612Y007248D02*
X000849Y007248D01*
X000849Y007346D02*
X007436Y007346D01*
X007436Y007248D02*
X001911Y007248D01*
X002118Y007149D02*
X003268Y007149D01*
X003253Y007142D02*
X003183Y007091D01*
X003122Y007030D01*
X003071Y006959D01*
X003032Y006882D01*
X003005Y006800D01*
X002991Y006715D01*
X002991Y006421D01*
X003491Y006421D01*
X003491Y006321D01*
X002991Y006321D01*
X002991Y006028D01*
X003005Y005942D01*
X003032Y005860D01*
X003071Y005783D01*
X003122Y005713D01*
X003183Y005652D01*
X003253Y005601D01*
X003330Y005562D01*
X003412Y005535D01*
X003491Y005522D01*
X003491Y006321D01*
X003591Y006321D01*
X003591Y005522D01*
X003670Y005535D01*
X003752Y005562D01*
X003829Y005601D01*
X003900Y005652D01*
X003961Y005713D01*
X004012Y005783D01*
X004051Y005860D01*
X004078Y005942D01*
X004091Y006028D01*
X004091Y006321D01*
X003591Y006321D01*
X003591Y006421D01*
X003491Y006421D01*
X003491Y007220D01*
X003412Y007208D01*
X003330Y007181D01*
X003253Y007142D01*
X003143Y007051D02*
X002216Y007051D01*
X002283Y006952D02*
X003067Y006952D01*
X003022Y006854D02*
X002324Y006854D01*
X002351Y006755D02*
X002998Y006755D01*
X002991Y006657D02*
X002351Y006657D01*
X002351Y006558D02*
X002991Y006558D01*
X002991Y006460D02*
X002351Y006460D01*
X002351Y006361D02*
X003491Y006361D01*
X003491Y006262D02*
X003591Y006262D01*
X003591Y006164D02*
X003491Y006164D01*
X003491Y006065D02*
X003591Y006065D01*
X003591Y005967D02*
X003491Y005967D01*
X003491Y005868D02*
X003591Y005868D01*
X003591Y005770D02*
X003491Y005770D01*
X003491Y005671D02*
X003591Y005671D01*
X003591Y005573D02*
X003491Y005573D01*
X003308Y005573D02*
X002097Y005573D01*
X002196Y005671D02*
X003164Y005671D01*
X003080Y005770D02*
X002275Y005770D01*
X002316Y005868D02*
X003029Y005868D01*
X003001Y005967D02*
X002351Y005967D01*
X002351Y006065D02*
X002991Y006065D01*
X002991Y006164D02*
X002351Y006164D01*
X002351Y006262D02*
X002991Y006262D01*
X003491Y006460D02*
X003591Y006460D01*
X003591Y006421D02*
X003591Y007220D01*
X003670Y007208D01*
X003752Y007181D01*
X003829Y007142D01*
X003900Y007091D01*
X003961Y007030D01*
X004012Y006959D01*
X004051Y006882D01*
X004078Y006800D01*
X004091Y006715D01*
X004091Y006421D01*
X003591Y006421D01*
X003591Y006361D02*
X007226Y006361D01*
X007226Y006460D02*
X004091Y006460D01*
X004091Y006558D02*
X007226Y006558D01*
X007226Y006657D02*
X004091Y006657D01*
X004085Y006755D02*
X007227Y006755D01*
X007326Y006854D02*
X004060Y006854D01*
X004015Y006952D02*
X007424Y006952D01*
X007436Y007051D02*
X003939Y007051D01*
X003814Y007149D02*
X007436Y007149D01*
X007436Y007445D02*
X000849Y007445D01*
X000849Y007544D02*
X007436Y007544D01*
X007456Y007642D02*
X000849Y007642D01*
X000849Y007741D02*
X007510Y007741D01*
X007608Y007839D02*
X000849Y007839D01*
X000849Y007938D02*
X007707Y007938D01*
X007805Y008036D02*
X000849Y008036D01*
X000849Y008135D02*
X001423Y008135D01*
X001427Y008131D02*
X001644Y008041D01*
X001879Y008041D01*
X002095Y008131D01*
X002261Y008297D01*
X002351Y008514D01*
X002351Y009349D01*
X002261Y009565D01*
X002095Y009731D01*
X001879Y009821D01*
X001644Y009821D01*
X001427Y009731D01*
X001261Y009565D01*
X001171Y009349D01*
X001171Y008514D01*
X001261Y008297D01*
X001427Y008131D01*
X001325Y008233D02*
X000849Y008233D01*
X000849Y008332D02*
X001247Y008332D01*
X001206Y008430D02*
X000849Y008430D01*
X000849Y008529D02*
X001171Y008529D01*
X001171Y008627D02*
X000849Y008627D01*
X000849Y008726D02*
X001171Y008726D01*
X001171Y008825D02*
X000849Y008825D01*
X000849Y008923D02*
X001171Y008923D01*
X001171Y009022D02*
X000849Y009022D01*
X000849Y009120D02*
X001171Y009120D01*
X001171Y009219D02*
X000849Y009219D01*
X000849Y009317D02*
X001171Y009317D01*
X001199Y009416D02*
X000849Y009416D01*
X000849Y009514D02*
X001240Y009514D01*
X001309Y009613D02*
X000849Y009613D01*
X000849Y009711D02*
X001407Y009711D01*
X001617Y009810D02*
X000849Y009810D01*
X000849Y009909D02*
X011186Y009909D01*
X011186Y010007D02*
X000849Y010007D01*
X000849Y010106D02*
X011186Y010106D01*
X011186Y010204D02*
X000849Y010204D01*
X000849Y010303D02*
X011186Y010303D01*
X011186Y010401D02*
X000849Y010401D01*
X000849Y010500D02*
X011186Y010500D01*
X011186Y010598D02*
X000849Y010598D01*
X000849Y010697D02*
X011186Y010697D01*
X011186Y010795D02*
X000849Y010795D01*
X000849Y010894D02*
X011186Y010894D01*
X011186Y010993D02*
X000849Y010993D01*
X000849Y011091D02*
X011186Y011091D01*
X011186Y011190D02*
X000849Y011190D01*
X000849Y011288D02*
X011186Y011288D01*
X011186Y011387D02*
X000849Y011387D01*
X000849Y011485D02*
X011186Y011485D01*
X011186Y011584D02*
X000849Y011584D01*
X000849Y011682D02*
X011186Y011682D01*
X011186Y011781D02*
X000849Y011781D01*
X000849Y011879D02*
X011186Y011879D01*
X011186Y011978D02*
X000849Y011978D01*
X000849Y012076D02*
X011186Y012076D01*
X011186Y012175D02*
X000849Y012175D01*
X000849Y012274D02*
X011186Y012274D01*
X011186Y012372D02*
X000849Y012372D01*
X000849Y012471D02*
X011186Y012471D01*
X011186Y012569D02*
X000849Y012569D01*
X000849Y012668D02*
X011217Y012668D01*
X011286Y012766D02*
X000849Y012766D01*
X000849Y012865D02*
X010545Y012865D01*
X010511Y012879D02*
X010683Y012808D01*
X010869Y012808D01*
X011042Y012879D01*
X011173Y013011D01*
X011245Y013183D01*
X011245Y013369D01*
X011173Y013542D01*
X011116Y013599D01*
X011116Y014963D01*
X011326Y015173D01*
X011326Y015629D01*
X011004Y015951D01*
X010548Y015951D01*
X010276Y015679D01*
X010004Y015951D01*
X009548Y015951D01*
X009226Y015629D01*
X009226Y015173D01*
X009548Y014851D01*
X010004Y014851D01*
X010276Y015123D01*
X010436Y014963D01*
X010436Y013599D01*
X010379Y013542D01*
X010308Y013369D01*
X010308Y013183D01*
X010379Y013011D01*
X010511Y012879D01*
X010427Y012963D02*
X000849Y012963D01*
X000849Y013062D02*
X010358Y013062D01*
X010317Y013160D02*
X000849Y013160D01*
X000849Y013259D02*
X010308Y013259D01*
X010308Y013358D02*
X000849Y013358D01*
X000849Y013456D02*
X010344Y013456D01*
X010392Y013555D02*
X000849Y013555D01*
X000849Y013653D02*
X007871Y013653D01*
X007923Y013601D02*
X007601Y013923D01*
X007601Y014379D01*
X007923Y014701D01*
X008379Y014701D01*
X008651Y014429D01*
X008923Y014701D01*
X009379Y014701D01*
X009701Y014379D01*
X009701Y013923D01*
X009379Y013601D01*
X008923Y013601D01*
X008651Y013873D01*
X008379Y013601D01*
X007923Y013601D01*
X007773Y013752D02*
X000849Y013752D01*
X000849Y013850D02*
X007674Y013850D01*
X007601Y013949D02*
X000849Y013949D01*
X000849Y014047D02*
X007601Y014047D01*
X007601Y014146D02*
X000849Y014146D01*
X000849Y014244D02*
X007601Y014244D01*
X007601Y014343D02*
X000849Y014343D01*
X000849Y014442D02*
X007664Y014442D01*
X007762Y014540D02*
X000849Y014540D01*
X000849Y014639D02*
X007861Y014639D01*
X008442Y014639D02*
X008861Y014639D01*
X008762Y014540D02*
X008540Y014540D01*
X008639Y014442D02*
X008664Y014442D01*
X008674Y013850D02*
X008628Y013850D01*
X008530Y013752D02*
X008773Y013752D01*
X008871Y013653D02*
X008431Y013653D01*
X009431Y013653D02*
X010436Y013653D01*
X010436Y013752D02*
X009530Y013752D01*
X009628Y013850D02*
X010436Y013850D01*
X010436Y013949D02*
X009701Y013949D01*
X009701Y014047D02*
X010436Y014047D01*
X010436Y014146D02*
X009701Y014146D01*
X009701Y014244D02*
X010436Y014244D01*
X010436Y014343D02*
X009701Y014343D01*
X009639Y014442D02*
X010436Y014442D01*
X010436Y014540D02*
X009540Y014540D01*
X009442Y014639D02*
X010436Y014639D01*
X010436Y014737D02*
X000849Y014737D01*
X000849Y014836D02*
X010436Y014836D01*
X010436Y014934D02*
X010087Y014934D01*
X010186Y015033D02*
X010367Y015033D01*
X010776Y015401D02*
X010776Y013276D01*
X011209Y013456D02*
X011975Y013456D01*
X011877Y013358D02*
X011245Y013358D01*
X011245Y013259D02*
X011778Y013259D01*
X011680Y013160D02*
X011235Y013160D01*
X011194Y013062D02*
X011581Y013062D01*
X011483Y012963D02*
X011126Y012963D01*
X011007Y012865D02*
X011384Y012865D01*
X011526Y012526D02*
X013151Y014151D01*
X016651Y014151D01*
X017401Y013401D01*
X017651Y012651D02*
X018151Y013151D01*
X018151Y014151D01*
X017151Y015151D01*
X018166Y016117D02*
X019954Y016117D01*
X019954Y016215D02*
X018068Y016215D01*
X017969Y016314D02*
X019954Y016314D01*
X019954Y016412D02*
X017871Y016412D01*
X017772Y016511D02*
X019954Y016511D01*
X019954Y016609D02*
X017674Y016609D01*
X017575Y016708D02*
X019954Y016708D01*
X019954Y016807D02*
X017477Y016807D01*
X017378Y016905D02*
X019954Y016905D01*
X019954Y017004D02*
X017280Y017004D01*
X017181Y017102D02*
X019954Y017102D01*
X019954Y017201D02*
X017083Y017201D01*
X016984Y017299D02*
X019954Y017299D01*
X019954Y017398D02*
X018325Y017398D01*
X018303Y017389D02*
X018583Y017505D01*
X018798Y017719D01*
X018914Y018000D01*
X018914Y018303D01*
X018798Y018583D01*
X018583Y018798D01*
X018303Y018914D01*
X018000Y018914D01*
X017719Y018798D01*
X017505Y018583D01*
X017389Y018303D01*
X017389Y018000D01*
X017505Y017719D01*
X017719Y017505D01*
X018000Y017389D01*
X018303Y017389D01*
X017978Y017398D02*
X014432Y017398D01*
X014334Y017496D02*
X017740Y017496D01*
X017629Y017595D02*
X003173Y017595D01*
X003083Y017505D02*
X003298Y017719D01*
X003414Y018000D01*
X003414Y018303D01*
X003298Y018583D01*
X003083Y018798D01*
X002803Y018914D01*
X002500Y018914D01*
X002219Y018798D01*
X002005Y018583D01*
X001889Y018303D01*
X001889Y018000D01*
X002005Y017719D01*
X002219Y017505D01*
X002500Y017389D01*
X002803Y017389D01*
X003083Y017505D01*
X003063Y017496D02*
X012719Y017496D01*
X012620Y017398D02*
X002825Y017398D01*
X002478Y017398D02*
X000849Y017398D01*
X000849Y017496D02*
X002240Y017496D01*
X002129Y017595D02*
X000849Y017595D01*
X000849Y017693D02*
X002031Y017693D01*
X001975Y017792D02*
X000849Y017792D01*
X000849Y017891D02*
X001934Y017891D01*
X001893Y017989D02*
X000849Y017989D01*
X000849Y018088D02*
X001889Y018088D01*
X001889Y018186D02*
X000849Y018186D01*
X000849Y018285D02*
X001889Y018285D01*
X001922Y018383D02*
X000849Y018383D01*
X000849Y018482D02*
X001963Y018482D01*
X002004Y018580D02*
X000849Y018580D01*
X000849Y018679D02*
X002101Y018679D01*
X002199Y018777D02*
X000849Y018777D01*
X000849Y018876D02*
X002409Y018876D01*
X002894Y018876D02*
X007629Y018876D01*
X007615Y018891D02*
X007796Y018709D01*
X008033Y018611D01*
X008289Y018611D01*
X008526Y018709D01*
X008707Y018891D01*
X008805Y019127D01*
X008805Y019384D01*
X008707Y019621D01*
X008526Y019802D01*
X008289Y019900D01*
X008033Y019900D01*
X007796Y019802D01*
X007615Y019621D01*
X007517Y019384D01*
X007517Y019127D01*
X007615Y018891D01*
X007580Y018975D02*
X000849Y018975D01*
X000854Y019073D02*
X007539Y019073D01*
X007517Y019172D02*
X000871Y019172D01*
X000857Y019119D02*
X000857Y019119D01*
X000897Y019270D02*
X007517Y019270D01*
X007517Y019369D02*
X000926Y019369D01*
X000983Y019467D02*
X007551Y019467D01*
X007592Y019566D02*
X001040Y019566D01*
X001133Y019664D02*
X007659Y019664D01*
X007757Y019763D02*
X001237Y019763D01*
X001408Y019861D02*
X007940Y019861D01*
X008382Y019861D02*
X019395Y019861D01*
X019565Y019763D02*
X012971Y019763D01*
X012958Y019772D02*
X012873Y019816D01*
X012783Y019845D01*
X012691Y019859D01*
X012691Y019306D01*
X012591Y019306D01*
X012591Y019859D01*
X012500Y019845D01*
X012409Y019816D01*
X012325Y019772D01*
X012248Y019717D01*
X012180Y019649D01*
X012125Y019572D01*
X012081Y019488D01*
X012052Y019397D01*
X012037Y019306D01*
X012591Y019306D01*
X012591Y019206D01*
X012037Y019206D01*
X012052Y019114D01*
X012081Y019024D01*
X012125Y018939D01*
X012180Y018862D01*
X012248Y018795D01*
X012325Y018739D01*
X012409Y018696D01*
X012500Y018666D01*
X012591Y018652D01*
X012591Y019205D01*
X012691Y019205D01*
X012691Y018652D01*
X012783Y018666D01*
X012873Y018696D01*
X012958Y018739D01*
X013035Y018795D01*
X013102Y018862D01*
X013158Y018939D01*
X013201Y019024D01*
X013231Y019114D01*
X013245Y019206D01*
X012692Y019206D01*
X012692Y019306D01*
X013245Y019306D01*
X013231Y019397D01*
X013201Y019488D01*
X013158Y019572D01*
X013102Y019649D01*
X013035Y019717D01*
X012958Y019772D01*
X013087Y019664D02*
X019669Y019664D01*
X019763Y019566D02*
X013162Y019566D01*
X013208Y019467D02*
X019819Y019467D01*
X019876Y019369D02*
X013235Y019369D01*
X013240Y019172D02*
X019931Y019172D01*
X019949Y019073D02*
X013217Y019073D01*
X013176Y018975D02*
X019954Y018975D01*
X019954Y018876D02*
X018394Y018876D01*
X018603Y018777D02*
X019954Y018777D01*
X019954Y018679D02*
X018702Y018679D01*
X018799Y018580D02*
X019954Y018580D01*
X019954Y018482D02*
X018840Y018482D01*
X018880Y018383D02*
X019954Y018383D01*
X019954Y018285D02*
X018914Y018285D01*
X018914Y018186D02*
X019954Y018186D01*
X019954Y018088D02*
X018914Y018088D01*
X018909Y017989D02*
X019954Y017989D01*
X019954Y017891D02*
X018869Y017891D01*
X018828Y017792D02*
X019954Y017792D01*
X019954Y017693D02*
X018772Y017693D01*
X018673Y017595D02*
X019954Y017595D01*
X019954Y017496D02*
X018563Y017496D01*
X017531Y017693D02*
X003272Y017693D01*
X003328Y017792D02*
X017475Y017792D01*
X017434Y017891D02*
X003369Y017891D01*
X003409Y017989D02*
X017393Y017989D01*
X017389Y018088D02*
X003414Y018088D01*
X003414Y018186D02*
X017389Y018186D01*
X017389Y018285D02*
X003414Y018285D01*
X003380Y018383D02*
X017422Y018383D01*
X017463Y018482D02*
X003340Y018482D01*
X003299Y018580D02*
X017504Y018580D01*
X017601Y018679D02*
X012822Y018679D01*
X012691Y018679D02*
X012591Y018679D01*
X012591Y018777D02*
X012691Y018777D01*
X012691Y018876D02*
X012591Y018876D01*
X012591Y018975D02*
X012691Y018975D01*
X012691Y019073D02*
X012591Y019073D01*
X012591Y019172D02*
X012691Y019172D01*
X012692Y019270D02*
X019905Y019270D01*
X017909Y018876D02*
X013113Y018876D01*
X013011Y018777D02*
X017699Y018777D01*
X016776Y017026D02*
X018651Y015151D01*
X018651Y012651D01*
X018026Y012026D01*
X016276Y012026D01*
X015842Y011682D02*
X015710Y011682D01*
X015612Y011584D02*
X015941Y011584D01*
X016039Y011485D02*
X015513Y011485D01*
X015039Y011485D02*
X013991Y011485D01*
X013991Y011387D02*
X019954Y011387D01*
X019954Y011485D02*
X016513Y011485D01*
X016612Y011584D02*
X019954Y011584D01*
X019954Y011682D02*
X016710Y011682D01*
X017651Y012651D02*
X014151Y012651D01*
X013651Y012151D01*
X013651Y010776D01*
X014016Y011190D02*
X014287Y011190D01*
X014385Y011288D02*
X013991Y011288D01*
X014114Y011091D02*
X014188Y011091D01*
X013991Y011584D02*
X014941Y011584D01*
X014842Y011682D02*
X013991Y011682D01*
X013991Y011781D02*
X014744Y011781D01*
X014726Y011879D02*
X013991Y011879D01*
X013991Y011978D02*
X014726Y011978D01*
X014726Y012076D02*
X014057Y012076D01*
X014156Y012175D02*
X014726Y012175D01*
X014746Y012274D02*
X014254Y012274D01*
X014917Y011288D02*
X019954Y011288D01*
X019954Y011190D02*
X015016Y011190D01*
X015114Y011091D02*
X019954Y011091D01*
X019954Y010993D02*
X015201Y010993D01*
X015201Y010894D02*
X019954Y010894D01*
X019954Y010795D02*
X015201Y010795D01*
X015201Y010697D02*
X019954Y010697D01*
X019954Y010598D02*
X015201Y010598D01*
X015153Y010500D02*
X019954Y010500D01*
X019954Y010401D02*
X015054Y010401D01*
X014956Y010303D02*
X019954Y010303D01*
X019954Y010204D02*
X014560Y010204D01*
X014461Y010106D02*
X019954Y010106D01*
X019954Y010007D02*
X014363Y010007D01*
X014264Y009909D02*
X019954Y009909D01*
X019954Y009810D02*
X013520Y009810D01*
X013576Y009711D02*
X019954Y009711D01*
X019954Y009613D02*
X013576Y009613D01*
X013576Y009514D02*
X019954Y009514D01*
X019954Y009416D02*
X013576Y009416D01*
X013576Y009317D02*
X019954Y009317D01*
X019954Y009219D02*
X013496Y009219D01*
X013398Y009120D02*
X019954Y009120D01*
X019954Y009022D02*
X013366Y009022D01*
X013366Y008923D02*
X019954Y008923D01*
X019954Y008825D02*
X013366Y008825D01*
X013366Y008726D02*
X019954Y008726D01*
X019954Y008627D02*
X013366Y008627D01*
X013366Y008529D02*
X019954Y008529D01*
X019954Y008430D02*
X013366Y008430D01*
X013366Y008332D02*
X019954Y008332D01*
X019954Y008233D02*
X013366Y008233D01*
X013366Y008135D02*
X016914Y008135D01*
X016940Y008161D02*
X016641Y007862D01*
X016641Y007681D01*
X017121Y007681D01*
X017121Y007621D01*
X017181Y007621D01*
X017181Y007141D01*
X017362Y007141D01*
X017661Y007440D01*
X017661Y007621D01*
X017181Y007621D01*
X017181Y007681D01*
X017661Y007681D01*
X017661Y007862D01*
X017362Y008161D01*
X017181Y008161D01*
X017181Y007681D01*
X017121Y007681D01*
X017121Y008161D01*
X016940Y008161D01*
X016815Y008036D02*
X013366Y008036D01*
X013358Y007938D02*
X016716Y007938D01*
X016641Y007839D02*
X013317Y007839D01*
X013221Y007741D02*
X016641Y007741D01*
X016641Y007621D02*
X016641Y007440D01*
X016940Y007141D01*
X017121Y007141D01*
X017121Y007621D01*
X016641Y007621D01*
X016641Y007544D02*
X013024Y007544D01*
X013123Y007642D02*
X017121Y007642D01*
X017181Y007642D02*
X018601Y007642D01*
X018601Y007544D02*
X017661Y007544D01*
X017661Y007445D02*
X018601Y007445D01*
X018601Y007423D02*
X018923Y007101D01*
X019379Y007101D01*
X019701Y007423D01*
X019701Y007879D01*
X019379Y008201D01*
X018923Y008201D01*
X018601Y007879D01*
X018601Y007423D01*
X018678Y007346D02*
X017568Y007346D01*
X017469Y007248D02*
X018777Y007248D01*
X018875Y007149D02*
X017371Y007149D01*
X017181Y007149D02*
X017121Y007149D01*
X017121Y007248D02*
X017181Y007248D01*
X017181Y007346D02*
X017121Y007346D01*
X017121Y007445D02*
X017181Y007445D01*
X017181Y007544D02*
X017121Y007544D01*
X017121Y007741D02*
X017181Y007741D01*
X017181Y007839D02*
X017121Y007839D01*
X017121Y007938D02*
X017181Y007938D01*
X017181Y008036D02*
X017121Y008036D01*
X017121Y008135D02*
X017181Y008135D01*
X017389Y008135D02*
X018857Y008135D01*
X018758Y008036D02*
X017487Y008036D01*
X017586Y007938D02*
X018660Y007938D01*
X018601Y007839D02*
X017661Y007839D01*
X017661Y007741D02*
X018601Y007741D01*
X019446Y008135D02*
X019954Y008135D01*
X019954Y008036D02*
X019544Y008036D01*
X019643Y007938D02*
X019954Y007938D01*
X019954Y007839D02*
X019701Y007839D01*
X019701Y007741D02*
X019954Y007741D01*
X019954Y007642D02*
X019701Y007642D01*
X019701Y007544D02*
X019954Y007544D01*
X019954Y007445D02*
X019701Y007445D01*
X019624Y007346D02*
X019954Y007346D01*
X019954Y007248D02*
X019526Y007248D01*
X019427Y007149D02*
X019954Y007149D01*
X019954Y007051D02*
X012532Y007051D01*
X012630Y007149D02*
X016932Y007149D01*
X016833Y007248D02*
X012729Y007248D01*
X012827Y007346D02*
X016735Y007346D01*
X016641Y007445D02*
X012926Y007445D01*
X013026Y008026D02*
X013026Y009526D01*
X012526Y009776D02*
X012901Y010151D01*
X014026Y010151D01*
X014651Y010776D01*
X012526Y009776D02*
X012526Y008526D01*
X010526Y006526D01*
X008776Y006526D01*
X008361Y006164D02*
X008192Y006164D01*
X008093Y006065D02*
X008459Y006065D01*
X009093Y006065D02*
X010415Y006065D01*
X010486Y005967D02*
X004082Y005967D01*
X004091Y006065D02*
X007459Y006065D01*
X007361Y006164D02*
X004091Y006164D01*
X004091Y006262D02*
X007262Y006262D01*
X007091Y005868D02*
X006712Y005868D01*
X006811Y005770D02*
X006992Y005770D01*
X007401Y005401D02*
X010401Y005401D01*
X012151Y003651D01*
X016151Y003651D01*
X015557Y004094D02*
X012189Y004094D01*
X012287Y003996D02*
X015458Y003996D01*
X015572Y004193D02*
X012090Y004193D01*
X011992Y004292D02*
X015473Y004292D01*
X015404Y004390D02*
X011893Y004390D01*
X011795Y004489D02*
X015363Y004489D01*
X015341Y004587D02*
X011696Y004587D01*
X011598Y004686D02*
X015341Y004686D01*
X015351Y004784D02*
X011499Y004784D01*
X011400Y004883D02*
X015392Y004883D01*
X015444Y004981D02*
X011302Y004981D01*
X011203Y005080D02*
X015542Y005080D01*
X015727Y005178D02*
X011105Y005178D01*
X011006Y005277D02*
X019954Y005277D01*
X019954Y005376D02*
X010908Y005376D01*
X010955Y005474D02*
X019954Y005474D01*
X019954Y005573D02*
X011053Y005573D01*
X011152Y005671D02*
X019954Y005671D01*
X019954Y005770D02*
X011250Y005770D01*
X011349Y005868D02*
X019954Y005868D01*
X019954Y005967D02*
X011448Y005967D01*
X011546Y006065D02*
X019954Y006065D01*
X019954Y006164D02*
X011645Y006164D01*
X011743Y006262D02*
X019954Y006262D01*
X019954Y006361D02*
X011842Y006361D01*
X011940Y006460D02*
X019954Y006460D01*
X019954Y006558D02*
X012039Y006558D01*
X012137Y006657D02*
X019954Y006657D01*
X019954Y006755D02*
X012236Y006755D01*
X012334Y006854D02*
X019954Y006854D01*
X019954Y006952D02*
X012433Y006952D01*
X013026Y008026D02*
X010401Y005401D01*
X010289Y005770D02*
X007811Y005770D01*
X007712Y005868D02*
X010388Y005868D01*
X010226Y006164D02*
X009192Y006164D01*
X007776Y006526D02*
X007776Y007526D01*
X008276Y008026D01*
X011026Y008026D01*
X011526Y008526D01*
X011526Y012526D01*
X011160Y013555D02*
X012074Y013555D01*
X012172Y013653D02*
X011116Y013653D01*
X011116Y013752D02*
X012271Y013752D01*
X012369Y013850D02*
X011116Y013850D01*
X011116Y013949D02*
X012468Y013949D01*
X012567Y014047D02*
X011116Y014047D01*
X011116Y014146D02*
X012665Y014146D01*
X012577Y014244D02*
X011116Y014244D01*
X011116Y014343D02*
X012479Y014343D01*
X012380Y014442D02*
X011116Y014442D01*
X011116Y014540D02*
X012282Y014540D01*
X012183Y014639D02*
X011116Y014639D01*
X011116Y014737D02*
X012085Y014737D01*
X011987Y014836D02*
X011116Y014836D01*
X011116Y014934D02*
X011946Y014934D01*
X011936Y015033D02*
X011186Y015033D01*
X011284Y015131D02*
X011936Y015131D01*
X011936Y015230D02*
X011326Y015230D01*
X011326Y015328D02*
X011936Y015328D01*
X011936Y015427D02*
X011326Y015427D01*
X011326Y015526D02*
X011936Y015526D01*
X011936Y015624D02*
X011326Y015624D01*
X011233Y015723D02*
X011936Y015723D01*
X011936Y015821D02*
X011134Y015821D01*
X011036Y015920D02*
X011936Y015920D01*
X011936Y016018D02*
X011546Y016018D01*
X011645Y016117D02*
X011908Y016117D01*
X011809Y016215D02*
X011743Y016215D01*
X011774Y016807D02*
X011779Y016807D01*
X011877Y016905D02*
X011675Y016905D01*
X011577Y017004D02*
X011976Y017004D01*
X012476Y017102D02*
X000849Y017102D01*
X000849Y017004D02*
X010976Y017004D01*
X010877Y016905D02*
X000849Y016905D01*
X000849Y016807D02*
X010779Y016807D01*
X010726Y016708D02*
X000849Y016708D01*
X000849Y016609D02*
X010726Y016609D01*
X010726Y016511D02*
X000849Y016511D01*
X000849Y016412D02*
X010726Y016412D01*
X010726Y016314D02*
X000849Y016314D01*
X000849Y016215D02*
X010809Y016215D01*
X010908Y016117D02*
X000849Y016117D01*
X000849Y016018D02*
X011006Y016018D01*
X010517Y015920D02*
X010036Y015920D01*
X010134Y015821D02*
X010418Y015821D01*
X010320Y015723D02*
X010233Y015723D01*
X009517Y015920D02*
X000849Y015920D01*
X000849Y015821D02*
X009418Y015821D01*
X009320Y015723D02*
X000849Y015723D01*
X000849Y015624D02*
X009226Y015624D01*
X009226Y015526D02*
X000849Y015526D01*
X000849Y015427D02*
X009226Y015427D01*
X009226Y015328D02*
X000849Y015328D01*
X000849Y015230D02*
X009226Y015230D01*
X009268Y015131D02*
X000849Y015131D01*
X000849Y015033D02*
X009367Y015033D01*
X009465Y014934D02*
X000849Y014934D01*
X000849Y017201D02*
X012476Y017201D01*
X012521Y017299D02*
X000849Y017299D01*
X003103Y018777D02*
X007728Y018777D01*
X007870Y018679D02*
X003202Y018679D01*
X008453Y018679D02*
X012461Y018679D01*
X012271Y018777D02*
X008594Y018777D01*
X008693Y018876D02*
X012170Y018876D01*
X012106Y018975D02*
X008742Y018975D01*
X008783Y019073D02*
X012065Y019073D01*
X012043Y019172D02*
X008805Y019172D01*
X008805Y019270D02*
X012591Y019270D01*
X012591Y019369D02*
X012691Y019369D01*
X012691Y019467D02*
X012591Y019467D01*
X012591Y019566D02*
X012691Y019566D01*
X012691Y019664D02*
X012591Y019664D01*
X012591Y019763D02*
X012691Y019763D01*
X012311Y019763D02*
X008565Y019763D01*
X008664Y019664D02*
X012196Y019664D01*
X012121Y019566D02*
X008730Y019566D01*
X008771Y019467D02*
X012075Y019467D01*
X012047Y019369D02*
X008805Y019369D01*
X012276Y016526D02*
X012276Y015026D01*
X013151Y014151D01*
X015651Y014651D02*
X015651Y016151D01*
X015901Y016401D01*
X016776Y017026D02*
X014026Y017026D01*
X013620Y017398D02*
X013432Y017398D01*
X013334Y017496D02*
X013719Y017496D01*
X018265Y016018D02*
X019954Y016018D01*
X019954Y015920D02*
X018364Y015920D01*
X018462Y015821D02*
X019954Y015821D01*
X019954Y015723D02*
X018561Y015723D01*
X018659Y015624D02*
X019954Y015624D01*
X019954Y015526D02*
X018758Y015526D01*
X018856Y015427D02*
X019954Y015427D01*
X019954Y015328D02*
X018946Y015328D01*
X018987Y015230D02*
X019954Y015230D01*
X019954Y015131D02*
X018991Y015131D01*
X018991Y015033D02*
X019954Y015033D01*
X019954Y014934D02*
X018991Y014934D01*
X018991Y014836D02*
X019954Y014836D01*
X019954Y014737D02*
X018991Y014737D01*
X018991Y014639D02*
X019954Y014639D01*
X019954Y014540D02*
X018991Y014540D01*
X018991Y014442D02*
X019954Y014442D01*
X019954Y014343D02*
X018991Y014343D01*
X018991Y014244D02*
X019954Y014244D01*
X019954Y014146D02*
X018991Y014146D01*
X018991Y014047D02*
X019954Y014047D01*
X019954Y013949D02*
X018991Y013949D01*
X018991Y013850D02*
X019954Y013850D01*
X019954Y013752D02*
X018991Y013752D01*
X018991Y013653D02*
X019954Y013653D01*
X019954Y013555D02*
X018991Y013555D01*
X018991Y013456D02*
X019954Y013456D01*
X019954Y013358D02*
X018991Y013358D01*
X018991Y013259D02*
X019954Y013259D01*
X019954Y013160D02*
X018991Y013160D01*
X018991Y013062D02*
X019954Y013062D01*
X019954Y012963D02*
X018991Y012963D01*
X018991Y012865D02*
X019954Y012865D01*
X019954Y012766D02*
X018991Y012766D01*
X018991Y012668D02*
X019954Y012668D01*
X019954Y012569D02*
X018985Y012569D01*
X018944Y012471D02*
X019954Y012471D01*
X019954Y012372D02*
X018853Y012372D01*
X018754Y012274D02*
X019954Y012274D01*
X019954Y012175D02*
X018656Y012175D01*
X018557Y012076D02*
X019954Y012076D01*
X019954Y011978D02*
X018459Y011978D01*
X018360Y011879D02*
X019954Y011879D01*
X019954Y011781D02*
X018262Y011781D01*
X018727Y005178D02*
X016576Y005178D01*
X016760Y005080D02*
X018542Y005080D01*
X018444Y004981D02*
X016859Y004981D01*
X016911Y004883D02*
X018392Y004883D01*
X018351Y004784D02*
X016951Y004784D01*
X016961Y004686D02*
X018341Y004686D01*
X018341Y004587D02*
X016961Y004587D01*
X016939Y004489D02*
X018363Y004489D01*
X018404Y004390D02*
X016898Y004390D01*
X016829Y004292D02*
X018473Y004292D01*
X018572Y004193D02*
X016731Y004193D01*
X016746Y004094D02*
X018557Y004094D01*
X018458Y003996D02*
X016844Y003996D01*
X016905Y003897D02*
X018398Y003897D01*
X018357Y003799D02*
X016945Y003799D01*
X016961Y003700D02*
X018341Y003700D01*
X018341Y003602D02*
X016961Y003602D01*
X016945Y003503D02*
X018357Y003503D01*
X018398Y003405D02*
X017379Y003405D01*
X017477Y003306D02*
X018459Y003306D01*
X018557Y003208D02*
X017576Y003208D01*
X017674Y003109D02*
X018571Y003109D01*
X018473Y003011D02*
X017773Y003011D01*
X017651Y002651D02*
X017151Y003151D01*
X009651Y003151D01*
X007776Y002651D02*
X016151Y002651D01*
X015387Y001729D02*
X013357Y001729D01*
X012946Y001729D02*
X005901Y001729D01*
X005901Y001631D02*
X016121Y001631D01*
X016121Y001621D02*
X015381Y001621D01*
X015381Y001611D01*
X015394Y001532D01*
X015419Y001455D01*
X015455Y001384D01*
X015502Y001319D01*
X015559Y001262D01*
X015624Y001215D01*
X015695Y001179D01*
X015772Y001154D01*
X015851Y001141D01*
X016121Y001141D01*
X016121Y001621D01*
X016181Y001631D02*
X017191Y001631D01*
X017289Y001532D02*
X016909Y001532D01*
X016873Y001434D02*
X017388Y001434D01*
X017526Y001335D02*
X016812Y001335D01*
X016708Y001237D02*
X018528Y001237D01*
X018693Y001138D02*
X005901Y001138D01*
X005901Y001040D02*
X019565Y001040D01*
X019610Y001138D02*
X019669Y001138D01*
X019395Y000941D02*
X005872Y000941D01*
X005901Y001237D02*
X015594Y001237D01*
X015490Y001335D02*
X005901Y001335D01*
X005888Y001434D02*
X015430Y001434D01*
X015394Y001532D02*
X005868Y001532D01*
X005869Y001828D02*
X012812Y001828D01*
X012737Y001927D02*
X005801Y001927D01*
X005636Y002025D02*
X012696Y002025D01*
X013151Y002151D02*
X017151Y002151D01*
X017651Y001651D01*
X019151Y001651D01*
X019151Y002651D02*
X017651Y002651D01*
X017092Y001729D02*
X016915Y001729D01*
X016181Y001532D02*
X016121Y001532D01*
X016121Y001434D02*
X016181Y001434D01*
X016181Y001335D02*
X016121Y001335D01*
X016121Y001237D02*
X016181Y001237D01*
X019951Y004784D02*
X019954Y004784D01*
X019954Y004883D02*
X019911Y004883D01*
X019954Y004981D02*
X019859Y004981D01*
X019954Y005080D02*
X019760Y005080D01*
X019576Y005178D02*
X019954Y005178D01*
X011145Y008923D02*
X010907Y008923D01*
X010809Y009022D02*
X011186Y009022D01*
X011186Y009120D02*
X004091Y009120D01*
X004091Y009022D02*
X010244Y009022D01*
X010145Y008923D02*
X003591Y008923D01*
X003591Y008881D02*
X003591Y008981D01*
X003491Y008981D01*
X003491Y008881D01*
X002991Y008881D01*
X002991Y008588D01*
X003005Y008502D01*
X003032Y008420D01*
X003071Y008343D01*
X003122Y008273D01*
X003183Y008212D01*
X003253Y008161D01*
X003330Y008122D01*
X003412Y008095D01*
X003491Y008082D01*
X003491Y008881D01*
X003591Y008881D01*
X003591Y008082D01*
X003670Y008095D01*
X003752Y008122D01*
X003829Y008161D01*
X003900Y008212D01*
X003961Y008273D01*
X004012Y008343D01*
X004051Y008420D01*
X004078Y008502D01*
X004091Y008588D01*
X004091Y008881D01*
X003591Y008881D01*
X003591Y008825D02*
X003491Y008825D01*
X003491Y008923D02*
X002351Y008923D01*
X002351Y008825D02*
X002991Y008825D01*
X002991Y008726D02*
X002351Y008726D01*
X002351Y008627D02*
X002991Y008627D01*
X003001Y008529D02*
X002351Y008529D01*
X002317Y008430D02*
X003028Y008430D01*
X003079Y008332D02*
X002276Y008332D01*
X002198Y008233D02*
X003161Y008233D01*
X003304Y008135D02*
X002099Y008135D01*
X002351Y009022D02*
X002991Y009022D01*
X002991Y008981D02*
X003491Y008981D01*
X003491Y009780D01*
X003412Y009768D01*
X003330Y009741D01*
X003253Y009702D01*
X003183Y009651D01*
X003122Y009590D01*
X003071Y009519D01*
X003032Y009442D01*
X003005Y009360D01*
X002991Y009275D01*
X002991Y008981D01*
X002991Y009120D02*
X002351Y009120D01*
X002351Y009219D02*
X002991Y009219D01*
X002998Y009317D02*
X002351Y009317D01*
X002323Y009416D02*
X003023Y009416D01*
X003068Y009514D02*
X002283Y009514D01*
X002214Y009613D02*
X003145Y009613D01*
X003272Y009711D02*
X002115Y009711D01*
X001906Y009810D02*
X011186Y009810D01*
X011186Y009711D02*
X003810Y009711D01*
X003829Y009702D02*
X003752Y009741D01*
X003670Y009768D01*
X003591Y009780D01*
X003591Y008981D01*
X004091Y008981D01*
X004091Y009275D01*
X004078Y009360D01*
X004051Y009442D01*
X004012Y009519D01*
X003961Y009590D01*
X003900Y009651D01*
X003829Y009702D01*
X003937Y009613D02*
X011186Y009613D01*
X011186Y009514D02*
X004014Y009514D01*
X004060Y009416D02*
X011186Y009416D01*
X011186Y009317D02*
X004084Y009317D01*
X004091Y009219D02*
X011186Y009219D01*
X011047Y008825D02*
X011006Y008825D01*
X010047Y008825D02*
X004091Y008825D01*
X004091Y008726D02*
X009976Y008726D01*
X009976Y008627D02*
X004091Y008627D01*
X004082Y008529D02*
X009976Y008529D01*
X009976Y008430D02*
X004054Y008430D01*
X004004Y008332D02*
X008126Y008332D01*
X008003Y008233D02*
X003921Y008233D01*
X003778Y008135D02*
X007904Y008135D01*
X006090Y005868D02*
X004054Y005868D01*
X004002Y005770D02*
X005992Y005770D01*
X005893Y005671D02*
X003919Y005671D01*
X003774Y005573D02*
X005851Y005573D01*
X004579Y004981D02*
X000849Y004981D01*
X000849Y004883D02*
X004480Y004883D01*
X004381Y004784D02*
X000849Y004784D01*
X000849Y004686D02*
X004351Y004686D01*
X004351Y004587D02*
X000849Y004587D01*
X000849Y004489D02*
X004351Y004489D01*
X004351Y004390D02*
X000849Y004390D01*
X000849Y004292D02*
X004358Y004292D01*
X004457Y004193D02*
X000849Y004193D01*
X002334Y002025D02*
X002723Y002025D01*
X002572Y001927D02*
X002471Y001927D01*
X003180Y002025D02*
X003537Y002025D01*
X003372Y001927D02*
X003331Y001927D01*
X003946Y002025D02*
X004449Y002025D01*
X004618Y002025D02*
X004977Y002025D01*
X004812Y001927D02*
X004783Y001927D01*
X004284Y001927D02*
X004111Y001927D01*
X004238Y002912D02*
X003815Y002912D01*
X003913Y003011D02*
X004139Y003011D01*
X004041Y003109D02*
X004012Y003109D01*
X005149Y003996D02*
X005654Y003996D01*
X005555Y004094D02*
X005247Y004094D01*
X005346Y004193D02*
X005457Y004193D01*
X003591Y006558D02*
X003491Y006558D01*
X003491Y006657D02*
X003591Y006657D01*
X003591Y006755D02*
X003491Y006755D01*
X003491Y006854D02*
X003591Y006854D01*
X003591Y006952D02*
X003491Y006952D01*
X003491Y007051D02*
X003591Y007051D01*
X003591Y007149D02*
X003491Y007149D01*
X003491Y008135D02*
X003591Y008135D01*
X003591Y008233D02*
X003491Y008233D01*
X003491Y008332D02*
X003591Y008332D01*
X003591Y008430D02*
X003491Y008430D01*
X003491Y008529D02*
X003591Y008529D01*
X003591Y008627D02*
X003491Y008627D01*
X003491Y008726D02*
X003591Y008726D01*
X003591Y009022D02*
X003491Y009022D01*
X003491Y009120D02*
X003591Y009120D01*
X003591Y009219D02*
X003491Y009219D01*
X003491Y009317D02*
X003591Y009317D01*
X003591Y009416D02*
X003491Y009416D01*
X003491Y009514D02*
X003591Y009514D01*
X003591Y009613D02*
X003491Y009613D01*
X003491Y009711D02*
X003591Y009711D01*
D17*
X009651Y003151D03*
X010526Y006526D03*
X013151Y002151D03*
X010776Y013276D03*
X015651Y014651D03*
M02*
