G75*
G70*
%OFA0B0*%
%FSLAX24Y24*%
%IPPOS*%
%LPD*%
%AMOC8*
5,1,8,0,0,1.08239X$1,22.5*
%
%ADD10C,0.0000*%
%ADD11C,0.0060*%
%ADD12R,0.0340X0.0240*%
%ADD13C,0.0120*%
D10*
X000655Y001655D02*
X000655Y019155D01*
X000657Y019215D01*
X000662Y019276D01*
X000671Y019335D01*
X000684Y019394D01*
X000700Y019453D01*
X000720Y019510D01*
X000743Y019565D01*
X000770Y019620D01*
X000799Y019672D01*
X000832Y019723D01*
X000868Y019772D01*
X000906Y019818D01*
X000948Y019862D01*
X000992Y019904D01*
X001038Y019942D01*
X001087Y019978D01*
X001138Y020011D01*
X001190Y020040D01*
X001245Y020067D01*
X001300Y020090D01*
X001357Y020110D01*
X001416Y020126D01*
X001475Y020139D01*
X001534Y020148D01*
X001595Y020153D01*
X001655Y020155D01*
X019155Y020155D01*
X019215Y020153D01*
X019276Y020148D01*
X019335Y020139D01*
X019394Y020126D01*
X019453Y020110D01*
X019510Y020090D01*
X019565Y020067D01*
X019620Y020040D01*
X019672Y020011D01*
X019723Y019978D01*
X019772Y019942D01*
X019818Y019904D01*
X019862Y019862D01*
X019904Y019818D01*
X019942Y019772D01*
X019978Y019723D01*
X020011Y019672D01*
X020040Y019620D01*
X020067Y019565D01*
X020090Y019510D01*
X020110Y019453D01*
X020126Y019394D01*
X020139Y019335D01*
X020148Y019276D01*
X020153Y019215D01*
X020155Y019155D01*
X020155Y001655D01*
X020153Y001595D01*
X020148Y001534D01*
X020139Y001475D01*
X020126Y001416D01*
X020110Y001357D01*
X020090Y001300D01*
X020067Y001245D01*
X020040Y001190D01*
X020011Y001138D01*
X019978Y001087D01*
X019942Y001038D01*
X019904Y000992D01*
X019862Y000948D01*
X019818Y000906D01*
X019772Y000868D01*
X019723Y000832D01*
X019672Y000799D01*
X019620Y000770D01*
X019565Y000743D01*
X019510Y000720D01*
X019453Y000700D01*
X019394Y000684D01*
X019335Y000671D01*
X019276Y000662D01*
X019215Y000657D01*
X019155Y000655D01*
X001655Y000655D01*
X001595Y000657D01*
X001534Y000662D01*
X001475Y000671D01*
X001416Y000684D01*
X001357Y000700D01*
X001300Y000720D01*
X001245Y000743D01*
X001190Y000770D01*
X001138Y000799D01*
X001087Y000832D01*
X001038Y000868D01*
X000992Y000906D01*
X000948Y000948D01*
X000906Y000992D01*
X000868Y001038D01*
X000832Y001087D01*
X000799Y001138D01*
X000770Y001190D01*
X000743Y001245D01*
X000720Y001300D01*
X000700Y001357D01*
X000684Y001416D01*
X000671Y001475D01*
X000662Y001534D01*
X000657Y001595D01*
X000655Y001655D01*
X002183Y018155D02*
X002185Y018198D01*
X002191Y018240D01*
X002201Y018282D01*
X002214Y018323D01*
X002231Y018363D01*
X002252Y018400D01*
X002276Y018436D01*
X002303Y018469D01*
X002333Y018500D01*
X002366Y018528D01*
X002401Y018553D01*
X002438Y018574D01*
X002477Y018592D01*
X002517Y018606D01*
X002559Y018617D01*
X002601Y018624D01*
X002644Y018627D01*
X002687Y018626D01*
X002730Y018621D01*
X002772Y018612D01*
X002813Y018600D01*
X002853Y018584D01*
X002891Y018564D01*
X002927Y018541D01*
X002961Y018514D01*
X002993Y018485D01*
X003021Y018453D01*
X003047Y018418D01*
X003069Y018382D01*
X003088Y018343D01*
X003103Y018303D01*
X003115Y018262D01*
X003123Y018219D01*
X003127Y018176D01*
X003127Y018134D01*
X003123Y018091D01*
X003115Y018048D01*
X003103Y018007D01*
X003088Y017967D01*
X003069Y017928D01*
X003047Y017892D01*
X003021Y017857D01*
X002993Y017825D01*
X002961Y017796D01*
X002927Y017769D01*
X002891Y017746D01*
X002853Y017726D01*
X002813Y017710D01*
X002772Y017698D01*
X002730Y017689D01*
X002687Y017684D01*
X002644Y017683D01*
X002601Y017686D01*
X002559Y017693D01*
X002517Y017704D01*
X002477Y017718D01*
X002438Y017736D01*
X002401Y017757D01*
X002366Y017782D01*
X002333Y017810D01*
X002303Y017841D01*
X002276Y017874D01*
X002252Y017910D01*
X002231Y017947D01*
X002214Y017987D01*
X002201Y018028D01*
X002191Y018070D01*
X002185Y018112D01*
X002183Y018155D01*
X008840Y019155D02*
X008842Y019190D01*
X008848Y019225D01*
X008858Y019259D01*
X008871Y019292D01*
X008888Y019323D01*
X008909Y019351D01*
X008932Y019378D01*
X008959Y019401D01*
X008987Y019422D01*
X009018Y019439D01*
X009051Y019452D01*
X009085Y019462D01*
X009120Y019468D01*
X009155Y019470D01*
X009190Y019468D01*
X009225Y019462D01*
X009259Y019452D01*
X009292Y019439D01*
X009323Y019422D01*
X009351Y019401D01*
X009378Y019378D01*
X009401Y019351D01*
X009422Y019323D01*
X009439Y019292D01*
X009452Y019259D01*
X009462Y019225D01*
X009468Y019190D01*
X009470Y019155D01*
X009468Y019120D01*
X009462Y019085D01*
X009452Y019051D01*
X009439Y019018D01*
X009422Y018987D01*
X009401Y018959D01*
X009378Y018932D01*
X009351Y018909D01*
X009323Y018888D01*
X009292Y018871D01*
X009259Y018858D01*
X009225Y018848D01*
X009190Y018842D01*
X009155Y018840D01*
X009120Y018842D01*
X009085Y018848D01*
X009051Y018858D01*
X009018Y018871D01*
X008987Y018888D01*
X008959Y018909D01*
X008932Y018932D01*
X008909Y018959D01*
X008888Y018987D01*
X008871Y019018D01*
X008858Y019051D01*
X008848Y019085D01*
X008842Y019120D01*
X008840Y019155D01*
X011340Y019155D02*
X011342Y019190D01*
X011348Y019225D01*
X011358Y019259D01*
X011371Y019292D01*
X011388Y019323D01*
X011409Y019351D01*
X011432Y019378D01*
X011459Y019401D01*
X011487Y019422D01*
X011518Y019439D01*
X011551Y019452D01*
X011585Y019462D01*
X011620Y019468D01*
X011655Y019470D01*
X011690Y019468D01*
X011725Y019462D01*
X011759Y019452D01*
X011792Y019439D01*
X011823Y019422D01*
X011851Y019401D01*
X011878Y019378D01*
X011901Y019351D01*
X011922Y019323D01*
X011939Y019292D01*
X011952Y019259D01*
X011962Y019225D01*
X011968Y019190D01*
X011970Y019155D01*
X011968Y019120D01*
X011962Y019085D01*
X011952Y019051D01*
X011939Y019018D01*
X011922Y018987D01*
X011901Y018959D01*
X011878Y018932D01*
X011851Y018909D01*
X011823Y018888D01*
X011792Y018871D01*
X011759Y018858D01*
X011725Y018848D01*
X011690Y018842D01*
X011655Y018840D01*
X011620Y018842D01*
X011585Y018848D01*
X011551Y018858D01*
X011518Y018871D01*
X011487Y018888D01*
X011459Y018909D01*
X011432Y018932D01*
X011409Y018959D01*
X011388Y018987D01*
X011371Y019018D01*
X011358Y019051D01*
X011348Y019085D01*
X011342Y019120D01*
X011340Y019155D01*
X017683Y018155D02*
X017685Y018198D01*
X017691Y018240D01*
X017701Y018282D01*
X017714Y018323D01*
X017731Y018363D01*
X017752Y018400D01*
X017776Y018436D01*
X017803Y018469D01*
X017833Y018500D01*
X017866Y018528D01*
X017901Y018553D01*
X017938Y018574D01*
X017977Y018592D01*
X018017Y018606D01*
X018059Y018617D01*
X018101Y018624D01*
X018144Y018627D01*
X018187Y018626D01*
X018230Y018621D01*
X018272Y018612D01*
X018313Y018600D01*
X018353Y018584D01*
X018391Y018564D01*
X018427Y018541D01*
X018461Y018514D01*
X018493Y018485D01*
X018521Y018453D01*
X018547Y018418D01*
X018569Y018382D01*
X018588Y018343D01*
X018603Y018303D01*
X018615Y018262D01*
X018623Y018219D01*
X018627Y018176D01*
X018627Y018134D01*
X018623Y018091D01*
X018615Y018048D01*
X018603Y018007D01*
X018588Y017967D01*
X018569Y017928D01*
X018547Y017892D01*
X018521Y017857D01*
X018493Y017825D01*
X018461Y017796D01*
X018427Y017769D01*
X018391Y017746D01*
X018353Y017726D01*
X018313Y017710D01*
X018272Y017698D01*
X018230Y017689D01*
X018187Y017684D01*
X018144Y017683D01*
X018101Y017686D01*
X018059Y017693D01*
X018017Y017704D01*
X017977Y017718D01*
X017938Y017736D01*
X017901Y017757D01*
X017866Y017782D01*
X017833Y017810D01*
X017803Y017841D01*
X017776Y017874D01*
X017752Y017910D01*
X017731Y017947D01*
X017714Y017987D01*
X017701Y018028D01*
X017691Y018070D01*
X017685Y018112D01*
X017683Y018155D01*
D11*
X018625Y017043D02*
X018285Y016816D01*
X018342Y016675D02*
X018285Y016618D01*
X018285Y016505D01*
X018342Y016448D01*
X018285Y016307D02*
X018285Y016080D01*
X018285Y016193D02*
X018625Y016193D01*
X018512Y016080D01*
X018569Y015938D02*
X018342Y015938D01*
X018285Y015882D01*
X018285Y015768D01*
X018342Y015711D01*
X018569Y015938D01*
X018625Y015882D01*
X018625Y015768D01*
X018569Y015711D01*
X018342Y015711D01*
X018285Y015570D02*
X018285Y015343D01*
X018512Y015570D01*
X018569Y015570D01*
X018625Y015513D01*
X018625Y015400D01*
X018569Y015343D01*
X018512Y015202D02*
X018512Y015032D01*
X018455Y014975D01*
X018399Y015032D01*
X018399Y015145D01*
X018342Y015202D01*
X018285Y015145D01*
X018285Y014975D01*
X018285Y014833D02*
X018285Y014663D01*
X018342Y014607D01*
X018399Y014663D01*
X018399Y014833D01*
X018455Y014833D02*
X018285Y014833D01*
X018455Y014833D02*
X018512Y014777D01*
X018512Y014663D01*
X018455Y014465D02*
X018285Y014465D01*
X018285Y014352D02*
X018455Y014352D01*
X018512Y014408D01*
X018455Y014465D01*
X018455Y014352D02*
X018512Y014295D01*
X018512Y014238D01*
X018285Y014238D01*
X018285Y014097D02*
X018512Y013870D01*
X018625Y013728D02*
X018285Y013502D01*
X018342Y013360D02*
X018285Y013303D01*
X018285Y013133D01*
X018399Y013190D02*
X018455Y013133D01*
X018512Y013190D01*
X018512Y013360D01*
X018399Y013303D02*
X018342Y013360D01*
X018399Y013303D02*
X018399Y013190D01*
X018512Y013001D02*
X018512Y012888D01*
X018569Y012944D02*
X018342Y012944D01*
X018285Y013001D01*
X018285Y012746D02*
X018285Y012576D01*
X018342Y012519D01*
X018455Y012519D01*
X018512Y012576D01*
X018512Y012746D01*
X018455Y012378D02*
X018399Y012378D01*
X018399Y012151D01*
X018455Y012151D02*
X018512Y012208D01*
X018512Y012321D01*
X018455Y012378D01*
X018285Y012321D02*
X018285Y012208D01*
X018342Y012151D01*
X018455Y012151D01*
X018512Y012019D02*
X018228Y012019D01*
X018172Y011962D01*
X018172Y011906D01*
X018342Y011764D02*
X018285Y011707D01*
X018285Y011594D01*
X018342Y011537D01*
X018455Y011537D01*
X018512Y011594D01*
X018512Y011707D01*
X018455Y011764D01*
X018342Y011764D01*
X018625Y012019D02*
X018682Y012019D01*
X018910Y012270D02*
X018910Y012383D01*
X018967Y012440D01*
X018967Y012581D02*
X018910Y012638D01*
X018910Y012808D01*
X019080Y012808D01*
X019137Y012751D01*
X019137Y012638D01*
X019024Y012638D02*
X019024Y012808D01*
X019024Y012638D02*
X018967Y012581D01*
X019194Y012440D02*
X019250Y012383D01*
X019250Y012270D01*
X019194Y012213D01*
X018967Y012213D01*
X018910Y012270D01*
X018910Y012949D02*
X019137Y012949D01*
X019137Y013120D01*
X019080Y013176D01*
X018910Y013176D01*
X018967Y013318D02*
X018910Y013374D01*
X018910Y013545D01*
X019250Y013545D01*
X019137Y013545D02*
X019137Y013374D01*
X019080Y013318D01*
X018967Y013318D01*
X018967Y013686D02*
X018910Y013743D01*
X018910Y013913D01*
X018853Y013913D02*
X018797Y013856D01*
X018797Y013800D01*
X018853Y013913D02*
X019137Y013913D01*
X019137Y013686D02*
X018967Y013686D01*
X018512Y014097D02*
X018285Y013870D01*
X018910Y014479D02*
X018910Y014593D01*
X018967Y014650D01*
X018967Y014791D02*
X018910Y014848D01*
X018910Y015018D01*
X019080Y015018D01*
X019137Y014961D01*
X019137Y014848D01*
X019024Y014848D02*
X019024Y015018D01*
X019024Y014848D02*
X018967Y014791D01*
X019194Y014650D02*
X019250Y014593D01*
X019250Y014479D01*
X019194Y014423D01*
X018967Y014423D01*
X018910Y014479D01*
X018910Y015159D02*
X019137Y015159D01*
X019137Y015329D01*
X019080Y015386D01*
X018910Y015386D01*
X018967Y015528D02*
X018910Y015584D01*
X018910Y015698D01*
X019024Y015754D02*
X019024Y015528D01*
X019080Y015528D02*
X019137Y015584D01*
X019137Y015698D01*
X019080Y015754D01*
X019024Y015754D01*
X019080Y015528D02*
X018967Y015528D01*
X018910Y016264D02*
X018910Y016491D01*
X018910Y016378D02*
X019250Y016378D01*
X019137Y016264D01*
X018967Y016633D02*
X018910Y016633D01*
X018910Y016689D01*
X018967Y016689D01*
X018967Y016633D01*
X018967Y016817D02*
X019194Y017044D01*
X018967Y017044D01*
X018910Y016987D01*
X018910Y016873D01*
X018967Y016817D01*
X019194Y016817D01*
X019250Y016873D01*
X019250Y016987D01*
X019194Y017044D01*
X018625Y016618D02*
X018569Y016675D01*
X018512Y016675D01*
X018455Y016618D01*
X018399Y016675D01*
X018342Y016675D01*
X018455Y016618D02*
X018455Y016561D01*
X018569Y016448D02*
X018625Y016505D01*
X018625Y016618D01*
X018512Y011401D02*
X018512Y011344D01*
X018399Y011230D01*
X018512Y011230D02*
X018285Y011230D01*
X018342Y011089D02*
X018285Y011032D01*
X018285Y010862D01*
X018172Y010862D02*
X018512Y010862D01*
X018512Y011032D01*
X018455Y011089D01*
X018342Y011089D01*
X018625Y010721D02*
X018285Y010494D01*
X018285Y010352D02*
X018285Y010182D01*
X018342Y010126D01*
X018399Y010182D01*
X018399Y010352D01*
X018455Y010352D02*
X018285Y010352D01*
X018455Y010352D02*
X018512Y010296D01*
X018512Y010182D01*
X018512Y009984D02*
X018512Y009814D01*
X018455Y009757D01*
X018342Y009757D01*
X018285Y009814D01*
X018285Y009984D01*
X018285Y009630D02*
X018285Y009573D01*
X018342Y009573D01*
X018342Y009630D01*
X018285Y009630D01*
X018342Y009432D02*
X018285Y009375D01*
X018285Y009205D01*
X018399Y009261D02*
X018399Y009375D01*
X018342Y009432D01*
X018512Y009432D02*
X018512Y009261D01*
X018455Y009205D01*
X018399Y009261D01*
X018455Y009063D02*
X018512Y009007D01*
X018512Y008836D01*
X018625Y008836D02*
X018285Y008836D01*
X018285Y009007D01*
X018342Y009063D01*
X018455Y009063D01*
X018455Y008695D02*
X018285Y008695D01*
X018285Y008525D01*
X018342Y008468D01*
X018399Y008525D01*
X018399Y008695D01*
X018455Y008695D02*
X018512Y008638D01*
X018512Y008525D01*
X018625Y008279D02*
X018285Y008279D01*
X018285Y008223D02*
X018285Y008336D01*
X018455Y008081D02*
X018455Y007854D01*
X018512Y007713D02*
X018512Y007543D01*
X018455Y007486D01*
X018399Y007543D01*
X018399Y007656D01*
X018342Y007713D01*
X018285Y007656D01*
X018285Y007486D01*
X018285Y007118D02*
X018625Y007345D01*
X018625Y006976D02*
X018285Y006749D01*
X018285Y006622D02*
X018285Y006565D01*
X018342Y006565D01*
X018342Y006622D01*
X018285Y006622D01*
X018455Y006622D02*
X018455Y006565D01*
X018512Y006565D01*
X018512Y006622D01*
X018455Y006622D01*
X018455Y006424D02*
X018342Y006424D01*
X018285Y006367D01*
X018285Y006197D01*
X018172Y006197D02*
X018512Y006197D01*
X018512Y006367D01*
X018455Y006424D01*
X018512Y006065D02*
X018512Y005951D01*
X018569Y006008D02*
X018342Y006008D01*
X018285Y006065D01*
X018285Y005819D02*
X018342Y005763D01*
X018569Y005763D01*
X018512Y005819D02*
X018512Y005706D01*
X018455Y005565D02*
X018285Y005565D01*
X018455Y005565D02*
X018512Y005508D01*
X018512Y005394D01*
X018455Y005338D01*
X018625Y005338D02*
X018285Y005338D01*
X018625Y008223D02*
X018625Y008279D01*
X004905Y006505D02*
X004905Y005805D01*
X004903Y005788D01*
X004899Y005771D01*
X004892Y005755D01*
X004882Y005741D01*
X004869Y005728D01*
X004855Y005718D01*
X004839Y005711D01*
X004822Y005707D01*
X004805Y005705D01*
X004655Y005705D01*
X004605Y005755D01*
X002705Y005755D01*
X002655Y005705D01*
X002505Y005705D01*
X002488Y005707D01*
X002471Y005711D01*
X002455Y005718D01*
X002441Y005728D01*
X002428Y005741D01*
X002418Y005755D01*
X002411Y005771D01*
X002407Y005788D01*
X002405Y005805D01*
X002405Y006505D01*
X002407Y006522D01*
X002411Y006539D01*
X002418Y006555D01*
X002428Y006569D01*
X002441Y006582D01*
X002455Y006592D01*
X002471Y006599D01*
X002488Y006603D01*
X002505Y006605D01*
X002655Y006605D01*
X002705Y006555D01*
X004605Y006555D01*
X004655Y006605D01*
X004805Y006605D01*
X004822Y006603D01*
X004839Y006599D01*
X004855Y006592D01*
X004869Y006582D01*
X004882Y006569D01*
X004892Y006555D01*
X004899Y006539D01*
X004903Y006522D01*
X004905Y006505D01*
X004825Y006785D02*
X004825Y007125D01*
X004655Y007125D01*
X004598Y007069D01*
X004598Y006955D01*
X004655Y006899D01*
X004825Y006899D01*
X004712Y006899D02*
X004598Y006785D01*
X004457Y006785D02*
X004230Y006785D01*
X004343Y006785D02*
X004343Y007125D01*
X004457Y007012D01*
X004105Y007255D02*
X004105Y008055D01*
X004103Y008072D01*
X004099Y008089D01*
X004092Y008105D01*
X004082Y008119D01*
X004069Y008132D01*
X004055Y008142D01*
X004039Y008149D01*
X004022Y008153D01*
X004005Y008155D01*
X001305Y008155D01*
X001288Y008153D01*
X001271Y008149D01*
X001255Y008142D01*
X001241Y008132D01*
X001228Y008119D01*
X001218Y008105D01*
X001211Y008089D01*
X001207Y008072D01*
X001205Y008055D01*
X001205Y007255D01*
X001207Y007238D01*
X001211Y007221D01*
X001218Y007205D01*
X001228Y007191D01*
X001241Y007178D01*
X001255Y007168D01*
X001271Y007161D01*
X001288Y007157D01*
X001305Y007155D01*
X004005Y007155D01*
X004022Y007157D01*
X004039Y007161D01*
X004055Y007168D01*
X004069Y007178D01*
X004082Y007191D01*
X004092Y007205D01*
X004099Y007221D01*
X004103Y007238D01*
X004105Y007255D01*
X003255Y007655D02*
X002785Y007655D01*
X002535Y007655D02*
X002055Y007655D01*
X002193Y008335D02*
X002193Y008505D01*
X002250Y008562D01*
X002420Y008562D01*
X002420Y008335D01*
X002562Y008392D02*
X002562Y008619D01*
X002789Y008392D01*
X002732Y008335D01*
X002618Y008335D01*
X002562Y008392D01*
X002789Y008392D02*
X002789Y008619D01*
X002732Y008675D01*
X002618Y008675D01*
X002562Y008619D01*
X002930Y008619D02*
X002930Y008392D01*
X002987Y008335D01*
X003100Y008335D01*
X003157Y008392D01*
X002930Y008619D01*
X002987Y008675D01*
X003100Y008675D01*
X003157Y008619D01*
X003157Y008392D01*
X003298Y008335D02*
X003525Y008335D01*
X003412Y008335D02*
X003412Y008675D01*
X003525Y008562D01*
X003468Y009035D02*
X003355Y009035D01*
X003298Y009092D01*
X003157Y009035D02*
X002930Y009035D01*
X003043Y009035D02*
X003043Y009375D01*
X003157Y009262D01*
X003298Y009319D02*
X003355Y009375D01*
X003468Y009375D01*
X003525Y009319D01*
X003525Y009092D01*
X003468Y009035D01*
X003552Y006275D02*
X003779Y006049D01*
X003722Y006105D02*
X003552Y005935D01*
X003779Y005935D02*
X003779Y006275D01*
X003920Y006275D02*
X003920Y006219D01*
X004147Y005992D01*
X004147Y005935D01*
X004345Y005935D02*
X004345Y006275D01*
X004515Y006105D01*
X004288Y006105D01*
X004147Y006275D02*
X003920Y006275D01*
X004012Y005635D02*
X004125Y005635D01*
X004068Y005635D02*
X004068Y005295D01*
X004012Y005295D02*
X004125Y005295D01*
X004255Y005155D02*
X004255Y001155D01*
X002055Y001155D01*
X002055Y005155D01*
X002905Y005155D01*
X002907Y005125D01*
X002912Y005095D01*
X002921Y005066D01*
X002934Y005039D01*
X002949Y005013D01*
X002968Y004989D01*
X002989Y004968D01*
X003013Y004949D01*
X003039Y004934D01*
X003066Y004921D01*
X003095Y004912D01*
X003125Y004907D01*
X003155Y004905D01*
X003185Y004907D01*
X003215Y004912D01*
X003244Y004921D01*
X003271Y004934D01*
X003297Y004949D01*
X003321Y004968D01*
X003342Y004989D01*
X003361Y005013D01*
X003376Y005039D01*
X003389Y005066D01*
X003398Y005095D01*
X003403Y005125D01*
X003405Y005155D01*
X004255Y005155D01*
X003880Y005352D02*
X003880Y005579D01*
X003823Y005635D01*
X003709Y005635D01*
X003653Y005579D01*
X003511Y005522D02*
X003398Y005635D01*
X003398Y005295D01*
X003511Y005295D02*
X003284Y005295D01*
X003653Y005352D02*
X003709Y005295D01*
X003823Y005295D01*
X003880Y005352D01*
D12*
X005075Y006155D03*
X002235Y006155D03*
D13*
X002535Y007405D02*
X002535Y007655D01*
X002535Y007905D01*
X002785Y007905D02*
X002785Y007655D01*
X002785Y007405D01*
M02*
