G75*
G70*
%OFA0B0*%
%FSLAX24Y24*%
%IPPOS*%
%LPD*%
%AMOC8*
5,1,8,0,0,1.08239X$1,22.5*
%
%ADD10C,0.0000*%
%ADD11OC8,0.0520*%
%ADD12C,0.0520*%
%ADD13C,0.0600*%
%ADD14C,0.0660*%
%ADD15C,0.0100*%
%ADD16C,0.0357*%
%ADD17C,0.0160*%
D10*
X000655Y001655D02*
X000655Y019155D01*
X000657Y019215D01*
X000662Y019276D01*
X000671Y019335D01*
X000684Y019394D01*
X000700Y019453D01*
X000720Y019510D01*
X000743Y019565D01*
X000770Y019620D01*
X000799Y019672D01*
X000832Y019723D01*
X000868Y019772D01*
X000906Y019818D01*
X000948Y019862D01*
X000992Y019904D01*
X001038Y019942D01*
X001087Y019978D01*
X001138Y020011D01*
X001190Y020040D01*
X001245Y020067D01*
X001300Y020090D01*
X001357Y020110D01*
X001416Y020126D01*
X001475Y020139D01*
X001534Y020148D01*
X001595Y020153D01*
X001655Y020155D01*
X019155Y020155D01*
X019215Y020153D01*
X019276Y020148D01*
X019335Y020139D01*
X019394Y020126D01*
X019453Y020110D01*
X019510Y020090D01*
X019565Y020067D01*
X019620Y020040D01*
X019672Y020011D01*
X019723Y019978D01*
X019772Y019942D01*
X019818Y019904D01*
X019862Y019862D01*
X019904Y019818D01*
X019942Y019772D01*
X019978Y019723D01*
X020011Y019672D01*
X020040Y019620D01*
X020067Y019565D01*
X020090Y019510D01*
X020110Y019453D01*
X020126Y019394D01*
X020139Y019335D01*
X020148Y019276D01*
X020153Y019215D01*
X020155Y019155D01*
X020155Y001655D01*
X020153Y001595D01*
X020148Y001534D01*
X020139Y001475D01*
X020126Y001416D01*
X020110Y001357D01*
X020090Y001300D01*
X020067Y001245D01*
X020040Y001190D01*
X020011Y001138D01*
X019978Y001087D01*
X019942Y001038D01*
X019904Y000992D01*
X019862Y000948D01*
X019818Y000906D01*
X019772Y000868D01*
X019723Y000832D01*
X019672Y000799D01*
X019620Y000770D01*
X019565Y000743D01*
X019510Y000720D01*
X019453Y000700D01*
X019394Y000684D01*
X019335Y000671D01*
X019276Y000662D01*
X019215Y000657D01*
X019155Y000655D01*
X001655Y000655D01*
X001595Y000657D01*
X001534Y000662D01*
X001475Y000671D01*
X001416Y000684D01*
X001357Y000700D01*
X001300Y000720D01*
X001245Y000743D01*
X001190Y000770D01*
X001138Y000799D01*
X001087Y000832D01*
X001038Y000868D01*
X000992Y000906D01*
X000948Y000948D01*
X000906Y000992D01*
X000868Y001038D01*
X000832Y001087D01*
X000799Y001138D01*
X000770Y001190D01*
X000743Y001245D01*
X000720Y001300D01*
X000700Y001357D01*
X000684Y001416D01*
X000671Y001475D01*
X000662Y001534D01*
X000657Y001595D01*
X000655Y001655D01*
X002183Y018155D02*
X002185Y018198D01*
X002191Y018240D01*
X002201Y018282D01*
X002214Y018323D01*
X002231Y018363D01*
X002252Y018400D01*
X002276Y018436D01*
X002303Y018469D01*
X002333Y018500D01*
X002366Y018528D01*
X002401Y018553D01*
X002438Y018574D01*
X002477Y018592D01*
X002517Y018606D01*
X002559Y018617D01*
X002601Y018624D01*
X002644Y018627D01*
X002687Y018626D01*
X002730Y018621D01*
X002772Y018612D01*
X002813Y018600D01*
X002853Y018584D01*
X002891Y018564D01*
X002927Y018541D01*
X002961Y018514D01*
X002993Y018485D01*
X003021Y018453D01*
X003047Y018418D01*
X003069Y018382D01*
X003088Y018343D01*
X003103Y018303D01*
X003115Y018262D01*
X003123Y018219D01*
X003127Y018176D01*
X003127Y018134D01*
X003123Y018091D01*
X003115Y018048D01*
X003103Y018007D01*
X003088Y017967D01*
X003069Y017928D01*
X003047Y017892D01*
X003021Y017857D01*
X002993Y017825D01*
X002961Y017796D01*
X002927Y017769D01*
X002891Y017746D01*
X002853Y017726D01*
X002813Y017710D01*
X002772Y017698D01*
X002730Y017689D01*
X002687Y017684D01*
X002644Y017683D01*
X002601Y017686D01*
X002559Y017693D01*
X002517Y017704D01*
X002477Y017718D01*
X002438Y017736D01*
X002401Y017757D01*
X002366Y017782D01*
X002333Y017810D01*
X002303Y017841D01*
X002276Y017874D01*
X002252Y017910D01*
X002231Y017947D01*
X002214Y017987D01*
X002201Y018028D01*
X002191Y018070D01*
X002185Y018112D01*
X002183Y018155D01*
X008840Y019155D02*
X008842Y019190D01*
X008848Y019225D01*
X008858Y019259D01*
X008871Y019292D01*
X008888Y019323D01*
X008909Y019351D01*
X008932Y019378D01*
X008959Y019401D01*
X008987Y019422D01*
X009018Y019439D01*
X009051Y019452D01*
X009085Y019462D01*
X009120Y019468D01*
X009155Y019470D01*
X009190Y019468D01*
X009225Y019462D01*
X009259Y019452D01*
X009292Y019439D01*
X009323Y019422D01*
X009351Y019401D01*
X009378Y019378D01*
X009401Y019351D01*
X009422Y019323D01*
X009439Y019292D01*
X009452Y019259D01*
X009462Y019225D01*
X009468Y019190D01*
X009470Y019155D01*
X009468Y019120D01*
X009462Y019085D01*
X009452Y019051D01*
X009439Y019018D01*
X009422Y018987D01*
X009401Y018959D01*
X009378Y018932D01*
X009351Y018909D01*
X009323Y018888D01*
X009292Y018871D01*
X009259Y018858D01*
X009225Y018848D01*
X009190Y018842D01*
X009155Y018840D01*
X009120Y018842D01*
X009085Y018848D01*
X009051Y018858D01*
X009018Y018871D01*
X008987Y018888D01*
X008959Y018909D01*
X008932Y018932D01*
X008909Y018959D01*
X008888Y018987D01*
X008871Y019018D01*
X008858Y019051D01*
X008848Y019085D01*
X008842Y019120D01*
X008840Y019155D01*
X011340Y019155D02*
X011342Y019190D01*
X011348Y019225D01*
X011358Y019259D01*
X011371Y019292D01*
X011388Y019323D01*
X011409Y019351D01*
X011432Y019378D01*
X011459Y019401D01*
X011487Y019422D01*
X011518Y019439D01*
X011551Y019452D01*
X011585Y019462D01*
X011620Y019468D01*
X011655Y019470D01*
X011690Y019468D01*
X011725Y019462D01*
X011759Y019452D01*
X011792Y019439D01*
X011823Y019422D01*
X011851Y019401D01*
X011878Y019378D01*
X011901Y019351D01*
X011922Y019323D01*
X011939Y019292D01*
X011952Y019259D01*
X011962Y019225D01*
X011968Y019190D01*
X011970Y019155D01*
X011968Y019120D01*
X011962Y019085D01*
X011952Y019051D01*
X011939Y019018D01*
X011922Y018987D01*
X011901Y018959D01*
X011878Y018932D01*
X011851Y018909D01*
X011823Y018888D01*
X011792Y018871D01*
X011759Y018858D01*
X011725Y018848D01*
X011690Y018842D01*
X011655Y018840D01*
X011620Y018842D01*
X011585Y018848D01*
X011551Y018858D01*
X011518Y018871D01*
X011487Y018888D01*
X011459Y018909D01*
X011432Y018932D01*
X011409Y018959D01*
X011388Y018987D01*
X011371Y019018D01*
X011358Y019051D01*
X011348Y019085D01*
X011342Y019120D01*
X011340Y019155D01*
X017683Y018155D02*
X017685Y018198D01*
X017691Y018240D01*
X017701Y018282D01*
X017714Y018323D01*
X017731Y018363D01*
X017752Y018400D01*
X017776Y018436D01*
X017803Y018469D01*
X017833Y018500D01*
X017866Y018528D01*
X017901Y018553D01*
X017938Y018574D01*
X017977Y018592D01*
X018017Y018606D01*
X018059Y018617D01*
X018101Y018624D01*
X018144Y018627D01*
X018187Y018626D01*
X018230Y018621D01*
X018272Y018612D01*
X018313Y018600D01*
X018353Y018584D01*
X018391Y018564D01*
X018427Y018541D01*
X018461Y018514D01*
X018493Y018485D01*
X018521Y018453D01*
X018547Y018418D01*
X018569Y018382D01*
X018588Y018343D01*
X018603Y018303D01*
X018615Y018262D01*
X018623Y018219D01*
X018627Y018176D01*
X018627Y018134D01*
X018623Y018091D01*
X018615Y018048D01*
X018603Y018007D01*
X018588Y017967D01*
X018569Y017928D01*
X018547Y017892D01*
X018521Y017857D01*
X018493Y017825D01*
X018461Y017796D01*
X018427Y017769D01*
X018391Y017746D01*
X018353Y017726D01*
X018313Y017710D01*
X018272Y017698D01*
X018230Y017689D01*
X018187Y017684D01*
X018144Y017683D01*
X018101Y017686D01*
X018059Y017693D01*
X018017Y017704D01*
X017977Y017718D01*
X017938Y017736D01*
X017901Y017757D01*
X017866Y017782D01*
X017833Y017810D01*
X017803Y017841D01*
X017776Y017874D01*
X017752Y017910D01*
X017731Y017947D01*
X017714Y017987D01*
X017701Y018028D01*
X017691Y018070D01*
X017685Y018112D01*
X017683Y018155D01*
D11*
X012655Y014155D03*
X011655Y014155D03*
X011030Y015405D03*
X010030Y015405D03*
X009530Y016530D03*
X008530Y016530D03*
X007780Y017030D03*
X006780Y017030D03*
X005905Y016405D03*
X004905Y016405D03*
X004655Y015155D03*
X003655Y015155D03*
X003405Y013405D03*
X004405Y013405D03*
X004530Y012030D03*
X005530Y012030D03*
X006155Y010780D03*
X007155Y010780D03*
X007780Y009530D03*
X008780Y009530D03*
X009280Y008530D03*
X010280Y008530D03*
X010655Y007530D03*
X011655Y007530D03*
X012030Y006530D03*
X013030Y006530D03*
X013405Y005405D03*
X014405Y005405D03*
X014905Y004530D03*
X015905Y004530D03*
X016280Y003405D03*
X017280Y003405D03*
X005655Y006155D03*
X003655Y007655D03*
X001655Y007655D03*
X001655Y006155D03*
D12*
X001915Y004655D02*
X001395Y004655D01*
X001395Y003655D02*
X001915Y003655D01*
X001915Y002655D02*
X001395Y002655D01*
X001395Y001655D02*
X001915Y001655D01*
X004395Y001655D02*
X004915Y001655D01*
X004915Y002655D02*
X004395Y002655D01*
X004395Y003655D02*
X004915Y003655D01*
X004915Y004655D02*
X004395Y004655D01*
D13*
X017265Y006075D02*
X017265Y006675D01*
X019045Y006675D02*
X019045Y006075D01*
X019045Y008635D02*
X019045Y009235D01*
X017265Y009235D02*
X017265Y008635D01*
D14*
X013655Y019155D03*
X007155Y019155D03*
D15*
X000951Y001296D02*
X001096Y001096D01*
X001296Y000951D01*
X001532Y000875D01*
X001655Y000865D01*
X019155Y000865D01*
X019279Y000875D01*
X019514Y000951D01*
X019714Y001096D01*
X019859Y001296D01*
X019935Y001531D01*
X019945Y001655D01*
X019945Y019068D01*
X019945Y019119D01*
X019945Y019155D01*
X019935Y019279D01*
X019859Y019514D01*
X019714Y019714D01*
X019514Y019859D01*
X019279Y019935D01*
X019155Y019945D01*
X001742Y019945D01*
X001717Y019945D01*
X001655Y019945D01*
X001532Y019935D01*
X001296Y019859D01*
X001096Y019714D01*
X000951Y019514D01*
X000875Y019279D01*
X000865Y019155D01*
X000865Y001742D01*
X000865Y001725D01*
X000865Y001655D01*
X000875Y001532D01*
X000951Y001296D01*
X000935Y001345D02*
X001041Y001345D01*
X000997Y001389D02*
X001129Y001257D01*
X001302Y001185D01*
X002009Y001185D01*
X002181Y001257D01*
X002314Y001389D01*
X002385Y001562D01*
X002385Y001749D01*
X002314Y001921D01*
X002181Y002054D01*
X002009Y002125D01*
X001302Y002125D01*
X001129Y002054D01*
X000997Y001921D01*
X000925Y001749D01*
X000925Y001562D01*
X000997Y001389D01*
X000974Y001443D02*
X000903Y001443D01*
X000874Y001542D02*
X000933Y001542D01*
X000925Y001641D02*
X000866Y001641D01*
X000865Y001739D02*
X000925Y001739D01*
X000962Y001838D02*
X000865Y001838D01*
X000865Y001936D02*
X001011Y001936D01*
X001110Y002035D02*
X000865Y002035D01*
X000865Y002133D02*
X003395Y002133D01*
X003395Y002035D02*
X002200Y002035D01*
X002299Y001936D02*
X003395Y001936D01*
X003395Y001838D02*
X002348Y001838D01*
X002385Y001739D02*
X003395Y001739D01*
X003395Y001641D02*
X002385Y001641D01*
X002377Y001542D02*
X003421Y001542D01*
X003435Y001508D02*
X003508Y001435D01*
X003935Y001008D01*
X004008Y000935D01*
X004103Y000895D01*
X017603Y000895D01*
X017707Y000895D01*
X017802Y000935D01*
X019266Y002398D01*
X019305Y002493D01*
X019305Y002597D01*
X019305Y005631D01*
X019334Y005643D01*
X019477Y005786D01*
X019555Y005974D01*
X019555Y006777D01*
X019477Y006964D01*
X019334Y007107D01*
X019305Y007119D01*
X019305Y008191D01*
X019334Y008203D01*
X019477Y008346D01*
X019555Y008534D01*
X019555Y009337D01*
X019477Y009524D01*
X019945Y009524D01*
X019945Y009425D02*
X019518Y009425D01*
X019555Y009327D02*
X019945Y009327D01*
X019945Y009228D02*
X019555Y009228D01*
X019555Y009130D02*
X019945Y009130D01*
X019945Y009031D02*
X019555Y009031D01*
X019555Y008933D02*
X019945Y008933D01*
X019945Y008834D02*
X019555Y008834D01*
X019555Y008736D02*
X019945Y008736D01*
X019945Y008637D02*
X019555Y008637D01*
X019555Y008539D02*
X019945Y008539D01*
X019945Y008440D02*
X019516Y008440D01*
X019473Y008341D02*
X019945Y008341D01*
X019945Y008243D02*
X019374Y008243D01*
X019305Y008144D02*
X019945Y008144D01*
X019945Y008046D02*
X019305Y008046D01*
X019305Y007947D02*
X019945Y007947D01*
X019945Y007849D02*
X019305Y007849D01*
X019305Y007750D02*
X019945Y007750D01*
X019945Y007652D02*
X019305Y007652D01*
X019305Y007553D02*
X019945Y007553D01*
X019945Y007455D02*
X019305Y007455D01*
X019305Y007356D02*
X019945Y007356D01*
X019945Y007258D02*
X019305Y007258D01*
X019305Y007159D02*
X019945Y007159D01*
X019945Y007060D02*
X019381Y007060D01*
X019478Y006962D02*
X019945Y006962D01*
X019945Y006863D02*
X019519Y006863D01*
X019555Y006765D02*
X019945Y006765D01*
X019945Y006666D02*
X019555Y006666D01*
X019555Y006568D02*
X019945Y006568D01*
X019945Y006469D02*
X019555Y006469D01*
X019555Y006371D02*
X019945Y006371D01*
X019945Y006272D02*
X019555Y006272D01*
X019555Y006174D02*
X019945Y006174D01*
X019945Y006075D02*
X019555Y006075D01*
X019555Y005976D02*
X019945Y005976D01*
X019945Y005878D02*
X019515Y005878D01*
X019471Y005779D02*
X019945Y005779D01*
X019945Y005681D02*
X019372Y005681D01*
X019305Y005582D02*
X019945Y005582D01*
X019945Y005484D02*
X019305Y005484D01*
X019305Y005385D02*
X019945Y005385D01*
X019945Y005287D02*
X019305Y005287D01*
X019305Y005188D02*
X019945Y005188D01*
X019945Y005090D02*
X019305Y005090D01*
X019305Y004991D02*
X019945Y004991D01*
X019945Y004892D02*
X019305Y004892D01*
X019305Y004794D02*
X019945Y004794D01*
X019945Y004695D02*
X019305Y004695D01*
X019305Y004597D02*
X019945Y004597D01*
X019945Y004498D02*
X019305Y004498D01*
X019305Y004400D02*
X019945Y004400D01*
X019945Y004301D02*
X019305Y004301D01*
X019305Y004203D02*
X019945Y004203D01*
X019945Y004104D02*
X019305Y004104D01*
X019305Y004006D02*
X019945Y004006D01*
X019945Y003907D02*
X019305Y003907D01*
X019305Y003809D02*
X019945Y003809D01*
X019945Y003710D02*
X019305Y003710D01*
X019305Y003611D02*
X019945Y003611D01*
X019945Y003513D02*
X019305Y003513D01*
X019305Y003414D02*
X019945Y003414D01*
X019945Y003316D02*
X019305Y003316D01*
X019305Y003217D02*
X019945Y003217D01*
X019945Y003119D02*
X019305Y003119D01*
X019305Y003020D02*
X019945Y003020D01*
X019945Y002922D02*
X019305Y002922D01*
X019305Y002823D02*
X019945Y002823D01*
X019945Y002725D02*
X019305Y002725D01*
X019305Y002626D02*
X019945Y002626D01*
X019945Y002527D02*
X019305Y002527D01*
X019278Y002429D02*
X019945Y002429D01*
X019945Y002330D02*
X019198Y002330D01*
X019099Y002232D02*
X019945Y002232D01*
X019945Y002133D02*
X019001Y002133D01*
X018902Y002035D02*
X019945Y002035D01*
X019945Y001936D02*
X018804Y001936D01*
X018705Y001838D02*
X019945Y001838D01*
X019945Y001739D02*
X018607Y001739D01*
X018508Y001641D02*
X019944Y001641D01*
X019936Y001542D02*
X018410Y001542D01*
X018311Y001443D02*
X019907Y001443D01*
X019875Y001345D02*
X018213Y001345D01*
X018114Y001246D02*
X019823Y001246D01*
X019751Y001148D02*
X018016Y001148D01*
X017917Y001049D02*
X019649Y001049D01*
X019512Y000951D02*
X017818Y000951D01*
X017655Y001155D02*
X019045Y002545D01*
X019045Y006375D01*
X019045Y008935D01*
X018535Y008933D02*
X017315Y008933D01*
X017315Y008885D02*
X017315Y008985D01*
X017215Y008985D01*
X017215Y008885D01*
X016815Y008885D01*
X016815Y008600D01*
X016826Y008530D01*
X016848Y008462D01*
X016880Y008399D01*
X016922Y008342D01*
X016972Y008292D01*
X017029Y008250D01*
X017092Y008218D01*
X017160Y008196D01*
X017215Y008187D01*
X017215Y008885D01*
X017315Y008885D01*
X017315Y008187D01*
X017370Y008196D01*
X017438Y008218D01*
X017501Y008250D01*
X017558Y008292D01*
X017608Y008342D01*
X017650Y008399D01*
X017682Y008462D01*
X017704Y008530D01*
X017715Y008600D01*
X017715Y008885D01*
X017315Y008885D01*
X017315Y008834D02*
X017215Y008834D01*
X017215Y008736D02*
X017315Y008736D01*
X017315Y008637D02*
X017215Y008637D01*
X017215Y008539D02*
X017315Y008539D01*
X017315Y008440D02*
X017215Y008440D01*
X017215Y008341D02*
X017315Y008341D01*
X017315Y008243D02*
X017215Y008243D01*
X017044Y008243D02*
X011310Y008243D01*
X011408Y008144D02*
X018785Y008144D01*
X018785Y008191D02*
X018785Y007119D01*
X018756Y007107D01*
X018613Y006964D01*
X018535Y006777D01*
X018535Y005974D01*
X018613Y005786D01*
X018756Y005643D01*
X018785Y005631D01*
X018785Y002653D01*
X017547Y001415D01*
X005247Y001415D01*
X005266Y001440D01*
X005295Y001498D01*
X005315Y001559D01*
X005325Y001623D01*
X005325Y001625D01*
X004685Y001625D01*
X004685Y001685D01*
X004625Y001685D01*
X004625Y002065D01*
X004363Y002065D01*
X004299Y002055D01*
X004238Y002035D01*
X004180Y002006D01*
X004128Y001968D01*
X004082Y001922D01*
X004044Y001870D01*
X004015Y001812D01*
X003995Y001751D01*
X003986Y001692D01*
X003915Y001763D01*
X003915Y004395D01*
X003994Y004395D01*
X003997Y004389D01*
X004129Y004257D01*
X004302Y004185D01*
X005009Y004185D01*
X005181Y004257D01*
X005314Y004389D01*
X005385Y004562D01*
X005385Y004749D01*
X005314Y004921D01*
X005181Y005054D01*
X005009Y005125D01*
X004302Y005125D01*
X004129Y005054D01*
X003997Y004921D01*
X003994Y004915D01*
X003915Y004915D01*
X003915Y005047D01*
X004763Y005895D01*
X005250Y005895D01*
X005460Y005685D01*
X005850Y005685D01*
X006125Y005960D01*
X006125Y006350D01*
X005850Y006625D01*
X005460Y006625D01*
X005250Y006415D01*
X004603Y006415D01*
X004508Y006376D01*
X004435Y006302D01*
X003435Y005302D01*
X003395Y005207D01*
X003395Y005103D01*
X003395Y004707D01*
X003395Y004603D01*
X003395Y001603D01*
X003435Y001508D01*
X003499Y001443D02*
X002336Y001443D01*
X002270Y001345D02*
X003598Y001345D01*
X003508Y001435D02*
X003508Y001435D01*
X003655Y001655D02*
X003655Y004655D01*
X004655Y004655D01*
X004259Y004203D02*
X003915Y004203D01*
X003915Y004301D02*
X004084Y004301D01*
X004129Y004054D02*
X003997Y003921D01*
X003925Y003749D01*
X003925Y003562D01*
X003997Y003389D01*
X004129Y003257D01*
X004302Y003185D01*
X005009Y003185D01*
X005181Y003257D01*
X005314Y003389D01*
X005385Y003562D01*
X005385Y003749D01*
X005314Y003921D01*
X005181Y004054D01*
X005009Y004125D01*
X004302Y004125D01*
X004129Y004054D01*
X004081Y004006D02*
X003915Y004006D01*
X003915Y004104D02*
X004251Y004104D01*
X003991Y003907D02*
X003915Y003907D01*
X003915Y003809D02*
X003950Y003809D01*
X003925Y003710D02*
X003915Y003710D01*
X003915Y003611D02*
X003925Y003611D01*
X003915Y003513D02*
X003945Y003513D01*
X003915Y003414D02*
X003986Y003414D01*
X003915Y003316D02*
X004070Y003316D01*
X003915Y003217D02*
X004224Y003217D01*
X004286Y003119D02*
X003915Y003119D01*
X003915Y003020D02*
X004095Y003020D01*
X004129Y003054D02*
X003997Y002921D01*
X003925Y002749D01*
X003925Y002562D01*
X003997Y002389D01*
X004129Y002257D01*
X004302Y002185D01*
X005009Y002185D01*
X005181Y002257D01*
X005314Y002389D01*
X005385Y002562D01*
X005385Y002749D01*
X005314Y002921D01*
X005181Y003054D01*
X005009Y003125D01*
X004302Y003125D01*
X004129Y003054D01*
X003997Y002922D02*
X003915Y002922D01*
X003915Y002823D02*
X003956Y002823D01*
X003925Y002725D02*
X003915Y002725D01*
X003915Y002626D02*
X003925Y002626D01*
X003915Y002527D02*
X003939Y002527D01*
X003915Y002429D02*
X003980Y002429D01*
X003915Y002330D02*
X004055Y002330D01*
X004189Y002232D02*
X003915Y002232D01*
X003915Y002133D02*
X007267Y002133D01*
X007267Y002078D02*
X007267Y002232D01*
X005121Y002232D01*
X005255Y002330D02*
X007307Y002330D01*
X007326Y002375D02*
X007267Y002232D01*
X007267Y002078D02*
X007326Y001935D01*
X007435Y001826D01*
X007578Y001767D01*
X007732Y001767D01*
X007875Y001826D01*
X007944Y001895D01*
X008103Y001895D01*
X008207Y001895D01*
X008302Y001935D01*
X011655Y005287D01*
X013758Y003185D01*
X013853Y003145D01*
X013957Y003145D01*
X015875Y003145D01*
X016085Y002935D01*
X016442Y002935D01*
X016422Y002915D01*
X011763Y002915D01*
X011544Y003134D01*
X011544Y003232D01*
X011484Y003375D01*
X011375Y003484D01*
X011232Y003544D01*
X011078Y003544D01*
X010935Y003484D01*
X010826Y003375D01*
X010767Y003232D01*
X010767Y003078D01*
X010826Y002935D01*
X010935Y002826D01*
X011078Y002767D01*
X011176Y002767D01*
X011435Y002508D01*
X011508Y002435D01*
X011603Y002395D01*
X016478Y002395D01*
X016582Y002395D01*
X016677Y002435D01*
X017178Y002935D01*
X017475Y002935D01*
X017750Y003210D01*
X017750Y003600D01*
X017475Y003875D01*
X017178Y003875D01*
X016376Y004677D01*
X016375Y004678D01*
X016375Y004725D01*
X016100Y005000D01*
X015803Y005000D01*
X015177Y005626D01*
X015082Y005665D01*
X014978Y005665D01*
X014810Y005665D01*
X014600Y005875D01*
X014303Y005875D01*
X013500Y006678D01*
X013500Y006725D01*
X013225Y007000D01*
X012835Y007000D01*
X012790Y006955D01*
X012790Y007103D01*
X012790Y007207D01*
X012751Y007302D01*
X012376Y007677D01*
X012302Y007751D01*
X012207Y007790D01*
X012060Y007790D01*
X011850Y008000D01*
X011553Y008000D01*
X010876Y008677D01*
X010802Y008751D01*
X010707Y008790D01*
X010685Y008790D01*
X010475Y009000D01*
X010178Y009000D01*
X009501Y009677D01*
X009427Y009751D01*
X009332Y009790D01*
X009185Y009790D01*
X008975Y010000D01*
X008678Y010000D01*
X007898Y010780D01*
X010009Y012892D01*
X010107Y012892D01*
X010250Y012951D01*
X010359Y013060D01*
X010419Y013203D01*
X010419Y013357D01*
X010359Y013500D01*
X010250Y013609D01*
X010107Y013669D01*
X009953Y013669D01*
X009810Y013609D01*
X009701Y013500D01*
X009642Y013357D01*
X009642Y013259D01*
X007491Y011109D01*
X007350Y011250D01*
X006960Y011250D01*
X006685Y010975D01*
X006685Y010585D01*
X006960Y010310D01*
X007350Y010310D01*
X007491Y010451D01*
X007942Y010000D01*
X007585Y010000D01*
X007375Y009790D01*
X006638Y009790D01*
X006118Y010310D01*
X006350Y010310D01*
X006625Y010585D01*
X006625Y010975D01*
X006415Y011185D01*
X006415Y013603D01*
X006415Y013707D01*
X006376Y013802D01*
X005544Y014634D01*
X005544Y014732D01*
X005484Y014875D01*
X005375Y014984D01*
X005232Y015044D01*
X005125Y015044D01*
X005125Y015257D01*
X005803Y015935D01*
X006007Y015935D01*
X008008Y013935D01*
X008103Y013895D01*
X008207Y013895D01*
X011250Y013895D01*
X011460Y013685D01*
X011850Y013685D01*
X012125Y013960D01*
X012125Y014317D01*
X012185Y014257D01*
X012185Y013960D01*
X012460Y013685D01*
X012850Y013685D01*
X013125Y013960D01*
X013125Y014350D01*
X012850Y014625D01*
X012553Y014625D01*
X011626Y015552D01*
X011626Y015552D01*
X011552Y015626D01*
X011457Y015665D01*
X011435Y015665D01*
X011225Y015875D01*
X010928Y015875D01*
X010126Y016677D01*
X010052Y016751D01*
X009957Y016790D01*
X009935Y016790D01*
X009725Y017000D01*
X009428Y017000D01*
X009177Y017251D01*
X009082Y017290D01*
X008978Y017290D01*
X008185Y017290D01*
X008040Y017435D01*
X008040Y017457D01*
X008001Y017552D01*
X007927Y017626D01*
X007427Y018126D01*
X007332Y018165D01*
X007228Y018165D01*
X005478Y018165D01*
X005383Y018126D01*
X005310Y018052D01*
X004685Y017427D01*
X004645Y017332D01*
X004645Y017228D01*
X004645Y016810D01*
X004435Y016600D01*
X004435Y016210D01*
X004710Y015935D01*
X005067Y015935D01*
X004757Y015625D01*
X004460Y015625D01*
X004185Y015350D01*
X004185Y015053D01*
X004185Y015052D01*
X004145Y014957D01*
X004145Y013810D01*
X003935Y013600D01*
X003935Y013210D01*
X004210Y012935D01*
X004257Y012935D01*
X004692Y012500D01*
X004335Y012500D01*
X004060Y012225D01*
X004060Y011835D01*
X004270Y011625D01*
X004270Y010603D01*
X004310Y010508D01*
X004383Y010435D01*
X007508Y007310D01*
X007603Y007270D01*
X007707Y007270D01*
X010250Y007270D01*
X010395Y007125D01*
X010395Y006903D01*
X010357Y006919D01*
X010203Y006919D01*
X010060Y006859D01*
X009991Y006790D01*
X007013Y006790D01*
X006552Y007251D01*
X006457Y007290D01*
X006353Y007290D01*
X004082Y007290D01*
X003978Y007290D01*
X003883Y007251D01*
X002508Y005876D01*
X002435Y005802D01*
X002395Y005707D01*
X002395Y004263D01*
X002184Y004051D01*
X002181Y004054D01*
X002009Y004125D01*
X001302Y004125D01*
X001129Y004054D01*
X000997Y003921D01*
X000925Y003749D01*
X000925Y003562D01*
X000997Y003389D01*
X001129Y003257D01*
X001302Y003185D01*
X002009Y003185D01*
X002181Y003257D01*
X002314Y003389D01*
X002354Y003486D01*
X002376Y003508D01*
X002876Y004008D01*
X002915Y004103D01*
X002915Y004207D01*
X002915Y005547D01*
X004138Y006770D01*
X006297Y006770D01*
X006685Y006383D01*
X006758Y006310D01*
X006853Y006270D01*
X009991Y006270D01*
X010060Y006201D01*
X010203Y006142D01*
X010357Y006142D01*
X010500Y006201D01*
X010609Y006310D01*
X010616Y006326D01*
X011287Y005655D01*
X008047Y002415D01*
X007944Y002415D01*
X007875Y002484D01*
X007732Y002544D01*
X007578Y002544D01*
X007435Y002484D01*
X007326Y002375D01*
X007380Y002429D02*
X005330Y002429D01*
X005371Y002527D02*
X007539Y002527D01*
X007771Y002527D02*
X008160Y002527D01*
X008061Y002429D02*
X007931Y002429D01*
X008155Y002155D02*
X011655Y005655D01*
X013905Y003405D01*
X016280Y003405D01*
X015902Y003119D02*
X011559Y003119D01*
X011544Y003217D02*
X013725Y003217D01*
X013627Y003316D02*
X011509Y003316D01*
X011445Y003414D02*
X013528Y003414D01*
X013430Y003513D02*
X011306Y003513D01*
X011155Y003155D02*
X011655Y002655D01*
X016530Y002655D01*
X017280Y003405D01*
X016155Y004530D01*
X015905Y004530D01*
X015030Y005405D01*
X014405Y005405D01*
X013280Y006530D01*
X013030Y006530D01*
X013361Y006863D02*
X016856Y006863D01*
X016848Y006848D02*
X016826Y006780D01*
X016815Y006711D01*
X016815Y006425D01*
X017215Y006425D01*
X017215Y006325D01*
X016815Y006325D01*
X016815Y006040D01*
X016826Y005970D01*
X016848Y005902D01*
X016880Y005839D01*
X016922Y005782D01*
X016972Y005732D01*
X017029Y005690D01*
X017092Y005658D01*
X017160Y005636D01*
X017215Y005627D01*
X017215Y006325D01*
X017315Y006325D01*
X017315Y005627D01*
X017370Y005636D01*
X017438Y005658D01*
X017501Y005690D01*
X017558Y005732D01*
X017608Y005782D01*
X017650Y005839D01*
X017682Y005902D01*
X017704Y005970D01*
X017715Y006040D01*
X017715Y006325D01*
X017315Y006325D01*
X017315Y006425D01*
X017215Y006425D01*
X017215Y007123D01*
X017160Y007114D01*
X017092Y007092D01*
X017029Y007060D01*
X016972Y007018D01*
X016922Y006968D01*
X016880Y006911D01*
X016848Y006848D01*
X016824Y006765D02*
X013460Y006765D01*
X013512Y006666D02*
X016815Y006666D01*
X016815Y006568D02*
X013610Y006568D01*
X013709Y006469D02*
X016815Y006469D01*
X016815Y006272D02*
X013906Y006272D01*
X014004Y006174D02*
X016815Y006174D01*
X016815Y006075D02*
X014103Y006075D01*
X014201Y005976D02*
X016825Y005976D01*
X016861Y005878D02*
X014300Y005878D01*
X014695Y005779D02*
X016924Y005779D01*
X017048Y005681D02*
X014794Y005681D01*
X015221Y005582D02*
X018785Y005582D01*
X018785Y005484D02*
X015319Y005484D01*
X015418Y005385D02*
X018785Y005385D01*
X018785Y005287D02*
X015516Y005287D01*
X015615Y005188D02*
X018785Y005188D01*
X018785Y005090D02*
X015713Y005090D01*
X016109Y004991D02*
X018785Y004991D01*
X018785Y004892D02*
X016207Y004892D01*
X016306Y004794D02*
X018785Y004794D01*
X018785Y004695D02*
X016375Y004695D01*
X016456Y004597D02*
X018785Y004597D01*
X018785Y004498D02*
X016555Y004498D01*
X016653Y004400D02*
X018785Y004400D01*
X018785Y004301D02*
X016752Y004301D01*
X016850Y004203D02*
X018785Y004203D01*
X018785Y004104D02*
X016949Y004104D01*
X017047Y004006D02*
X018785Y004006D01*
X018785Y003907D02*
X017146Y003907D01*
X017541Y003809D02*
X018785Y003809D01*
X018785Y003710D02*
X017640Y003710D01*
X017738Y003611D02*
X018785Y003611D01*
X018785Y003513D02*
X017750Y003513D01*
X017750Y003414D02*
X018785Y003414D01*
X018785Y003316D02*
X017750Y003316D01*
X017750Y003217D02*
X018785Y003217D01*
X018785Y003119D02*
X017658Y003119D01*
X017560Y003020D02*
X018785Y003020D01*
X018785Y002922D02*
X017164Y002922D01*
X017066Y002823D02*
X018785Y002823D01*
X018785Y002725D02*
X016967Y002725D01*
X016869Y002626D02*
X018758Y002626D01*
X018660Y002527D02*
X016770Y002527D01*
X016663Y002429D02*
X018561Y002429D01*
X018463Y002330D02*
X008698Y002330D01*
X008599Y002232D02*
X018364Y002232D01*
X018266Y002133D02*
X008501Y002133D01*
X008402Y002035D02*
X018167Y002035D01*
X018069Y001936D02*
X008304Y001936D01*
X008155Y002155D02*
X007655Y002155D01*
X007285Y002035D02*
X005073Y002035D01*
X005072Y002035D02*
X005011Y002055D01*
X004947Y002065D01*
X004685Y002065D01*
X004685Y001685D01*
X005325Y001685D01*
X005325Y001687D01*
X005315Y001751D01*
X005295Y001812D01*
X005266Y001870D01*
X005228Y001922D01*
X005182Y001968D01*
X005130Y002006D01*
X005072Y002035D01*
X005214Y001936D02*
X007325Y001936D01*
X007423Y001838D02*
X005282Y001838D01*
X005317Y001739D02*
X017871Y001739D01*
X017773Y001641D02*
X004685Y001641D01*
X004685Y001739D02*
X004625Y001739D01*
X004625Y001838D02*
X004685Y001838D01*
X004685Y001936D02*
X004625Y001936D01*
X004625Y002035D02*
X004685Y002035D01*
X004237Y002035D02*
X003915Y002035D01*
X003915Y001936D02*
X004096Y001936D01*
X004028Y001838D02*
X003915Y001838D01*
X003939Y001739D02*
X003993Y001739D01*
X003655Y001655D02*
X004155Y001155D01*
X017655Y001155D01*
X017576Y001443D02*
X005267Y001443D01*
X005309Y001542D02*
X017674Y001542D01*
X017970Y001838D02*
X007887Y001838D01*
X008258Y002626D02*
X005385Y002626D01*
X005385Y002725D02*
X008357Y002725D01*
X008455Y002823D02*
X005354Y002823D01*
X005313Y002922D02*
X008554Y002922D01*
X008652Y003020D02*
X005215Y003020D01*
X005024Y003119D02*
X008751Y003119D01*
X008850Y003217D02*
X005086Y003217D01*
X005240Y003316D02*
X008948Y003316D01*
X009047Y003414D02*
X005324Y003414D01*
X005365Y003513D02*
X009145Y003513D01*
X009244Y003611D02*
X005385Y003611D01*
X005385Y003710D02*
X009342Y003710D01*
X009441Y003809D02*
X005360Y003809D01*
X005319Y003907D02*
X009539Y003907D01*
X009638Y004006D02*
X005229Y004006D01*
X005059Y004104D02*
X009736Y004104D01*
X009835Y004203D02*
X005051Y004203D01*
X005226Y004301D02*
X009934Y004301D01*
X010032Y004400D02*
X005318Y004400D01*
X005359Y004498D02*
X010131Y004498D01*
X010229Y004597D02*
X005385Y004597D01*
X005385Y004695D02*
X010328Y004695D01*
X010426Y004794D02*
X005366Y004794D01*
X005326Y004892D02*
X010525Y004892D01*
X010623Y004991D02*
X005244Y004991D01*
X005094Y005090D02*
X010722Y005090D01*
X010820Y005188D02*
X004056Y005188D01*
X004154Y005287D02*
X010919Y005287D01*
X011018Y005385D02*
X004253Y005385D01*
X004351Y005484D02*
X011116Y005484D01*
X011215Y005582D02*
X004450Y005582D01*
X004549Y005681D02*
X011262Y005681D01*
X011163Y005779D02*
X005944Y005779D01*
X006043Y005878D02*
X011065Y005878D01*
X010966Y005976D02*
X006125Y005976D01*
X006125Y006075D02*
X010868Y006075D01*
X010769Y006174D02*
X010434Y006174D01*
X010571Y006272D02*
X010670Y006272D01*
X010655Y006655D02*
X010655Y007530D01*
X007655Y007530D01*
X004530Y010655D01*
X004530Y012030D01*
X004204Y011692D02*
X001945Y011692D01*
X001945Y011791D02*
X004105Y011791D01*
X004060Y011889D02*
X001945Y011889D01*
X001945Y011988D02*
X004060Y011988D01*
X004060Y012086D02*
X001945Y012086D01*
X001945Y012185D02*
X004060Y012185D01*
X004119Y012283D02*
X001945Y012283D01*
X001945Y012382D02*
X004217Y012382D01*
X004316Y012480D02*
X001945Y012480D01*
X001945Y012579D02*
X004614Y012579D01*
X004515Y012677D02*
X001945Y012677D01*
X001945Y012776D02*
X004417Y012776D01*
X004318Y012874D02*
X001945Y012874D01*
X001945Y012973D02*
X003173Y012973D01*
X003210Y012935D02*
X003600Y012935D01*
X003875Y013210D01*
X003875Y013600D01*
X003600Y013875D01*
X003210Y013875D01*
X002935Y013600D01*
X002935Y013210D01*
X003210Y012935D01*
X003074Y013072D02*
X001945Y013072D01*
X001945Y013170D02*
X002975Y013170D01*
X002935Y013269D02*
X001945Y013269D01*
X001945Y013367D02*
X002935Y013367D01*
X002935Y013466D02*
X001945Y013466D01*
X001945Y013564D02*
X002935Y013564D01*
X002998Y013663D02*
X001945Y013663D01*
X001945Y013761D02*
X003097Y013761D01*
X003195Y013860D02*
X001945Y013860D01*
X001945Y013958D02*
X004145Y013958D01*
X004145Y013860D02*
X003615Y013860D01*
X003713Y013761D02*
X004097Y013761D01*
X003998Y013663D02*
X003812Y013663D01*
X003875Y013564D02*
X003935Y013564D01*
X003935Y013466D02*
X003875Y013466D01*
X003875Y013367D02*
X003935Y013367D01*
X003935Y013269D02*
X003875Y013269D01*
X003835Y013170D02*
X003975Y013170D01*
X004074Y013072D02*
X003736Y013072D01*
X003638Y012973D02*
X004173Y012973D01*
X004405Y013155D02*
X005530Y012030D01*
X005530Y010530D01*
X006530Y009530D01*
X007780Y009530D01*
X007405Y009820D02*
X006608Y009820D01*
X006510Y009918D02*
X007504Y009918D01*
X007827Y010115D02*
X006313Y010115D01*
X006411Y010017D02*
X007926Y010017D01*
X007729Y010214D02*
X006214Y010214D01*
X006352Y010312D02*
X006958Y010312D01*
X006860Y010411D02*
X006451Y010411D01*
X006549Y010509D02*
X006761Y010509D01*
X006685Y010608D02*
X006625Y010608D01*
X006625Y010707D02*
X006685Y010707D01*
X006685Y010805D02*
X006625Y010805D01*
X006625Y010904D02*
X006685Y010904D01*
X006713Y011002D02*
X006598Y011002D01*
X006499Y011101D02*
X006811Y011101D01*
X006910Y011199D02*
X006415Y011199D01*
X006415Y011298D02*
X007680Y011298D01*
X007779Y011396D02*
X006415Y011396D01*
X006415Y011495D02*
X007877Y011495D01*
X007976Y011593D02*
X006415Y011593D01*
X006415Y011692D02*
X008074Y011692D01*
X008173Y011791D02*
X006415Y011791D01*
X006415Y011889D02*
X008271Y011889D01*
X008370Y011988D02*
X006415Y011988D01*
X006415Y012086D02*
X008469Y012086D01*
X008567Y012185D02*
X006415Y012185D01*
X006415Y012283D02*
X008666Y012283D01*
X008764Y012382D02*
X006415Y012382D01*
X006415Y012480D02*
X008863Y012480D01*
X008961Y012579D02*
X006415Y012579D01*
X006415Y012677D02*
X009060Y012677D01*
X009158Y012776D02*
X006415Y012776D01*
X006415Y012874D02*
X009257Y012874D01*
X009355Y012973D02*
X006415Y012973D01*
X006415Y013072D02*
X009454Y013072D01*
X009552Y013170D02*
X006415Y013170D01*
X006415Y013269D02*
X009642Y013269D01*
X009646Y013367D02*
X006415Y013367D01*
X006415Y013466D02*
X009687Y013466D01*
X009765Y013564D02*
X006415Y013564D01*
X006415Y013663D02*
X009939Y013663D01*
X010121Y013663D02*
X019945Y013663D01*
X019945Y013761D02*
X012926Y013761D01*
X013025Y013860D02*
X019945Y013860D01*
X019945Y013958D02*
X013123Y013958D01*
X013125Y014057D02*
X019945Y014057D01*
X019945Y014156D02*
X013125Y014156D01*
X013125Y014254D02*
X019945Y014254D01*
X019945Y014353D02*
X013122Y014353D01*
X013024Y014451D02*
X019945Y014451D01*
X019945Y014550D02*
X012925Y014550D01*
X012530Y014648D02*
X019945Y014648D01*
X019945Y014747D02*
X012431Y014747D01*
X012332Y014845D02*
X019945Y014845D01*
X019945Y014944D02*
X012234Y014944D01*
X012135Y015042D02*
X019945Y015042D01*
X019945Y015141D02*
X012037Y015141D01*
X011938Y015240D02*
X019945Y015240D01*
X019945Y015338D02*
X011840Y015338D01*
X011741Y015437D02*
X019945Y015437D01*
X019945Y015535D02*
X011643Y015535D01*
X011533Y015634D02*
X019945Y015634D01*
X019945Y015732D02*
X011368Y015732D01*
X011269Y015831D02*
X019945Y015831D01*
X019945Y015929D02*
X010874Y015929D01*
X010775Y016028D02*
X019945Y016028D01*
X019945Y016126D02*
X010676Y016126D01*
X010578Y016225D02*
X019945Y016225D01*
X019945Y016324D02*
X010479Y016324D01*
X010381Y016422D02*
X019945Y016422D01*
X019945Y016521D02*
X010282Y016521D01*
X010184Y016619D02*
X019945Y016619D01*
X019945Y016718D02*
X010085Y016718D01*
X009909Y016816D02*
X019945Y016816D01*
X019945Y016915D02*
X009810Y016915D01*
X009905Y016530D02*
X009530Y016530D01*
X009030Y017030D01*
X007780Y017030D01*
X007780Y017405D01*
X007280Y017905D01*
X005530Y017905D01*
X004905Y017280D01*
X004905Y016405D01*
X004618Y016028D02*
X002938Y016028D01*
X003037Y016126D02*
X004519Y016126D01*
X004435Y016225D02*
X003135Y016225D01*
X003234Y016324D02*
X004435Y016324D01*
X004435Y016422D02*
X003332Y016422D01*
X003431Y016521D02*
X004435Y016521D01*
X004454Y016619D02*
X003529Y016619D01*
X003628Y016718D02*
X004553Y016718D01*
X004645Y016816D02*
X003726Y016816D01*
X003825Y016915D02*
X004645Y016915D01*
X004645Y017013D02*
X003923Y017013D01*
X004022Y017112D02*
X004645Y017112D01*
X004645Y017210D02*
X004121Y017210D01*
X004219Y017309D02*
X004645Y017309D01*
X004676Y017407D02*
X004318Y017407D01*
X004416Y017506D02*
X004763Y017506D01*
X004862Y017605D02*
X004515Y017605D01*
X004613Y017703D02*
X004960Y017703D01*
X005059Y017802D02*
X004712Y017802D01*
X004810Y017900D02*
X005158Y017900D01*
X005256Y017999D02*
X004909Y017999D01*
X005007Y018097D02*
X005355Y018097D01*
X005204Y018294D02*
X017474Y018294D01*
X017473Y018291D02*
X017473Y018019D01*
X017577Y017769D01*
X017769Y017577D01*
X018019Y017473D01*
X018291Y017473D01*
X018542Y017577D01*
X018734Y017769D01*
X018838Y018019D01*
X018838Y018291D01*
X018734Y018542D01*
X018542Y018734D01*
X018291Y018838D01*
X018019Y018838D01*
X017769Y018734D01*
X017577Y018542D01*
X017473Y018291D01*
X017473Y018196D02*
X005106Y018196D01*
X005303Y018393D02*
X017515Y018393D01*
X017556Y018491D02*
X005402Y018491D01*
X005500Y018590D02*
X017625Y018590D01*
X017723Y018689D02*
X013772Y018689D01*
X013768Y018687D02*
X013839Y018710D01*
X013907Y018745D01*
X013968Y018789D01*
X014021Y018842D01*
X014066Y018904D01*
X014100Y018971D01*
X014123Y019043D01*
X014133Y019107D01*
X013704Y019107D01*
X013704Y019204D01*
X013607Y019204D01*
X013607Y019633D01*
X013543Y019623D01*
X013471Y019600D01*
X013404Y019566D01*
X013342Y019521D01*
X013289Y019468D01*
X013245Y019407D01*
X013210Y019339D01*
X013187Y019268D01*
X013177Y019204D01*
X013606Y019204D01*
X013606Y019107D01*
X013177Y019107D01*
X013187Y019043D01*
X013210Y018971D01*
X013245Y018904D01*
X013289Y018842D01*
X013342Y018789D01*
X013404Y018745D01*
X013471Y018710D01*
X013543Y018687D01*
X013607Y018677D01*
X013607Y019106D01*
X013704Y019106D01*
X013704Y018677D01*
X013768Y018687D01*
X013704Y018689D02*
X013607Y018689D01*
X013538Y018689D02*
X011900Y018689D01*
X011952Y018710D02*
X012100Y018858D01*
X012180Y019051D01*
X012180Y019260D01*
X012100Y019452D01*
X011952Y019600D01*
X011760Y019680D01*
X011551Y019680D01*
X011358Y019600D01*
X011210Y019452D01*
X011130Y019260D01*
X011130Y019051D01*
X011210Y018858D01*
X011358Y018710D01*
X011551Y018630D01*
X011760Y018630D01*
X011952Y018710D01*
X012029Y018787D02*
X013345Y018787D01*
X013258Y018886D02*
X012112Y018886D01*
X012152Y018984D02*
X013206Y018984D01*
X013181Y019083D02*
X012180Y019083D01*
X012180Y019181D02*
X013606Y019181D01*
X013704Y019181D02*
X019943Y019181D01*
X019945Y019083D02*
X014130Y019083D01*
X014104Y018984D02*
X019945Y018984D01*
X019945Y018886D02*
X014053Y018886D01*
X013965Y018787D02*
X017898Y018787D01*
X018413Y018787D02*
X019945Y018787D01*
X019945Y018689D02*
X018587Y018689D01*
X018685Y018590D02*
X019945Y018590D01*
X019945Y018491D02*
X018754Y018491D01*
X018795Y018393D02*
X019945Y018393D01*
X019945Y018294D02*
X018836Y018294D01*
X018838Y018196D02*
X019945Y018196D01*
X019945Y018097D02*
X018838Y018097D01*
X018829Y017999D02*
X019945Y017999D01*
X019945Y017900D02*
X018788Y017900D01*
X018747Y017802D02*
X019945Y017802D01*
X019945Y017703D02*
X018668Y017703D01*
X018570Y017605D02*
X019945Y017605D01*
X019945Y017506D02*
X018371Y017506D01*
X017939Y017506D02*
X008020Y017506D01*
X008067Y017407D02*
X019945Y017407D01*
X019945Y017309D02*
X008166Y017309D01*
X007948Y017605D02*
X017741Y017605D01*
X017642Y017703D02*
X007850Y017703D01*
X007751Y017802D02*
X017563Y017802D01*
X017522Y017900D02*
X007653Y017900D01*
X007554Y017999D02*
X017481Y017999D01*
X017473Y018097D02*
X007456Y018097D01*
X007263Y018615D02*
X007048Y018615D01*
X006849Y018697D01*
X006697Y018849D01*
X006691Y018865D01*
X005775Y018865D01*
X001945Y015035D01*
X001945Y008030D01*
X002125Y007850D01*
X002125Y007460D01*
X001945Y007280D01*
X001945Y006530D01*
X002125Y006350D01*
X002125Y005960D01*
X001945Y005780D01*
X001945Y005125D01*
X002009Y005125D01*
X002181Y005054D01*
X002314Y004921D01*
X002385Y004749D01*
X002385Y004562D01*
X002314Y004389D01*
X002181Y004257D01*
X002009Y004185D01*
X001302Y004185D01*
X001129Y004257D01*
X000997Y004389D01*
X000925Y004562D01*
X000925Y004749D01*
X000997Y004921D01*
X001129Y005054D01*
X001302Y005125D01*
X001365Y005125D01*
X001365Y005780D01*
X001185Y005960D01*
X001185Y006350D01*
X001365Y006530D01*
X001365Y007280D01*
X001185Y007460D01*
X001185Y007850D01*
X001365Y008030D01*
X001365Y015097D01*
X001365Y015213D01*
X001409Y015319D01*
X005409Y019319D01*
X005491Y019401D01*
X005597Y019445D01*
X006691Y019445D01*
X006697Y019461D01*
X006849Y019613D01*
X007048Y019695D01*
X007263Y019695D01*
X007461Y019613D01*
X007613Y019461D01*
X007695Y019263D01*
X007695Y019048D01*
X007613Y018849D01*
X007461Y018697D01*
X007263Y018615D01*
X007440Y018689D02*
X008910Y018689D01*
X008858Y018710D02*
X009051Y018630D01*
X009260Y018630D01*
X009452Y018710D01*
X009600Y018858D01*
X009680Y019051D01*
X009680Y019260D01*
X009600Y019452D01*
X009452Y019600D01*
X009260Y019680D01*
X009051Y019680D01*
X008858Y019600D01*
X008710Y019452D01*
X008630Y019260D01*
X008630Y019051D01*
X008710Y018858D01*
X008858Y018710D01*
X008781Y018787D02*
X007551Y018787D01*
X007628Y018886D02*
X008699Y018886D01*
X008658Y018984D02*
X007669Y018984D01*
X007695Y019083D02*
X008630Y019083D01*
X008630Y019181D02*
X007695Y019181D01*
X007688Y019280D02*
X008639Y019280D01*
X008679Y019378D02*
X007647Y019378D01*
X007597Y019477D02*
X008734Y019477D01*
X008833Y019575D02*
X007498Y019575D01*
X007314Y019674D02*
X009036Y019674D01*
X009274Y019674D02*
X011536Y019674D01*
X011333Y019575D02*
X009477Y019575D01*
X009576Y019477D02*
X011234Y019477D01*
X011179Y019378D02*
X009631Y019378D01*
X009672Y019280D02*
X011139Y019280D01*
X011130Y019181D02*
X009680Y019181D01*
X009680Y019083D02*
X011130Y019083D01*
X011158Y018984D02*
X009652Y018984D01*
X009612Y018886D02*
X011199Y018886D01*
X011281Y018787D02*
X009529Y018787D01*
X009400Y018689D02*
X011410Y018689D01*
X012172Y019280D02*
X013191Y019280D01*
X013230Y019378D02*
X012131Y019378D01*
X012076Y019477D02*
X013298Y019477D01*
X013423Y019575D02*
X011977Y019575D01*
X011774Y019674D02*
X019743Y019674D01*
X019814Y019575D02*
X013887Y019575D01*
X013907Y019566D02*
X013839Y019600D01*
X013768Y019623D01*
X013704Y019633D01*
X013704Y019204D01*
X014133Y019204D01*
X014123Y019268D01*
X014100Y019339D01*
X014066Y019407D01*
X014021Y019468D01*
X013968Y019521D01*
X013907Y019566D01*
X014012Y019477D02*
X019871Y019477D01*
X019903Y019378D02*
X014080Y019378D01*
X014119Y019280D02*
X019935Y019280D01*
X019633Y019773D02*
X001177Y019773D01*
X001068Y019674D02*
X006997Y019674D01*
X006812Y019575D02*
X000996Y019575D01*
X000939Y019477D02*
X006713Y019477D01*
X006759Y018787D02*
X005697Y018787D01*
X005599Y018689D02*
X006870Y018689D01*
X005468Y019378D02*
X000907Y019378D01*
X000875Y019280D02*
X005370Y019280D01*
X005271Y019181D02*
X000867Y019181D01*
X000865Y019083D02*
X005173Y019083D01*
X005074Y018984D02*
X000865Y018984D01*
X000865Y018886D02*
X004976Y018886D01*
X004877Y018787D02*
X002913Y018787D01*
X002791Y018838D02*
X002519Y018838D01*
X002269Y018734D01*
X002077Y018542D01*
X001973Y018291D01*
X001973Y018019D01*
X002077Y017769D01*
X002269Y017577D01*
X002519Y017473D01*
X002791Y017473D01*
X003042Y017577D01*
X003234Y017769D01*
X003338Y018019D01*
X003338Y018291D01*
X003234Y018542D01*
X003042Y018734D01*
X002791Y018838D01*
X003087Y018689D02*
X004778Y018689D01*
X004680Y018590D02*
X003185Y018590D01*
X003254Y018491D02*
X004581Y018491D01*
X004483Y018393D02*
X003295Y018393D01*
X003336Y018294D02*
X004384Y018294D01*
X004286Y018196D02*
X003338Y018196D01*
X003338Y018097D02*
X004187Y018097D01*
X004089Y017999D02*
X003329Y017999D01*
X003288Y017900D02*
X003990Y017900D01*
X003892Y017802D02*
X003247Y017802D01*
X003168Y017703D02*
X003793Y017703D01*
X003694Y017605D02*
X003070Y017605D01*
X002871Y017506D02*
X003596Y017506D01*
X003497Y017407D02*
X000865Y017407D01*
X000865Y017309D02*
X003399Y017309D01*
X003300Y017210D02*
X000865Y017210D01*
X000865Y017112D02*
X003202Y017112D01*
X003103Y017013D02*
X000865Y017013D01*
X000865Y016915D02*
X003005Y016915D01*
X002906Y016816D02*
X000865Y016816D01*
X000865Y016718D02*
X002808Y016718D01*
X002709Y016619D02*
X000865Y016619D01*
X000865Y016521D02*
X002610Y016521D01*
X002512Y016422D02*
X000865Y016422D01*
X000865Y016324D02*
X002413Y016324D01*
X002315Y016225D02*
X000865Y016225D01*
X000865Y016126D02*
X002216Y016126D01*
X002118Y016028D02*
X000865Y016028D01*
X000865Y015929D02*
X002019Y015929D01*
X001921Y015831D02*
X000865Y015831D01*
X000865Y015732D02*
X001822Y015732D01*
X001724Y015634D02*
X000865Y015634D01*
X000865Y015535D02*
X001625Y015535D01*
X001526Y015437D02*
X000865Y015437D01*
X000865Y015338D02*
X001428Y015338D01*
X001376Y015240D02*
X000865Y015240D01*
X000865Y015141D02*
X001365Y015141D01*
X001365Y015042D02*
X000865Y015042D01*
X000865Y014944D02*
X001365Y014944D01*
X001365Y014845D02*
X000865Y014845D01*
X000865Y014747D02*
X001365Y014747D01*
X001365Y014648D02*
X000865Y014648D01*
X000865Y014550D02*
X001365Y014550D01*
X001365Y014451D02*
X000865Y014451D01*
X000865Y014353D02*
X001365Y014353D01*
X001365Y014254D02*
X000865Y014254D01*
X000865Y014156D02*
X001365Y014156D01*
X001365Y014057D02*
X000865Y014057D01*
X000865Y013958D02*
X001365Y013958D01*
X001365Y013860D02*
X000865Y013860D01*
X000865Y013761D02*
X001365Y013761D01*
X001365Y013663D02*
X000865Y013663D01*
X000865Y013564D02*
X001365Y013564D01*
X001365Y013466D02*
X000865Y013466D01*
X000865Y013367D02*
X001365Y013367D01*
X001365Y013269D02*
X000865Y013269D01*
X000865Y013170D02*
X001365Y013170D01*
X001365Y013072D02*
X000865Y013072D01*
X000865Y012973D02*
X001365Y012973D01*
X001365Y012874D02*
X000865Y012874D01*
X000865Y012776D02*
X001365Y012776D01*
X001365Y012677D02*
X000865Y012677D01*
X000865Y012579D02*
X001365Y012579D01*
X001365Y012480D02*
X000865Y012480D01*
X000865Y012382D02*
X001365Y012382D01*
X001365Y012283D02*
X000865Y012283D01*
X000865Y012185D02*
X001365Y012185D01*
X001365Y012086D02*
X000865Y012086D01*
X000865Y011988D02*
X001365Y011988D01*
X001365Y011889D02*
X000865Y011889D01*
X000865Y011791D02*
X001365Y011791D01*
X001365Y011692D02*
X000865Y011692D01*
X000865Y011593D02*
X001365Y011593D01*
X001365Y011495D02*
X000865Y011495D01*
X000865Y011396D02*
X001365Y011396D01*
X001365Y011298D02*
X000865Y011298D01*
X000865Y011199D02*
X001365Y011199D01*
X001365Y011101D02*
X000865Y011101D01*
X000865Y011002D02*
X001365Y011002D01*
X001365Y010904D02*
X000865Y010904D01*
X000865Y010805D02*
X001365Y010805D01*
X001365Y010707D02*
X000865Y010707D01*
X000865Y010608D02*
X001365Y010608D01*
X001365Y010509D02*
X000865Y010509D01*
X000865Y010411D02*
X001365Y010411D01*
X001365Y010312D02*
X000865Y010312D01*
X000865Y010214D02*
X001365Y010214D01*
X001365Y010115D02*
X000865Y010115D01*
X000865Y010017D02*
X001365Y010017D01*
X001365Y009918D02*
X000865Y009918D01*
X000865Y009820D02*
X001365Y009820D01*
X001365Y009721D02*
X000865Y009721D01*
X000865Y009623D02*
X001365Y009623D01*
X001365Y009524D02*
X000865Y009524D01*
X000865Y009425D02*
X001365Y009425D01*
X001365Y009327D02*
X000865Y009327D01*
X000865Y009228D02*
X001365Y009228D01*
X001365Y009130D02*
X000865Y009130D01*
X000865Y009031D02*
X001365Y009031D01*
X001365Y008933D02*
X000865Y008933D01*
X000865Y008834D02*
X001365Y008834D01*
X001365Y008736D02*
X000865Y008736D01*
X000865Y008637D02*
X001365Y008637D01*
X001365Y008539D02*
X000865Y008539D01*
X000865Y008440D02*
X001365Y008440D01*
X001365Y008341D02*
X000865Y008341D01*
X000865Y008243D02*
X001365Y008243D01*
X001365Y008144D02*
X000865Y008144D01*
X000865Y008046D02*
X001365Y008046D01*
X001283Y007947D02*
X000865Y007947D01*
X000865Y007849D02*
X001185Y007849D01*
X001185Y007750D02*
X000865Y007750D01*
X000865Y007652D02*
X001185Y007652D01*
X001185Y007553D02*
X000865Y007553D01*
X000865Y007455D02*
X001191Y007455D01*
X001289Y007356D02*
X000865Y007356D01*
X000865Y007258D02*
X001365Y007258D01*
X001365Y007159D02*
X000865Y007159D01*
X000865Y007060D02*
X001365Y007060D01*
X001365Y006962D02*
X000865Y006962D01*
X000865Y006863D02*
X001365Y006863D01*
X001365Y006765D02*
X000865Y006765D01*
X000865Y006666D02*
X001365Y006666D01*
X001365Y006568D02*
X000865Y006568D01*
X000865Y006469D02*
X001305Y006469D01*
X001206Y006371D02*
X000865Y006371D01*
X000865Y006272D02*
X001185Y006272D01*
X001185Y006174D02*
X000865Y006174D01*
X000865Y006075D02*
X001185Y006075D01*
X001185Y005976D02*
X000865Y005976D01*
X000865Y005878D02*
X001268Y005878D01*
X001365Y005779D02*
X000865Y005779D01*
X000865Y005681D02*
X001365Y005681D01*
X001365Y005582D02*
X000865Y005582D01*
X000865Y005484D02*
X001365Y005484D01*
X001365Y005385D02*
X000865Y005385D01*
X000865Y005287D02*
X001365Y005287D01*
X001365Y005188D02*
X000865Y005188D01*
X000865Y005090D02*
X001216Y005090D01*
X001066Y004991D02*
X000865Y004991D01*
X000865Y004892D02*
X000985Y004892D01*
X000944Y004794D02*
X000865Y004794D01*
X000865Y004695D02*
X000925Y004695D01*
X000925Y004597D02*
X000865Y004597D01*
X000865Y004498D02*
X000951Y004498D01*
X000992Y004400D02*
X000865Y004400D01*
X000865Y004301D02*
X001084Y004301D01*
X001259Y004203D02*
X000865Y004203D01*
X000865Y004104D02*
X001251Y004104D01*
X001081Y004006D02*
X000865Y004006D01*
X000865Y003907D02*
X000991Y003907D01*
X000950Y003809D02*
X000865Y003809D01*
X000865Y003710D02*
X000925Y003710D01*
X000925Y003611D02*
X000865Y003611D01*
X000865Y003513D02*
X000945Y003513D01*
X000986Y003414D02*
X000865Y003414D01*
X000865Y003316D02*
X001070Y003316D01*
X001224Y003217D02*
X000865Y003217D01*
X000865Y003119D02*
X001286Y003119D01*
X001302Y003125D02*
X001129Y003054D01*
X000997Y002921D01*
X000925Y002749D01*
X000925Y002562D01*
X000997Y002389D01*
X001129Y002257D01*
X001302Y002185D01*
X002009Y002185D01*
X002181Y002257D01*
X002314Y002389D01*
X002385Y002562D01*
X002385Y002749D01*
X002314Y002921D01*
X002181Y003054D01*
X002009Y003125D01*
X001302Y003125D01*
X001095Y003020D02*
X000865Y003020D01*
X000865Y002922D02*
X000997Y002922D01*
X000956Y002823D02*
X000865Y002823D01*
X000865Y002725D02*
X000925Y002725D01*
X000925Y002626D02*
X000865Y002626D01*
X000865Y002527D02*
X000939Y002527D01*
X000980Y002429D02*
X000865Y002429D01*
X000865Y002330D02*
X001055Y002330D01*
X001189Y002232D02*
X000865Y002232D01*
X000988Y001246D02*
X001154Y001246D01*
X001059Y001148D02*
X003795Y001148D01*
X003893Y001049D02*
X001161Y001049D01*
X001298Y000951D02*
X003992Y000951D01*
X003935Y001008D02*
X003935Y001008D01*
X003696Y001246D02*
X002156Y001246D01*
X002121Y002232D02*
X003395Y002232D01*
X003395Y002330D02*
X002255Y002330D01*
X002330Y002429D02*
X003395Y002429D01*
X003395Y002527D02*
X002371Y002527D01*
X002385Y002626D02*
X003395Y002626D01*
X003395Y002725D02*
X002385Y002725D01*
X002354Y002823D02*
X003395Y002823D01*
X003395Y002922D02*
X002313Y002922D01*
X002215Y003020D02*
X003395Y003020D01*
X003395Y003119D02*
X002024Y003119D01*
X002086Y003217D02*
X003395Y003217D01*
X003395Y003316D02*
X002240Y003316D01*
X002324Y003414D02*
X003395Y003414D01*
X003395Y003513D02*
X002381Y003513D01*
X002479Y003611D02*
X003395Y003611D01*
X003395Y003710D02*
X002578Y003710D01*
X002676Y003809D02*
X003395Y003809D01*
X003395Y003907D02*
X002775Y003907D01*
X002873Y004006D02*
X003395Y004006D01*
X003395Y004104D02*
X002915Y004104D01*
X002915Y004203D02*
X003395Y004203D01*
X003395Y004301D02*
X002915Y004301D01*
X002915Y004400D02*
X003395Y004400D01*
X003395Y004498D02*
X002915Y004498D01*
X002915Y004597D02*
X003395Y004597D01*
X003395Y004695D02*
X002915Y004695D01*
X002915Y004794D02*
X003395Y004794D01*
X003395Y004892D02*
X002915Y004892D01*
X002915Y004991D02*
X003395Y004991D01*
X003395Y005090D02*
X002915Y005090D01*
X002915Y005188D02*
X003395Y005188D01*
X003428Y005287D02*
X002915Y005287D01*
X002915Y005385D02*
X003518Y005385D01*
X003616Y005484D02*
X002915Y005484D01*
X002950Y005582D02*
X003715Y005582D01*
X003813Y005681D02*
X003049Y005681D01*
X003147Y005779D02*
X003912Y005779D01*
X004010Y005878D02*
X003246Y005878D01*
X003344Y005976D02*
X004109Y005976D01*
X004207Y006075D02*
X003443Y006075D01*
X003541Y006174D02*
X004306Y006174D01*
X004404Y006272D02*
X003640Y006272D01*
X003738Y006371D02*
X004503Y006371D01*
X004655Y006155D02*
X005655Y006155D01*
X006125Y006174D02*
X010126Y006174D01*
X010280Y006530D02*
X006905Y006530D01*
X006405Y007030D01*
X004030Y007030D01*
X002655Y005655D01*
X002655Y004155D01*
X002155Y003655D01*
X001655Y003655D01*
X002059Y004104D02*
X002236Y004104D01*
X002335Y004203D02*
X002051Y004203D01*
X002226Y004301D02*
X002395Y004301D01*
X002395Y004400D02*
X002318Y004400D01*
X002359Y004498D02*
X002395Y004498D01*
X002385Y004597D02*
X002395Y004597D01*
X002385Y004695D02*
X002395Y004695D01*
X002395Y004794D02*
X002366Y004794D01*
X002395Y004892D02*
X002326Y004892D01*
X002395Y004991D02*
X002244Y004991D01*
X002094Y005090D02*
X002395Y005090D01*
X002395Y005188D02*
X001945Y005188D01*
X001945Y005287D02*
X002395Y005287D01*
X002395Y005385D02*
X001945Y005385D01*
X001945Y005484D02*
X002395Y005484D01*
X002395Y005582D02*
X001945Y005582D01*
X001945Y005681D02*
X002395Y005681D01*
X002425Y005779D02*
X001945Y005779D01*
X002043Y005878D02*
X002510Y005878D01*
X002609Y005976D02*
X002125Y005976D01*
X002125Y006075D02*
X002707Y006075D01*
X002806Y006174D02*
X002125Y006174D01*
X002125Y006272D02*
X002904Y006272D01*
X003003Y006371D02*
X002104Y006371D01*
X002006Y006469D02*
X003101Y006469D01*
X003200Y006568D02*
X001945Y006568D01*
X001945Y006666D02*
X003299Y006666D01*
X003397Y006765D02*
X001945Y006765D01*
X001945Y006863D02*
X003496Y006863D01*
X003594Y006962D02*
X001945Y006962D01*
X001945Y007060D02*
X003693Y007060D01*
X003791Y007159D02*
X001945Y007159D01*
X001945Y007258D02*
X003473Y007258D01*
X003485Y007245D02*
X003625Y007245D01*
X003625Y007625D01*
X003685Y007625D01*
X003685Y007245D01*
X003825Y007245D01*
X004065Y007485D01*
X004065Y007625D01*
X003685Y007625D01*
X003685Y007685D01*
X004065Y007685D01*
X004065Y007825D01*
X003825Y008065D01*
X003685Y008065D01*
X003685Y007685D01*
X003625Y007685D01*
X003625Y007625D01*
X003245Y007625D01*
X003245Y007485D01*
X003485Y007245D01*
X003625Y007258D02*
X003685Y007258D01*
X003685Y007356D02*
X003625Y007356D01*
X003625Y007455D02*
X003685Y007455D01*
X003685Y007553D02*
X003625Y007553D01*
X003625Y007652D02*
X002125Y007652D01*
X002125Y007750D02*
X003245Y007750D01*
X003245Y007685D02*
X003245Y007825D01*
X003485Y008065D01*
X003625Y008065D01*
X003625Y007685D01*
X003245Y007685D01*
X003245Y007553D02*
X002125Y007553D01*
X002119Y007455D02*
X003276Y007455D01*
X003374Y007356D02*
X002021Y007356D01*
X002125Y007849D02*
X003269Y007849D01*
X003368Y007947D02*
X002028Y007947D01*
X001945Y008046D02*
X003466Y008046D01*
X003625Y008046D02*
X003685Y008046D01*
X003685Y007947D02*
X003625Y007947D01*
X003625Y007849D02*
X003685Y007849D01*
X003685Y007750D02*
X003625Y007750D01*
X003685Y007652D02*
X007166Y007652D01*
X007067Y007750D02*
X004065Y007750D01*
X004041Y007849D02*
X006969Y007849D01*
X006870Y007947D02*
X003943Y007947D01*
X003844Y008046D02*
X006772Y008046D01*
X006673Y008144D02*
X001945Y008144D01*
X001945Y008243D02*
X006575Y008243D01*
X006476Y008341D02*
X001945Y008341D01*
X001945Y008440D02*
X006377Y008440D01*
X006279Y008539D02*
X001945Y008539D01*
X001945Y008637D02*
X006180Y008637D01*
X006082Y008736D02*
X001945Y008736D01*
X001945Y008834D02*
X005983Y008834D01*
X005885Y008933D02*
X001945Y008933D01*
X001945Y009031D02*
X005786Y009031D01*
X005688Y009130D02*
X001945Y009130D01*
X001945Y009228D02*
X005589Y009228D01*
X005491Y009327D02*
X001945Y009327D01*
X001945Y009425D02*
X005392Y009425D01*
X005294Y009524D02*
X001945Y009524D01*
X001945Y009623D02*
X005195Y009623D01*
X005096Y009721D02*
X001945Y009721D01*
X001945Y009820D02*
X004998Y009820D01*
X004899Y009918D02*
X001945Y009918D01*
X001945Y010017D02*
X004801Y010017D01*
X004702Y010115D02*
X001945Y010115D01*
X001945Y010214D02*
X004604Y010214D01*
X004505Y010312D02*
X001945Y010312D01*
X001945Y010411D02*
X004407Y010411D01*
X004309Y010509D02*
X001945Y010509D01*
X001945Y010608D02*
X004270Y010608D01*
X004270Y010707D02*
X001945Y010707D01*
X001945Y010805D02*
X004270Y010805D01*
X004270Y010904D02*
X001945Y010904D01*
X001945Y011002D02*
X004270Y011002D01*
X004270Y011101D02*
X001945Y011101D01*
X001945Y011199D02*
X004270Y011199D01*
X004270Y011298D02*
X001945Y011298D01*
X001945Y011396D02*
X004270Y011396D01*
X004270Y011495D02*
X001945Y011495D01*
X001945Y011593D02*
X004270Y011593D01*
X004405Y013155D02*
X004405Y013405D01*
X004405Y014905D01*
X004655Y015155D01*
X005905Y016405D01*
X008155Y014155D01*
X011655Y014155D01*
X012125Y014156D02*
X012185Y014156D01*
X012185Y014254D02*
X012125Y014254D01*
X012125Y014057D02*
X012185Y014057D01*
X012187Y013958D02*
X012123Y013958D01*
X012025Y013860D02*
X012286Y013860D01*
X012384Y013761D02*
X011926Y013761D01*
X011384Y013761D02*
X006393Y013761D01*
X006318Y013860D02*
X011286Y013860D01*
X010414Y013367D02*
X019945Y013367D01*
X019945Y013269D02*
X010419Y013269D01*
X010405Y013170D02*
X019945Y013170D01*
X019945Y013072D02*
X010364Y013072D01*
X010272Y012973D02*
X019945Y012973D01*
X019945Y012874D02*
X009992Y012874D01*
X009894Y012776D02*
X019945Y012776D01*
X019945Y012677D02*
X009795Y012677D01*
X009697Y012579D02*
X019945Y012579D01*
X019945Y012480D02*
X009598Y012480D01*
X009499Y012382D02*
X019945Y012382D01*
X019945Y012283D02*
X009401Y012283D01*
X009302Y012185D02*
X019945Y012185D01*
X019945Y012086D02*
X009204Y012086D01*
X009105Y011988D02*
X019945Y011988D01*
X019945Y011889D02*
X009007Y011889D01*
X008908Y011791D02*
X019945Y011791D01*
X019945Y011692D02*
X008810Y011692D01*
X008711Y011593D02*
X019945Y011593D01*
X019945Y011495D02*
X008613Y011495D01*
X008514Y011396D02*
X019945Y011396D01*
X019945Y011298D02*
X008415Y011298D01*
X008317Y011199D02*
X019945Y011199D01*
X019945Y011101D02*
X008218Y011101D01*
X008120Y011002D02*
X019945Y011002D01*
X019945Y010904D02*
X008021Y010904D01*
X007923Y010805D02*
X019945Y010805D01*
X019945Y010707D02*
X007971Y010707D01*
X008070Y010608D02*
X019945Y010608D01*
X019945Y010509D02*
X008168Y010509D01*
X008267Y010411D02*
X019945Y010411D01*
X019945Y010312D02*
X008365Y010312D01*
X008464Y010214D02*
X019945Y010214D01*
X019945Y010115D02*
X008563Y010115D01*
X008661Y010017D02*
X019945Y010017D01*
X019945Y009918D02*
X009057Y009918D01*
X009155Y009820D02*
X019945Y009820D01*
X019945Y009721D02*
X019204Y009721D01*
X019147Y009745D02*
X018944Y009745D01*
X018756Y009667D01*
X018613Y009524D01*
X017611Y009524D01*
X017608Y009528D02*
X017558Y009578D01*
X017501Y009620D01*
X017438Y009652D01*
X017370Y009674D01*
X017315Y009683D01*
X017315Y008985D01*
X017715Y008985D01*
X017715Y009271D01*
X017704Y009340D01*
X017682Y009408D01*
X017650Y009471D01*
X017608Y009528D01*
X017673Y009425D02*
X018572Y009425D01*
X018535Y009337D02*
X018613Y009524D01*
X018711Y009623D02*
X017496Y009623D01*
X017315Y009623D02*
X017215Y009623D01*
X017215Y009683D02*
X017160Y009674D01*
X017092Y009652D01*
X017029Y009620D01*
X016972Y009578D01*
X016922Y009528D01*
X016880Y009471D01*
X016848Y009408D01*
X016826Y009340D01*
X016815Y009271D01*
X016815Y008985D01*
X017215Y008985D01*
X017215Y009683D01*
X017215Y009524D02*
X017315Y009524D01*
X017315Y009425D02*
X017215Y009425D01*
X017215Y009327D02*
X017315Y009327D01*
X017315Y009228D02*
X017215Y009228D01*
X017215Y009130D02*
X017315Y009130D01*
X017315Y009031D02*
X017215Y009031D01*
X017215Y008933D02*
X010542Y008933D01*
X010641Y008834D02*
X016815Y008834D01*
X016815Y008736D02*
X010817Y008736D01*
X010916Y008637D02*
X016815Y008637D01*
X016825Y008539D02*
X011014Y008539D01*
X011113Y008440D02*
X016859Y008440D01*
X016922Y008341D02*
X011211Y008341D01*
X011507Y008046D02*
X018785Y008046D01*
X018785Y007947D02*
X011903Y007947D01*
X012001Y007849D02*
X018785Y007849D01*
X018785Y007750D02*
X012303Y007750D01*
X012401Y007652D02*
X018785Y007652D01*
X018785Y007553D02*
X012500Y007553D01*
X012598Y007455D02*
X018785Y007455D01*
X018785Y007356D02*
X012697Y007356D01*
X012769Y007258D02*
X018785Y007258D01*
X018785Y007159D02*
X012790Y007159D01*
X012790Y007060D02*
X017030Y007060D01*
X016917Y006962D02*
X013263Y006962D01*
X012797Y006962D02*
X012790Y006962D01*
X012530Y007155D02*
X012155Y007530D01*
X011655Y007530D01*
X010655Y008530D01*
X010280Y008530D01*
X009280Y009530D01*
X008780Y009530D01*
X007530Y010780D01*
X010030Y013280D01*
X010374Y013466D02*
X019945Y013466D01*
X019945Y013564D02*
X010295Y013564D01*
X011030Y015405D02*
X009905Y016530D01*
X009415Y017013D02*
X019945Y017013D01*
X019945Y017112D02*
X009316Y017112D01*
X009217Y017210D02*
X019945Y017210D01*
X019477Y019871D02*
X001334Y019871D01*
X000865Y018787D02*
X002398Y018787D01*
X002223Y018689D02*
X000865Y018689D01*
X000865Y018590D02*
X002125Y018590D01*
X002056Y018491D02*
X000865Y018491D01*
X000865Y018393D02*
X002015Y018393D01*
X001974Y018294D02*
X000865Y018294D01*
X000865Y018196D02*
X001973Y018196D01*
X001973Y018097D02*
X000865Y018097D01*
X000865Y017999D02*
X001981Y017999D01*
X002022Y017900D02*
X000865Y017900D01*
X000865Y017802D02*
X002063Y017802D01*
X002142Y017703D02*
X000865Y017703D01*
X000865Y017605D02*
X002241Y017605D01*
X002439Y017506D02*
X000865Y017506D01*
X002642Y015732D02*
X004865Y015732D01*
X004963Y015831D02*
X002741Y015831D01*
X002839Y015929D02*
X005062Y015929D01*
X004766Y015634D02*
X002544Y015634D01*
X002445Y015535D02*
X003371Y015535D01*
X003460Y015625D02*
X003185Y015350D01*
X003185Y014960D01*
X003460Y014685D01*
X003850Y014685D01*
X004125Y014960D01*
X004125Y015350D01*
X003850Y015625D01*
X003460Y015625D01*
X003272Y015437D02*
X002347Y015437D01*
X002248Y015338D02*
X003185Y015338D01*
X003185Y015240D02*
X002150Y015240D01*
X002051Y015141D02*
X003185Y015141D01*
X003185Y015042D02*
X001953Y015042D01*
X001945Y014944D02*
X003202Y014944D01*
X003300Y014845D02*
X001945Y014845D01*
X001945Y014747D02*
X003399Y014747D01*
X003911Y014747D02*
X004145Y014747D01*
X004145Y014845D02*
X004010Y014845D01*
X004109Y014944D02*
X004145Y014944D01*
X004125Y015042D02*
X004181Y015042D01*
X004185Y015141D02*
X004125Y015141D01*
X004125Y015240D02*
X004185Y015240D01*
X004185Y015338D02*
X004125Y015338D01*
X004038Y015437D02*
X004272Y015437D01*
X004371Y015535D02*
X003940Y015535D01*
X004145Y014648D02*
X001945Y014648D01*
X001945Y014550D02*
X004145Y014550D01*
X004145Y014451D02*
X001945Y014451D01*
X001945Y014353D02*
X004145Y014353D01*
X004145Y014254D02*
X001945Y014254D01*
X001945Y014156D02*
X004145Y014156D01*
X004145Y014057D02*
X001945Y014057D01*
X005155Y014655D02*
X006155Y013655D01*
X006155Y010780D01*
X007155Y010780D02*
X007530Y010780D01*
X007532Y010411D02*
X007451Y010411D01*
X007352Y010312D02*
X007630Y010312D01*
X007582Y011199D02*
X007401Y011199D01*
X009457Y009721D02*
X018886Y009721D01*
X019147Y009745D02*
X019334Y009667D01*
X019477Y009524D01*
X019379Y009623D02*
X019945Y009623D01*
X018535Y009337D02*
X018535Y008534D01*
X018613Y008346D01*
X018756Y008203D01*
X018785Y008191D01*
X018716Y008243D02*
X017487Y008243D01*
X017608Y008341D02*
X018617Y008341D01*
X018574Y008440D02*
X017671Y008440D01*
X017705Y008539D02*
X018535Y008539D01*
X018535Y008637D02*
X017715Y008637D01*
X017715Y008736D02*
X018535Y008736D01*
X018535Y008834D02*
X017715Y008834D01*
X017715Y009031D02*
X018535Y009031D01*
X018535Y009130D02*
X017715Y009130D01*
X017715Y009228D02*
X018535Y009228D01*
X018535Y009327D02*
X017706Y009327D01*
X017034Y009623D02*
X009555Y009623D01*
X009654Y009524D02*
X016919Y009524D01*
X016857Y009425D02*
X009752Y009425D01*
X009851Y009327D02*
X016824Y009327D01*
X016815Y009228D02*
X009949Y009228D01*
X010048Y009130D02*
X016815Y009130D01*
X016815Y009031D02*
X010147Y009031D01*
X010263Y007258D02*
X006535Y007258D01*
X006644Y007159D02*
X010362Y007159D01*
X010395Y007060D02*
X006742Y007060D01*
X006841Y006962D02*
X010395Y006962D01*
X010070Y006863D02*
X006940Y006863D01*
X006598Y006469D02*
X006006Y006469D01*
X006104Y006371D02*
X006697Y006371D01*
X006849Y006272D02*
X006125Y006272D01*
X005907Y006568D02*
X006500Y006568D01*
X006401Y006666D02*
X004034Y006666D01*
X003935Y006568D02*
X005403Y006568D01*
X005305Y006469D02*
X003837Y006469D01*
X004132Y006765D02*
X006303Y006765D01*
X007264Y007553D02*
X004065Y007553D01*
X004034Y007455D02*
X007363Y007455D01*
X007461Y007356D02*
X003936Y007356D01*
X003900Y007258D02*
X003837Y007258D01*
X004655Y006155D02*
X003655Y005155D01*
X003655Y004655D01*
X003915Y004991D02*
X004066Y004991D01*
X003957Y005090D02*
X004216Y005090D01*
X004647Y005779D02*
X005366Y005779D01*
X005268Y005878D02*
X004746Y005878D01*
X008797Y002429D02*
X011522Y002429D01*
X011415Y002527D02*
X008895Y002527D01*
X008994Y002626D02*
X011317Y002626D01*
X011218Y002725D02*
X009092Y002725D01*
X009191Y002823D02*
X010942Y002823D01*
X010839Y002922D02*
X009289Y002922D01*
X009388Y003020D02*
X010791Y003020D01*
X010767Y003119D02*
X009486Y003119D01*
X009585Y003217D02*
X010767Y003217D01*
X010801Y003316D02*
X009683Y003316D01*
X009782Y003414D02*
X010865Y003414D01*
X011004Y003513D02*
X009881Y003513D01*
X009979Y003611D02*
X013331Y003611D01*
X013233Y003710D02*
X010078Y003710D01*
X010176Y003809D02*
X013134Y003809D01*
X013035Y003907D02*
X010275Y003907D01*
X010373Y004006D02*
X012937Y004006D01*
X012838Y004104D02*
X010472Y004104D01*
X010570Y004203D02*
X012740Y004203D01*
X012641Y004301D02*
X010669Y004301D01*
X010767Y004400D02*
X012543Y004400D01*
X012444Y004498D02*
X010866Y004498D01*
X010965Y004597D02*
X012346Y004597D01*
X012247Y004695D02*
X011063Y004695D01*
X011162Y004794D02*
X012149Y004794D01*
X012050Y004892D02*
X011260Y004892D01*
X011359Y004991D02*
X011951Y004991D01*
X011853Y005090D02*
X011457Y005090D01*
X011556Y005188D02*
X011754Y005188D01*
X011656Y005287D02*
X011654Y005287D01*
X011655Y005655D02*
X010655Y006655D01*
X012530Y007155D02*
X012530Y005405D01*
X013405Y004530D01*
X014905Y004530D01*
X016000Y003020D02*
X011658Y003020D01*
X011756Y002922D02*
X016429Y002922D01*
X017215Y005681D02*
X017315Y005681D01*
X017315Y005779D02*
X017215Y005779D01*
X017215Y005878D02*
X017315Y005878D01*
X017315Y005976D02*
X017215Y005976D01*
X017215Y006075D02*
X017315Y006075D01*
X017315Y006174D02*
X017215Y006174D01*
X017215Y006272D02*
X017315Y006272D01*
X017315Y006371D02*
X018535Y006371D01*
X018535Y006469D02*
X017715Y006469D01*
X017715Y006425D02*
X017715Y006711D01*
X017704Y006780D01*
X017682Y006848D01*
X017650Y006911D01*
X017608Y006968D01*
X017558Y007018D01*
X017501Y007060D01*
X017438Y007092D01*
X017370Y007114D01*
X017315Y007123D01*
X017315Y006425D01*
X017715Y006425D01*
X017715Y006568D02*
X018535Y006568D01*
X018535Y006666D02*
X017715Y006666D01*
X017706Y006765D02*
X018535Y006765D01*
X018571Y006863D02*
X017674Y006863D01*
X017613Y006962D02*
X018612Y006962D01*
X018709Y007060D02*
X017500Y007060D01*
X017315Y007060D02*
X017215Y007060D01*
X017215Y006962D02*
X017315Y006962D01*
X017315Y006863D02*
X017215Y006863D01*
X017215Y006765D02*
X017315Y006765D01*
X017315Y006666D02*
X017215Y006666D01*
X017215Y006568D02*
X017315Y006568D01*
X017315Y006469D02*
X017215Y006469D01*
X017215Y006371D02*
X013807Y006371D01*
X017482Y005681D02*
X018718Y005681D01*
X018620Y005779D02*
X017606Y005779D01*
X017670Y005878D02*
X018575Y005878D01*
X018535Y005976D02*
X017705Y005976D01*
X017715Y006075D02*
X018535Y006075D01*
X018535Y006174D02*
X017715Y006174D01*
X017715Y006272D02*
X018535Y006272D01*
X012655Y014155D02*
X011405Y015405D01*
X011030Y015405D01*
X007984Y013958D02*
X006219Y013958D01*
X006121Y014057D02*
X007886Y014057D01*
X007787Y014156D02*
X006022Y014156D01*
X005924Y014254D02*
X007688Y014254D01*
X007590Y014353D02*
X005825Y014353D01*
X005727Y014451D02*
X007491Y014451D01*
X007393Y014550D02*
X005628Y014550D01*
X005544Y014648D02*
X007294Y014648D01*
X007196Y014747D02*
X005538Y014747D01*
X005497Y014845D02*
X007097Y014845D01*
X006999Y014944D02*
X005416Y014944D01*
X005235Y015042D02*
X006900Y015042D01*
X006802Y015141D02*
X005125Y015141D01*
X005125Y015240D02*
X006703Y015240D01*
X006604Y015338D02*
X005206Y015338D01*
X005304Y015437D02*
X006506Y015437D01*
X006407Y015535D02*
X005403Y015535D01*
X005501Y015634D02*
X006309Y015634D01*
X006210Y015732D02*
X005600Y015732D01*
X005698Y015831D02*
X006112Y015831D01*
X006013Y015929D02*
X005797Y015929D01*
X013607Y018787D02*
X013704Y018787D01*
X013704Y018886D02*
X013607Y018886D01*
X013607Y018984D02*
X013704Y018984D01*
X013704Y019083D02*
X013607Y019083D01*
X013607Y019280D02*
X013704Y019280D01*
X013704Y019378D02*
X013607Y019378D01*
X013607Y019477D02*
X013704Y019477D01*
X013704Y019575D02*
X013607Y019575D01*
D16*
X010030Y013280D03*
X005155Y014655D03*
X010280Y006530D03*
X011155Y003155D03*
X007655Y002155D03*
D17*
X001655Y004655D02*
X001655Y006155D01*
X001655Y007655D01*
X001655Y015155D01*
X005655Y019155D01*
X007155Y019155D01*
M02*
