G75*
G70*
%OFA0B0*%
%FSLAX24Y24*%
%IPPOS*%
%LPD*%
%AMOC8*
5,1,8,0,0,1.08239X$1,22.5*
%
%ADD10C,0.0000*%
%ADD11OC8,0.0520*%
%ADD12C,0.0520*%
%ADD13C,0.0600*%
%ADD14C,0.0709*%
%ADD15C,0.0100*%
%ADD16C,0.0357*%
%ADD17C,0.0160*%
D10*
X000559Y001809D02*
X000559Y018994D01*
X000561Y019062D01*
X000566Y019129D01*
X000575Y019196D01*
X000588Y019263D01*
X000605Y019328D01*
X000624Y019393D01*
X000648Y019457D01*
X000675Y019519D01*
X000705Y019580D01*
X000738Y019638D01*
X000774Y019695D01*
X000814Y019750D01*
X000856Y019803D01*
X000902Y019854D01*
X000949Y019901D01*
X001000Y019947D01*
X001053Y019989D01*
X001108Y020029D01*
X001165Y020065D01*
X001223Y020098D01*
X001284Y020128D01*
X001346Y020155D01*
X001410Y020179D01*
X001475Y020198D01*
X001540Y020215D01*
X001607Y020228D01*
X001674Y020237D01*
X001741Y020242D01*
X001809Y020244D01*
X018994Y020244D01*
X019062Y020242D01*
X019129Y020237D01*
X019196Y020228D01*
X019263Y020215D01*
X019328Y020198D01*
X019393Y020179D01*
X019457Y020155D01*
X019519Y020128D01*
X019580Y020098D01*
X019638Y020065D01*
X019695Y020029D01*
X019750Y019989D01*
X019803Y019947D01*
X019854Y019901D01*
X019901Y019854D01*
X019947Y019803D01*
X019989Y019750D01*
X020029Y019695D01*
X020065Y019638D01*
X020098Y019580D01*
X020128Y019519D01*
X020155Y019457D01*
X020179Y019393D01*
X020198Y019328D01*
X020215Y019263D01*
X020228Y019196D01*
X020237Y019129D01*
X020242Y019062D01*
X020244Y018994D01*
X020244Y001809D01*
X020242Y001741D01*
X020237Y001674D01*
X020228Y001607D01*
X020215Y001540D01*
X020198Y001475D01*
X020179Y001410D01*
X020155Y001346D01*
X020128Y001284D01*
X020098Y001223D01*
X020065Y001165D01*
X020029Y001108D01*
X019989Y001053D01*
X019947Y001000D01*
X019901Y000949D01*
X019854Y000902D01*
X019803Y000856D01*
X019750Y000814D01*
X019695Y000774D01*
X019638Y000738D01*
X019580Y000705D01*
X019519Y000675D01*
X019457Y000648D01*
X019393Y000624D01*
X019328Y000605D01*
X019263Y000588D01*
X019196Y000575D01*
X019129Y000566D01*
X019062Y000561D01*
X018994Y000559D01*
X001809Y000559D01*
X001741Y000561D01*
X001674Y000566D01*
X001607Y000575D01*
X001540Y000588D01*
X001475Y000605D01*
X001410Y000624D01*
X001346Y000648D01*
X001284Y000675D01*
X001223Y000705D01*
X001165Y000738D01*
X001108Y000774D01*
X001053Y000814D01*
X001000Y000856D01*
X000949Y000902D01*
X000902Y000949D01*
X000856Y001000D01*
X000814Y001053D01*
X000774Y001108D01*
X000738Y001165D01*
X000705Y001223D01*
X000675Y001284D01*
X000648Y001346D01*
X000624Y001410D01*
X000605Y001475D01*
X000588Y001540D01*
X000575Y001607D01*
X000566Y001674D01*
X000561Y001741D01*
X000559Y001809D01*
X002179Y018151D02*
X002181Y018194D01*
X002187Y018236D01*
X002197Y018278D01*
X002210Y018319D01*
X002227Y018359D01*
X002248Y018396D01*
X002272Y018432D01*
X002299Y018465D01*
X002329Y018496D01*
X002362Y018524D01*
X002397Y018549D01*
X002434Y018570D01*
X002473Y018588D01*
X002513Y018602D01*
X002555Y018613D01*
X002597Y018620D01*
X002640Y018623D01*
X002683Y018622D01*
X002726Y018617D01*
X002768Y018608D01*
X002809Y018596D01*
X002849Y018580D01*
X002887Y018560D01*
X002923Y018537D01*
X002957Y018510D01*
X002989Y018481D01*
X003017Y018449D01*
X003043Y018414D01*
X003065Y018378D01*
X003084Y018339D01*
X003099Y018299D01*
X003111Y018258D01*
X003119Y018215D01*
X003123Y018172D01*
X003123Y018130D01*
X003119Y018087D01*
X003111Y018044D01*
X003099Y018003D01*
X003084Y017963D01*
X003065Y017924D01*
X003043Y017888D01*
X003017Y017853D01*
X002989Y017821D01*
X002957Y017792D01*
X002923Y017765D01*
X002887Y017742D01*
X002849Y017722D01*
X002809Y017706D01*
X002768Y017694D01*
X002726Y017685D01*
X002683Y017680D01*
X002640Y017679D01*
X002597Y017682D01*
X002555Y017689D01*
X002513Y017700D01*
X002473Y017714D01*
X002434Y017732D01*
X002397Y017753D01*
X002362Y017778D01*
X002329Y017806D01*
X002299Y017837D01*
X002272Y017870D01*
X002248Y017906D01*
X002227Y017943D01*
X002210Y017983D01*
X002197Y018024D01*
X002187Y018066D01*
X002181Y018108D01*
X002179Y018151D01*
X017679Y018151D02*
X017681Y018194D01*
X017687Y018236D01*
X017697Y018278D01*
X017710Y018319D01*
X017727Y018359D01*
X017748Y018396D01*
X017772Y018432D01*
X017799Y018465D01*
X017829Y018496D01*
X017862Y018524D01*
X017897Y018549D01*
X017934Y018570D01*
X017973Y018588D01*
X018013Y018602D01*
X018055Y018613D01*
X018097Y018620D01*
X018140Y018623D01*
X018183Y018622D01*
X018226Y018617D01*
X018268Y018608D01*
X018309Y018596D01*
X018349Y018580D01*
X018387Y018560D01*
X018423Y018537D01*
X018457Y018510D01*
X018489Y018481D01*
X018517Y018449D01*
X018543Y018414D01*
X018565Y018378D01*
X018584Y018339D01*
X018599Y018299D01*
X018611Y018258D01*
X018619Y018215D01*
X018623Y018172D01*
X018623Y018130D01*
X018619Y018087D01*
X018611Y018044D01*
X018599Y018003D01*
X018584Y017963D01*
X018565Y017924D01*
X018543Y017888D01*
X018517Y017853D01*
X018489Y017821D01*
X018457Y017792D01*
X018423Y017765D01*
X018387Y017742D01*
X018349Y017722D01*
X018309Y017706D01*
X018268Y017694D01*
X018226Y017685D01*
X018183Y017680D01*
X018140Y017679D01*
X018097Y017682D01*
X018055Y017689D01*
X018013Y017700D01*
X017973Y017714D01*
X017934Y017732D01*
X017897Y017753D01*
X017862Y017778D01*
X017829Y017806D01*
X017799Y017837D01*
X017772Y017870D01*
X017748Y017906D01*
X017727Y017943D01*
X017710Y017983D01*
X017697Y018024D01*
X017687Y018066D01*
X017681Y018108D01*
X017679Y018151D01*
D11*
X015901Y016401D03*
X014901Y016401D03*
X014026Y017026D03*
X013026Y017026D03*
X012276Y016526D03*
X011276Y016526D03*
X010776Y015401D03*
X009776Y015401D03*
X009151Y014151D03*
X008151Y014151D03*
X012026Y009526D03*
X013026Y009526D03*
X013651Y010776D03*
X014651Y010776D03*
X015276Y012026D03*
X016276Y012026D03*
X016401Y013401D03*
X017401Y013401D03*
X017151Y015151D03*
X016151Y015151D03*
X011526Y008526D03*
X010526Y008526D03*
X010151Y007526D03*
X009151Y007526D03*
X008776Y006526D03*
X007776Y006526D03*
X007401Y005401D03*
X006401Y005401D03*
X005901Y004526D03*
X004901Y004526D03*
X004526Y003401D03*
X003526Y003401D03*
X017151Y007651D03*
X019151Y007651D03*
D12*
X018891Y004651D02*
X019411Y004651D01*
X019411Y003651D02*
X018891Y003651D01*
X018891Y002651D02*
X019411Y002651D01*
X019411Y001651D02*
X018891Y001651D01*
X016411Y001651D02*
X015891Y001651D01*
X015891Y002651D02*
X016411Y002651D01*
X016411Y003651D02*
X015891Y003651D01*
X015891Y004651D02*
X016411Y004651D01*
D13*
X003541Y006071D02*
X003541Y006671D01*
X001761Y006671D02*
X001761Y006071D01*
X001761Y008631D02*
X001761Y009231D01*
X003541Y009231D02*
X003541Y008631D01*
D14*
X008161Y019256D03*
X012641Y019256D03*
D15*
X002684Y001138D02*
X001133Y001138D01*
X001047Y001224D02*
X000922Y001441D01*
X000857Y001683D01*
X000849Y001809D01*
X000849Y018994D01*
X000857Y019119D01*
X000922Y019361D01*
X001047Y019578D01*
X001224Y019755D01*
X001441Y019881D01*
X001683Y019946D01*
X001809Y019954D01*
X001866Y019954D01*
X018936Y019954D01*
X018994Y019954D01*
X019119Y019946D01*
X019361Y019881D01*
X019578Y019755D01*
X019755Y019578D01*
X019881Y019361D01*
X019946Y019119D01*
X019954Y018994D01*
X019954Y004779D01*
X019877Y004963D01*
X019723Y005117D01*
X019521Y005201D01*
X019521Y007243D01*
X019701Y007423D01*
X019701Y007879D01*
X019521Y008059D01*
X019521Y015078D01*
X019521Y015225D01*
X019465Y015361D01*
X015965Y018861D01*
X015861Y018965D01*
X015725Y019021D01*
X013200Y019021D01*
X013201Y019024D01*
X013231Y019114D01*
X013245Y019206D01*
X012692Y019206D01*
X012692Y019306D01*
X013245Y019306D01*
X013231Y019397D01*
X013201Y019488D01*
X013158Y019572D01*
X013102Y019649D01*
X013035Y019717D01*
X012958Y019772D01*
X012873Y019816D01*
X012783Y019845D01*
X012691Y019859D01*
X012691Y019306D01*
X012591Y019306D01*
X012591Y019859D01*
X012500Y019845D01*
X012409Y019816D01*
X012325Y019772D01*
X012248Y019717D01*
X012180Y019649D01*
X012125Y019572D01*
X012081Y019488D01*
X012052Y019397D01*
X012037Y019306D01*
X012591Y019306D01*
X012591Y019206D01*
X012037Y019206D01*
X012052Y019114D01*
X012081Y019024D01*
X012083Y019021D01*
X008919Y019021D01*
X008805Y019134D01*
X008805Y019384D01*
X008707Y019621D01*
X008526Y019802D01*
X008289Y019900D01*
X008033Y019900D01*
X007796Y019802D01*
X007615Y019621D01*
X007517Y019384D01*
X007517Y019127D01*
X007615Y018891D01*
X007796Y018709D01*
X008033Y018611D01*
X008282Y018611D01*
X008556Y018338D01*
X008692Y018281D01*
X008839Y018281D01*
X015498Y018281D01*
X018781Y014998D01*
X018781Y008059D01*
X018601Y007879D01*
X018601Y007423D01*
X018781Y007243D01*
X018781Y005201D01*
X018580Y005117D01*
X018491Y005029D01*
X018491Y005719D01*
X018439Y005844D01*
X018344Y005939D01*
X017121Y007162D01*
X017121Y007621D01*
X016641Y007621D01*
X016641Y007440D01*
X016715Y007366D01*
X016709Y007366D01*
X014469Y007366D01*
X014334Y007366D01*
X014209Y007314D01*
X013760Y006866D01*
X010849Y006866D01*
X010792Y006923D01*
X010619Y006995D01*
X010491Y006995D01*
X010491Y007088D01*
X010589Y007186D01*
X013084Y007186D01*
X013219Y007186D01*
X013344Y007238D01*
X016469Y010363D01*
X016564Y010459D01*
X016616Y010584D01*
X016616Y011588D01*
X016826Y011798D01*
X016826Y012254D01*
X016504Y012576D01*
X016307Y012576D01*
X016582Y012851D01*
X016629Y012851D01*
X016901Y013123D01*
X017173Y012851D01*
X017629Y012851D01*
X017951Y013173D01*
X017951Y013629D01*
X017629Y013951D01*
X017173Y013951D01*
X016901Y013679D01*
X016741Y013839D01*
X016741Y014784D01*
X016923Y014601D01*
X017379Y014601D01*
X017701Y014923D01*
X017701Y015379D01*
X017379Y015701D01*
X016923Y015701D01*
X016651Y015429D01*
X016379Y015701D01*
X016082Y015701D01*
X015932Y015851D01*
X016129Y015851D01*
X016451Y016173D01*
X016451Y016629D01*
X016241Y016839D01*
X016241Y017209D01*
X016241Y017344D01*
X016189Y017469D01*
X015564Y018094D01*
X015469Y018189D01*
X015344Y018241D01*
X013594Y018241D01*
X013459Y018241D01*
X013334Y018189D01*
X012834Y017689D01*
X012738Y017594D01*
X012686Y017469D01*
X012686Y017464D01*
X012588Y017366D01*
X011844Y017366D01*
X011709Y017366D01*
X011584Y017314D01*
X011345Y017076D01*
X011048Y017076D01*
X010838Y016866D01*
X010834Y016866D01*
X010709Y016814D01*
X010613Y016719D01*
X009845Y015951D01*
X009548Y015951D01*
X009338Y015741D01*
X009334Y015741D01*
X009209Y015689D01*
X009113Y015594D01*
X009113Y015594D01*
X008220Y014701D01*
X007923Y014701D01*
X007601Y014379D01*
X007601Y013923D01*
X007923Y013601D01*
X008379Y013601D01*
X008651Y013873D01*
X008923Y013601D01*
X009379Y013601D01*
X009589Y013811D01*
X012584Y013811D01*
X012719Y013811D01*
X012844Y013863D01*
X014832Y015851D01*
X014970Y015851D01*
X015601Y015220D01*
X015601Y015120D01*
X015558Y015120D01*
X015386Y015048D01*
X015254Y014917D01*
X015183Y014744D01*
X015183Y014664D01*
X014363Y013844D01*
X014311Y013719D01*
X014311Y013584D01*
X014311Y011214D01*
X014151Y011054D01*
X013879Y011326D01*
X013423Y011326D01*
X013315Y011218D01*
X011245Y013289D01*
X011245Y013369D01*
X011173Y013542D01*
X011042Y013673D01*
X010869Y013745D01*
X010683Y013745D01*
X010511Y013673D01*
X010379Y013542D01*
X010308Y013369D01*
X010308Y013183D01*
X010379Y013011D01*
X010511Y012879D01*
X010683Y012808D01*
X010764Y012808D01*
X012795Y010776D01*
X012095Y010076D01*
X011798Y010076D01*
X011588Y009866D01*
X011459Y009866D01*
X011334Y009814D01*
X011238Y009719D01*
X010595Y009076D01*
X010298Y009076D01*
X010088Y008866D01*
X010084Y008866D01*
X009959Y008814D01*
X009863Y008719D01*
X009220Y008076D01*
X008923Y008076D01*
X008713Y007866D01*
X008584Y007866D01*
X008459Y007814D01*
X008363Y007719D01*
X007988Y007344D01*
X007936Y007219D01*
X007936Y007084D01*
X007936Y007076D01*
X007548Y007076D01*
X007226Y006754D01*
X007226Y006707D01*
X006470Y005951D01*
X006173Y005951D01*
X005963Y005741D01*
X005844Y005741D01*
X005709Y005741D01*
X005584Y005689D01*
X004970Y005076D01*
X004673Y005076D01*
X004351Y004754D01*
X004351Y004707D01*
X003595Y003951D01*
X003298Y003951D01*
X002976Y003629D01*
X002976Y003173D01*
X003298Y002851D01*
X003595Y002851D01*
X004084Y002363D01*
X004209Y002311D01*
X004344Y002311D01*
X009219Y002311D01*
X009344Y002363D01*
X009439Y002459D01*
X009664Y002683D01*
X009744Y002683D01*
X009917Y002754D01*
X010048Y002886D01*
X010120Y003058D01*
X010120Y003244D01*
X010048Y003417D01*
X009917Y003548D01*
X009744Y003620D01*
X009558Y003620D01*
X009386Y003548D01*
X009254Y003417D01*
X009183Y003244D01*
X009183Y003164D01*
X009010Y002991D01*
X004894Y002991D01*
X004964Y003061D01*
X006834Y003061D01*
X006969Y003061D01*
X007094Y003113D01*
X009151Y005170D01*
X012459Y001863D01*
X012584Y001811D01*
X012719Y001811D01*
X012829Y001811D01*
X012886Y001754D01*
X013058Y001683D01*
X013244Y001683D01*
X013417Y001754D01*
X013548Y001886D01*
X013620Y002058D01*
X013620Y002244D01*
X013548Y002417D01*
X013417Y002548D01*
X013244Y002620D01*
X013058Y002620D01*
X012886Y002548D01*
X012829Y002491D01*
X012792Y002491D01*
X009632Y005651D01*
X010185Y006205D01*
X010261Y006129D01*
X010433Y006058D01*
X010619Y006058D01*
X010792Y006129D01*
X010849Y006186D01*
X013969Y006186D01*
X014094Y006238D01*
X014189Y006334D01*
X014542Y006686D01*
X016635Y006686D01*
X017811Y005510D01*
X017811Y004219D01*
X017811Y004084D01*
X017863Y003959D01*
X018363Y003459D01*
X018385Y003437D01*
X018425Y003340D01*
X018580Y003185D01*
X018661Y003151D01*
X018580Y003117D01*
X018425Y002963D01*
X018341Y002761D01*
X018341Y002542D01*
X018425Y002340D01*
X018580Y002185D01*
X018661Y002151D01*
X018580Y002117D01*
X018425Y001963D01*
X018341Y001761D01*
X018341Y001542D01*
X018425Y001340D01*
X018580Y001185D01*
X018782Y001101D01*
X019521Y001101D01*
X019711Y001180D01*
X019578Y001047D01*
X019361Y000922D01*
X019119Y000857D01*
X018994Y000849D01*
X016809Y000849D01*
X016844Y000863D01*
X016939Y000959D01*
X017344Y001363D01*
X017439Y001459D01*
X017491Y001584D01*
X017491Y004334D01*
X017491Y004469D01*
X017439Y004594D01*
X017189Y004844D01*
X017094Y004939D01*
X016969Y004991D01*
X016849Y004991D01*
X016723Y005117D01*
X016521Y005201D01*
X015782Y005201D01*
X015580Y005117D01*
X015425Y004963D01*
X015341Y004761D01*
X015341Y004542D01*
X015425Y004340D01*
X015580Y004185D01*
X015661Y004151D01*
X015580Y004117D01*
X015425Y003963D01*
X015341Y003761D01*
X015341Y003542D01*
X015425Y003340D01*
X015580Y003185D01*
X015661Y003151D01*
X015580Y003117D01*
X015425Y002963D01*
X015341Y002761D01*
X015341Y002542D01*
X015425Y002340D01*
X015580Y002185D01*
X015713Y002130D01*
X015695Y002124D01*
X013620Y002124D01*
X013620Y002222D02*
X015543Y002222D01*
X015444Y002321D02*
X013588Y002321D01*
X013546Y002419D02*
X015392Y002419D01*
X015351Y002518D02*
X013447Y002518D01*
X013252Y002616D02*
X015341Y002616D01*
X015341Y002715D02*
X012568Y002715D01*
X012470Y002813D02*
X015363Y002813D01*
X015404Y002912D02*
X012371Y002912D01*
X012273Y003011D02*
X015473Y003011D01*
X015571Y003109D02*
X012174Y003109D01*
X012076Y003208D02*
X015557Y003208D01*
X015459Y003306D02*
X011977Y003306D01*
X011879Y003405D02*
X015398Y003405D01*
X015357Y003503D02*
X011780Y003503D01*
X011681Y003602D02*
X015341Y003602D01*
X015341Y003700D02*
X011583Y003700D01*
X011484Y003799D02*
X015357Y003799D01*
X015398Y003897D02*
X011386Y003897D01*
X011287Y003996D02*
X015458Y003996D01*
X015557Y004094D02*
X011189Y004094D01*
X011090Y004193D02*
X015572Y004193D01*
X015473Y004292D02*
X010992Y004292D01*
X010893Y004390D02*
X015404Y004390D01*
X015363Y004489D02*
X010795Y004489D01*
X010696Y004587D02*
X015341Y004587D01*
X015341Y004686D02*
X010598Y004686D01*
X010499Y004784D02*
X015351Y004784D01*
X015392Y004883D02*
X010400Y004883D01*
X010302Y004981D02*
X015444Y004981D01*
X015542Y005080D02*
X010203Y005080D01*
X010105Y005178D02*
X015727Y005178D01*
X016151Y004651D02*
X016901Y004651D01*
X017151Y004401D01*
X017151Y001651D01*
X016651Y001151D01*
X003151Y001151D01*
X001761Y002541D01*
X001761Y006371D01*
X001761Y008931D01*
X002276Y008332D02*
X003079Y008332D01*
X003071Y008343D02*
X003122Y008273D01*
X003183Y008212D01*
X003253Y008161D01*
X003330Y008122D01*
X003412Y008095D01*
X003491Y008082D01*
X003491Y008881D01*
X002991Y008881D01*
X002991Y008588D01*
X003005Y008502D01*
X003032Y008420D01*
X003071Y008343D01*
X003028Y008430D02*
X002317Y008430D01*
X002351Y008514D02*
X002351Y009349D01*
X002261Y009565D01*
X002095Y009731D01*
X001879Y009821D01*
X001644Y009821D01*
X001427Y009731D01*
X001261Y009565D01*
X001171Y009349D01*
X001171Y008514D01*
X001261Y008297D01*
X001421Y008137D01*
X001421Y007166D01*
X001261Y007005D01*
X001171Y006789D01*
X001171Y005954D01*
X001261Y005737D01*
X001421Y005577D01*
X001421Y002609D01*
X001421Y002474D01*
X001473Y002349D01*
X002959Y000863D01*
X002993Y000849D01*
X001866Y000849D01*
X001809Y000849D01*
X001683Y000857D01*
X001441Y000922D01*
X001224Y001047D01*
X001047Y001224D01*
X001040Y001237D02*
X002585Y001237D01*
X002486Y001335D02*
X000983Y001335D01*
X000926Y001434D02*
X002388Y001434D01*
X002289Y001532D02*
X000897Y001532D01*
X000871Y001631D02*
X002191Y001631D01*
X002092Y001729D02*
X000854Y001729D01*
X000849Y001828D02*
X001994Y001828D01*
X001895Y001927D02*
X000849Y001927D01*
X000849Y002025D02*
X001797Y002025D01*
X001698Y002124D02*
X000849Y002124D01*
X000849Y002222D02*
X001600Y002222D01*
X001501Y002321D02*
X000849Y002321D01*
X000849Y002419D02*
X001444Y002419D01*
X001421Y002518D02*
X000849Y002518D01*
X000849Y002616D02*
X001421Y002616D01*
X001421Y002715D02*
X000849Y002715D01*
X000849Y002813D02*
X001421Y002813D01*
X001421Y002912D02*
X000849Y002912D01*
X000849Y003011D02*
X001421Y003011D01*
X001421Y003109D02*
X000849Y003109D01*
X000849Y003208D02*
X001421Y003208D01*
X001421Y003306D02*
X000849Y003306D01*
X000849Y003405D02*
X001421Y003405D01*
X001421Y003503D02*
X000849Y003503D01*
X000849Y003602D02*
X001421Y003602D01*
X001421Y003700D02*
X000849Y003700D01*
X000849Y003799D02*
X001421Y003799D01*
X001421Y003897D02*
X000849Y003897D01*
X000849Y003996D02*
X001421Y003996D01*
X001421Y004094D02*
X000849Y004094D01*
X000849Y004193D02*
X001421Y004193D01*
X001421Y004292D02*
X000849Y004292D01*
X000849Y004390D02*
X001421Y004390D01*
X001421Y004489D02*
X000849Y004489D01*
X000849Y004587D02*
X001421Y004587D01*
X001421Y004686D02*
X000849Y004686D01*
X000849Y004784D02*
X001421Y004784D01*
X001421Y004883D02*
X000849Y004883D01*
X000849Y004981D02*
X001421Y004981D01*
X001421Y005080D02*
X000849Y005080D01*
X000849Y005178D02*
X001421Y005178D01*
X001421Y005277D02*
X000849Y005277D01*
X000849Y005376D02*
X001421Y005376D01*
X001421Y005474D02*
X000849Y005474D01*
X000849Y005573D02*
X001421Y005573D01*
X001327Y005671D02*
X000849Y005671D01*
X000849Y005770D02*
X001248Y005770D01*
X001207Y005868D02*
X000849Y005868D01*
X000849Y005967D02*
X001171Y005967D01*
X001171Y006065D02*
X000849Y006065D01*
X000849Y006164D02*
X001171Y006164D01*
X001171Y006262D02*
X000849Y006262D01*
X000849Y006361D02*
X001171Y006361D01*
X001171Y006460D02*
X000849Y006460D01*
X000849Y006558D02*
X001171Y006558D01*
X001171Y006657D02*
X000849Y006657D01*
X000849Y006755D02*
X001171Y006755D01*
X001198Y006854D02*
X000849Y006854D01*
X000849Y006952D02*
X001239Y006952D01*
X001306Y007051D02*
X000849Y007051D01*
X000849Y007149D02*
X001405Y007149D01*
X001421Y007248D02*
X000849Y007248D01*
X000849Y007346D02*
X001421Y007346D01*
X001421Y007445D02*
X000849Y007445D01*
X000849Y007544D02*
X001421Y007544D01*
X001421Y007642D02*
X000849Y007642D01*
X000849Y007741D02*
X001421Y007741D01*
X001421Y007839D02*
X000849Y007839D01*
X000849Y007938D02*
X001421Y007938D01*
X001421Y008036D02*
X000849Y008036D01*
X000849Y008135D02*
X001421Y008135D01*
X001325Y008233D02*
X000849Y008233D01*
X000849Y008332D02*
X001247Y008332D01*
X001206Y008430D02*
X000849Y008430D01*
X000849Y008529D02*
X001171Y008529D01*
X001171Y008627D02*
X000849Y008627D01*
X000849Y008726D02*
X001171Y008726D01*
X001171Y008825D02*
X000849Y008825D01*
X000849Y008923D02*
X001171Y008923D01*
X001171Y009022D02*
X000849Y009022D01*
X000849Y009120D02*
X001171Y009120D01*
X001171Y009219D02*
X000849Y009219D01*
X000849Y009317D02*
X001171Y009317D01*
X001199Y009416D02*
X000849Y009416D01*
X000849Y009514D02*
X001240Y009514D01*
X001309Y009613D02*
X000849Y009613D01*
X000849Y009711D02*
X001407Y009711D01*
X001617Y009810D02*
X000849Y009810D01*
X000849Y009909D02*
X011631Y009909D01*
X011729Y010007D02*
X000849Y010007D01*
X000849Y010106D02*
X012125Y010106D01*
X012223Y010204D02*
X000849Y010204D01*
X000849Y010303D02*
X012322Y010303D01*
X012421Y010401D02*
X000849Y010401D01*
X000849Y010500D02*
X012519Y010500D01*
X012618Y010598D02*
X000849Y010598D01*
X000849Y010697D02*
X012716Y010697D01*
X012776Y010795D02*
X000849Y010795D01*
X000849Y010894D02*
X012678Y010894D01*
X012579Y010993D02*
X000849Y010993D01*
X000849Y011091D02*
X012481Y011091D01*
X012382Y011190D02*
X000849Y011190D01*
X000849Y011288D02*
X012284Y011288D01*
X012185Y011387D02*
X000849Y011387D01*
X000849Y011485D02*
X012086Y011485D01*
X011988Y011584D02*
X000849Y011584D01*
X000849Y011682D02*
X011889Y011682D01*
X011791Y011781D02*
X000849Y011781D01*
X000849Y011879D02*
X011692Y011879D01*
X011594Y011978D02*
X000849Y011978D01*
X000849Y012076D02*
X011495Y012076D01*
X011397Y012175D02*
X000849Y012175D01*
X000849Y012274D02*
X011298Y012274D01*
X011200Y012372D02*
X000849Y012372D01*
X000849Y012471D02*
X011101Y012471D01*
X011002Y012569D02*
X000849Y012569D01*
X000849Y012668D02*
X010904Y012668D01*
X010805Y012766D02*
X000849Y012766D01*
X000849Y012865D02*
X010545Y012865D01*
X010427Y012963D02*
X000849Y012963D01*
X000849Y013062D02*
X010358Y013062D01*
X010317Y013160D02*
X000849Y013160D01*
X000849Y013259D02*
X010308Y013259D01*
X010308Y013358D02*
X000849Y013358D01*
X000849Y013456D02*
X010344Y013456D01*
X010392Y013555D02*
X000849Y013555D01*
X000849Y013653D02*
X007871Y013653D01*
X007773Y013752D02*
X000849Y013752D01*
X000849Y013850D02*
X007674Y013850D01*
X007601Y013949D02*
X000849Y013949D01*
X000849Y014047D02*
X007601Y014047D01*
X007601Y014146D02*
X000849Y014146D01*
X000849Y014244D02*
X007601Y014244D01*
X007601Y014343D02*
X000849Y014343D01*
X000849Y014442D02*
X007664Y014442D01*
X007762Y014540D02*
X000849Y014540D01*
X000849Y014639D02*
X007861Y014639D01*
X008256Y014737D02*
X000849Y014737D01*
X000849Y014836D02*
X008355Y014836D01*
X008454Y014934D02*
X000849Y014934D01*
X000849Y015033D02*
X008552Y015033D01*
X008651Y015131D02*
X000849Y015131D01*
X000849Y015230D02*
X008749Y015230D01*
X008848Y015328D02*
X000849Y015328D01*
X000849Y015427D02*
X008946Y015427D01*
X009045Y015526D02*
X000849Y015526D01*
X000849Y015624D02*
X009143Y015624D01*
X009289Y015723D02*
X000849Y015723D01*
X000849Y015821D02*
X009418Y015821D01*
X009517Y015920D02*
X000849Y015920D01*
X000849Y016018D02*
X009912Y016018D01*
X010011Y016117D02*
X000849Y016117D01*
X000849Y016215D02*
X010110Y016215D01*
X010208Y016314D02*
X000849Y016314D01*
X000849Y016412D02*
X010307Y016412D01*
X010405Y016511D02*
X000849Y016511D01*
X000849Y016609D02*
X010504Y016609D01*
X010602Y016708D02*
X000849Y016708D01*
X000849Y016807D02*
X010701Y016807D01*
X010877Y016905D02*
X000849Y016905D01*
X000849Y017004D02*
X010976Y017004D01*
X011371Y017102D02*
X000849Y017102D01*
X000849Y017201D02*
X011470Y017201D01*
X011569Y017299D02*
X000849Y017299D01*
X000849Y017398D02*
X002478Y017398D01*
X002500Y017389D02*
X002219Y017505D01*
X002005Y017719D01*
X001889Y018000D01*
X001889Y018303D01*
X002005Y018583D01*
X002219Y018798D01*
X002500Y018914D01*
X002803Y018914D01*
X003083Y018798D01*
X003298Y018583D01*
X003414Y018303D01*
X003414Y018000D01*
X003298Y017719D01*
X003083Y017505D01*
X002803Y017389D01*
X002500Y017389D01*
X002825Y017398D02*
X012620Y017398D01*
X012698Y017496D02*
X003063Y017496D01*
X003173Y017595D02*
X012739Y017595D01*
X012838Y017693D02*
X003272Y017693D01*
X003328Y017792D02*
X012936Y017792D01*
X013035Y017891D02*
X003369Y017891D01*
X003409Y017989D02*
X013133Y017989D01*
X013232Y018088D02*
X003414Y018088D01*
X003414Y018186D02*
X013330Y018186D01*
X013526Y017901D02*
X013026Y017401D01*
X013026Y017026D01*
X011776Y017026D01*
X011276Y016526D01*
X010901Y016526D01*
X009776Y015401D01*
X009401Y015401D01*
X008151Y014151D01*
X008530Y013752D02*
X008773Y013752D01*
X008674Y013850D02*
X008628Y013850D01*
X008431Y013653D02*
X008871Y013653D01*
X009431Y013653D02*
X010491Y013653D01*
X010776Y013276D02*
X013276Y010776D01*
X013651Y010776D01*
X013276Y010776D02*
X012026Y009526D01*
X011526Y009526D01*
X010526Y008526D01*
X010151Y008526D01*
X009151Y007526D01*
X008651Y007526D01*
X008276Y007151D01*
X008276Y005401D01*
X007401Y004526D01*
X005901Y004526D01*
X005776Y005401D02*
X004901Y004526D01*
X004651Y004526D01*
X003526Y003401D01*
X004276Y002651D01*
X009151Y002651D01*
X009651Y003151D01*
X009962Y003503D02*
X010818Y003503D01*
X010720Y003602D02*
X009788Y003602D01*
X010053Y003405D02*
X010917Y003405D01*
X011016Y003306D02*
X010094Y003306D01*
X010120Y003208D02*
X011114Y003208D01*
X011213Y003109D02*
X010120Y003109D01*
X010100Y003011D02*
X011311Y003011D01*
X011410Y002912D02*
X010059Y002912D01*
X009976Y002813D02*
X011508Y002813D01*
X011607Y002715D02*
X009822Y002715D01*
X009597Y002616D02*
X011705Y002616D01*
X011804Y002518D02*
X009499Y002518D01*
X009400Y002419D02*
X011902Y002419D01*
X012001Y002321D02*
X009242Y002321D01*
X009030Y003011D02*
X004913Y003011D01*
X004526Y003401D02*
X006901Y003401D01*
X009151Y005651D01*
X012651Y002151D01*
X013151Y002151D01*
X013490Y001828D02*
X015412Y001828D01*
X015419Y001847D02*
X015394Y001771D01*
X015381Y001691D01*
X015381Y001681D01*
X016121Y001681D01*
X016121Y001621D01*
X015381Y001621D01*
X015381Y001611D01*
X015394Y001532D01*
X015407Y001491D01*
X003292Y001491D01*
X002101Y002682D01*
X002101Y005577D01*
X002261Y005737D01*
X002351Y005954D01*
X002351Y006789D01*
X002261Y007005D01*
X002101Y007166D01*
X002101Y008137D01*
X002261Y008297D01*
X002351Y008514D01*
X002351Y008529D02*
X003001Y008529D01*
X002991Y008627D02*
X002351Y008627D01*
X002351Y008726D02*
X002991Y008726D01*
X002991Y008825D02*
X002351Y008825D01*
X002351Y008923D02*
X003491Y008923D01*
X003491Y008881D02*
X003491Y008981D01*
X002991Y008981D01*
X002991Y009275D01*
X003005Y009360D01*
X003032Y009442D01*
X003071Y009519D01*
X003122Y009590D01*
X003183Y009651D01*
X003253Y009702D01*
X003330Y009741D01*
X003412Y009768D01*
X003491Y009780D01*
X003491Y008981D01*
X003591Y008981D01*
X003591Y009780D01*
X003670Y009768D01*
X003752Y009741D01*
X003829Y009702D01*
X003900Y009651D01*
X003961Y009590D01*
X004012Y009519D01*
X004051Y009442D01*
X004078Y009360D01*
X004091Y009275D01*
X004091Y008981D01*
X003591Y008981D01*
X003591Y008881D01*
X003591Y008082D01*
X003670Y008095D01*
X003752Y008122D01*
X003829Y008161D01*
X003900Y008212D01*
X003961Y008273D01*
X004012Y008343D01*
X004051Y008420D01*
X004078Y008502D01*
X004091Y008588D01*
X004091Y008881D01*
X003591Y008881D01*
X003491Y008881D01*
X003491Y008825D02*
X003591Y008825D01*
X003591Y008923D02*
X010145Y008923D01*
X010244Y009022D02*
X004091Y009022D01*
X004091Y009120D02*
X010639Y009120D01*
X010738Y009219D02*
X004091Y009219D01*
X004084Y009317D02*
X010837Y009317D01*
X010935Y009416D02*
X004060Y009416D01*
X004014Y009514D02*
X011034Y009514D01*
X011132Y009613D02*
X003937Y009613D01*
X003810Y009711D02*
X011231Y009711D01*
X011329Y009810D02*
X001906Y009810D01*
X002115Y009711D02*
X003272Y009711D01*
X003145Y009613D02*
X002214Y009613D01*
X002283Y009514D02*
X003068Y009514D01*
X003023Y009416D02*
X002323Y009416D01*
X002351Y009317D02*
X002998Y009317D01*
X002991Y009219D02*
X002351Y009219D01*
X002351Y009120D02*
X002991Y009120D01*
X002991Y009022D02*
X002351Y009022D01*
X002198Y008233D02*
X003161Y008233D01*
X003304Y008135D02*
X002101Y008135D01*
X002101Y008036D02*
X008883Y008036D01*
X008785Y007938D02*
X002101Y007938D01*
X002101Y007839D02*
X008518Y007839D01*
X008385Y007741D02*
X002101Y007741D01*
X002101Y007642D02*
X008286Y007642D01*
X008188Y007544D02*
X002101Y007544D01*
X002101Y007445D02*
X008089Y007445D01*
X007991Y007346D02*
X002101Y007346D01*
X002101Y007248D02*
X007948Y007248D01*
X007936Y007149D02*
X003814Y007149D01*
X003829Y007142D02*
X003752Y007181D01*
X003670Y007208D01*
X003591Y007220D01*
X003591Y006421D01*
X003491Y006421D01*
X003491Y006321D01*
X002991Y006321D01*
X002991Y006028D01*
X003005Y005942D01*
X003032Y005860D01*
X003071Y005783D01*
X003122Y005713D01*
X003183Y005652D01*
X003253Y005601D01*
X003330Y005562D01*
X003412Y005535D01*
X003491Y005522D01*
X003491Y006321D01*
X003591Y006321D01*
X003591Y005522D01*
X003670Y005535D01*
X003752Y005562D01*
X003829Y005601D01*
X003900Y005652D01*
X003961Y005713D01*
X004012Y005783D01*
X004051Y005860D01*
X004078Y005942D01*
X004091Y006028D01*
X004091Y006321D01*
X003591Y006321D01*
X003591Y006421D01*
X004091Y006421D01*
X004091Y006715D01*
X004078Y006800D01*
X004051Y006882D01*
X004012Y006959D01*
X003961Y007030D01*
X003900Y007091D01*
X003829Y007142D01*
X003939Y007051D02*
X007523Y007051D01*
X007424Y006952D02*
X004015Y006952D01*
X004060Y006854D02*
X007326Y006854D01*
X007227Y006755D02*
X004085Y006755D01*
X004091Y006657D02*
X007176Y006657D01*
X007077Y006558D02*
X004091Y006558D01*
X004091Y006460D02*
X006979Y006460D01*
X006880Y006361D02*
X003591Y006361D01*
X003591Y006262D02*
X003491Y006262D01*
X003491Y006164D02*
X003591Y006164D01*
X003591Y006065D02*
X003491Y006065D01*
X003491Y005967D02*
X003591Y005967D01*
X003591Y005868D02*
X003491Y005868D01*
X003491Y005770D02*
X003591Y005770D01*
X003591Y005671D02*
X003491Y005671D01*
X003491Y005573D02*
X003591Y005573D01*
X003774Y005573D02*
X005467Y005573D01*
X005565Y005671D02*
X003919Y005671D01*
X004002Y005770D02*
X005992Y005770D01*
X006090Y005868D02*
X004054Y005868D01*
X004082Y005967D02*
X006486Y005967D01*
X006585Y006065D02*
X004091Y006065D01*
X004091Y006164D02*
X006683Y006164D01*
X006782Y006262D02*
X004091Y006262D01*
X003591Y006460D02*
X003491Y006460D01*
X003491Y006421D02*
X003491Y007220D01*
X003412Y007208D01*
X003330Y007181D01*
X003253Y007142D01*
X003183Y007091D01*
X003122Y007030D01*
X003071Y006959D01*
X003032Y006882D01*
X003005Y006800D01*
X002991Y006715D01*
X002991Y006421D01*
X003491Y006421D01*
X003491Y006361D02*
X002351Y006361D01*
X002351Y006262D02*
X002991Y006262D01*
X002991Y006164D02*
X002351Y006164D01*
X002351Y006065D02*
X002991Y006065D01*
X003001Y005967D02*
X002351Y005967D01*
X002316Y005868D02*
X003029Y005868D01*
X003080Y005770D02*
X002275Y005770D01*
X002196Y005671D02*
X003164Y005671D01*
X003308Y005573D02*
X002101Y005573D01*
X002101Y005474D02*
X005368Y005474D01*
X005270Y005376D02*
X002101Y005376D01*
X002101Y005277D02*
X005171Y005277D01*
X005073Y005178D02*
X002101Y005178D01*
X002101Y005080D02*
X004974Y005080D01*
X004579Y004981D02*
X002101Y004981D01*
X002101Y004883D02*
X004480Y004883D01*
X004381Y004784D02*
X002101Y004784D01*
X002101Y004686D02*
X004330Y004686D01*
X004231Y004587D02*
X002101Y004587D01*
X002101Y004489D02*
X004133Y004489D01*
X004034Y004390D02*
X002101Y004390D01*
X002101Y004292D02*
X003936Y004292D01*
X003837Y004193D02*
X002101Y004193D01*
X002101Y004094D02*
X003739Y004094D01*
X003640Y003996D02*
X002101Y003996D01*
X002101Y003897D02*
X003245Y003897D01*
X003146Y003799D02*
X002101Y003799D01*
X002101Y003700D02*
X003048Y003700D01*
X002976Y003602D02*
X002101Y003602D01*
X002101Y003503D02*
X002976Y003503D01*
X002976Y003405D02*
X002101Y003405D01*
X002101Y003306D02*
X002976Y003306D01*
X002976Y003208D02*
X002101Y003208D01*
X002101Y003109D02*
X003041Y003109D01*
X003139Y003011D02*
X002101Y003011D01*
X002101Y002912D02*
X003238Y002912D01*
X003633Y002813D02*
X002101Y002813D01*
X002101Y002715D02*
X003732Y002715D01*
X003830Y002616D02*
X002167Y002616D01*
X002265Y002518D02*
X003929Y002518D01*
X004027Y002419D02*
X002364Y002419D01*
X002463Y002321D02*
X004186Y002321D01*
X003251Y001532D02*
X015394Y001532D01*
X015387Y001729D02*
X013357Y001729D01*
X013565Y001927D02*
X015461Y001927D01*
X015455Y001919D02*
X015419Y001847D01*
X015455Y001919D02*
X015502Y001983D01*
X015559Y002040D01*
X015624Y002087D01*
X015695Y002124D01*
X015544Y002025D02*
X013606Y002025D01*
X012946Y001729D02*
X003054Y001729D01*
X003152Y001631D02*
X016121Y001631D01*
X016922Y000941D02*
X019395Y000941D01*
X019565Y001040D02*
X017020Y001040D01*
X016939Y000959D02*
X016939Y000959D01*
X017119Y001138D02*
X018693Y001138D01*
X018528Y001237D02*
X017217Y001237D01*
X017316Y001335D02*
X018429Y001335D01*
X018386Y001434D02*
X017415Y001434D01*
X017344Y001363D02*
X017344Y001363D01*
X017470Y001532D02*
X018345Y001532D01*
X018341Y001631D02*
X017491Y001631D01*
X017491Y001729D02*
X018341Y001729D01*
X018369Y001828D02*
X017491Y001828D01*
X017491Y001927D02*
X018410Y001927D01*
X018487Y002025D02*
X017491Y002025D01*
X017491Y002124D02*
X018595Y002124D01*
X018543Y002222D02*
X017491Y002222D01*
X017491Y002321D02*
X018444Y002321D01*
X018392Y002419D02*
X017491Y002419D01*
X017491Y002518D02*
X018351Y002518D01*
X018341Y002616D02*
X017491Y002616D01*
X017491Y002715D02*
X018341Y002715D01*
X018363Y002813D02*
X017491Y002813D01*
X017491Y002912D02*
X018404Y002912D01*
X018473Y003011D02*
X017491Y003011D01*
X017491Y003109D02*
X018571Y003109D01*
X018557Y003208D02*
X017491Y003208D01*
X017491Y003306D02*
X018459Y003306D01*
X018398Y003405D02*
X017491Y003405D01*
X017491Y003503D02*
X018318Y003503D01*
X018220Y003602D02*
X017491Y003602D01*
X017491Y003700D02*
X018121Y003700D01*
X018023Y003799D02*
X017491Y003799D01*
X017491Y003897D02*
X017924Y003897D01*
X017848Y003996D02*
X017491Y003996D01*
X017491Y004094D02*
X017811Y004094D01*
X017811Y004193D02*
X017491Y004193D01*
X017491Y004292D02*
X017811Y004292D01*
X017811Y004390D02*
X017491Y004390D01*
X017483Y004489D02*
X017811Y004489D01*
X017811Y004587D02*
X017442Y004587D01*
X017348Y004686D02*
X017811Y004686D01*
X017811Y004784D02*
X017249Y004784D01*
X017150Y004883D02*
X017811Y004883D01*
X017811Y004981D02*
X016993Y004981D01*
X016760Y005080D02*
X017811Y005080D01*
X017811Y005178D02*
X016576Y005178D01*
X017355Y005967D02*
X009948Y005967D01*
X010046Y006065D02*
X010415Y006065D01*
X010226Y006164D02*
X010145Y006164D01*
X009849Y005868D02*
X017453Y005868D01*
X017552Y005770D02*
X009750Y005770D01*
X009652Y005671D02*
X017651Y005671D01*
X017749Y005573D02*
X009711Y005573D01*
X009809Y005474D02*
X017811Y005474D01*
X017811Y005376D02*
X009908Y005376D01*
X010006Y005277D02*
X017811Y005277D01*
X018151Y005651D02*
X018151Y004151D01*
X018651Y003651D01*
X019151Y003651D01*
X019951Y004784D02*
X019954Y004784D01*
X019954Y004883D02*
X019911Y004883D01*
X019954Y004981D02*
X019859Y004981D01*
X019954Y005080D02*
X019760Y005080D01*
X019576Y005178D02*
X019954Y005178D01*
X019954Y005277D02*
X019521Y005277D01*
X019521Y005376D02*
X019954Y005376D01*
X019954Y005474D02*
X019521Y005474D01*
X019521Y005573D02*
X019954Y005573D01*
X019954Y005671D02*
X019521Y005671D01*
X019521Y005770D02*
X019954Y005770D01*
X019954Y005868D02*
X019521Y005868D01*
X019521Y005967D02*
X019954Y005967D01*
X019954Y006065D02*
X019521Y006065D01*
X019521Y006164D02*
X019954Y006164D01*
X019954Y006262D02*
X019521Y006262D01*
X019521Y006361D02*
X019954Y006361D01*
X019954Y006460D02*
X019521Y006460D01*
X019521Y006558D02*
X019954Y006558D01*
X019954Y006657D02*
X019521Y006657D01*
X019521Y006755D02*
X019954Y006755D01*
X019954Y006854D02*
X019521Y006854D01*
X019521Y006952D02*
X019954Y006952D01*
X019954Y007051D02*
X019521Y007051D01*
X019521Y007149D02*
X019954Y007149D01*
X019954Y007248D02*
X019526Y007248D01*
X019624Y007346D02*
X019954Y007346D01*
X019954Y007445D02*
X019701Y007445D01*
X019701Y007544D02*
X019954Y007544D01*
X019954Y007642D02*
X019701Y007642D01*
X019701Y007741D02*
X019954Y007741D01*
X019954Y007839D02*
X019701Y007839D01*
X019643Y007938D02*
X019954Y007938D01*
X019954Y008036D02*
X019544Y008036D01*
X019521Y008135D02*
X019954Y008135D01*
X019954Y008233D02*
X019521Y008233D01*
X019521Y008332D02*
X019954Y008332D01*
X019954Y008430D02*
X019521Y008430D01*
X019521Y008529D02*
X019954Y008529D01*
X019954Y008627D02*
X019521Y008627D01*
X019521Y008726D02*
X019954Y008726D01*
X019954Y008825D02*
X019521Y008825D01*
X019521Y008923D02*
X019954Y008923D01*
X019954Y009022D02*
X019521Y009022D01*
X019521Y009120D02*
X019954Y009120D01*
X019954Y009219D02*
X019521Y009219D01*
X019521Y009317D02*
X019954Y009317D01*
X019954Y009416D02*
X019521Y009416D01*
X019521Y009514D02*
X019954Y009514D01*
X019954Y009613D02*
X019521Y009613D01*
X019521Y009711D02*
X019954Y009711D01*
X019954Y009810D02*
X019521Y009810D01*
X019521Y009909D02*
X019954Y009909D01*
X019954Y010007D02*
X019521Y010007D01*
X019521Y010106D02*
X019954Y010106D01*
X019954Y010204D02*
X019521Y010204D01*
X019521Y010303D02*
X019954Y010303D01*
X019954Y010401D02*
X019521Y010401D01*
X019521Y010500D02*
X019954Y010500D01*
X019954Y010598D02*
X019521Y010598D01*
X019521Y010697D02*
X019954Y010697D01*
X019954Y010795D02*
X019521Y010795D01*
X019521Y010894D02*
X019954Y010894D01*
X019954Y010993D02*
X019521Y010993D01*
X019521Y011091D02*
X019954Y011091D01*
X019954Y011190D02*
X019521Y011190D01*
X019521Y011288D02*
X019954Y011288D01*
X019954Y011387D02*
X019521Y011387D01*
X019521Y011485D02*
X019954Y011485D01*
X019954Y011584D02*
X019521Y011584D01*
X019521Y011682D02*
X019954Y011682D01*
X019954Y011781D02*
X019521Y011781D01*
X019521Y011879D02*
X019954Y011879D01*
X019954Y011978D02*
X019521Y011978D01*
X019521Y012076D02*
X019954Y012076D01*
X019954Y012175D02*
X019521Y012175D01*
X019521Y012274D02*
X019954Y012274D01*
X019954Y012372D02*
X019521Y012372D01*
X019521Y012471D02*
X019954Y012471D01*
X019954Y012569D02*
X019521Y012569D01*
X019521Y012668D02*
X019954Y012668D01*
X019954Y012766D02*
X019521Y012766D01*
X019521Y012865D02*
X019954Y012865D01*
X019954Y012963D02*
X019521Y012963D01*
X019521Y013062D02*
X019954Y013062D01*
X019954Y013160D02*
X019521Y013160D01*
X019521Y013259D02*
X019954Y013259D01*
X019954Y013358D02*
X019521Y013358D01*
X019521Y013456D02*
X019954Y013456D01*
X019954Y013555D02*
X019521Y013555D01*
X019521Y013653D02*
X019954Y013653D01*
X019954Y013752D02*
X019521Y013752D01*
X019521Y013850D02*
X019954Y013850D01*
X019954Y013949D02*
X019521Y013949D01*
X019521Y014047D02*
X019954Y014047D01*
X019954Y014146D02*
X019521Y014146D01*
X019521Y014244D02*
X019954Y014244D01*
X019954Y014343D02*
X019521Y014343D01*
X019521Y014442D02*
X019954Y014442D01*
X019954Y014540D02*
X019521Y014540D01*
X019521Y014639D02*
X019954Y014639D01*
X019954Y014737D02*
X019521Y014737D01*
X019521Y014836D02*
X019954Y014836D01*
X019954Y014934D02*
X019521Y014934D01*
X019521Y015033D02*
X019954Y015033D01*
X019954Y015131D02*
X019521Y015131D01*
X019519Y015230D02*
X019954Y015230D01*
X019954Y015328D02*
X019478Y015328D01*
X019399Y015427D02*
X019954Y015427D01*
X019954Y015526D02*
X019300Y015526D01*
X019202Y015624D02*
X019954Y015624D01*
X019954Y015723D02*
X019103Y015723D01*
X019005Y015821D02*
X019954Y015821D01*
X019954Y015920D02*
X018906Y015920D01*
X018807Y016018D02*
X019954Y016018D01*
X019954Y016117D02*
X018709Y016117D01*
X018610Y016215D02*
X019954Y016215D01*
X019954Y016314D02*
X018512Y016314D01*
X018413Y016412D02*
X019954Y016412D01*
X019954Y016511D02*
X018315Y016511D01*
X018216Y016609D02*
X019954Y016609D01*
X019954Y016708D02*
X018118Y016708D01*
X018019Y016807D02*
X019954Y016807D01*
X019954Y016905D02*
X017921Y016905D01*
X017822Y017004D02*
X019954Y017004D01*
X019954Y017102D02*
X017724Y017102D01*
X017625Y017201D02*
X019954Y017201D01*
X019954Y017299D02*
X017526Y017299D01*
X017428Y017398D02*
X017978Y017398D01*
X018000Y017389D02*
X018303Y017389D01*
X018583Y017505D01*
X018798Y017719D01*
X018914Y018000D01*
X018914Y018303D01*
X018798Y018583D01*
X018583Y018798D01*
X018303Y018914D01*
X018000Y018914D01*
X017719Y018798D01*
X017505Y018583D01*
X017389Y018303D01*
X017389Y018000D01*
X017505Y017719D01*
X017719Y017505D01*
X018000Y017389D01*
X017740Y017496D02*
X017329Y017496D01*
X017231Y017595D02*
X017629Y017595D01*
X017531Y017693D02*
X017132Y017693D01*
X017034Y017792D02*
X017475Y017792D01*
X017434Y017891D02*
X016935Y017891D01*
X016837Y017989D02*
X017393Y017989D01*
X017389Y018088D02*
X016738Y018088D01*
X016640Y018186D02*
X017389Y018186D01*
X017389Y018285D02*
X016541Y018285D01*
X016442Y018383D02*
X017422Y018383D01*
X017463Y018482D02*
X016344Y018482D01*
X016245Y018580D02*
X017504Y018580D01*
X017601Y018679D02*
X016147Y018679D01*
X016048Y018777D02*
X017699Y018777D01*
X017909Y018876D02*
X015950Y018876D01*
X015838Y018975D02*
X019954Y018975D01*
X019949Y019073D02*
X013217Y019073D01*
X013240Y019172D02*
X019931Y019172D01*
X019905Y019270D02*
X012692Y019270D01*
X012691Y019369D02*
X012591Y019369D01*
X012591Y019467D02*
X012691Y019467D01*
X012691Y019566D02*
X012591Y019566D01*
X012591Y019664D02*
X012691Y019664D01*
X012691Y019763D02*
X012591Y019763D01*
X012311Y019763D02*
X008565Y019763D01*
X008664Y019664D02*
X012196Y019664D01*
X012121Y019566D02*
X008730Y019566D01*
X008771Y019467D02*
X012075Y019467D01*
X012047Y019369D02*
X008805Y019369D01*
X008805Y019270D02*
X012591Y019270D01*
X012065Y019073D02*
X008867Y019073D01*
X008805Y019172D02*
X012043Y019172D01*
X012971Y019763D02*
X019565Y019763D01*
X019669Y019664D02*
X013087Y019664D01*
X013162Y019566D02*
X019763Y019566D01*
X019819Y019467D02*
X013208Y019467D01*
X013235Y019369D02*
X019876Y019369D01*
X019395Y019861D02*
X008382Y019861D01*
X007940Y019861D02*
X001408Y019861D01*
X001237Y019763D02*
X007757Y019763D01*
X007659Y019664D02*
X001133Y019664D01*
X001040Y019566D02*
X007592Y019566D01*
X007551Y019467D02*
X000983Y019467D01*
X000926Y019369D02*
X007517Y019369D01*
X007517Y019270D02*
X000897Y019270D01*
X000871Y019172D02*
X007517Y019172D01*
X007539Y019073D02*
X000854Y019073D01*
X000857Y019119D02*
X000857Y019119D01*
X000849Y018975D02*
X007580Y018975D01*
X007629Y018876D02*
X002894Y018876D01*
X003103Y018777D02*
X007728Y018777D01*
X007870Y018679D02*
X003202Y018679D01*
X003299Y018580D02*
X008313Y018580D01*
X008412Y018482D02*
X003340Y018482D01*
X003380Y018383D02*
X008510Y018383D01*
X008683Y018285D02*
X003414Y018285D01*
X002409Y018876D02*
X000849Y018876D01*
X000849Y018777D02*
X002199Y018777D01*
X002101Y018679D02*
X000849Y018679D01*
X000849Y018580D02*
X002004Y018580D01*
X001963Y018482D02*
X000849Y018482D01*
X000849Y018383D02*
X001922Y018383D01*
X001889Y018285D02*
X000849Y018285D01*
X000849Y018186D02*
X001889Y018186D01*
X001889Y018088D02*
X000849Y018088D01*
X000849Y017989D02*
X001893Y017989D01*
X001934Y017891D02*
X000849Y017891D01*
X000849Y017792D02*
X001975Y017792D01*
X002031Y017693D02*
X000849Y017693D01*
X000849Y017595D02*
X002129Y017595D01*
X002240Y017496D02*
X000849Y017496D01*
X003491Y009711D02*
X003591Y009711D01*
X003591Y009613D02*
X003491Y009613D01*
X003491Y009514D02*
X003591Y009514D01*
X003591Y009416D02*
X003491Y009416D01*
X003491Y009317D02*
X003591Y009317D01*
X003591Y009219D02*
X003491Y009219D01*
X003491Y009120D02*
X003591Y009120D01*
X003591Y009022D02*
X003491Y009022D01*
X003491Y008726D02*
X003591Y008726D01*
X003591Y008627D02*
X003491Y008627D01*
X003491Y008529D02*
X003591Y008529D01*
X003591Y008430D02*
X003491Y008430D01*
X003491Y008332D02*
X003591Y008332D01*
X003591Y008233D02*
X003491Y008233D01*
X003491Y008135D02*
X003591Y008135D01*
X003778Y008135D02*
X009279Y008135D01*
X009378Y008233D02*
X003921Y008233D01*
X004004Y008332D02*
X009476Y008332D01*
X009575Y008430D02*
X004054Y008430D01*
X004082Y008529D02*
X009673Y008529D01*
X009772Y008627D02*
X004091Y008627D01*
X004091Y008726D02*
X009870Y008726D01*
X009983Y008825D02*
X004091Y008825D01*
X003591Y007149D02*
X003491Y007149D01*
X003491Y007051D02*
X003591Y007051D01*
X003591Y006952D02*
X003491Y006952D01*
X003491Y006854D02*
X003591Y006854D01*
X003591Y006755D02*
X003491Y006755D01*
X003491Y006657D02*
X003591Y006657D01*
X003591Y006558D02*
X003491Y006558D01*
X002991Y006558D02*
X002351Y006558D01*
X002351Y006460D02*
X002991Y006460D01*
X002991Y006657D02*
X002351Y006657D01*
X002351Y006755D02*
X002998Y006755D01*
X003022Y006854D02*
X002324Y006854D01*
X002283Y006952D02*
X003067Y006952D01*
X003143Y007051D02*
X002216Y007051D01*
X002118Y007149D02*
X003268Y007149D01*
X005776Y005401D02*
X006401Y005401D01*
X007526Y006526D01*
X007776Y006526D01*
X009151Y005651D02*
X010151Y006651D01*
X010151Y007526D01*
X013151Y007526D01*
X016276Y010651D01*
X016276Y012026D01*
X016826Y011978D02*
X018781Y011978D01*
X018781Y012076D02*
X016826Y012076D01*
X016826Y012175D02*
X018781Y012175D01*
X018781Y012274D02*
X016807Y012274D01*
X016708Y012372D02*
X018781Y012372D01*
X018781Y012471D02*
X016610Y012471D01*
X016511Y012569D02*
X018781Y012569D01*
X018781Y012668D02*
X016399Y012668D01*
X016497Y012766D02*
X018781Y012766D01*
X018781Y012865D02*
X017643Y012865D01*
X017741Y012963D02*
X018781Y012963D01*
X018781Y013062D02*
X017840Y013062D01*
X017938Y013160D02*
X018781Y013160D01*
X018781Y013259D02*
X017951Y013259D01*
X017951Y013358D02*
X018781Y013358D01*
X018781Y013456D02*
X017951Y013456D01*
X017951Y013555D02*
X018781Y013555D01*
X018781Y013653D02*
X017927Y013653D01*
X017829Y013752D02*
X018781Y013752D01*
X018781Y013850D02*
X017730Y013850D01*
X017631Y013949D02*
X018781Y013949D01*
X018781Y014047D02*
X016741Y014047D01*
X016741Y013949D02*
X017171Y013949D01*
X017073Y013850D02*
X016741Y013850D01*
X016829Y013752D02*
X016974Y013752D01*
X016741Y014146D02*
X018781Y014146D01*
X018781Y014244D02*
X016741Y014244D01*
X016741Y014343D02*
X018781Y014343D01*
X018781Y014442D02*
X016741Y014442D01*
X016741Y014540D02*
X018781Y014540D01*
X018781Y014639D02*
X017416Y014639D01*
X017515Y014737D02*
X018781Y014737D01*
X018781Y014836D02*
X017614Y014836D01*
X017701Y014934D02*
X018781Y014934D01*
X018746Y015033D02*
X017701Y015033D01*
X017701Y015131D02*
X018648Y015131D01*
X018549Y015230D02*
X017701Y015230D01*
X017701Y015328D02*
X018451Y015328D01*
X018352Y015427D02*
X017653Y015427D01*
X017555Y015526D02*
X018254Y015526D01*
X018155Y015624D02*
X017456Y015624D01*
X017761Y016018D02*
X016296Y016018D01*
X016197Y015920D02*
X017860Y015920D01*
X017958Y015821D02*
X015962Y015821D01*
X016061Y015723D02*
X018057Y015723D01*
X017662Y016117D02*
X016395Y016117D01*
X016451Y016215D02*
X017564Y016215D01*
X017465Y016314D02*
X016451Y016314D01*
X016451Y016412D02*
X017367Y016412D01*
X017268Y016511D02*
X016451Y016511D01*
X016451Y016609D02*
X017170Y016609D01*
X017071Y016708D02*
X016372Y016708D01*
X016274Y016807D02*
X016973Y016807D01*
X016874Y016905D02*
X016241Y016905D01*
X016241Y017004D02*
X016776Y017004D01*
X016677Y017102D02*
X016241Y017102D01*
X016241Y017201D02*
X016579Y017201D01*
X016480Y017299D02*
X016241Y017299D01*
X016219Y017398D02*
X016381Y017398D01*
X016283Y017496D02*
X016162Y017496D01*
X016184Y017595D02*
X016063Y017595D01*
X016086Y017693D02*
X015965Y017693D01*
X015987Y017792D02*
X015866Y017792D01*
X015889Y017891D02*
X015768Y017891D01*
X015790Y017989D02*
X015669Y017989D01*
X015692Y018088D02*
X015571Y018088D01*
X015593Y018186D02*
X015472Y018186D01*
X015276Y017901D02*
X013526Y017901D01*
X015276Y017901D02*
X015901Y017276D01*
X015901Y016401D01*
X016456Y015624D02*
X016846Y015624D01*
X016748Y015526D02*
X016555Y015526D01*
X016151Y015151D02*
X016401Y014901D01*
X016401Y013401D01*
X016401Y013151D01*
X015276Y012026D01*
X015276Y010526D01*
X014276Y009526D01*
X013026Y009526D01*
X014339Y008233D02*
X018781Y008233D01*
X018781Y008135D02*
X017389Y008135D01*
X017362Y008161D02*
X017181Y008161D01*
X017181Y007681D01*
X017121Y007681D01*
X017121Y007621D01*
X017181Y007621D01*
X017181Y007141D01*
X017362Y007141D01*
X017661Y007440D01*
X017661Y007621D01*
X017181Y007621D01*
X017181Y007681D01*
X017661Y007681D01*
X017661Y007862D01*
X017362Y008161D01*
X017487Y008036D02*
X018758Y008036D01*
X018660Y007938D02*
X017586Y007938D01*
X017661Y007839D02*
X018601Y007839D01*
X018601Y007741D02*
X017661Y007741D01*
X017661Y007544D02*
X018601Y007544D01*
X018601Y007642D02*
X017181Y007642D01*
X017121Y007642D02*
X013748Y007642D01*
X013846Y007741D02*
X016641Y007741D01*
X016641Y007681D02*
X016641Y007862D01*
X016940Y008161D01*
X017121Y008161D01*
X017121Y007681D01*
X016641Y007681D01*
X016641Y007544D02*
X013649Y007544D01*
X013551Y007445D02*
X016641Y007445D01*
X016641Y007839D02*
X013945Y007839D01*
X014043Y007938D02*
X016716Y007938D01*
X016815Y008036D02*
X014142Y008036D01*
X014241Y008135D02*
X016914Y008135D01*
X017121Y008135D02*
X017181Y008135D01*
X017181Y008036D02*
X017121Y008036D01*
X017121Y007938D02*
X017181Y007938D01*
X017181Y007839D02*
X017121Y007839D01*
X017121Y007741D02*
X017181Y007741D01*
X017181Y007544D02*
X017121Y007544D01*
X017121Y007445D02*
X017181Y007445D01*
X017181Y007346D02*
X017121Y007346D01*
X017121Y007248D02*
X017181Y007248D01*
X017181Y007149D02*
X017134Y007149D01*
X017232Y007051D02*
X018781Y007051D01*
X018781Y007149D02*
X017371Y007149D01*
X017469Y007248D02*
X018777Y007248D01*
X018678Y007346D02*
X017568Y007346D01*
X017661Y007445D02*
X018601Y007445D01*
X018781Y006952D02*
X017331Y006952D01*
X017430Y006854D02*
X018781Y006854D01*
X018781Y006755D02*
X017528Y006755D01*
X017627Y006657D02*
X018781Y006657D01*
X018781Y006558D02*
X017725Y006558D01*
X017824Y006460D02*
X018781Y006460D01*
X018781Y006361D02*
X017922Y006361D01*
X018021Y006262D02*
X018781Y006262D01*
X018781Y006164D02*
X018119Y006164D01*
X018218Y006065D02*
X018781Y006065D01*
X018781Y005967D02*
X018316Y005967D01*
X018415Y005868D02*
X018781Y005868D01*
X018781Y005770D02*
X018470Y005770D01*
X018491Y005671D02*
X018781Y005671D01*
X018781Y005573D02*
X018491Y005573D01*
X018491Y005474D02*
X018781Y005474D01*
X018781Y005376D02*
X018491Y005376D01*
X018491Y005277D02*
X018781Y005277D01*
X018727Y005178D02*
X018491Y005178D01*
X018491Y005080D02*
X018542Y005080D01*
X018151Y005651D02*
X016776Y007026D01*
X014401Y007026D01*
X013901Y006526D01*
X010526Y006526D01*
X010722Y006952D02*
X013846Y006952D01*
X013945Y007051D02*
X010491Y007051D01*
X010552Y007149D02*
X014044Y007149D01*
X014142Y007248D02*
X013354Y007248D01*
X013452Y007346D02*
X014286Y007346D01*
X014512Y006657D02*
X016665Y006657D01*
X016764Y006558D02*
X014414Y006558D01*
X014315Y006460D02*
X016862Y006460D01*
X016961Y006361D02*
X014217Y006361D01*
X014118Y006262D02*
X017059Y006262D01*
X017158Y006164D02*
X010826Y006164D01*
X010638Y006065D02*
X017256Y006065D01*
X018781Y008332D02*
X014438Y008332D01*
X014536Y008430D02*
X018781Y008430D01*
X018781Y008529D02*
X014635Y008529D01*
X014733Y008627D02*
X018781Y008627D01*
X018781Y008726D02*
X014832Y008726D01*
X014930Y008825D02*
X018781Y008825D01*
X018781Y008923D02*
X015029Y008923D01*
X015127Y009022D02*
X018781Y009022D01*
X018781Y009120D02*
X015226Y009120D01*
X015325Y009219D02*
X018781Y009219D01*
X018781Y009317D02*
X015423Y009317D01*
X015522Y009416D02*
X018781Y009416D01*
X018781Y009514D02*
X015620Y009514D01*
X015719Y009613D02*
X018781Y009613D01*
X018781Y009711D02*
X015817Y009711D01*
X015916Y009810D02*
X018781Y009810D01*
X018781Y009909D02*
X016014Y009909D01*
X016113Y010007D02*
X018781Y010007D01*
X018781Y010106D02*
X016211Y010106D01*
X016310Y010204D02*
X018781Y010204D01*
X018781Y010303D02*
X016409Y010303D01*
X016507Y010401D02*
X018781Y010401D01*
X018781Y010500D02*
X016581Y010500D01*
X016616Y010598D02*
X018781Y010598D01*
X018781Y010697D02*
X016616Y010697D01*
X016616Y010795D02*
X018781Y010795D01*
X018781Y010894D02*
X016616Y010894D01*
X016616Y010993D02*
X018781Y010993D01*
X018781Y011091D02*
X016616Y011091D01*
X016616Y011190D02*
X018781Y011190D01*
X018781Y011288D02*
X016616Y011288D01*
X016616Y011387D02*
X018781Y011387D01*
X018781Y011485D02*
X016616Y011485D01*
X016616Y011584D02*
X018781Y011584D01*
X018781Y011682D02*
X016710Y011682D01*
X016809Y011781D02*
X018781Y011781D01*
X018781Y011879D02*
X016826Y011879D01*
X016643Y012865D02*
X017160Y012865D01*
X017061Y012963D02*
X016741Y012963D01*
X016840Y013062D02*
X016963Y013062D01*
X016886Y014639D02*
X016741Y014639D01*
X016741Y014737D02*
X016788Y014737D01*
X016151Y015151D02*
X014901Y016401D01*
X012651Y014151D01*
X009151Y014151D01*
X009530Y013752D02*
X014325Y013752D01*
X014311Y013653D02*
X011062Y013653D01*
X011160Y013555D02*
X014311Y013555D01*
X014311Y013456D02*
X011209Y013456D01*
X011245Y013358D02*
X014311Y013358D01*
X014311Y013259D02*
X011274Y013259D01*
X011373Y013160D02*
X014311Y013160D01*
X014311Y013062D02*
X011471Y013062D01*
X011570Y012963D02*
X014311Y012963D01*
X014311Y012865D02*
X011668Y012865D01*
X011767Y012766D02*
X014311Y012766D01*
X014311Y012668D02*
X011866Y012668D01*
X011964Y012569D02*
X014311Y012569D01*
X014311Y012471D02*
X012063Y012471D01*
X012161Y012372D02*
X014311Y012372D01*
X014311Y012274D02*
X012260Y012274D01*
X012358Y012175D02*
X014311Y012175D01*
X014311Y012076D02*
X012457Y012076D01*
X012555Y011978D02*
X014311Y011978D01*
X014311Y011879D02*
X012654Y011879D01*
X012752Y011781D02*
X014311Y011781D01*
X014311Y011682D02*
X012851Y011682D01*
X012949Y011584D02*
X014311Y011584D01*
X014311Y011485D02*
X013048Y011485D01*
X013147Y011387D02*
X014311Y011387D01*
X014311Y011288D02*
X013917Y011288D01*
X014016Y011190D02*
X014287Y011190D01*
X014188Y011091D02*
X014114Y011091D01*
X014651Y010776D02*
X014651Y013651D01*
X015651Y014651D01*
X015221Y014836D02*
X013816Y014836D01*
X013718Y014737D02*
X015183Y014737D01*
X015158Y014639D02*
X013619Y014639D01*
X013521Y014540D02*
X015059Y014540D01*
X014961Y014442D02*
X013422Y014442D01*
X013324Y014343D02*
X014862Y014343D01*
X014764Y014244D02*
X013225Y014244D01*
X013127Y014146D02*
X014665Y014146D01*
X014567Y014047D02*
X013028Y014047D01*
X012930Y013949D02*
X014468Y013949D01*
X014369Y013850D02*
X012813Y013850D01*
X013915Y014934D02*
X015272Y014934D01*
X015370Y015033D02*
X014014Y015033D01*
X014112Y015131D02*
X015601Y015131D01*
X015592Y015230D02*
X014211Y015230D01*
X014309Y015328D02*
X015493Y015328D01*
X015395Y015427D02*
X014408Y015427D01*
X014506Y015526D02*
X015296Y015526D01*
X015198Y015624D02*
X014605Y015624D01*
X014703Y015723D02*
X015099Y015723D01*
X015001Y015821D02*
X014802Y015821D01*
X018325Y017398D02*
X019954Y017398D01*
X019954Y017496D02*
X018563Y017496D01*
X018673Y017595D02*
X019954Y017595D01*
X019954Y017693D02*
X018772Y017693D01*
X018828Y017792D02*
X019954Y017792D01*
X019954Y017891D02*
X018869Y017891D01*
X018909Y017989D02*
X019954Y017989D01*
X019954Y018088D02*
X018914Y018088D01*
X018914Y018186D02*
X019954Y018186D01*
X019954Y018285D02*
X018914Y018285D01*
X018880Y018383D02*
X019954Y018383D01*
X019954Y018482D02*
X018840Y018482D01*
X018799Y018580D02*
X019954Y018580D01*
X019954Y018679D02*
X018702Y018679D01*
X018603Y018777D02*
X019954Y018777D01*
X019954Y018876D02*
X018394Y018876D01*
X013385Y011288D02*
X013245Y011288D01*
X009242Y005080D02*
X009061Y005080D01*
X008962Y004981D02*
X009340Y004981D01*
X009439Y004883D02*
X008864Y004883D01*
X008765Y004784D02*
X009537Y004784D01*
X009636Y004686D02*
X008666Y004686D01*
X008568Y004587D02*
X009734Y004587D01*
X009833Y004489D02*
X008469Y004489D01*
X008371Y004390D02*
X009932Y004390D01*
X010030Y004292D02*
X008272Y004292D01*
X008174Y004193D02*
X010129Y004193D01*
X010227Y004094D02*
X008075Y004094D01*
X007977Y003996D02*
X010326Y003996D01*
X010424Y003897D02*
X007878Y003897D01*
X007780Y003799D02*
X010523Y003799D01*
X010621Y003700D02*
X007681Y003700D01*
X007583Y003602D02*
X009515Y003602D01*
X009341Y003503D02*
X007484Y003503D01*
X007385Y003405D02*
X009249Y003405D01*
X009208Y003306D02*
X007287Y003306D01*
X007188Y003208D02*
X009183Y003208D01*
X009128Y003109D02*
X007084Y003109D01*
X002955Y001828D02*
X012543Y001828D01*
X012395Y001927D02*
X002857Y001927D01*
X002758Y002025D02*
X012297Y002025D01*
X012198Y002124D02*
X002660Y002124D01*
X002561Y002222D02*
X012100Y002222D01*
X012667Y002616D02*
X013050Y002616D01*
X012855Y002518D02*
X012765Y002518D01*
X019610Y001138D02*
X019669Y001138D01*
X002881Y000941D02*
X001408Y000941D01*
X001237Y001040D02*
X002782Y001040D01*
D16*
X009651Y003151D03*
X010526Y006526D03*
X013151Y002151D03*
X010776Y013276D03*
X015651Y014651D03*
D17*
X019151Y015151D02*
X015651Y018651D01*
X008765Y018651D01*
X008161Y019256D01*
X019151Y015151D02*
X019151Y007651D01*
X019151Y004651D01*
M02*
