G75*
G70*
%OFA0B0*%
%FSLAX24Y24*%
%IPPOS*%
%LPD*%
%AMOC8*
5,1,8,0,0,1.08239X$1,22.5*
%
%ADD10C,0.0000*%
%ADD11C,0.0060*%
%ADD12C,0.0100*%
%ADD13C,0.0020*%
%ADD14C,0.0080*%
%ADD15R,1.7233X0.0017*%
%ADD16R,1.7433X0.0017*%
%ADD17R,1.7567X0.0017*%
%ADD18R,1.7667X0.0017*%
%ADD19R,1.7767X0.0017*%
%ADD20R,1.7833X0.0017*%
%ADD21R,1.7900X0.0017*%
%ADD22R,0.0334X0.0017*%
%ADD23R,0.0333X0.0017*%
%ADD24R,0.0300X0.0017*%
%ADD25R,0.0250X0.0017*%
%ADD26R,0.0233X0.0017*%
%ADD27R,0.0217X0.0017*%
%ADD28R,0.0200X0.0017*%
%ADD29R,0.0200X0.0017*%
%ADD30R,0.0183X0.0017*%
%ADD31R,0.0184X0.0017*%
%ADD32R,0.0183X0.0017*%
%ADD33R,0.0167X0.0017*%
%ADD34R,0.0166X0.0017*%
%ADD35R,0.0167X0.0017*%
%ADD36R,0.0166X0.0017*%
%ADD37R,0.0150X0.0017*%
%ADD38R,0.0150X0.0017*%
%ADD39R,0.0384X0.0017*%
%ADD40R,0.0133X0.0017*%
%ADD41R,0.0550X0.0017*%
%ADD42R,0.0134X0.0017*%
%ADD43R,0.0133X0.0017*%
%ADD44R,0.0683X0.0017*%
%ADD45R,0.0783X0.0017*%
%ADD46R,0.0883X0.0017*%
%ADD47R,0.0966X0.0017*%
%ADD48R,0.0134X0.0017*%
%ADD49R,0.1050X0.0017*%
%ADD50R,0.1117X0.0017*%
%ADD51R,0.1184X0.0017*%
%ADD52R,0.0117X0.0017*%
%ADD53R,0.1250X0.0017*%
%ADD54R,0.1316X0.0017*%
%ADD55R,0.0116X0.0017*%
%ADD56R,0.1367X0.0017*%
%ADD57R,0.1417X0.0017*%
%ADD58R,0.0117X0.0017*%
%ADD59R,0.1483X0.0017*%
%ADD60R,0.0116X0.0017*%
%ADD61R,0.1534X0.0017*%
%ADD62R,0.1583X0.0017*%
%ADD63R,0.1634X0.0017*%
%ADD64R,0.1683X0.0017*%
%ADD65R,0.1750X0.0017*%
%ADD66R,0.1783X0.0017*%
%ADD67R,0.1833X0.0017*%
%ADD68R,0.1883X0.0017*%
%ADD69R,0.1933X0.0017*%
%ADD70R,0.0100X0.0017*%
%ADD71R,0.1967X0.0017*%
%ADD72R,0.2033X0.0017*%
%ADD73R,0.2067X0.0017*%
%ADD74R,0.2100X0.0017*%
%ADD75R,0.2167X0.0017*%
%ADD76R,0.0100X0.0017*%
%ADD77R,0.2200X0.0017*%
%ADD78R,0.2250X0.0017*%
%ADD79R,0.2300X0.0017*%
%ADD80R,0.2333X0.0017*%
%ADD81R,0.2383X0.0017*%
%ADD82R,0.2417X0.0017*%
%ADD83R,0.2467X0.0017*%
%ADD84R,0.2517X0.0017*%
%ADD85R,0.2550X0.0017*%
%ADD86R,0.2600X0.0017*%
%ADD87R,0.2634X0.0017*%
%ADD88R,0.2666X0.0017*%
%ADD89R,0.2717X0.0017*%
%ADD90R,0.2750X0.0017*%
%ADD91R,0.2783X0.0017*%
%ADD92R,0.2833X0.0017*%
%ADD93R,0.2867X0.0017*%
%ADD94R,0.2900X0.0017*%
%ADD95R,0.2950X0.0017*%
%ADD96R,0.2984X0.0017*%
%ADD97R,0.3033X0.0017*%
%ADD98R,0.3067X0.0017*%
%ADD99R,0.3100X0.0017*%
%ADD100R,0.3150X0.0017*%
%ADD101R,0.3183X0.0017*%
%ADD102R,0.3217X0.0017*%
%ADD103R,0.3266X0.0017*%
%ADD104R,0.3300X0.0017*%
%ADD105R,0.0900X0.0017*%
%ADD106R,0.2367X0.0017*%
%ADD107R,0.0917X0.0017*%
%ADD108R,0.0900X0.0017*%
%ADD109R,0.2350X0.0017*%
%ADD110R,0.2350X0.0017*%
%ADD111R,0.2316X0.0017*%
%ADD112R,0.2300X0.0017*%
%ADD113R,0.0916X0.0017*%
%ADD114R,0.2266X0.0017*%
%ADD115R,0.0916X0.0017*%
%ADD116R,0.2267X0.0017*%
%ADD117R,0.0917X0.0017*%
%ADD118R,0.2233X0.0017*%
%ADD119R,0.2217X0.0017*%
%ADD120R,0.2184X0.0017*%
%ADD121R,0.2183X0.0017*%
%ADD122R,0.2150X0.0017*%
%ADD123R,0.2150X0.0017*%
%ADD124R,0.2134X0.0017*%
%ADD125R,0.2116X0.0017*%
%ADD126R,0.2117X0.0017*%
%ADD127R,0.2083X0.0017*%
%ADD128R,0.2084X0.0017*%
%ADD129R,0.2067X0.0017*%
%ADD130R,0.2050X0.0017*%
%ADD131R,0.2033X0.0017*%
%ADD132R,0.2017X0.0017*%
%ADD133R,0.2000X0.0017*%
%ADD134R,0.2000X0.0017*%
%ADD135R,0.1983X0.0017*%
%ADD136R,0.1966X0.0017*%
%ADD137R,0.1950X0.0017*%
%ADD138R,0.1933X0.0017*%
%ADD139R,0.1917X0.0017*%
%ADD140R,0.1900X0.0017*%
%ADD141R,0.1884X0.0017*%
%ADD142R,0.1866X0.0017*%
%ADD143R,0.1850X0.0017*%
%ADD144R,0.1850X0.0017*%
%ADD145R,0.1817X0.0017*%
%ADD146R,0.1800X0.0017*%
%ADD147R,0.1800X0.0017*%
%ADD148R,0.0884X0.0017*%
%ADD149R,0.1767X0.0017*%
%ADD150R,0.1750X0.0017*%
%ADD151R,0.1733X0.0017*%
%ADD152R,0.0883X0.0017*%
%ADD153R,0.1716X0.0017*%
%ADD154R,0.1700X0.0017*%
%ADD155R,0.1667X0.0017*%
%ADD156R,0.1633X0.0017*%
%ADD157R,0.1634X0.0017*%
%ADD158R,0.1617X0.0017*%
%ADD159R,0.1584X0.0017*%
%ADD160R,0.1567X0.0017*%
%ADD161R,0.0967X0.0017*%
%ADD162R,0.1550X0.0017*%
%ADD163R,0.1017X0.0017*%
%ADD164R,0.1533X0.0017*%
%ADD165R,0.1516X0.0017*%
%ADD166R,0.1100X0.0017*%
%ADD167R,0.1483X0.0017*%
%ADD168R,0.1150X0.0017*%
%ADD169R,0.1466X0.0017*%
%ADD170R,0.1200X0.0017*%
%ADD171R,0.1433X0.0017*%
%ADD172R,0.1233X0.0017*%
%ADD173R,0.1283X0.0017*%
%ADD174R,0.1417X0.0017*%
%ADD175R,0.1333X0.0017*%
%ADD176R,0.1383X0.0017*%
%ADD177R,0.1333X0.0017*%
%ADD178R,0.1467X0.0017*%
%ADD179R,0.1317X0.0017*%
%ADD180R,0.1500X0.0017*%
%ADD181R,0.1300X0.0017*%
%ADD182R,0.1550X0.0017*%
%ADD183R,0.1267X0.0017*%
%ADD184R,0.1600X0.0017*%
%ADD185R,0.1633X0.0017*%
%ADD186R,0.1200X0.0017*%
%ADD187R,0.1183X0.0017*%
%ADD188R,0.1150X0.0017*%
%ADD189R,0.1833X0.0017*%
%ADD190R,0.1133X0.0017*%
%ADD191R,0.1867X0.0017*%
%ADD192R,0.1117X0.0017*%
%ADD193R,0.1900X0.0017*%
%ADD194R,0.1083X0.0017*%
%ADD195R,0.1967X0.0017*%
%ADD196R,0.1067X0.0017*%
%ADD197R,0.1033X0.0017*%
%ADD198R,0.1017X0.0017*%
%ADD199R,0.2100X0.0017*%
%ADD200R,0.1000X0.0017*%
%ADD201R,0.2133X0.0017*%
%ADD202R,0.2184X0.0017*%
%ADD203R,0.0950X0.0017*%
%ADD204R,0.2267X0.0017*%
%ADD205R,0.2333X0.0017*%
%ADD206R,0.0866X0.0017*%
%ADD207R,0.2367X0.0017*%
%ADD208R,0.0833X0.0017*%
%ADD209R,0.2400X0.0017*%
%ADD210R,0.0800X0.0017*%
%ADD211R,0.2467X0.0017*%
%ADD212R,0.0784X0.0017*%
%ADD213R,0.2500X0.0017*%
%ADD214R,0.0800X0.0017*%
%ADD215R,0.2600X0.0017*%
%ADD216R,0.0833X0.0017*%
%ADD217R,0.2633X0.0017*%
%ADD218R,0.0850X0.0017*%
%ADD219R,0.2684X0.0017*%
%ADD220R,0.2733X0.0017*%
%ADD221R,0.2767X0.0017*%
%ADD222R,0.0884X0.0017*%
%ADD223R,0.2816X0.0017*%
%ADD224R,0.2900X0.0017*%
%ADD225R,0.0933X0.0017*%
%ADD226R,0.2950X0.0017*%
%ADD227R,0.3000X0.0017*%
%ADD228R,0.3050X0.0017*%
%ADD229R,0.0984X0.0017*%
%ADD230R,0.3084X0.0017*%
%ADD231R,0.0983X0.0017*%
%ADD232R,0.3133X0.0017*%
%ADD233R,0.1000X0.0017*%
%ADD234R,0.3184X0.0017*%
%ADD235R,0.1016X0.0017*%
%ADD236R,0.3216X0.0017*%
%ADD237R,0.3267X0.0017*%
%ADD238R,0.3316X0.0017*%
%ADD239R,0.1033X0.0017*%
%ADD240R,0.3350X0.0017*%
%ADD241R,0.3400X0.0017*%
%ADD242R,0.1067X0.0017*%
%ADD243R,0.3450X0.0017*%
%ADD244R,0.3484X0.0017*%
%ADD245R,0.1066X0.0017*%
%ADD246R,0.3550X0.0017*%
%ADD247R,0.1084X0.0017*%
%ADD248R,0.2117X0.0017*%
%ADD249R,0.0867X0.0017*%
%ADD250R,0.0334X0.0017*%
%ADD251R,0.1066X0.0017*%
%ADD252R,0.2066X0.0017*%
%ADD253R,0.0733X0.0017*%
%ADD254R,0.0667X0.0017*%
%ADD255R,0.0284X0.0017*%
%ADD256R,0.0866X0.0017*%
%ADD257R,0.1134X0.0017*%
%ADD258R,0.0600X0.0017*%
%ADD259R,0.0266X0.0017*%
%ADD260R,0.1083X0.0017*%
%ADD261R,0.0867X0.0017*%
%ADD262R,0.0567X0.0017*%
%ADD263R,0.0533X0.0017*%
%ADD264R,0.0283X0.0017*%
%ADD265R,0.0467X0.0017*%
%ADD266R,0.0267X0.0017*%
%ADD267R,0.1100X0.0017*%
%ADD268R,0.0433X0.0017*%
%ADD269R,0.0933X0.0017*%
%ADD270R,0.0400X0.0017*%
%ADD271R,0.0300X0.0017*%
%ADD272R,0.0367X0.0017*%
%ADD273R,0.0317X0.0017*%
%ADD274R,0.0333X0.0017*%
%ADD275R,0.1084X0.0017*%
%ADD276R,0.0767X0.0017*%
%ADD277R,0.0350X0.0017*%
%ADD278R,0.0734X0.0017*%
%ADD279R,0.0366X0.0017*%
%ADD280R,0.0717X0.0017*%
%ADD281R,0.0383X0.0017*%
%ADD282R,0.0267X0.0017*%
%ADD283R,0.0400X0.0017*%
%ADD284R,0.0650X0.0017*%
%ADD285R,0.0417X0.0017*%
%ADD286R,0.0633X0.0017*%
%ADD287R,0.0434X0.0017*%
%ADD288R,0.0600X0.0017*%
%ADD289R,0.0467X0.0017*%
%ADD290R,0.0583X0.0017*%
%ADD291R,0.0484X0.0017*%
%ADD292R,0.0500X0.0017*%
%ADD293R,0.0534X0.0017*%
%ADD294R,0.0517X0.0017*%
%ADD295R,0.0550X0.0017*%
%ADD296R,0.0483X0.0017*%
%ADD297R,0.0567X0.0017*%
%ADD298R,0.0850X0.0017*%
%ADD299R,0.0617X0.0017*%
%ADD300R,0.0417X0.0017*%
%ADD301R,0.0634X0.0017*%
%ADD302R,0.0700X0.0017*%
%ADD303R,0.0367X0.0017*%
%ADD304R,0.0716X0.0017*%
%ADD305R,0.0750X0.0017*%
%ADD306R,0.0316X0.0017*%
%ADD307R,0.0817X0.0017*%
%ADD308R,0.1934X0.0017*%
%ADD309R,0.1916X0.0017*%
%ADD310R,0.0284X0.0017*%
%ADD311R,0.0266X0.0017*%
%ADD312R,0.1883X0.0017*%
%ADD313R,0.0667X0.0017*%
%ADD314R,0.3367X0.0017*%
%ADD315R,0.3316X0.0017*%
%ADD316R,0.3216X0.0017*%
%ADD317R,0.3167X0.0017*%
%ADD318R,0.3084X0.0017*%
%ADD319R,0.2933X0.0017*%
%ADD320R,0.2850X0.0017*%
%ADD321R,0.2800X0.0017*%
%ADD322R,0.2767X0.0017*%
%ADD323R,0.2716X0.0017*%
%ADD324R,0.2667X0.0017*%
%ADD325R,0.2616X0.0017*%
%ADD326R,0.2567X0.0017*%
%ADD327R,0.2533X0.0017*%
%ADD328R,0.2484X0.0017*%
%ADD329R,0.2433X0.0017*%
%ADD330R,0.1050X0.0017*%
%ADD331R,0.2400X0.0017*%
%ADD332R,0.1183X0.0017*%
%ADD333R,0.2250X0.0017*%
%ADD334R,0.2200X0.0017*%
%ADD335R,0.1283X0.0017*%
%ADD336R,0.1317X0.0017*%
%ADD337R,0.2016X0.0017*%
%ADD338R,0.1467X0.0017*%
%ADD339R,0.1517X0.0017*%
%ADD340R,0.1617X0.0017*%
%ADD341R,0.1650X0.0017*%
%ADD342R,0.1784X0.0017*%
%ADD343R,0.1783X0.0017*%
%ADD344R,0.1567X0.0017*%
%ADD345R,0.1950X0.0017*%
%ADD346R,0.2017X0.0017*%
%ADD347R,0.1416X0.0017*%
%ADD348R,0.2234X0.0017*%
%ADD349R,0.2283X0.0017*%
%ADD350R,0.2317X0.0017*%
%ADD351R,0.2366X0.0017*%
%ADD352R,0.2417X0.0017*%
%ADD353R,0.2450X0.0017*%
%ADD354R,0.2500X0.0017*%
%ADD355R,0.2550X0.0017*%
%ADD356R,0.2683X0.0017*%
%ADD357R,0.2734X0.0017*%
%ADD358R,0.2766X0.0017*%
%ADD359R,0.2817X0.0017*%
%ADD360R,0.2866X0.0017*%
%ADD361R,0.2917X0.0017*%
%ADD362R,0.3050X0.0017*%
%ADD363R,0.3100X0.0017*%
%ADD364R,0.3134X0.0017*%
%ADD365R,0.3183X0.0017*%
%ADD366R,0.3234X0.0017*%
%ADD367R,0.3317X0.0017*%
%ADD368R,0.3366X0.0017*%
%ADD369R,0.3466X0.0017*%
%ADD370R,0.1983X0.0017*%
%ADD371R,0.1917X0.0017*%
%ADD372R,0.0617X0.0017*%
%ADD373R,0.1034X0.0017*%
%ADD374R,0.0316X0.0017*%
%ADD375R,0.0834X0.0017*%
%ADD376R,0.0966X0.0017*%
%ADD377R,0.0450X0.0017*%
%ADD378R,0.0350X0.0017*%
%ADD379R,0.0816X0.0017*%
%ADD380R,0.0383X0.0017*%
%ADD381R,0.0834X0.0017*%
%ADD382R,0.0750X0.0017*%
%ADD383R,0.0717X0.0017*%
%ADD384R,0.0434X0.0017*%
%ADD385R,0.0816X0.0017*%
%ADD386R,0.0650X0.0017*%
%ADD387R,0.0283X0.0017*%
%ADD388R,0.0433X0.0017*%
%ADD389R,0.0633X0.0017*%
%ADD390R,0.0483X0.0017*%
%ADD391R,0.0250X0.0017*%
%ADD392R,0.0516X0.0017*%
%ADD393R,0.0817X0.0017*%
%ADD394R,0.0616X0.0017*%
%ADD395R,0.0666X0.0017*%
%ADD396R,0.0366X0.0017*%
%ADD397R,0.0700X0.0017*%
%ADD398R,0.0317X0.0017*%
%ADD399R,0.0784X0.0017*%
%ADD400R,0.0233X0.0017*%
%ADD401R,0.0216X0.0017*%
%ADD402R,0.0217X0.0017*%
%ADD403R,0.0517X0.0017*%
%ADD404R,0.2034X0.0017*%
%ADD405R,0.3400X0.0017*%
%ADD406R,0.3367X0.0017*%
%ADD407R,0.3333X0.0017*%
%ADD408R,0.3267X0.0017*%
%ADD409R,0.3233X0.0017*%
%ADD410R,0.3133X0.0017*%
%ADD411R,0.3000X0.0017*%
%ADD412R,0.2933X0.0017*%
%ADD413R,0.2867X0.0017*%
%ADD414R,0.2800X0.0017*%
%ADD415R,0.2667X0.0017*%
%ADD416R,0.2633X0.0017*%
%ADD417R,0.2567X0.0017*%
%ADD418R,0.2533X0.0017*%
%ADD419R,0.0967X0.0017*%
%ADD420R,0.2433X0.0017*%
%ADD421R,0.1233X0.0017*%
%ADD422R,0.2167X0.0017*%
%ADD423R,0.1284X0.0017*%
%ADD424R,0.1367X0.0017*%
%ADD425R,0.1500X0.0017*%
%ADD426R,0.1650X0.0017*%
%ADD427R,0.1733X0.0017*%
%ADD428R,0.1700X0.0017*%
%ADD429R,0.1784X0.0017*%
%ADD430R,0.1600X0.0017*%
%ADD431R,0.1916X0.0017*%
%ADD432R,0.2050X0.0017*%
%ADD433R,0.2233X0.0017*%
%ADD434R,0.1133X0.0017*%
%ADD435R,0.2284X0.0017*%
%ADD436R,0.2316X0.0017*%
%ADD437R,0.2416X0.0017*%
%ADD438R,0.2450X0.0017*%
%ADD439R,0.2584X0.0017*%
%ADD440R,0.2650X0.0017*%
%ADD441R,0.2716X0.0017*%
%ADD442R,0.2784X0.0017*%
%ADD443R,0.2916X0.0017*%
%ADD444R,0.3016X0.0017*%
%ADD445R,0.3150X0.0017*%
%ADD446R,0.3184X0.0017*%
%ADD447R,0.3284X0.0017*%
%ADD448R,0.1966X0.0017*%
%ADD449R,0.0783X0.0017*%
%ADD450R,0.0616X0.0017*%
%ADD451R,0.0416X0.0017*%
%ADD452R,0.0466X0.0017*%
%ADD453R,0.0500X0.0017*%
%ADD454R,0.0566X0.0017*%
%ADD455R,0.0234X0.0017*%
%ADD456R,0.1984X0.0017*%
%ADD457R,0.3300X0.0017*%
%ADD458R,0.0767X0.0017*%
%ADD459R,0.3250X0.0017*%
%ADD460R,0.0766X0.0017*%
%ADD461R,0.3116X0.0017*%
%ADD462R,0.3067X0.0017*%
%ADD463R,0.3016X0.0017*%
%ADD464R,0.2984X0.0017*%
%ADD465R,0.2884X0.0017*%
%ADD466R,0.2700X0.0017*%
%ADD467R,0.2516X0.0017*%
%ADD468R,0.0950X0.0017*%
%ADD469R,0.2416X0.0017*%
%ADD470R,0.2384X0.0017*%
%ADD471R,0.2284X0.0017*%
%ADD472R,0.1217X0.0017*%
%ADD473R,0.1267X0.0017*%
%ADD474R,0.1350X0.0017*%
%ADD475R,0.2016X0.0017*%
%ADD476R,0.1400X0.0017*%
%ADD477R,0.1450X0.0017*%
%ADD478R,0.1867X0.0017*%
%ADD479R,0.1533X0.0017*%
%ADD480R,0.1816X0.0017*%
%ADD481R,0.1716X0.0017*%
%ADD482R,0.1684X0.0017*%
%ADD483R,0.1717X0.0017*%
%ADD484R,0.1767X0.0017*%
%ADD485R,0.1450X0.0017*%
%ADD486R,0.1416X0.0017*%
%ADD487R,0.1350X0.0017*%
%ADD488R,0.1216X0.0017*%
%ADD489R,0.1184X0.0017*%
%ADD490R,0.1116X0.0017*%
%ADD491R,0.2483X0.0017*%
%ADD492R,0.2967X0.0017*%
%ADD493R,0.3200X0.0017*%
%ADD494R,0.3384X0.0017*%
%ADD495R,0.3433X0.0017*%
%ADD496R,0.3467X0.0017*%
%ADD497R,0.3533X0.0017*%
%ADD498R,0.3567X0.0017*%
%ADD499R,0.3616X0.0017*%
%ADD500R,0.3667X0.0017*%
%ADD501R,0.3700X0.0017*%
%ADD502R,0.3750X0.0017*%
%ADD503R,0.3800X0.0017*%
%ADD504R,0.3833X0.0017*%
%ADD505R,0.3884X0.0017*%
%ADD506R,0.3933X0.0017*%
%ADD507R,0.3984X0.0017*%
%ADD508R,0.4016X0.0017*%
%ADD509R,0.1034X0.0017*%
%ADD510R,0.1834X0.0017*%
%ADD511R,0.1884X0.0017*%
%ADD512R,0.2083X0.0017*%
%ADD513R,0.2134X0.0017*%
%ADD514R,0.1984X0.0017*%
%ADD515R,0.4033X0.0017*%
%ADD516R,0.4000X0.0017*%
%ADD517R,0.3933X0.0017*%
%ADD518R,0.3900X0.0017*%
%ADD519R,0.3850X0.0017*%
%ADD520R,0.3800X0.0017*%
%ADD521R,0.3767X0.0017*%
%ADD522R,0.3667X0.0017*%
%ADD523R,0.3617X0.0017*%
%ADD524R,0.3517X0.0017*%
%ADD525R,0.3467X0.0017*%
%ADD526R,0.3417X0.0017*%
%ADD527R,0.3383X0.0017*%
%ADD528R,0.3317X0.0017*%
%ADD529R,0.0934X0.0017*%
%ADD530R,0.3283X0.0017*%
%ADD531R,0.3083X0.0017*%
%ADD532R,0.3034X0.0017*%
%ADD533R,0.2983X0.0017*%
%ADD534R,0.2934X0.0017*%
%ADD535R,0.2883X0.0017*%
%ADD536R,0.2834X0.0017*%
%ADD537R,0.2734X0.0017*%
%ADD538R,0.2700X0.0017*%
%ADD539R,0.2534X0.0017*%
%ADD540R,0.2434X0.0017*%
%ADD541R,0.2334X0.0017*%
%ADD542R,0.1717X0.0017*%
%ADD543R,0.1666X0.0017*%
%ADD544R,0.1566X0.0017*%
%ADD545R,0.1466X0.0017*%
%ADD546R,0.0766X0.0017*%
%ADD547R,0.1217X0.0017*%
%ADD548R,0.0733X0.0017*%
%ADD549R,0.0983X0.0017*%
%ADD550R,0.1167X0.0017*%
%ADD551R,0.1300X0.0017*%
%ADD552R,0.2650X0.0017*%
%ADD553R,0.2967X0.0017*%
%ADD554R,0.3017X0.0017*%
%ADD555R,0.3450X0.0017*%
%ADD556R,0.3584X0.0017*%
%ADD557R,0.3650X0.0017*%
%ADD558R,0.3817X0.0017*%
%ADD559R,0.2166X0.0017*%
%ADD560R,0.1400X0.0017*%
%ADD561R,0.0533X0.0017*%
%ADD562R,0.1366X0.0017*%
%ADD563R,0.1016X0.0017*%
%ADD564R,0.1234X0.0017*%
%ADD565R,0.1583X0.0017*%
%ADD566R,0.1234X0.0017*%
%ADD567R,0.1584X0.0017*%
%ADD568R,0.1534X0.0017*%
%ADD569R,0.2183X0.0017*%
%ADD570R,0.1484X0.0017*%
%ADD571R,0.2684X0.0017*%
%ADD572R,0.1517X0.0017*%
%ADD573R,0.2833X0.0017*%
%ADD574R,0.1566X0.0017*%
%ADD575R,0.2883X0.0017*%
%ADD576R,0.2917X0.0017*%
%ADD577R,0.2966X0.0017*%
%ADD578R,0.4317X0.0017*%
%ADD579R,0.4317X0.0017*%
%ADD580R,0.0083X0.0017*%
%ADD581R,0.0067X0.0017*%
%ADD582R,0.4300X0.0017*%
%ADD583R,0.0050X0.0017*%
%ADD584R,0.4300X0.0017*%
%ADD585R,0.0050X0.0017*%
%ADD586R,0.4283X0.0017*%
%ADD587R,0.0034X0.0017*%
%ADD588R,0.4283X0.0017*%
%ADD589R,0.0033X0.0017*%
%ADD590R,0.0033X0.0017*%
%ADD591R,0.1683X0.0017*%
%ADD592R,0.0034X0.0017*%
%ADD593R,0.4250X0.0017*%
%ADD594R,0.4250X0.0017*%
%ADD595R,0.1734X0.0017*%
%ADD596R,0.0066X0.0017*%
%ADD597R,0.0084X0.0017*%
%ADD598R,0.0084X0.0017*%
%ADD599R,0.4266X0.0017*%
%ADD600R,0.3500X0.0017*%
%ADD601R,0.3383X0.0017*%
%ADD602R,0.0683X0.0017*%
%ADD603R,0.3250X0.0017*%
%ADD604R,0.0716X0.0017*%
%ADD605R,0.1166X0.0017*%
%ADD606R,0.0934X0.0017*%
%ADD607R,0.0584X0.0017*%
%ADD608R,0.0583X0.0017*%
%ADD609R,0.2484X0.0017*%
%ADD610R,0.0984X0.0017*%
%ADD611R,0.2383X0.0017*%
%ADD612R,0.0584X0.0017*%
%ADD613R,0.2283X0.0017*%
%ADD614R,0.1166X0.0017*%
%ADD615R,0.1250X0.0017*%
%ADD616R,0.1366X0.0017*%
%ADD617R,0.3217X0.0017*%
%ADD618R,0.1766X0.0017*%
%ADD619R,0.3233X0.0017*%
%ADD620R,0.3534X0.0017*%
%ADD621R,0.3600X0.0017*%
%ADD622R,0.0634X0.0017*%
%ADD623R,0.3634X0.0017*%
%ADD624R,0.3683X0.0017*%
%ADD625R,0.3734X0.0017*%
%ADD626R,0.3783X0.0017*%
%ADD627R,0.1316X0.0017*%
%ADD628R,0.3834X0.0017*%
%ADD629R,0.3883X0.0017*%
%ADD630R,0.3917X0.0017*%
%ADD631R,0.3983X0.0017*%
%ADD632R,0.4017X0.0017*%
%ADD633R,0.4067X0.0017*%
%ADD634R,0.4117X0.0017*%
%ADD635R,0.4167X0.0017*%
%ADD636R,0.4200X0.0017*%
%ADD637R,0.4350X0.0017*%
%ADD638R,0.4400X0.0017*%
%ADD639R,0.4433X0.0017*%
%ADD640R,0.4500X0.0017*%
%ADD641R,0.4533X0.0017*%
%ADD642R,0.4584X0.0017*%
%ADD643R,0.4633X0.0017*%
%ADD644R,0.4684X0.0017*%
%ADD645R,0.4716X0.0017*%
%ADD646R,0.4784X0.0017*%
%ADD647R,0.4816X0.0017*%
%ADD648R,0.4884X0.0017*%
%ADD649R,0.4916X0.0017*%
%ADD650R,0.2683X0.0017*%
%ADD651R,0.2266X0.0017*%
%ADD652R,0.2666X0.0017*%
%ADD653R,0.2317X0.0017*%
%ADD654R,0.2583X0.0017*%
%ADD655R,0.0666X0.0017*%
%ADD656R,0.1934X0.0017*%
%ADD657R,0.0684X0.0017*%
%ADD658R,0.0416X0.0017*%
%ADD659R,0.2116X0.0017*%
%ADD660R,0.0684X0.0017*%
%ADD661R,0.2166X0.0017*%
%ADD662R,0.0534X0.0017*%
%ADD663R,0.0734X0.0017*%
%ADD664R,0.0450X0.0017*%
%ADD665R,0.0216X0.0017*%
%ADD666R,0.0184X0.0017*%
%ADD667R,0.1734X0.0017*%
%ADD668R,0.1666X0.0017*%
%ADD669R,0.0384X0.0017*%
%ADD670R,0.1616X0.0017*%
%ADD671R,0.3333X0.0017*%
%ADD672R,0.0234X0.0017*%
%ADD673R,0.3117X0.0017*%
%ADD674R,0.3033X0.0017*%
%ADD675R,0.3017X0.0017*%
%ADD676R,0.3034X0.0017*%
%ADD677R,0.2966X0.0017*%
%ADD678R,0.2817X0.0017*%
%ADD679R,0.2750X0.0017*%
%ADD680R,0.2617X0.0017*%
%ADD681R,0.2583X0.0017*%
%ADD682R,0.2483X0.0017*%
%ADD683R,0.2566X0.0017*%
%ADD684R,0.1766X0.0017*%
%ADD685R,0.1667X0.0017*%
%ADD686R,0.1284X0.0017*%
%ADD687R,0.2084X0.0017*%
%ADD688R,0.4567X0.0017*%
%ADD689R,0.4450X0.0017*%
%ADD690R,0.4384X0.0017*%
%ADD691R,0.4316X0.0017*%
%ADD692R,0.4267X0.0017*%
%ADD693R,0.4200X0.0017*%
%ADD694R,0.4133X0.0017*%
%ADD695R,0.4000X0.0017*%
%ADD696R,0.3867X0.0017*%
%ADD697R,0.3733X0.0017*%
%ADD698R,0.3567X0.0017*%
%ADD699R,0.3483X0.0017*%
%ADD700R,0.3350X0.0017*%
%ADD701R,0.3166X0.0017*%
%ADD702R,0.3066X0.0017*%
%ADD703R,1.7900X0.0017*%
%ADD704R,1.7833X0.0017*%
%ADD705R,1.7667X0.0017*%
%ADD706R,1.7600X0.0017*%
%ADD707R,1.7467X0.0017*%
%ADD708R,1.7267X0.0017*%
D10*
X000655Y001655D02*
X000655Y019155D01*
X000657Y019215D01*
X000662Y019276D01*
X000671Y019335D01*
X000684Y019394D01*
X000700Y019453D01*
X000720Y019510D01*
X000743Y019565D01*
X000770Y019620D01*
X000799Y019672D01*
X000832Y019723D01*
X000868Y019772D01*
X000906Y019818D01*
X000948Y019862D01*
X000992Y019904D01*
X001038Y019942D01*
X001087Y019978D01*
X001138Y020011D01*
X001190Y020040D01*
X001245Y020067D01*
X001300Y020090D01*
X001357Y020110D01*
X001416Y020126D01*
X001475Y020139D01*
X001534Y020148D01*
X001595Y020153D01*
X001655Y020155D01*
X019155Y020155D01*
X019215Y020153D01*
X019276Y020148D01*
X019335Y020139D01*
X019394Y020126D01*
X019453Y020110D01*
X019510Y020090D01*
X019565Y020067D01*
X019620Y020040D01*
X019672Y020011D01*
X019723Y019978D01*
X019772Y019942D01*
X019818Y019904D01*
X019862Y019862D01*
X019904Y019818D01*
X019942Y019772D01*
X019978Y019723D01*
X020011Y019672D01*
X020040Y019620D01*
X020067Y019565D01*
X020090Y019510D01*
X020110Y019453D01*
X020126Y019394D01*
X020139Y019335D01*
X020148Y019276D01*
X020153Y019215D01*
X020155Y019155D01*
X020155Y001655D01*
X020153Y001595D01*
X020148Y001534D01*
X020139Y001475D01*
X020126Y001416D01*
X020110Y001357D01*
X020090Y001300D01*
X020067Y001245D01*
X020040Y001190D01*
X020011Y001138D01*
X019978Y001087D01*
X019942Y001038D01*
X019904Y000992D01*
X019862Y000948D01*
X019818Y000906D01*
X019772Y000868D01*
X019723Y000832D01*
X019672Y000799D01*
X019620Y000770D01*
X019565Y000743D01*
X019510Y000720D01*
X019453Y000700D01*
X019394Y000684D01*
X019335Y000671D01*
X019276Y000662D01*
X019215Y000657D01*
X019155Y000655D01*
X001655Y000655D01*
X001595Y000657D01*
X001534Y000662D01*
X001475Y000671D01*
X001416Y000684D01*
X001357Y000700D01*
X001300Y000720D01*
X001245Y000743D01*
X001190Y000770D01*
X001138Y000799D01*
X001087Y000832D01*
X001038Y000868D01*
X000992Y000906D01*
X000948Y000948D01*
X000906Y000992D01*
X000868Y001038D01*
X000832Y001087D01*
X000799Y001138D01*
X000770Y001190D01*
X000743Y001245D01*
X000720Y001300D01*
X000700Y001357D01*
X000684Y001416D01*
X000671Y001475D01*
X000662Y001534D01*
X000657Y001595D01*
X000655Y001655D01*
X002183Y018155D02*
X002185Y018198D01*
X002191Y018240D01*
X002201Y018282D01*
X002214Y018323D01*
X002231Y018363D01*
X002252Y018400D01*
X002276Y018436D01*
X002303Y018469D01*
X002333Y018500D01*
X002366Y018528D01*
X002401Y018553D01*
X002438Y018574D01*
X002477Y018592D01*
X002517Y018606D01*
X002559Y018617D01*
X002601Y018624D01*
X002644Y018627D01*
X002687Y018626D01*
X002730Y018621D01*
X002772Y018612D01*
X002813Y018600D01*
X002853Y018584D01*
X002891Y018564D01*
X002927Y018541D01*
X002961Y018514D01*
X002993Y018485D01*
X003021Y018453D01*
X003047Y018418D01*
X003069Y018382D01*
X003088Y018343D01*
X003103Y018303D01*
X003115Y018262D01*
X003123Y018219D01*
X003127Y018176D01*
X003127Y018134D01*
X003123Y018091D01*
X003115Y018048D01*
X003103Y018007D01*
X003088Y017967D01*
X003069Y017928D01*
X003047Y017892D01*
X003021Y017857D01*
X002993Y017825D01*
X002961Y017796D01*
X002927Y017769D01*
X002891Y017746D01*
X002853Y017726D01*
X002813Y017710D01*
X002772Y017698D01*
X002730Y017689D01*
X002687Y017684D01*
X002644Y017683D01*
X002601Y017686D01*
X002559Y017693D01*
X002517Y017704D01*
X002477Y017718D01*
X002438Y017736D01*
X002401Y017757D01*
X002366Y017782D01*
X002333Y017810D01*
X002303Y017841D01*
X002276Y017874D01*
X002252Y017910D01*
X002231Y017947D01*
X002214Y017987D01*
X002201Y018028D01*
X002191Y018070D01*
X002185Y018112D01*
X002183Y018155D01*
X008840Y019155D02*
X008842Y019190D01*
X008848Y019225D01*
X008858Y019259D01*
X008871Y019292D01*
X008888Y019323D01*
X008909Y019351D01*
X008932Y019378D01*
X008959Y019401D01*
X008987Y019422D01*
X009018Y019439D01*
X009051Y019452D01*
X009085Y019462D01*
X009120Y019468D01*
X009155Y019470D01*
X009190Y019468D01*
X009225Y019462D01*
X009259Y019452D01*
X009292Y019439D01*
X009323Y019422D01*
X009351Y019401D01*
X009378Y019378D01*
X009401Y019351D01*
X009422Y019323D01*
X009439Y019292D01*
X009452Y019259D01*
X009462Y019225D01*
X009468Y019190D01*
X009470Y019155D01*
X009468Y019120D01*
X009462Y019085D01*
X009452Y019051D01*
X009439Y019018D01*
X009422Y018987D01*
X009401Y018959D01*
X009378Y018932D01*
X009351Y018909D01*
X009323Y018888D01*
X009292Y018871D01*
X009259Y018858D01*
X009225Y018848D01*
X009190Y018842D01*
X009155Y018840D01*
X009120Y018842D01*
X009085Y018848D01*
X009051Y018858D01*
X009018Y018871D01*
X008987Y018888D01*
X008959Y018909D01*
X008932Y018932D01*
X008909Y018959D01*
X008888Y018987D01*
X008871Y019018D01*
X008858Y019051D01*
X008848Y019085D01*
X008842Y019120D01*
X008840Y019155D01*
X011340Y019155D02*
X011342Y019190D01*
X011348Y019225D01*
X011358Y019259D01*
X011371Y019292D01*
X011388Y019323D01*
X011409Y019351D01*
X011432Y019378D01*
X011459Y019401D01*
X011487Y019422D01*
X011518Y019439D01*
X011551Y019452D01*
X011585Y019462D01*
X011620Y019468D01*
X011655Y019470D01*
X011690Y019468D01*
X011725Y019462D01*
X011759Y019452D01*
X011792Y019439D01*
X011823Y019422D01*
X011851Y019401D01*
X011878Y019378D01*
X011901Y019351D01*
X011922Y019323D01*
X011939Y019292D01*
X011952Y019259D01*
X011962Y019225D01*
X011968Y019190D01*
X011970Y019155D01*
X011968Y019120D01*
X011962Y019085D01*
X011952Y019051D01*
X011939Y019018D01*
X011922Y018987D01*
X011901Y018959D01*
X011878Y018932D01*
X011851Y018909D01*
X011823Y018888D01*
X011792Y018871D01*
X011759Y018858D01*
X011725Y018848D01*
X011690Y018842D01*
X011655Y018840D01*
X011620Y018842D01*
X011585Y018848D01*
X011551Y018858D01*
X011518Y018871D01*
X011487Y018888D01*
X011459Y018909D01*
X011432Y018932D01*
X011409Y018959D01*
X011388Y018987D01*
X011371Y019018D01*
X011358Y019051D01*
X011348Y019085D01*
X011342Y019120D01*
X011340Y019155D01*
X017683Y018155D02*
X017685Y018198D01*
X017691Y018240D01*
X017701Y018282D01*
X017714Y018323D01*
X017731Y018363D01*
X017752Y018400D01*
X017776Y018436D01*
X017803Y018469D01*
X017833Y018500D01*
X017866Y018528D01*
X017901Y018553D01*
X017938Y018574D01*
X017977Y018592D01*
X018017Y018606D01*
X018059Y018617D01*
X018101Y018624D01*
X018144Y018627D01*
X018187Y018626D01*
X018230Y018621D01*
X018272Y018612D01*
X018313Y018600D01*
X018353Y018584D01*
X018391Y018564D01*
X018427Y018541D01*
X018461Y018514D01*
X018493Y018485D01*
X018521Y018453D01*
X018547Y018418D01*
X018569Y018382D01*
X018588Y018343D01*
X018603Y018303D01*
X018615Y018262D01*
X018623Y018219D01*
X018627Y018176D01*
X018627Y018134D01*
X018623Y018091D01*
X018615Y018048D01*
X018603Y018007D01*
X018588Y017967D01*
X018569Y017928D01*
X018547Y017892D01*
X018521Y017857D01*
X018493Y017825D01*
X018461Y017796D01*
X018427Y017769D01*
X018391Y017746D01*
X018353Y017726D01*
X018313Y017710D01*
X018272Y017698D01*
X018230Y017689D01*
X018187Y017684D01*
X018144Y017683D01*
X018101Y017686D01*
X018059Y017693D01*
X018017Y017704D01*
X017977Y017718D01*
X017938Y017736D01*
X017901Y017757D01*
X017866Y017782D01*
X017833Y017810D01*
X017803Y017841D01*
X017776Y017874D01*
X017752Y017910D01*
X017731Y017947D01*
X017714Y017987D01*
X017701Y018028D01*
X017691Y018070D01*
X017685Y018112D01*
X017683Y018155D01*
D11*
X014653Y015175D02*
X014540Y015062D01*
X014399Y015119D02*
X014342Y015175D01*
X014172Y015175D01*
X014172Y014835D01*
X014342Y014835D01*
X014399Y014892D01*
X014399Y015119D01*
X014653Y015175D02*
X014653Y014835D01*
X014540Y014835D02*
X014767Y014835D01*
X014030Y014835D02*
X013803Y014835D01*
X013803Y015175D01*
X014030Y015175D01*
X013917Y015005D02*
X013803Y015005D01*
X013662Y014835D02*
X013435Y014835D01*
X013435Y015175D01*
X012155Y013555D02*
X012110Y013557D01*
X012064Y013562D01*
X012020Y013570D01*
X011976Y013582D01*
X011933Y013598D01*
X011891Y013616D01*
X011851Y013638D01*
X011813Y013662D01*
X011777Y013689D01*
X011742Y013719D01*
X011711Y013752D01*
X011681Y013787D01*
X012155Y013555D02*
X012200Y013557D01*
X012246Y013562D01*
X012290Y013570D01*
X012334Y013582D01*
X012377Y013598D01*
X012419Y013616D01*
X012459Y013638D01*
X012497Y013662D01*
X012533Y013689D01*
X012568Y013719D01*
X012599Y013752D01*
X012629Y013787D01*
X012155Y014755D02*
X012109Y014753D01*
X012063Y014748D01*
X012017Y014739D01*
X011972Y014727D01*
X011929Y014711D01*
X011887Y014692D01*
X011846Y014669D01*
X011807Y014644D01*
X011771Y014616D01*
X011736Y014585D01*
X011704Y014551D01*
X011675Y014515D01*
X012155Y014755D02*
X012202Y014753D01*
X012250Y014747D01*
X012296Y014738D01*
X012342Y014725D01*
X012386Y014709D01*
X012430Y014689D01*
X012471Y014665D01*
X012510Y014639D01*
X012547Y014609D01*
X012582Y014576D01*
X012614Y014541D01*
X012643Y014504D01*
X012672Y016585D02*
X012842Y016585D01*
X012899Y016642D01*
X012899Y016869D01*
X012842Y016925D01*
X012672Y016925D01*
X012672Y016585D01*
X012530Y016585D02*
X012303Y016585D01*
X012303Y016925D01*
X012530Y016925D01*
X012417Y016755D02*
X012303Y016755D01*
X012162Y016585D02*
X011935Y016585D01*
X011935Y016925D01*
X011585Y017710D02*
X011472Y017710D01*
X011415Y017767D01*
X011274Y017767D02*
X011274Y017994D01*
X011217Y018050D01*
X011047Y018050D01*
X011047Y017710D01*
X011217Y017710D01*
X011274Y017767D01*
X011415Y017994D02*
X011472Y018050D01*
X011585Y018050D01*
X011642Y017994D01*
X011642Y017937D01*
X011585Y017880D01*
X011642Y017824D01*
X011642Y017767D01*
X011585Y017710D01*
X011585Y017880D02*
X011528Y017880D01*
X010905Y017710D02*
X010678Y017710D01*
X010678Y018050D01*
X010905Y018050D01*
X010792Y017880D02*
X010678Y017880D01*
X010537Y017710D02*
X010310Y017710D01*
X010310Y018050D01*
X010342Y018335D02*
X010172Y018335D01*
X010172Y018675D01*
X010342Y018675D01*
X010399Y018619D01*
X010399Y018392D01*
X010342Y018335D01*
X010540Y018505D02*
X010767Y018505D01*
X010710Y018335D02*
X010710Y018675D01*
X010540Y018505D01*
X010030Y018335D02*
X009803Y018335D01*
X009803Y018675D01*
X010030Y018675D01*
X009917Y018505D02*
X009803Y018505D01*
X009662Y018335D02*
X009435Y018335D01*
X009435Y018675D01*
X008556Y016162D02*
X008586Y016127D01*
X008617Y016094D01*
X008652Y016064D01*
X008688Y016037D01*
X008726Y016013D01*
X008766Y015991D01*
X008808Y015973D01*
X008851Y015957D01*
X008895Y015945D01*
X008939Y015937D01*
X008985Y015932D01*
X009030Y015930D01*
X009075Y015932D01*
X009121Y015937D01*
X009165Y015945D01*
X009209Y015957D01*
X009252Y015973D01*
X009294Y015991D01*
X009334Y016013D01*
X009372Y016037D01*
X009408Y016064D01*
X009443Y016094D01*
X009474Y016127D01*
X009504Y016162D01*
X009030Y017130D02*
X008984Y017128D01*
X008938Y017123D01*
X008892Y017114D01*
X008847Y017102D01*
X008804Y017086D01*
X008762Y017067D01*
X008721Y017044D01*
X008682Y017019D01*
X008646Y016991D01*
X008611Y016960D01*
X008579Y016926D01*
X008550Y016890D01*
X009030Y017130D02*
X009077Y017128D01*
X009125Y017122D01*
X009171Y017113D01*
X009217Y017100D01*
X009261Y017084D01*
X009305Y017064D01*
X009346Y017040D01*
X009385Y017014D01*
X009422Y016984D01*
X009457Y016951D01*
X009489Y016916D01*
X009518Y016879D01*
X010056Y015037D02*
X010086Y015002D01*
X010117Y014969D01*
X010152Y014939D01*
X010188Y014912D01*
X010226Y014888D01*
X010266Y014866D01*
X010308Y014848D01*
X010351Y014832D01*
X010395Y014820D01*
X010439Y014812D01*
X010485Y014807D01*
X010530Y014805D01*
X010575Y014807D01*
X010621Y014812D01*
X010665Y014820D01*
X010709Y014832D01*
X010752Y014848D01*
X010794Y014866D01*
X010834Y014888D01*
X010872Y014912D01*
X010908Y014939D01*
X010943Y014969D01*
X010974Y015002D01*
X011004Y015037D01*
X010530Y016005D02*
X010484Y016003D01*
X010438Y015998D01*
X010392Y015989D01*
X010347Y015977D01*
X010304Y015961D01*
X010262Y015942D01*
X010221Y015919D01*
X010182Y015894D01*
X010146Y015866D01*
X010111Y015835D01*
X010079Y015801D01*
X010050Y015765D01*
X010530Y016005D02*
X010577Y016003D01*
X010625Y015997D01*
X010671Y015988D01*
X010717Y015975D01*
X010761Y015959D01*
X010805Y015939D01*
X010846Y015915D01*
X010885Y015889D01*
X010922Y015859D01*
X010957Y015826D01*
X010989Y015791D01*
X011018Y015754D01*
X013040Y016585D02*
X013267Y016812D01*
X013267Y016869D01*
X013210Y016925D01*
X013097Y016925D01*
X013040Y016869D01*
X013040Y016585D02*
X013267Y016585D01*
X007642Y013925D02*
X007642Y013869D01*
X007415Y013642D01*
X007415Y013585D01*
X007274Y013642D02*
X007274Y013869D01*
X007217Y013925D01*
X007047Y013925D01*
X007047Y013585D01*
X007217Y013585D01*
X007274Y013642D01*
X007415Y013925D02*
X007642Y013925D01*
X006905Y013925D02*
X006678Y013925D01*
X006678Y013585D01*
X006905Y013585D01*
X006792Y013755D02*
X006678Y013755D01*
X006537Y013585D02*
X006310Y013585D01*
X006310Y013925D01*
X005030Y011430D02*
X004985Y011432D01*
X004939Y011437D01*
X004895Y011445D01*
X004851Y011457D01*
X004808Y011473D01*
X004766Y011491D01*
X004726Y011513D01*
X004688Y011537D01*
X004652Y011564D01*
X004617Y011594D01*
X004586Y011627D01*
X004556Y011662D01*
X005030Y011430D02*
X005075Y011432D01*
X005121Y011437D01*
X005165Y011445D01*
X005209Y011457D01*
X005252Y011473D01*
X005294Y011491D01*
X005334Y011513D01*
X005372Y011537D01*
X005408Y011564D01*
X005443Y011594D01*
X005474Y011627D01*
X005504Y011662D01*
X005030Y012630D02*
X004984Y012628D01*
X004938Y012623D01*
X004892Y012614D01*
X004847Y012602D01*
X004804Y012586D01*
X004762Y012567D01*
X004721Y012544D01*
X004682Y012519D01*
X004646Y012491D01*
X004611Y012460D01*
X004579Y012426D01*
X004550Y012390D01*
X005030Y012630D02*
X005077Y012628D01*
X005125Y012622D01*
X005171Y012613D01*
X005217Y012600D01*
X005261Y012584D01*
X005305Y012564D01*
X005346Y012540D01*
X005385Y012514D01*
X005422Y012484D01*
X005457Y012451D01*
X005489Y012416D01*
X005518Y012379D01*
X003905Y012805D02*
X003860Y012807D01*
X003814Y012812D01*
X003770Y012820D01*
X003726Y012832D01*
X003683Y012848D01*
X003641Y012866D01*
X003601Y012888D01*
X003563Y012912D01*
X003527Y012939D01*
X003492Y012969D01*
X003461Y013002D01*
X003431Y013037D01*
X003905Y012805D02*
X003950Y012807D01*
X003996Y012812D01*
X004040Y012820D01*
X004084Y012832D01*
X004127Y012848D01*
X004169Y012866D01*
X004209Y012888D01*
X004247Y012912D01*
X004283Y012939D01*
X004318Y012969D01*
X004349Y013002D01*
X004379Y013037D01*
X003905Y014005D02*
X003859Y014003D01*
X003813Y013998D01*
X003767Y013989D01*
X003722Y013977D01*
X003679Y013961D01*
X003637Y013942D01*
X003596Y013919D01*
X003557Y013894D01*
X003521Y013866D01*
X003486Y013835D01*
X003454Y013801D01*
X003425Y013765D01*
X003905Y014005D02*
X003952Y014003D01*
X004000Y013997D01*
X004046Y013988D01*
X004092Y013975D01*
X004136Y013959D01*
X004180Y013939D01*
X004221Y013915D01*
X004260Y013889D01*
X004297Y013859D01*
X004332Y013826D01*
X004364Y013791D01*
X004393Y013754D01*
X004155Y014555D02*
X004110Y014557D01*
X004064Y014562D01*
X004020Y014570D01*
X003976Y014582D01*
X003933Y014598D01*
X003891Y014616D01*
X003851Y014638D01*
X003813Y014662D01*
X003777Y014689D01*
X003742Y014719D01*
X003711Y014752D01*
X003681Y014787D01*
X004155Y014555D02*
X004200Y014557D01*
X004246Y014562D01*
X004290Y014570D01*
X004334Y014582D01*
X004377Y014598D01*
X004419Y014616D01*
X004459Y014638D01*
X004497Y014662D01*
X004533Y014689D01*
X004568Y014719D01*
X004599Y014752D01*
X004629Y014787D01*
X004155Y015755D02*
X004109Y015753D01*
X004063Y015748D01*
X004017Y015739D01*
X003972Y015727D01*
X003929Y015711D01*
X003887Y015692D01*
X003846Y015669D01*
X003807Y015644D01*
X003771Y015616D01*
X003736Y015585D01*
X003704Y015551D01*
X003675Y015515D01*
X004155Y015755D02*
X004202Y015753D01*
X004250Y015747D01*
X004296Y015738D01*
X004342Y015725D01*
X004386Y015709D01*
X004430Y015689D01*
X004471Y015665D01*
X004510Y015639D01*
X004547Y015609D01*
X004582Y015576D01*
X004614Y015541D01*
X004643Y015504D01*
X004931Y016037D02*
X004961Y016002D01*
X004992Y015969D01*
X005027Y015939D01*
X005063Y015912D01*
X005101Y015888D01*
X005141Y015866D01*
X005183Y015848D01*
X005226Y015832D01*
X005270Y015820D01*
X005314Y015812D01*
X005360Y015807D01*
X005405Y015805D01*
X005450Y015807D01*
X005496Y015812D01*
X005540Y015820D01*
X005584Y015832D01*
X005627Y015848D01*
X005669Y015866D01*
X005709Y015888D01*
X005747Y015912D01*
X005783Y015939D01*
X005818Y015969D01*
X005849Y016002D01*
X005879Y016037D01*
X005405Y017005D02*
X005359Y017003D01*
X005313Y016998D01*
X005267Y016989D01*
X005222Y016977D01*
X005179Y016961D01*
X005137Y016942D01*
X005096Y016919D01*
X005057Y016894D01*
X005021Y016866D01*
X004986Y016835D01*
X004954Y016801D01*
X004925Y016765D01*
X005405Y017005D02*
X005452Y017003D01*
X005500Y016997D01*
X005546Y016988D01*
X005592Y016975D01*
X005636Y016959D01*
X005680Y016939D01*
X005721Y016915D01*
X005760Y016889D01*
X005797Y016859D01*
X005832Y016826D01*
X005864Y016791D01*
X005893Y016754D01*
X006806Y016662D02*
X006836Y016627D01*
X006867Y016594D01*
X006902Y016564D01*
X006938Y016537D01*
X006976Y016513D01*
X007016Y016491D01*
X007058Y016473D01*
X007101Y016457D01*
X007145Y016445D01*
X007189Y016437D01*
X007235Y016432D01*
X007280Y016430D01*
X007325Y016432D01*
X007371Y016437D01*
X007415Y016445D01*
X007459Y016457D01*
X007502Y016473D01*
X007544Y016491D01*
X007584Y016513D01*
X007622Y016537D01*
X007658Y016564D01*
X007693Y016594D01*
X007724Y016627D01*
X007754Y016662D01*
X007280Y017630D02*
X007234Y017628D01*
X007188Y017623D01*
X007142Y017614D01*
X007097Y017602D01*
X007054Y017586D01*
X007012Y017567D01*
X006971Y017544D01*
X006932Y017519D01*
X006896Y017491D01*
X006861Y017460D01*
X006829Y017426D01*
X006800Y017390D01*
X007280Y017630D02*
X007327Y017628D01*
X007375Y017622D01*
X007421Y017613D01*
X007467Y017600D01*
X007511Y017584D01*
X007555Y017564D01*
X007596Y017540D01*
X007635Y017514D01*
X007672Y017484D01*
X007707Y017451D01*
X007739Y017416D01*
X007768Y017379D01*
X004892Y018517D02*
X004835Y018460D01*
X004722Y018460D01*
X004665Y018517D01*
X004665Y018630D02*
X004778Y018687D01*
X004835Y018687D01*
X004892Y018630D01*
X004892Y018517D01*
X004665Y018630D02*
X004665Y018800D01*
X004892Y018800D01*
X004524Y018744D02*
X004524Y018517D01*
X004467Y018460D01*
X004297Y018460D01*
X004297Y018800D01*
X004467Y018800D01*
X004524Y018744D01*
X004155Y018800D02*
X003928Y018800D01*
X003928Y018460D01*
X004155Y018460D01*
X004042Y018630D02*
X003928Y018630D01*
X003787Y018460D02*
X003560Y018460D01*
X003560Y018800D01*
X002544Y016600D02*
X002430Y016544D01*
X002317Y016430D01*
X002487Y016430D01*
X002544Y016374D01*
X002544Y016317D01*
X002487Y016260D01*
X002374Y016260D01*
X002317Y016317D01*
X002317Y016430D01*
X002175Y016317D02*
X002175Y016544D01*
X002119Y016600D01*
X001949Y016600D01*
X001949Y016260D01*
X002119Y016260D01*
X002175Y016317D01*
X001807Y016260D02*
X001580Y016260D01*
X001580Y016600D01*
X001807Y016600D01*
X001694Y016430D02*
X001580Y016430D01*
X001439Y016260D02*
X001212Y016260D01*
X001212Y016600D01*
X001587Y011100D02*
X001587Y010760D01*
X001814Y010760D01*
X001955Y010760D02*
X002182Y010760D01*
X002324Y010760D02*
X002494Y010760D01*
X002550Y010817D01*
X002550Y011044D01*
X002494Y011100D01*
X002324Y011100D01*
X002324Y010760D01*
X002692Y010817D02*
X002692Y010874D01*
X002749Y010930D01*
X002862Y010930D01*
X002919Y010874D01*
X002919Y010817D01*
X002862Y010760D01*
X002749Y010760D01*
X002692Y010817D01*
X002749Y010930D02*
X002692Y010987D01*
X002692Y011044D01*
X002749Y011100D01*
X002862Y011100D01*
X002919Y011044D01*
X002919Y010987D01*
X002862Y010930D01*
X002182Y011100D02*
X001955Y011100D01*
X001955Y010760D01*
X001955Y010930D02*
X002069Y010930D01*
X003462Y009850D02*
X003462Y009510D01*
X003689Y009510D01*
X003830Y009510D02*
X004057Y009510D01*
X004199Y009510D02*
X004369Y009510D01*
X004425Y009567D01*
X004425Y009794D01*
X004369Y009850D01*
X004199Y009850D01*
X004199Y009510D01*
X004567Y009567D02*
X004624Y009510D01*
X004737Y009510D01*
X004794Y009567D01*
X004794Y009794D01*
X004737Y009850D01*
X004624Y009850D01*
X004567Y009794D01*
X004567Y009737D01*
X004624Y009680D01*
X004794Y009680D01*
X004057Y009850D02*
X003830Y009850D01*
X003830Y009510D01*
X003830Y009680D02*
X003944Y009680D01*
X004844Y008475D02*
X004844Y008135D01*
X005070Y008135D01*
X005212Y008135D02*
X005212Y008475D01*
X005439Y008475D01*
X005580Y008475D02*
X005750Y008475D01*
X005807Y008419D01*
X005807Y008192D01*
X005750Y008135D01*
X005580Y008135D01*
X005580Y008475D01*
X005325Y008305D02*
X005212Y008305D01*
X005212Y008135D02*
X005439Y008135D01*
X005949Y008135D02*
X006175Y008135D01*
X006062Y008135D02*
X006062Y008475D01*
X005949Y008362D01*
X006317Y008419D02*
X006317Y008192D01*
X006544Y008419D01*
X006544Y008192D01*
X006487Y008135D01*
X006374Y008135D01*
X006317Y008192D01*
X006317Y008419D02*
X006374Y008475D01*
X006487Y008475D01*
X006544Y008419D01*
X006712Y007475D02*
X006712Y007135D01*
X006939Y007135D01*
X007080Y007135D02*
X007080Y007475D01*
X007250Y007475D01*
X007307Y007419D01*
X007307Y007192D01*
X007250Y007135D01*
X007080Y007135D01*
X006939Y007475D02*
X006712Y007475D01*
X006712Y007305D02*
X006825Y007305D01*
X006570Y007135D02*
X006344Y007135D01*
X006344Y007475D01*
X007449Y007362D02*
X007562Y007475D01*
X007562Y007135D01*
X007449Y007135D02*
X007675Y007135D01*
X007817Y007135D02*
X008044Y007135D01*
X007930Y007135D02*
X007930Y007475D01*
X007817Y007362D01*
X007962Y006475D02*
X007962Y006135D01*
X008189Y006135D01*
X008330Y006135D02*
X008500Y006135D01*
X008557Y006192D01*
X008557Y006419D01*
X008500Y006475D01*
X008330Y006475D01*
X008330Y006135D01*
X008699Y006135D02*
X008925Y006135D01*
X008812Y006135D02*
X008812Y006475D01*
X008699Y006362D01*
X009067Y006419D02*
X009124Y006475D01*
X009237Y006475D01*
X009294Y006419D01*
X009294Y006362D01*
X009067Y006135D01*
X009294Y006135D01*
X009337Y005475D02*
X009337Y005135D01*
X009564Y005135D01*
X009705Y005135D02*
X009875Y005135D01*
X009932Y005192D01*
X009932Y005419D01*
X009875Y005475D01*
X009705Y005475D01*
X009705Y005135D01*
X009450Y005305D02*
X009337Y005305D01*
X009337Y005475D02*
X009564Y005475D01*
X009195Y005135D02*
X008969Y005135D01*
X008969Y005475D01*
X010074Y005362D02*
X010187Y005475D01*
X010187Y005135D01*
X010074Y005135D02*
X010300Y005135D01*
X010442Y005192D02*
X010499Y005135D01*
X010612Y005135D01*
X010669Y005192D01*
X010669Y005249D01*
X010612Y005305D01*
X010555Y005305D01*
X010612Y005305D02*
X010669Y005362D01*
X010669Y005419D01*
X010612Y005475D01*
X010499Y005475D01*
X010442Y005419D01*
X010469Y004475D02*
X010469Y004135D01*
X010695Y004135D01*
X010837Y004135D02*
X011064Y004135D01*
X011205Y004135D02*
X011375Y004135D01*
X011432Y004192D01*
X011432Y004419D01*
X011375Y004475D01*
X011205Y004475D01*
X011205Y004135D01*
X010950Y004305D02*
X010837Y004305D01*
X010837Y004475D02*
X010837Y004135D01*
X010837Y004475D02*
X011064Y004475D01*
X011574Y004362D02*
X011687Y004475D01*
X011687Y004135D01*
X011574Y004135D02*
X011800Y004135D01*
X011942Y004305D02*
X012169Y004305D01*
X012112Y004135D02*
X012112Y004475D01*
X011942Y004305D01*
X011844Y003350D02*
X011844Y003010D01*
X012070Y003010D01*
X012212Y003010D02*
X012439Y003010D01*
X012580Y003010D02*
X012750Y003010D01*
X012807Y003067D01*
X012807Y003294D01*
X012750Y003350D01*
X012580Y003350D01*
X012580Y003010D01*
X012325Y003180D02*
X012212Y003180D01*
X012212Y003350D02*
X012212Y003010D01*
X012212Y003350D02*
X012439Y003350D01*
X012949Y003237D02*
X013062Y003350D01*
X013062Y003010D01*
X012949Y003010D02*
X013175Y003010D01*
X013317Y003067D02*
X013374Y003010D01*
X013487Y003010D01*
X013544Y003067D01*
X013544Y003180D01*
X013487Y003237D01*
X013430Y003237D01*
X013317Y003180D01*
X013317Y003350D01*
X013544Y003350D01*
X013469Y002225D02*
X013469Y001885D01*
X013695Y001885D01*
X013837Y001885D02*
X013837Y002225D01*
X014064Y002225D01*
X014205Y002225D02*
X014205Y001885D01*
X014375Y001885D01*
X014432Y001942D01*
X014432Y002169D01*
X014375Y002225D01*
X014205Y002225D01*
X013950Y002055D02*
X013837Y002055D01*
X013837Y001885D02*
X014064Y001885D01*
X014574Y001885D02*
X014800Y001885D01*
X014687Y001885D02*
X014687Y002225D01*
X014574Y002112D01*
X014942Y002055D02*
X015112Y002055D01*
X015169Y001999D01*
X015169Y001942D01*
X015112Y001885D01*
X014999Y001885D01*
X014942Y001942D01*
X014942Y002055D01*
X015055Y002169D01*
X015169Y002225D01*
X016306Y003037D02*
X016336Y003002D01*
X016367Y002969D01*
X016402Y002939D01*
X016438Y002912D01*
X016476Y002888D01*
X016516Y002866D01*
X016558Y002848D01*
X016601Y002832D01*
X016645Y002820D01*
X016689Y002812D01*
X016735Y002807D01*
X016780Y002805D01*
X016825Y002807D01*
X016871Y002812D01*
X016915Y002820D01*
X016959Y002832D01*
X017002Y002848D01*
X017044Y002866D01*
X017084Y002888D01*
X017122Y002912D01*
X017158Y002939D01*
X017193Y002969D01*
X017224Y003002D01*
X017254Y003037D01*
X016780Y004005D02*
X016734Y004003D01*
X016688Y003998D01*
X016642Y003989D01*
X016597Y003977D01*
X016554Y003961D01*
X016512Y003942D01*
X016471Y003919D01*
X016432Y003894D01*
X016396Y003866D01*
X016361Y003835D01*
X016329Y003801D01*
X016300Y003765D01*
X016780Y004005D02*
X016827Y004003D01*
X016875Y003997D01*
X016921Y003988D01*
X016967Y003975D01*
X017011Y003959D01*
X017055Y003939D01*
X017096Y003915D01*
X017135Y003889D01*
X017172Y003859D01*
X017207Y003826D01*
X017239Y003791D01*
X017268Y003754D01*
X015405Y003930D02*
X015360Y003932D01*
X015314Y003937D01*
X015270Y003945D01*
X015226Y003957D01*
X015183Y003973D01*
X015141Y003991D01*
X015101Y004013D01*
X015063Y004037D01*
X015027Y004064D01*
X014992Y004094D01*
X014961Y004127D01*
X014931Y004162D01*
X015405Y003930D02*
X015450Y003932D01*
X015496Y003937D01*
X015540Y003945D01*
X015584Y003957D01*
X015627Y003973D01*
X015669Y003991D01*
X015709Y004013D01*
X015747Y004037D01*
X015783Y004064D01*
X015818Y004094D01*
X015849Y004127D01*
X015879Y004162D01*
X015405Y005130D02*
X015359Y005128D01*
X015313Y005123D01*
X015267Y005114D01*
X015222Y005102D01*
X015179Y005086D01*
X015137Y005067D01*
X015096Y005044D01*
X015057Y005019D01*
X015021Y004991D01*
X014986Y004960D01*
X014954Y004926D01*
X014925Y004890D01*
X015405Y005130D02*
X015452Y005128D01*
X015500Y005122D01*
X015546Y005113D01*
X015592Y005100D01*
X015636Y005084D01*
X015680Y005064D01*
X015721Y005040D01*
X015760Y005014D01*
X015797Y004984D01*
X015832Y004951D01*
X015864Y004916D01*
X015893Y004879D01*
X016955Y006805D02*
X016955Y007205D01*
X016955Y008155D01*
X016955Y008505D01*
X016475Y008517D02*
X016475Y008744D01*
X016475Y008630D02*
X016135Y008630D01*
X016248Y008517D01*
X016192Y008375D02*
X016135Y008319D01*
X016135Y008205D01*
X016192Y008149D01*
X016248Y008149D01*
X016305Y008205D01*
X016305Y008319D01*
X016362Y008375D01*
X016418Y008375D01*
X016475Y008319D01*
X016475Y008205D01*
X016418Y008149D01*
X017755Y008855D02*
X017855Y008855D01*
X017855Y008955D01*
X018455Y008955D01*
X018455Y008855D01*
X018555Y008855D01*
X019355Y008505D02*
X019355Y008155D01*
X019355Y007155D01*
X019355Y006805D01*
X018555Y006455D02*
X018455Y006455D01*
X018455Y006355D01*
X017855Y006355D01*
X017855Y006455D01*
X017755Y006455D01*
X018055Y007655D02*
X018057Y007675D01*
X018063Y007693D01*
X018072Y007711D01*
X018084Y007726D01*
X018099Y007738D01*
X018117Y007747D01*
X018135Y007753D01*
X018155Y007755D01*
X018175Y007753D01*
X018193Y007747D01*
X018211Y007738D01*
X018226Y007726D01*
X018238Y007711D01*
X018247Y007693D01*
X018253Y007675D01*
X018255Y007655D01*
X018253Y007635D01*
X018247Y007617D01*
X018238Y007599D01*
X018226Y007584D01*
X018211Y007572D01*
X018193Y007563D01*
X018175Y007557D01*
X018155Y007555D01*
X018135Y007557D01*
X018117Y007563D01*
X018099Y007572D01*
X018084Y007584D01*
X018072Y007599D01*
X018063Y007617D01*
X018057Y007635D01*
X018055Y007655D01*
X017455Y007655D02*
X017457Y007707D01*
X017463Y007759D01*
X017473Y007811D01*
X017486Y007861D01*
X017503Y007911D01*
X017524Y007959D01*
X017549Y008005D01*
X017577Y008049D01*
X017608Y008091D01*
X017642Y008131D01*
X017679Y008168D01*
X017719Y008202D01*
X017761Y008233D01*
X017805Y008261D01*
X017851Y008286D01*
X017899Y008307D01*
X017949Y008324D01*
X017999Y008337D01*
X018051Y008347D01*
X018103Y008353D01*
X018155Y008355D01*
X018207Y008353D01*
X018259Y008347D01*
X018311Y008337D01*
X018361Y008324D01*
X018411Y008307D01*
X018459Y008286D01*
X018505Y008261D01*
X018549Y008233D01*
X018591Y008202D01*
X018631Y008168D01*
X018668Y008131D01*
X018702Y008091D01*
X018733Y008049D01*
X018761Y008005D01*
X018786Y007959D01*
X018807Y007911D01*
X018824Y007861D01*
X018837Y007811D01*
X018847Y007759D01*
X018853Y007707D01*
X018855Y007655D01*
X018853Y007603D01*
X018847Y007551D01*
X018837Y007499D01*
X018824Y007449D01*
X018807Y007399D01*
X018786Y007351D01*
X018761Y007305D01*
X018733Y007261D01*
X018702Y007219D01*
X018668Y007179D01*
X018631Y007142D01*
X018591Y007108D01*
X018549Y007077D01*
X018505Y007049D01*
X018459Y007024D01*
X018411Y007003D01*
X018361Y006986D01*
X018311Y006973D01*
X018259Y006963D01*
X018207Y006957D01*
X018155Y006955D01*
X018103Y006957D01*
X018051Y006963D01*
X017999Y006973D01*
X017949Y006986D01*
X017899Y007003D01*
X017851Y007024D01*
X017805Y007049D01*
X017761Y007077D01*
X017719Y007108D01*
X017679Y007142D01*
X017642Y007179D01*
X017608Y007219D01*
X017577Y007261D01*
X017549Y007305D01*
X017524Y007351D01*
X017503Y007399D01*
X017486Y007449D01*
X017473Y007499D01*
X017463Y007551D01*
X017457Y007603D01*
X017455Y007655D01*
X013905Y004805D02*
X013860Y004807D01*
X013814Y004812D01*
X013770Y004820D01*
X013726Y004832D01*
X013683Y004848D01*
X013641Y004866D01*
X013601Y004888D01*
X013563Y004912D01*
X013527Y004939D01*
X013492Y004969D01*
X013461Y005002D01*
X013431Y005037D01*
X013905Y004805D02*
X013950Y004807D01*
X013996Y004812D01*
X014040Y004820D01*
X014084Y004832D01*
X014127Y004848D01*
X014169Y004866D01*
X014209Y004888D01*
X014247Y004912D01*
X014283Y004939D01*
X014318Y004969D01*
X014349Y005002D01*
X014379Y005037D01*
X013905Y006005D02*
X013859Y006003D01*
X013813Y005998D01*
X013767Y005989D01*
X013722Y005977D01*
X013679Y005961D01*
X013637Y005942D01*
X013596Y005919D01*
X013557Y005894D01*
X013521Y005866D01*
X013486Y005835D01*
X013454Y005801D01*
X013425Y005765D01*
X013905Y006005D02*
X013952Y006003D01*
X014000Y005997D01*
X014046Y005988D01*
X014092Y005975D01*
X014136Y005959D01*
X014180Y005939D01*
X014221Y005915D01*
X014260Y005889D01*
X014297Y005859D01*
X014332Y005826D01*
X014364Y005791D01*
X014393Y005754D01*
X012530Y005930D02*
X012485Y005932D01*
X012439Y005937D01*
X012395Y005945D01*
X012351Y005957D01*
X012308Y005973D01*
X012266Y005991D01*
X012226Y006013D01*
X012188Y006037D01*
X012152Y006064D01*
X012117Y006094D01*
X012086Y006127D01*
X012056Y006162D01*
X012530Y005930D02*
X012575Y005932D01*
X012621Y005937D01*
X012665Y005945D01*
X012709Y005957D01*
X012752Y005973D01*
X012794Y005991D01*
X012834Y006013D01*
X012872Y006037D01*
X012908Y006064D01*
X012943Y006094D01*
X012974Y006127D01*
X013004Y006162D01*
X012530Y007130D02*
X012484Y007128D01*
X012438Y007123D01*
X012392Y007114D01*
X012347Y007102D01*
X012304Y007086D01*
X012262Y007067D01*
X012221Y007044D01*
X012182Y007019D01*
X012146Y006991D01*
X012111Y006960D01*
X012079Y006926D01*
X012050Y006890D01*
X012530Y007130D02*
X012577Y007128D01*
X012625Y007122D01*
X012671Y007113D01*
X012717Y007100D01*
X012761Y007084D01*
X012805Y007064D01*
X012846Y007040D01*
X012885Y007014D01*
X012922Y006984D01*
X012957Y006951D01*
X012989Y006916D01*
X013018Y006879D01*
X011155Y006930D02*
X011110Y006932D01*
X011064Y006937D01*
X011020Y006945D01*
X010976Y006957D01*
X010933Y006973D01*
X010891Y006991D01*
X010851Y007013D01*
X010813Y007037D01*
X010777Y007064D01*
X010742Y007094D01*
X010711Y007127D01*
X010681Y007162D01*
X011155Y006930D02*
X011200Y006932D01*
X011246Y006937D01*
X011290Y006945D01*
X011334Y006957D01*
X011377Y006973D01*
X011419Y006991D01*
X011459Y007013D01*
X011497Y007037D01*
X011533Y007064D01*
X011568Y007094D01*
X011599Y007127D01*
X011629Y007162D01*
X011155Y008130D02*
X011109Y008128D01*
X011063Y008123D01*
X011017Y008114D01*
X010972Y008102D01*
X010929Y008086D01*
X010887Y008067D01*
X010846Y008044D01*
X010807Y008019D01*
X010771Y007991D01*
X010736Y007960D01*
X010704Y007926D01*
X010675Y007890D01*
X011155Y008130D02*
X011202Y008128D01*
X011250Y008122D01*
X011296Y008113D01*
X011342Y008100D01*
X011386Y008084D01*
X011430Y008064D01*
X011471Y008040D01*
X011510Y008014D01*
X011547Y007984D01*
X011582Y007951D01*
X011614Y007916D01*
X011643Y007879D01*
X009780Y007930D02*
X009735Y007932D01*
X009689Y007937D01*
X009645Y007945D01*
X009601Y007957D01*
X009558Y007973D01*
X009516Y007991D01*
X009476Y008013D01*
X009438Y008037D01*
X009402Y008064D01*
X009367Y008094D01*
X009336Y008127D01*
X009306Y008162D01*
X009780Y007930D02*
X009825Y007932D01*
X009871Y007937D01*
X009915Y007945D01*
X009959Y007957D01*
X010002Y007973D01*
X010044Y007991D01*
X010084Y008013D01*
X010122Y008037D01*
X010158Y008064D01*
X010193Y008094D01*
X010224Y008127D01*
X010254Y008162D01*
X009780Y009130D02*
X009734Y009128D01*
X009688Y009123D01*
X009642Y009114D01*
X009597Y009102D01*
X009554Y009086D01*
X009512Y009067D01*
X009471Y009044D01*
X009432Y009019D01*
X009396Y008991D01*
X009361Y008960D01*
X009329Y008926D01*
X009300Y008890D01*
X009780Y009130D02*
X009827Y009128D01*
X009875Y009122D01*
X009921Y009113D01*
X009967Y009100D01*
X010011Y009084D01*
X010055Y009064D01*
X010096Y009040D01*
X010135Y009014D01*
X010172Y008984D01*
X010207Y008951D01*
X010239Y008916D01*
X010268Y008879D01*
X008280Y008930D02*
X008235Y008932D01*
X008189Y008937D01*
X008145Y008945D01*
X008101Y008957D01*
X008058Y008973D01*
X008016Y008991D01*
X007976Y009013D01*
X007938Y009037D01*
X007902Y009064D01*
X007867Y009094D01*
X007836Y009127D01*
X007806Y009162D01*
X008280Y008930D02*
X008325Y008932D01*
X008371Y008937D01*
X008415Y008945D01*
X008459Y008957D01*
X008502Y008973D01*
X008544Y008991D01*
X008584Y009013D01*
X008622Y009037D01*
X008658Y009064D01*
X008693Y009094D01*
X008724Y009127D01*
X008754Y009162D01*
X008280Y010130D02*
X008234Y010128D01*
X008188Y010123D01*
X008142Y010114D01*
X008097Y010102D01*
X008054Y010086D01*
X008012Y010067D01*
X007971Y010044D01*
X007932Y010019D01*
X007896Y009991D01*
X007861Y009960D01*
X007829Y009926D01*
X007800Y009890D01*
X008280Y010130D02*
X008327Y010128D01*
X008375Y010122D01*
X008421Y010113D01*
X008467Y010100D01*
X008511Y010084D01*
X008555Y010064D01*
X008596Y010040D01*
X008635Y010014D01*
X008672Y009984D01*
X008707Y009951D01*
X008739Y009916D01*
X008768Y009879D01*
X006655Y010180D02*
X006610Y010182D01*
X006564Y010187D01*
X006520Y010195D01*
X006476Y010207D01*
X006433Y010223D01*
X006391Y010241D01*
X006351Y010263D01*
X006313Y010287D01*
X006277Y010314D01*
X006242Y010344D01*
X006211Y010377D01*
X006181Y010412D01*
X006655Y010180D02*
X006700Y010182D01*
X006746Y010187D01*
X006790Y010195D01*
X006834Y010207D01*
X006877Y010223D01*
X006919Y010241D01*
X006959Y010263D01*
X006997Y010287D01*
X007033Y010314D01*
X007068Y010344D01*
X007099Y010377D01*
X007129Y010412D01*
X006655Y011380D02*
X006609Y011378D01*
X006563Y011373D01*
X006517Y011364D01*
X006472Y011352D01*
X006429Y011336D01*
X006387Y011317D01*
X006346Y011294D01*
X006307Y011269D01*
X006271Y011241D01*
X006236Y011210D01*
X006204Y011176D01*
X006175Y011140D01*
X006655Y011380D02*
X006702Y011378D01*
X006750Y011372D01*
X006796Y011363D01*
X006842Y011350D01*
X006886Y011334D01*
X006930Y011314D01*
X006971Y011290D01*
X007010Y011264D01*
X007047Y011234D01*
X007082Y011201D01*
X007114Y011166D01*
X007143Y011129D01*
X007594Y006475D02*
X007594Y006135D01*
X007820Y006135D01*
X007962Y006305D02*
X008075Y006305D01*
X008189Y006475D02*
X007962Y006475D01*
D12*
X009085Y008133D02*
X009115Y008085D01*
X009148Y008040D01*
X009184Y007997D01*
X009222Y007956D01*
X009264Y007919D01*
X009308Y007884D01*
X009354Y007853D01*
X009403Y007824D01*
X009453Y007800D01*
X009505Y007779D01*
X009559Y007761D01*
X009613Y007748D01*
X009668Y007738D01*
X009724Y007732D01*
X009780Y007730D01*
X009833Y007732D01*
X009887Y007737D01*
X009939Y007746D01*
X009991Y007758D01*
X010042Y007774D01*
X010092Y007793D01*
X010141Y007816D01*
X010188Y007842D01*
X010233Y007870D01*
X010276Y007902D01*
X010316Y007936D01*
X010355Y007974D01*
X010391Y008013D01*
X009780Y009330D02*
X009726Y009328D01*
X009672Y009323D01*
X009619Y009314D01*
X009566Y009301D01*
X009515Y009285D01*
X009465Y009265D01*
X009416Y009242D01*
X009368Y009216D01*
X009323Y009187D01*
X009280Y009154D01*
X009239Y009119D01*
X009200Y009081D01*
X009164Y009041D01*
X009131Y008998D01*
X009101Y008953D01*
X009074Y008906D01*
X009780Y009330D02*
X009834Y009328D01*
X009887Y009323D01*
X009941Y009314D01*
X009993Y009301D01*
X010044Y009285D01*
X010095Y009265D01*
X010144Y009243D01*
X010191Y009217D01*
X010236Y009187D01*
X010279Y009155D01*
X010320Y009120D01*
X010359Y009082D01*
X010395Y009042D01*
X010460Y007133D02*
X010490Y007085D01*
X010523Y007040D01*
X010559Y006997D01*
X010597Y006956D01*
X010639Y006919D01*
X010683Y006884D01*
X010729Y006853D01*
X010778Y006824D01*
X010828Y006800D01*
X010880Y006779D01*
X010934Y006761D01*
X010988Y006748D01*
X011043Y006738D01*
X011099Y006732D01*
X011155Y006730D01*
X011208Y006732D01*
X011262Y006737D01*
X011314Y006746D01*
X011366Y006758D01*
X011417Y006774D01*
X011467Y006793D01*
X011516Y006816D01*
X011563Y006842D01*
X011608Y006870D01*
X011651Y006902D01*
X011691Y006936D01*
X011730Y006974D01*
X011766Y007013D01*
X011155Y008330D02*
X011101Y008328D01*
X011047Y008323D01*
X010994Y008314D01*
X010941Y008301D01*
X010890Y008285D01*
X010840Y008265D01*
X010791Y008242D01*
X010743Y008216D01*
X010698Y008187D01*
X010655Y008154D01*
X010614Y008119D01*
X010575Y008081D01*
X010539Y008041D01*
X010506Y007998D01*
X010476Y007953D01*
X010449Y007906D01*
X011155Y008330D02*
X011209Y008328D01*
X011262Y008323D01*
X011316Y008314D01*
X011368Y008301D01*
X011419Y008285D01*
X011470Y008265D01*
X011519Y008243D01*
X011566Y008217D01*
X011611Y008187D01*
X011654Y008155D01*
X011695Y008120D01*
X011734Y008082D01*
X011770Y008042D01*
X011835Y006133D02*
X011865Y006085D01*
X011898Y006040D01*
X011934Y005997D01*
X011972Y005956D01*
X012014Y005919D01*
X012058Y005884D01*
X012104Y005853D01*
X012153Y005824D01*
X012203Y005800D01*
X012255Y005779D01*
X012309Y005761D01*
X012363Y005748D01*
X012418Y005738D01*
X012474Y005732D01*
X012530Y005730D01*
X012583Y005732D01*
X012637Y005737D01*
X012689Y005746D01*
X012741Y005758D01*
X012792Y005774D01*
X012842Y005793D01*
X012891Y005816D01*
X012938Y005842D01*
X012983Y005870D01*
X013026Y005902D01*
X013066Y005936D01*
X013105Y005974D01*
X013141Y006013D01*
X012530Y007330D02*
X012476Y007328D01*
X012422Y007323D01*
X012369Y007314D01*
X012316Y007301D01*
X012265Y007285D01*
X012215Y007265D01*
X012166Y007242D01*
X012118Y007216D01*
X012073Y007187D01*
X012030Y007154D01*
X011989Y007119D01*
X011950Y007081D01*
X011914Y007041D01*
X011881Y006998D01*
X011851Y006953D01*
X011824Y006906D01*
X012530Y007330D02*
X012584Y007328D01*
X012637Y007323D01*
X012691Y007314D01*
X012743Y007301D01*
X012794Y007285D01*
X012845Y007265D01*
X012894Y007243D01*
X012941Y007217D01*
X012986Y007187D01*
X013029Y007155D01*
X013070Y007120D01*
X013109Y007082D01*
X013145Y007042D01*
X013210Y005008D02*
X013240Y004960D01*
X013273Y004915D01*
X013309Y004872D01*
X013347Y004831D01*
X013389Y004794D01*
X013433Y004759D01*
X013479Y004728D01*
X013528Y004699D01*
X013578Y004675D01*
X013630Y004654D01*
X013684Y004636D01*
X013738Y004623D01*
X013793Y004613D01*
X013849Y004607D01*
X013905Y004605D01*
X013958Y004607D01*
X014012Y004612D01*
X014064Y004621D01*
X014116Y004633D01*
X014167Y004649D01*
X014217Y004668D01*
X014266Y004691D01*
X014313Y004717D01*
X014358Y004745D01*
X014401Y004777D01*
X014441Y004811D01*
X014480Y004849D01*
X014516Y004888D01*
X013905Y006205D02*
X013851Y006203D01*
X013797Y006198D01*
X013744Y006189D01*
X013691Y006176D01*
X013640Y006160D01*
X013590Y006140D01*
X013541Y006117D01*
X013493Y006091D01*
X013448Y006062D01*
X013405Y006029D01*
X013364Y005994D01*
X013325Y005956D01*
X013289Y005916D01*
X013256Y005873D01*
X013226Y005828D01*
X013199Y005781D01*
X013905Y006205D02*
X013959Y006203D01*
X014012Y006198D01*
X014066Y006189D01*
X014118Y006176D01*
X014169Y006160D01*
X014220Y006140D01*
X014269Y006118D01*
X014316Y006092D01*
X014361Y006062D01*
X014404Y006030D01*
X014445Y005995D01*
X014484Y005957D01*
X014520Y005917D01*
X014710Y004133D02*
X014740Y004085D01*
X014773Y004040D01*
X014809Y003997D01*
X014847Y003956D01*
X014889Y003919D01*
X014933Y003884D01*
X014979Y003853D01*
X015028Y003824D01*
X015078Y003800D01*
X015130Y003779D01*
X015184Y003761D01*
X015238Y003748D01*
X015293Y003738D01*
X015349Y003732D01*
X015405Y003730D01*
X015458Y003732D01*
X015512Y003737D01*
X015564Y003746D01*
X015616Y003758D01*
X015667Y003774D01*
X015717Y003793D01*
X015766Y003816D01*
X015813Y003842D01*
X015858Y003870D01*
X015901Y003902D01*
X015941Y003936D01*
X015980Y003974D01*
X016016Y004013D01*
X015405Y005330D02*
X015351Y005328D01*
X015297Y005323D01*
X015244Y005314D01*
X015191Y005301D01*
X015140Y005285D01*
X015090Y005265D01*
X015041Y005242D01*
X014993Y005216D01*
X014948Y005187D01*
X014905Y005154D01*
X014864Y005119D01*
X014825Y005081D01*
X014789Y005041D01*
X014756Y004998D01*
X014726Y004953D01*
X014699Y004906D01*
X015405Y005330D02*
X015459Y005328D01*
X015512Y005323D01*
X015566Y005314D01*
X015618Y005301D01*
X015669Y005285D01*
X015720Y005265D01*
X015769Y005243D01*
X015816Y005217D01*
X015861Y005187D01*
X015904Y005155D01*
X015945Y005120D01*
X015984Y005082D01*
X016020Y005042D01*
X016085Y003008D02*
X016115Y002960D01*
X016148Y002915D01*
X016184Y002872D01*
X016222Y002831D01*
X016264Y002794D01*
X016308Y002759D01*
X016354Y002728D01*
X016403Y002699D01*
X016453Y002675D01*
X016505Y002654D01*
X016559Y002636D01*
X016613Y002623D01*
X016668Y002613D01*
X016724Y002607D01*
X016780Y002605D01*
X016833Y002607D01*
X016887Y002612D01*
X016939Y002621D01*
X016991Y002633D01*
X017042Y002649D01*
X017092Y002668D01*
X017141Y002691D01*
X017188Y002717D01*
X017233Y002745D01*
X017276Y002777D01*
X017316Y002811D01*
X017355Y002849D01*
X017391Y002888D01*
X016780Y004205D02*
X016726Y004203D01*
X016672Y004198D01*
X016619Y004189D01*
X016566Y004176D01*
X016515Y004160D01*
X016465Y004140D01*
X016416Y004117D01*
X016368Y004091D01*
X016323Y004062D01*
X016280Y004029D01*
X016239Y003994D01*
X016200Y003956D01*
X016164Y003916D01*
X016131Y003873D01*
X016101Y003828D01*
X016074Y003781D01*
X016780Y004205D02*
X016834Y004203D01*
X016887Y004198D01*
X016941Y004189D01*
X016993Y004176D01*
X017044Y004160D01*
X017095Y004140D01*
X017144Y004118D01*
X017191Y004092D01*
X017236Y004062D01*
X017279Y004030D01*
X017320Y003995D01*
X017359Y003957D01*
X017395Y003917D01*
X008280Y010330D02*
X008226Y010328D01*
X008172Y010323D01*
X008119Y010314D01*
X008066Y010301D01*
X008015Y010285D01*
X007965Y010265D01*
X007916Y010242D01*
X007868Y010216D01*
X007823Y010187D01*
X007780Y010154D01*
X007739Y010119D01*
X007700Y010081D01*
X007664Y010041D01*
X007631Y009998D01*
X007601Y009953D01*
X007574Y009906D01*
X007585Y009133D02*
X007615Y009085D01*
X007648Y009040D01*
X007684Y008997D01*
X007722Y008956D01*
X007764Y008919D01*
X007808Y008884D01*
X007854Y008853D01*
X007903Y008824D01*
X007953Y008800D01*
X008005Y008779D01*
X008059Y008761D01*
X008113Y008748D01*
X008168Y008738D01*
X008224Y008732D01*
X008280Y008730D01*
X008333Y008732D01*
X008387Y008737D01*
X008439Y008746D01*
X008491Y008758D01*
X008542Y008774D01*
X008592Y008793D01*
X008641Y008816D01*
X008688Y008842D01*
X008733Y008870D01*
X008776Y008902D01*
X008816Y008936D01*
X008855Y008974D01*
X008891Y009013D01*
X008895Y010042D02*
X008859Y010082D01*
X008820Y010120D01*
X008779Y010155D01*
X008736Y010187D01*
X008691Y010217D01*
X008644Y010243D01*
X008595Y010265D01*
X008544Y010285D01*
X008493Y010301D01*
X008441Y010314D01*
X008387Y010323D01*
X008334Y010328D01*
X008280Y010330D01*
X006655Y011580D02*
X006601Y011578D01*
X006547Y011573D01*
X006494Y011564D01*
X006441Y011551D01*
X006390Y011535D01*
X006340Y011515D01*
X006291Y011492D01*
X006243Y011466D01*
X006198Y011437D01*
X006155Y011404D01*
X006114Y011369D01*
X006075Y011331D01*
X006039Y011291D01*
X006006Y011248D01*
X005976Y011203D01*
X005949Y011156D01*
X005960Y010383D02*
X005990Y010335D01*
X006023Y010290D01*
X006059Y010247D01*
X006097Y010206D01*
X006139Y010169D01*
X006183Y010134D01*
X006229Y010103D01*
X006278Y010074D01*
X006328Y010050D01*
X006380Y010029D01*
X006434Y010011D01*
X006488Y009998D01*
X006543Y009988D01*
X006599Y009982D01*
X006655Y009980D01*
X006708Y009982D01*
X006762Y009987D01*
X006814Y009996D01*
X006866Y010008D01*
X006917Y010024D01*
X006967Y010043D01*
X007016Y010066D01*
X007063Y010092D01*
X007108Y010120D01*
X007151Y010152D01*
X007191Y010186D01*
X007230Y010224D01*
X007266Y010263D01*
X007270Y011292D02*
X007234Y011332D01*
X007195Y011370D01*
X007154Y011405D01*
X007111Y011437D01*
X007066Y011467D01*
X007019Y011493D01*
X006970Y011515D01*
X006919Y011535D01*
X006868Y011551D01*
X006816Y011564D01*
X006762Y011573D01*
X006709Y011578D01*
X006655Y011580D01*
X005030Y012830D02*
X004976Y012828D01*
X004922Y012823D01*
X004869Y012814D01*
X004816Y012801D01*
X004765Y012785D01*
X004715Y012765D01*
X004666Y012742D01*
X004618Y012716D01*
X004573Y012687D01*
X004530Y012654D01*
X004489Y012619D01*
X004450Y012581D01*
X004414Y012541D01*
X004381Y012498D01*
X004351Y012453D01*
X004324Y012406D01*
X004335Y011633D02*
X004365Y011585D01*
X004398Y011540D01*
X004434Y011497D01*
X004472Y011456D01*
X004514Y011419D01*
X004558Y011384D01*
X004604Y011353D01*
X004653Y011324D01*
X004703Y011300D01*
X004755Y011279D01*
X004809Y011261D01*
X004863Y011248D01*
X004918Y011238D01*
X004974Y011232D01*
X005030Y011230D01*
X005083Y011232D01*
X005137Y011237D01*
X005189Y011246D01*
X005241Y011258D01*
X005292Y011274D01*
X005342Y011293D01*
X005391Y011316D01*
X005438Y011342D01*
X005483Y011370D01*
X005526Y011402D01*
X005566Y011436D01*
X005605Y011474D01*
X005641Y011513D01*
X005645Y012542D02*
X005609Y012582D01*
X005570Y012620D01*
X005529Y012655D01*
X005486Y012687D01*
X005441Y012717D01*
X005394Y012743D01*
X005345Y012765D01*
X005294Y012785D01*
X005243Y012801D01*
X005191Y012814D01*
X005137Y012823D01*
X005084Y012828D01*
X005030Y012830D01*
X003905Y014205D02*
X003851Y014203D01*
X003797Y014198D01*
X003744Y014189D01*
X003691Y014176D01*
X003640Y014160D01*
X003590Y014140D01*
X003541Y014117D01*
X003493Y014091D01*
X003448Y014062D01*
X003405Y014029D01*
X003364Y013994D01*
X003325Y013956D01*
X003289Y013916D01*
X003256Y013873D01*
X003226Y013828D01*
X003199Y013781D01*
X003210Y013008D02*
X003240Y012960D01*
X003273Y012915D01*
X003309Y012872D01*
X003347Y012831D01*
X003389Y012794D01*
X003433Y012759D01*
X003479Y012728D01*
X003528Y012699D01*
X003578Y012675D01*
X003630Y012654D01*
X003684Y012636D01*
X003738Y012623D01*
X003793Y012613D01*
X003849Y012607D01*
X003905Y012605D01*
X003958Y012607D01*
X004012Y012612D01*
X004064Y012621D01*
X004116Y012633D01*
X004167Y012649D01*
X004217Y012668D01*
X004266Y012691D01*
X004313Y012717D01*
X004358Y012745D01*
X004401Y012777D01*
X004441Y012811D01*
X004480Y012849D01*
X004516Y012888D01*
X004520Y013917D02*
X004484Y013957D01*
X004445Y013995D01*
X004404Y014030D01*
X004361Y014062D01*
X004316Y014092D01*
X004269Y014118D01*
X004220Y014140D01*
X004169Y014160D01*
X004118Y014176D01*
X004066Y014189D01*
X004012Y014198D01*
X003959Y014203D01*
X003905Y014205D01*
X004155Y014355D02*
X004099Y014357D01*
X004043Y014363D01*
X003988Y014373D01*
X003934Y014386D01*
X003880Y014404D01*
X003828Y014425D01*
X003778Y014449D01*
X003729Y014478D01*
X003683Y014509D01*
X003639Y014544D01*
X003597Y014581D01*
X003559Y014622D01*
X003523Y014665D01*
X003490Y014710D01*
X003460Y014758D01*
X004155Y014355D02*
X004208Y014357D01*
X004262Y014362D01*
X004314Y014371D01*
X004366Y014383D01*
X004417Y014399D01*
X004467Y014418D01*
X004516Y014441D01*
X004563Y014467D01*
X004608Y014495D01*
X004651Y014527D01*
X004691Y014561D01*
X004730Y014599D01*
X004766Y014638D01*
X004155Y015955D02*
X004101Y015953D01*
X004047Y015948D01*
X003994Y015939D01*
X003941Y015926D01*
X003890Y015910D01*
X003840Y015890D01*
X003791Y015867D01*
X003743Y015841D01*
X003698Y015812D01*
X003655Y015779D01*
X003614Y015744D01*
X003575Y015706D01*
X003539Y015666D01*
X003506Y015623D01*
X003476Y015578D01*
X003449Y015531D01*
X004155Y015955D02*
X004209Y015953D01*
X004262Y015948D01*
X004316Y015939D01*
X004368Y015926D01*
X004419Y015910D01*
X004470Y015890D01*
X004519Y015868D01*
X004566Y015842D01*
X004611Y015812D01*
X004654Y015780D01*
X004695Y015745D01*
X004734Y015707D01*
X004770Y015667D01*
X004710Y016008D02*
X004740Y015960D01*
X004773Y015915D01*
X004809Y015872D01*
X004847Y015831D01*
X004889Y015794D01*
X004933Y015759D01*
X004979Y015728D01*
X005028Y015699D01*
X005078Y015675D01*
X005130Y015654D01*
X005184Y015636D01*
X005238Y015623D01*
X005293Y015613D01*
X005349Y015607D01*
X005405Y015605D01*
X005458Y015607D01*
X005512Y015612D01*
X005564Y015621D01*
X005616Y015633D01*
X005667Y015649D01*
X005717Y015668D01*
X005766Y015691D01*
X005813Y015717D01*
X005858Y015745D01*
X005901Y015777D01*
X005941Y015811D01*
X005980Y015849D01*
X006016Y015888D01*
X005405Y017205D02*
X005351Y017203D01*
X005297Y017198D01*
X005244Y017189D01*
X005191Y017176D01*
X005140Y017160D01*
X005090Y017140D01*
X005041Y017117D01*
X004993Y017091D01*
X004948Y017062D01*
X004905Y017029D01*
X004864Y016994D01*
X004825Y016956D01*
X004789Y016916D01*
X004756Y016873D01*
X004726Y016828D01*
X004699Y016781D01*
X005405Y017205D02*
X005459Y017203D01*
X005512Y017198D01*
X005566Y017189D01*
X005618Y017176D01*
X005669Y017160D01*
X005720Y017140D01*
X005769Y017118D01*
X005816Y017092D01*
X005861Y017062D01*
X005904Y017030D01*
X005945Y016995D01*
X005984Y016957D01*
X006020Y016917D01*
X006585Y016633D02*
X006615Y016585D01*
X006648Y016540D01*
X006684Y016497D01*
X006722Y016456D01*
X006764Y016419D01*
X006808Y016384D01*
X006854Y016353D01*
X006903Y016324D01*
X006953Y016300D01*
X007005Y016279D01*
X007059Y016261D01*
X007113Y016248D01*
X007168Y016238D01*
X007224Y016232D01*
X007280Y016230D01*
X007333Y016232D01*
X007387Y016237D01*
X007439Y016246D01*
X007491Y016258D01*
X007542Y016274D01*
X007592Y016293D01*
X007641Y016316D01*
X007688Y016342D01*
X007733Y016370D01*
X007776Y016402D01*
X007816Y016436D01*
X007855Y016474D01*
X007891Y016513D01*
X007280Y017830D02*
X007226Y017828D01*
X007172Y017823D01*
X007119Y017814D01*
X007066Y017801D01*
X007015Y017785D01*
X006965Y017765D01*
X006916Y017742D01*
X006868Y017716D01*
X006823Y017687D01*
X006780Y017654D01*
X006739Y017619D01*
X006700Y017581D01*
X006664Y017541D01*
X006631Y017498D01*
X006601Y017453D01*
X006574Y017406D01*
X007280Y017830D02*
X007334Y017828D01*
X007387Y017823D01*
X007441Y017814D01*
X007493Y017801D01*
X007544Y017785D01*
X007595Y017765D01*
X007644Y017743D01*
X007691Y017717D01*
X007736Y017687D01*
X007779Y017655D01*
X007820Y017620D01*
X007859Y017582D01*
X007895Y017542D01*
X008335Y016133D02*
X008365Y016085D01*
X008398Y016040D01*
X008434Y015997D01*
X008472Y015956D01*
X008514Y015919D01*
X008558Y015884D01*
X008604Y015853D01*
X008653Y015824D01*
X008703Y015800D01*
X008755Y015779D01*
X008809Y015761D01*
X008863Y015748D01*
X008918Y015738D01*
X008974Y015732D01*
X009030Y015730D01*
X009083Y015732D01*
X009137Y015737D01*
X009189Y015746D01*
X009241Y015758D01*
X009292Y015774D01*
X009342Y015793D01*
X009391Y015816D01*
X009438Y015842D01*
X009483Y015870D01*
X009526Y015902D01*
X009566Y015936D01*
X009605Y015974D01*
X009641Y016013D01*
X009030Y017330D02*
X008976Y017328D01*
X008922Y017323D01*
X008869Y017314D01*
X008816Y017301D01*
X008765Y017285D01*
X008715Y017265D01*
X008666Y017242D01*
X008618Y017216D01*
X008573Y017187D01*
X008530Y017154D01*
X008489Y017119D01*
X008450Y017081D01*
X008414Y017041D01*
X008381Y016998D01*
X008351Y016953D01*
X008324Y016906D01*
X009030Y017330D02*
X009084Y017328D01*
X009137Y017323D01*
X009191Y017314D01*
X009243Y017301D01*
X009294Y017285D01*
X009345Y017265D01*
X009394Y017243D01*
X009441Y017217D01*
X009486Y017187D01*
X009529Y017155D01*
X009570Y017120D01*
X009609Y017082D01*
X009645Y017042D01*
X009835Y015008D02*
X009865Y014960D01*
X009898Y014915D01*
X009934Y014872D01*
X009972Y014831D01*
X010014Y014794D01*
X010058Y014759D01*
X010104Y014728D01*
X010153Y014699D01*
X010203Y014675D01*
X010255Y014654D01*
X010309Y014636D01*
X010363Y014623D01*
X010418Y014613D01*
X010474Y014607D01*
X010530Y014605D01*
X010583Y014607D01*
X010637Y014612D01*
X010689Y014621D01*
X010741Y014633D01*
X010792Y014649D01*
X010842Y014668D01*
X010891Y014691D01*
X010938Y014717D01*
X010983Y014745D01*
X011026Y014777D01*
X011066Y014811D01*
X011105Y014849D01*
X011141Y014888D01*
X010530Y016205D02*
X010476Y016203D01*
X010422Y016198D01*
X010369Y016189D01*
X010316Y016176D01*
X010265Y016160D01*
X010215Y016140D01*
X010166Y016117D01*
X010118Y016091D01*
X010073Y016062D01*
X010030Y016029D01*
X009989Y015994D01*
X009950Y015956D01*
X009914Y015916D01*
X009881Y015873D01*
X009851Y015828D01*
X009824Y015781D01*
X010530Y016205D02*
X010584Y016203D01*
X010637Y016198D01*
X010691Y016189D01*
X010743Y016176D01*
X010794Y016160D01*
X010845Y016140D01*
X010894Y016118D01*
X010941Y016092D01*
X010986Y016062D01*
X011029Y016030D01*
X011070Y015995D01*
X011109Y015957D01*
X011145Y015917D01*
X011460Y013758D02*
X011490Y013710D01*
X011523Y013665D01*
X011559Y013622D01*
X011597Y013581D01*
X011639Y013544D01*
X011683Y013509D01*
X011729Y013478D01*
X011778Y013449D01*
X011828Y013425D01*
X011880Y013404D01*
X011934Y013386D01*
X011988Y013373D01*
X012043Y013363D01*
X012099Y013357D01*
X012155Y013355D01*
X012208Y013357D01*
X012262Y013362D01*
X012314Y013371D01*
X012366Y013383D01*
X012417Y013399D01*
X012467Y013418D01*
X012516Y013441D01*
X012563Y013467D01*
X012608Y013495D01*
X012651Y013527D01*
X012691Y013561D01*
X012730Y013599D01*
X012766Y013638D01*
X012155Y014955D02*
X012101Y014953D01*
X012047Y014948D01*
X011994Y014939D01*
X011941Y014926D01*
X011890Y014910D01*
X011840Y014890D01*
X011791Y014867D01*
X011743Y014841D01*
X011698Y014812D01*
X011655Y014779D01*
X011614Y014744D01*
X011575Y014706D01*
X011539Y014666D01*
X011506Y014623D01*
X011476Y014578D01*
X011449Y014531D01*
X012155Y014955D02*
X012209Y014953D01*
X012262Y014948D01*
X012316Y014939D01*
X012368Y014926D01*
X012419Y014910D01*
X012470Y014890D01*
X012519Y014868D01*
X012566Y014842D01*
X012611Y014812D01*
X012654Y014780D01*
X012695Y014745D01*
X012734Y014707D01*
X012770Y014667D01*
D13*
X016955Y008155D02*
X017055Y008155D01*
X017055Y007205D01*
X016955Y007205D01*
X019255Y007155D02*
X019355Y007155D01*
X019255Y007155D02*
X019255Y008155D01*
X019355Y008155D01*
D14*
X014155Y018655D02*
X013155Y018655D01*
X013155Y019655D01*
X014155Y019655D01*
X014155Y018655D01*
X014685Y019179D02*
X014685Y019500D01*
X007655Y019655D02*
X007655Y018655D01*
X006655Y018655D01*
X006655Y019655D01*
X007655Y019655D01*
X006285Y019355D02*
X005965Y019355D01*
X006125Y019195D02*
X006125Y019515D01*
D15*
X010397Y000905D03*
D16*
X010397Y000922D03*
D17*
X010397Y000938D03*
D18*
X010397Y000955D03*
D19*
X010397Y000972D03*
X010397Y019822D03*
D20*
X010397Y000988D03*
D21*
X010397Y001005D03*
D22*
X014380Y004672D03*
X013430Y006238D03*
X010780Y008372D03*
X016380Y004338D03*
X006430Y016422D03*
X001580Y001022D03*
D23*
X008747Y008638D03*
X006647Y010938D03*
X003897Y013222D03*
X003897Y013238D03*
X003897Y013572D03*
X005397Y016222D03*
X005397Y016238D03*
X005397Y016572D03*
X006247Y016722D03*
X002647Y017488D03*
X012147Y014322D03*
X012147Y013988D03*
X012147Y013972D03*
X018147Y017488D03*
X011497Y006638D03*
X013464Y006272D03*
X014397Y004688D03*
X015397Y004688D03*
X019214Y001022D03*
D24*
X019263Y001038D03*
X016330Y004288D03*
X016180Y004172D03*
X015397Y004372D03*
X015397Y004388D03*
X015397Y004638D03*
X015397Y004672D03*
X014663Y004888D03*
X014447Y004738D03*
X014430Y004722D03*
X011530Y006672D03*
X010730Y008322D03*
X010747Y008338D03*
X008780Y008672D03*
X006647Y010622D03*
X006647Y010638D03*
X006647Y010888D03*
X006647Y010922D03*
X003897Y013272D03*
X003897Y013288D03*
X003897Y013522D03*
X003897Y013538D03*
X005397Y016272D03*
X005397Y016288D03*
X005397Y016522D03*
X005397Y016538D03*
X006280Y016688D03*
X006297Y016672D03*
X006413Y016472D03*
X008130Y016238D03*
X011397Y013038D03*
X012147Y014022D03*
X012147Y014038D03*
X012147Y014272D03*
X012147Y014288D03*
X001530Y001038D03*
D25*
X001488Y001055D03*
X009772Y008455D03*
X009772Y008505D03*
X009772Y008555D03*
X012522Y006555D03*
X012522Y006505D03*
X012522Y006455D03*
X014522Y004805D03*
X019305Y001055D03*
X009022Y016455D03*
X009022Y016505D03*
X009022Y016555D03*
D26*
X008114Y016288D03*
X002964Y017622D03*
X001447Y019722D03*
X008847Y008738D03*
X011597Y006738D03*
X013097Y014322D03*
X018464Y017622D03*
X019347Y019722D03*
X019347Y001072D03*
X001447Y001072D03*
D27*
X001422Y001088D03*
X008939Y008822D03*
X009022Y008872D03*
X011639Y006772D03*
X011772Y006872D03*
X019372Y001088D03*
X018472Y018672D03*
X017822Y018672D03*
X002972Y018672D03*
X002322Y018672D03*
D28*
X002297Y018655D03*
X002997Y018655D03*
X017797Y018655D03*
X018497Y018655D03*
X019397Y001105D03*
X001397Y001105D03*
D29*
X001363Y001122D03*
X008963Y008838D03*
X011697Y006822D03*
X011713Y006838D03*
X013097Y014272D03*
X013097Y014288D03*
X008213Y016838D03*
X008197Y016822D03*
X008097Y016338D03*
X002997Y017638D03*
X002297Y017638D03*
X001363Y019672D03*
X001380Y019688D03*
X017797Y017638D03*
X018497Y017638D03*
X019430Y019672D03*
X019413Y019688D03*
X019430Y001122D03*
D30*
X018539Y017672D03*
X018522Y018638D03*
X017772Y018638D03*
X003022Y018638D03*
X002272Y018638D03*
X003039Y017672D03*
X001339Y001138D03*
D31*
X002255Y017672D03*
X017755Y017672D03*
X019455Y001138D03*
D32*
X019472Y001155D03*
X013089Y014255D03*
X008189Y016805D03*
X003022Y017655D03*
X002272Y017655D03*
X001339Y019655D03*
X017772Y017655D03*
X018522Y017655D03*
X001322Y001155D03*
D33*
X001297Y001172D03*
X013097Y014238D03*
X017697Y017722D03*
X017697Y018572D03*
X017714Y018588D03*
X017747Y018622D03*
X018147Y018822D03*
X018547Y018622D03*
X018597Y018572D03*
X018614Y017738D03*
X018597Y017722D03*
X018564Y017688D03*
X019497Y019622D03*
X008097Y016388D03*
X008097Y016372D03*
X003114Y017738D03*
X003097Y017722D03*
X003064Y017688D03*
X002197Y017722D03*
X002197Y018572D03*
X002214Y018588D03*
X002247Y018622D03*
X002647Y018822D03*
X003047Y018622D03*
X003097Y018572D03*
X001314Y019638D03*
X001297Y019622D03*
X019497Y001172D03*
X019514Y001188D03*
D34*
X008180Y016788D03*
X003080Y018588D03*
X002180Y017738D03*
X002230Y017688D03*
X017680Y017738D03*
X017730Y017688D03*
X018580Y018588D03*
X019480Y019638D03*
X001280Y001188D03*
D35*
X001264Y001205D03*
X002214Y017705D03*
X003064Y018605D03*
X017714Y017705D03*
X018564Y018605D03*
X019514Y019605D03*
D36*
X017730Y018605D03*
X018580Y017705D03*
X003080Y017705D03*
X002230Y018605D03*
X001280Y019605D03*
X019530Y001205D03*
D37*
X001238Y001222D03*
X001222Y001238D03*
X001188Y001272D03*
X001172Y001288D03*
X001138Y001338D03*
X013088Y014222D03*
X017638Y017788D03*
X017655Y017772D03*
X017655Y018522D03*
X017655Y018538D03*
X018638Y018538D03*
X018638Y018522D03*
X018655Y017788D03*
X018638Y017772D03*
X019605Y019522D03*
X019588Y019538D03*
X019555Y019572D03*
X019538Y019588D03*
X008172Y016772D03*
X008088Y016422D03*
X003155Y017788D03*
X003138Y017772D03*
X003138Y018522D03*
X003138Y018538D03*
X002155Y018538D03*
X002155Y018522D03*
X002138Y017788D03*
X002155Y017772D03*
X001188Y019522D03*
X001205Y019538D03*
X001238Y019572D03*
X001255Y019588D03*
X019655Y001338D03*
X019622Y001288D03*
X019605Y001272D03*
X019572Y001238D03*
X019555Y001222D03*
D38*
X019588Y001255D03*
X013088Y014205D03*
X017672Y017755D03*
X017638Y018505D03*
X017672Y018555D03*
X018622Y018555D03*
X018655Y018505D03*
X018622Y017755D03*
X019622Y019505D03*
X019572Y019555D03*
X008088Y016405D03*
X003122Y017755D03*
X003155Y018505D03*
X003122Y018555D03*
X002172Y018555D03*
X002138Y018505D03*
X002172Y017755D03*
X001172Y019505D03*
X001222Y019555D03*
X001205Y001255D03*
D39*
X008705Y008588D03*
X011455Y006588D03*
X014355Y004638D03*
X017005Y001288D03*
X006455Y016322D03*
X006455Y016338D03*
D40*
X008164Y016755D03*
X003197Y017855D03*
X003164Y017805D03*
X003214Y018405D03*
X002097Y017855D03*
X001047Y019305D03*
X001097Y019405D03*
X017597Y017855D03*
X018664Y017805D03*
X018697Y017855D03*
X018714Y018405D03*
X019747Y019305D03*
X019697Y019405D03*
X019664Y019455D03*
X019697Y001405D03*
X019664Y001355D03*
X001164Y001305D03*
X001097Y001405D03*
X001064Y001455D03*
D41*
X010922Y008555D03*
X013672Y006505D03*
X014255Y004505D03*
X017005Y001305D03*
D42*
X019630Y001305D03*
X019730Y001455D03*
X017630Y017805D03*
X017580Y018405D03*
X002130Y017805D03*
X002080Y018405D03*
X001130Y019455D03*
X001130Y001355D03*
D43*
X001114Y001372D03*
X001097Y001388D03*
X001147Y001322D03*
X001047Y001488D03*
X012814Y013788D03*
X008147Y016738D03*
X008097Y016438D03*
X003214Y017888D03*
X003197Y018438D03*
X003164Y018488D03*
X002114Y018472D03*
X002097Y018438D03*
X002064Y018372D03*
X002114Y017838D03*
X002114Y017822D03*
X001064Y019338D03*
X001114Y019422D03*
X001147Y019472D03*
X001164Y019488D03*
X017564Y018372D03*
X017597Y018438D03*
X017614Y018472D03*
X017614Y017838D03*
X017614Y017822D03*
X018714Y017888D03*
X018697Y018438D03*
X018664Y018488D03*
X019764Y019272D03*
X019714Y019372D03*
X019664Y019438D03*
X019647Y019472D03*
X019764Y001522D03*
X019747Y001488D03*
X019714Y001422D03*
X019697Y001388D03*
X019647Y001322D03*
D44*
X017022Y001322D03*
X012522Y006188D03*
X010972Y008638D03*
X009772Y008188D03*
X005722Y014138D03*
X005722Y014172D03*
X005722Y014188D03*
X002822Y016038D03*
X002839Y016072D03*
X002872Y016122D03*
X002789Y015988D03*
X009022Y016188D03*
X010222Y016438D03*
D45*
X010289Y016522D03*
X005839Y014488D03*
X005822Y014472D03*
X002672Y012038D03*
X002672Y012022D03*
X002639Y012072D03*
X006222Y009188D03*
X006322Y009122D03*
X006389Y009072D03*
X006439Y009038D03*
X006522Y008972D03*
X006572Y008938D03*
X006589Y008922D03*
X006639Y008888D03*
X006739Y008822D03*
X006772Y008788D03*
X006839Y008738D03*
X006872Y008722D03*
X006939Y008672D03*
X006989Y008638D03*
X007072Y008572D03*
X007122Y008538D03*
X007139Y008522D03*
X007189Y008488D03*
X007422Y008322D03*
X007489Y008272D03*
X016622Y004688D03*
X017022Y001338D03*
D46*
X017022Y001355D03*
X014872Y002905D03*
X012739Y004455D03*
X012522Y006155D03*
X009772Y008155D03*
X007072Y012355D03*
X006939Y012455D03*
X006872Y012505D03*
X006739Y012605D03*
X006672Y012655D03*
X009572Y014305D03*
X009639Y014255D03*
X009722Y014205D03*
X009022Y016155D03*
X003022Y011655D03*
X002972Y011705D03*
D47*
X004130Y010788D03*
X009080Y014638D03*
X009180Y014572D03*
X014130Y004272D03*
X017030Y001372D03*
X018630Y003938D03*
D48*
X019680Y001372D03*
X013080Y014188D03*
X017580Y017888D03*
X017630Y018488D03*
X018680Y018472D03*
X018730Y018372D03*
X018680Y017838D03*
X018680Y017822D03*
X019730Y019338D03*
X019680Y019422D03*
X019630Y019488D03*
X003230Y018372D03*
X003180Y018472D03*
X003180Y017838D03*
X003180Y017822D03*
X002130Y018488D03*
X002080Y017888D03*
X001030Y019272D03*
X001080Y019372D03*
X001130Y019438D03*
X001030Y001522D03*
X001080Y001422D03*
D49*
X008522Y008222D03*
X006222Y009288D03*
X008022Y010638D03*
X010755Y014188D03*
X008872Y014772D03*
X008838Y014788D03*
X002372Y014472D03*
X014522Y003222D03*
X017038Y001388D03*
X018488Y004072D03*
D50*
X017039Y001405D03*
X007239Y012155D03*
X005222Y010805D03*
X002672Y012305D03*
D51*
X008105Y010738D03*
X016205Y005688D03*
X017055Y001422D03*
D52*
X019722Y001438D03*
X019739Y001472D03*
X019772Y001538D03*
X019789Y001572D03*
X019789Y001588D03*
X019822Y001688D03*
X019822Y001722D03*
X019822Y001738D03*
X019839Y001788D03*
X019839Y001822D03*
X019839Y001838D03*
X019839Y001872D03*
X019839Y001888D03*
X019839Y001922D03*
X019839Y001938D03*
X019839Y001972D03*
X019839Y001988D03*
X019839Y002022D03*
X019839Y002038D03*
X019839Y002072D03*
X019839Y002088D03*
X019839Y002122D03*
X019839Y002138D03*
X019839Y002172D03*
X019839Y002188D03*
X019839Y002222D03*
X019839Y002238D03*
X019839Y002272D03*
X019839Y002288D03*
X019839Y002322D03*
X019839Y002338D03*
X019839Y002372D03*
X019839Y002388D03*
X019839Y002422D03*
X019839Y002438D03*
X019839Y002472D03*
X019839Y002488D03*
X019839Y002522D03*
X019839Y002538D03*
X019839Y002572D03*
X019839Y002588D03*
X019839Y002622D03*
X019839Y002638D03*
X019839Y002672D03*
X019839Y002688D03*
X019839Y002722D03*
X019839Y002738D03*
X019839Y002772D03*
X019839Y002788D03*
X019839Y002822D03*
X019839Y002838D03*
X019839Y002872D03*
X019839Y002888D03*
X019839Y002922D03*
X019839Y002938D03*
X019839Y002972D03*
X019839Y002988D03*
X019839Y003022D03*
X019839Y003038D03*
X019839Y003072D03*
X019839Y003088D03*
X019839Y003122D03*
X019839Y003138D03*
X019839Y003172D03*
X019839Y003188D03*
X019839Y003222D03*
X019839Y003238D03*
X019839Y003272D03*
X019839Y003288D03*
X019839Y003322D03*
X019839Y003338D03*
X019839Y003372D03*
X019839Y003388D03*
X019839Y003422D03*
X019839Y003438D03*
X019839Y003472D03*
X019839Y003488D03*
X019839Y003522D03*
X019839Y003538D03*
X019839Y003572D03*
X019839Y003588D03*
X019839Y003622D03*
X019839Y003638D03*
X019839Y003672D03*
X019839Y003688D03*
X019839Y003722D03*
X019839Y003738D03*
X019839Y003772D03*
X019839Y003788D03*
X019839Y003822D03*
X019839Y003838D03*
X019839Y003872D03*
X019839Y003888D03*
X019839Y003922D03*
X019839Y003938D03*
X019839Y003972D03*
X019839Y003988D03*
X019839Y004022D03*
X019839Y004038D03*
X019839Y004072D03*
X019839Y004088D03*
X019839Y004122D03*
X019839Y004138D03*
X019839Y004172D03*
X019839Y004188D03*
X019839Y004222D03*
X019839Y004238D03*
X019839Y004272D03*
X019839Y004288D03*
X019839Y004322D03*
X019839Y004338D03*
X019839Y004372D03*
X019839Y004388D03*
X019839Y004422D03*
X019839Y004438D03*
X019839Y004472D03*
X019839Y004488D03*
X019839Y004522D03*
X019839Y004538D03*
X019839Y004572D03*
X019839Y004588D03*
X019839Y004622D03*
X019839Y004638D03*
X019839Y004672D03*
X019839Y004688D03*
X019839Y004722D03*
X019839Y004738D03*
X019839Y004772D03*
X019839Y004788D03*
X019839Y004822D03*
X019839Y004838D03*
X019839Y004872D03*
X019839Y004888D03*
X019839Y004922D03*
X019839Y004938D03*
X019839Y004972D03*
X019839Y004988D03*
X019839Y005022D03*
X019839Y005038D03*
X019839Y005072D03*
X019839Y005088D03*
X019839Y005122D03*
X019839Y005138D03*
X019839Y005172D03*
X019839Y005188D03*
X019839Y005222D03*
X019839Y005238D03*
X019839Y005272D03*
X019839Y005288D03*
X019839Y005322D03*
X019839Y005338D03*
X019839Y005372D03*
X019839Y005388D03*
X019839Y005422D03*
X019839Y005438D03*
X019839Y005472D03*
X019839Y005488D03*
X019839Y005522D03*
X019839Y005538D03*
X019839Y005572D03*
X019839Y005588D03*
X019839Y005622D03*
X019839Y005638D03*
X019839Y005672D03*
X019839Y005688D03*
X019839Y005722D03*
X019839Y005738D03*
X019839Y005772D03*
X019839Y005788D03*
X019839Y005822D03*
X019839Y005838D03*
X019839Y005872D03*
X019839Y005888D03*
X019839Y005922D03*
X019839Y005938D03*
X019839Y005972D03*
X019839Y005988D03*
X019839Y006022D03*
X019839Y006038D03*
X019839Y006072D03*
X019839Y006088D03*
X019839Y006122D03*
X019839Y006138D03*
X019839Y006172D03*
X019839Y006188D03*
X019839Y006222D03*
X019839Y006238D03*
X019839Y006272D03*
X019839Y006288D03*
X019839Y006322D03*
X019839Y006338D03*
X019839Y006372D03*
X019839Y006388D03*
X019839Y006422D03*
X019839Y006438D03*
X019839Y006472D03*
X019839Y006488D03*
X019839Y006522D03*
X019839Y006538D03*
X019839Y006572D03*
X019839Y006588D03*
X019839Y006622D03*
X019839Y006638D03*
X019839Y006672D03*
X019839Y006688D03*
X019839Y006722D03*
X019839Y006738D03*
X019839Y006772D03*
X019839Y006788D03*
X019839Y006822D03*
X019839Y006838D03*
X019839Y006872D03*
X019839Y006888D03*
X019839Y006922D03*
X019839Y006938D03*
X019839Y006972D03*
X019839Y006988D03*
X019839Y007022D03*
X019839Y007038D03*
X019839Y007072D03*
X019839Y007088D03*
X019839Y007122D03*
X019839Y007138D03*
X019839Y007172D03*
X019839Y007188D03*
X019839Y007222D03*
X019839Y007238D03*
X019839Y007272D03*
X019839Y007288D03*
X019839Y007322D03*
X019839Y007338D03*
X019839Y007372D03*
X019839Y007388D03*
X019839Y007422D03*
X019839Y007438D03*
X019839Y007472D03*
X019839Y007488D03*
X019839Y007522D03*
X019839Y007538D03*
X019839Y007572D03*
X019839Y007588D03*
X019839Y007622D03*
X019839Y007638D03*
X019839Y007672D03*
X019839Y007688D03*
X019839Y007722D03*
X019839Y007738D03*
X019839Y007772D03*
X019839Y007788D03*
X019839Y007822D03*
X019839Y007838D03*
X019839Y007872D03*
X019839Y007888D03*
X019839Y007922D03*
X019839Y007938D03*
X019839Y007972D03*
X019839Y007988D03*
X019839Y008022D03*
X019839Y008038D03*
X019839Y008072D03*
X019839Y008088D03*
X019839Y008122D03*
X019839Y008138D03*
X019839Y008172D03*
X019839Y008188D03*
X019839Y008222D03*
X019839Y008238D03*
X019839Y008272D03*
X019839Y008288D03*
X019839Y008322D03*
X019839Y008338D03*
X019839Y008372D03*
X019839Y008388D03*
X019839Y008422D03*
X019839Y008438D03*
X019839Y008472D03*
X019839Y008488D03*
X019839Y008522D03*
X019839Y008538D03*
X019839Y008572D03*
X019839Y008588D03*
X019839Y008622D03*
X019839Y008638D03*
X019839Y008672D03*
X019839Y008688D03*
X019839Y008722D03*
X019839Y008738D03*
X019839Y008772D03*
X019839Y008788D03*
X019839Y008822D03*
X019839Y008838D03*
X019839Y008872D03*
X019839Y008888D03*
X019839Y008922D03*
X019839Y008938D03*
X019839Y008972D03*
X019839Y008988D03*
X019839Y009022D03*
X019839Y009038D03*
X019839Y009072D03*
X019839Y009088D03*
X019839Y009122D03*
X019839Y009138D03*
X019839Y009172D03*
X019839Y009188D03*
X019839Y009222D03*
X019839Y009238D03*
X019839Y009272D03*
X019839Y009288D03*
X019839Y009322D03*
X019839Y009338D03*
X019839Y009372D03*
X019839Y009388D03*
X019839Y009422D03*
X019839Y009438D03*
X019839Y009472D03*
X019839Y009488D03*
X019839Y009522D03*
X019839Y009538D03*
X019839Y009572D03*
X019839Y009588D03*
X019839Y009622D03*
X019839Y009638D03*
X019839Y009672D03*
X019839Y009688D03*
X019839Y009722D03*
X019839Y009738D03*
X019839Y009772D03*
X019839Y009788D03*
X019839Y009822D03*
X019839Y009838D03*
X019839Y009872D03*
X019839Y009888D03*
X019839Y009922D03*
X019839Y009938D03*
X019839Y009972D03*
X019839Y009988D03*
X019839Y010022D03*
X019839Y010038D03*
X019839Y010072D03*
X019839Y010088D03*
X019839Y010122D03*
X019839Y010138D03*
X019839Y010172D03*
X019839Y010188D03*
X019839Y010222D03*
X019839Y010238D03*
X019839Y010272D03*
X019839Y010288D03*
X019839Y010322D03*
X019839Y010338D03*
X019839Y010372D03*
X019839Y010388D03*
X019839Y010422D03*
X019839Y010438D03*
X019839Y010472D03*
X019839Y010488D03*
X019839Y010522D03*
X019839Y010538D03*
X019839Y010572D03*
X019839Y010588D03*
X019839Y010622D03*
X019839Y010638D03*
X019839Y010672D03*
X019839Y010688D03*
X019839Y010722D03*
X019839Y010738D03*
X019839Y010772D03*
X019839Y010788D03*
X019839Y010822D03*
X019839Y010838D03*
X019839Y010872D03*
X019839Y010888D03*
X019839Y010922D03*
X019839Y010938D03*
X019839Y010972D03*
X019839Y010988D03*
X019839Y011022D03*
X019839Y011038D03*
X019839Y011072D03*
X019839Y011088D03*
X019839Y011122D03*
X019839Y011138D03*
X019839Y011172D03*
X019839Y011188D03*
X019839Y011222D03*
X019839Y011238D03*
X019839Y011272D03*
X019839Y011288D03*
X019839Y011322D03*
X019839Y011338D03*
X019839Y011372D03*
X019839Y011388D03*
X019839Y011422D03*
X019839Y011438D03*
X019839Y011472D03*
X019839Y011488D03*
X019839Y011522D03*
X019839Y011538D03*
X019839Y011572D03*
X019839Y011588D03*
X019839Y011622D03*
X019839Y011638D03*
X019839Y011672D03*
X019839Y011688D03*
X019839Y011722D03*
X019839Y011738D03*
X019839Y011772D03*
X019839Y011788D03*
X019839Y011822D03*
X019839Y011838D03*
X019839Y011872D03*
X019839Y011888D03*
X019839Y011922D03*
X019839Y011938D03*
X019839Y011972D03*
X019839Y011988D03*
X019839Y012022D03*
X019839Y012038D03*
X019839Y012072D03*
X019839Y012088D03*
X019839Y012122D03*
X019839Y012138D03*
X019839Y012172D03*
X019839Y012188D03*
X019839Y012222D03*
X019839Y012238D03*
X019839Y012272D03*
X019839Y012288D03*
X019839Y012322D03*
X019839Y012338D03*
X019839Y012372D03*
X019839Y012388D03*
X019839Y012422D03*
X019839Y012438D03*
X019839Y012472D03*
X019839Y012488D03*
X019839Y012522D03*
X019839Y012538D03*
X019839Y012572D03*
X019839Y012588D03*
X019839Y012622D03*
X019839Y012638D03*
X019839Y012672D03*
X019839Y012688D03*
X019839Y012722D03*
X019839Y012738D03*
X019839Y012772D03*
X019839Y012788D03*
X019839Y012822D03*
X019839Y012838D03*
X019839Y012872D03*
X019839Y012888D03*
X019839Y012922D03*
X019839Y012938D03*
X019839Y012972D03*
X019839Y012988D03*
X019839Y013022D03*
X019839Y013038D03*
X019839Y013072D03*
X019839Y013088D03*
X019839Y013122D03*
X019839Y013138D03*
X019839Y013172D03*
X019839Y013188D03*
X019839Y013222D03*
X019839Y013238D03*
X019839Y013272D03*
X019839Y013288D03*
X019839Y013322D03*
X019839Y013338D03*
X019839Y013372D03*
X019839Y013388D03*
X019839Y013422D03*
X019839Y013438D03*
X019839Y013472D03*
X019839Y013488D03*
X019839Y013522D03*
X019839Y013538D03*
X019839Y013572D03*
X019839Y013588D03*
X019839Y013622D03*
X019839Y013638D03*
X019839Y013672D03*
X019839Y013688D03*
X019839Y013722D03*
X019839Y013738D03*
X019839Y013772D03*
X019839Y013788D03*
X019839Y013822D03*
X019839Y013838D03*
X019839Y013872D03*
X019839Y013888D03*
X019839Y013922D03*
X019839Y013938D03*
X019839Y013972D03*
X019839Y013988D03*
X019839Y014022D03*
X019839Y014038D03*
X019839Y014072D03*
X019839Y014088D03*
X019839Y014122D03*
X019839Y014138D03*
X019839Y014172D03*
X019839Y014188D03*
X019839Y014222D03*
X019839Y014238D03*
X019839Y014272D03*
X019839Y014288D03*
X019839Y014322D03*
X019839Y014338D03*
X019839Y014372D03*
X019839Y014388D03*
X019839Y014422D03*
X019839Y014438D03*
X019839Y014472D03*
X019839Y014488D03*
X019839Y014522D03*
X019839Y014538D03*
X019839Y014572D03*
X019839Y014588D03*
X019839Y014622D03*
X019839Y014638D03*
X019839Y014672D03*
X019839Y014688D03*
X019839Y014722D03*
X019839Y014738D03*
X019839Y014772D03*
X019839Y014788D03*
X019839Y014822D03*
X019839Y014838D03*
X019839Y014872D03*
X019839Y014888D03*
X019839Y014922D03*
X019839Y014938D03*
X019839Y014972D03*
X019839Y014988D03*
X019839Y015022D03*
X019839Y015038D03*
X019839Y015072D03*
X019839Y015088D03*
X019839Y015122D03*
X019839Y015138D03*
X019839Y015172D03*
X019839Y015188D03*
X019839Y015222D03*
X019839Y015238D03*
X019839Y015272D03*
X019839Y015288D03*
X019839Y015322D03*
X019839Y015338D03*
X019839Y015372D03*
X019839Y015388D03*
X019839Y015422D03*
X019839Y015438D03*
X019839Y015472D03*
X019839Y015488D03*
X019839Y015522D03*
X019839Y015538D03*
X019839Y015572D03*
X019839Y015588D03*
X019839Y015622D03*
X019839Y015638D03*
X019839Y015672D03*
X019839Y015688D03*
X019839Y015722D03*
X019839Y015738D03*
X019839Y015772D03*
X019839Y015788D03*
X019839Y015822D03*
X019839Y015838D03*
X019839Y015872D03*
X019839Y015888D03*
X019839Y015922D03*
X019839Y015938D03*
X019839Y015972D03*
X019839Y015988D03*
X019839Y016022D03*
X019839Y016038D03*
X019839Y016072D03*
X019839Y016088D03*
X019839Y016122D03*
X019839Y016138D03*
X019839Y016172D03*
X019839Y016188D03*
X019839Y016222D03*
X019839Y016238D03*
X019839Y016272D03*
X019839Y016288D03*
X019839Y016322D03*
X019839Y016338D03*
X019839Y016372D03*
X019839Y016388D03*
X019839Y016422D03*
X019839Y016438D03*
X019839Y016472D03*
X019839Y016488D03*
X019839Y016522D03*
X019839Y016538D03*
X019839Y016572D03*
X019839Y016588D03*
X019839Y016622D03*
X019839Y016638D03*
X019839Y016672D03*
X019839Y016688D03*
X019839Y016722D03*
X019839Y016738D03*
X019839Y016772D03*
X019839Y016788D03*
X019839Y016822D03*
X019839Y016838D03*
X019839Y016872D03*
X019839Y016888D03*
X019839Y016922D03*
X019839Y016938D03*
X019839Y016972D03*
X019839Y016988D03*
X019839Y017022D03*
X019839Y017038D03*
X019839Y017072D03*
X019839Y017088D03*
X019839Y017122D03*
X019839Y017138D03*
X019839Y017172D03*
X019839Y017188D03*
X019839Y017222D03*
X019839Y017238D03*
X019839Y017272D03*
X019839Y017288D03*
X019839Y017322D03*
X019839Y017338D03*
X019839Y017372D03*
X019839Y017388D03*
X019839Y017422D03*
X019839Y017438D03*
X019839Y017472D03*
X019839Y017488D03*
X019839Y017522D03*
X019839Y017538D03*
X019839Y017572D03*
X019839Y017588D03*
X019839Y017622D03*
X019839Y017638D03*
X019839Y017672D03*
X019839Y017688D03*
X019839Y017722D03*
X019839Y017738D03*
X019839Y017772D03*
X019839Y017788D03*
X019839Y017822D03*
X019839Y017838D03*
X019839Y017872D03*
X019839Y017888D03*
X019839Y017922D03*
X019839Y017938D03*
X019839Y017972D03*
X019839Y017988D03*
X019839Y018022D03*
X019839Y018038D03*
X019839Y018072D03*
X019839Y018088D03*
X019839Y018122D03*
X019839Y018138D03*
X019839Y018172D03*
X019839Y018188D03*
X019839Y018222D03*
X019839Y018238D03*
X019839Y018272D03*
X019839Y018288D03*
X019839Y018322D03*
X019839Y018338D03*
X019839Y018372D03*
X019839Y018388D03*
X019839Y018422D03*
X019839Y018438D03*
X019839Y018472D03*
X019839Y018488D03*
X019839Y018522D03*
X019839Y018538D03*
X019839Y018572D03*
X019839Y018588D03*
X019839Y018622D03*
X019839Y018638D03*
X019839Y018672D03*
X019839Y018688D03*
X019839Y018722D03*
X019839Y018738D03*
X019839Y018772D03*
X019839Y018788D03*
X019839Y018822D03*
X019839Y018838D03*
X019839Y018872D03*
X019839Y018888D03*
X019839Y018922D03*
X019839Y018938D03*
X019839Y018972D03*
X019839Y018988D03*
X019822Y019072D03*
X019822Y019088D03*
X019789Y019188D03*
X019789Y019222D03*
X019772Y019238D03*
X019739Y019322D03*
X018739Y018338D03*
X018739Y018322D03*
X018722Y018388D03*
X018772Y018222D03*
X018772Y018188D03*
X018772Y018172D03*
X018772Y018138D03*
X018772Y018122D03*
X018772Y018088D03*
X018739Y017972D03*
X018739Y017938D03*
X018722Y017922D03*
X017589Y017872D03*
X017572Y017922D03*
X017539Y017988D03*
X017539Y018022D03*
X017539Y018038D03*
X017522Y018088D03*
X017522Y018122D03*
X017522Y018138D03*
X017522Y018172D03*
X017522Y018188D03*
X017522Y018222D03*
X017539Y018272D03*
X017539Y018288D03*
X017572Y018388D03*
X017589Y018422D03*
X013072Y014172D03*
X008139Y016722D03*
X008089Y016488D03*
X008089Y016472D03*
X003239Y017938D03*
X003222Y017922D03*
X003239Y017972D03*
X003272Y018088D03*
X003272Y018122D03*
X003272Y018138D03*
X003272Y018172D03*
X003272Y018188D03*
X003272Y018222D03*
X003239Y018322D03*
X003239Y018338D03*
X003222Y018388D03*
X002089Y018422D03*
X002072Y018388D03*
X002039Y018288D03*
X002039Y018272D03*
X002022Y018222D03*
X002022Y018188D03*
X002022Y018172D03*
X002022Y018138D03*
X002022Y018122D03*
X002022Y018088D03*
X002039Y018038D03*
X002039Y018022D03*
X002039Y017988D03*
X002072Y017922D03*
X002089Y017872D03*
X000972Y019072D03*
X000972Y019088D03*
X000989Y019138D03*
X000989Y019172D03*
X001022Y019238D03*
X001039Y019288D03*
X001089Y019388D03*
X000972Y001738D03*
X000972Y001722D03*
X000972Y001688D03*
X000989Y001638D03*
X000989Y001622D03*
X001022Y001538D03*
X001072Y001438D03*
D53*
X011738Y005322D03*
X017055Y001438D03*
X018605Y003422D03*
X002722Y012338D03*
X002455Y013188D03*
X002438Y013222D03*
X002438Y013238D03*
X002405Y013488D03*
D54*
X010655Y009655D03*
X017055Y001455D03*
D55*
X019805Y001622D03*
X019805Y001638D03*
X018705Y017872D03*
X018755Y017988D03*
X018755Y018022D03*
X018755Y018038D03*
X018755Y018272D03*
X018755Y018288D03*
X018705Y018422D03*
X017555Y018338D03*
X017555Y018322D03*
X017555Y017972D03*
X017555Y017938D03*
X019755Y019288D03*
X019705Y019388D03*
X019805Y019172D03*
X019805Y019138D03*
X003255Y018288D03*
X003255Y018272D03*
X003205Y018422D03*
X003255Y018038D03*
X003255Y018022D03*
X003255Y017988D03*
X003205Y017872D03*
X002055Y017938D03*
X002055Y017972D03*
X002055Y018322D03*
X002055Y018338D03*
X001055Y019322D03*
X001005Y019222D03*
X001005Y019188D03*
X000955Y018988D03*
X000955Y018972D03*
X000955Y018938D03*
X000955Y018922D03*
X000955Y018888D03*
X000955Y018872D03*
X000955Y018838D03*
X000955Y018822D03*
X000955Y018788D03*
X000955Y018772D03*
X000955Y018738D03*
X000955Y018722D03*
X000955Y018688D03*
X000955Y018672D03*
X000955Y018638D03*
X000955Y018622D03*
X000955Y018588D03*
X000955Y018572D03*
X000955Y018538D03*
X000955Y018522D03*
X000955Y018488D03*
X000955Y018472D03*
X000955Y018438D03*
X000955Y018422D03*
X000955Y018388D03*
X000955Y018372D03*
X000955Y018338D03*
X000955Y018322D03*
X000955Y018288D03*
X000955Y018272D03*
X000955Y018238D03*
X000955Y018222D03*
X000955Y018188D03*
X000955Y018172D03*
X000955Y018138D03*
X000955Y018122D03*
X000955Y018088D03*
X000955Y018072D03*
X000955Y018038D03*
X000955Y018022D03*
X000955Y017988D03*
X000955Y017972D03*
X000955Y017938D03*
X000955Y017922D03*
X000955Y017888D03*
X000955Y017872D03*
X000955Y017838D03*
X000955Y017822D03*
X000955Y017788D03*
X000955Y017772D03*
X000955Y017738D03*
X000955Y017722D03*
X000955Y017688D03*
X000955Y017672D03*
X000955Y017638D03*
X000955Y017622D03*
X000955Y017588D03*
X000955Y017572D03*
X000955Y017538D03*
X000955Y017522D03*
X000955Y017488D03*
X000955Y017472D03*
X000955Y017438D03*
X000955Y017422D03*
X000955Y017388D03*
X000955Y017372D03*
X000955Y017338D03*
X000955Y017322D03*
X000955Y017288D03*
X000955Y017272D03*
X000955Y017238D03*
X000955Y017222D03*
X000955Y017188D03*
X000955Y017172D03*
X000955Y017138D03*
X000955Y017122D03*
X000955Y017088D03*
X000955Y017072D03*
X000955Y017038D03*
X000955Y017022D03*
X000955Y016988D03*
X000955Y016972D03*
X000955Y016938D03*
X000955Y016922D03*
X000955Y016888D03*
X000955Y016872D03*
X000955Y016838D03*
X000955Y016822D03*
X000955Y016788D03*
X000955Y016772D03*
X000955Y016738D03*
X000955Y016722D03*
X000955Y016688D03*
X000955Y016672D03*
X000955Y016638D03*
X000955Y016622D03*
X000955Y016588D03*
X000955Y016572D03*
X000955Y016538D03*
X000955Y016522D03*
X000955Y016488D03*
X000955Y016472D03*
X000955Y016438D03*
X000955Y016422D03*
X000955Y016388D03*
X000955Y016372D03*
X000955Y016338D03*
X000955Y016322D03*
X000955Y016288D03*
X000955Y016272D03*
X000955Y016238D03*
X000955Y016222D03*
X000955Y016188D03*
X000955Y016172D03*
X000955Y016138D03*
X000955Y016122D03*
X000955Y016088D03*
X000955Y016072D03*
X000955Y016038D03*
X000955Y016022D03*
X000955Y015988D03*
X000955Y015972D03*
X000955Y015938D03*
X000955Y015922D03*
X000955Y015888D03*
X000955Y015872D03*
X000955Y015838D03*
X000955Y015822D03*
X000955Y015788D03*
X000955Y015772D03*
X000955Y015738D03*
X000955Y015722D03*
X000955Y015688D03*
X000955Y015672D03*
X000955Y015638D03*
X000955Y015622D03*
X000955Y015588D03*
X000955Y015572D03*
X000955Y015538D03*
X000955Y015522D03*
X000955Y015488D03*
X000955Y015472D03*
X000955Y015438D03*
X000955Y015422D03*
X000955Y015388D03*
X000955Y015372D03*
X000955Y015338D03*
X000955Y015322D03*
X000955Y015288D03*
X000955Y015272D03*
X000955Y015238D03*
X000955Y015222D03*
X000955Y015188D03*
X000955Y015172D03*
X000955Y015138D03*
X000955Y015122D03*
X000955Y015088D03*
X000955Y015072D03*
X000955Y015038D03*
X000955Y015022D03*
X000955Y014988D03*
X000955Y014972D03*
X000955Y014938D03*
X000955Y014922D03*
X000955Y014888D03*
X000955Y014872D03*
X000955Y014838D03*
X000955Y014822D03*
X000955Y014788D03*
X000955Y014772D03*
X000955Y014738D03*
X000955Y014722D03*
X000955Y014688D03*
X000955Y014672D03*
X000955Y014638D03*
X000955Y014622D03*
X000955Y014588D03*
X000955Y014572D03*
X000955Y014538D03*
X000955Y014522D03*
X000955Y014488D03*
X000955Y014472D03*
X000955Y014438D03*
X000955Y014422D03*
X000955Y014388D03*
X000955Y014372D03*
X000955Y014338D03*
X000955Y014322D03*
X000955Y014288D03*
X000955Y014272D03*
X000955Y014238D03*
X000955Y014222D03*
X000955Y014188D03*
X000955Y014172D03*
X000955Y014138D03*
X000955Y014122D03*
X000955Y014088D03*
X000955Y014072D03*
X000955Y014038D03*
X000955Y014022D03*
X000955Y013988D03*
X000955Y013972D03*
X000955Y013938D03*
X000955Y013922D03*
X000955Y013888D03*
X000955Y013872D03*
X000955Y013838D03*
X000955Y013822D03*
X000955Y013788D03*
X000955Y013772D03*
X000955Y013738D03*
X000955Y013722D03*
X000955Y013688D03*
X000955Y013672D03*
X000955Y013638D03*
X000955Y013622D03*
X000955Y013588D03*
X000955Y013572D03*
X000955Y013538D03*
X000955Y013522D03*
X000955Y013488D03*
X000955Y013472D03*
X000955Y013438D03*
X000955Y013422D03*
X000955Y013388D03*
X000955Y013372D03*
X000955Y013338D03*
X000955Y013322D03*
X000955Y013288D03*
X000955Y013272D03*
X000955Y013238D03*
X000955Y013222D03*
X000955Y013188D03*
X000955Y013172D03*
X000955Y013138D03*
X000955Y013122D03*
X000955Y013088D03*
X000955Y013072D03*
X000955Y013038D03*
X000955Y013022D03*
X000955Y012988D03*
X000955Y012972D03*
X000955Y012938D03*
X000955Y012922D03*
X000955Y012888D03*
X000955Y012872D03*
X000955Y012838D03*
X000955Y012822D03*
X000955Y012788D03*
X000955Y012772D03*
X000955Y012738D03*
X000955Y012722D03*
X000955Y012688D03*
X000955Y012672D03*
X000955Y012638D03*
X000955Y012622D03*
X000955Y012588D03*
X000955Y012572D03*
X000955Y012538D03*
X000955Y012522D03*
X000955Y012488D03*
X000955Y012472D03*
X000955Y012438D03*
X000955Y012422D03*
X000955Y012388D03*
X000955Y012372D03*
X000955Y012338D03*
X000955Y012322D03*
X000955Y012288D03*
X000955Y012272D03*
X000955Y012238D03*
X000955Y012222D03*
X000955Y012188D03*
X000955Y012172D03*
X000955Y012138D03*
X000955Y012122D03*
X000955Y012088D03*
X000955Y012072D03*
X000955Y012038D03*
X000955Y012022D03*
X000955Y011988D03*
X000955Y011972D03*
X000955Y011938D03*
X000955Y011922D03*
X000955Y011888D03*
X000955Y011872D03*
X000955Y011838D03*
X000955Y011822D03*
X000955Y011788D03*
X000955Y011772D03*
X000955Y011738D03*
X000955Y011722D03*
X000955Y011688D03*
X000955Y011672D03*
X000955Y011638D03*
X000955Y011622D03*
X000955Y011588D03*
X000955Y011572D03*
X000955Y011538D03*
X000955Y011522D03*
X000955Y011488D03*
X000955Y011472D03*
X000955Y011438D03*
X000955Y011422D03*
X000955Y011388D03*
X000955Y011372D03*
X000955Y011338D03*
X000955Y011322D03*
X000955Y011288D03*
X000955Y011272D03*
X000955Y011238D03*
X000955Y011222D03*
X000955Y011188D03*
X000955Y011172D03*
X000955Y011138D03*
X000955Y011122D03*
X000955Y011088D03*
X000955Y011072D03*
X000955Y011038D03*
X000955Y011022D03*
X000955Y010988D03*
X000955Y010972D03*
X000955Y010938D03*
X000955Y010922D03*
X000955Y010888D03*
X000955Y010872D03*
X000955Y010838D03*
X000955Y010822D03*
X000955Y010788D03*
X000955Y010772D03*
X000955Y010738D03*
X000955Y010722D03*
X000955Y010688D03*
X000955Y010672D03*
X000955Y010638D03*
X000955Y010622D03*
X000955Y010588D03*
X000955Y010572D03*
X000955Y010538D03*
X000955Y010522D03*
X000955Y010488D03*
X000955Y010472D03*
X000955Y010438D03*
X000955Y010422D03*
X000955Y010388D03*
X000955Y010372D03*
X000955Y010338D03*
X000955Y010322D03*
X000955Y010288D03*
X000955Y010272D03*
X000955Y010238D03*
X000955Y010222D03*
X000955Y010188D03*
X000955Y010172D03*
X000955Y010138D03*
X000955Y010122D03*
X000955Y010088D03*
X000955Y010072D03*
X000955Y010038D03*
X000955Y010022D03*
X000955Y009988D03*
X000955Y009972D03*
X000955Y009938D03*
X000955Y009922D03*
X000955Y009888D03*
X000955Y009872D03*
X000955Y009838D03*
X000955Y009822D03*
X000955Y009788D03*
X000955Y009772D03*
X000955Y009738D03*
X000955Y009722D03*
X000955Y009688D03*
X000955Y009672D03*
X000955Y009638D03*
X000955Y009622D03*
X000955Y009588D03*
X000955Y009572D03*
X000955Y009538D03*
X000955Y009522D03*
X000955Y009488D03*
X000955Y009472D03*
X000955Y009438D03*
X000955Y009422D03*
X000955Y009388D03*
X000955Y009372D03*
X000955Y009338D03*
X000955Y009322D03*
X000955Y009288D03*
X000955Y009272D03*
X000955Y009238D03*
X000955Y009222D03*
X000955Y009188D03*
X000955Y009172D03*
X000955Y009138D03*
X000955Y009122D03*
X000955Y009088D03*
X000955Y009072D03*
X000955Y009038D03*
X000955Y009022D03*
X000955Y008988D03*
X000955Y008972D03*
X000955Y008938D03*
X000955Y008922D03*
X000955Y008888D03*
X000955Y008872D03*
X000955Y008838D03*
X000955Y008822D03*
X000955Y008788D03*
X000955Y008772D03*
X000955Y008738D03*
X000955Y008722D03*
X000955Y008688D03*
X000955Y008672D03*
X000955Y008638D03*
X000955Y008622D03*
X000955Y008588D03*
X000955Y008572D03*
X000955Y008538D03*
X000955Y008522D03*
X000955Y008488D03*
X000955Y008472D03*
X000955Y008438D03*
X000955Y008422D03*
X000955Y008388D03*
X000955Y008372D03*
X000955Y008338D03*
X000955Y008322D03*
X000955Y008288D03*
X000955Y008272D03*
X000955Y008238D03*
X000955Y008222D03*
X000955Y008188D03*
X000955Y008172D03*
X000955Y008138D03*
X000955Y008122D03*
X000955Y008088D03*
X000955Y008072D03*
X000955Y008038D03*
X000955Y008022D03*
X000955Y007988D03*
X000955Y007972D03*
X000955Y007938D03*
X000955Y007922D03*
X000955Y007888D03*
X000955Y007872D03*
X000955Y007838D03*
X000955Y007822D03*
X000955Y007788D03*
X000955Y007772D03*
X000955Y007738D03*
X000955Y007722D03*
X000955Y007688D03*
X000955Y007672D03*
X000955Y007638D03*
X000955Y007622D03*
X000955Y007588D03*
X000955Y007572D03*
X000955Y007538D03*
X000955Y007522D03*
X000955Y007488D03*
X000955Y007472D03*
X000955Y007438D03*
X000955Y007422D03*
X000955Y007388D03*
X000955Y007372D03*
X000955Y007338D03*
X000955Y007322D03*
X000955Y007288D03*
X000955Y007272D03*
X000955Y007238D03*
X000955Y007222D03*
X000955Y007188D03*
X000955Y007172D03*
X000955Y007138D03*
X000955Y007122D03*
X000955Y007088D03*
X000955Y007072D03*
X000955Y007038D03*
X000955Y007022D03*
X000955Y006988D03*
X000955Y006972D03*
X000955Y006938D03*
X000955Y006922D03*
X000955Y006888D03*
X000955Y006872D03*
X000955Y006838D03*
X000955Y006822D03*
X000955Y006788D03*
X000955Y006772D03*
X000955Y006738D03*
X000955Y006722D03*
X000955Y006688D03*
X000955Y006672D03*
X000955Y006638D03*
X000955Y006622D03*
X000955Y006588D03*
X000955Y006572D03*
X000955Y006538D03*
X000955Y006522D03*
X000955Y006488D03*
X000955Y006472D03*
X000955Y006438D03*
X000955Y006422D03*
X000955Y006388D03*
X000955Y006372D03*
X000955Y006338D03*
X000955Y006322D03*
X000955Y006288D03*
X000955Y006272D03*
X000955Y006238D03*
X000955Y006222D03*
X000955Y006188D03*
X000955Y006172D03*
X000955Y006138D03*
X000955Y006122D03*
X000955Y006088D03*
X000955Y006072D03*
X000955Y006038D03*
X000955Y006022D03*
X000955Y005988D03*
X000955Y005972D03*
X000955Y005938D03*
X000955Y005922D03*
X000955Y005888D03*
X000955Y005872D03*
X000955Y005838D03*
X000955Y005822D03*
X000955Y005788D03*
X000955Y005772D03*
X000955Y005738D03*
X000955Y005722D03*
X000955Y005688D03*
X000955Y005672D03*
X000955Y005638D03*
X000955Y005622D03*
X000955Y005588D03*
X000955Y005572D03*
X000955Y005538D03*
X000955Y005522D03*
X000955Y005488D03*
X000955Y005472D03*
X000955Y005438D03*
X000955Y005422D03*
X000955Y005388D03*
X000955Y005372D03*
X000955Y005338D03*
X000955Y005322D03*
X000955Y005288D03*
X000955Y005272D03*
X000955Y005238D03*
X000955Y005222D03*
X000955Y005188D03*
X000955Y005172D03*
X000955Y005138D03*
X000955Y005122D03*
X000955Y005088D03*
X000955Y005072D03*
X000955Y005038D03*
X000955Y005022D03*
X000955Y004988D03*
X000955Y004972D03*
X000955Y004938D03*
X000955Y004922D03*
X000955Y004888D03*
X000955Y004872D03*
X000955Y004838D03*
X000955Y004822D03*
X000955Y004788D03*
X000955Y004772D03*
X000955Y004738D03*
X000955Y004722D03*
X000955Y004688D03*
X000955Y004672D03*
X000955Y004638D03*
X000955Y004622D03*
X000955Y004588D03*
X000955Y004572D03*
X000955Y004538D03*
X000955Y004522D03*
X000955Y004488D03*
X000955Y004472D03*
X000955Y004438D03*
X000955Y004422D03*
X000955Y004388D03*
X000955Y004372D03*
X000955Y004338D03*
X000955Y004322D03*
X000955Y004288D03*
X000955Y004272D03*
X000955Y004238D03*
X000955Y004222D03*
X000955Y004188D03*
X000955Y004172D03*
X000955Y004138D03*
X000955Y004122D03*
X000955Y004088D03*
X000955Y004072D03*
X000955Y004038D03*
X000955Y004022D03*
X000955Y003988D03*
X000955Y003972D03*
X000955Y003938D03*
X000955Y003922D03*
X000955Y003888D03*
X000955Y003872D03*
X000955Y003838D03*
X000955Y003822D03*
X000955Y003788D03*
X000955Y003772D03*
X000955Y003738D03*
X000955Y003722D03*
X000955Y003688D03*
X000955Y003672D03*
X000955Y003638D03*
X000955Y003622D03*
X000955Y003588D03*
X000955Y003572D03*
X000955Y003538D03*
X000955Y003522D03*
X000955Y003488D03*
X000955Y003472D03*
X000955Y003438D03*
X000955Y003422D03*
X000955Y003388D03*
X000955Y003372D03*
X000955Y003338D03*
X000955Y003322D03*
X000955Y003288D03*
X000955Y003272D03*
X000955Y003238D03*
X000955Y003222D03*
X000955Y003188D03*
X000955Y003172D03*
X000955Y003138D03*
X000955Y003122D03*
X000955Y003088D03*
X000955Y003072D03*
X000955Y003038D03*
X000955Y003022D03*
X000955Y002988D03*
X000955Y002972D03*
X000955Y002938D03*
X000955Y002922D03*
X000955Y002888D03*
X000955Y002872D03*
X000955Y002838D03*
X000955Y002822D03*
X000955Y002788D03*
X000955Y002772D03*
X000955Y002738D03*
X000955Y002722D03*
X000955Y002688D03*
X000955Y002672D03*
X000955Y002638D03*
X000955Y002622D03*
X000955Y002588D03*
X000955Y002572D03*
X000955Y002538D03*
X000955Y002522D03*
X000955Y002488D03*
X000955Y002472D03*
X000955Y002438D03*
X000955Y002422D03*
X000955Y002388D03*
X000955Y002372D03*
X000955Y002338D03*
X000955Y002322D03*
X000955Y002288D03*
X000955Y002272D03*
X000955Y002238D03*
X000955Y002222D03*
X000955Y002188D03*
X000955Y002172D03*
X000955Y002138D03*
X000955Y002122D03*
X000955Y002088D03*
X000955Y002072D03*
X000955Y002038D03*
X000955Y002022D03*
X000955Y001988D03*
X000955Y001972D03*
X000955Y001938D03*
X000955Y001922D03*
X000955Y001888D03*
X000955Y001872D03*
X000955Y001838D03*
X000955Y001822D03*
X000955Y001788D03*
X001005Y001588D03*
X001005Y001572D03*
X001055Y001472D03*
D56*
X002464Y013672D03*
X013414Y007638D03*
X016214Y005622D03*
X014514Y003338D03*
X017064Y001472D03*
X018547Y003338D03*
D57*
X017072Y001488D03*
X011739Y005388D03*
X008839Y018122D03*
D58*
X008139Y016705D03*
X008122Y016655D03*
X008089Y016505D03*
X008089Y016455D03*
X003239Y017955D03*
X003222Y017905D03*
X003272Y018105D03*
X003272Y018155D03*
X003272Y018205D03*
X003239Y018355D03*
X003189Y018455D03*
X002039Y018305D03*
X002039Y018255D03*
X002022Y018205D03*
X002022Y018155D03*
X002022Y018105D03*
X002039Y018055D03*
X002039Y018005D03*
X002072Y017905D03*
X000972Y019055D03*
X000972Y019105D03*
X000989Y019155D03*
X001022Y019255D03*
X001072Y019355D03*
X013072Y014155D03*
X017572Y017905D03*
X017539Y018005D03*
X017539Y018055D03*
X017522Y018105D03*
X017522Y018155D03*
X017522Y018205D03*
X017539Y018255D03*
X017539Y018305D03*
X018689Y018455D03*
X018739Y018355D03*
X018772Y018205D03*
X018772Y018155D03*
X018772Y018105D03*
X018739Y017955D03*
X018722Y017905D03*
X019839Y017905D03*
X019839Y017855D03*
X019839Y017805D03*
X019839Y017755D03*
X019839Y017705D03*
X019839Y017655D03*
X019839Y017605D03*
X019839Y017555D03*
X019839Y017505D03*
X019839Y017455D03*
X019839Y017405D03*
X019839Y017355D03*
X019839Y017305D03*
X019839Y017255D03*
X019839Y017205D03*
X019839Y017155D03*
X019839Y017105D03*
X019839Y017055D03*
X019839Y017005D03*
X019839Y016955D03*
X019839Y016905D03*
X019839Y016855D03*
X019839Y016805D03*
X019839Y016755D03*
X019839Y016705D03*
X019839Y016655D03*
X019839Y016605D03*
X019839Y016555D03*
X019839Y016505D03*
X019839Y016455D03*
X019839Y016405D03*
X019839Y016355D03*
X019839Y016305D03*
X019839Y016255D03*
X019839Y016205D03*
X019839Y016155D03*
X019839Y016105D03*
X019839Y016055D03*
X019839Y016005D03*
X019839Y015955D03*
X019839Y015905D03*
X019839Y015855D03*
X019839Y015805D03*
X019839Y015755D03*
X019839Y015705D03*
X019839Y015655D03*
X019839Y015605D03*
X019839Y015555D03*
X019839Y015505D03*
X019839Y015455D03*
X019839Y015405D03*
X019839Y015355D03*
X019839Y015305D03*
X019839Y015255D03*
X019839Y015205D03*
X019839Y015155D03*
X019839Y015105D03*
X019839Y015055D03*
X019839Y015005D03*
X019839Y014955D03*
X019839Y014905D03*
X019839Y014855D03*
X019839Y014805D03*
X019839Y014755D03*
X019839Y014705D03*
X019839Y014655D03*
X019839Y014605D03*
X019839Y014555D03*
X019839Y014505D03*
X019839Y014455D03*
X019839Y014405D03*
X019839Y014355D03*
X019839Y014305D03*
X019839Y014255D03*
X019839Y014205D03*
X019839Y014155D03*
X019839Y014105D03*
X019839Y014055D03*
X019839Y014005D03*
X019839Y013955D03*
X019839Y013905D03*
X019839Y013855D03*
X019839Y013805D03*
X019839Y013755D03*
X019839Y013705D03*
X019839Y013655D03*
X019839Y013605D03*
X019839Y013555D03*
X019839Y013505D03*
X019839Y013455D03*
X019839Y013405D03*
X019839Y013355D03*
X019839Y013305D03*
X019839Y013255D03*
X019839Y013205D03*
X019839Y013155D03*
X019839Y013105D03*
X019839Y013055D03*
X019839Y013005D03*
X019839Y012955D03*
X019839Y012905D03*
X019839Y012855D03*
X019839Y012805D03*
X019839Y012755D03*
X019839Y012705D03*
X019839Y012655D03*
X019839Y012605D03*
X019839Y012555D03*
X019839Y012505D03*
X019839Y012455D03*
X019839Y012405D03*
X019839Y012355D03*
X019839Y012305D03*
X019839Y012255D03*
X019839Y012205D03*
X019839Y012155D03*
X019839Y012105D03*
X019839Y012055D03*
X019839Y012005D03*
X019839Y011955D03*
X019839Y011905D03*
X019839Y011855D03*
X019839Y011805D03*
X019839Y011755D03*
X019839Y011705D03*
X019839Y011655D03*
X019839Y011605D03*
X019839Y011555D03*
X019839Y011505D03*
X019839Y011455D03*
X019839Y011405D03*
X019839Y011355D03*
X019839Y011305D03*
X019839Y011255D03*
X019839Y011205D03*
X019839Y011155D03*
X019839Y011105D03*
X019839Y011055D03*
X019839Y011005D03*
X019839Y010955D03*
X019839Y010905D03*
X019839Y010855D03*
X019839Y010805D03*
X019839Y010755D03*
X019839Y010705D03*
X019839Y010655D03*
X019839Y010605D03*
X019839Y010555D03*
X019839Y010505D03*
X019839Y010455D03*
X019839Y010405D03*
X019839Y010355D03*
X019839Y010305D03*
X019839Y010255D03*
X019839Y010205D03*
X019839Y010155D03*
X019839Y010105D03*
X019839Y010055D03*
X019839Y010005D03*
X019839Y009955D03*
X019839Y009905D03*
X019839Y009855D03*
X019839Y009805D03*
X019839Y009755D03*
X019839Y009705D03*
X019839Y009655D03*
X019839Y009605D03*
X019839Y009555D03*
X019839Y009505D03*
X019839Y009455D03*
X019839Y009405D03*
X019839Y009355D03*
X019839Y009305D03*
X019839Y009255D03*
X019839Y009205D03*
X019839Y009155D03*
X019839Y009105D03*
X019839Y009055D03*
X019839Y009005D03*
X019839Y008955D03*
X019839Y008905D03*
X019839Y008855D03*
X019839Y008805D03*
X019839Y008755D03*
X019839Y008705D03*
X019839Y008655D03*
X019839Y008605D03*
X019839Y008555D03*
X019839Y008505D03*
X019839Y008455D03*
X019839Y008405D03*
X019839Y008355D03*
X019839Y008305D03*
X019839Y008255D03*
X019839Y008205D03*
X019839Y008155D03*
X019839Y008105D03*
X019839Y008055D03*
X019839Y008005D03*
X019839Y007955D03*
X019839Y007905D03*
X019839Y007855D03*
X019839Y007805D03*
X019839Y007755D03*
X019839Y007705D03*
X019839Y007655D03*
X019839Y007605D03*
X019839Y007555D03*
X019839Y007505D03*
X019839Y007455D03*
X019839Y007405D03*
X019839Y007355D03*
X019839Y007305D03*
X019839Y007255D03*
X019839Y007205D03*
X019839Y007155D03*
X019839Y007105D03*
X019839Y007055D03*
X019839Y007005D03*
X019839Y006955D03*
X019839Y006905D03*
X019839Y006855D03*
X019839Y006805D03*
X019839Y006755D03*
X019839Y006705D03*
X019839Y006655D03*
X019839Y006605D03*
X019839Y006555D03*
X019839Y006505D03*
X019839Y006455D03*
X019839Y006405D03*
X019839Y006355D03*
X019839Y006305D03*
X019839Y006255D03*
X019839Y006205D03*
X019839Y006155D03*
X019839Y006105D03*
X019839Y006055D03*
X019839Y006005D03*
X019839Y005955D03*
X019839Y005905D03*
X019839Y005855D03*
X019839Y005805D03*
X019839Y005755D03*
X019839Y005705D03*
X019839Y005655D03*
X019839Y005605D03*
X019839Y005555D03*
X019839Y005505D03*
X019839Y005455D03*
X019839Y005405D03*
X019839Y005355D03*
X019839Y005305D03*
X019839Y005255D03*
X019839Y005205D03*
X019839Y005155D03*
X019839Y005105D03*
X019839Y005055D03*
X019839Y005005D03*
X019839Y004955D03*
X019839Y004905D03*
X019839Y004855D03*
X019839Y004805D03*
X019839Y004755D03*
X019839Y004705D03*
X019839Y004655D03*
X019839Y004605D03*
X019839Y004555D03*
X019839Y004505D03*
X019839Y004455D03*
X019839Y004405D03*
X019839Y004355D03*
X019839Y004305D03*
X019839Y004255D03*
X019839Y004205D03*
X019839Y004155D03*
X019839Y004105D03*
X019839Y004055D03*
X019839Y004005D03*
X019839Y003955D03*
X019839Y003905D03*
X019839Y003855D03*
X019839Y003805D03*
X019839Y003755D03*
X019839Y003705D03*
X019839Y003655D03*
X019839Y003605D03*
X019839Y003555D03*
X019839Y003505D03*
X019839Y003455D03*
X019839Y003405D03*
X019839Y003355D03*
X019839Y003305D03*
X019839Y003255D03*
X019839Y003205D03*
X019839Y003155D03*
X019839Y003105D03*
X019839Y003055D03*
X019839Y003005D03*
X019839Y002955D03*
X019839Y002905D03*
X019839Y002855D03*
X019839Y002805D03*
X019839Y002755D03*
X019839Y002705D03*
X019839Y002655D03*
X019839Y002605D03*
X019839Y002555D03*
X019839Y002505D03*
X019839Y002455D03*
X019839Y002405D03*
X019839Y002355D03*
X019839Y002305D03*
X019839Y002255D03*
X019839Y002205D03*
X019839Y002155D03*
X019839Y002105D03*
X019839Y002055D03*
X019839Y002005D03*
X019839Y001955D03*
X019839Y001905D03*
X019839Y001855D03*
X019839Y001805D03*
X019822Y001705D03*
X019789Y001605D03*
X019772Y001555D03*
X019839Y017955D03*
X019839Y018005D03*
X019839Y018055D03*
X019839Y018105D03*
X019839Y018155D03*
X019839Y018205D03*
X019839Y018255D03*
X019839Y018305D03*
X019839Y018355D03*
X019839Y018405D03*
X019839Y018455D03*
X019839Y018505D03*
X019839Y018555D03*
X019839Y018605D03*
X019839Y018655D03*
X019839Y018705D03*
X019839Y018755D03*
X019839Y018805D03*
X019839Y018855D03*
X019839Y018905D03*
X019839Y018955D03*
X019839Y019005D03*
X019822Y019055D03*
X019822Y019105D03*
X019789Y019205D03*
X019772Y019255D03*
X019722Y019355D03*
X000972Y001705D03*
X000989Y001655D03*
X001022Y001555D03*
X001039Y001505D03*
D59*
X006222Y009455D03*
X005472Y013555D03*
X017072Y001505D03*
D60*
X019755Y001505D03*
X019805Y001655D03*
X018755Y018005D03*
X018755Y018055D03*
X018755Y018255D03*
X018755Y018305D03*
X019805Y019155D03*
X017605Y018455D03*
X017555Y018355D03*
X017555Y017955D03*
X003255Y018005D03*
X003255Y018055D03*
X003255Y018255D03*
X003255Y018305D03*
X002105Y018455D03*
X002055Y018355D03*
X002055Y017955D03*
X000955Y017955D03*
X000955Y017905D03*
X000955Y017855D03*
X000955Y017805D03*
X000955Y017755D03*
X000955Y017705D03*
X000955Y017655D03*
X000955Y017605D03*
X000955Y017555D03*
X000955Y017505D03*
X000955Y017455D03*
X000955Y017405D03*
X000955Y017355D03*
X000955Y017305D03*
X000955Y017255D03*
X000955Y017205D03*
X000955Y017155D03*
X000955Y017105D03*
X000955Y017055D03*
X000955Y017005D03*
X000955Y016955D03*
X000955Y016905D03*
X000955Y016855D03*
X000955Y016805D03*
X000955Y016755D03*
X000955Y016705D03*
X000955Y016655D03*
X000955Y016605D03*
X000955Y016555D03*
X000955Y016505D03*
X000955Y016455D03*
X000955Y016405D03*
X000955Y016355D03*
X000955Y016305D03*
X000955Y016255D03*
X000955Y016205D03*
X000955Y016155D03*
X000955Y016105D03*
X000955Y016055D03*
X000955Y016005D03*
X000955Y015955D03*
X000955Y015905D03*
X000955Y015855D03*
X000955Y015805D03*
X000955Y015755D03*
X000955Y015705D03*
X000955Y015655D03*
X000955Y015605D03*
X000955Y015555D03*
X000955Y015505D03*
X000955Y015455D03*
X000955Y015405D03*
X000955Y015355D03*
X000955Y015305D03*
X000955Y015255D03*
X000955Y015205D03*
X000955Y015155D03*
X000955Y015105D03*
X000955Y015055D03*
X000955Y015005D03*
X000955Y014955D03*
X000955Y014905D03*
X000955Y014855D03*
X000955Y014805D03*
X000955Y014755D03*
X000955Y014705D03*
X000955Y014655D03*
X000955Y014605D03*
X000955Y014555D03*
X000955Y014505D03*
X000955Y014455D03*
X000955Y014405D03*
X000955Y014355D03*
X000955Y014305D03*
X000955Y014255D03*
X000955Y014205D03*
X000955Y014155D03*
X000955Y014105D03*
X000955Y014055D03*
X000955Y014005D03*
X000955Y013955D03*
X000955Y013905D03*
X000955Y013855D03*
X000955Y013805D03*
X000955Y013755D03*
X000955Y013705D03*
X000955Y013655D03*
X000955Y013605D03*
X000955Y013555D03*
X000955Y013505D03*
X000955Y013455D03*
X000955Y013405D03*
X000955Y013355D03*
X000955Y013305D03*
X000955Y013255D03*
X000955Y013205D03*
X000955Y013155D03*
X000955Y013105D03*
X000955Y013055D03*
X000955Y013005D03*
X000955Y012955D03*
X000955Y012905D03*
X000955Y012855D03*
X000955Y012805D03*
X000955Y012755D03*
X000955Y012705D03*
X000955Y012655D03*
X000955Y012605D03*
X000955Y012555D03*
X000955Y012505D03*
X000955Y012455D03*
X000955Y012405D03*
X000955Y012355D03*
X000955Y012305D03*
X000955Y012255D03*
X000955Y012205D03*
X000955Y012155D03*
X000955Y012105D03*
X000955Y012055D03*
X000955Y012005D03*
X000955Y011955D03*
X000955Y011905D03*
X000955Y011855D03*
X000955Y011805D03*
X000955Y011755D03*
X000955Y011705D03*
X000955Y011655D03*
X000955Y011605D03*
X000955Y011555D03*
X000955Y011505D03*
X000955Y011455D03*
X000955Y011405D03*
X000955Y011355D03*
X000955Y011305D03*
X000955Y011255D03*
X000955Y011205D03*
X000955Y011155D03*
X000955Y011105D03*
X000955Y011055D03*
X000955Y011005D03*
X000955Y010955D03*
X000955Y010905D03*
X000955Y010855D03*
X000955Y010805D03*
X000955Y010755D03*
X000955Y010705D03*
X000955Y010655D03*
X000955Y010605D03*
X000955Y010555D03*
X000955Y010505D03*
X000955Y010455D03*
X000955Y010405D03*
X000955Y010355D03*
X000955Y010305D03*
X000955Y010255D03*
X000955Y010205D03*
X000955Y010155D03*
X000955Y010105D03*
X000955Y010055D03*
X000955Y010005D03*
X000955Y009955D03*
X000955Y009905D03*
X000955Y009855D03*
X000955Y009805D03*
X000955Y009755D03*
X000955Y009705D03*
X000955Y009655D03*
X000955Y009605D03*
X000955Y009555D03*
X000955Y009505D03*
X000955Y009455D03*
X000955Y009405D03*
X000955Y009355D03*
X000955Y009305D03*
X000955Y009255D03*
X000955Y009205D03*
X000955Y009155D03*
X000955Y009105D03*
X000955Y009055D03*
X000955Y009005D03*
X000955Y008955D03*
X000955Y008905D03*
X000955Y008855D03*
X000955Y008805D03*
X000955Y008755D03*
X000955Y008705D03*
X000955Y008655D03*
X000955Y008605D03*
X000955Y008555D03*
X000955Y008505D03*
X000955Y008455D03*
X000955Y008405D03*
X000955Y008355D03*
X000955Y008305D03*
X000955Y008255D03*
X000955Y008205D03*
X000955Y008155D03*
X000955Y008105D03*
X000955Y008055D03*
X000955Y008005D03*
X000955Y007955D03*
X000955Y007905D03*
X000955Y007855D03*
X000955Y007805D03*
X000955Y007755D03*
X000955Y007705D03*
X000955Y007655D03*
X000955Y007605D03*
X000955Y007555D03*
X000955Y007505D03*
X000955Y007455D03*
X000955Y007405D03*
X000955Y007355D03*
X000955Y007305D03*
X000955Y007255D03*
X000955Y007205D03*
X000955Y007155D03*
X000955Y007105D03*
X000955Y007055D03*
X000955Y007005D03*
X000955Y006955D03*
X000955Y006905D03*
X000955Y006855D03*
X000955Y006805D03*
X000955Y006755D03*
X000955Y006705D03*
X000955Y006655D03*
X000955Y006605D03*
X000955Y006555D03*
X000955Y006505D03*
X000955Y006455D03*
X000955Y006405D03*
X000955Y006355D03*
X000955Y006305D03*
X000955Y006255D03*
X000955Y006205D03*
X000955Y006155D03*
X000955Y006105D03*
X000955Y006055D03*
X000955Y006005D03*
X000955Y005955D03*
X000955Y005905D03*
X000955Y005855D03*
X000955Y005805D03*
X000955Y005755D03*
X000955Y005705D03*
X000955Y005655D03*
X000955Y005605D03*
X000955Y005555D03*
X000955Y005505D03*
X000955Y005455D03*
X000955Y005405D03*
X000955Y005355D03*
X000955Y005305D03*
X000955Y005255D03*
X000955Y005205D03*
X000955Y005155D03*
X000955Y005105D03*
X000955Y005055D03*
X000955Y005005D03*
X000955Y004955D03*
X000955Y004905D03*
X000955Y004855D03*
X000955Y004805D03*
X000955Y004755D03*
X000955Y004705D03*
X000955Y004655D03*
X000955Y004605D03*
X000955Y004555D03*
X000955Y004505D03*
X000955Y004455D03*
X000955Y004405D03*
X000955Y004355D03*
X000955Y004305D03*
X000955Y004255D03*
X000955Y004205D03*
X000955Y004155D03*
X000955Y004105D03*
X000955Y004055D03*
X000955Y004005D03*
X000955Y003955D03*
X000955Y003905D03*
X000955Y003855D03*
X000955Y003805D03*
X000955Y003755D03*
X000955Y003705D03*
X000955Y003655D03*
X000955Y003605D03*
X000955Y003555D03*
X000955Y003505D03*
X000955Y003455D03*
X000955Y003405D03*
X000955Y003355D03*
X000955Y003305D03*
X000955Y003255D03*
X000955Y003205D03*
X000955Y003155D03*
X000955Y003105D03*
X000955Y003055D03*
X000955Y003005D03*
X000955Y002955D03*
X000955Y002905D03*
X000955Y002855D03*
X000955Y002805D03*
X000955Y002755D03*
X000955Y002705D03*
X000955Y002655D03*
X000955Y002605D03*
X000955Y002555D03*
X000955Y002505D03*
X000955Y002455D03*
X000955Y002405D03*
X000955Y002355D03*
X000955Y002305D03*
X000955Y002255D03*
X000955Y002205D03*
X000955Y002155D03*
X000955Y002105D03*
X000955Y002055D03*
X000955Y002005D03*
X000955Y001955D03*
X000955Y001905D03*
X000955Y001855D03*
X000955Y001805D03*
X001005Y001605D03*
X000955Y018005D03*
X000955Y018055D03*
X000955Y018105D03*
X000955Y018155D03*
X000955Y018205D03*
X000955Y018255D03*
X000955Y018305D03*
X000955Y018355D03*
X000955Y018405D03*
X000955Y018455D03*
X000955Y018505D03*
X000955Y018555D03*
X000955Y018605D03*
X000955Y018655D03*
X000955Y018705D03*
X000955Y018755D03*
X000955Y018805D03*
X000955Y018855D03*
X000955Y018905D03*
X000955Y018955D03*
X000955Y019005D03*
X001005Y019205D03*
D61*
X005530Y013438D03*
X017080Y001522D03*
D62*
X017089Y001538D03*
X006222Y009488D03*
D63*
X010680Y013805D03*
X010630Y016755D03*
X017080Y001555D03*
D64*
X017089Y001572D03*
X018339Y003072D03*
X011739Y005488D03*
X005589Y013288D03*
X005222Y018022D03*
D65*
X005322Y018072D03*
X005605Y013222D03*
X007238Y011938D03*
X010422Y014022D03*
X012438Y015138D03*
X017088Y001588D03*
D66*
X017089Y001605D03*
X010389Y014055D03*
D67*
X010364Y014088D03*
X012397Y015072D03*
X007097Y018788D03*
X004897Y017738D03*
X005614Y013172D03*
X002947Y012488D03*
X008964Y007572D03*
X013414Y007472D03*
X017097Y001622D03*
D68*
X017089Y001638D03*
X017039Y004838D03*
X010339Y014122D03*
X004889Y010572D03*
X003939Y016772D03*
D69*
X010314Y014155D03*
X017097Y001655D03*
D70*
X019813Y001672D03*
X019830Y001772D03*
X013063Y014122D03*
X013063Y014138D03*
X017530Y018072D03*
X017530Y018238D03*
X018147Y017472D03*
X018763Y018072D03*
X018763Y018238D03*
X019830Y019022D03*
X019830Y019038D03*
X019813Y019122D03*
X008130Y016688D03*
X008130Y016672D03*
X008113Y016638D03*
X008113Y016622D03*
X008097Y016588D03*
X008097Y016572D03*
X008097Y016538D03*
X008097Y016522D03*
X003263Y018072D03*
X003263Y018238D03*
X002647Y017472D03*
X002030Y018072D03*
X002030Y018238D03*
X000963Y019022D03*
X000963Y019038D03*
X000980Y019122D03*
X000963Y001772D03*
X000980Y001672D03*
D71*
X008964Y007622D03*
X011464Y008838D03*
X013414Y007422D03*
X017097Y001672D03*
X004797Y010672D03*
X012347Y014988D03*
D72*
X008947Y015988D03*
X004864Y017622D03*
X002847Y014338D03*
X004764Y010722D03*
X014514Y003588D03*
X017097Y001688D03*
D73*
X017097Y001705D03*
D74*
X017097Y001722D03*
X011730Y005638D03*
X008963Y007672D03*
X010647Y009372D03*
X008547Y010888D03*
X007230Y011822D03*
X004730Y010772D03*
D75*
X016214Y005338D03*
X017097Y001738D03*
D76*
X019830Y001755D03*
X008097Y016555D03*
X008113Y016605D03*
X000963Y001755D03*
D77*
X008613Y010805D03*
X017097Y001755D03*
D78*
X017088Y001772D03*
X017722Y002422D03*
X017738Y002438D03*
X008638Y010772D03*
X007238Y011772D03*
X005838Y015788D03*
X007088Y018738D03*
X012205Y014788D03*
D79*
X005797Y015838D03*
X016213Y005288D03*
X017663Y002372D03*
X017630Y002338D03*
X017097Y001788D03*
D80*
X017097Y001805D03*
X017597Y002305D03*
X004814Y017455D03*
D81*
X005689Y015938D03*
X012122Y014688D03*
X017089Y001822D03*
D82*
X017089Y001838D03*
X005639Y015988D03*
X009422Y017338D03*
D83*
X003197Y012655D03*
X017097Y001855D03*
D84*
X017089Y001872D03*
X011422Y013588D03*
X004789Y017338D03*
X003222Y012672D03*
D85*
X008522Y015872D03*
X008955Y007838D03*
X014505Y003772D03*
X017088Y001888D03*
D86*
X017080Y001905D03*
X007230Y011655D03*
X004780Y017305D03*
D87*
X007230Y011638D03*
X011730Y005838D03*
X017080Y001922D03*
D88*
X017080Y001938D03*
D89*
X017072Y001955D03*
X013422Y007155D03*
D90*
X010655Y009138D03*
X017072Y001972D03*
X009538Y017138D03*
D91*
X007222Y011588D03*
X003322Y012738D03*
X017072Y001988D03*
D92*
X017064Y002005D03*
X010647Y009105D03*
X006214Y009955D03*
X003347Y012755D03*
X004747Y017155D03*
D93*
X014514Y003888D03*
X017064Y002022D03*
D94*
X017063Y002038D03*
X016213Y005072D03*
X013413Y007088D03*
X006213Y009972D03*
X003380Y012772D03*
X007080Y018638D03*
X009597Y017038D03*
D95*
X009622Y017005D03*
X011738Y005955D03*
X017055Y002055D03*
D96*
X017055Y002072D03*
D97*
X017047Y002088D03*
X016214Y005022D03*
X013414Y007038D03*
X006214Y010022D03*
D98*
X017047Y002105D03*
D99*
X017047Y002122D03*
X013413Y007022D03*
X004713Y016972D03*
D100*
X003472Y012838D03*
X017038Y002138D03*
D101*
X017039Y002155D03*
X007222Y011455D03*
D102*
X007222Y011438D03*
X007289Y015138D03*
X007239Y015172D03*
X017039Y002172D03*
D103*
X017030Y002188D03*
X011730Y006072D03*
X003530Y012872D03*
D104*
X017030Y002205D03*
D105*
X015813Y002222D03*
X015647Y002338D03*
X015580Y002388D03*
X015513Y002438D03*
X015463Y002472D03*
X015447Y002488D03*
X015397Y002522D03*
X015380Y002538D03*
X015330Y002572D03*
X015263Y002622D03*
X015197Y002672D03*
X015163Y002688D03*
X015130Y002722D03*
X015097Y002738D03*
X015047Y002772D03*
X015030Y002788D03*
X014980Y002822D03*
X014963Y002838D03*
X014913Y002872D03*
X014897Y002888D03*
X014847Y002922D03*
X014830Y002938D03*
X014780Y002972D03*
X014713Y003022D03*
X014647Y003072D03*
X014613Y003088D03*
X014547Y003138D03*
X013797Y006722D03*
X007230Y012238D03*
X007163Y012288D03*
X007097Y012338D03*
X007030Y012388D03*
X006913Y012472D03*
X006847Y012522D03*
X006830Y012538D03*
X006780Y012572D03*
X006763Y012588D03*
X006713Y012622D03*
X006697Y012638D03*
X006647Y012672D03*
X006630Y012688D03*
X006580Y012722D03*
X006563Y012738D03*
X006497Y012788D03*
X005613Y011138D03*
X005397Y010988D03*
X003147Y011538D03*
X003113Y011572D03*
X003097Y011588D03*
X006080Y014788D03*
X006130Y014822D03*
X006147Y014838D03*
X009530Y014338D03*
X009547Y014322D03*
X009597Y014288D03*
X010863Y014322D03*
X010880Y014338D03*
D106*
X009397Y017372D03*
X005714Y015922D03*
X004814Y017438D03*
X008964Y007772D03*
X017497Y002222D03*
X017514Y002238D03*
D107*
X018689Y003872D03*
X018672Y003888D03*
X015789Y002238D03*
X015739Y002272D03*
X015722Y002288D03*
X015672Y002322D03*
X015539Y002422D03*
X015239Y002638D03*
X014522Y003172D03*
X011289Y006272D03*
X008539Y008272D03*
X006222Y009238D03*
X005372Y010972D03*
X006522Y012772D03*
X006439Y012838D03*
X006389Y012872D03*
X006372Y012888D03*
X006189Y014872D03*
X006289Y014938D03*
X006339Y014972D03*
X004089Y016522D03*
X002322Y014488D03*
X003172Y011522D03*
X003222Y011472D03*
X009472Y014372D03*
D108*
X009497Y014355D03*
X007213Y012255D03*
X007147Y012305D03*
X006613Y012705D03*
X006547Y012755D03*
X006480Y012805D03*
X006097Y014805D03*
X006163Y014855D03*
X006313Y014955D03*
X003080Y011605D03*
X003130Y011555D03*
X012613Y015555D03*
X014147Y004305D03*
X014530Y003155D03*
X014597Y003105D03*
X014663Y003055D03*
X014730Y003005D03*
X014797Y002955D03*
X014947Y002855D03*
X015013Y002805D03*
X015080Y002755D03*
X015147Y002705D03*
X015213Y002655D03*
X015280Y002605D03*
X015347Y002555D03*
X015630Y002355D03*
X015697Y002305D03*
X015763Y002255D03*
X018763Y003655D03*
D109*
X017538Y002255D03*
X005722Y015905D03*
D110*
X007088Y018722D03*
X009388Y017388D03*
X012155Y014722D03*
X011438Y013522D03*
X006222Y009772D03*
X017555Y002272D03*
X017572Y002288D03*
D111*
X017605Y002322D03*
X005755Y015872D03*
D112*
X007230Y011755D03*
X006213Y009755D03*
X011430Y013505D03*
X012180Y014755D03*
X013413Y007305D03*
X017647Y002355D03*
D113*
X015605Y002372D03*
X015305Y002588D03*
X006455Y012822D03*
X006205Y014888D03*
X006255Y014922D03*
X009405Y014422D03*
X009455Y014388D03*
X003205Y011488D03*
D114*
X011430Y013488D03*
X017680Y002388D03*
D115*
X015555Y002405D03*
X005355Y010955D03*
X002605Y012255D03*
X009355Y014455D03*
X010855Y014305D03*
X011405Y013105D03*
D116*
X008647Y010755D03*
X003114Y012605D03*
X002964Y014305D03*
X017697Y002405D03*
D117*
X015489Y002455D03*
X015422Y002505D03*
X011739Y005205D03*
X006422Y012855D03*
X006239Y014905D03*
X009422Y014405D03*
X010339Y016605D03*
X003189Y011505D03*
D118*
X012214Y014805D03*
X014514Y003655D03*
X017747Y002455D03*
D119*
X017772Y002472D03*
X017789Y002488D03*
X011439Y013472D03*
X012222Y014822D03*
X009339Y017472D03*
X005839Y018238D03*
X003089Y012588D03*
X006222Y009722D03*
D120*
X008955Y007705D03*
X017805Y002505D03*
D121*
X017822Y002522D03*
X017839Y002538D03*
X011739Y005672D03*
X012239Y014838D03*
X009339Y017488D03*
X004839Y017538D03*
D122*
X009322Y017505D03*
X007238Y011805D03*
X010655Y009355D03*
X011738Y005655D03*
X017855Y002555D03*
D123*
X017872Y002572D03*
X008955Y007688D03*
X008588Y010838D03*
X009022Y016088D03*
X003072Y012572D03*
X002905Y014322D03*
D124*
X017880Y002588D03*
D125*
X017905Y002605D03*
D126*
X017922Y002622D03*
X013422Y007372D03*
X008572Y010872D03*
X006222Y009688D03*
X011439Y013438D03*
X012272Y014888D03*
D127*
X011439Y013422D03*
X008989Y016038D03*
X006222Y009672D03*
X017939Y002638D03*
D128*
X017955Y002655D03*
X004855Y017605D03*
D129*
X008964Y016022D03*
X012297Y014922D03*
X013414Y007388D03*
X016214Y005372D03*
X013697Y004188D03*
X017964Y002672D03*
X004747Y010738D03*
D130*
X005605Y013072D03*
X007238Y011838D03*
X008505Y010938D03*
X008522Y010922D03*
X010655Y009388D03*
X011738Y005622D03*
X017988Y002688D03*
X012305Y014938D03*
X009288Y017572D03*
D131*
X008497Y010955D03*
X006214Y009655D03*
X013414Y007405D03*
X017997Y002705D03*
D132*
X018022Y002722D03*
X014339Y006738D03*
X008472Y010972D03*
X008239Y011138D03*
X003022Y012538D03*
X004872Y017638D03*
X009272Y017588D03*
D133*
X008930Y015972D03*
X005613Y013088D03*
X008280Y011122D03*
X011363Y008888D03*
X008963Y007638D03*
X014163Y006872D03*
X014280Y006788D03*
X014297Y006772D03*
X014513Y003572D03*
X018030Y002738D03*
X012330Y014972D03*
D134*
X009263Y017605D03*
X007230Y011855D03*
X008447Y011005D03*
X011563Y008755D03*
X014197Y006855D03*
X014263Y006805D03*
X018047Y002755D03*
D135*
X018072Y002772D03*
X014239Y006822D03*
X014222Y006838D03*
X011539Y008772D03*
X011522Y008788D03*
X008422Y011022D03*
X008339Y011088D03*
X006222Y009638D03*
X004789Y010688D03*
X011439Y013388D03*
X007089Y018772D03*
D136*
X005630Y018188D03*
X004880Y017672D03*
X011480Y008822D03*
X018080Y002788D03*
D137*
X018105Y002805D03*
X012355Y015005D03*
D138*
X012364Y015022D03*
X009247Y017638D03*
X005614Y013122D03*
X006214Y009622D03*
X010897Y006188D03*
X013414Y007438D03*
X016214Y005422D03*
X016947Y004888D03*
X018114Y002822D03*
D139*
X018122Y002838D03*
X011739Y005572D03*
X008189Y008172D03*
X004839Y010622D03*
X004889Y017688D03*
X005572Y018172D03*
D140*
X002780Y014355D03*
X005130Y010405D03*
X006213Y009605D03*
X008130Y008205D03*
X017013Y004855D03*
X017147Y004755D03*
X018147Y002855D03*
D141*
X018155Y002872D03*
X017105Y004788D03*
D142*
X018180Y002888D03*
X005080Y010422D03*
X004930Y010538D03*
D143*
X007238Y011905D03*
X010355Y014105D03*
X009205Y017705D03*
X018188Y002905D03*
D144*
X018205Y002922D03*
X011438Y013338D03*
X006222Y009588D03*
X005055Y010438D03*
X005005Y010472D03*
X004988Y010488D03*
X004938Y010522D03*
X005488Y018138D03*
D145*
X005439Y018122D03*
X010372Y014072D03*
X007239Y011922D03*
X011739Y005538D03*
X018222Y002938D03*
D146*
X018230Y002955D03*
X012413Y015105D03*
X004913Y017755D03*
X003880Y016755D03*
D147*
X005613Y013188D03*
X006213Y009572D03*
X011430Y013322D03*
X009197Y017722D03*
X013413Y007488D03*
X018247Y002972D03*
D148*
X014755Y002988D03*
X007055Y012372D03*
X006955Y012438D03*
X003055Y011622D03*
X003005Y011672D03*
X002955Y011722D03*
D149*
X002914Y012472D03*
X004914Y017772D03*
X005364Y018088D03*
X008514Y018222D03*
X014514Y003488D03*
X018264Y002988D03*
D150*
X018272Y003005D03*
X011738Y005505D03*
X011438Y013305D03*
X003688Y016555D03*
D151*
X003697Y016572D03*
X003714Y016588D03*
X003747Y016638D03*
X003797Y016688D03*
X004914Y017788D03*
X009164Y017772D03*
X005597Y013238D03*
X008964Y007538D03*
X014514Y003472D03*
X016214Y005488D03*
X018297Y003022D03*
D152*
X018772Y003672D03*
X018722Y003838D03*
X014689Y003038D03*
X014572Y003122D03*
X013039Y004238D03*
X012989Y004272D03*
X012922Y004322D03*
X011739Y005188D03*
X011289Y006288D03*
X008539Y008288D03*
X007189Y012272D03*
X007122Y012322D03*
X006989Y012422D03*
X006889Y012488D03*
X006039Y014738D03*
X006072Y014772D03*
X002989Y011688D03*
X003039Y011638D03*
X009622Y014272D03*
X009672Y014238D03*
X009689Y014222D03*
X009739Y014188D03*
X010339Y016588D03*
D153*
X009155Y017788D03*
X005255Y018038D03*
X010455Y013988D03*
X018305Y003038D03*
D154*
X018313Y003055D03*
X016213Y005505D03*
X014513Y003455D03*
X005597Y013255D03*
X002897Y012455D03*
X012447Y015155D03*
D155*
X010714Y013788D03*
X010497Y013938D03*
X010697Y016688D03*
X006214Y009522D03*
X018347Y003088D03*
D156*
X018364Y003105D03*
X010597Y013855D03*
X005097Y017955D03*
D157*
X005130Y017972D03*
X009130Y017838D03*
X010580Y013872D03*
X011430Y013272D03*
X005580Y013322D03*
X018380Y003122D03*
D158*
X018389Y003138D03*
X010622Y013838D03*
X010589Y016788D03*
X010472Y016872D03*
X007239Y011988D03*
X005572Y013338D03*
X005039Y017922D03*
X005072Y017938D03*
D159*
X010655Y009555D03*
X018405Y003155D03*
D160*
X018414Y003172D03*
X013414Y007572D03*
X008964Y007472D03*
X002847Y012422D03*
X012497Y015238D03*
D161*
X012147Y014522D03*
X010364Y016638D03*
X005397Y016772D03*
X003897Y013772D03*
X003947Y010922D03*
X003997Y010888D03*
X004064Y010838D03*
X007797Y010438D03*
X007847Y010472D03*
X007864Y010488D03*
X007914Y010522D03*
X011747Y005222D03*
X014514Y003188D03*
X018747Y003622D03*
D162*
X018438Y003188D03*
X011738Y005438D03*
X010655Y009572D03*
X005538Y013422D03*
X005355Y013722D03*
X009105Y017888D03*
D163*
X008972Y014705D03*
X014522Y003205D03*
D164*
X018447Y003205D03*
X012497Y015255D03*
X002614Y014405D03*
D165*
X018455Y003222D03*
D166*
X018063Y004388D03*
X017947Y004472D03*
X017647Y004688D03*
X016213Y005722D03*
X016147Y005772D03*
X015847Y005988D03*
X015730Y006072D03*
X015430Y006288D03*
X015247Y006422D03*
X014947Y006638D03*
X014830Y006722D03*
X013413Y007738D03*
X013213Y007888D03*
X013030Y008022D03*
X012797Y008188D03*
X012730Y008238D03*
X012613Y008322D03*
X012313Y008538D03*
X012197Y008622D03*
X010647Y009738D03*
X010513Y009838D03*
X010397Y009922D03*
X010097Y010138D03*
X009980Y010222D03*
X009680Y010438D03*
X009497Y010572D03*
X009263Y010738D03*
X012597Y015472D03*
X011747Y005272D03*
X014130Y004222D03*
X014513Y003238D03*
D167*
X018472Y003238D03*
X005489Y013538D03*
X005472Y013572D03*
X005439Y013622D03*
X005422Y013638D03*
D168*
X014522Y003255D03*
D169*
X018480Y003255D03*
D170*
X014513Y003272D03*
X008963Y007338D03*
X008513Y014972D03*
D171*
X002797Y012388D03*
X002497Y013722D03*
X008964Y007422D03*
X013414Y007622D03*
X018497Y003272D03*
X018514Y003288D03*
D172*
X018614Y003438D03*
X016214Y005672D03*
X014514Y003288D03*
X013414Y007688D03*
X002414Y013322D03*
X002414Y013338D03*
X002414Y013372D03*
X002414Y013388D03*
X002414Y013422D03*
X002414Y013438D03*
X002414Y013472D03*
D173*
X002422Y013555D03*
X002472Y013155D03*
X007239Y012105D03*
X014522Y003305D03*
D174*
X014522Y003355D03*
X018522Y003305D03*
X007239Y012055D03*
D175*
X011414Y013188D03*
X009014Y018022D03*
X002514Y013088D03*
X002447Y013638D03*
X008964Y007388D03*
X014514Y003322D03*
X016214Y005638D03*
D176*
X018539Y003322D03*
X011739Y005372D03*
X007239Y012072D03*
X002772Y012372D03*
X002472Y013688D03*
X009039Y017988D03*
X012539Y015338D03*
D177*
X012547Y015355D03*
X013414Y007655D03*
X018564Y003355D03*
X002497Y013105D03*
D178*
X002514Y013738D03*
X009064Y017938D03*
X012514Y015288D03*
X008964Y007438D03*
X014514Y003372D03*
X016214Y005588D03*
D179*
X018572Y003372D03*
X007239Y012088D03*
X006222Y009388D03*
X002489Y013122D03*
X002439Y013622D03*
X008372Y015038D03*
D180*
X008213Y015088D03*
X005497Y013522D03*
X005513Y013488D03*
X005397Y013672D03*
X009080Y017922D03*
X012513Y015272D03*
X010647Y009588D03*
X016213Y005572D03*
X014513Y003388D03*
D181*
X018580Y003388D03*
X008963Y018072D03*
X002430Y013588D03*
X002480Y013138D03*
D182*
X014522Y003405D03*
D183*
X016214Y005655D03*
X018597Y003405D03*
X002447Y013205D03*
X002414Y013505D03*
D184*
X002580Y013772D03*
X004980Y017888D03*
X008647Y018188D03*
X010530Y016838D03*
X010547Y016822D03*
X012480Y015222D03*
X008963Y007488D03*
X014513Y003422D03*
X016213Y005538D03*
D185*
X016214Y005522D03*
X014514Y003438D03*
X010647Y009538D03*
X010647Y013822D03*
X010664Y016722D03*
X010647Y016738D03*
X002864Y012438D03*
D186*
X006397Y015055D03*
X011413Y013155D03*
X013413Y007705D03*
X018630Y003455D03*
D187*
X018639Y003472D03*
X007239Y012138D03*
X006222Y009338D03*
D188*
X008088Y010722D03*
X008955Y007322D03*
X011738Y005288D03*
X018655Y003488D03*
X008622Y014922D03*
D189*
X004964Y010505D03*
X014514Y003505D03*
X016214Y005455D03*
D190*
X016214Y005705D03*
X018664Y003505D03*
X008647Y014905D03*
D191*
X009214Y017688D03*
X004897Y017722D03*
X008964Y007588D03*
X014514Y003522D03*
X016214Y005438D03*
D192*
X018672Y003522D03*
X008072Y010688D03*
X006222Y009322D03*
X008672Y014888D03*
X006389Y015038D03*
D193*
X005613Y013138D03*
X007230Y011888D03*
X004880Y010588D03*
X010330Y014138D03*
X012380Y015038D03*
X009230Y017672D03*
X008413Y018238D03*
X016980Y004872D03*
X017063Y004822D03*
X017130Y004772D03*
X014513Y003538D03*
D194*
X016072Y005822D03*
X016122Y005788D03*
X016189Y005738D03*
X015989Y005888D03*
X015939Y005922D03*
X015922Y005938D03*
X015872Y005972D03*
X015772Y006038D03*
X015639Y006138D03*
X015589Y006172D03*
X015572Y006188D03*
X015522Y006222D03*
X015389Y006322D03*
X015322Y006372D03*
X015289Y006388D03*
X015222Y006438D03*
X015172Y006472D03*
X015089Y006538D03*
X015039Y006572D03*
X015022Y006588D03*
X014972Y006622D03*
X014872Y006688D03*
X013372Y007772D03*
X013289Y007838D03*
X013239Y007872D03*
X013172Y007922D03*
X013139Y007938D03*
X013072Y007988D03*
X012939Y008088D03*
X012889Y008122D03*
X012872Y008138D03*
X012822Y008172D03*
X012689Y008272D03*
X012589Y008338D03*
X012539Y008372D03*
X012522Y008388D03*
X012472Y008422D03*
X012389Y008488D03*
X012339Y008522D03*
X012272Y008572D03*
X012239Y008588D03*
X012172Y008638D03*
X012122Y008672D03*
X012039Y008738D03*
X010589Y009788D03*
X010539Y009822D03*
X010472Y009872D03*
X010439Y009888D03*
X010372Y009938D03*
X010322Y009972D03*
X010239Y010038D03*
X010189Y010072D03*
X010172Y010088D03*
X010122Y010122D03*
X010022Y010188D03*
X009889Y010288D03*
X009839Y010322D03*
X009822Y010338D03*
X009772Y010372D03*
X009639Y010472D03*
X009572Y010522D03*
X009539Y010538D03*
X009472Y010588D03*
X009422Y010622D03*
X009339Y010688D03*
X009289Y010722D03*
X007239Y012172D03*
X005239Y010822D03*
X008789Y014822D03*
X017672Y004672D03*
X017722Y004638D03*
X017739Y004622D03*
X017789Y004588D03*
X017872Y004522D03*
X017922Y004488D03*
X017989Y004438D03*
X018022Y004422D03*
X018089Y004372D03*
X018139Y004338D03*
X018222Y004272D03*
X018272Y004238D03*
X018289Y004222D03*
X018339Y004188D03*
X018689Y003538D03*
D195*
X016214Y005405D03*
X014514Y003555D03*
X011497Y008805D03*
X005614Y013105D03*
X004814Y010655D03*
D196*
X008814Y014805D03*
X018447Y004105D03*
X018697Y003555D03*
D197*
X018714Y003572D03*
X018514Y004038D03*
X008014Y010622D03*
X002647Y012288D03*
D198*
X005272Y010872D03*
X007239Y012188D03*
X007972Y010588D03*
X010772Y014222D03*
X008922Y014738D03*
X011739Y005238D03*
X018539Y004022D03*
X018722Y003588D03*
D199*
X016213Y005355D03*
X014513Y003605D03*
X005597Y013055D03*
X008997Y016055D03*
X012280Y014905D03*
D200*
X007947Y010555D03*
X014130Y004255D03*
X018730Y003605D03*
D201*
X014514Y003622D03*
X012264Y014872D03*
X009314Y017522D03*
X004847Y017572D03*
D202*
X009055Y016122D03*
X008605Y010822D03*
X010655Y009338D03*
X014505Y003638D03*
D203*
X018638Y003922D03*
X018755Y003638D03*
X010822Y014272D03*
X009305Y014488D03*
X009255Y014522D03*
X009238Y014538D03*
X009155Y014588D03*
X006272Y012972D03*
X006255Y012988D03*
X006205Y013022D03*
X005338Y010938D03*
X005322Y010922D03*
X004088Y010822D03*
X004022Y010872D03*
X003922Y010938D03*
X003872Y010972D03*
X003855Y010988D03*
X003805Y011022D03*
X003788Y011038D03*
X003738Y011072D03*
X003722Y011088D03*
X003672Y011122D03*
X003655Y011138D03*
X003605Y011172D03*
X003588Y011188D03*
X003538Y011222D03*
X003522Y011238D03*
X003472Y011272D03*
X003455Y011288D03*
X003405Y011322D03*
X003388Y011338D03*
X003322Y011388D03*
X012605Y015538D03*
D204*
X009364Y017438D03*
X006214Y009738D03*
X013414Y007322D03*
X014514Y003672D03*
D205*
X014514Y003688D03*
X016214Y005272D03*
X013414Y007288D03*
X010647Y009288D03*
X012164Y014738D03*
X005747Y015888D03*
X003147Y012622D03*
D206*
X002930Y011738D03*
X005430Y011022D03*
X005580Y011122D03*
X005980Y014688D03*
X012030Y004972D03*
X012230Y004822D03*
X012280Y004788D03*
X012480Y004638D03*
X012580Y004572D03*
X012630Y004538D03*
X012780Y004422D03*
X012830Y004388D03*
X018730Y003822D03*
X018780Y003688D03*
D207*
X014514Y003705D03*
D208*
X011297Y006305D03*
X010264Y006255D03*
X010197Y006305D03*
X009914Y006505D03*
X009847Y006555D03*
X009714Y006655D03*
X008964Y007205D03*
X011014Y014455D03*
X010314Y016555D03*
X005914Y014605D03*
X018797Y003705D03*
D209*
X014513Y003722D03*
X013413Y007272D03*
X007230Y011722D03*
X006213Y009788D03*
X003163Y012638D03*
X003013Y014288D03*
X011430Y013538D03*
X012113Y014672D03*
D210*
X012147Y013788D03*
X006913Y008688D03*
X007213Y008472D03*
X007280Y008422D03*
X007330Y008388D03*
X007347Y008372D03*
X007397Y008338D03*
X007463Y008288D03*
X007530Y008238D03*
X009047Y007138D03*
X003897Y013038D03*
X002713Y011972D03*
X005847Y014522D03*
X005863Y014538D03*
X005397Y016038D03*
X018780Y003772D03*
X018797Y003722D03*
D211*
X014514Y003738D03*
X010647Y009238D03*
X004797Y017372D03*
D212*
X002555Y012222D03*
X002705Y011988D03*
X006455Y009022D03*
X006505Y008988D03*
X006655Y008872D03*
X006705Y008838D03*
X006805Y008772D03*
X007005Y008622D03*
X007055Y008588D03*
X007255Y008438D03*
X007555Y008222D03*
X008555Y008338D03*
X011305Y006338D03*
X018805Y003738D03*
D213*
X014513Y003755D03*
X004797Y017355D03*
D214*
X004130Y016455D03*
X005847Y014505D03*
X007030Y008605D03*
X007097Y008555D03*
X007163Y008505D03*
X007447Y008305D03*
X007513Y008255D03*
X010997Y008705D03*
X014163Y004355D03*
X018797Y003755D03*
X012630Y015605D03*
D215*
X011413Y013622D03*
X008447Y015838D03*
X003247Y012688D03*
X011730Y005822D03*
X014513Y003788D03*
D216*
X014164Y004338D03*
X015397Y004888D03*
X018764Y003788D03*
X010314Y006222D03*
X010247Y006272D03*
X010214Y006288D03*
X010164Y006322D03*
X010147Y006338D03*
X010097Y006372D03*
X010014Y006438D03*
X009964Y006472D03*
X009947Y006488D03*
X009897Y006522D03*
X009664Y006688D03*
X009597Y006738D03*
X009414Y006872D03*
X006647Y011138D03*
X005897Y014588D03*
X002814Y011872D03*
X002797Y011888D03*
X010997Y014438D03*
X011047Y014472D03*
X012614Y015588D03*
D217*
X009497Y017205D03*
X014514Y003805D03*
D218*
X012255Y004805D03*
X012188Y004855D03*
X012122Y004905D03*
X011772Y005155D03*
X008538Y008305D03*
X005472Y011055D03*
X002872Y011805D03*
X005955Y014655D03*
X010955Y014405D03*
X011105Y014505D03*
X018755Y003805D03*
D219*
X014505Y003822D03*
X008955Y007888D03*
D220*
X014514Y003838D03*
X004764Y017222D03*
D221*
X014514Y003855D03*
D222*
X018705Y003855D03*
X007005Y012405D03*
X006805Y012555D03*
X005405Y011005D03*
X006055Y014755D03*
X004105Y016505D03*
D223*
X008955Y007938D03*
X014505Y003872D03*
D224*
X014513Y003905D03*
X004747Y017105D03*
D225*
X006347Y012905D03*
X003364Y011355D03*
X003297Y011405D03*
X003247Y011455D03*
X018664Y003905D03*
D226*
X014505Y003922D03*
X008955Y007988D03*
X004738Y017072D03*
D227*
X004730Y017038D03*
X011730Y005972D03*
X014513Y003938D03*
X016213Y005038D03*
D228*
X014505Y003955D03*
X004722Y017005D03*
D229*
X009055Y014655D03*
X010805Y014255D03*
X005305Y010905D03*
X018605Y003955D03*
D230*
X014505Y003972D03*
X008955Y008038D03*
X003455Y012822D03*
D231*
X002622Y012272D03*
X006222Y009272D03*
X007772Y010422D03*
X007922Y010538D03*
X010789Y014238D03*
X018589Y003972D03*
D232*
X016214Y004988D03*
X014514Y003988D03*
D233*
X011280Y006238D03*
X008963Y007272D03*
X008530Y008238D03*
X007963Y010572D03*
X005297Y010888D03*
X008997Y014688D03*
X009030Y014672D03*
X018580Y003988D03*
D234*
X014505Y004005D03*
D235*
X018555Y004005D03*
D236*
X014505Y004022D03*
X010655Y008972D03*
X008955Y008088D03*
X007305Y015122D03*
X004705Y016888D03*
D237*
X016214Y004938D03*
X014514Y004038D03*
D238*
X014505Y004055D03*
D239*
X018497Y004055D03*
X010764Y014205D03*
X008897Y014755D03*
X012597Y015505D03*
X007997Y010605D03*
X005264Y010855D03*
X007097Y018855D03*
D240*
X007238Y015222D03*
X010655Y008922D03*
X008955Y008138D03*
X014505Y004072D03*
D241*
X014513Y004088D03*
X011730Y006122D03*
X007230Y015238D03*
D242*
X005247Y010838D03*
X008964Y007288D03*
X012597Y015488D03*
X018464Y004088D03*
D243*
X014505Y004105D03*
X007238Y015255D03*
D244*
X014505Y004122D03*
D245*
X014130Y004238D03*
X018430Y004122D03*
X006380Y015022D03*
D246*
X014505Y004138D03*
D247*
X015805Y006022D03*
X015705Y006088D03*
X015655Y006122D03*
X015505Y006238D03*
X015455Y006272D03*
X015355Y006338D03*
X015155Y006488D03*
X015105Y006522D03*
X014905Y006672D03*
X016005Y005872D03*
X016055Y005838D03*
X017805Y004572D03*
X017855Y004538D03*
X018155Y004322D03*
X018205Y004288D03*
X018355Y004172D03*
X018405Y004138D03*
X013355Y007788D03*
X013305Y007822D03*
X013105Y007972D03*
X013005Y008038D03*
X012955Y008072D03*
X012755Y008222D03*
X012655Y008288D03*
X012455Y008438D03*
X012405Y008472D03*
X012105Y008688D03*
X012055Y008722D03*
X010605Y009772D03*
X010305Y009988D03*
X010255Y010022D03*
X010055Y010172D03*
X009955Y010238D03*
X009905Y010272D03*
X009755Y010388D03*
X009705Y010422D03*
X009605Y010488D03*
X009405Y010638D03*
X009355Y010672D03*
X008055Y010672D03*
X008755Y014838D03*
D248*
X007089Y018755D03*
X013772Y004155D03*
D249*
X013014Y004255D03*
X012947Y004305D03*
X012814Y004405D03*
X012664Y004505D03*
X012597Y004555D03*
X012464Y004655D03*
X012397Y004705D03*
X012047Y004955D03*
X011914Y005055D03*
X011847Y005105D03*
X015397Y004155D03*
X006647Y010405D03*
X005547Y011105D03*
X002914Y011755D03*
X005997Y014705D03*
X010897Y014355D03*
D250*
X013080Y014405D03*
X006430Y016405D03*
X013380Y006205D03*
X016130Y004155D03*
D251*
X018380Y004155D03*
D252*
X013730Y004172D03*
D253*
X015397Y004172D03*
X015397Y004872D03*
X013747Y006622D03*
X006647Y010422D03*
X006647Y011122D03*
X005764Y014338D03*
X003114Y016438D03*
X003097Y016422D03*
X003064Y016388D03*
X002647Y017572D03*
X002647Y018722D03*
X002547Y012188D03*
X002564Y012172D03*
X011264Y016622D03*
X011314Y016588D03*
X011447Y016488D03*
X011514Y016438D03*
X011614Y016372D03*
X011647Y016338D03*
X011747Y016272D03*
X011797Y016238D03*
X011814Y016222D03*
X011864Y016188D03*
X011947Y016122D03*
X011997Y016088D03*
X012064Y016038D03*
X018147Y017572D03*
X018147Y018722D03*
D254*
X018147Y018738D03*
X010214Y016422D03*
X006647Y010438D03*
X002197Y014522D03*
X002664Y015788D03*
X002697Y015838D03*
X002714Y015872D03*
X002747Y015922D03*
X004197Y016372D03*
X002647Y018738D03*
X016597Y004622D03*
X015397Y004188D03*
X014197Y004422D03*
D255*
X016205Y004188D03*
X016255Y004222D03*
X006405Y016488D03*
X006355Y016588D03*
D256*
X013780Y006705D03*
X011980Y005005D03*
X012330Y004755D03*
X012530Y004605D03*
X012880Y004355D03*
X013080Y004205D03*
D257*
X014130Y004205D03*
X008080Y010705D03*
X012580Y015455D03*
D258*
X009880Y016155D03*
X006647Y010455D03*
X002247Y014855D03*
X002263Y014905D03*
X002280Y014955D03*
X002297Y015005D03*
X002313Y015055D03*
X002647Y018755D03*
X015397Y004205D03*
X018147Y018755D03*
D259*
X018430Y017605D03*
X016230Y004205D03*
X002930Y017605D03*
D260*
X008039Y010655D03*
X009522Y010555D03*
X009589Y010505D03*
X009722Y010405D03*
X009872Y010305D03*
X009939Y010255D03*
X010072Y010155D03*
X010139Y010105D03*
X010422Y009905D03*
X010489Y009855D03*
X010622Y009755D03*
X012089Y008705D03*
X012222Y008605D03*
X012289Y008555D03*
X012422Y008455D03*
X012572Y008355D03*
X012639Y008305D03*
X012772Y008205D03*
X012839Y008155D03*
X012989Y008055D03*
X013122Y007955D03*
X013189Y007905D03*
X014922Y006655D03*
X014989Y006605D03*
X015272Y006405D03*
X015339Y006355D03*
X015472Y006255D03*
X015622Y006155D03*
X015689Y006105D03*
X015822Y006005D03*
X015889Y005955D03*
X016172Y005755D03*
X017622Y004705D03*
X017689Y004655D03*
X017839Y004555D03*
X017972Y004455D03*
X018039Y004405D03*
X018172Y004305D03*
X018322Y004205D03*
X006222Y009305D03*
D261*
X005447Y011038D03*
X005497Y011072D03*
X006014Y014722D03*
X010914Y014372D03*
X012614Y015572D03*
X011014Y008738D03*
X008964Y007222D03*
X011797Y005138D03*
X012097Y004922D03*
X012147Y004888D03*
X012164Y004872D03*
X012214Y004838D03*
X012347Y004738D03*
X012414Y004688D03*
X012447Y004672D03*
X012514Y004622D03*
X012647Y004522D03*
X012697Y004488D03*
X012714Y004472D03*
X012764Y004438D03*
X012847Y004372D03*
X012897Y004338D03*
X012964Y004288D03*
X013064Y004222D03*
X014147Y004322D03*
D262*
X015397Y004222D03*
X015397Y004822D03*
X006647Y010472D03*
X006647Y011072D03*
X003897Y013088D03*
X002164Y014572D03*
X002164Y014588D03*
X004264Y016288D03*
X005397Y016088D03*
X002647Y018772D03*
X012147Y013838D03*
X018147Y018772D03*
D263*
X018147Y017522D03*
X012147Y014438D03*
X010014Y016222D03*
X005397Y016688D03*
X002647Y017522D03*
X003897Y013688D03*
X006647Y010488D03*
X010914Y008538D03*
X013664Y006488D03*
X014264Y004522D03*
X015397Y004238D03*
D264*
X014622Y004872D03*
X016272Y004238D03*
X016322Y004272D03*
X012522Y006422D03*
X012522Y006438D03*
X012522Y006622D03*
X012522Y006638D03*
X010539Y008172D03*
X009772Y008422D03*
X009772Y008438D03*
X009772Y008622D03*
X009772Y008638D03*
X008789Y008688D03*
X013089Y014372D03*
X009022Y016422D03*
X009022Y016438D03*
X009022Y016622D03*
X009022Y016638D03*
X006389Y016538D03*
X006389Y016522D03*
X006372Y016572D03*
X006339Y016622D03*
X006322Y016638D03*
D265*
X005397Y016655D03*
X004347Y016205D03*
X003897Y013655D03*
X006647Y010505D03*
X012147Y014405D03*
X015397Y004255D03*
D266*
X015397Y004455D03*
X015397Y004505D03*
X015397Y004555D03*
X015397Y004605D03*
X014597Y004855D03*
X016297Y004255D03*
X011564Y006705D03*
X010597Y008205D03*
X010664Y008255D03*
X008814Y008705D03*
X006647Y010705D03*
X006647Y010755D03*
X006647Y010805D03*
X006647Y010855D03*
X003897Y013305D03*
X003897Y013355D03*
X003897Y013405D03*
X003897Y013455D03*
X005397Y016305D03*
X005397Y016355D03*
X005397Y016405D03*
X005397Y016455D03*
X006347Y016605D03*
X002364Y017605D03*
X012147Y014205D03*
X012147Y014155D03*
X012147Y014105D03*
X012147Y014055D03*
X013097Y014355D03*
X017864Y017605D03*
D267*
X010280Y010005D03*
X009797Y010355D03*
X009380Y010655D03*
X012497Y008405D03*
X012913Y008105D03*
X013330Y007805D03*
X015130Y006505D03*
X015547Y006205D03*
X016030Y005855D03*
X017763Y004605D03*
X018247Y004255D03*
X008963Y007305D03*
X008730Y014855D03*
D268*
X006464Y016272D03*
X006464Y016288D03*
X005397Y016638D03*
X004414Y016138D03*
X003897Y013638D03*
X006647Y011022D03*
X006647Y010538D03*
X006647Y010522D03*
X010864Y008472D03*
X014314Y004588D03*
X015397Y004772D03*
X015397Y004288D03*
X015397Y004272D03*
X013047Y014472D03*
X012147Y014388D03*
D269*
X011164Y014522D03*
X010347Y016622D03*
X006364Y014988D03*
X006314Y012938D03*
X007247Y012222D03*
X003347Y011372D03*
X003264Y011438D03*
X008964Y007238D03*
X014147Y004288D03*
D270*
X015397Y004305D03*
X015397Y004755D03*
X013547Y006355D03*
X013280Y006155D03*
X006647Y010555D03*
X006647Y011005D03*
X006463Y016305D03*
X013063Y014455D03*
D271*
X012147Y014255D03*
X012147Y014005D03*
X006647Y010905D03*
X006647Y010655D03*
X003897Y013255D03*
X003897Y013505D03*
X005397Y016255D03*
X005397Y016505D03*
X006313Y016655D03*
X006397Y016505D03*
X002897Y018705D03*
X002397Y018705D03*
X015397Y004655D03*
X015397Y004405D03*
X016347Y004305D03*
X017897Y018705D03*
X018397Y018705D03*
D272*
X012147Y014338D03*
X012147Y013938D03*
X006647Y010972D03*
X006647Y010588D03*
X006647Y010572D03*
X003897Y013188D03*
X003897Y013588D03*
X005397Y016188D03*
X005397Y016588D03*
X006447Y016372D03*
X013514Y006322D03*
X015397Y004722D03*
X015397Y004338D03*
X015397Y004322D03*
D273*
X016372Y004322D03*
X012522Y006372D03*
X012522Y006388D03*
X012522Y006672D03*
X012522Y006688D03*
X009772Y008372D03*
X009772Y008388D03*
X009772Y008672D03*
X009772Y008688D03*
X013089Y014388D03*
X009022Y016372D03*
X009022Y016388D03*
X009022Y016672D03*
X009022Y016688D03*
X008272Y016888D03*
X008139Y016222D03*
X006422Y016438D03*
X002872Y017588D03*
X002422Y017588D03*
X001572Y019772D03*
X017922Y017588D03*
X018372Y017588D03*
X019222Y019772D03*
D274*
X012147Y014305D03*
X006647Y010955D03*
X006647Y010605D03*
X003897Y013555D03*
X005397Y016555D03*
X010764Y008355D03*
X010497Y008155D03*
X013447Y006255D03*
X015397Y004705D03*
X015397Y004355D03*
X016397Y004355D03*
D275*
X016105Y005805D03*
X015955Y005905D03*
X015755Y006055D03*
X015405Y006305D03*
X015205Y006455D03*
X015055Y006555D03*
X014855Y006705D03*
X013405Y007755D03*
X013255Y007855D03*
X013055Y008005D03*
X012705Y008255D03*
X012355Y008505D03*
X012155Y008655D03*
X010555Y009805D03*
X010355Y009955D03*
X010205Y010055D03*
X010005Y010205D03*
X009655Y010455D03*
X009455Y010605D03*
X009305Y010705D03*
X017905Y004505D03*
X018105Y004355D03*
D276*
X014164Y004372D03*
X010997Y008688D03*
X006364Y009088D03*
X006297Y009138D03*
X006247Y009172D03*
X002597Y012122D03*
X005797Y014422D03*
X004147Y016438D03*
X003197Y016538D03*
X012497Y015722D03*
X012564Y015672D03*
D277*
X013072Y014422D03*
X009022Y016338D03*
X009022Y016722D03*
X007622Y015922D03*
X006438Y016388D03*
X008738Y008622D03*
X009772Y008722D03*
X009772Y008338D03*
X010788Y008388D03*
X011488Y006622D03*
X012522Y006722D03*
X012522Y006338D03*
X013322Y006172D03*
X013355Y006188D03*
X013488Y006288D03*
X016422Y004372D03*
D278*
X014180Y004388D03*
X010980Y008672D03*
X005780Y014388D03*
X011380Y016538D03*
X011580Y016388D03*
X011680Y016322D03*
X011880Y016172D03*
X011930Y016138D03*
X012130Y015988D03*
D279*
X006230Y016738D03*
X016430Y004388D03*
D280*
X014189Y004405D03*
X010972Y008655D03*
X004172Y016405D03*
X003039Y016355D03*
X011289Y016605D03*
X011422Y016505D03*
D281*
X009022Y016305D03*
X008722Y008605D03*
X009772Y008305D03*
X012522Y006305D03*
X016439Y004405D03*
D282*
X015397Y004422D03*
X015397Y004438D03*
X015397Y004472D03*
X015397Y004488D03*
X015397Y004522D03*
X015397Y004538D03*
X015397Y004572D03*
X015397Y004588D03*
X015397Y004622D03*
X014564Y004838D03*
X014547Y004822D03*
X014497Y004788D03*
X011547Y006688D03*
X010564Y008188D03*
X010697Y008288D03*
X006647Y010672D03*
X006647Y010688D03*
X006647Y010722D03*
X006647Y010738D03*
X006647Y010772D03*
X006647Y010788D03*
X006647Y010822D03*
X006647Y010838D03*
X006647Y010872D03*
X003897Y013322D03*
X003897Y013338D03*
X003897Y013372D03*
X003897Y013388D03*
X003897Y013422D03*
X003897Y013438D03*
X003897Y013472D03*
X003897Y013488D03*
X005397Y016322D03*
X005397Y016338D03*
X005397Y016372D03*
X005397Y016388D03*
X005397Y016422D03*
X005397Y016438D03*
X005397Y016472D03*
X005397Y016488D03*
X008247Y016872D03*
X012147Y014238D03*
X012147Y014222D03*
X012147Y014188D03*
X012147Y014172D03*
X012147Y014138D03*
X012147Y014122D03*
X012147Y014088D03*
X012147Y014072D03*
X019314Y019738D03*
D283*
X012147Y014372D03*
X012147Y013922D03*
X008697Y008572D03*
X006647Y010988D03*
X003897Y013172D03*
X003897Y013622D03*
X004480Y016088D03*
X005397Y016172D03*
X005397Y016622D03*
X011447Y006572D03*
X013563Y006372D03*
X014330Y004622D03*
X015397Y004738D03*
X016463Y004422D03*
D284*
X014205Y004438D03*
X013722Y006572D03*
X010955Y008622D03*
X002505Y015488D03*
X002522Y015522D03*
X002555Y015588D03*
X002572Y015622D03*
X002588Y015638D03*
X002605Y015672D03*
X002605Y015688D03*
X002638Y015738D03*
X002655Y015772D03*
D285*
X004439Y016122D03*
X009022Y016288D03*
X010839Y008438D03*
X009772Y008288D03*
X012522Y006288D03*
X016472Y004438D03*
D286*
X014214Y004455D03*
X010947Y008605D03*
X002514Y015505D03*
X002464Y015405D03*
X002447Y015355D03*
X002397Y015255D03*
D287*
X008680Y008555D03*
X011430Y006555D03*
X016480Y004455D03*
D288*
X016563Y004572D03*
X015397Y004838D03*
X014230Y004472D03*
X013697Y006538D03*
X011363Y006438D03*
X010947Y008588D03*
X006647Y011088D03*
X002297Y014988D03*
X002280Y014972D03*
X002297Y015022D03*
X002313Y015038D03*
X002330Y015088D03*
X002363Y015172D03*
X002263Y014922D03*
X002247Y014872D03*
X004230Y016322D03*
X002647Y017538D03*
X006463Y016138D03*
X018147Y017538D03*
D289*
X018147Y018788D03*
X012147Y013888D03*
X006464Y016238D03*
X006147Y016772D03*
X005397Y016138D03*
X002647Y018788D03*
X003897Y013138D03*
X006647Y011038D03*
X011414Y006522D03*
X014297Y004572D03*
X015397Y004788D03*
X016497Y004472D03*
D290*
X014239Y004488D03*
X013689Y006522D03*
X012522Y006838D03*
X009772Y008838D03*
X010122Y016322D03*
X010139Y016338D03*
X009022Y016838D03*
X002272Y014938D03*
X002239Y014838D03*
X002239Y014822D03*
X002222Y014788D03*
X002222Y014772D03*
X002189Y014688D03*
X002189Y014672D03*
X002172Y014622D03*
D291*
X008655Y008522D03*
X016505Y004488D03*
D292*
X016513Y004505D03*
X015397Y004805D03*
X011397Y006505D03*
X008647Y008505D03*
X006647Y011055D03*
X008213Y016155D03*
D293*
X010030Y016238D03*
X004280Y016272D03*
X016530Y004522D03*
D294*
X014272Y004538D03*
X012522Y006238D03*
X011389Y006488D03*
X009772Y008238D03*
X008639Y008488D03*
X006472Y016188D03*
X009022Y016238D03*
D295*
X009022Y016222D03*
X009022Y016822D03*
X009955Y016188D03*
X010072Y016272D03*
X010088Y016288D03*
X006472Y016172D03*
X009772Y008822D03*
X009772Y008222D03*
X008622Y008472D03*
X011372Y006472D03*
X012522Y006222D03*
X012522Y006822D03*
X016538Y004538D03*
D296*
X014289Y004555D03*
X012522Y006255D03*
X013639Y006455D03*
X010889Y008505D03*
X009772Y008255D03*
X009022Y016255D03*
D297*
X010114Y016305D03*
X012147Y014455D03*
X006464Y016155D03*
X005397Y016705D03*
X004247Y016305D03*
X002197Y014705D03*
X002164Y014555D03*
X003897Y013705D03*
X008614Y008455D03*
X011364Y006455D03*
X016547Y004555D03*
D298*
X012555Y004588D03*
X012372Y004722D03*
X012305Y004772D03*
X012072Y004938D03*
X012005Y004988D03*
X011955Y005022D03*
X011938Y005038D03*
X011888Y005072D03*
X011872Y005088D03*
X011822Y005122D03*
X011755Y005172D03*
X006222Y009222D03*
X005522Y011088D03*
X002905Y011772D03*
X002888Y011788D03*
X002855Y011822D03*
X002838Y011838D03*
X002572Y012238D03*
X005938Y014638D03*
X005972Y014672D03*
X004105Y016488D03*
X010322Y016572D03*
X011072Y014488D03*
X010972Y014422D03*
X010938Y014388D03*
D299*
X010172Y016372D03*
X012972Y014522D03*
X004222Y016338D03*
X002389Y015238D03*
X002389Y015222D03*
X002372Y015188D03*
X002339Y015122D03*
X002322Y015072D03*
X016572Y004588D03*
D300*
X014322Y004605D03*
X012522Y006755D03*
X009772Y008755D03*
X004539Y016055D03*
X009022Y016755D03*
D301*
X016580Y004605D03*
D302*
X016597Y004638D03*
X011330Y006388D03*
X008580Y008388D03*
X011397Y013072D03*
X012147Y014488D03*
X007097Y018872D03*
X005397Y016738D03*
X004180Y016388D03*
X003013Y016322D03*
X002980Y016272D03*
X002913Y016188D03*
X002913Y016172D03*
X002880Y016138D03*
X003897Y013738D03*
X005730Y014222D03*
X005730Y014238D03*
X005747Y014288D03*
D303*
X005397Y016205D03*
X005397Y016605D03*
X006447Y016355D03*
X003897Y013605D03*
X003897Y013205D03*
X002647Y018805D03*
X012147Y014355D03*
X012147Y013955D03*
X010814Y008405D03*
X014364Y004655D03*
X018147Y018805D03*
D304*
X011355Y016555D03*
X005755Y014305D03*
X003005Y016305D03*
X016605Y004655D03*
D305*
X016622Y004672D03*
X013755Y006638D03*
X012522Y006172D03*
X009772Y008172D03*
X005772Y014372D03*
X005805Y014438D03*
X004155Y016422D03*
X003155Y016488D03*
X003138Y016472D03*
X002588Y012138D03*
X009022Y016172D03*
X010272Y016488D03*
X011722Y016288D03*
X012022Y016072D03*
X012088Y016022D03*
X012155Y015972D03*
X012205Y015938D03*
X012222Y015922D03*
X012272Y015888D03*
X012288Y015872D03*
X012338Y015838D03*
X012355Y015822D03*
X012405Y015788D03*
X012422Y015772D03*
X012472Y015738D03*
X012538Y015688D03*
X012605Y015638D03*
X012622Y015622D03*
D306*
X014405Y004705D03*
D307*
X016639Y004705D03*
X009989Y006455D03*
X009639Y006705D03*
X009572Y006755D03*
X009439Y006855D03*
X009372Y006905D03*
X009089Y007105D03*
X009022Y007155D03*
X006222Y009205D03*
X002739Y011955D03*
X005872Y014555D03*
D308*
X004830Y010638D03*
X010930Y006172D03*
X017180Y004722D03*
D309*
X017155Y004738D03*
X010655Y009438D03*
X008155Y008188D03*
D310*
X014455Y004755D03*
D311*
X014480Y004772D03*
X010680Y008272D03*
X001480Y019738D03*
D312*
X004889Y017705D03*
X005539Y018155D03*
X002972Y012505D03*
X011439Y013355D03*
X012389Y015055D03*
X013422Y007455D03*
X011739Y005555D03*
X017089Y004805D03*
D313*
X015397Y004855D03*
X006647Y011105D03*
X002647Y015755D03*
X002697Y015855D03*
X002764Y015955D03*
X002797Y016005D03*
X002647Y017555D03*
X018147Y017555D03*
D314*
X016214Y004905D03*
D315*
X016205Y004922D03*
X008955Y008122D03*
D316*
X003505Y012855D03*
X004705Y016905D03*
X016205Y004955D03*
D317*
X016214Y004972D03*
X013414Y006988D03*
X010647Y008988D03*
X006214Y010072D03*
X004714Y016938D03*
D318*
X016205Y005005D03*
D319*
X016214Y005055D03*
D320*
X016205Y005088D03*
X009572Y017072D03*
X004738Y017138D03*
D321*
X007080Y018655D03*
X009563Y017105D03*
X011397Y013705D03*
X016213Y005105D03*
D322*
X016214Y005122D03*
X013414Y007138D03*
X011397Y013688D03*
X009547Y017122D03*
X003197Y014238D03*
X006214Y009922D03*
D323*
X011405Y013672D03*
X016205Y005138D03*
D324*
X016214Y005155D03*
X004764Y017255D03*
D325*
X010655Y009188D03*
X016205Y005172D03*
D326*
X016214Y005188D03*
X011997Y014538D03*
D327*
X016214Y005205D03*
D328*
X016205Y005222D03*
D329*
X016214Y005238D03*
D330*
X011738Y005255D03*
D331*
X016213Y005255D03*
X009413Y017355D03*
D332*
X011739Y005305D03*
D333*
X016205Y005305D03*
X009355Y017455D03*
X004822Y017505D03*
D334*
X009063Y016138D03*
X007230Y011788D03*
X013413Y007338D03*
X016213Y005322D03*
D335*
X013422Y007672D03*
X011739Y005338D03*
X002422Y013572D03*
X002489Y014438D03*
X006422Y015072D03*
D336*
X011739Y005355D03*
D337*
X016205Y005388D03*
X008455Y010988D03*
D338*
X005447Y013605D03*
X013414Y007605D03*
X011747Y005405D03*
D339*
X011739Y005422D03*
X013422Y007588D03*
X011422Y013238D03*
X007239Y012022D03*
X005522Y013472D03*
X005389Y013688D03*
D340*
X006222Y009505D03*
X011739Y005455D03*
X012472Y015205D03*
X010572Y016805D03*
D341*
X010438Y016888D03*
X009138Y017822D03*
X012472Y015188D03*
X010555Y013888D03*
X010522Y013922D03*
X005155Y017988D03*
X004938Y017838D03*
X002672Y014388D03*
X011738Y005472D03*
X013422Y007538D03*
D342*
X010655Y009488D03*
X010405Y014038D03*
X003855Y016738D03*
X016205Y005472D03*
D343*
X011739Y005522D03*
X002722Y014372D03*
X009189Y017738D03*
D344*
X005547Y013405D03*
X016214Y005555D03*
D345*
X011738Y005588D03*
X010655Y009422D03*
X007238Y011872D03*
X010305Y014172D03*
X011438Y013372D03*
X008888Y015922D03*
X002988Y012522D03*
D346*
X004772Y010705D03*
X011739Y005605D03*
X014322Y006755D03*
X012322Y014955D03*
X005689Y018205D03*
D347*
X016205Y005605D03*
D348*
X011730Y005688D03*
X008630Y010788D03*
X004830Y017522D03*
D349*
X011739Y005705D03*
D350*
X011739Y005722D03*
X004822Y017472D03*
D351*
X011730Y005738D03*
D352*
X011739Y005755D03*
D353*
X011738Y005772D03*
X012088Y014638D03*
X009438Y017322D03*
X005605Y016022D03*
X004805Y017388D03*
D354*
X008563Y015888D03*
X009447Y017288D03*
X012047Y014588D03*
X007230Y011688D03*
X008963Y007822D03*
X011730Y005788D03*
X013413Y007238D03*
D355*
X011738Y005805D03*
X012022Y014555D03*
X009472Y017255D03*
D356*
X011739Y005855D03*
D357*
X011730Y005872D03*
D358*
X011730Y005888D03*
D359*
X011739Y005905D03*
D360*
X011730Y005922D03*
D361*
X011739Y005938D03*
X004739Y017088D03*
D362*
X009655Y016938D03*
X008955Y008022D03*
X011738Y005988D03*
D363*
X011730Y006005D03*
D364*
X011730Y006022D03*
X007230Y011472D03*
X003380Y014188D03*
D365*
X011739Y006038D03*
D366*
X011730Y006055D03*
D367*
X011739Y006088D03*
D368*
X011730Y006105D03*
D369*
X011730Y006138D03*
D370*
X010972Y006155D03*
X008922Y015955D03*
X004872Y017655D03*
D371*
X009239Y017655D03*
X010872Y006205D03*
D372*
X012522Y006205D03*
X009772Y008205D03*
X002339Y015105D03*
X002372Y015205D03*
X002422Y015305D03*
X009022Y016205D03*
D373*
X011280Y006222D03*
D374*
X013405Y006222D03*
D375*
X013780Y006688D03*
X010280Y006238D03*
X010080Y006388D03*
X010030Y006422D03*
X009830Y006572D03*
X009530Y006788D03*
X009480Y006822D03*
X005930Y014622D03*
D376*
X009130Y014605D03*
X007830Y010455D03*
X008530Y008255D03*
X011280Y006255D03*
D377*
X011422Y006538D03*
X012522Y006772D03*
X012522Y006272D03*
X013605Y006422D03*
X009772Y008272D03*
X009772Y008772D03*
X008672Y008538D03*
X004572Y016038D03*
X004372Y016172D03*
X004355Y016188D03*
X009022Y016272D03*
X009022Y016772D03*
D378*
X009022Y016705D03*
X009022Y016355D03*
X008155Y016205D03*
X009772Y008705D03*
X009772Y008355D03*
X012522Y006705D03*
X012522Y006355D03*
X013505Y006305D03*
D379*
X011305Y006322D03*
X009805Y006588D03*
X009755Y006622D03*
X009555Y006772D03*
X009455Y006838D03*
X009255Y006988D03*
X009205Y007022D03*
X009005Y007172D03*
X008555Y008322D03*
X011005Y008722D03*
X011405Y013088D03*
X010305Y016538D03*
X006405Y016038D03*
X002755Y011938D03*
D380*
X008172Y016188D03*
X009022Y016322D03*
X009022Y016738D03*
X013072Y014438D03*
X009772Y008738D03*
X009772Y008322D03*
X010822Y008422D03*
X012522Y006738D03*
X012522Y006322D03*
X013539Y006338D03*
D381*
X010130Y006355D03*
X009780Y006605D03*
X009230Y007005D03*
X002830Y011855D03*
X002780Y011905D03*
D382*
X002572Y012155D03*
X005788Y014405D03*
X003122Y016455D03*
X008572Y008355D03*
X011322Y006355D03*
X012588Y015655D03*
X012522Y015705D03*
X012455Y015755D03*
X012388Y015805D03*
X012322Y015855D03*
X012172Y015955D03*
X012105Y016005D03*
X012038Y016055D03*
X011972Y016105D03*
X011905Y016155D03*
D383*
X011539Y016422D03*
X011472Y016472D03*
X011339Y016572D03*
X011239Y016638D03*
X009022Y016872D03*
X006439Y016072D03*
X005739Y014272D03*
X002989Y016288D03*
X003022Y016338D03*
X002939Y016222D03*
X009772Y008872D03*
X008572Y008372D03*
X011322Y006372D03*
X012522Y006872D03*
D384*
X013580Y006388D03*
X008180Y016172D03*
D385*
X009155Y007055D03*
X009305Y006955D03*
X009505Y006805D03*
X010055Y006405D03*
D386*
X011338Y006405D03*
X012522Y006855D03*
X009772Y008855D03*
X008588Y008405D03*
X002488Y015455D03*
X002538Y015555D03*
X002572Y015605D03*
X002588Y015655D03*
X002622Y015705D03*
X002672Y015805D03*
X004205Y016355D03*
X006455Y016105D03*
X009022Y016855D03*
X010205Y016405D03*
D387*
X009022Y016405D03*
X009022Y016605D03*
X008122Y016255D03*
X006372Y016555D03*
X001522Y019755D03*
X009772Y008605D03*
X009772Y008405D03*
X010722Y008305D03*
X012522Y006605D03*
X012522Y006405D03*
X019272Y019755D03*
D388*
X018147Y017505D03*
X012147Y013905D03*
X005397Y016155D03*
X004397Y016155D03*
X002647Y017505D03*
X003897Y013155D03*
X013597Y006405D03*
D389*
X011347Y006422D03*
X008597Y008422D03*
X003897Y013072D03*
X003897Y013722D03*
X002414Y015288D03*
X002447Y015372D03*
X002464Y015388D03*
X002497Y015472D03*
X002547Y015572D03*
X005397Y016072D03*
X005397Y016722D03*
X012147Y014472D03*
X012147Y013822D03*
D390*
X013039Y014488D03*
X009022Y016788D03*
X006472Y016222D03*
X004322Y016222D03*
X009772Y008788D03*
X012522Y006788D03*
X013622Y006438D03*
D391*
X012522Y006472D03*
X012522Y006488D03*
X012522Y006522D03*
X012522Y006538D03*
X012522Y006572D03*
X012522Y006588D03*
X011805Y006888D03*
X011572Y006722D03*
X010622Y008222D03*
X010638Y008238D03*
X009772Y008472D03*
X009772Y008488D03*
X009772Y008522D03*
X009772Y008538D03*
X009772Y008572D03*
X009772Y008588D03*
X009055Y008888D03*
X008822Y008722D03*
X013088Y014338D03*
X009022Y016472D03*
X009022Y016488D03*
X009022Y016522D03*
X009022Y016538D03*
X009022Y016572D03*
X009022Y016588D03*
X008122Y016272D03*
X002938Y018688D03*
X002355Y018688D03*
X017855Y018688D03*
X018438Y018688D03*
D392*
X013655Y006472D03*
D393*
X013772Y006672D03*
X012522Y006888D03*
X009872Y006538D03*
X009739Y006638D03*
X009689Y006672D03*
X009622Y006722D03*
X009389Y006888D03*
X009339Y006922D03*
X009322Y006938D03*
X009272Y006972D03*
X009189Y007038D03*
X009139Y007072D03*
X009122Y007088D03*
X009072Y007122D03*
X008972Y007188D03*
X009772Y008888D03*
X005889Y014572D03*
X004122Y016472D03*
X002772Y011922D03*
X009022Y016888D03*
D394*
X010155Y016355D03*
X002355Y015155D03*
X013705Y006555D03*
D395*
X013730Y006588D03*
X002730Y015888D03*
X002680Y015822D03*
X002630Y015722D03*
X002780Y015972D03*
D396*
X011480Y006605D03*
D397*
X013730Y006605D03*
X012147Y013805D03*
X010247Y016455D03*
X005730Y014255D03*
X005730Y014205D03*
X005397Y016055D03*
X002963Y016255D03*
X002930Y016205D03*
X002897Y016155D03*
X003897Y013055D03*
D398*
X006422Y016455D03*
X006272Y016705D03*
X009022Y016655D03*
X008772Y008655D03*
X009772Y008655D03*
X011522Y006655D03*
X012522Y006655D03*
D399*
X013755Y006655D03*
X007305Y008405D03*
X006955Y008655D03*
X006755Y008805D03*
X006405Y009055D03*
X002655Y012055D03*
X002255Y014505D03*
D400*
X008864Y008755D03*
X011614Y006755D03*
D401*
X011655Y006788D03*
X008905Y008788D03*
X008105Y016322D03*
D402*
X013089Y014305D03*
X008989Y008855D03*
X008922Y008805D03*
X011672Y006805D03*
X011739Y006855D03*
X019372Y019705D03*
X001422Y019705D03*
D403*
X004289Y016255D03*
X006472Y016205D03*
X007622Y015905D03*
X009022Y016805D03*
X013022Y014505D03*
X009772Y008805D03*
X012522Y006805D03*
D404*
X014130Y006888D03*
D405*
X013413Y006905D03*
X010647Y008905D03*
X003580Y012905D03*
D406*
X004697Y016788D03*
X013414Y006922D03*
D407*
X013414Y006938D03*
X006214Y010138D03*
X003564Y012888D03*
X004697Y016822D03*
D408*
X013414Y006955D03*
D409*
X013414Y006972D03*
D410*
X013414Y007005D03*
X004714Y016955D03*
D411*
X003313Y014205D03*
X013413Y007055D03*
D412*
X013414Y007072D03*
X010647Y009072D03*
X006214Y009988D03*
X009614Y017022D03*
D413*
X008964Y007955D03*
X013414Y007105D03*
D414*
X013413Y007122D03*
X006213Y009938D03*
X004747Y017172D03*
D415*
X009514Y017188D03*
X006214Y009888D03*
X013414Y007172D03*
D416*
X013414Y007188D03*
X011414Y013638D03*
X008414Y015822D03*
X006214Y009872D03*
D417*
X006214Y009855D03*
X010647Y009205D03*
X013414Y007205D03*
X011414Y013605D03*
D418*
X009464Y017272D03*
X006214Y009838D03*
X013414Y007222D03*
D419*
X008964Y007255D03*
X007897Y010505D03*
X004114Y010805D03*
D420*
X006214Y009805D03*
X012097Y014655D03*
X013414Y007255D03*
D421*
X008964Y007355D03*
X002414Y013355D03*
X002414Y013405D03*
X002414Y013455D03*
D422*
X006214Y009705D03*
X012247Y014855D03*
X004847Y017555D03*
X013414Y007355D03*
D423*
X008955Y007372D03*
X012555Y015388D03*
D424*
X008964Y007405D03*
D425*
X008963Y007455D03*
X005497Y013505D03*
X005413Y013655D03*
X002813Y012405D03*
X002530Y013755D03*
X008747Y018155D03*
D426*
X010538Y013905D03*
X005588Y013305D03*
X008955Y007505D03*
D427*
X013414Y007505D03*
X003814Y016705D03*
X003764Y016655D03*
X005297Y018055D03*
D428*
X005263Y013772D03*
X005597Y013272D03*
X010463Y013972D03*
X011430Y013288D03*
X010713Y016672D03*
X008963Y007522D03*
X013413Y007522D03*
D429*
X008955Y007555D03*
X005605Y013205D03*
X005405Y018105D03*
D430*
X005013Y017905D03*
X004947Y017855D03*
X005313Y013755D03*
X005563Y013355D03*
X009113Y017855D03*
X010497Y016855D03*
X013413Y007555D03*
D431*
X008955Y007605D03*
X004855Y010605D03*
D432*
X008955Y007655D03*
X011438Y013405D03*
X008955Y016005D03*
D433*
X010647Y009322D03*
X008964Y007722D03*
D434*
X005214Y010788D03*
X013414Y007722D03*
D435*
X008955Y007738D03*
X005805Y015822D03*
D436*
X008955Y007755D03*
D437*
X008955Y007788D03*
X005655Y015972D03*
D438*
X005622Y016005D03*
X008955Y007805D03*
D439*
X008955Y007855D03*
D440*
X008955Y007872D03*
X010655Y009172D03*
X004772Y017272D03*
D441*
X008955Y007905D03*
D442*
X008955Y007922D03*
X010655Y009122D03*
X004755Y017188D03*
D443*
X008955Y007972D03*
D444*
X008955Y008005D03*
D445*
X008955Y008055D03*
D446*
X008955Y008072D03*
X004705Y016922D03*
D447*
X004705Y016855D03*
X008955Y008105D03*
D448*
X008230Y008155D03*
X008380Y011055D03*
X011430Y008855D03*
D449*
X007372Y008355D03*
X007239Y008455D03*
X006889Y008705D03*
X006822Y008755D03*
X006689Y008855D03*
X006622Y008905D03*
X006339Y009105D03*
X006272Y009155D03*
X002689Y012005D03*
D450*
X002355Y015138D03*
X002405Y015272D03*
X006455Y016122D03*
X008605Y008438D03*
D451*
X010855Y008455D03*
X004455Y016105D03*
D452*
X010880Y008488D03*
D453*
X010897Y008522D03*
X012147Y013872D03*
X012147Y014422D03*
X005397Y016122D03*
X005397Y016672D03*
X004313Y016238D03*
X003897Y013672D03*
X003897Y013122D03*
D454*
X002180Y014638D03*
X009930Y016172D03*
X010930Y008572D03*
D455*
X008880Y008772D03*
X002330Y017622D03*
X017830Y017622D03*
D456*
X009255Y017622D03*
X008905Y015938D03*
X008355Y011072D03*
X008405Y011038D03*
X011405Y008872D03*
D457*
X010647Y008938D03*
X006213Y010122D03*
X004697Y016838D03*
D458*
X005397Y016755D03*
X003164Y016505D03*
X005814Y014455D03*
X003897Y013755D03*
X002614Y012105D03*
X006547Y008955D03*
X012147Y014505D03*
D459*
X010655Y008955D03*
X006205Y010105D03*
D460*
X006480Y009005D03*
X006430Y016055D03*
X010280Y016505D03*
D461*
X006205Y010055D03*
X010655Y009005D03*
D462*
X010647Y009022D03*
X006214Y010038D03*
D463*
X010655Y009038D03*
D464*
X010655Y009055D03*
D465*
X010655Y009088D03*
X003255Y014222D03*
D466*
X006213Y009905D03*
X010647Y009155D03*
X009530Y017155D03*
D467*
X010655Y009222D03*
D468*
X006288Y012955D03*
X006222Y013005D03*
X004038Y010855D03*
X003972Y010905D03*
X003905Y010955D03*
X003838Y011005D03*
X003755Y011055D03*
X003688Y011105D03*
X003622Y011155D03*
X003555Y011205D03*
X003488Y011255D03*
X003422Y011305D03*
X006222Y009255D03*
X009205Y014555D03*
D469*
X004805Y017405D03*
X010655Y009255D03*
D470*
X010655Y009272D03*
X004805Y017422D03*
D471*
X010655Y009305D03*
D472*
X006222Y009355D03*
X002422Y013305D03*
D473*
X002464Y013172D03*
X002414Y013522D03*
X002414Y013538D03*
X006214Y009372D03*
X010647Y009672D03*
X011414Y013172D03*
X008414Y015022D03*
X007097Y018838D03*
D474*
X002455Y013655D03*
X006222Y009405D03*
D475*
X010655Y009405D03*
D476*
X006213Y009422D03*
X006447Y015088D03*
X008280Y015072D03*
X012530Y015322D03*
D477*
X011422Y013222D03*
X008788Y018138D03*
X002572Y013038D03*
X006222Y009438D03*
D478*
X005614Y013155D03*
X010647Y009455D03*
D479*
X006214Y009472D03*
X008697Y018172D03*
D480*
X012405Y015088D03*
X010655Y009472D03*
D481*
X010655Y009505D03*
D482*
X010655Y009522D03*
X012455Y015172D03*
D483*
X006222Y009538D03*
X003739Y016622D03*
D484*
X006214Y009555D03*
D485*
X010655Y009605D03*
X012522Y015305D03*
X009055Y017955D03*
D486*
X009055Y017972D03*
X002555Y014422D03*
X010655Y009622D03*
D487*
X010655Y009638D03*
X008922Y018088D03*
D488*
X010655Y009688D03*
D489*
X010655Y009705D03*
X008555Y014955D03*
D490*
X008705Y014872D03*
X011405Y013138D03*
X010655Y009722D03*
D491*
X011422Y013572D03*
X012072Y014622D03*
X006222Y009822D03*
D492*
X006214Y010005D03*
D493*
X006213Y010088D03*
D494*
X006205Y010155D03*
D495*
X006214Y010172D03*
D496*
X006214Y010188D03*
D497*
X006214Y010205D03*
D498*
X006214Y010222D03*
X007214Y011322D03*
D499*
X006205Y010238D03*
D500*
X006214Y010255D03*
D501*
X006213Y010272D03*
X007213Y011272D03*
X003713Y012988D03*
D502*
X006205Y010288D03*
D503*
X006213Y010305D03*
X007063Y018455D03*
D504*
X006214Y010322D03*
D505*
X006205Y010338D03*
D506*
X006214Y010355D03*
D507*
X006205Y010372D03*
D508*
X006205Y010388D03*
D509*
X007730Y010405D03*
D510*
X005030Y010455D03*
D511*
X004905Y010555D03*
D512*
X004739Y010755D03*
X003039Y012555D03*
X008539Y010905D03*
X009289Y017555D03*
D513*
X008580Y010855D03*
D514*
X008305Y011105D03*
D515*
X007214Y011155D03*
D516*
X007213Y011172D03*
D517*
X007214Y011188D03*
X007064Y018422D03*
D518*
X007213Y011205D03*
D519*
X007222Y011222D03*
D520*
X007213Y011238D03*
D521*
X007214Y011255D03*
X003747Y013005D03*
D522*
X007214Y011288D03*
D523*
X007222Y011305D03*
D524*
X007222Y011338D03*
X003639Y012938D03*
D525*
X007214Y011355D03*
D526*
X007222Y011372D03*
X007072Y018538D03*
D527*
X007222Y011388D03*
D528*
X007222Y011405D03*
X007239Y015205D03*
D529*
X009330Y014472D03*
X009380Y014438D03*
X010830Y014288D03*
X006330Y012922D03*
X003280Y011422D03*
X004080Y016538D03*
D530*
X007222Y011422D03*
D531*
X007222Y011488D03*
X009672Y016922D03*
X004722Y016988D03*
D532*
X007230Y011505D03*
D533*
X007222Y011522D03*
X009622Y016988D03*
X007072Y018622D03*
D534*
X007230Y011538D03*
D535*
X007222Y011555D03*
X009589Y017055D03*
D536*
X007230Y011572D03*
D537*
X007230Y011605D03*
D538*
X007230Y011622D03*
X003297Y012722D03*
X004763Y017238D03*
X007080Y018672D03*
D539*
X003080Y014272D03*
X007230Y011672D03*
X012030Y014572D03*
D540*
X011430Y013555D03*
X007230Y011705D03*
D541*
X007230Y011738D03*
D542*
X007239Y011955D03*
X003722Y016605D03*
X004922Y017805D03*
X010722Y016655D03*
D543*
X007230Y011972D03*
X004930Y017822D03*
D544*
X007230Y012005D03*
D545*
X007230Y012038D03*
D546*
X002630Y012088D03*
X003180Y016522D03*
D547*
X007239Y012122D03*
X012572Y015422D03*
D548*
X012247Y015905D03*
X011764Y016255D03*
X011697Y016305D03*
X011564Y016405D03*
X011497Y016455D03*
X005764Y014355D03*
X002547Y012205D03*
D549*
X006372Y015005D03*
X007239Y012205D03*
D550*
X002697Y012322D03*
D551*
X002747Y012355D03*
X002430Y013605D03*
D552*
X003138Y014255D03*
X003272Y012705D03*
D553*
X003397Y012788D03*
D554*
X003422Y012805D03*
D555*
X003605Y012922D03*
D556*
X003655Y012955D03*
D557*
X003688Y012972D03*
X007072Y018488D03*
D558*
X003772Y013022D03*
D559*
X005580Y013038D03*
D560*
X002547Y013055D03*
X002480Y013705D03*
X011413Y013205D03*
D561*
X011397Y013055D03*
X012147Y013855D03*
X010047Y016255D03*
X005397Y016105D03*
X003897Y013105D03*
D562*
X002530Y013072D03*
D563*
X008955Y014722D03*
X011405Y013122D03*
D564*
X002430Y013255D03*
D565*
X011422Y013255D03*
D566*
X008480Y014988D03*
X002430Y013288D03*
X002430Y013272D03*
D567*
X005555Y013372D03*
X005555Y013388D03*
X004955Y017872D03*
X009105Y017872D03*
D568*
X005530Y013455D03*
D569*
X011439Y013455D03*
D570*
X007105Y018822D03*
X005455Y013588D03*
D571*
X011405Y013655D03*
D572*
X009089Y017905D03*
X005372Y013705D03*
D573*
X011397Y013722D03*
D574*
X005330Y013738D03*
D575*
X004739Y017122D03*
X011389Y013738D03*
D576*
X011389Y013755D03*
D577*
X011380Y013772D03*
D578*
X003939Y013788D03*
X003939Y013822D03*
D579*
X003939Y013805D03*
D580*
X012839Y013805D03*
D581*
X012864Y013822D03*
X013047Y014072D03*
D582*
X003930Y013872D03*
X003930Y013838D03*
D583*
X007638Y015938D03*
X012888Y013838D03*
X012922Y013872D03*
X013005Y013988D03*
X013022Y014022D03*
D584*
X007213Y015555D03*
X003930Y013855D03*
D585*
X012905Y013855D03*
X013038Y014055D03*
D586*
X003922Y013972D03*
X003922Y013938D03*
X003922Y013922D03*
X003922Y013888D03*
D587*
X012930Y013888D03*
X012980Y013938D03*
D588*
X003922Y013955D03*
X003922Y013905D03*
D589*
X012947Y013905D03*
X013014Y014005D03*
D590*
X012997Y013972D03*
X012964Y013922D03*
D591*
X010489Y013955D03*
D592*
X012980Y013955D03*
D593*
X007222Y015538D03*
X003922Y014088D03*
X003922Y014072D03*
X003922Y014038D03*
X003922Y014022D03*
X003922Y013988D03*
D594*
X003922Y014005D03*
X003922Y014055D03*
X003922Y014105D03*
D595*
X010430Y014005D03*
D596*
X013030Y014038D03*
D597*
X013055Y014088D03*
D598*
X013055Y014105D03*
D599*
X003930Y014122D03*
D600*
X003547Y014138D03*
X007230Y015272D03*
D601*
X003489Y014155D03*
D602*
X002822Y016055D03*
X005722Y014155D03*
D603*
X007238Y015188D03*
X004705Y016872D03*
X007072Y018572D03*
X003438Y014172D03*
D604*
X002955Y016238D03*
X003055Y016372D03*
X005755Y014322D03*
X010255Y016472D03*
X011405Y016522D03*
D605*
X002430Y014455D03*
D606*
X009280Y014505D03*
D607*
X002255Y014888D03*
X002205Y014738D03*
X002205Y014722D03*
X002155Y014538D03*
D608*
X002172Y014605D03*
X002189Y014655D03*
X002222Y014805D03*
D609*
X012055Y014605D03*
D610*
X012605Y015522D03*
X009105Y014622D03*
D611*
X012139Y014705D03*
X005672Y015955D03*
D612*
X002205Y014755D03*
D613*
X004822Y017488D03*
X009372Y017422D03*
X012189Y014772D03*
D614*
X012580Y015438D03*
X008580Y014938D03*
D615*
X008455Y015005D03*
X012572Y015405D03*
D616*
X009030Y018005D03*
X008880Y018105D03*
X008330Y015055D03*
D617*
X007339Y015105D03*
D618*
X003830Y016722D03*
X012430Y015122D03*
D619*
X007264Y015155D03*
D620*
X007230Y015288D03*
D621*
X007230Y015305D03*
D622*
X010180Y016388D03*
X002530Y015538D03*
X002480Y015438D03*
X002480Y015422D03*
X002430Y015338D03*
X002430Y015322D03*
D623*
X007230Y015322D03*
D624*
X007222Y015338D03*
D625*
X007230Y015355D03*
D626*
X007222Y015372D03*
D627*
X009005Y018038D03*
X012555Y015372D03*
D628*
X007230Y015388D03*
D629*
X007222Y015405D03*
D630*
X007222Y015422D03*
D631*
X007222Y015438D03*
D632*
X007222Y015455D03*
D633*
X007214Y015472D03*
X007064Y018388D03*
D634*
X007222Y015488D03*
D635*
X007214Y015505D03*
D636*
X007213Y015522D03*
D637*
X007222Y015572D03*
D638*
X007213Y015588D03*
D639*
X007214Y015605D03*
D640*
X007213Y015622D03*
X007047Y018272D03*
D641*
X007214Y015638D03*
D642*
X007205Y015655D03*
D643*
X007214Y015672D03*
D644*
X007205Y015688D03*
D645*
X007205Y015705D03*
D646*
X007205Y015722D03*
D647*
X007205Y015738D03*
D648*
X007205Y015755D03*
D649*
X007205Y015772D03*
D650*
X008339Y015788D03*
X009522Y017172D03*
D651*
X005830Y015805D03*
D652*
X008380Y015805D03*
D653*
X009389Y017405D03*
X005772Y015855D03*
D654*
X008489Y015855D03*
D655*
X002730Y015905D03*
D656*
X008880Y015905D03*
D657*
X006455Y016088D03*
X002855Y016088D03*
X002805Y016022D03*
X002755Y015938D03*
D658*
X004505Y016072D03*
D659*
X004855Y017588D03*
X009005Y016072D03*
X009305Y017538D03*
D660*
X002855Y016105D03*
D661*
X009030Y016105D03*
D662*
X009980Y016205D03*
D663*
X011630Y016355D03*
X011830Y016205D03*
X003080Y016405D03*
D664*
X006472Y016255D03*
D665*
X008105Y016305D03*
D666*
X008105Y016355D03*
X019455Y019655D03*
D667*
X003780Y016672D03*
D668*
X008580Y018205D03*
X010680Y016705D03*
D669*
X006205Y016755D03*
D670*
X010605Y016772D03*
D671*
X004697Y016805D03*
D672*
X008230Y016855D03*
D673*
X009672Y016905D03*
D674*
X009647Y016955D03*
D675*
X009639Y016972D03*
D676*
X004730Y017022D03*
D677*
X004730Y017055D03*
D678*
X009572Y017088D03*
D679*
X004755Y017205D03*
D680*
X004772Y017288D03*
X009489Y017222D03*
D681*
X009489Y017238D03*
X007089Y018688D03*
D682*
X007089Y018705D03*
X009439Y017305D03*
D683*
X004780Y017322D03*
D684*
X009180Y017755D03*
D685*
X009147Y017805D03*
X007097Y018805D03*
X005197Y018005D03*
D686*
X009005Y018055D03*
D687*
X005755Y018222D03*
D688*
X007047Y018255D03*
D689*
X007055Y018288D03*
D690*
X007055Y018305D03*
D691*
X007055Y018322D03*
D692*
X007064Y018338D03*
D693*
X007063Y018355D03*
D694*
X007064Y018372D03*
D695*
X007063Y018405D03*
D696*
X007064Y018438D03*
D697*
X007064Y018472D03*
D698*
X007064Y018505D03*
D699*
X007072Y018522D03*
D700*
X007072Y018555D03*
D701*
X007080Y018588D03*
D702*
X007080Y018605D03*
D703*
X010397Y019788D03*
D704*
X010397Y019805D03*
D705*
X010397Y019838D03*
D706*
X010397Y019855D03*
D707*
X010397Y019872D03*
D708*
X010397Y019888D03*
M02*
