G75*
G70*
%OFA0B0*%
%FSLAX24Y24*%
%IPPOS*%
%LPD*%
%AMOC8*
5,1,8,0,0,1.08239X$1,22.5*
%
%ADD10C,0.0000*%
%ADD11C,0.0060*%
%ADD12C,0.0100*%
%ADD13C,0.0020*%
%ADD14R,1.7233X0.0017*%
%ADD15R,1.7433X0.0017*%
%ADD16R,1.7567X0.0017*%
%ADD17R,1.7667X0.0017*%
%ADD18R,1.7767X0.0017*%
%ADD19R,1.7833X0.0017*%
%ADD20R,1.7900X0.0017*%
%ADD21R,0.0334X0.0017*%
%ADD22R,0.0333X0.0017*%
%ADD23R,0.0300X0.0017*%
%ADD24R,0.0250X0.0017*%
%ADD25R,0.0233X0.0017*%
%ADD26R,0.0217X0.0017*%
%ADD27R,0.0200X0.0017*%
%ADD28R,0.0200X0.0017*%
%ADD29R,0.0183X0.0017*%
%ADD30R,0.0184X0.0017*%
%ADD31R,0.0183X0.0017*%
%ADD32R,0.0167X0.0017*%
%ADD33R,0.0166X0.0017*%
%ADD34R,0.0167X0.0017*%
%ADD35R,0.0166X0.0017*%
%ADD36R,0.0150X0.0017*%
%ADD37R,0.0150X0.0017*%
%ADD38R,0.0384X0.0017*%
%ADD39R,0.0133X0.0017*%
%ADD40R,0.0550X0.0017*%
%ADD41R,0.0134X0.0017*%
%ADD42R,0.0133X0.0017*%
%ADD43R,0.0683X0.0017*%
%ADD44R,0.0783X0.0017*%
%ADD45R,0.0883X0.0017*%
%ADD46R,0.0966X0.0017*%
%ADD47R,0.0134X0.0017*%
%ADD48R,0.1050X0.0017*%
%ADD49R,0.1117X0.0017*%
%ADD50R,0.1184X0.0017*%
%ADD51R,0.0117X0.0017*%
%ADD52R,0.1250X0.0017*%
%ADD53R,0.1316X0.0017*%
%ADD54R,0.0116X0.0017*%
%ADD55R,0.1367X0.0017*%
%ADD56R,0.1417X0.0017*%
%ADD57R,0.0117X0.0017*%
%ADD58R,0.1483X0.0017*%
%ADD59R,0.0116X0.0017*%
%ADD60R,0.1534X0.0017*%
%ADD61R,0.1583X0.0017*%
%ADD62R,0.1634X0.0017*%
%ADD63R,0.1683X0.0017*%
%ADD64R,0.1750X0.0017*%
%ADD65R,0.1783X0.0017*%
%ADD66R,0.1833X0.0017*%
%ADD67R,0.1883X0.0017*%
%ADD68R,0.1933X0.0017*%
%ADD69R,0.0100X0.0017*%
%ADD70R,0.1967X0.0017*%
%ADD71R,0.2033X0.0017*%
%ADD72R,0.2067X0.0017*%
%ADD73R,0.2100X0.0017*%
%ADD74R,0.2167X0.0017*%
%ADD75R,0.0100X0.0017*%
%ADD76R,0.2200X0.0017*%
%ADD77R,0.2250X0.0017*%
%ADD78R,0.2300X0.0017*%
%ADD79R,0.2333X0.0017*%
%ADD80R,0.2383X0.0017*%
%ADD81R,0.2417X0.0017*%
%ADD82R,0.2467X0.0017*%
%ADD83R,0.2517X0.0017*%
%ADD84R,0.2550X0.0017*%
%ADD85R,0.2600X0.0017*%
%ADD86R,0.2634X0.0017*%
%ADD87R,0.2666X0.0017*%
%ADD88R,0.2717X0.0017*%
%ADD89R,0.2750X0.0017*%
%ADD90R,0.2783X0.0017*%
%ADD91R,0.2833X0.0017*%
%ADD92R,0.2867X0.0017*%
%ADD93R,0.2900X0.0017*%
%ADD94R,0.2950X0.0017*%
%ADD95R,0.2984X0.0017*%
%ADD96R,0.3033X0.0017*%
%ADD97R,0.3067X0.0017*%
%ADD98R,0.3100X0.0017*%
%ADD99R,0.3150X0.0017*%
%ADD100R,0.3183X0.0017*%
%ADD101R,0.3217X0.0017*%
%ADD102R,0.3266X0.0017*%
%ADD103R,0.3300X0.0017*%
%ADD104R,0.0900X0.0017*%
%ADD105R,0.2367X0.0017*%
%ADD106R,0.0917X0.0017*%
%ADD107R,0.0900X0.0017*%
%ADD108R,0.2350X0.0017*%
%ADD109R,0.2350X0.0017*%
%ADD110R,0.2316X0.0017*%
%ADD111R,0.2300X0.0017*%
%ADD112R,0.0916X0.0017*%
%ADD113R,0.2266X0.0017*%
%ADD114R,0.0916X0.0017*%
%ADD115R,0.2267X0.0017*%
%ADD116R,0.0917X0.0017*%
%ADD117R,0.2233X0.0017*%
%ADD118R,0.2217X0.0017*%
%ADD119R,0.2184X0.0017*%
%ADD120R,0.2183X0.0017*%
%ADD121R,0.2150X0.0017*%
%ADD122R,0.2150X0.0017*%
%ADD123R,0.2134X0.0017*%
%ADD124R,0.2116X0.0017*%
%ADD125R,0.2117X0.0017*%
%ADD126R,0.2083X0.0017*%
%ADD127R,0.2084X0.0017*%
%ADD128R,0.2067X0.0017*%
%ADD129R,0.2050X0.0017*%
%ADD130R,0.2033X0.0017*%
%ADD131R,0.2017X0.0017*%
%ADD132R,0.2000X0.0017*%
%ADD133R,0.2000X0.0017*%
%ADD134R,0.1983X0.0017*%
%ADD135R,0.1966X0.0017*%
%ADD136R,0.1950X0.0017*%
%ADD137R,0.1933X0.0017*%
%ADD138R,0.1917X0.0017*%
%ADD139R,0.1900X0.0017*%
%ADD140R,0.1884X0.0017*%
%ADD141R,0.1866X0.0017*%
%ADD142R,0.1850X0.0017*%
%ADD143R,0.1850X0.0017*%
%ADD144R,0.1817X0.0017*%
%ADD145R,0.1800X0.0017*%
%ADD146R,0.1800X0.0017*%
%ADD147R,0.0884X0.0017*%
%ADD148R,0.1767X0.0017*%
%ADD149R,0.1750X0.0017*%
%ADD150R,0.1733X0.0017*%
%ADD151R,0.0883X0.0017*%
%ADD152R,0.1716X0.0017*%
%ADD153R,0.1700X0.0017*%
%ADD154R,0.1667X0.0017*%
%ADD155R,0.1633X0.0017*%
%ADD156R,0.1634X0.0017*%
%ADD157R,0.1617X0.0017*%
%ADD158R,0.1584X0.0017*%
%ADD159R,0.1567X0.0017*%
%ADD160R,0.0967X0.0017*%
%ADD161R,0.1550X0.0017*%
%ADD162R,0.1017X0.0017*%
%ADD163R,0.1533X0.0017*%
%ADD164R,0.1516X0.0017*%
%ADD165R,0.1100X0.0017*%
%ADD166R,0.1483X0.0017*%
%ADD167R,0.1150X0.0017*%
%ADD168R,0.1466X0.0017*%
%ADD169R,0.1200X0.0017*%
%ADD170R,0.1433X0.0017*%
%ADD171R,0.1233X0.0017*%
%ADD172R,0.1283X0.0017*%
%ADD173R,0.1417X0.0017*%
%ADD174R,0.1333X0.0017*%
%ADD175R,0.1383X0.0017*%
%ADD176R,0.1333X0.0017*%
%ADD177R,0.1467X0.0017*%
%ADD178R,0.1317X0.0017*%
%ADD179R,0.1500X0.0017*%
%ADD180R,0.1300X0.0017*%
%ADD181R,0.1550X0.0017*%
%ADD182R,0.1267X0.0017*%
%ADD183R,0.1600X0.0017*%
%ADD184R,0.1633X0.0017*%
%ADD185R,0.1200X0.0017*%
%ADD186R,0.1183X0.0017*%
%ADD187R,0.1150X0.0017*%
%ADD188R,0.1833X0.0017*%
%ADD189R,0.1133X0.0017*%
%ADD190R,0.1867X0.0017*%
%ADD191R,0.1117X0.0017*%
%ADD192R,0.1900X0.0017*%
%ADD193R,0.1083X0.0017*%
%ADD194R,0.1967X0.0017*%
%ADD195R,0.1067X0.0017*%
%ADD196R,0.1033X0.0017*%
%ADD197R,0.1017X0.0017*%
%ADD198R,0.2100X0.0017*%
%ADD199R,0.1000X0.0017*%
%ADD200R,0.2133X0.0017*%
%ADD201R,0.2184X0.0017*%
%ADD202R,0.0950X0.0017*%
%ADD203R,0.2267X0.0017*%
%ADD204R,0.2333X0.0017*%
%ADD205R,0.0866X0.0017*%
%ADD206R,0.2367X0.0017*%
%ADD207R,0.0833X0.0017*%
%ADD208R,0.2400X0.0017*%
%ADD209R,0.0800X0.0017*%
%ADD210R,0.2467X0.0017*%
%ADD211R,0.0784X0.0017*%
%ADD212R,0.2500X0.0017*%
%ADD213R,0.0800X0.0017*%
%ADD214R,0.2600X0.0017*%
%ADD215R,0.0833X0.0017*%
%ADD216R,0.2633X0.0017*%
%ADD217R,0.0850X0.0017*%
%ADD218R,0.2684X0.0017*%
%ADD219R,0.2733X0.0017*%
%ADD220R,0.2767X0.0017*%
%ADD221R,0.0884X0.0017*%
%ADD222R,0.2816X0.0017*%
%ADD223R,0.2900X0.0017*%
%ADD224R,0.0933X0.0017*%
%ADD225R,0.2950X0.0017*%
%ADD226R,0.3000X0.0017*%
%ADD227R,0.3050X0.0017*%
%ADD228R,0.0984X0.0017*%
%ADD229R,0.3084X0.0017*%
%ADD230R,0.0983X0.0017*%
%ADD231R,0.3133X0.0017*%
%ADD232R,0.1000X0.0017*%
%ADD233R,0.3184X0.0017*%
%ADD234R,0.1016X0.0017*%
%ADD235R,0.3216X0.0017*%
%ADD236R,0.3267X0.0017*%
%ADD237R,0.3316X0.0017*%
%ADD238R,0.1033X0.0017*%
%ADD239R,0.3350X0.0017*%
%ADD240R,0.3400X0.0017*%
%ADD241R,0.1067X0.0017*%
%ADD242R,0.3450X0.0017*%
%ADD243R,0.3484X0.0017*%
%ADD244R,0.1066X0.0017*%
%ADD245R,0.3550X0.0017*%
%ADD246R,0.1084X0.0017*%
%ADD247R,0.2117X0.0017*%
%ADD248R,0.0867X0.0017*%
%ADD249R,0.0334X0.0017*%
%ADD250R,0.1066X0.0017*%
%ADD251R,0.2066X0.0017*%
%ADD252R,0.0733X0.0017*%
%ADD253R,0.0667X0.0017*%
%ADD254R,0.0284X0.0017*%
%ADD255R,0.0866X0.0017*%
%ADD256R,0.1134X0.0017*%
%ADD257R,0.0600X0.0017*%
%ADD258R,0.0266X0.0017*%
%ADD259R,0.1083X0.0017*%
%ADD260R,0.0867X0.0017*%
%ADD261R,0.0567X0.0017*%
%ADD262R,0.0533X0.0017*%
%ADD263R,0.0283X0.0017*%
%ADD264R,0.0467X0.0017*%
%ADD265R,0.0267X0.0017*%
%ADD266R,0.1100X0.0017*%
%ADD267R,0.0433X0.0017*%
%ADD268R,0.0933X0.0017*%
%ADD269R,0.0400X0.0017*%
%ADD270R,0.0300X0.0017*%
%ADD271R,0.0367X0.0017*%
%ADD272R,0.0317X0.0017*%
%ADD273R,0.0333X0.0017*%
%ADD274R,0.1084X0.0017*%
%ADD275R,0.0767X0.0017*%
%ADD276R,0.0350X0.0017*%
%ADD277R,0.0734X0.0017*%
%ADD278R,0.0366X0.0017*%
%ADD279R,0.0717X0.0017*%
%ADD280R,0.0383X0.0017*%
%ADD281R,0.0267X0.0017*%
%ADD282R,0.0400X0.0017*%
%ADD283R,0.0650X0.0017*%
%ADD284R,0.0417X0.0017*%
%ADD285R,0.0633X0.0017*%
%ADD286R,0.0434X0.0017*%
%ADD287R,0.0600X0.0017*%
%ADD288R,0.0467X0.0017*%
%ADD289R,0.0583X0.0017*%
%ADD290R,0.0484X0.0017*%
%ADD291R,0.0500X0.0017*%
%ADD292R,0.0534X0.0017*%
%ADD293R,0.0517X0.0017*%
%ADD294R,0.0550X0.0017*%
%ADD295R,0.0483X0.0017*%
%ADD296R,0.0567X0.0017*%
%ADD297R,0.0850X0.0017*%
%ADD298R,0.0617X0.0017*%
%ADD299R,0.0417X0.0017*%
%ADD300R,0.0634X0.0017*%
%ADD301R,0.0700X0.0017*%
%ADD302R,0.0367X0.0017*%
%ADD303R,0.0716X0.0017*%
%ADD304R,0.0750X0.0017*%
%ADD305R,0.0316X0.0017*%
%ADD306R,0.0817X0.0017*%
%ADD307R,0.1934X0.0017*%
%ADD308R,0.1916X0.0017*%
%ADD309R,0.0284X0.0017*%
%ADD310R,0.0266X0.0017*%
%ADD311R,0.1883X0.0017*%
%ADD312R,0.0667X0.0017*%
%ADD313R,0.3367X0.0017*%
%ADD314R,0.3316X0.0017*%
%ADD315R,0.3216X0.0017*%
%ADD316R,0.3167X0.0017*%
%ADD317R,0.3084X0.0017*%
%ADD318R,0.2933X0.0017*%
%ADD319R,0.2850X0.0017*%
%ADD320R,0.2800X0.0017*%
%ADD321R,0.2767X0.0017*%
%ADD322R,0.2716X0.0017*%
%ADD323R,0.2667X0.0017*%
%ADD324R,0.2616X0.0017*%
%ADD325R,0.2567X0.0017*%
%ADD326R,0.2533X0.0017*%
%ADD327R,0.2484X0.0017*%
%ADD328R,0.2433X0.0017*%
%ADD329R,0.1050X0.0017*%
%ADD330R,0.2400X0.0017*%
%ADD331R,0.1183X0.0017*%
%ADD332R,0.2250X0.0017*%
%ADD333R,0.2200X0.0017*%
%ADD334R,0.1283X0.0017*%
%ADD335R,0.1317X0.0017*%
%ADD336R,0.2016X0.0017*%
%ADD337R,0.1467X0.0017*%
%ADD338R,0.1517X0.0017*%
%ADD339R,0.1617X0.0017*%
%ADD340R,0.1650X0.0017*%
%ADD341R,0.1784X0.0017*%
%ADD342R,0.1783X0.0017*%
%ADD343R,0.1567X0.0017*%
%ADD344R,0.1950X0.0017*%
%ADD345R,0.2017X0.0017*%
%ADD346R,0.1416X0.0017*%
%ADD347R,0.2234X0.0017*%
%ADD348R,0.2283X0.0017*%
%ADD349R,0.2317X0.0017*%
%ADD350R,0.2366X0.0017*%
%ADD351R,0.2417X0.0017*%
%ADD352R,0.2450X0.0017*%
%ADD353R,0.2500X0.0017*%
%ADD354R,0.2550X0.0017*%
%ADD355R,0.2683X0.0017*%
%ADD356R,0.2734X0.0017*%
%ADD357R,0.2766X0.0017*%
%ADD358R,0.2817X0.0017*%
%ADD359R,0.2866X0.0017*%
%ADD360R,0.2917X0.0017*%
%ADD361R,0.3050X0.0017*%
%ADD362R,0.3100X0.0017*%
%ADD363R,0.3134X0.0017*%
%ADD364R,0.3183X0.0017*%
%ADD365R,0.3234X0.0017*%
%ADD366R,0.3317X0.0017*%
%ADD367R,0.3366X0.0017*%
%ADD368R,0.3466X0.0017*%
%ADD369R,0.1983X0.0017*%
%ADD370R,0.1917X0.0017*%
%ADD371R,0.0617X0.0017*%
%ADD372R,0.1034X0.0017*%
%ADD373R,0.0316X0.0017*%
%ADD374R,0.0834X0.0017*%
%ADD375R,0.0966X0.0017*%
%ADD376R,0.0450X0.0017*%
%ADD377R,0.0350X0.0017*%
%ADD378R,0.0816X0.0017*%
%ADD379R,0.0383X0.0017*%
%ADD380R,0.0834X0.0017*%
%ADD381R,0.0750X0.0017*%
%ADD382R,0.0717X0.0017*%
%ADD383R,0.0434X0.0017*%
%ADD384R,0.0816X0.0017*%
%ADD385R,0.0650X0.0017*%
%ADD386R,0.0283X0.0017*%
%ADD387R,0.0433X0.0017*%
%ADD388R,0.0633X0.0017*%
%ADD389R,0.0483X0.0017*%
%ADD390R,0.0250X0.0017*%
%ADD391R,0.0516X0.0017*%
%ADD392R,0.0817X0.0017*%
%ADD393R,0.0616X0.0017*%
%ADD394R,0.0666X0.0017*%
%ADD395R,0.0366X0.0017*%
%ADD396R,0.0700X0.0017*%
%ADD397R,0.0317X0.0017*%
%ADD398R,0.0784X0.0017*%
%ADD399R,0.0233X0.0017*%
%ADD400R,0.0216X0.0017*%
%ADD401R,0.0217X0.0017*%
%ADD402R,0.0517X0.0017*%
%ADD403R,0.2034X0.0017*%
%ADD404R,0.3400X0.0017*%
%ADD405R,0.3367X0.0017*%
%ADD406R,0.3333X0.0017*%
%ADD407R,0.3267X0.0017*%
%ADD408R,0.3233X0.0017*%
%ADD409R,0.3133X0.0017*%
%ADD410R,0.3000X0.0017*%
%ADD411R,0.2933X0.0017*%
%ADD412R,0.2867X0.0017*%
%ADD413R,0.2800X0.0017*%
%ADD414R,0.2667X0.0017*%
%ADD415R,0.2633X0.0017*%
%ADD416R,0.2567X0.0017*%
%ADD417R,0.2533X0.0017*%
%ADD418R,0.0967X0.0017*%
%ADD419R,0.2433X0.0017*%
%ADD420R,0.1233X0.0017*%
%ADD421R,0.2167X0.0017*%
%ADD422R,0.1284X0.0017*%
%ADD423R,0.1367X0.0017*%
%ADD424R,0.1500X0.0017*%
%ADD425R,0.1650X0.0017*%
%ADD426R,0.1733X0.0017*%
%ADD427R,0.1700X0.0017*%
%ADD428R,0.1784X0.0017*%
%ADD429R,0.1600X0.0017*%
%ADD430R,0.1916X0.0017*%
%ADD431R,0.2050X0.0017*%
%ADD432R,0.2233X0.0017*%
%ADD433R,0.1133X0.0017*%
%ADD434R,0.2284X0.0017*%
%ADD435R,0.2316X0.0017*%
%ADD436R,0.2416X0.0017*%
%ADD437R,0.2450X0.0017*%
%ADD438R,0.2584X0.0017*%
%ADD439R,0.2650X0.0017*%
%ADD440R,0.2716X0.0017*%
%ADD441R,0.2784X0.0017*%
%ADD442R,0.2916X0.0017*%
%ADD443R,0.3016X0.0017*%
%ADD444R,0.3150X0.0017*%
%ADD445R,0.3184X0.0017*%
%ADD446R,0.3284X0.0017*%
%ADD447R,0.1966X0.0017*%
%ADD448R,0.0783X0.0017*%
%ADD449R,0.0616X0.0017*%
%ADD450R,0.0416X0.0017*%
%ADD451R,0.0466X0.0017*%
%ADD452R,0.0500X0.0017*%
%ADD453R,0.0566X0.0017*%
%ADD454R,0.0234X0.0017*%
%ADD455R,0.1984X0.0017*%
%ADD456R,0.3300X0.0017*%
%ADD457R,0.0767X0.0017*%
%ADD458R,0.3250X0.0017*%
%ADD459R,0.0766X0.0017*%
%ADD460R,0.3116X0.0017*%
%ADD461R,0.3067X0.0017*%
%ADD462R,0.3016X0.0017*%
%ADD463R,0.2984X0.0017*%
%ADD464R,0.2884X0.0017*%
%ADD465R,0.2700X0.0017*%
%ADD466R,0.2516X0.0017*%
%ADD467R,0.0950X0.0017*%
%ADD468R,0.2416X0.0017*%
%ADD469R,0.2384X0.0017*%
%ADD470R,0.2284X0.0017*%
%ADD471R,0.1217X0.0017*%
%ADD472R,0.1267X0.0017*%
%ADD473R,0.1350X0.0017*%
%ADD474R,0.2016X0.0017*%
%ADD475R,0.1400X0.0017*%
%ADD476R,0.1450X0.0017*%
%ADD477R,0.1867X0.0017*%
%ADD478R,0.1533X0.0017*%
%ADD479R,0.1816X0.0017*%
%ADD480R,0.1716X0.0017*%
%ADD481R,0.1684X0.0017*%
%ADD482R,0.1717X0.0017*%
%ADD483R,0.1767X0.0017*%
%ADD484R,0.1450X0.0017*%
%ADD485R,0.1416X0.0017*%
%ADD486R,0.1350X0.0017*%
%ADD487R,0.1216X0.0017*%
%ADD488R,0.1184X0.0017*%
%ADD489R,0.1116X0.0017*%
%ADD490R,0.2483X0.0017*%
%ADD491R,0.2967X0.0017*%
%ADD492R,0.3200X0.0017*%
%ADD493R,0.3384X0.0017*%
%ADD494R,0.3433X0.0017*%
%ADD495R,0.3467X0.0017*%
%ADD496R,0.3533X0.0017*%
%ADD497R,0.3567X0.0017*%
%ADD498R,0.3616X0.0017*%
%ADD499R,0.3667X0.0017*%
%ADD500R,0.3700X0.0017*%
%ADD501R,0.3750X0.0017*%
%ADD502R,0.3800X0.0017*%
%ADD503R,0.3833X0.0017*%
%ADD504R,0.3884X0.0017*%
%ADD505R,0.3933X0.0017*%
%ADD506R,0.3984X0.0017*%
%ADD507R,0.4016X0.0017*%
%ADD508R,0.1034X0.0017*%
%ADD509R,0.1834X0.0017*%
%ADD510R,0.1884X0.0017*%
%ADD511R,0.2083X0.0017*%
%ADD512R,0.2134X0.0017*%
%ADD513R,0.1984X0.0017*%
%ADD514R,0.4033X0.0017*%
%ADD515R,0.4000X0.0017*%
%ADD516R,0.3933X0.0017*%
%ADD517R,0.3900X0.0017*%
%ADD518R,0.3850X0.0017*%
%ADD519R,0.3800X0.0017*%
%ADD520R,0.3767X0.0017*%
%ADD521R,0.3667X0.0017*%
%ADD522R,0.3617X0.0017*%
%ADD523R,0.3517X0.0017*%
%ADD524R,0.3467X0.0017*%
%ADD525R,0.3417X0.0017*%
%ADD526R,0.3383X0.0017*%
%ADD527R,0.3317X0.0017*%
%ADD528R,0.0934X0.0017*%
%ADD529R,0.3283X0.0017*%
%ADD530R,0.3083X0.0017*%
%ADD531R,0.3034X0.0017*%
%ADD532R,0.2983X0.0017*%
%ADD533R,0.2934X0.0017*%
%ADD534R,0.2883X0.0017*%
%ADD535R,0.2834X0.0017*%
%ADD536R,0.2734X0.0017*%
%ADD537R,0.2700X0.0017*%
%ADD538R,0.2534X0.0017*%
%ADD539R,0.2434X0.0017*%
%ADD540R,0.2334X0.0017*%
%ADD541R,0.1717X0.0017*%
%ADD542R,0.1666X0.0017*%
%ADD543R,0.1566X0.0017*%
%ADD544R,0.1466X0.0017*%
%ADD545R,0.0766X0.0017*%
%ADD546R,0.1217X0.0017*%
%ADD547R,0.0733X0.0017*%
%ADD548R,0.0983X0.0017*%
%ADD549R,0.1167X0.0017*%
%ADD550R,0.1300X0.0017*%
%ADD551R,0.2650X0.0017*%
%ADD552R,0.2967X0.0017*%
%ADD553R,0.3017X0.0017*%
%ADD554R,0.3450X0.0017*%
%ADD555R,0.3584X0.0017*%
%ADD556R,0.3650X0.0017*%
%ADD557R,0.3817X0.0017*%
%ADD558R,0.2166X0.0017*%
%ADD559R,0.1400X0.0017*%
%ADD560R,0.0533X0.0017*%
%ADD561R,0.1366X0.0017*%
%ADD562R,0.1016X0.0017*%
%ADD563R,0.1234X0.0017*%
%ADD564R,0.1583X0.0017*%
%ADD565R,0.1234X0.0017*%
%ADD566R,0.1584X0.0017*%
%ADD567R,0.1534X0.0017*%
%ADD568R,0.2183X0.0017*%
%ADD569R,0.1484X0.0017*%
%ADD570R,0.2684X0.0017*%
%ADD571R,0.1517X0.0017*%
%ADD572R,0.2833X0.0017*%
%ADD573R,0.1566X0.0017*%
%ADD574R,0.2883X0.0017*%
%ADD575R,0.2917X0.0017*%
%ADD576R,0.2966X0.0017*%
%ADD577R,0.4317X0.0017*%
%ADD578R,0.4317X0.0017*%
%ADD579R,0.0083X0.0017*%
%ADD580R,0.0067X0.0017*%
%ADD581R,0.4300X0.0017*%
%ADD582R,0.0050X0.0017*%
%ADD583R,0.4300X0.0017*%
%ADD584R,0.0050X0.0017*%
%ADD585R,0.4283X0.0017*%
%ADD586R,0.0034X0.0017*%
%ADD587R,0.4283X0.0017*%
%ADD588R,0.0033X0.0017*%
%ADD589R,0.0033X0.0017*%
%ADD590R,0.1683X0.0017*%
%ADD591R,0.0034X0.0017*%
%ADD592R,0.4250X0.0017*%
%ADD593R,0.4250X0.0017*%
%ADD594R,0.1734X0.0017*%
%ADD595R,0.0066X0.0017*%
%ADD596R,0.0084X0.0017*%
%ADD597R,0.0084X0.0017*%
%ADD598R,0.4266X0.0017*%
%ADD599R,0.3500X0.0017*%
%ADD600R,0.3383X0.0017*%
%ADD601R,0.0683X0.0017*%
%ADD602R,0.3250X0.0017*%
%ADD603R,0.0716X0.0017*%
%ADD604R,0.1166X0.0017*%
%ADD605R,0.0934X0.0017*%
%ADD606R,0.0584X0.0017*%
%ADD607R,0.0583X0.0017*%
%ADD608R,0.2484X0.0017*%
%ADD609R,0.0984X0.0017*%
%ADD610R,0.2383X0.0017*%
%ADD611R,0.0584X0.0017*%
%ADD612R,0.2283X0.0017*%
%ADD613R,0.1166X0.0017*%
%ADD614R,0.1250X0.0017*%
%ADD615R,0.1366X0.0017*%
%ADD616R,0.3217X0.0017*%
%ADD617R,0.1766X0.0017*%
%ADD618R,0.3233X0.0017*%
%ADD619R,0.3534X0.0017*%
%ADD620R,0.3600X0.0017*%
%ADD621R,0.0634X0.0017*%
%ADD622R,0.3634X0.0017*%
%ADD623R,0.3683X0.0017*%
%ADD624R,0.3734X0.0017*%
%ADD625R,0.3783X0.0017*%
%ADD626R,0.1316X0.0017*%
%ADD627R,0.3834X0.0017*%
%ADD628R,0.3883X0.0017*%
%ADD629R,0.3917X0.0017*%
%ADD630R,0.3983X0.0017*%
%ADD631R,0.4017X0.0017*%
%ADD632R,0.4067X0.0017*%
%ADD633R,0.4117X0.0017*%
%ADD634R,0.4167X0.0017*%
%ADD635R,0.4200X0.0017*%
%ADD636R,0.4350X0.0017*%
%ADD637R,0.4400X0.0017*%
%ADD638R,0.4433X0.0017*%
%ADD639R,0.4500X0.0017*%
%ADD640R,0.4533X0.0017*%
%ADD641R,0.4584X0.0017*%
%ADD642R,0.4633X0.0017*%
%ADD643R,0.4684X0.0017*%
%ADD644R,0.4716X0.0017*%
%ADD645R,0.4784X0.0017*%
%ADD646R,0.4816X0.0017*%
%ADD647R,0.4884X0.0017*%
%ADD648R,0.4916X0.0017*%
%ADD649R,0.2683X0.0017*%
%ADD650R,0.2266X0.0017*%
%ADD651R,0.2666X0.0017*%
%ADD652R,0.2317X0.0017*%
%ADD653R,0.2583X0.0017*%
%ADD654R,0.0666X0.0017*%
%ADD655R,0.1934X0.0017*%
%ADD656R,0.0684X0.0017*%
%ADD657R,0.0416X0.0017*%
%ADD658R,0.2116X0.0017*%
%ADD659R,0.0684X0.0017*%
%ADD660R,0.2166X0.0017*%
%ADD661R,0.0534X0.0017*%
%ADD662R,0.0734X0.0017*%
%ADD663R,0.0450X0.0017*%
%ADD664R,0.0216X0.0017*%
%ADD665R,0.0184X0.0017*%
%ADD666R,0.1734X0.0017*%
%ADD667R,0.1666X0.0017*%
%ADD668R,0.0384X0.0017*%
%ADD669R,0.1616X0.0017*%
%ADD670R,0.3333X0.0017*%
%ADD671R,0.0234X0.0017*%
%ADD672R,0.3117X0.0017*%
%ADD673R,0.3033X0.0017*%
%ADD674R,0.3017X0.0017*%
%ADD675R,0.3034X0.0017*%
%ADD676R,0.2966X0.0017*%
%ADD677R,0.2817X0.0017*%
%ADD678R,0.2750X0.0017*%
%ADD679R,0.2617X0.0017*%
%ADD680R,0.2583X0.0017*%
%ADD681R,0.2483X0.0017*%
%ADD682R,0.2566X0.0017*%
%ADD683R,0.1766X0.0017*%
%ADD684R,0.1667X0.0017*%
%ADD685R,0.1284X0.0017*%
%ADD686R,0.2084X0.0017*%
%ADD687R,0.4567X0.0017*%
%ADD688R,0.4450X0.0017*%
%ADD689R,0.4384X0.0017*%
%ADD690R,0.4316X0.0017*%
%ADD691R,0.4267X0.0017*%
%ADD692R,0.4200X0.0017*%
%ADD693R,0.4133X0.0017*%
%ADD694R,0.4000X0.0017*%
%ADD695R,0.3867X0.0017*%
%ADD696R,0.3733X0.0017*%
%ADD697R,0.3567X0.0017*%
%ADD698R,0.3483X0.0017*%
%ADD699R,0.3350X0.0017*%
%ADD700R,0.3166X0.0017*%
%ADD701R,0.3066X0.0017*%
%ADD702R,1.7900X0.0017*%
%ADD703R,1.7833X0.0017*%
%ADD704R,1.7667X0.0017*%
%ADD705R,1.7600X0.0017*%
%ADD706R,1.7467X0.0017*%
%ADD707R,1.7267X0.0017*%
D10*
X000559Y001809D02*
X000559Y018994D01*
X000561Y019062D01*
X000566Y019129D01*
X000575Y019196D01*
X000588Y019263D01*
X000605Y019328D01*
X000624Y019393D01*
X000648Y019457D01*
X000675Y019519D01*
X000705Y019580D01*
X000738Y019638D01*
X000774Y019695D01*
X000814Y019750D01*
X000856Y019803D01*
X000902Y019854D01*
X000949Y019901D01*
X001000Y019947D01*
X001053Y019989D01*
X001108Y020029D01*
X001165Y020065D01*
X001223Y020098D01*
X001284Y020128D01*
X001346Y020155D01*
X001410Y020179D01*
X001475Y020198D01*
X001540Y020215D01*
X001607Y020228D01*
X001674Y020237D01*
X001741Y020242D01*
X001809Y020244D01*
X018994Y020244D01*
X019062Y020242D01*
X019129Y020237D01*
X019196Y020228D01*
X019263Y020215D01*
X019328Y020198D01*
X019393Y020179D01*
X019457Y020155D01*
X019519Y020128D01*
X019580Y020098D01*
X019638Y020065D01*
X019695Y020029D01*
X019750Y019989D01*
X019803Y019947D01*
X019854Y019901D01*
X019901Y019854D01*
X019947Y019803D01*
X019989Y019750D01*
X020029Y019695D01*
X020065Y019638D01*
X020098Y019580D01*
X020128Y019519D01*
X020155Y019457D01*
X020179Y019393D01*
X020198Y019328D01*
X020215Y019263D01*
X020228Y019196D01*
X020237Y019129D01*
X020242Y019062D01*
X020244Y018994D01*
X020244Y001809D01*
X020242Y001741D01*
X020237Y001674D01*
X020228Y001607D01*
X020215Y001540D01*
X020198Y001475D01*
X020179Y001410D01*
X020155Y001346D01*
X020128Y001284D01*
X020098Y001223D01*
X020065Y001165D01*
X020029Y001108D01*
X019989Y001053D01*
X019947Y001000D01*
X019901Y000949D01*
X019854Y000902D01*
X019803Y000856D01*
X019750Y000814D01*
X019695Y000774D01*
X019638Y000738D01*
X019580Y000705D01*
X019519Y000675D01*
X019457Y000648D01*
X019393Y000624D01*
X019328Y000605D01*
X019263Y000588D01*
X019196Y000575D01*
X019129Y000566D01*
X019062Y000561D01*
X018994Y000559D01*
X001809Y000559D01*
X001741Y000561D01*
X001674Y000566D01*
X001607Y000575D01*
X001540Y000588D01*
X001475Y000605D01*
X001410Y000624D01*
X001346Y000648D01*
X001284Y000675D01*
X001223Y000705D01*
X001165Y000738D01*
X001108Y000774D01*
X001053Y000814D01*
X001000Y000856D01*
X000949Y000902D01*
X000902Y000949D01*
X000856Y001000D01*
X000814Y001053D01*
X000774Y001108D01*
X000738Y001165D01*
X000705Y001223D01*
X000675Y001284D01*
X000648Y001346D01*
X000624Y001410D01*
X000605Y001475D01*
X000588Y001540D01*
X000575Y001607D01*
X000566Y001674D01*
X000561Y001741D01*
X000559Y001809D01*
X002179Y018151D02*
X002181Y018194D01*
X002187Y018236D01*
X002197Y018278D01*
X002210Y018319D01*
X002227Y018359D01*
X002248Y018396D01*
X002272Y018432D01*
X002299Y018465D01*
X002329Y018496D01*
X002362Y018524D01*
X002397Y018549D01*
X002434Y018570D01*
X002473Y018588D01*
X002513Y018602D01*
X002555Y018613D01*
X002597Y018620D01*
X002640Y018623D01*
X002683Y018622D01*
X002726Y018617D01*
X002768Y018608D01*
X002809Y018596D01*
X002849Y018580D01*
X002887Y018560D01*
X002923Y018537D01*
X002957Y018510D01*
X002989Y018481D01*
X003017Y018449D01*
X003043Y018414D01*
X003065Y018378D01*
X003084Y018339D01*
X003099Y018299D01*
X003111Y018258D01*
X003119Y018215D01*
X003123Y018172D01*
X003123Y018130D01*
X003119Y018087D01*
X003111Y018044D01*
X003099Y018003D01*
X003084Y017963D01*
X003065Y017924D01*
X003043Y017888D01*
X003017Y017853D01*
X002989Y017821D01*
X002957Y017792D01*
X002923Y017765D01*
X002887Y017742D01*
X002849Y017722D01*
X002809Y017706D01*
X002768Y017694D01*
X002726Y017685D01*
X002683Y017680D01*
X002640Y017679D01*
X002597Y017682D01*
X002555Y017689D01*
X002513Y017700D01*
X002473Y017714D01*
X002434Y017732D01*
X002397Y017753D01*
X002362Y017778D01*
X002329Y017806D01*
X002299Y017837D01*
X002272Y017870D01*
X002248Y017906D01*
X002227Y017943D01*
X002210Y017983D01*
X002197Y018024D01*
X002187Y018066D01*
X002181Y018108D01*
X002179Y018151D01*
X017679Y018151D02*
X017681Y018194D01*
X017687Y018236D01*
X017697Y018278D01*
X017710Y018319D01*
X017727Y018359D01*
X017748Y018396D01*
X017772Y018432D01*
X017799Y018465D01*
X017829Y018496D01*
X017862Y018524D01*
X017897Y018549D01*
X017934Y018570D01*
X017973Y018588D01*
X018013Y018602D01*
X018055Y018613D01*
X018097Y018620D01*
X018140Y018623D01*
X018183Y018622D01*
X018226Y018617D01*
X018268Y018608D01*
X018309Y018596D01*
X018349Y018580D01*
X018387Y018560D01*
X018423Y018537D01*
X018457Y018510D01*
X018489Y018481D01*
X018517Y018449D01*
X018543Y018414D01*
X018565Y018378D01*
X018584Y018339D01*
X018599Y018299D01*
X018611Y018258D01*
X018619Y018215D01*
X018623Y018172D01*
X018623Y018130D01*
X018619Y018087D01*
X018611Y018044D01*
X018599Y018003D01*
X018584Y017963D01*
X018565Y017924D01*
X018543Y017888D01*
X018517Y017853D01*
X018489Y017821D01*
X018457Y017792D01*
X018423Y017765D01*
X018387Y017742D01*
X018349Y017722D01*
X018309Y017706D01*
X018268Y017694D01*
X018226Y017685D01*
X018183Y017680D01*
X018140Y017679D01*
X018097Y017682D01*
X018055Y017689D01*
X018013Y017700D01*
X017973Y017714D01*
X017934Y017732D01*
X017897Y017753D01*
X017862Y017778D01*
X017829Y017806D01*
X017799Y017837D01*
X017772Y017870D01*
X017748Y017906D01*
X017727Y017943D01*
X017710Y017983D01*
X017697Y018024D01*
X017687Y018066D01*
X017681Y018108D01*
X017679Y018151D01*
D11*
X017246Y018456D02*
X017019Y018456D01*
X016878Y018456D02*
X016651Y018456D01*
X016510Y018456D02*
X016340Y018456D01*
X016283Y018513D01*
X016283Y018740D01*
X016340Y018797D01*
X016510Y018797D01*
X016510Y018456D01*
X016765Y018626D02*
X016878Y018626D01*
X016878Y018456D02*
X016878Y018797D01*
X016651Y018797D01*
X017246Y018797D02*
X017246Y018456D01*
X016141Y018513D02*
X016085Y018456D01*
X015971Y018456D01*
X015914Y018513D01*
X015914Y018626D01*
X015971Y018683D01*
X016028Y018683D01*
X016141Y018626D01*
X016141Y018797D01*
X015914Y018797D01*
X014000Y016658D02*
X013970Y016623D01*
X013939Y016590D01*
X013904Y016560D01*
X013868Y016533D01*
X013830Y016509D01*
X013790Y016487D01*
X013748Y016469D01*
X013705Y016453D01*
X013661Y016441D01*
X013617Y016433D01*
X013571Y016428D01*
X013526Y016426D01*
X013481Y016428D01*
X013435Y016433D01*
X013391Y016441D01*
X013347Y016453D01*
X013304Y016469D01*
X013262Y016487D01*
X013222Y016509D01*
X013184Y016533D01*
X013148Y016560D01*
X013113Y016590D01*
X013082Y016623D01*
X013052Y016658D01*
X013526Y017626D02*
X013572Y017624D01*
X013618Y017619D01*
X013664Y017610D01*
X013709Y017598D01*
X013752Y017582D01*
X013794Y017563D01*
X013835Y017540D01*
X013874Y017515D01*
X013910Y017487D01*
X013945Y017456D01*
X013977Y017422D01*
X014006Y017386D01*
X013526Y017626D02*
X013479Y017624D01*
X013431Y017618D01*
X013385Y017609D01*
X013339Y017596D01*
X013295Y017580D01*
X013251Y017560D01*
X013210Y017536D01*
X013171Y017510D01*
X013134Y017480D01*
X013099Y017447D01*
X013067Y017412D01*
X013038Y017375D01*
X012250Y016158D02*
X012220Y016123D01*
X012189Y016090D01*
X012154Y016060D01*
X012118Y016033D01*
X012080Y016009D01*
X012040Y015987D01*
X011998Y015969D01*
X011955Y015953D01*
X011911Y015941D01*
X011867Y015933D01*
X011821Y015928D01*
X011776Y015926D01*
X011731Y015928D01*
X011685Y015933D01*
X011641Y015941D01*
X011597Y015953D01*
X011554Y015969D01*
X011512Y015987D01*
X011472Y016009D01*
X011434Y016033D01*
X011398Y016060D01*
X011363Y016090D01*
X011332Y016123D01*
X011302Y016158D01*
X011776Y017126D02*
X011822Y017124D01*
X011868Y017119D01*
X011914Y017110D01*
X011959Y017098D01*
X012002Y017082D01*
X012044Y017063D01*
X012085Y017040D01*
X012124Y017015D01*
X012160Y016987D01*
X012195Y016956D01*
X012227Y016922D01*
X012256Y016886D01*
X011776Y017126D02*
X011729Y017124D01*
X011681Y017118D01*
X011635Y017109D01*
X011589Y017096D01*
X011545Y017080D01*
X011501Y017060D01*
X011460Y017036D01*
X011421Y017010D01*
X011384Y016980D01*
X011349Y016947D01*
X011317Y016912D01*
X011288Y016875D01*
X010496Y017706D02*
X010269Y017706D01*
X010128Y017706D02*
X010128Y018047D01*
X009901Y018047D01*
X009760Y018047D02*
X009760Y017706D01*
X009590Y017706D01*
X009533Y017763D01*
X009533Y017990D01*
X009590Y018047D01*
X009760Y018047D01*
X009901Y017706D02*
X010128Y017706D01*
X010128Y017876D02*
X010015Y017876D01*
X010496Y018047D02*
X010496Y017706D01*
X010465Y018331D02*
X010408Y018388D01*
X010408Y018615D01*
X010465Y018672D01*
X010635Y018672D01*
X010635Y018331D01*
X010465Y018331D01*
X010266Y018501D02*
X010039Y018501D01*
X010096Y018331D02*
X010096Y018672D01*
X010266Y018501D01*
X010776Y018331D02*
X011003Y018331D01*
X011003Y018672D01*
X010776Y018672D01*
X010890Y018501D02*
X011003Y018501D01*
X011144Y018331D02*
X011371Y018331D01*
X011371Y018672D01*
X009391Y017990D02*
X009335Y018047D01*
X009221Y018047D01*
X009164Y017990D01*
X009164Y017933D01*
X009221Y017876D01*
X009164Y017820D01*
X009164Y017763D01*
X009221Y017706D01*
X009335Y017706D01*
X009391Y017763D01*
X009278Y017876D02*
X009221Y017876D01*
X008871Y016922D02*
X008871Y016581D01*
X008644Y016581D01*
X008503Y016581D02*
X008276Y016581D01*
X008135Y016581D02*
X007965Y016581D01*
X007908Y016638D01*
X007908Y016865D01*
X007965Y016922D01*
X008135Y016922D01*
X008135Y016581D01*
X008390Y016751D02*
X008503Y016751D01*
X008503Y016581D02*
X008503Y016922D01*
X008276Y016922D01*
X007766Y016865D02*
X007710Y016922D01*
X007596Y016922D01*
X007539Y016865D01*
X007539Y016808D01*
X007766Y016581D01*
X007539Y016581D01*
X007371Y015172D02*
X007371Y014831D01*
X007144Y014831D01*
X007003Y014831D02*
X007003Y015172D01*
X006776Y015172D01*
X006635Y015172D02*
X006635Y014831D01*
X006465Y014831D01*
X006408Y014888D01*
X006408Y015115D01*
X006465Y015172D01*
X006635Y015172D01*
X006776Y014831D02*
X007003Y014831D01*
X007003Y015001D02*
X006890Y015001D01*
X006266Y015058D02*
X006153Y015172D01*
X006153Y014831D01*
X006266Y014831D02*
X006039Y014831D01*
X008651Y013551D02*
X008696Y013553D01*
X008742Y013558D01*
X008786Y013566D01*
X008830Y013578D01*
X008873Y013594D01*
X008915Y013612D01*
X008955Y013634D01*
X008993Y013658D01*
X009029Y013685D01*
X009064Y013715D01*
X009095Y013748D01*
X009125Y013783D01*
X008651Y013551D02*
X008606Y013553D01*
X008560Y013558D01*
X008516Y013566D01*
X008472Y013578D01*
X008429Y013594D01*
X008387Y013612D01*
X008347Y013634D01*
X008309Y013658D01*
X008273Y013685D01*
X008238Y013715D01*
X008207Y013748D01*
X008177Y013783D01*
X008651Y014751D02*
X008697Y014749D01*
X008743Y014744D01*
X008789Y014735D01*
X008834Y014723D01*
X008877Y014707D01*
X008919Y014688D01*
X008960Y014665D01*
X008999Y014640D01*
X009035Y014612D01*
X009070Y014581D01*
X009102Y014547D01*
X009131Y014511D01*
X008651Y014751D02*
X008604Y014749D01*
X008556Y014743D01*
X008510Y014734D01*
X008464Y014721D01*
X008420Y014705D01*
X008376Y014685D01*
X008335Y014661D01*
X008296Y014635D01*
X008259Y014605D01*
X008224Y014572D01*
X008192Y014537D01*
X008163Y014500D01*
X010276Y014801D02*
X010321Y014803D01*
X010367Y014808D01*
X010411Y014816D01*
X010455Y014828D01*
X010498Y014844D01*
X010540Y014862D01*
X010580Y014884D01*
X010618Y014908D01*
X010654Y014935D01*
X010689Y014965D01*
X010720Y014998D01*
X010750Y015033D01*
X010276Y014801D02*
X010231Y014803D01*
X010185Y014808D01*
X010141Y014816D01*
X010097Y014828D01*
X010054Y014844D01*
X010012Y014862D01*
X009972Y014884D01*
X009934Y014908D01*
X009898Y014935D01*
X009863Y014965D01*
X009832Y014998D01*
X009802Y015033D01*
X010276Y016001D02*
X010322Y015999D01*
X010368Y015994D01*
X010414Y015985D01*
X010459Y015973D01*
X010502Y015957D01*
X010544Y015938D01*
X010585Y015915D01*
X010624Y015890D01*
X010660Y015862D01*
X010695Y015831D01*
X010727Y015797D01*
X010756Y015761D01*
X010276Y016001D02*
X010229Y015999D01*
X010181Y015993D01*
X010135Y015984D01*
X010089Y015971D01*
X010045Y015955D01*
X010001Y015935D01*
X009960Y015911D01*
X009921Y015885D01*
X009884Y015855D01*
X009849Y015822D01*
X009817Y015787D01*
X009788Y015750D01*
X013164Y013922D02*
X013164Y013865D01*
X013391Y013638D01*
X013391Y013581D01*
X013533Y013638D02*
X013533Y013865D01*
X013590Y013922D01*
X013760Y013922D01*
X013760Y013581D01*
X013590Y013581D01*
X013533Y013638D01*
X013391Y013922D02*
X013164Y013922D01*
X013901Y013922D02*
X014128Y013922D01*
X014128Y013581D01*
X013901Y013581D01*
X014015Y013751D02*
X014128Y013751D01*
X014269Y013581D02*
X014496Y013581D01*
X014496Y013922D01*
X015776Y011426D02*
X015821Y011428D01*
X015867Y011433D01*
X015911Y011441D01*
X015955Y011453D01*
X015998Y011469D01*
X016040Y011487D01*
X016080Y011509D01*
X016118Y011533D01*
X016154Y011560D01*
X016189Y011590D01*
X016220Y011623D01*
X016250Y011658D01*
X015776Y011426D02*
X015731Y011428D01*
X015685Y011433D01*
X015641Y011441D01*
X015597Y011453D01*
X015554Y011469D01*
X015512Y011487D01*
X015472Y011509D01*
X015434Y011533D01*
X015398Y011560D01*
X015363Y011590D01*
X015332Y011623D01*
X015302Y011658D01*
X015776Y012626D02*
X015822Y012624D01*
X015868Y012619D01*
X015914Y012610D01*
X015959Y012598D01*
X016002Y012582D01*
X016044Y012563D01*
X016085Y012540D01*
X016124Y012515D01*
X016160Y012487D01*
X016195Y012456D01*
X016227Y012422D01*
X016256Y012386D01*
X015776Y012626D02*
X015729Y012624D01*
X015681Y012618D01*
X015635Y012609D01*
X015589Y012596D01*
X015545Y012580D01*
X015501Y012560D01*
X015460Y012536D01*
X015421Y012510D01*
X015384Y012480D01*
X015349Y012447D01*
X015317Y012412D01*
X015288Y012375D01*
X016901Y012801D02*
X016946Y012803D01*
X016992Y012808D01*
X017036Y012816D01*
X017080Y012828D01*
X017123Y012844D01*
X017165Y012862D01*
X017205Y012884D01*
X017243Y012908D01*
X017279Y012935D01*
X017314Y012965D01*
X017345Y012998D01*
X017375Y013033D01*
X016901Y012801D02*
X016856Y012803D01*
X016810Y012808D01*
X016766Y012816D01*
X016722Y012828D01*
X016679Y012844D01*
X016637Y012862D01*
X016597Y012884D01*
X016559Y012908D01*
X016523Y012935D01*
X016488Y012965D01*
X016457Y012998D01*
X016427Y013033D01*
X016901Y014001D02*
X016947Y013999D01*
X016993Y013994D01*
X017039Y013985D01*
X017084Y013973D01*
X017127Y013957D01*
X017169Y013938D01*
X017210Y013915D01*
X017249Y013890D01*
X017285Y013862D01*
X017320Y013831D01*
X017352Y013797D01*
X017381Y013761D01*
X016901Y014001D02*
X016854Y013999D01*
X016806Y013993D01*
X016760Y013984D01*
X016714Y013971D01*
X016670Y013955D01*
X016626Y013935D01*
X016585Y013911D01*
X016546Y013885D01*
X016509Y013855D01*
X016474Y013822D01*
X016442Y013787D01*
X016413Y013750D01*
X016651Y014551D02*
X016696Y014553D01*
X016742Y014558D01*
X016786Y014566D01*
X016830Y014578D01*
X016873Y014594D01*
X016915Y014612D01*
X016955Y014634D01*
X016993Y014658D01*
X017029Y014685D01*
X017064Y014715D01*
X017095Y014748D01*
X017125Y014783D01*
X016651Y014551D02*
X016606Y014553D01*
X016560Y014558D01*
X016516Y014566D01*
X016472Y014578D01*
X016429Y014594D01*
X016387Y014612D01*
X016347Y014634D01*
X016309Y014658D01*
X016273Y014685D01*
X016238Y014715D01*
X016207Y014748D01*
X016177Y014783D01*
X016651Y015751D02*
X016697Y015749D01*
X016743Y015744D01*
X016789Y015735D01*
X016834Y015723D01*
X016877Y015707D01*
X016919Y015688D01*
X016960Y015665D01*
X016999Y015640D01*
X017035Y015612D01*
X017070Y015581D01*
X017102Y015547D01*
X017131Y015511D01*
X016651Y015751D02*
X016604Y015749D01*
X016556Y015743D01*
X016510Y015734D01*
X016464Y015721D01*
X016420Y015705D01*
X016376Y015685D01*
X016335Y015661D01*
X016296Y015635D01*
X016259Y015605D01*
X016224Y015572D01*
X016192Y015537D01*
X016163Y015500D01*
X015875Y016033D02*
X015845Y015998D01*
X015814Y015965D01*
X015779Y015935D01*
X015743Y015908D01*
X015705Y015884D01*
X015665Y015862D01*
X015623Y015844D01*
X015580Y015828D01*
X015536Y015816D01*
X015492Y015808D01*
X015446Y015803D01*
X015401Y015801D01*
X015356Y015803D01*
X015310Y015808D01*
X015266Y015816D01*
X015222Y015828D01*
X015179Y015844D01*
X015137Y015862D01*
X015097Y015884D01*
X015059Y015908D01*
X015023Y015935D01*
X014988Y015965D01*
X014957Y015998D01*
X014927Y016033D01*
X015401Y017001D02*
X015447Y016999D01*
X015493Y016994D01*
X015539Y016985D01*
X015584Y016973D01*
X015627Y016957D01*
X015669Y016938D01*
X015710Y016915D01*
X015749Y016890D01*
X015785Y016862D01*
X015820Y016831D01*
X015852Y016797D01*
X015881Y016761D01*
X015401Y017001D02*
X015354Y016999D01*
X015306Y016993D01*
X015260Y016984D01*
X015214Y016971D01*
X015170Y016955D01*
X015126Y016935D01*
X015085Y016911D01*
X015046Y016885D01*
X015009Y016855D01*
X014974Y016822D01*
X014942Y016787D01*
X014913Y016750D01*
X018263Y016597D02*
X018376Y016540D01*
X018490Y016426D01*
X018319Y016426D01*
X018263Y016370D01*
X018263Y016313D01*
X018319Y016256D01*
X018433Y016256D01*
X018490Y016313D01*
X018490Y016426D01*
X018631Y016313D02*
X018631Y016540D01*
X018688Y016597D01*
X018858Y016597D01*
X018858Y016256D01*
X018688Y016256D01*
X018631Y016313D01*
X018999Y016256D02*
X019226Y016256D01*
X019226Y016597D01*
X018999Y016597D01*
X019113Y016426D02*
X019226Y016426D01*
X019368Y016256D02*
X019594Y016256D01*
X019594Y016597D01*
X019219Y011097D02*
X019219Y010756D01*
X018993Y010756D01*
X018851Y010756D02*
X018624Y010756D01*
X018483Y010756D02*
X018313Y010756D01*
X018256Y010813D01*
X018256Y011040D01*
X018313Y011097D01*
X018483Y011097D01*
X018483Y010756D01*
X018115Y010813D02*
X018115Y010870D01*
X018058Y010926D01*
X017944Y010926D01*
X017888Y010870D01*
X017888Y010813D01*
X017944Y010756D01*
X018058Y010756D01*
X018115Y010813D01*
X018058Y010926D02*
X018115Y010983D01*
X018115Y011040D01*
X018058Y011097D01*
X017944Y011097D01*
X017888Y011040D01*
X017888Y010983D01*
X017944Y010926D01*
X018624Y011097D02*
X018851Y011097D01*
X018851Y010756D01*
X018851Y010926D02*
X018738Y010926D01*
X017344Y009847D02*
X017344Y009506D01*
X017118Y009506D01*
X016976Y009506D02*
X016749Y009506D01*
X016608Y009506D02*
X016438Y009506D01*
X016381Y009563D01*
X016381Y009790D01*
X016438Y009847D01*
X016608Y009847D01*
X016608Y009506D01*
X016240Y009563D02*
X016183Y009506D01*
X016069Y009506D01*
X016013Y009563D01*
X016013Y009790D01*
X016069Y009847D01*
X016183Y009847D01*
X016240Y009790D01*
X016240Y009733D01*
X016183Y009676D01*
X016013Y009676D01*
X016749Y009847D02*
X016976Y009847D01*
X016976Y009506D01*
X016976Y009676D02*
X016863Y009676D01*
X015963Y008472D02*
X015963Y008131D01*
X015736Y008131D01*
X015594Y008131D02*
X015594Y008472D01*
X015368Y008472D01*
X015226Y008472D02*
X015056Y008472D01*
X014999Y008415D01*
X014999Y008188D01*
X015056Y008131D01*
X015226Y008131D01*
X015226Y008472D01*
X015481Y008301D02*
X015594Y008301D01*
X015594Y008131D02*
X015368Y008131D01*
X014858Y008131D02*
X014631Y008131D01*
X014744Y008131D02*
X014744Y008472D01*
X014858Y008358D01*
X014490Y008415D02*
X014490Y008188D01*
X014263Y008415D01*
X014263Y008188D01*
X014319Y008131D01*
X014433Y008131D01*
X014490Y008188D01*
X014490Y008415D02*
X014433Y008472D01*
X014319Y008472D01*
X014263Y008415D01*
X014094Y007472D02*
X013868Y007472D01*
X013726Y007472D02*
X013726Y007131D01*
X013556Y007131D01*
X013499Y007188D01*
X013499Y007415D01*
X013556Y007472D01*
X013726Y007472D01*
X013868Y007131D02*
X014094Y007131D01*
X014094Y007472D01*
X014094Y007301D02*
X013981Y007301D01*
X014236Y007131D02*
X014463Y007131D01*
X014463Y007472D01*
X013358Y007358D02*
X013244Y007472D01*
X013244Y007131D01*
X013131Y007131D02*
X013358Y007131D01*
X012990Y007131D02*
X012763Y007131D01*
X012876Y007131D02*
X012876Y007472D01*
X012990Y007358D01*
X012844Y006472D02*
X012618Y006472D01*
X012476Y006472D02*
X012306Y006472D01*
X012249Y006415D01*
X012249Y006188D01*
X012306Y006131D01*
X012476Y006131D01*
X012476Y006472D01*
X012108Y006358D02*
X011994Y006472D01*
X011994Y006131D01*
X011881Y006131D02*
X012108Y006131D01*
X011740Y006131D02*
X011513Y006358D01*
X011513Y006415D01*
X011569Y006472D01*
X011683Y006472D01*
X011740Y006415D01*
X011740Y006131D02*
X011513Y006131D01*
X011469Y005472D02*
X011243Y005472D01*
X011101Y005472D02*
X010931Y005472D01*
X010874Y005415D01*
X010874Y005188D01*
X010931Y005131D01*
X011101Y005131D01*
X011101Y005472D01*
X011356Y005301D02*
X011469Y005301D01*
X011469Y005131D02*
X011243Y005131D01*
X011469Y005131D02*
X011469Y005472D01*
X011838Y005472D02*
X011838Y005131D01*
X011611Y005131D01*
X010733Y005131D02*
X010506Y005131D01*
X010619Y005131D02*
X010619Y005472D01*
X010733Y005358D01*
X010365Y005415D02*
X010308Y005472D01*
X010194Y005472D01*
X010138Y005415D01*
X010138Y005358D01*
X010194Y005301D01*
X010138Y005245D01*
X010138Y005188D01*
X010194Y005131D01*
X010308Y005131D01*
X010365Y005188D01*
X010251Y005301D02*
X010194Y005301D01*
X010338Y004472D02*
X010338Y004131D01*
X010111Y004131D01*
X009969Y004131D02*
X009743Y004131D01*
X009601Y004131D02*
X009431Y004131D01*
X009374Y004188D01*
X009374Y004415D01*
X009431Y004472D01*
X009601Y004472D01*
X009601Y004131D01*
X009856Y004301D02*
X009969Y004301D01*
X009969Y004131D02*
X009969Y004472D01*
X009743Y004472D01*
X009233Y004358D02*
X009119Y004472D01*
X009119Y004131D01*
X009006Y004131D02*
X009233Y004131D01*
X008865Y004301D02*
X008638Y004301D01*
X008694Y004131D02*
X008694Y004472D01*
X008865Y004301D01*
X008963Y003347D02*
X008963Y003006D01*
X008736Y003006D01*
X008594Y003006D02*
X008368Y003006D01*
X008226Y003006D02*
X008056Y003006D01*
X007999Y003063D01*
X007999Y003290D01*
X008056Y003347D01*
X008226Y003347D01*
X008226Y003006D01*
X008481Y003176D02*
X008594Y003176D01*
X008594Y003006D02*
X008594Y003347D01*
X008368Y003347D01*
X007858Y003233D02*
X007744Y003347D01*
X007744Y003006D01*
X007631Y003006D02*
X007858Y003006D01*
X007490Y003063D02*
X007433Y003006D01*
X007319Y003006D01*
X007263Y003063D01*
X007263Y003176D01*
X007319Y003233D01*
X007376Y003233D01*
X007490Y003176D01*
X007490Y003347D01*
X007263Y003347D01*
X007338Y002222D02*
X007338Y001881D01*
X007111Y001881D01*
X006969Y001881D02*
X006969Y002222D01*
X006743Y002222D01*
X006601Y002222D02*
X006601Y001881D01*
X006431Y001881D01*
X006374Y001938D01*
X006374Y002165D01*
X006431Y002222D01*
X006601Y002222D01*
X006856Y002051D02*
X006969Y002051D01*
X006969Y001881D02*
X006743Y001881D01*
X006233Y001881D02*
X006006Y001881D01*
X006119Y001881D02*
X006119Y002222D01*
X006233Y002108D01*
X005865Y002051D02*
X005694Y002051D01*
X005638Y001995D01*
X005638Y001938D01*
X005694Y001881D01*
X005808Y001881D01*
X005865Y001938D01*
X005865Y002051D01*
X005751Y002165D01*
X005638Y002222D01*
X004500Y003033D02*
X004470Y002998D01*
X004439Y002965D01*
X004404Y002935D01*
X004368Y002908D01*
X004330Y002884D01*
X004290Y002862D01*
X004248Y002844D01*
X004205Y002828D01*
X004161Y002816D01*
X004117Y002808D01*
X004071Y002803D01*
X004026Y002801D01*
X003981Y002803D01*
X003935Y002808D01*
X003891Y002816D01*
X003847Y002828D01*
X003804Y002844D01*
X003762Y002862D01*
X003722Y002884D01*
X003684Y002908D01*
X003648Y002935D01*
X003613Y002965D01*
X003582Y002998D01*
X003552Y003033D01*
X004026Y004001D02*
X004072Y003999D01*
X004118Y003994D01*
X004164Y003985D01*
X004209Y003973D01*
X004252Y003957D01*
X004294Y003938D01*
X004335Y003915D01*
X004374Y003890D01*
X004410Y003862D01*
X004445Y003831D01*
X004477Y003797D01*
X004506Y003761D01*
X004026Y004001D02*
X003979Y003999D01*
X003931Y003993D01*
X003885Y003984D01*
X003839Y003971D01*
X003795Y003955D01*
X003751Y003935D01*
X003710Y003911D01*
X003671Y003885D01*
X003634Y003855D01*
X003599Y003822D01*
X003567Y003787D01*
X003538Y003750D01*
X005401Y003926D02*
X005446Y003928D01*
X005492Y003933D01*
X005536Y003941D01*
X005580Y003953D01*
X005623Y003969D01*
X005665Y003987D01*
X005705Y004009D01*
X005743Y004033D01*
X005779Y004060D01*
X005814Y004090D01*
X005845Y004123D01*
X005875Y004158D01*
X005401Y003926D02*
X005356Y003928D01*
X005310Y003933D01*
X005266Y003941D01*
X005222Y003953D01*
X005179Y003969D01*
X005137Y003987D01*
X005097Y004009D01*
X005059Y004033D01*
X005023Y004060D01*
X004988Y004090D01*
X004957Y004123D01*
X004927Y004158D01*
X005401Y005126D02*
X005447Y005124D01*
X005493Y005119D01*
X005539Y005110D01*
X005584Y005098D01*
X005627Y005082D01*
X005669Y005063D01*
X005710Y005040D01*
X005749Y005015D01*
X005785Y004987D01*
X005820Y004956D01*
X005852Y004922D01*
X005881Y004886D01*
X005401Y005126D02*
X005354Y005124D01*
X005306Y005118D01*
X005260Y005109D01*
X005214Y005096D01*
X005170Y005080D01*
X005126Y005060D01*
X005085Y005036D01*
X005046Y005010D01*
X005009Y004980D01*
X004974Y004947D01*
X004942Y004912D01*
X004913Y004875D01*
X003851Y006801D02*
X003851Y007201D01*
X003851Y008151D01*
X003851Y008501D01*
X004331Y008513D02*
X004331Y008740D01*
X004331Y008626D02*
X004672Y008626D01*
X004558Y008513D01*
X004615Y008371D02*
X004672Y008315D01*
X004672Y008201D01*
X004615Y008145D01*
X004558Y008145D01*
X004501Y008201D01*
X004501Y008315D01*
X004445Y008371D01*
X004388Y008371D01*
X004331Y008315D01*
X004331Y008201D01*
X004388Y008145D01*
X003051Y008851D02*
X002951Y008851D01*
X002951Y008951D01*
X002351Y008951D01*
X002351Y008851D01*
X002251Y008851D01*
X001451Y008501D02*
X001451Y008151D01*
X001451Y007151D01*
X001451Y006801D01*
X002251Y006451D02*
X002351Y006451D01*
X002351Y006351D01*
X002951Y006351D01*
X002951Y006451D01*
X003051Y006451D01*
X002551Y007651D02*
X002553Y007671D01*
X002559Y007689D01*
X002568Y007707D01*
X002580Y007722D01*
X002595Y007734D01*
X002613Y007743D01*
X002631Y007749D01*
X002651Y007751D01*
X002671Y007749D01*
X002689Y007743D01*
X002707Y007734D01*
X002722Y007722D01*
X002734Y007707D01*
X002743Y007689D01*
X002749Y007671D01*
X002751Y007651D01*
X002749Y007631D01*
X002743Y007613D01*
X002734Y007595D01*
X002722Y007580D01*
X002707Y007568D01*
X002689Y007559D01*
X002671Y007553D01*
X002651Y007551D01*
X002631Y007553D01*
X002613Y007559D01*
X002595Y007568D01*
X002580Y007580D01*
X002568Y007595D01*
X002559Y007613D01*
X002553Y007631D01*
X002551Y007651D01*
X001951Y007651D02*
X001953Y007703D01*
X001959Y007755D01*
X001969Y007807D01*
X001982Y007857D01*
X001999Y007907D01*
X002020Y007955D01*
X002045Y008001D01*
X002073Y008045D01*
X002104Y008087D01*
X002138Y008127D01*
X002175Y008164D01*
X002215Y008198D01*
X002257Y008229D01*
X002301Y008257D01*
X002347Y008282D01*
X002395Y008303D01*
X002445Y008320D01*
X002495Y008333D01*
X002547Y008343D01*
X002599Y008349D01*
X002651Y008351D01*
X002703Y008349D01*
X002755Y008343D01*
X002807Y008333D01*
X002857Y008320D01*
X002907Y008303D01*
X002955Y008282D01*
X003001Y008257D01*
X003045Y008229D01*
X003087Y008198D01*
X003127Y008164D01*
X003164Y008127D01*
X003198Y008087D01*
X003229Y008045D01*
X003257Y008001D01*
X003282Y007955D01*
X003303Y007907D01*
X003320Y007857D01*
X003333Y007807D01*
X003343Y007755D01*
X003349Y007703D01*
X003351Y007651D01*
X003349Y007599D01*
X003343Y007547D01*
X003333Y007495D01*
X003320Y007445D01*
X003303Y007395D01*
X003282Y007347D01*
X003257Y007301D01*
X003229Y007257D01*
X003198Y007215D01*
X003164Y007175D01*
X003127Y007138D01*
X003087Y007104D01*
X003045Y007073D01*
X003001Y007045D01*
X002955Y007020D01*
X002907Y006999D01*
X002857Y006982D01*
X002807Y006969D01*
X002755Y006959D01*
X002703Y006953D01*
X002651Y006951D01*
X002599Y006953D01*
X002547Y006959D01*
X002495Y006969D01*
X002445Y006982D01*
X002395Y006999D01*
X002347Y007020D01*
X002301Y007045D01*
X002257Y007073D01*
X002215Y007104D01*
X002175Y007138D01*
X002138Y007175D01*
X002104Y007215D01*
X002073Y007257D01*
X002045Y007301D01*
X002020Y007347D01*
X001999Y007395D01*
X001982Y007445D01*
X001969Y007495D01*
X001959Y007547D01*
X001953Y007599D01*
X001951Y007651D01*
X006901Y004801D02*
X006946Y004803D01*
X006992Y004808D01*
X007036Y004816D01*
X007080Y004828D01*
X007123Y004844D01*
X007165Y004862D01*
X007205Y004884D01*
X007243Y004908D01*
X007279Y004935D01*
X007314Y004965D01*
X007345Y004998D01*
X007375Y005033D01*
X006901Y004801D02*
X006856Y004803D01*
X006810Y004808D01*
X006766Y004816D01*
X006722Y004828D01*
X006679Y004844D01*
X006637Y004862D01*
X006597Y004884D01*
X006559Y004908D01*
X006523Y004935D01*
X006488Y004965D01*
X006457Y004998D01*
X006427Y005033D01*
X006901Y006001D02*
X006947Y005999D01*
X006993Y005994D01*
X007039Y005985D01*
X007084Y005973D01*
X007127Y005957D01*
X007169Y005938D01*
X007210Y005915D01*
X007249Y005890D01*
X007285Y005862D01*
X007320Y005831D01*
X007352Y005797D01*
X007381Y005761D01*
X006901Y006001D02*
X006854Y005999D01*
X006806Y005993D01*
X006760Y005984D01*
X006714Y005971D01*
X006670Y005955D01*
X006626Y005935D01*
X006585Y005911D01*
X006546Y005885D01*
X006509Y005855D01*
X006474Y005822D01*
X006442Y005787D01*
X006413Y005750D01*
X008276Y005926D02*
X008321Y005928D01*
X008367Y005933D01*
X008411Y005941D01*
X008455Y005953D01*
X008498Y005969D01*
X008540Y005987D01*
X008580Y006009D01*
X008618Y006033D01*
X008654Y006060D01*
X008689Y006090D01*
X008720Y006123D01*
X008750Y006158D01*
X008276Y005926D02*
X008231Y005928D01*
X008185Y005933D01*
X008141Y005941D01*
X008097Y005953D01*
X008054Y005969D01*
X008012Y005987D01*
X007972Y006009D01*
X007934Y006033D01*
X007898Y006060D01*
X007863Y006090D01*
X007832Y006123D01*
X007802Y006158D01*
X008276Y007126D02*
X008322Y007124D01*
X008368Y007119D01*
X008414Y007110D01*
X008459Y007098D01*
X008502Y007082D01*
X008544Y007063D01*
X008585Y007040D01*
X008624Y007015D01*
X008660Y006987D01*
X008695Y006956D01*
X008727Y006922D01*
X008756Y006886D01*
X008276Y007126D02*
X008229Y007124D01*
X008181Y007118D01*
X008135Y007109D01*
X008089Y007096D01*
X008045Y007080D01*
X008001Y007060D01*
X007960Y007036D01*
X007921Y007010D01*
X007884Y006980D01*
X007849Y006947D01*
X007817Y006912D01*
X007788Y006875D01*
X009651Y006926D02*
X009696Y006928D01*
X009742Y006933D01*
X009786Y006941D01*
X009830Y006953D01*
X009873Y006969D01*
X009915Y006987D01*
X009955Y007009D01*
X009993Y007033D01*
X010029Y007060D01*
X010064Y007090D01*
X010095Y007123D01*
X010125Y007158D01*
X009651Y006926D02*
X009606Y006928D01*
X009560Y006933D01*
X009516Y006941D01*
X009472Y006953D01*
X009429Y006969D01*
X009387Y006987D01*
X009347Y007009D01*
X009309Y007033D01*
X009273Y007060D01*
X009238Y007090D01*
X009207Y007123D01*
X009177Y007158D01*
X009651Y008126D02*
X009697Y008124D01*
X009743Y008119D01*
X009789Y008110D01*
X009834Y008098D01*
X009877Y008082D01*
X009919Y008063D01*
X009960Y008040D01*
X009999Y008015D01*
X010035Y007987D01*
X010070Y007956D01*
X010102Y007922D01*
X010131Y007886D01*
X009651Y008126D02*
X009604Y008124D01*
X009556Y008118D01*
X009510Y008109D01*
X009464Y008096D01*
X009420Y008080D01*
X009376Y008060D01*
X009335Y008036D01*
X009296Y008010D01*
X009259Y007980D01*
X009224Y007947D01*
X009192Y007912D01*
X009163Y007875D01*
X011026Y007926D02*
X011071Y007928D01*
X011117Y007933D01*
X011161Y007941D01*
X011205Y007953D01*
X011248Y007969D01*
X011290Y007987D01*
X011330Y008009D01*
X011368Y008033D01*
X011404Y008060D01*
X011439Y008090D01*
X011470Y008123D01*
X011500Y008158D01*
X011026Y007926D02*
X010981Y007928D01*
X010935Y007933D01*
X010891Y007941D01*
X010847Y007953D01*
X010804Y007969D01*
X010762Y007987D01*
X010722Y008009D01*
X010684Y008033D01*
X010648Y008060D01*
X010613Y008090D01*
X010582Y008123D01*
X010552Y008158D01*
X011026Y009126D02*
X011072Y009124D01*
X011118Y009119D01*
X011164Y009110D01*
X011209Y009098D01*
X011252Y009082D01*
X011294Y009063D01*
X011335Y009040D01*
X011374Y009015D01*
X011410Y008987D01*
X011445Y008956D01*
X011477Y008922D01*
X011506Y008886D01*
X011026Y009126D02*
X010979Y009124D01*
X010931Y009118D01*
X010885Y009109D01*
X010839Y009096D01*
X010795Y009080D01*
X010751Y009060D01*
X010710Y009036D01*
X010671Y009010D01*
X010634Y008980D01*
X010599Y008947D01*
X010567Y008912D01*
X010538Y008875D01*
X012526Y008926D02*
X012571Y008928D01*
X012617Y008933D01*
X012661Y008941D01*
X012705Y008953D01*
X012748Y008969D01*
X012790Y008987D01*
X012830Y009009D01*
X012868Y009033D01*
X012904Y009060D01*
X012939Y009090D01*
X012970Y009123D01*
X013000Y009158D01*
X012526Y008926D02*
X012481Y008928D01*
X012435Y008933D01*
X012391Y008941D01*
X012347Y008953D01*
X012304Y008969D01*
X012262Y008987D01*
X012222Y009009D01*
X012184Y009033D01*
X012148Y009060D01*
X012113Y009090D01*
X012082Y009123D01*
X012052Y009158D01*
X012526Y010126D02*
X012572Y010124D01*
X012618Y010119D01*
X012664Y010110D01*
X012709Y010098D01*
X012752Y010082D01*
X012794Y010063D01*
X012835Y010040D01*
X012874Y010015D01*
X012910Y009987D01*
X012945Y009956D01*
X012977Y009922D01*
X013006Y009886D01*
X012526Y010126D02*
X012479Y010124D01*
X012431Y010118D01*
X012385Y010109D01*
X012339Y010096D01*
X012295Y010080D01*
X012251Y010060D01*
X012210Y010036D01*
X012171Y010010D01*
X012134Y009980D01*
X012099Y009947D01*
X012067Y009912D01*
X012038Y009875D01*
X014151Y010176D02*
X014196Y010178D01*
X014242Y010183D01*
X014286Y010191D01*
X014330Y010203D01*
X014373Y010219D01*
X014415Y010237D01*
X014455Y010259D01*
X014493Y010283D01*
X014529Y010310D01*
X014564Y010340D01*
X014595Y010373D01*
X014625Y010408D01*
X014151Y010176D02*
X014106Y010178D01*
X014060Y010183D01*
X014016Y010191D01*
X013972Y010203D01*
X013929Y010219D01*
X013887Y010237D01*
X013847Y010259D01*
X013809Y010283D01*
X013773Y010310D01*
X013738Y010340D01*
X013707Y010373D01*
X013677Y010408D01*
X014151Y011376D02*
X014197Y011374D01*
X014243Y011369D01*
X014289Y011360D01*
X014334Y011348D01*
X014377Y011332D01*
X014419Y011313D01*
X014460Y011290D01*
X014499Y011265D01*
X014535Y011237D01*
X014570Y011206D01*
X014602Y011172D01*
X014631Y011136D01*
X014151Y011376D02*
X014104Y011374D01*
X014056Y011368D01*
X014010Y011359D01*
X013964Y011346D01*
X013920Y011330D01*
X013876Y011310D01*
X013835Y011286D01*
X013796Y011260D01*
X013759Y011230D01*
X013724Y011197D01*
X013692Y011162D01*
X013663Y011125D01*
X013213Y006472D02*
X013213Y006131D01*
X012986Y006131D01*
X012844Y006131D02*
X012618Y006131D01*
X012731Y006301D02*
X012844Y006301D01*
X012844Y006131D02*
X012844Y006472D01*
D12*
X011721Y008129D02*
X011691Y008081D01*
X011658Y008036D01*
X011622Y007993D01*
X011584Y007952D01*
X011542Y007915D01*
X011498Y007880D01*
X011452Y007849D01*
X011403Y007820D01*
X011353Y007796D01*
X011301Y007775D01*
X011247Y007757D01*
X011193Y007744D01*
X011138Y007734D01*
X011082Y007728D01*
X011026Y007726D01*
X010973Y007728D01*
X010919Y007733D01*
X010867Y007742D01*
X010815Y007754D01*
X010764Y007770D01*
X010714Y007789D01*
X010665Y007812D01*
X010618Y007838D01*
X010573Y007866D01*
X010530Y007898D01*
X010490Y007932D01*
X010451Y007970D01*
X010415Y008009D01*
X011026Y009326D02*
X011080Y009324D01*
X011134Y009319D01*
X011187Y009310D01*
X011240Y009297D01*
X011291Y009281D01*
X011341Y009261D01*
X011390Y009238D01*
X011438Y009212D01*
X011483Y009183D01*
X011526Y009150D01*
X011567Y009115D01*
X011606Y009077D01*
X011642Y009037D01*
X011675Y008994D01*
X011705Y008949D01*
X011732Y008902D01*
X011026Y009326D02*
X010972Y009324D01*
X010919Y009319D01*
X010865Y009310D01*
X010813Y009297D01*
X010762Y009281D01*
X010711Y009261D01*
X010662Y009239D01*
X010615Y009213D01*
X010570Y009183D01*
X010527Y009151D01*
X010486Y009116D01*
X010447Y009078D01*
X010411Y009038D01*
X010346Y007129D02*
X010316Y007081D01*
X010283Y007036D01*
X010247Y006993D01*
X010209Y006952D01*
X010167Y006915D01*
X010123Y006880D01*
X010077Y006849D01*
X010028Y006820D01*
X009978Y006796D01*
X009926Y006775D01*
X009872Y006757D01*
X009818Y006744D01*
X009763Y006734D01*
X009707Y006728D01*
X009651Y006726D01*
X009598Y006728D01*
X009544Y006733D01*
X009492Y006742D01*
X009440Y006754D01*
X009389Y006770D01*
X009339Y006789D01*
X009290Y006812D01*
X009243Y006838D01*
X009198Y006866D01*
X009155Y006898D01*
X009115Y006932D01*
X009076Y006970D01*
X009040Y007009D01*
X009651Y008326D02*
X009705Y008324D01*
X009759Y008319D01*
X009812Y008310D01*
X009865Y008297D01*
X009916Y008281D01*
X009966Y008261D01*
X010015Y008238D01*
X010063Y008212D01*
X010108Y008183D01*
X010151Y008150D01*
X010192Y008115D01*
X010231Y008077D01*
X010267Y008037D01*
X010300Y007994D01*
X010330Y007949D01*
X010357Y007902D01*
X009651Y008326D02*
X009597Y008324D01*
X009544Y008319D01*
X009490Y008310D01*
X009438Y008297D01*
X009387Y008281D01*
X009336Y008261D01*
X009287Y008239D01*
X009240Y008213D01*
X009195Y008183D01*
X009152Y008151D01*
X009111Y008116D01*
X009072Y008078D01*
X009036Y008038D01*
X008971Y006129D02*
X008941Y006081D01*
X008908Y006036D01*
X008872Y005993D01*
X008834Y005952D01*
X008792Y005915D01*
X008748Y005880D01*
X008702Y005849D01*
X008653Y005820D01*
X008603Y005796D01*
X008551Y005775D01*
X008497Y005757D01*
X008443Y005744D01*
X008388Y005734D01*
X008332Y005728D01*
X008276Y005726D01*
X008223Y005728D01*
X008169Y005733D01*
X008117Y005742D01*
X008065Y005754D01*
X008014Y005770D01*
X007964Y005789D01*
X007915Y005812D01*
X007868Y005838D01*
X007823Y005866D01*
X007780Y005898D01*
X007740Y005932D01*
X007701Y005970D01*
X007665Y006009D01*
X008276Y007326D02*
X008330Y007324D01*
X008384Y007319D01*
X008437Y007310D01*
X008490Y007297D01*
X008541Y007281D01*
X008591Y007261D01*
X008640Y007238D01*
X008688Y007212D01*
X008733Y007183D01*
X008776Y007150D01*
X008817Y007115D01*
X008856Y007077D01*
X008892Y007037D01*
X008925Y006994D01*
X008955Y006949D01*
X008982Y006902D01*
X008276Y007326D02*
X008222Y007324D01*
X008169Y007319D01*
X008115Y007310D01*
X008063Y007297D01*
X008012Y007281D01*
X007961Y007261D01*
X007912Y007239D01*
X007865Y007213D01*
X007820Y007183D01*
X007777Y007151D01*
X007736Y007116D01*
X007697Y007078D01*
X007661Y007038D01*
X007596Y005004D02*
X007566Y004956D01*
X007533Y004911D01*
X007497Y004868D01*
X007459Y004827D01*
X007417Y004790D01*
X007373Y004755D01*
X007327Y004724D01*
X007278Y004695D01*
X007228Y004671D01*
X007176Y004650D01*
X007122Y004632D01*
X007068Y004619D01*
X007013Y004609D01*
X006957Y004603D01*
X006901Y004601D01*
X006848Y004603D01*
X006794Y004608D01*
X006742Y004617D01*
X006690Y004629D01*
X006639Y004645D01*
X006589Y004664D01*
X006540Y004687D01*
X006493Y004713D01*
X006448Y004741D01*
X006405Y004773D01*
X006365Y004807D01*
X006326Y004845D01*
X006290Y004884D01*
X006901Y006201D02*
X006955Y006199D01*
X007009Y006194D01*
X007062Y006185D01*
X007115Y006172D01*
X007166Y006156D01*
X007216Y006136D01*
X007265Y006113D01*
X007313Y006087D01*
X007358Y006058D01*
X007401Y006025D01*
X007442Y005990D01*
X007481Y005952D01*
X007517Y005912D01*
X007550Y005869D01*
X007580Y005824D01*
X007607Y005777D01*
X006901Y006201D02*
X006847Y006199D01*
X006794Y006194D01*
X006740Y006185D01*
X006688Y006172D01*
X006637Y006156D01*
X006586Y006136D01*
X006537Y006114D01*
X006490Y006088D01*
X006445Y006058D01*
X006402Y006026D01*
X006361Y005991D01*
X006322Y005953D01*
X006286Y005913D01*
X006096Y004129D02*
X006066Y004081D01*
X006033Y004036D01*
X005997Y003993D01*
X005959Y003952D01*
X005917Y003915D01*
X005873Y003880D01*
X005827Y003849D01*
X005778Y003820D01*
X005728Y003796D01*
X005676Y003775D01*
X005622Y003757D01*
X005568Y003744D01*
X005513Y003734D01*
X005457Y003728D01*
X005401Y003726D01*
X005348Y003728D01*
X005294Y003733D01*
X005242Y003742D01*
X005190Y003754D01*
X005139Y003770D01*
X005089Y003789D01*
X005040Y003812D01*
X004993Y003838D01*
X004948Y003866D01*
X004905Y003898D01*
X004865Y003932D01*
X004826Y003970D01*
X004790Y004009D01*
X005401Y005326D02*
X005455Y005324D01*
X005509Y005319D01*
X005562Y005310D01*
X005615Y005297D01*
X005666Y005281D01*
X005716Y005261D01*
X005765Y005238D01*
X005813Y005212D01*
X005858Y005183D01*
X005901Y005150D01*
X005942Y005115D01*
X005981Y005077D01*
X006017Y005037D01*
X006050Y004994D01*
X006080Y004949D01*
X006107Y004902D01*
X005401Y005326D02*
X005347Y005324D01*
X005294Y005319D01*
X005240Y005310D01*
X005188Y005297D01*
X005137Y005281D01*
X005086Y005261D01*
X005037Y005239D01*
X004990Y005213D01*
X004945Y005183D01*
X004902Y005151D01*
X004861Y005116D01*
X004822Y005078D01*
X004786Y005038D01*
X004721Y003004D02*
X004691Y002956D01*
X004658Y002911D01*
X004622Y002868D01*
X004584Y002827D01*
X004542Y002790D01*
X004498Y002755D01*
X004452Y002724D01*
X004403Y002695D01*
X004353Y002671D01*
X004301Y002650D01*
X004247Y002632D01*
X004193Y002619D01*
X004138Y002609D01*
X004082Y002603D01*
X004026Y002601D01*
X003973Y002603D01*
X003919Y002608D01*
X003867Y002617D01*
X003815Y002629D01*
X003764Y002645D01*
X003714Y002664D01*
X003665Y002687D01*
X003618Y002713D01*
X003573Y002741D01*
X003530Y002773D01*
X003490Y002807D01*
X003451Y002845D01*
X003415Y002884D01*
X004026Y004201D02*
X004080Y004199D01*
X004134Y004194D01*
X004187Y004185D01*
X004240Y004172D01*
X004291Y004156D01*
X004341Y004136D01*
X004390Y004113D01*
X004438Y004087D01*
X004483Y004058D01*
X004526Y004025D01*
X004567Y003990D01*
X004606Y003952D01*
X004642Y003912D01*
X004675Y003869D01*
X004705Y003824D01*
X004732Y003777D01*
X004026Y004201D02*
X003972Y004199D01*
X003919Y004194D01*
X003865Y004185D01*
X003813Y004172D01*
X003762Y004156D01*
X003711Y004136D01*
X003662Y004114D01*
X003615Y004088D01*
X003570Y004058D01*
X003527Y004026D01*
X003486Y003991D01*
X003447Y003953D01*
X003411Y003913D01*
X011915Y009009D02*
X011951Y008970D01*
X011990Y008932D01*
X012030Y008898D01*
X012073Y008866D01*
X012118Y008838D01*
X012165Y008812D01*
X012214Y008789D01*
X012264Y008770D01*
X012315Y008754D01*
X012367Y008742D01*
X012419Y008733D01*
X012473Y008728D01*
X012526Y008726D01*
X012582Y008728D01*
X012638Y008734D01*
X012693Y008744D01*
X012747Y008757D01*
X012801Y008775D01*
X012853Y008796D01*
X012903Y008820D01*
X012952Y008849D01*
X012998Y008880D01*
X013042Y008915D01*
X013084Y008952D01*
X013122Y008993D01*
X013158Y009036D01*
X013191Y009081D01*
X013221Y009129D01*
X013232Y009902D02*
X013205Y009949D01*
X013175Y009994D01*
X013142Y010037D01*
X013106Y010077D01*
X013067Y010115D01*
X013026Y010150D01*
X012983Y010183D01*
X012938Y010212D01*
X012890Y010238D01*
X012841Y010261D01*
X012791Y010281D01*
X012740Y010297D01*
X012687Y010310D01*
X012634Y010319D01*
X012580Y010324D01*
X012526Y010326D01*
X012472Y010324D01*
X012419Y010319D01*
X012365Y010310D01*
X012313Y010297D01*
X012262Y010281D01*
X012211Y010261D01*
X012162Y010239D01*
X012115Y010213D01*
X012070Y010183D01*
X012027Y010151D01*
X011986Y010116D01*
X011947Y010078D01*
X011911Y010038D01*
X014151Y011576D02*
X014205Y011574D01*
X014259Y011569D01*
X014312Y011560D01*
X014365Y011547D01*
X014416Y011531D01*
X014466Y011511D01*
X014515Y011488D01*
X014563Y011462D01*
X014608Y011433D01*
X014651Y011400D01*
X014692Y011365D01*
X014731Y011327D01*
X014767Y011287D01*
X014800Y011244D01*
X014830Y011199D01*
X014857Y011152D01*
X014846Y010379D02*
X014816Y010331D01*
X014783Y010286D01*
X014747Y010243D01*
X014709Y010202D01*
X014667Y010165D01*
X014623Y010130D01*
X014577Y010099D01*
X014528Y010070D01*
X014478Y010046D01*
X014426Y010025D01*
X014372Y010007D01*
X014318Y009994D01*
X014263Y009984D01*
X014207Y009978D01*
X014151Y009976D01*
X014098Y009978D01*
X014044Y009983D01*
X013992Y009992D01*
X013940Y010004D01*
X013889Y010020D01*
X013839Y010039D01*
X013790Y010062D01*
X013743Y010088D01*
X013698Y010116D01*
X013655Y010148D01*
X013615Y010182D01*
X013576Y010220D01*
X013540Y010259D01*
X013536Y011288D02*
X013572Y011328D01*
X013611Y011366D01*
X013652Y011401D01*
X013695Y011433D01*
X013740Y011463D01*
X013787Y011489D01*
X013836Y011511D01*
X013887Y011531D01*
X013938Y011547D01*
X013990Y011560D01*
X014044Y011569D01*
X014097Y011574D01*
X014151Y011576D01*
X015165Y011509D02*
X015201Y011470D01*
X015240Y011432D01*
X015280Y011398D01*
X015323Y011366D01*
X015368Y011338D01*
X015415Y011312D01*
X015464Y011289D01*
X015514Y011270D01*
X015565Y011254D01*
X015617Y011242D01*
X015669Y011233D01*
X015723Y011228D01*
X015776Y011226D01*
X015832Y011228D01*
X015888Y011234D01*
X015943Y011244D01*
X015997Y011257D01*
X016051Y011275D01*
X016103Y011296D01*
X016153Y011320D01*
X016202Y011349D01*
X016248Y011380D01*
X016292Y011415D01*
X016334Y011452D01*
X016372Y011493D01*
X016408Y011536D01*
X016441Y011581D01*
X016471Y011629D01*
X016482Y012402D02*
X016455Y012449D01*
X016425Y012494D01*
X016392Y012537D01*
X016356Y012577D01*
X016317Y012615D01*
X016276Y012650D01*
X016233Y012683D01*
X016188Y012712D01*
X016140Y012738D01*
X016091Y012761D01*
X016041Y012781D01*
X015990Y012797D01*
X015937Y012810D01*
X015884Y012819D01*
X015830Y012824D01*
X015776Y012826D01*
X015722Y012824D01*
X015669Y012819D01*
X015615Y012810D01*
X015563Y012797D01*
X015512Y012781D01*
X015461Y012761D01*
X015412Y012739D01*
X015365Y012713D01*
X015320Y012683D01*
X015277Y012651D01*
X015236Y012616D01*
X015197Y012578D01*
X015161Y012538D01*
X016901Y014201D02*
X016955Y014199D01*
X017009Y014194D01*
X017062Y014185D01*
X017115Y014172D01*
X017166Y014156D01*
X017216Y014136D01*
X017265Y014113D01*
X017313Y014087D01*
X017358Y014058D01*
X017401Y014025D01*
X017442Y013990D01*
X017481Y013952D01*
X017517Y013912D01*
X017550Y013869D01*
X017580Y013824D01*
X017607Y013777D01*
X017596Y013004D02*
X017566Y012956D01*
X017533Y012911D01*
X017497Y012868D01*
X017459Y012827D01*
X017417Y012790D01*
X017373Y012755D01*
X017327Y012724D01*
X017278Y012695D01*
X017228Y012671D01*
X017176Y012650D01*
X017122Y012632D01*
X017068Y012619D01*
X017013Y012609D01*
X016957Y012603D01*
X016901Y012601D01*
X016848Y012603D01*
X016794Y012608D01*
X016742Y012617D01*
X016690Y012629D01*
X016639Y012645D01*
X016589Y012664D01*
X016540Y012687D01*
X016493Y012713D01*
X016448Y012741D01*
X016405Y012773D01*
X016365Y012807D01*
X016326Y012845D01*
X016290Y012884D01*
X016286Y013913D02*
X016322Y013953D01*
X016361Y013991D01*
X016402Y014026D01*
X016445Y014058D01*
X016490Y014088D01*
X016537Y014114D01*
X016586Y014136D01*
X016637Y014156D01*
X016688Y014172D01*
X016740Y014185D01*
X016794Y014194D01*
X016847Y014199D01*
X016901Y014201D01*
X016651Y014351D02*
X016707Y014353D01*
X016763Y014359D01*
X016818Y014369D01*
X016872Y014382D01*
X016926Y014400D01*
X016978Y014421D01*
X017028Y014445D01*
X017077Y014474D01*
X017123Y014505D01*
X017167Y014540D01*
X017209Y014577D01*
X017247Y014618D01*
X017283Y014661D01*
X017316Y014706D01*
X017346Y014754D01*
X016651Y014351D02*
X016598Y014353D01*
X016544Y014358D01*
X016492Y014367D01*
X016440Y014379D01*
X016389Y014395D01*
X016339Y014414D01*
X016290Y014437D01*
X016243Y014463D01*
X016198Y014491D01*
X016155Y014523D01*
X016115Y014557D01*
X016076Y014595D01*
X016040Y014634D01*
X016651Y015951D02*
X016705Y015949D01*
X016759Y015944D01*
X016812Y015935D01*
X016865Y015922D01*
X016916Y015906D01*
X016966Y015886D01*
X017015Y015863D01*
X017063Y015837D01*
X017108Y015808D01*
X017151Y015775D01*
X017192Y015740D01*
X017231Y015702D01*
X017267Y015662D01*
X017300Y015619D01*
X017330Y015574D01*
X017357Y015527D01*
X016651Y015951D02*
X016597Y015949D01*
X016544Y015944D01*
X016490Y015935D01*
X016438Y015922D01*
X016387Y015906D01*
X016336Y015886D01*
X016287Y015864D01*
X016240Y015838D01*
X016195Y015808D01*
X016152Y015776D01*
X016111Y015741D01*
X016072Y015703D01*
X016036Y015663D01*
X016096Y016004D02*
X016066Y015956D01*
X016033Y015911D01*
X015997Y015868D01*
X015959Y015827D01*
X015917Y015790D01*
X015873Y015755D01*
X015827Y015724D01*
X015778Y015695D01*
X015728Y015671D01*
X015676Y015650D01*
X015622Y015632D01*
X015568Y015619D01*
X015513Y015609D01*
X015457Y015603D01*
X015401Y015601D01*
X015348Y015603D01*
X015294Y015608D01*
X015242Y015617D01*
X015190Y015629D01*
X015139Y015645D01*
X015089Y015664D01*
X015040Y015687D01*
X014993Y015713D01*
X014948Y015741D01*
X014905Y015773D01*
X014865Y015807D01*
X014826Y015845D01*
X014790Y015884D01*
X015401Y017201D02*
X015455Y017199D01*
X015509Y017194D01*
X015562Y017185D01*
X015615Y017172D01*
X015666Y017156D01*
X015716Y017136D01*
X015765Y017113D01*
X015813Y017087D01*
X015858Y017058D01*
X015901Y017025D01*
X015942Y016990D01*
X015981Y016952D01*
X016017Y016912D01*
X016050Y016869D01*
X016080Y016824D01*
X016107Y016777D01*
X015401Y017201D02*
X015347Y017199D01*
X015294Y017194D01*
X015240Y017185D01*
X015188Y017172D01*
X015137Y017156D01*
X015086Y017136D01*
X015037Y017114D01*
X014990Y017088D01*
X014945Y017058D01*
X014902Y017026D01*
X014861Y016991D01*
X014822Y016953D01*
X014786Y016913D01*
X014221Y016629D02*
X014191Y016581D01*
X014158Y016536D01*
X014122Y016493D01*
X014084Y016452D01*
X014042Y016415D01*
X013998Y016380D01*
X013952Y016349D01*
X013903Y016320D01*
X013853Y016296D01*
X013801Y016275D01*
X013747Y016257D01*
X013693Y016244D01*
X013638Y016234D01*
X013582Y016228D01*
X013526Y016226D01*
X013473Y016228D01*
X013419Y016233D01*
X013367Y016242D01*
X013315Y016254D01*
X013264Y016270D01*
X013214Y016289D01*
X013165Y016312D01*
X013118Y016338D01*
X013073Y016366D01*
X013030Y016398D01*
X012990Y016432D01*
X012951Y016470D01*
X012915Y016509D01*
X013526Y017826D02*
X013580Y017824D01*
X013634Y017819D01*
X013687Y017810D01*
X013740Y017797D01*
X013791Y017781D01*
X013841Y017761D01*
X013890Y017738D01*
X013938Y017712D01*
X013983Y017683D01*
X014026Y017650D01*
X014067Y017615D01*
X014106Y017577D01*
X014142Y017537D01*
X014175Y017494D01*
X014205Y017449D01*
X014232Y017402D01*
X013526Y017826D02*
X013472Y017824D01*
X013419Y017819D01*
X013365Y017810D01*
X013313Y017797D01*
X013262Y017781D01*
X013211Y017761D01*
X013162Y017739D01*
X013115Y017713D01*
X013070Y017683D01*
X013027Y017651D01*
X012986Y017616D01*
X012947Y017578D01*
X012911Y017538D01*
X012471Y016129D02*
X012441Y016081D01*
X012408Y016036D01*
X012372Y015993D01*
X012334Y015952D01*
X012292Y015915D01*
X012248Y015880D01*
X012202Y015849D01*
X012153Y015820D01*
X012103Y015796D01*
X012051Y015775D01*
X011997Y015757D01*
X011943Y015744D01*
X011888Y015734D01*
X011832Y015728D01*
X011776Y015726D01*
X011723Y015728D01*
X011669Y015733D01*
X011617Y015742D01*
X011565Y015754D01*
X011514Y015770D01*
X011464Y015789D01*
X011415Y015812D01*
X011368Y015838D01*
X011323Y015866D01*
X011280Y015898D01*
X011240Y015932D01*
X011201Y015970D01*
X011165Y016009D01*
X011776Y017326D02*
X011830Y017324D01*
X011884Y017319D01*
X011937Y017310D01*
X011990Y017297D01*
X012041Y017281D01*
X012091Y017261D01*
X012140Y017238D01*
X012188Y017212D01*
X012233Y017183D01*
X012276Y017150D01*
X012317Y017115D01*
X012356Y017077D01*
X012392Y017037D01*
X012425Y016994D01*
X012455Y016949D01*
X012482Y016902D01*
X011776Y017326D02*
X011722Y017324D01*
X011669Y017319D01*
X011615Y017310D01*
X011563Y017297D01*
X011512Y017281D01*
X011461Y017261D01*
X011412Y017239D01*
X011365Y017213D01*
X011320Y017183D01*
X011277Y017151D01*
X011236Y017116D01*
X011197Y017078D01*
X011161Y017038D01*
X010971Y015004D02*
X010941Y014956D01*
X010908Y014911D01*
X010872Y014868D01*
X010834Y014827D01*
X010792Y014790D01*
X010748Y014755D01*
X010702Y014724D01*
X010653Y014695D01*
X010603Y014671D01*
X010551Y014650D01*
X010497Y014632D01*
X010443Y014619D01*
X010388Y014609D01*
X010332Y014603D01*
X010276Y014601D01*
X010223Y014603D01*
X010169Y014608D01*
X010117Y014617D01*
X010065Y014629D01*
X010014Y014645D01*
X009964Y014664D01*
X009915Y014687D01*
X009868Y014713D01*
X009823Y014741D01*
X009780Y014773D01*
X009740Y014807D01*
X009701Y014845D01*
X009665Y014884D01*
X010276Y016201D02*
X010330Y016199D01*
X010384Y016194D01*
X010437Y016185D01*
X010490Y016172D01*
X010541Y016156D01*
X010591Y016136D01*
X010640Y016113D01*
X010688Y016087D01*
X010733Y016058D01*
X010776Y016025D01*
X010817Y015990D01*
X010856Y015952D01*
X010892Y015912D01*
X010925Y015869D01*
X010955Y015824D01*
X010982Y015777D01*
X010276Y016201D02*
X010222Y016199D01*
X010169Y016194D01*
X010115Y016185D01*
X010063Y016172D01*
X010012Y016156D01*
X009961Y016136D01*
X009912Y016114D01*
X009865Y016088D01*
X009820Y016058D01*
X009777Y016026D01*
X009736Y015991D01*
X009697Y015953D01*
X009661Y015913D01*
X009346Y013754D02*
X009316Y013706D01*
X009283Y013661D01*
X009247Y013618D01*
X009209Y013577D01*
X009167Y013540D01*
X009123Y013505D01*
X009077Y013474D01*
X009028Y013445D01*
X008978Y013421D01*
X008926Y013400D01*
X008872Y013382D01*
X008818Y013369D01*
X008763Y013359D01*
X008707Y013353D01*
X008651Y013351D01*
X008598Y013353D01*
X008544Y013358D01*
X008492Y013367D01*
X008440Y013379D01*
X008389Y013395D01*
X008339Y013414D01*
X008290Y013437D01*
X008243Y013463D01*
X008198Y013491D01*
X008155Y013523D01*
X008115Y013557D01*
X008076Y013595D01*
X008040Y013634D01*
X008651Y014951D02*
X008705Y014949D01*
X008759Y014944D01*
X008812Y014935D01*
X008865Y014922D01*
X008916Y014906D01*
X008966Y014886D01*
X009015Y014863D01*
X009063Y014837D01*
X009108Y014808D01*
X009151Y014775D01*
X009192Y014740D01*
X009231Y014702D01*
X009267Y014662D01*
X009300Y014619D01*
X009330Y014574D01*
X009357Y014527D01*
X008651Y014951D02*
X008597Y014949D01*
X008544Y014944D01*
X008490Y014935D01*
X008438Y014922D01*
X008387Y014906D01*
X008336Y014886D01*
X008287Y014864D01*
X008240Y014838D01*
X008195Y014808D01*
X008152Y014776D01*
X008111Y014741D01*
X008072Y014703D01*
X008036Y014663D01*
D13*
X003851Y008151D02*
X003751Y008151D01*
X003751Y007201D01*
X003851Y007201D01*
X001551Y007151D02*
X001451Y007151D01*
X001551Y007151D02*
X001551Y008151D01*
X001451Y008151D01*
D14*
X010410Y000901D03*
D15*
X010410Y000918D03*
D16*
X010410Y000935D03*
D17*
X010410Y000951D03*
D18*
X010410Y000968D03*
X010410Y019818D03*
D19*
X010410Y000985D03*
D20*
X010409Y001001D03*
D21*
X006426Y004668D03*
X007376Y006235D03*
X010026Y008368D03*
X004426Y004335D03*
X014376Y016418D03*
X019226Y001018D03*
D22*
X012060Y008635D03*
X014160Y010935D03*
X016910Y013218D03*
X016910Y013235D03*
X016910Y013568D03*
X015410Y016218D03*
X015410Y016235D03*
X015410Y016568D03*
X014560Y016718D03*
X018160Y017485D03*
X008660Y014318D03*
X008660Y013985D03*
X008660Y013968D03*
X002660Y017485D03*
X009310Y006635D03*
X007343Y006268D03*
X006410Y004685D03*
X005410Y004685D03*
X001593Y001018D03*
D23*
X001543Y001035D03*
X004476Y004285D03*
X004626Y004168D03*
X005409Y004368D03*
X005409Y004385D03*
X005409Y004635D03*
X005409Y004668D03*
X006143Y004885D03*
X006359Y004735D03*
X006376Y004718D03*
X009276Y006668D03*
X010076Y008318D03*
X010059Y008335D03*
X012026Y008668D03*
X014159Y010618D03*
X014159Y010635D03*
X014159Y010885D03*
X014159Y010918D03*
X016909Y013268D03*
X016909Y013285D03*
X016909Y013518D03*
X016909Y013535D03*
X015409Y016268D03*
X015409Y016285D03*
X015409Y016518D03*
X015409Y016535D03*
X014526Y016685D03*
X014509Y016668D03*
X014393Y016468D03*
X012676Y016235D03*
X009409Y013035D03*
X008659Y014018D03*
X008659Y014035D03*
X008659Y014268D03*
X008659Y014285D03*
X019276Y001035D03*
D24*
X019318Y001051D03*
X011034Y008451D03*
X011034Y008501D03*
X011034Y008551D03*
X008284Y006551D03*
X008284Y006501D03*
X008284Y006451D03*
X006284Y004801D03*
X001501Y001051D03*
X011784Y016451D03*
X011784Y016501D03*
X011784Y016551D03*
D25*
X012693Y016285D03*
X017843Y017618D03*
X019360Y019718D03*
X011960Y008735D03*
X009210Y006735D03*
X007710Y014318D03*
X002343Y017618D03*
X001460Y019718D03*
X001460Y001068D03*
X019360Y001068D03*
D26*
X019385Y001085D03*
X011868Y008818D03*
X011785Y008868D03*
X009168Y006768D03*
X009035Y006868D03*
X001435Y001085D03*
X002335Y018668D03*
X002985Y018668D03*
X017835Y018668D03*
X018485Y018668D03*
D27*
X018509Y018651D03*
X017809Y018651D03*
X003009Y018651D03*
X002309Y018651D03*
X001409Y001101D03*
X019409Y001101D03*
D28*
X019443Y001118D03*
X011843Y008835D03*
X009109Y006818D03*
X009093Y006835D03*
X007709Y014268D03*
X007709Y014285D03*
X012593Y016835D03*
X012609Y016818D03*
X012709Y016335D03*
X017809Y017635D03*
X018509Y017635D03*
X019443Y019668D03*
X019426Y019685D03*
X003009Y017635D03*
X002309Y017635D03*
X001376Y019668D03*
X001393Y019685D03*
X001376Y001118D03*
D29*
X002268Y017668D03*
X002285Y018635D03*
X003035Y018635D03*
X017785Y018635D03*
X018535Y018635D03*
X017768Y017668D03*
X019468Y001135D03*
D30*
X018551Y017668D03*
X003051Y017668D03*
X001351Y001135D03*
D31*
X001335Y001151D03*
X007718Y014251D03*
X012618Y016801D03*
X017785Y017651D03*
X018535Y017651D03*
X019468Y019651D03*
X003035Y017651D03*
X002285Y017651D03*
X019485Y001151D03*
D32*
X019510Y001168D03*
X007710Y014235D03*
X003110Y017718D03*
X003110Y018568D03*
X003093Y018585D03*
X003060Y018618D03*
X002660Y018818D03*
X002260Y018618D03*
X002210Y018568D03*
X002193Y017735D03*
X002210Y017718D03*
X002243Y017685D03*
X001310Y019618D03*
X012710Y016385D03*
X012710Y016368D03*
X017693Y017735D03*
X017710Y017718D03*
X017743Y017685D03*
X018610Y017718D03*
X018610Y018568D03*
X018593Y018585D03*
X018560Y018618D03*
X018160Y018818D03*
X017760Y018618D03*
X017710Y018568D03*
X019493Y019635D03*
X019510Y019618D03*
X001310Y001168D03*
X001293Y001185D03*
D33*
X012626Y016785D03*
X017726Y018585D03*
X018626Y017735D03*
X018576Y017685D03*
X003126Y017735D03*
X003076Y017685D03*
X002226Y018585D03*
X001326Y019635D03*
X019526Y001185D03*
D34*
X019543Y001201D03*
X018593Y017701D03*
X017743Y018601D03*
X003093Y017701D03*
X002243Y018601D03*
X001293Y019601D03*
D35*
X003076Y018601D03*
X002226Y017701D03*
X017726Y017701D03*
X018576Y018601D03*
X019526Y019601D03*
X001276Y001201D03*
D36*
X001234Y001235D03*
X001251Y001218D03*
X001201Y001268D03*
X001184Y001285D03*
X001151Y001335D03*
X007718Y014218D03*
X003168Y017785D03*
X003151Y017768D03*
X003151Y018518D03*
X003151Y018535D03*
X002168Y018535D03*
X002168Y018518D03*
X002151Y017785D03*
X002168Y017768D03*
X001201Y019518D03*
X001218Y019535D03*
X001251Y019568D03*
X001268Y019585D03*
X012634Y016768D03*
X012718Y016418D03*
X017651Y017785D03*
X017668Y017768D03*
X017668Y018518D03*
X017668Y018535D03*
X018651Y018535D03*
X018651Y018518D03*
X018668Y017785D03*
X018651Y017768D03*
X019618Y019518D03*
X019601Y019535D03*
X019568Y019568D03*
X019551Y019585D03*
X019668Y001335D03*
X019634Y001285D03*
X019618Y001268D03*
X019584Y001235D03*
X019568Y001218D03*
D37*
X019601Y001251D03*
X007718Y014201D03*
X003134Y017751D03*
X003168Y018501D03*
X003134Y018551D03*
X002184Y018551D03*
X002151Y018501D03*
X002184Y017751D03*
X001184Y019501D03*
X001234Y019551D03*
X012718Y016401D03*
X017651Y018501D03*
X017684Y018551D03*
X017684Y017751D03*
X018634Y017751D03*
X018668Y018501D03*
X018634Y018551D03*
X019584Y019551D03*
X019634Y019501D03*
X001218Y001251D03*
D38*
X003801Y001285D03*
X006451Y004635D03*
X009351Y006585D03*
X012101Y008585D03*
X014351Y016318D03*
X014351Y016335D03*
D39*
X012643Y016751D03*
X017610Y017851D03*
X017643Y017801D03*
X017593Y018401D03*
X018710Y017851D03*
X019760Y019301D03*
X019710Y019401D03*
X003210Y017851D03*
X002143Y017801D03*
X002110Y017851D03*
X002093Y018401D03*
X001060Y019301D03*
X001110Y019401D03*
X001143Y019451D03*
X001110Y001401D03*
X001143Y001351D03*
X019643Y001301D03*
X019710Y001401D03*
X019743Y001451D03*
D40*
X009884Y008551D03*
X007134Y006501D03*
X006551Y004501D03*
X003801Y001301D03*
D41*
X001176Y001301D03*
X001076Y001451D03*
X003176Y017801D03*
X003226Y018401D03*
X018676Y017801D03*
X018726Y018401D03*
X019676Y019451D03*
X019676Y001351D03*
D42*
X019693Y001368D03*
X019710Y001385D03*
X019660Y001318D03*
X019760Y001485D03*
X007993Y013785D03*
X012660Y016735D03*
X012710Y016435D03*
X017593Y017885D03*
X017610Y018435D03*
X017643Y018485D03*
X018693Y018468D03*
X018710Y018435D03*
X018743Y018368D03*
X018693Y017835D03*
X018693Y017818D03*
X019743Y019335D03*
X019693Y019418D03*
X019660Y019468D03*
X019643Y019485D03*
X003243Y018368D03*
X003210Y018435D03*
X003193Y018468D03*
X003193Y017835D03*
X003193Y017818D03*
X002093Y017885D03*
X002110Y018435D03*
X002143Y018485D03*
X001043Y019268D03*
X001093Y019368D03*
X001143Y019435D03*
X001160Y019468D03*
X001043Y001518D03*
X001060Y001485D03*
X001093Y001418D03*
X001110Y001385D03*
X001160Y001318D03*
D43*
X003785Y001318D03*
X008285Y006185D03*
X009835Y008635D03*
X011035Y008185D03*
X015085Y014135D03*
X015085Y014168D03*
X015085Y014185D03*
X017985Y016035D03*
X017968Y016068D03*
X017935Y016118D03*
X018018Y015985D03*
X011785Y016185D03*
X010585Y016435D03*
D44*
X010518Y016518D03*
X014968Y014485D03*
X014985Y014468D03*
X018135Y012035D03*
X018135Y012018D03*
X018168Y012068D03*
X014585Y009185D03*
X014485Y009118D03*
X014418Y009068D03*
X014368Y009035D03*
X014285Y008968D03*
X014235Y008935D03*
X014218Y008918D03*
X014168Y008885D03*
X014068Y008818D03*
X014035Y008785D03*
X013968Y008735D03*
X013935Y008718D03*
X013868Y008668D03*
X013818Y008635D03*
X013735Y008568D03*
X013685Y008535D03*
X013668Y008518D03*
X013618Y008485D03*
X013385Y008318D03*
X013318Y008268D03*
X004185Y004685D03*
X003785Y001335D03*
D45*
X003785Y001351D03*
X005935Y002901D03*
X008068Y004451D03*
X008285Y006151D03*
X011035Y008151D03*
X013735Y012351D03*
X013868Y012451D03*
X013935Y012501D03*
X014068Y012601D03*
X014135Y012651D03*
X011235Y014301D03*
X011168Y014251D03*
X011085Y014201D03*
X011785Y016151D03*
X017785Y011651D03*
X017835Y011701D03*
D46*
X016676Y010785D03*
X011726Y014635D03*
X011626Y014568D03*
X006676Y004268D03*
X003776Y001368D03*
X002176Y003935D03*
D47*
X001126Y001368D03*
X007726Y014185D03*
X003226Y017885D03*
X003176Y018485D03*
X002126Y018468D03*
X002076Y018368D03*
X002126Y017835D03*
X002126Y017818D03*
X001076Y019335D03*
X001126Y019418D03*
X001176Y019485D03*
X017576Y018368D03*
X017626Y018468D03*
X017626Y017835D03*
X017626Y017818D03*
X018676Y018485D03*
X018726Y017885D03*
X019776Y019268D03*
X019726Y019368D03*
X019676Y019435D03*
X019776Y001518D03*
X019726Y001418D03*
D48*
X012284Y008218D03*
X014584Y009285D03*
X012784Y010635D03*
X010051Y014185D03*
X011934Y014768D03*
X011968Y014785D03*
X018434Y014468D03*
X006284Y003218D03*
X003768Y001385D03*
X002318Y004068D03*
D49*
X003768Y001401D03*
X013568Y012151D03*
X015585Y010801D03*
X018135Y012301D03*
D50*
X012701Y010735D03*
X004601Y005685D03*
X003751Y001418D03*
D51*
X001085Y001435D03*
X001068Y001468D03*
X001035Y001535D03*
X001018Y001568D03*
X001018Y001585D03*
X000985Y001685D03*
X000985Y001718D03*
X000985Y001735D03*
X000968Y001785D03*
X000968Y001818D03*
X000968Y001835D03*
X000968Y001868D03*
X000968Y001885D03*
X000968Y001918D03*
X000968Y001935D03*
X000968Y001968D03*
X000968Y001985D03*
X000968Y002018D03*
X000968Y002035D03*
X000968Y002068D03*
X000968Y002085D03*
X000968Y002118D03*
X000968Y002135D03*
X000968Y002168D03*
X000968Y002185D03*
X000968Y002218D03*
X000968Y002235D03*
X000968Y002268D03*
X000968Y002285D03*
X000968Y002318D03*
X000968Y002335D03*
X000968Y002368D03*
X000968Y002385D03*
X000968Y002418D03*
X000968Y002435D03*
X000968Y002468D03*
X000968Y002485D03*
X000968Y002518D03*
X000968Y002535D03*
X000968Y002568D03*
X000968Y002585D03*
X000968Y002618D03*
X000968Y002635D03*
X000968Y002668D03*
X000968Y002685D03*
X000968Y002718D03*
X000968Y002735D03*
X000968Y002768D03*
X000968Y002785D03*
X000968Y002818D03*
X000968Y002835D03*
X000968Y002868D03*
X000968Y002885D03*
X000968Y002918D03*
X000968Y002935D03*
X000968Y002968D03*
X000968Y002985D03*
X000968Y003018D03*
X000968Y003035D03*
X000968Y003068D03*
X000968Y003085D03*
X000968Y003118D03*
X000968Y003135D03*
X000968Y003168D03*
X000968Y003185D03*
X000968Y003218D03*
X000968Y003235D03*
X000968Y003268D03*
X000968Y003285D03*
X000968Y003318D03*
X000968Y003335D03*
X000968Y003368D03*
X000968Y003385D03*
X000968Y003418D03*
X000968Y003435D03*
X000968Y003468D03*
X000968Y003485D03*
X000968Y003518D03*
X000968Y003535D03*
X000968Y003568D03*
X000968Y003585D03*
X000968Y003618D03*
X000968Y003635D03*
X000968Y003668D03*
X000968Y003685D03*
X000968Y003718D03*
X000968Y003735D03*
X000968Y003768D03*
X000968Y003785D03*
X000968Y003818D03*
X000968Y003835D03*
X000968Y003868D03*
X000968Y003885D03*
X000968Y003918D03*
X000968Y003935D03*
X000968Y003968D03*
X000968Y003985D03*
X000968Y004018D03*
X000968Y004035D03*
X000968Y004068D03*
X000968Y004085D03*
X000968Y004118D03*
X000968Y004135D03*
X000968Y004168D03*
X000968Y004185D03*
X000968Y004218D03*
X000968Y004235D03*
X000968Y004268D03*
X000968Y004285D03*
X000968Y004318D03*
X000968Y004335D03*
X000968Y004368D03*
X000968Y004385D03*
X000968Y004418D03*
X000968Y004435D03*
X000968Y004468D03*
X000968Y004485D03*
X000968Y004518D03*
X000968Y004535D03*
X000968Y004568D03*
X000968Y004585D03*
X000968Y004618D03*
X000968Y004635D03*
X000968Y004668D03*
X000968Y004685D03*
X000968Y004718D03*
X000968Y004735D03*
X000968Y004768D03*
X000968Y004785D03*
X000968Y004818D03*
X000968Y004835D03*
X000968Y004868D03*
X000968Y004885D03*
X000968Y004918D03*
X000968Y004935D03*
X000968Y004968D03*
X000968Y004985D03*
X000968Y005018D03*
X000968Y005035D03*
X000968Y005068D03*
X000968Y005085D03*
X000968Y005118D03*
X000968Y005135D03*
X000968Y005168D03*
X000968Y005185D03*
X000968Y005218D03*
X000968Y005235D03*
X000968Y005268D03*
X000968Y005285D03*
X000968Y005318D03*
X000968Y005335D03*
X000968Y005368D03*
X000968Y005385D03*
X000968Y005418D03*
X000968Y005435D03*
X000968Y005468D03*
X000968Y005485D03*
X000968Y005518D03*
X000968Y005535D03*
X000968Y005568D03*
X000968Y005585D03*
X000968Y005618D03*
X000968Y005635D03*
X000968Y005668D03*
X000968Y005685D03*
X000968Y005718D03*
X000968Y005735D03*
X000968Y005768D03*
X000968Y005785D03*
X000968Y005818D03*
X000968Y005835D03*
X000968Y005868D03*
X000968Y005885D03*
X000968Y005918D03*
X000968Y005935D03*
X000968Y005968D03*
X000968Y005985D03*
X000968Y006018D03*
X000968Y006035D03*
X000968Y006068D03*
X000968Y006085D03*
X000968Y006118D03*
X000968Y006135D03*
X000968Y006168D03*
X000968Y006185D03*
X000968Y006218D03*
X000968Y006235D03*
X000968Y006268D03*
X000968Y006285D03*
X000968Y006318D03*
X000968Y006335D03*
X000968Y006368D03*
X000968Y006385D03*
X000968Y006418D03*
X000968Y006435D03*
X000968Y006468D03*
X000968Y006485D03*
X000968Y006518D03*
X000968Y006535D03*
X000968Y006568D03*
X000968Y006585D03*
X000968Y006618D03*
X000968Y006635D03*
X000968Y006668D03*
X000968Y006685D03*
X000968Y006718D03*
X000968Y006735D03*
X000968Y006768D03*
X000968Y006785D03*
X000968Y006818D03*
X000968Y006835D03*
X000968Y006868D03*
X000968Y006885D03*
X000968Y006918D03*
X000968Y006935D03*
X000968Y006968D03*
X000968Y006985D03*
X000968Y007018D03*
X000968Y007035D03*
X000968Y007068D03*
X000968Y007085D03*
X000968Y007118D03*
X000968Y007135D03*
X000968Y007168D03*
X000968Y007185D03*
X000968Y007218D03*
X000968Y007235D03*
X000968Y007268D03*
X000968Y007285D03*
X000968Y007318D03*
X000968Y007335D03*
X000968Y007368D03*
X000968Y007385D03*
X000968Y007418D03*
X000968Y007435D03*
X000968Y007468D03*
X000968Y007485D03*
X000968Y007518D03*
X000968Y007535D03*
X000968Y007568D03*
X000968Y007585D03*
X000968Y007618D03*
X000968Y007635D03*
X000968Y007668D03*
X000968Y007685D03*
X000968Y007718D03*
X000968Y007735D03*
X000968Y007768D03*
X000968Y007785D03*
X000968Y007818D03*
X000968Y007835D03*
X000968Y007868D03*
X000968Y007885D03*
X000968Y007918D03*
X000968Y007935D03*
X000968Y007968D03*
X000968Y007985D03*
X000968Y008018D03*
X000968Y008035D03*
X000968Y008068D03*
X000968Y008085D03*
X000968Y008118D03*
X000968Y008135D03*
X000968Y008168D03*
X000968Y008185D03*
X000968Y008218D03*
X000968Y008235D03*
X000968Y008268D03*
X000968Y008285D03*
X000968Y008318D03*
X000968Y008335D03*
X000968Y008368D03*
X000968Y008385D03*
X000968Y008418D03*
X000968Y008435D03*
X000968Y008468D03*
X000968Y008485D03*
X000968Y008518D03*
X000968Y008535D03*
X000968Y008568D03*
X000968Y008585D03*
X000968Y008618D03*
X000968Y008635D03*
X000968Y008668D03*
X000968Y008685D03*
X000968Y008718D03*
X000968Y008735D03*
X000968Y008768D03*
X000968Y008785D03*
X000968Y008818D03*
X000968Y008835D03*
X000968Y008868D03*
X000968Y008885D03*
X000968Y008918D03*
X000968Y008935D03*
X000968Y008968D03*
X000968Y008985D03*
X000968Y009018D03*
X000968Y009035D03*
X000968Y009068D03*
X000968Y009085D03*
X000968Y009118D03*
X000968Y009135D03*
X000968Y009168D03*
X000968Y009185D03*
X000968Y009218D03*
X000968Y009235D03*
X000968Y009268D03*
X000968Y009285D03*
X000968Y009318D03*
X000968Y009335D03*
X000968Y009368D03*
X000968Y009385D03*
X000968Y009418D03*
X000968Y009435D03*
X000968Y009468D03*
X000968Y009485D03*
X000968Y009518D03*
X000968Y009535D03*
X000968Y009568D03*
X000968Y009585D03*
X000968Y009618D03*
X000968Y009635D03*
X000968Y009668D03*
X000968Y009685D03*
X000968Y009718D03*
X000968Y009735D03*
X000968Y009768D03*
X000968Y009785D03*
X000968Y009818D03*
X000968Y009835D03*
X000968Y009868D03*
X000968Y009885D03*
X000968Y009918D03*
X000968Y009935D03*
X000968Y009968D03*
X000968Y009985D03*
X000968Y010018D03*
X000968Y010035D03*
X000968Y010068D03*
X000968Y010085D03*
X000968Y010118D03*
X000968Y010135D03*
X000968Y010168D03*
X000968Y010185D03*
X000968Y010218D03*
X000968Y010235D03*
X000968Y010268D03*
X000968Y010285D03*
X000968Y010318D03*
X000968Y010335D03*
X000968Y010368D03*
X000968Y010385D03*
X000968Y010418D03*
X000968Y010435D03*
X000968Y010468D03*
X000968Y010485D03*
X000968Y010518D03*
X000968Y010535D03*
X000968Y010568D03*
X000968Y010585D03*
X000968Y010618D03*
X000968Y010635D03*
X000968Y010668D03*
X000968Y010685D03*
X000968Y010718D03*
X000968Y010735D03*
X000968Y010768D03*
X000968Y010785D03*
X000968Y010818D03*
X000968Y010835D03*
X000968Y010868D03*
X000968Y010885D03*
X000968Y010918D03*
X000968Y010935D03*
X000968Y010968D03*
X000968Y010985D03*
X000968Y011018D03*
X000968Y011035D03*
X000968Y011068D03*
X000968Y011085D03*
X000968Y011118D03*
X000968Y011135D03*
X000968Y011168D03*
X000968Y011185D03*
X000968Y011218D03*
X000968Y011235D03*
X000968Y011268D03*
X000968Y011285D03*
X000968Y011318D03*
X000968Y011335D03*
X000968Y011368D03*
X000968Y011385D03*
X000968Y011418D03*
X000968Y011435D03*
X000968Y011468D03*
X000968Y011485D03*
X000968Y011518D03*
X000968Y011535D03*
X000968Y011568D03*
X000968Y011585D03*
X000968Y011618D03*
X000968Y011635D03*
X000968Y011668D03*
X000968Y011685D03*
X000968Y011718D03*
X000968Y011735D03*
X000968Y011768D03*
X000968Y011785D03*
X000968Y011818D03*
X000968Y011835D03*
X000968Y011868D03*
X000968Y011885D03*
X000968Y011918D03*
X000968Y011935D03*
X000968Y011968D03*
X000968Y011985D03*
X000968Y012018D03*
X000968Y012035D03*
X000968Y012068D03*
X000968Y012085D03*
X000968Y012118D03*
X000968Y012135D03*
X000968Y012168D03*
X000968Y012185D03*
X000968Y012218D03*
X000968Y012235D03*
X000968Y012268D03*
X000968Y012285D03*
X000968Y012318D03*
X000968Y012335D03*
X000968Y012368D03*
X000968Y012385D03*
X000968Y012418D03*
X000968Y012435D03*
X000968Y012468D03*
X000968Y012485D03*
X000968Y012518D03*
X000968Y012535D03*
X000968Y012568D03*
X000968Y012585D03*
X000968Y012618D03*
X000968Y012635D03*
X000968Y012668D03*
X000968Y012685D03*
X000968Y012718D03*
X000968Y012735D03*
X000968Y012768D03*
X000968Y012785D03*
X000968Y012818D03*
X000968Y012835D03*
X000968Y012868D03*
X000968Y012885D03*
X000968Y012918D03*
X000968Y012935D03*
X000968Y012968D03*
X000968Y012985D03*
X000968Y013018D03*
X000968Y013035D03*
X000968Y013068D03*
X000968Y013085D03*
X000968Y013118D03*
X000968Y013135D03*
X000968Y013168D03*
X000968Y013185D03*
X000968Y013218D03*
X000968Y013235D03*
X000968Y013268D03*
X000968Y013285D03*
X000968Y013318D03*
X000968Y013335D03*
X000968Y013368D03*
X000968Y013385D03*
X000968Y013418D03*
X000968Y013435D03*
X000968Y013468D03*
X000968Y013485D03*
X000968Y013518D03*
X000968Y013535D03*
X000968Y013568D03*
X000968Y013585D03*
X000968Y013618D03*
X000968Y013635D03*
X000968Y013668D03*
X000968Y013685D03*
X000968Y013718D03*
X000968Y013735D03*
X000968Y013768D03*
X000968Y013785D03*
X000968Y013818D03*
X000968Y013835D03*
X000968Y013868D03*
X000968Y013885D03*
X000968Y013918D03*
X000968Y013935D03*
X000968Y013968D03*
X000968Y013985D03*
X000968Y014018D03*
X000968Y014035D03*
X000968Y014068D03*
X000968Y014085D03*
X000968Y014118D03*
X000968Y014135D03*
X000968Y014168D03*
X000968Y014185D03*
X000968Y014218D03*
X000968Y014235D03*
X000968Y014268D03*
X000968Y014285D03*
X000968Y014318D03*
X000968Y014335D03*
X000968Y014368D03*
X000968Y014385D03*
X000968Y014418D03*
X000968Y014435D03*
X000968Y014468D03*
X000968Y014485D03*
X000968Y014518D03*
X000968Y014535D03*
X000968Y014568D03*
X000968Y014585D03*
X000968Y014618D03*
X000968Y014635D03*
X000968Y014668D03*
X000968Y014685D03*
X000968Y014718D03*
X000968Y014735D03*
X000968Y014768D03*
X000968Y014785D03*
X000968Y014818D03*
X000968Y014835D03*
X000968Y014868D03*
X000968Y014885D03*
X000968Y014918D03*
X000968Y014935D03*
X000968Y014968D03*
X000968Y014985D03*
X000968Y015018D03*
X000968Y015035D03*
X000968Y015068D03*
X000968Y015085D03*
X000968Y015118D03*
X000968Y015135D03*
X000968Y015168D03*
X000968Y015185D03*
X000968Y015218D03*
X000968Y015235D03*
X000968Y015268D03*
X000968Y015285D03*
X000968Y015318D03*
X000968Y015335D03*
X000968Y015368D03*
X000968Y015385D03*
X000968Y015418D03*
X000968Y015435D03*
X000968Y015468D03*
X000968Y015485D03*
X000968Y015518D03*
X000968Y015535D03*
X000968Y015568D03*
X000968Y015585D03*
X000968Y015618D03*
X000968Y015635D03*
X000968Y015668D03*
X000968Y015685D03*
X000968Y015718D03*
X000968Y015735D03*
X000968Y015768D03*
X000968Y015785D03*
X000968Y015818D03*
X000968Y015835D03*
X000968Y015868D03*
X000968Y015885D03*
X000968Y015918D03*
X000968Y015935D03*
X000968Y015968D03*
X000968Y015985D03*
X000968Y016018D03*
X000968Y016035D03*
X000968Y016068D03*
X000968Y016085D03*
X000968Y016118D03*
X000968Y016135D03*
X000968Y016168D03*
X000968Y016185D03*
X000968Y016218D03*
X000968Y016235D03*
X000968Y016268D03*
X000968Y016285D03*
X000968Y016318D03*
X000968Y016335D03*
X000968Y016368D03*
X000968Y016385D03*
X000968Y016418D03*
X000968Y016435D03*
X000968Y016468D03*
X000968Y016485D03*
X000968Y016518D03*
X000968Y016535D03*
X000968Y016568D03*
X000968Y016585D03*
X000968Y016618D03*
X000968Y016635D03*
X000968Y016668D03*
X000968Y016685D03*
X000968Y016718D03*
X000968Y016735D03*
X000968Y016768D03*
X000968Y016785D03*
X000968Y016818D03*
X000968Y016835D03*
X000968Y016868D03*
X000968Y016885D03*
X000968Y016918D03*
X000968Y016935D03*
X000968Y016968D03*
X000968Y016985D03*
X000968Y017018D03*
X000968Y017035D03*
X000968Y017068D03*
X000968Y017085D03*
X000968Y017118D03*
X000968Y017135D03*
X000968Y017168D03*
X000968Y017185D03*
X000968Y017218D03*
X000968Y017235D03*
X000968Y017268D03*
X000968Y017285D03*
X000968Y017318D03*
X000968Y017335D03*
X000968Y017368D03*
X000968Y017385D03*
X000968Y017418D03*
X000968Y017435D03*
X000968Y017468D03*
X000968Y017485D03*
X000968Y017518D03*
X000968Y017535D03*
X000968Y017568D03*
X000968Y017585D03*
X000968Y017618D03*
X000968Y017635D03*
X000968Y017668D03*
X000968Y017685D03*
X000968Y017718D03*
X000968Y017735D03*
X000968Y017768D03*
X000968Y017785D03*
X000968Y017818D03*
X000968Y017835D03*
X000968Y017868D03*
X000968Y017885D03*
X000968Y017918D03*
X000968Y017935D03*
X000968Y017968D03*
X000968Y017985D03*
X000968Y018018D03*
X000968Y018035D03*
X000968Y018068D03*
X000968Y018085D03*
X000968Y018118D03*
X000968Y018135D03*
X000968Y018168D03*
X000968Y018185D03*
X000968Y018218D03*
X000968Y018235D03*
X000968Y018268D03*
X000968Y018285D03*
X000968Y018318D03*
X000968Y018335D03*
X000968Y018368D03*
X000968Y018385D03*
X000968Y018418D03*
X000968Y018435D03*
X000968Y018468D03*
X000968Y018485D03*
X000968Y018518D03*
X000968Y018535D03*
X000968Y018568D03*
X000968Y018585D03*
X000968Y018618D03*
X000968Y018635D03*
X000968Y018668D03*
X000968Y018685D03*
X000968Y018718D03*
X000968Y018735D03*
X000968Y018768D03*
X000968Y018785D03*
X000968Y018818D03*
X000968Y018835D03*
X000968Y018868D03*
X000968Y018885D03*
X000968Y018918D03*
X000968Y018935D03*
X000968Y018968D03*
X000968Y018985D03*
X000985Y019068D03*
X000985Y019085D03*
X001018Y019185D03*
X001018Y019218D03*
X001035Y019235D03*
X001068Y019318D03*
X002068Y018335D03*
X002068Y018318D03*
X002085Y018385D03*
X002035Y018218D03*
X002035Y018185D03*
X002035Y018168D03*
X002035Y018135D03*
X002035Y018118D03*
X002035Y018085D03*
X002068Y017968D03*
X002068Y017935D03*
X002085Y017918D03*
X003218Y017868D03*
X003235Y017918D03*
X003268Y017985D03*
X003268Y018018D03*
X003268Y018035D03*
X003285Y018085D03*
X003285Y018118D03*
X003285Y018135D03*
X003285Y018168D03*
X003285Y018185D03*
X003285Y018218D03*
X003268Y018268D03*
X003268Y018285D03*
X003235Y018385D03*
X003218Y018418D03*
X007735Y014168D03*
X012668Y016718D03*
X012718Y016485D03*
X012718Y016468D03*
X017568Y017935D03*
X017585Y017918D03*
X017568Y017968D03*
X017535Y018085D03*
X017535Y018118D03*
X017535Y018135D03*
X017535Y018168D03*
X017535Y018185D03*
X017535Y018218D03*
X017568Y018318D03*
X017568Y018335D03*
X017585Y018385D03*
X018718Y018418D03*
X018735Y018385D03*
X018768Y018285D03*
X018768Y018268D03*
X018785Y018218D03*
X018785Y018185D03*
X018785Y018168D03*
X018785Y018135D03*
X018785Y018118D03*
X018785Y018085D03*
X018768Y018035D03*
X018768Y018018D03*
X018768Y017985D03*
X018735Y017918D03*
X018718Y017868D03*
X019835Y019068D03*
X019835Y019085D03*
X019818Y019135D03*
X019818Y019168D03*
X019785Y019235D03*
X019768Y019285D03*
X019718Y019385D03*
X019835Y001735D03*
X019835Y001718D03*
X019835Y001685D03*
X019818Y001635D03*
X019818Y001618D03*
X019785Y001535D03*
X019735Y001435D03*
D52*
X009068Y005318D03*
X003751Y001435D03*
X002201Y003418D03*
X018084Y012335D03*
X018351Y013185D03*
X018368Y013218D03*
X018368Y013235D03*
X018401Y013485D03*
D53*
X010151Y009651D03*
X003751Y001451D03*
D54*
X001001Y001618D03*
X001001Y001635D03*
X002101Y017868D03*
X002051Y017985D03*
X002051Y018018D03*
X002051Y018035D03*
X002051Y018268D03*
X002051Y018285D03*
X002101Y018418D03*
X003251Y018335D03*
X003251Y018318D03*
X003251Y017968D03*
X003251Y017935D03*
X001051Y019285D03*
X001101Y019385D03*
X001001Y019168D03*
X001001Y019135D03*
X017551Y018285D03*
X017551Y018268D03*
X017601Y018418D03*
X017551Y018035D03*
X017551Y018018D03*
X017551Y017985D03*
X017601Y017868D03*
X018751Y017935D03*
X018751Y017968D03*
X018751Y018318D03*
X018751Y018335D03*
X019751Y019318D03*
X019801Y019218D03*
X019801Y019185D03*
X019851Y018985D03*
X019851Y018968D03*
X019851Y018935D03*
X019851Y018918D03*
X019851Y018885D03*
X019851Y018868D03*
X019851Y018835D03*
X019851Y018818D03*
X019851Y018785D03*
X019851Y018768D03*
X019851Y018735D03*
X019851Y018718D03*
X019851Y018685D03*
X019851Y018668D03*
X019851Y018635D03*
X019851Y018618D03*
X019851Y018585D03*
X019851Y018568D03*
X019851Y018535D03*
X019851Y018518D03*
X019851Y018485D03*
X019851Y018468D03*
X019851Y018435D03*
X019851Y018418D03*
X019851Y018385D03*
X019851Y018368D03*
X019851Y018335D03*
X019851Y018318D03*
X019851Y018285D03*
X019851Y018268D03*
X019851Y018235D03*
X019851Y018218D03*
X019851Y018185D03*
X019851Y018168D03*
X019851Y018135D03*
X019851Y018118D03*
X019851Y018085D03*
X019851Y018068D03*
X019851Y018035D03*
X019851Y018018D03*
X019851Y017985D03*
X019851Y017968D03*
X019851Y017935D03*
X019851Y017918D03*
X019851Y017885D03*
X019851Y017868D03*
X019851Y017835D03*
X019851Y017818D03*
X019851Y017785D03*
X019851Y017768D03*
X019851Y017735D03*
X019851Y017718D03*
X019851Y017685D03*
X019851Y017668D03*
X019851Y017635D03*
X019851Y017618D03*
X019851Y017585D03*
X019851Y017568D03*
X019851Y017535D03*
X019851Y017518D03*
X019851Y017485D03*
X019851Y017468D03*
X019851Y017435D03*
X019851Y017418D03*
X019851Y017385D03*
X019851Y017368D03*
X019851Y017335D03*
X019851Y017318D03*
X019851Y017285D03*
X019851Y017268D03*
X019851Y017235D03*
X019851Y017218D03*
X019851Y017185D03*
X019851Y017168D03*
X019851Y017135D03*
X019851Y017118D03*
X019851Y017085D03*
X019851Y017068D03*
X019851Y017035D03*
X019851Y017018D03*
X019851Y016985D03*
X019851Y016968D03*
X019851Y016935D03*
X019851Y016918D03*
X019851Y016885D03*
X019851Y016868D03*
X019851Y016835D03*
X019851Y016818D03*
X019851Y016785D03*
X019851Y016768D03*
X019851Y016735D03*
X019851Y016718D03*
X019851Y016685D03*
X019851Y016668D03*
X019851Y016635D03*
X019851Y016618D03*
X019851Y016585D03*
X019851Y016568D03*
X019851Y016535D03*
X019851Y016518D03*
X019851Y016485D03*
X019851Y016468D03*
X019851Y016435D03*
X019851Y016418D03*
X019851Y016385D03*
X019851Y016368D03*
X019851Y016335D03*
X019851Y016318D03*
X019851Y016285D03*
X019851Y016268D03*
X019851Y016235D03*
X019851Y016218D03*
X019851Y016185D03*
X019851Y016168D03*
X019851Y016135D03*
X019851Y016118D03*
X019851Y016085D03*
X019851Y016068D03*
X019851Y016035D03*
X019851Y016018D03*
X019851Y015985D03*
X019851Y015968D03*
X019851Y015935D03*
X019851Y015918D03*
X019851Y015885D03*
X019851Y015868D03*
X019851Y015835D03*
X019851Y015818D03*
X019851Y015785D03*
X019851Y015768D03*
X019851Y015735D03*
X019851Y015718D03*
X019851Y015685D03*
X019851Y015668D03*
X019851Y015635D03*
X019851Y015618D03*
X019851Y015585D03*
X019851Y015568D03*
X019851Y015535D03*
X019851Y015518D03*
X019851Y015485D03*
X019851Y015468D03*
X019851Y015435D03*
X019851Y015418D03*
X019851Y015385D03*
X019851Y015368D03*
X019851Y015335D03*
X019851Y015318D03*
X019851Y015285D03*
X019851Y015268D03*
X019851Y015235D03*
X019851Y015218D03*
X019851Y015185D03*
X019851Y015168D03*
X019851Y015135D03*
X019851Y015118D03*
X019851Y015085D03*
X019851Y015068D03*
X019851Y015035D03*
X019851Y015018D03*
X019851Y014985D03*
X019851Y014968D03*
X019851Y014935D03*
X019851Y014918D03*
X019851Y014885D03*
X019851Y014868D03*
X019851Y014835D03*
X019851Y014818D03*
X019851Y014785D03*
X019851Y014768D03*
X019851Y014735D03*
X019851Y014718D03*
X019851Y014685D03*
X019851Y014668D03*
X019851Y014635D03*
X019851Y014618D03*
X019851Y014585D03*
X019851Y014568D03*
X019851Y014535D03*
X019851Y014518D03*
X019851Y014485D03*
X019851Y014468D03*
X019851Y014435D03*
X019851Y014418D03*
X019851Y014385D03*
X019851Y014368D03*
X019851Y014335D03*
X019851Y014318D03*
X019851Y014285D03*
X019851Y014268D03*
X019851Y014235D03*
X019851Y014218D03*
X019851Y014185D03*
X019851Y014168D03*
X019851Y014135D03*
X019851Y014118D03*
X019851Y014085D03*
X019851Y014068D03*
X019851Y014035D03*
X019851Y014018D03*
X019851Y013985D03*
X019851Y013968D03*
X019851Y013935D03*
X019851Y013918D03*
X019851Y013885D03*
X019851Y013868D03*
X019851Y013835D03*
X019851Y013818D03*
X019851Y013785D03*
X019851Y013768D03*
X019851Y013735D03*
X019851Y013718D03*
X019851Y013685D03*
X019851Y013668D03*
X019851Y013635D03*
X019851Y013618D03*
X019851Y013585D03*
X019851Y013568D03*
X019851Y013535D03*
X019851Y013518D03*
X019851Y013485D03*
X019851Y013468D03*
X019851Y013435D03*
X019851Y013418D03*
X019851Y013385D03*
X019851Y013368D03*
X019851Y013335D03*
X019851Y013318D03*
X019851Y013285D03*
X019851Y013268D03*
X019851Y013235D03*
X019851Y013218D03*
X019851Y013185D03*
X019851Y013168D03*
X019851Y013135D03*
X019851Y013118D03*
X019851Y013085D03*
X019851Y013068D03*
X019851Y013035D03*
X019851Y013018D03*
X019851Y012985D03*
X019851Y012968D03*
X019851Y012935D03*
X019851Y012918D03*
X019851Y012885D03*
X019851Y012868D03*
X019851Y012835D03*
X019851Y012818D03*
X019851Y012785D03*
X019851Y012768D03*
X019851Y012735D03*
X019851Y012718D03*
X019851Y012685D03*
X019851Y012668D03*
X019851Y012635D03*
X019851Y012618D03*
X019851Y012585D03*
X019851Y012568D03*
X019851Y012535D03*
X019851Y012518D03*
X019851Y012485D03*
X019851Y012468D03*
X019851Y012435D03*
X019851Y012418D03*
X019851Y012385D03*
X019851Y012368D03*
X019851Y012335D03*
X019851Y012318D03*
X019851Y012285D03*
X019851Y012268D03*
X019851Y012235D03*
X019851Y012218D03*
X019851Y012185D03*
X019851Y012168D03*
X019851Y012135D03*
X019851Y012118D03*
X019851Y012085D03*
X019851Y012068D03*
X019851Y012035D03*
X019851Y012018D03*
X019851Y011985D03*
X019851Y011968D03*
X019851Y011935D03*
X019851Y011918D03*
X019851Y011885D03*
X019851Y011868D03*
X019851Y011835D03*
X019851Y011818D03*
X019851Y011785D03*
X019851Y011768D03*
X019851Y011735D03*
X019851Y011718D03*
X019851Y011685D03*
X019851Y011668D03*
X019851Y011635D03*
X019851Y011618D03*
X019851Y011585D03*
X019851Y011568D03*
X019851Y011535D03*
X019851Y011518D03*
X019851Y011485D03*
X019851Y011468D03*
X019851Y011435D03*
X019851Y011418D03*
X019851Y011385D03*
X019851Y011368D03*
X019851Y011335D03*
X019851Y011318D03*
X019851Y011285D03*
X019851Y011268D03*
X019851Y011235D03*
X019851Y011218D03*
X019851Y011185D03*
X019851Y011168D03*
X019851Y011135D03*
X019851Y011118D03*
X019851Y011085D03*
X019851Y011068D03*
X019851Y011035D03*
X019851Y011018D03*
X019851Y010985D03*
X019851Y010968D03*
X019851Y010935D03*
X019851Y010918D03*
X019851Y010885D03*
X019851Y010868D03*
X019851Y010835D03*
X019851Y010818D03*
X019851Y010785D03*
X019851Y010768D03*
X019851Y010735D03*
X019851Y010718D03*
X019851Y010685D03*
X019851Y010668D03*
X019851Y010635D03*
X019851Y010618D03*
X019851Y010585D03*
X019851Y010568D03*
X019851Y010535D03*
X019851Y010518D03*
X019851Y010485D03*
X019851Y010468D03*
X019851Y010435D03*
X019851Y010418D03*
X019851Y010385D03*
X019851Y010368D03*
X019851Y010335D03*
X019851Y010318D03*
X019851Y010285D03*
X019851Y010268D03*
X019851Y010235D03*
X019851Y010218D03*
X019851Y010185D03*
X019851Y010168D03*
X019851Y010135D03*
X019851Y010118D03*
X019851Y010085D03*
X019851Y010068D03*
X019851Y010035D03*
X019851Y010018D03*
X019851Y009985D03*
X019851Y009968D03*
X019851Y009935D03*
X019851Y009918D03*
X019851Y009885D03*
X019851Y009868D03*
X019851Y009835D03*
X019851Y009818D03*
X019851Y009785D03*
X019851Y009768D03*
X019851Y009735D03*
X019851Y009718D03*
X019851Y009685D03*
X019851Y009668D03*
X019851Y009635D03*
X019851Y009618D03*
X019851Y009585D03*
X019851Y009568D03*
X019851Y009535D03*
X019851Y009518D03*
X019851Y009485D03*
X019851Y009468D03*
X019851Y009435D03*
X019851Y009418D03*
X019851Y009385D03*
X019851Y009368D03*
X019851Y009335D03*
X019851Y009318D03*
X019851Y009285D03*
X019851Y009268D03*
X019851Y009235D03*
X019851Y009218D03*
X019851Y009185D03*
X019851Y009168D03*
X019851Y009135D03*
X019851Y009118D03*
X019851Y009085D03*
X019851Y009068D03*
X019851Y009035D03*
X019851Y009018D03*
X019851Y008985D03*
X019851Y008968D03*
X019851Y008935D03*
X019851Y008918D03*
X019851Y008885D03*
X019851Y008868D03*
X019851Y008835D03*
X019851Y008818D03*
X019851Y008785D03*
X019851Y008768D03*
X019851Y008735D03*
X019851Y008718D03*
X019851Y008685D03*
X019851Y008668D03*
X019851Y008635D03*
X019851Y008618D03*
X019851Y008585D03*
X019851Y008568D03*
X019851Y008535D03*
X019851Y008518D03*
X019851Y008485D03*
X019851Y008468D03*
X019851Y008435D03*
X019851Y008418D03*
X019851Y008385D03*
X019851Y008368D03*
X019851Y008335D03*
X019851Y008318D03*
X019851Y008285D03*
X019851Y008268D03*
X019851Y008235D03*
X019851Y008218D03*
X019851Y008185D03*
X019851Y008168D03*
X019851Y008135D03*
X019851Y008118D03*
X019851Y008085D03*
X019851Y008068D03*
X019851Y008035D03*
X019851Y008018D03*
X019851Y007985D03*
X019851Y007968D03*
X019851Y007935D03*
X019851Y007918D03*
X019851Y007885D03*
X019851Y007868D03*
X019851Y007835D03*
X019851Y007818D03*
X019851Y007785D03*
X019851Y007768D03*
X019851Y007735D03*
X019851Y007718D03*
X019851Y007685D03*
X019851Y007668D03*
X019851Y007635D03*
X019851Y007618D03*
X019851Y007585D03*
X019851Y007568D03*
X019851Y007535D03*
X019851Y007518D03*
X019851Y007485D03*
X019851Y007468D03*
X019851Y007435D03*
X019851Y007418D03*
X019851Y007385D03*
X019851Y007368D03*
X019851Y007335D03*
X019851Y007318D03*
X019851Y007285D03*
X019851Y007268D03*
X019851Y007235D03*
X019851Y007218D03*
X019851Y007185D03*
X019851Y007168D03*
X019851Y007135D03*
X019851Y007118D03*
X019851Y007085D03*
X019851Y007068D03*
X019851Y007035D03*
X019851Y007018D03*
X019851Y006985D03*
X019851Y006968D03*
X019851Y006935D03*
X019851Y006918D03*
X019851Y006885D03*
X019851Y006868D03*
X019851Y006835D03*
X019851Y006818D03*
X019851Y006785D03*
X019851Y006768D03*
X019851Y006735D03*
X019851Y006718D03*
X019851Y006685D03*
X019851Y006668D03*
X019851Y006635D03*
X019851Y006618D03*
X019851Y006585D03*
X019851Y006568D03*
X019851Y006535D03*
X019851Y006518D03*
X019851Y006485D03*
X019851Y006468D03*
X019851Y006435D03*
X019851Y006418D03*
X019851Y006385D03*
X019851Y006368D03*
X019851Y006335D03*
X019851Y006318D03*
X019851Y006285D03*
X019851Y006268D03*
X019851Y006235D03*
X019851Y006218D03*
X019851Y006185D03*
X019851Y006168D03*
X019851Y006135D03*
X019851Y006118D03*
X019851Y006085D03*
X019851Y006068D03*
X019851Y006035D03*
X019851Y006018D03*
X019851Y005985D03*
X019851Y005968D03*
X019851Y005935D03*
X019851Y005918D03*
X019851Y005885D03*
X019851Y005868D03*
X019851Y005835D03*
X019851Y005818D03*
X019851Y005785D03*
X019851Y005768D03*
X019851Y005735D03*
X019851Y005718D03*
X019851Y005685D03*
X019851Y005668D03*
X019851Y005635D03*
X019851Y005618D03*
X019851Y005585D03*
X019851Y005568D03*
X019851Y005535D03*
X019851Y005518D03*
X019851Y005485D03*
X019851Y005468D03*
X019851Y005435D03*
X019851Y005418D03*
X019851Y005385D03*
X019851Y005368D03*
X019851Y005335D03*
X019851Y005318D03*
X019851Y005285D03*
X019851Y005268D03*
X019851Y005235D03*
X019851Y005218D03*
X019851Y005185D03*
X019851Y005168D03*
X019851Y005135D03*
X019851Y005118D03*
X019851Y005085D03*
X019851Y005068D03*
X019851Y005035D03*
X019851Y005018D03*
X019851Y004985D03*
X019851Y004968D03*
X019851Y004935D03*
X019851Y004918D03*
X019851Y004885D03*
X019851Y004868D03*
X019851Y004835D03*
X019851Y004818D03*
X019851Y004785D03*
X019851Y004768D03*
X019851Y004735D03*
X019851Y004718D03*
X019851Y004685D03*
X019851Y004668D03*
X019851Y004635D03*
X019851Y004618D03*
X019851Y004585D03*
X019851Y004568D03*
X019851Y004535D03*
X019851Y004518D03*
X019851Y004485D03*
X019851Y004468D03*
X019851Y004435D03*
X019851Y004418D03*
X019851Y004385D03*
X019851Y004368D03*
X019851Y004335D03*
X019851Y004318D03*
X019851Y004285D03*
X019851Y004268D03*
X019851Y004235D03*
X019851Y004218D03*
X019851Y004185D03*
X019851Y004168D03*
X019851Y004135D03*
X019851Y004118D03*
X019851Y004085D03*
X019851Y004068D03*
X019851Y004035D03*
X019851Y004018D03*
X019851Y003985D03*
X019851Y003968D03*
X019851Y003935D03*
X019851Y003918D03*
X019851Y003885D03*
X019851Y003868D03*
X019851Y003835D03*
X019851Y003818D03*
X019851Y003785D03*
X019851Y003768D03*
X019851Y003735D03*
X019851Y003718D03*
X019851Y003685D03*
X019851Y003668D03*
X019851Y003635D03*
X019851Y003618D03*
X019851Y003585D03*
X019851Y003568D03*
X019851Y003535D03*
X019851Y003518D03*
X019851Y003485D03*
X019851Y003468D03*
X019851Y003435D03*
X019851Y003418D03*
X019851Y003385D03*
X019851Y003368D03*
X019851Y003335D03*
X019851Y003318D03*
X019851Y003285D03*
X019851Y003268D03*
X019851Y003235D03*
X019851Y003218D03*
X019851Y003185D03*
X019851Y003168D03*
X019851Y003135D03*
X019851Y003118D03*
X019851Y003085D03*
X019851Y003068D03*
X019851Y003035D03*
X019851Y003018D03*
X019851Y002985D03*
X019851Y002968D03*
X019851Y002935D03*
X019851Y002918D03*
X019851Y002885D03*
X019851Y002868D03*
X019851Y002835D03*
X019851Y002818D03*
X019851Y002785D03*
X019851Y002768D03*
X019851Y002735D03*
X019851Y002718D03*
X019851Y002685D03*
X019851Y002668D03*
X019851Y002635D03*
X019851Y002618D03*
X019851Y002585D03*
X019851Y002568D03*
X019851Y002535D03*
X019851Y002518D03*
X019851Y002485D03*
X019851Y002468D03*
X019851Y002435D03*
X019851Y002418D03*
X019851Y002385D03*
X019851Y002368D03*
X019851Y002335D03*
X019851Y002318D03*
X019851Y002285D03*
X019851Y002268D03*
X019851Y002235D03*
X019851Y002218D03*
X019851Y002185D03*
X019851Y002168D03*
X019851Y002135D03*
X019851Y002118D03*
X019851Y002085D03*
X019851Y002068D03*
X019851Y002035D03*
X019851Y002018D03*
X019851Y001985D03*
X019851Y001968D03*
X019851Y001935D03*
X019851Y001918D03*
X019851Y001885D03*
X019851Y001868D03*
X019851Y001835D03*
X019851Y001818D03*
X019851Y001785D03*
X019801Y001585D03*
X019801Y001568D03*
X019751Y001468D03*
D55*
X018343Y013668D03*
X007393Y007635D03*
X004593Y005618D03*
X006293Y003335D03*
X003743Y001468D03*
X002260Y003335D03*
D56*
X003735Y001485D03*
X009068Y005385D03*
X011968Y018118D03*
D57*
X012668Y016701D03*
X012685Y016651D03*
X012718Y016501D03*
X012718Y016451D03*
X017568Y017951D03*
X017585Y017901D03*
X017535Y018101D03*
X017535Y018151D03*
X017535Y018201D03*
X017568Y018351D03*
X017618Y018451D03*
X018768Y018301D03*
X018768Y018251D03*
X018785Y018201D03*
X018785Y018151D03*
X018785Y018101D03*
X018768Y018051D03*
X018768Y018001D03*
X018735Y017901D03*
X019835Y019051D03*
X019835Y019101D03*
X019818Y019151D03*
X019785Y019251D03*
X019735Y019351D03*
X007735Y014151D03*
X003235Y017901D03*
X003268Y018001D03*
X003268Y018051D03*
X003285Y018101D03*
X003285Y018151D03*
X003285Y018201D03*
X003268Y018251D03*
X003268Y018301D03*
X002118Y018451D03*
X002068Y018351D03*
X002035Y018201D03*
X002035Y018151D03*
X002035Y018101D03*
X002068Y017951D03*
X002085Y017901D03*
X000968Y017901D03*
X000968Y017851D03*
X000968Y017801D03*
X000968Y017751D03*
X000968Y017701D03*
X000968Y017651D03*
X000968Y017601D03*
X000968Y017551D03*
X000968Y017501D03*
X000968Y017451D03*
X000968Y017401D03*
X000968Y017351D03*
X000968Y017301D03*
X000968Y017251D03*
X000968Y017201D03*
X000968Y017151D03*
X000968Y017101D03*
X000968Y017051D03*
X000968Y017001D03*
X000968Y016951D03*
X000968Y016901D03*
X000968Y016851D03*
X000968Y016801D03*
X000968Y016751D03*
X000968Y016701D03*
X000968Y016651D03*
X000968Y016601D03*
X000968Y016551D03*
X000968Y016501D03*
X000968Y016451D03*
X000968Y016401D03*
X000968Y016351D03*
X000968Y016301D03*
X000968Y016251D03*
X000968Y016201D03*
X000968Y016151D03*
X000968Y016101D03*
X000968Y016051D03*
X000968Y016001D03*
X000968Y015951D03*
X000968Y015901D03*
X000968Y015851D03*
X000968Y015801D03*
X000968Y015751D03*
X000968Y015701D03*
X000968Y015651D03*
X000968Y015601D03*
X000968Y015551D03*
X000968Y015501D03*
X000968Y015451D03*
X000968Y015401D03*
X000968Y015351D03*
X000968Y015301D03*
X000968Y015251D03*
X000968Y015201D03*
X000968Y015151D03*
X000968Y015101D03*
X000968Y015051D03*
X000968Y015001D03*
X000968Y014951D03*
X000968Y014901D03*
X000968Y014851D03*
X000968Y014801D03*
X000968Y014751D03*
X000968Y014701D03*
X000968Y014651D03*
X000968Y014601D03*
X000968Y014551D03*
X000968Y014501D03*
X000968Y014451D03*
X000968Y014401D03*
X000968Y014351D03*
X000968Y014301D03*
X000968Y014251D03*
X000968Y014201D03*
X000968Y014151D03*
X000968Y014101D03*
X000968Y014051D03*
X000968Y014001D03*
X000968Y013951D03*
X000968Y013901D03*
X000968Y013851D03*
X000968Y013801D03*
X000968Y013751D03*
X000968Y013701D03*
X000968Y013651D03*
X000968Y013601D03*
X000968Y013551D03*
X000968Y013501D03*
X000968Y013451D03*
X000968Y013401D03*
X000968Y013351D03*
X000968Y013301D03*
X000968Y013251D03*
X000968Y013201D03*
X000968Y013151D03*
X000968Y013101D03*
X000968Y013051D03*
X000968Y013001D03*
X000968Y012951D03*
X000968Y012901D03*
X000968Y012851D03*
X000968Y012801D03*
X000968Y012751D03*
X000968Y012701D03*
X000968Y012651D03*
X000968Y012601D03*
X000968Y012551D03*
X000968Y012501D03*
X000968Y012451D03*
X000968Y012401D03*
X000968Y012351D03*
X000968Y012301D03*
X000968Y012251D03*
X000968Y012201D03*
X000968Y012151D03*
X000968Y012101D03*
X000968Y012051D03*
X000968Y012001D03*
X000968Y011951D03*
X000968Y011901D03*
X000968Y011851D03*
X000968Y011801D03*
X000968Y011751D03*
X000968Y011701D03*
X000968Y011651D03*
X000968Y011601D03*
X000968Y011551D03*
X000968Y011501D03*
X000968Y011451D03*
X000968Y011401D03*
X000968Y011351D03*
X000968Y011301D03*
X000968Y011251D03*
X000968Y011201D03*
X000968Y011151D03*
X000968Y011101D03*
X000968Y011051D03*
X000968Y011001D03*
X000968Y010951D03*
X000968Y010901D03*
X000968Y010851D03*
X000968Y010801D03*
X000968Y010751D03*
X000968Y010701D03*
X000968Y010651D03*
X000968Y010601D03*
X000968Y010551D03*
X000968Y010501D03*
X000968Y010451D03*
X000968Y010401D03*
X000968Y010351D03*
X000968Y010301D03*
X000968Y010251D03*
X000968Y010201D03*
X000968Y010151D03*
X000968Y010101D03*
X000968Y010051D03*
X000968Y010001D03*
X000968Y009951D03*
X000968Y009901D03*
X000968Y009851D03*
X000968Y009801D03*
X000968Y009751D03*
X000968Y009701D03*
X000968Y009651D03*
X000968Y009601D03*
X000968Y009551D03*
X000968Y009501D03*
X000968Y009451D03*
X000968Y009401D03*
X000968Y009351D03*
X000968Y009301D03*
X000968Y009251D03*
X000968Y009201D03*
X000968Y009151D03*
X000968Y009101D03*
X000968Y009051D03*
X000968Y009001D03*
X000968Y008951D03*
X000968Y008901D03*
X000968Y008851D03*
X000968Y008801D03*
X000968Y008751D03*
X000968Y008701D03*
X000968Y008651D03*
X000968Y008601D03*
X000968Y008551D03*
X000968Y008501D03*
X000968Y008451D03*
X000968Y008401D03*
X000968Y008351D03*
X000968Y008301D03*
X000968Y008251D03*
X000968Y008201D03*
X000968Y008151D03*
X000968Y008101D03*
X000968Y008051D03*
X000968Y008001D03*
X000968Y007951D03*
X000968Y007901D03*
X000968Y007851D03*
X000968Y007801D03*
X000968Y007751D03*
X000968Y007701D03*
X000968Y007651D03*
X000968Y007601D03*
X000968Y007551D03*
X000968Y007501D03*
X000968Y007451D03*
X000968Y007401D03*
X000968Y007351D03*
X000968Y007301D03*
X000968Y007251D03*
X000968Y007201D03*
X000968Y007151D03*
X000968Y007101D03*
X000968Y007051D03*
X000968Y007001D03*
X000968Y006951D03*
X000968Y006901D03*
X000968Y006851D03*
X000968Y006801D03*
X000968Y006751D03*
X000968Y006701D03*
X000968Y006651D03*
X000968Y006601D03*
X000968Y006551D03*
X000968Y006501D03*
X000968Y006451D03*
X000968Y006401D03*
X000968Y006351D03*
X000968Y006301D03*
X000968Y006251D03*
X000968Y006201D03*
X000968Y006151D03*
X000968Y006101D03*
X000968Y006051D03*
X000968Y006001D03*
X000968Y005951D03*
X000968Y005901D03*
X000968Y005851D03*
X000968Y005801D03*
X000968Y005751D03*
X000968Y005701D03*
X000968Y005651D03*
X000968Y005601D03*
X000968Y005551D03*
X000968Y005501D03*
X000968Y005451D03*
X000968Y005401D03*
X000968Y005351D03*
X000968Y005301D03*
X000968Y005251D03*
X000968Y005201D03*
X000968Y005151D03*
X000968Y005101D03*
X000968Y005051D03*
X000968Y005001D03*
X000968Y004951D03*
X000968Y004901D03*
X000968Y004851D03*
X000968Y004801D03*
X000968Y004751D03*
X000968Y004701D03*
X000968Y004651D03*
X000968Y004601D03*
X000968Y004551D03*
X000968Y004501D03*
X000968Y004451D03*
X000968Y004401D03*
X000968Y004351D03*
X000968Y004301D03*
X000968Y004251D03*
X000968Y004201D03*
X000968Y004151D03*
X000968Y004101D03*
X000968Y004051D03*
X000968Y004001D03*
X000968Y003951D03*
X000968Y003901D03*
X000968Y003851D03*
X000968Y003801D03*
X000968Y003751D03*
X000968Y003701D03*
X000968Y003651D03*
X000968Y003601D03*
X000968Y003551D03*
X000968Y003501D03*
X000968Y003451D03*
X000968Y003401D03*
X000968Y003351D03*
X000968Y003301D03*
X000968Y003251D03*
X000968Y003201D03*
X000968Y003151D03*
X000968Y003101D03*
X000968Y003051D03*
X000968Y003001D03*
X000968Y002951D03*
X000968Y002901D03*
X000968Y002851D03*
X000968Y002801D03*
X000968Y002751D03*
X000968Y002701D03*
X000968Y002651D03*
X000968Y002601D03*
X000968Y002551D03*
X000968Y002501D03*
X000968Y002451D03*
X000968Y002401D03*
X000968Y002351D03*
X000968Y002301D03*
X000968Y002251D03*
X000968Y002201D03*
X000968Y002151D03*
X000968Y002101D03*
X000968Y002051D03*
X000968Y002001D03*
X000968Y001951D03*
X000968Y001901D03*
X000968Y001851D03*
X000968Y001801D03*
X000985Y001701D03*
X001018Y001601D03*
X001035Y001551D03*
X000968Y017951D03*
X000968Y018001D03*
X000968Y018051D03*
X000968Y018101D03*
X000968Y018151D03*
X000968Y018201D03*
X000968Y018251D03*
X000968Y018301D03*
X000968Y018351D03*
X000968Y018401D03*
X000968Y018451D03*
X000968Y018501D03*
X000968Y018551D03*
X000968Y018601D03*
X000968Y018651D03*
X000968Y018701D03*
X000968Y018751D03*
X000968Y018801D03*
X000968Y018851D03*
X000968Y018901D03*
X000968Y018951D03*
X000968Y019001D03*
X000985Y019051D03*
X000985Y019101D03*
X001018Y019201D03*
X001035Y019251D03*
X001085Y019351D03*
X019835Y001701D03*
X019818Y001651D03*
X019785Y001551D03*
X019768Y001501D03*
D58*
X014585Y009451D03*
X015335Y013551D03*
X003735Y001501D03*
D59*
X001051Y001501D03*
X001001Y001651D03*
X002051Y018001D03*
X002051Y018051D03*
X002051Y018251D03*
X002051Y018301D03*
X001001Y019151D03*
X003201Y018451D03*
X003251Y018351D03*
X003251Y017951D03*
X017551Y018001D03*
X017551Y018051D03*
X017551Y018251D03*
X017551Y018301D03*
X018701Y018451D03*
X018751Y018351D03*
X018751Y017951D03*
X019851Y017951D03*
X019851Y017901D03*
X019851Y017851D03*
X019851Y017801D03*
X019851Y017751D03*
X019851Y017701D03*
X019851Y017651D03*
X019851Y017601D03*
X019851Y017551D03*
X019851Y017501D03*
X019851Y017451D03*
X019851Y017401D03*
X019851Y017351D03*
X019851Y017301D03*
X019851Y017251D03*
X019851Y017201D03*
X019851Y017151D03*
X019851Y017101D03*
X019851Y017051D03*
X019851Y017001D03*
X019851Y016951D03*
X019851Y016901D03*
X019851Y016851D03*
X019851Y016801D03*
X019851Y016751D03*
X019851Y016701D03*
X019851Y016651D03*
X019851Y016601D03*
X019851Y016551D03*
X019851Y016501D03*
X019851Y016451D03*
X019851Y016401D03*
X019851Y016351D03*
X019851Y016301D03*
X019851Y016251D03*
X019851Y016201D03*
X019851Y016151D03*
X019851Y016101D03*
X019851Y016051D03*
X019851Y016001D03*
X019851Y015951D03*
X019851Y015901D03*
X019851Y015851D03*
X019851Y015801D03*
X019851Y015751D03*
X019851Y015701D03*
X019851Y015651D03*
X019851Y015601D03*
X019851Y015551D03*
X019851Y015501D03*
X019851Y015451D03*
X019851Y015401D03*
X019851Y015351D03*
X019851Y015301D03*
X019851Y015251D03*
X019851Y015201D03*
X019851Y015151D03*
X019851Y015101D03*
X019851Y015051D03*
X019851Y015001D03*
X019851Y014951D03*
X019851Y014901D03*
X019851Y014851D03*
X019851Y014801D03*
X019851Y014751D03*
X019851Y014701D03*
X019851Y014651D03*
X019851Y014601D03*
X019851Y014551D03*
X019851Y014501D03*
X019851Y014451D03*
X019851Y014401D03*
X019851Y014351D03*
X019851Y014301D03*
X019851Y014251D03*
X019851Y014201D03*
X019851Y014151D03*
X019851Y014101D03*
X019851Y014051D03*
X019851Y014001D03*
X019851Y013951D03*
X019851Y013901D03*
X019851Y013851D03*
X019851Y013801D03*
X019851Y013751D03*
X019851Y013701D03*
X019851Y013651D03*
X019851Y013601D03*
X019851Y013551D03*
X019851Y013501D03*
X019851Y013451D03*
X019851Y013401D03*
X019851Y013351D03*
X019851Y013301D03*
X019851Y013251D03*
X019851Y013201D03*
X019851Y013151D03*
X019851Y013101D03*
X019851Y013051D03*
X019851Y013001D03*
X019851Y012951D03*
X019851Y012901D03*
X019851Y012851D03*
X019851Y012801D03*
X019851Y012751D03*
X019851Y012701D03*
X019851Y012651D03*
X019851Y012601D03*
X019851Y012551D03*
X019851Y012501D03*
X019851Y012451D03*
X019851Y012401D03*
X019851Y012351D03*
X019851Y012301D03*
X019851Y012251D03*
X019851Y012201D03*
X019851Y012151D03*
X019851Y012101D03*
X019851Y012051D03*
X019851Y012001D03*
X019851Y011951D03*
X019851Y011901D03*
X019851Y011851D03*
X019851Y011801D03*
X019851Y011751D03*
X019851Y011701D03*
X019851Y011651D03*
X019851Y011601D03*
X019851Y011551D03*
X019851Y011501D03*
X019851Y011451D03*
X019851Y011401D03*
X019851Y011351D03*
X019851Y011301D03*
X019851Y011251D03*
X019851Y011201D03*
X019851Y011151D03*
X019851Y011101D03*
X019851Y011051D03*
X019851Y011001D03*
X019851Y010951D03*
X019851Y010901D03*
X019851Y010851D03*
X019851Y010801D03*
X019851Y010751D03*
X019851Y010701D03*
X019851Y010651D03*
X019851Y010601D03*
X019851Y010551D03*
X019851Y010501D03*
X019851Y010451D03*
X019851Y010401D03*
X019851Y010351D03*
X019851Y010301D03*
X019851Y010251D03*
X019851Y010201D03*
X019851Y010151D03*
X019851Y010101D03*
X019851Y010051D03*
X019851Y010001D03*
X019851Y009951D03*
X019851Y009901D03*
X019851Y009851D03*
X019851Y009801D03*
X019851Y009751D03*
X019851Y009701D03*
X019851Y009651D03*
X019851Y009601D03*
X019851Y009551D03*
X019851Y009501D03*
X019851Y009451D03*
X019851Y009401D03*
X019851Y009351D03*
X019851Y009301D03*
X019851Y009251D03*
X019851Y009201D03*
X019851Y009151D03*
X019851Y009101D03*
X019851Y009051D03*
X019851Y009001D03*
X019851Y008951D03*
X019851Y008901D03*
X019851Y008851D03*
X019851Y008801D03*
X019851Y008751D03*
X019851Y008701D03*
X019851Y008651D03*
X019851Y008601D03*
X019851Y008551D03*
X019851Y008501D03*
X019851Y008451D03*
X019851Y008401D03*
X019851Y008351D03*
X019851Y008301D03*
X019851Y008251D03*
X019851Y008201D03*
X019851Y008151D03*
X019851Y008101D03*
X019851Y008051D03*
X019851Y008001D03*
X019851Y007951D03*
X019851Y007901D03*
X019851Y007851D03*
X019851Y007801D03*
X019851Y007751D03*
X019851Y007701D03*
X019851Y007651D03*
X019851Y007601D03*
X019851Y007551D03*
X019851Y007501D03*
X019851Y007451D03*
X019851Y007401D03*
X019851Y007351D03*
X019851Y007301D03*
X019851Y007251D03*
X019851Y007201D03*
X019851Y007151D03*
X019851Y007101D03*
X019851Y007051D03*
X019851Y007001D03*
X019851Y006951D03*
X019851Y006901D03*
X019851Y006851D03*
X019851Y006801D03*
X019851Y006751D03*
X019851Y006701D03*
X019851Y006651D03*
X019851Y006601D03*
X019851Y006551D03*
X019851Y006501D03*
X019851Y006451D03*
X019851Y006401D03*
X019851Y006351D03*
X019851Y006301D03*
X019851Y006251D03*
X019851Y006201D03*
X019851Y006151D03*
X019851Y006101D03*
X019851Y006051D03*
X019851Y006001D03*
X019851Y005951D03*
X019851Y005901D03*
X019851Y005851D03*
X019851Y005801D03*
X019851Y005751D03*
X019851Y005701D03*
X019851Y005651D03*
X019851Y005601D03*
X019851Y005551D03*
X019851Y005501D03*
X019851Y005451D03*
X019851Y005401D03*
X019851Y005351D03*
X019851Y005301D03*
X019851Y005251D03*
X019851Y005201D03*
X019851Y005151D03*
X019851Y005101D03*
X019851Y005051D03*
X019851Y005001D03*
X019851Y004951D03*
X019851Y004901D03*
X019851Y004851D03*
X019851Y004801D03*
X019851Y004751D03*
X019851Y004701D03*
X019851Y004651D03*
X019851Y004601D03*
X019851Y004551D03*
X019851Y004501D03*
X019851Y004451D03*
X019851Y004401D03*
X019851Y004351D03*
X019851Y004301D03*
X019851Y004251D03*
X019851Y004201D03*
X019851Y004151D03*
X019851Y004101D03*
X019851Y004051D03*
X019851Y004001D03*
X019851Y003951D03*
X019851Y003901D03*
X019851Y003851D03*
X019851Y003801D03*
X019851Y003751D03*
X019851Y003701D03*
X019851Y003651D03*
X019851Y003601D03*
X019851Y003551D03*
X019851Y003501D03*
X019851Y003451D03*
X019851Y003401D03*
X019851Y003351D03*
X019851Y003301D03*
X019851Y003251D03*
X019851Y003201D03*
X019851Y003151D03*
X019851Y003101D03*
X019851Y003051D03*
X019851Y003001D03*
X019851Y002951D03*
X019851Y002901D03*
X019851Y002851D03*
X019851Y002801D03*
X019851Y002751D03*
X019851Y002701D03*
X019851Y002651D03*
X019851Y002601D03*
X019851Y002551D03*
X019851Y002501D03*
X019851Y002451D03*
X019851Y002401D03*
X019851Y002351D03*
X019851Y002301D03*
X019851Y002251D03*
X019851Y002201D03*
X019851Y002151D03*
X019851Y002101D03*
X019851Y002051D03*
X019851Y002001D03*
X019851Y001951D03*
X019851Y001901D03*
X019851Y001851D03*
X019851Y001801D03*
X019801Y001601D03*
X019851Y018001D03*
X019851Y018051D03*
X019851Y018101D03*
X019851Y018151D03*
X019851Y018201D03*
X019851Y018251D03*
X019851Y018301D03*
X019851Y018351D03*
X019851Y018401D03*
X019851Y018451D03*
X019851Y018501D03*
X019851Y018551D03*
X019851Y018601D03*
X019851Y018651D03*
X019851Y018701D03*
X019851Y018751D03*
X019851Y018801D03*
X019851Y018851D03*
X019851Y018901D03*
X019851Y018951D03*
X019851Y019001D03*
X019801Y019201D03*
D60*
X015276Y013435D03*
X003726Y001518D03*
D61*
X003718Y001535D03*
X014585Y009485D03*
D62*
X010126Y013801D03*
X010176Y016751D03*
X003726Y001551D03*
D63*
X003718Y001568D03*
X002468Y003068D03*
X009068Y005485D03*
X015218Y013285D03*
X015585Y018018D03*
D64*
X015484Y018068D03*
X015201Y013218D03*
X013568Y011935D03*
X010384Y014018D03*
X008368Y015135D03*
X003718Y001585D03*
D65*
X003718Y001601D03*
X010418Y014051D03*
D66*
X010443Y014085D03*
X008410Y015068D03*
X013710Y018785D03*
X015910Y017735D03*
X015193Y013168D03*
X017860Y012485D03*
X011843Y007568D03*
X007393Y007468D03*
X003710Y001618D03*
D67*
X003718Y001635D03*
X003768Y004835D03*
X010468Y014118D03*
X015918Y010568D03*
X016868Y016768D03*
D68*
X010493Y014151D03*
X003710Y001651D03*
D69*
X000993Y001668D03*
X000976Y001768D03*
X007743Y014118D03*
X007743Y014135D03*
X003276Y018068D03*
X003276Y018235D03*
X002659Y017468D03*
X002043Y018068D03*
X002043Y018235D03*
X000976Y019018D03*
X000976Y019035D03*
X000993Y019118D03*
X012676Y016685D03*
X012676Y016668D03*
X012693Y016635D03*
X012693Y016618D03*
X012709Y016585D03*
X012709Y016568D03*
X012709Y016535D03*
X012709Y016518D03*
X017543Y018068D03*
X017543Y018235D03*
X018159Y017468D03*
X018776Y018068D03*
X018776Y018235D03*
X019843Y019018D03*
X019843Y019035D03*
X019826Y019118D03*
X019843Y001768D03*
X019826Y001668D03*
D70*
X011843Y007618D03*
X009343Y008835D03*
X007393Y007418D03*
X003710Y001668D03*
X016010Y010668D03*
X008460Y014985D03*
D71*
X011860Y015985D03*
X015943Y017618D03*
X017960Y014335D03*
X016043Y010718D03*
X006293Y003585D03*
X003710Y001685D03*
D72*
X003710Y001701D03*
D73*
X003709Y001718D03*
X009076Y005635D03*
X011843Y007668D03*
X010159Y009368D03*
X012259Y010885D03*
X013576Y011818D03*
X016076Y010768D03*
D74*
X004593Y005335D03*
X003710Y001735D03*
D75*
X000976Y001751D03*
X012709Y016551D03*
X012693Y016601D03*
X019843Y001751D03*
D76*
X012193Y010801D03*
X003709Y001751D03*
D77*
X003718Y001768D03*
X003084Y002418D03*
X003068Y002435D03*
X012168Y010768D03*
X013568Y011768D03*
X014968Y015785D03*
X013718Y018735D03*
X008601Y014785D03*
D78*
X015009Y015835D03*
X004593Y005285D03*
X003143Y002368D03*
X003176Y002335D03*
X003709Y001785D03*
D79*
X003710Y001801D03*
X003210Y002301D03*
X015993Y017451D03*
D80*
X015118Y015935D03*
X008685Y014685D03*
X003718Y001818D03*
D81*
X003718Y001835D03*
X015168Y015985D03*
X011385Y017335D03*
D82*
X017610Y012651D03*
X003710Y001851D03*
D83*
X003718Y001868D03*
X009385Y013585D03*
X016018Y017335D03*
X017585Y012668D03*
D84*
X012284Y015868D03*
X011851Y007835D03*
X006301Y003768D03*
X003718Y001885D03*
D85*
X003726Y001901D03*
X013576Y011651D03*
X016026Y017301D03*
D86*
X013576Y011635D03*
X009076Y005835D03*
X003726Y001918D03*
D87*
X003726Y001935D03*
D88*
X003735Y001951D03*
X007385Y007151D03*
D89*
X010151Y009135D03*
X003734Y001968D03*
X011268Y017135D03*
D90*
X013585Y011585D03*
X017485Y012735D03*
X003735Y001985D03*
D91*
X003743Y002001D03*
X010160Y009101D03*
X014593Y009951D03*
X017460Y012751D03*
X016060Y017151D03*
D92*
X006293Y003885D03*
X003743Y002018D03*
D93*
X003743Y002035D03*
X004593Y005068D03*
X007393Y007085D03*
X014593Y009968D03*
X017426Y012768D03*
X013726Y018635D03*
X011209Y017035D03*
D94*
X011184Y017001D03*
X009068Y005951D03*
X003751Y002051D03*
D95*
X003751Y002068D03*
D96*
X003760Y002085D03*
X004593Y005018D03*
X007393Y007035D03*
X014593Y010018D03*
D97*
X003760Y002101D03*
D98*
X003759Y002118D03*
X007393Y007018D03*
X016093Y016968D03*
D99*
X017334Y012835D03*
X003768Y002135D03*
D100*
X003768Y002151D03*
X013585Y011451D03*
D101*
X013585Y011435D03*
X013518Y015135D03*
X013568Y015168D03*
X003768Y002168D03*
D102*
X003776Y002185D03*
X009076Y006068D03*
X017276Y012868D03*
D103*
X003776Y002201D03*
D104*
X004993Y002218D03*
X005159Y002335D03*
X005226Y002385D03*
X005293Y002435D03*
X005343Y002468D03*
X005359Y002485D03*
X005409Y002518D03*
X005426Y002535D03*
X005476Y002568D03*
X005543Y002618D03*
X005609Y002668D03*
X005643Y002685D03*
X005676Y002718D03*
X005709Y002735D03*
X005759Y002768D03*
X005776Y002785D03*
X005826Y002818D03*
X005843Y002835D03*
X005893Y002868D03*
X005909Y002885D03*
X005959Y002918D03*
X005976Y002935D03*
X006026Y002968D03*
X006093Y003018D03*
X006159Y003068D03*
X006193Y003085D03*
X006259Y003135D03*
X007009Y006718D03*
X013576Y012235D03*
X013643Y012285D03*
X013709Y012335D03*
X013776Y012385D03*
X013893Y012468D03*
X013959Y012518D03*
X013976Y012535D03*
X014026Y012568D03*
X014043Y012585D03*
X014093Y012618D03*
X014109Y012635D03*
X014159Y012668D03*
X014176Y012685D03*
X014226Y012718D03*
X014243Y012735D03*
X014309Y012785D03*
X015193Y011135D03*
X015409Y010985D03*
X017659Y011535D03*
X017693Y011568D03*
X017709Y011585D03*
X014726Y014785D03*
X014676Y014818D03*
X014659Y014835D03*
X011276Y014335D03*
X011259Y014318D03*
X011209Y014285D03*
X009943Y014318D03*
X009926Y014335D03*
D105*
X011410Y017368D03*
X015093Y015918D03*
X015993Y017435D03*
X011843Y007768D03*
X003310Y002218D03*
X003293Y002235D03*
D106*
X002118Y003868D03*
X002135Y003885D03*
X005018Y002235D03*
X005068Y002268D03*
X005085Y002285D03*
X005135Y002318D03*
X005268Y002418D03*
X005568Y002635D03*
X006285Y003168D03*
X009518Y006268D03*
X012268Y008268D03*
X014585Y009235D03*
X015435Y010968D03*
X014285Y012768D03*
X014368Y012835D03*
X014418Y012868D03*
X014435Y012885D03*
X014618Y014868D03*
X014518Y014935D03*
X014468Y014968D03*
X016718Y016518D03*
X018485Y014485D03*
X017635Y011518D03*
X017585Y011468D03*
X011335Y014368D03*
D107*
X011309Y014351D03*
X013593Y012251D03*
X013659Y012301D03*
X014193Y012701D03*
X014259Y012751D03*
X014326Y012801D03*
X014709Y014801D03*
X014643Y014851D03*
X014493Y014951D03*
X017726Y011601D03*
X017676Y011551D03*
X008193Y015551D03*
X006659Y004301D03*
X006276Y003151D03*
X006209Y003101D03*
X006143Y003051D03*
X006076Y003001D03*
X006009Y002951D03*
X005859Y002851D03*
X005793Y002801D03*
X005726Y002751D03*
X005659Y002701D03*
X005593Y002651D03*
X005526Y002601D03*
X005459Y002551D03*
X005176Y002351D03*
X005109Y002301D03*
X005043Y002251D03*
X002043Y003651D03*
D108*
X003268Y002251D03*
X015084Y015901D03*
D109*
X013718Y018718D03*
X011418Y017385D03*
X008651Y014718D03*
X009368Y013518D03*
X014584Y009768D03*
X003251Y002268D03*
X003234Y002285D03*
D110*
X003201Y002318D03*
X015051Y015868D03*
D111*
X013576Y011751D03*
X014593Y009751D03*
X009376Y013501D03*
X008626Y014751D03*
X007393Y007301D03*
X003159Y002351D03*
D112*
X005201Y002368D03*
X005501Y002585D03*
X014351Y012818D03*
X014601Y014885D03*
X014551Y014918D03*
X011401Y014418D03*
X011351Y014385D03*
X017601Y011485D03*
D113*
X009376Y013485D03*
X003126Y002385D03*
D114*
X005251Y002401D03*
X015451Y010951D03*
X018201Y012251D03*
X011451Y014451D03*
X009951Y014301D03*
X009401Y013101D03*
D115*
X012160Y010751D03*
X017693Y012601D03*
X017843Y014301D03*
X003110Y002401D03*
D116*
X005318Y002451D03*
X005385Y002501D03*
X009068Y005201D03*
X014385Y012851D03*
X014568Y014901D03*
X011385Y014401D03*
X010468Y016601D03*
X017618Y011501D03*
D117*
X008593Y014801D03*
X006293Y003651D03*
X003060Y002451D03*
D118*
X003035Y002468D03*
X003018Y002485D03*
X009368Y013468D03*
X008585Y014818D03*
X011468Y017468D03*
X014968Y018235D03*
X017718Y012585D03*
X014585Y009718D03*
D119*
X011851Y007701D03*
X003001Y002501D03*
D120*
X002985Y002518D03*
X002968Y002535D03*
X009068Y005668D03*
X008568Y014835D03*
X011468Y017485D03*
X015968Y017535D03*
D121*
X011484Y017501D03*
X013568Y011801D03*
X010151Y009351D03*
X009068Y005651D03*
X002951Y002551D03*
D122*
X002934Y002568D03*
X011851Y007685D03*
X012218Y010835D03*
X011784Y016085D03*
X017734Y012568D03*
X017901Y014318D03*
D123*
X002926Y002585D03*
D124*
X002901Y002601D03*
D125*
X002885Y002618D03*
X007385Y007368D03*
X012235Y010868D03*
X014585Y009685D03*
X009368Y013435D03*
X008535Y014885D03*
D126*
X009368Y013418D03*
X011818Y016035D03*
X014585Y009668D03*
X002868Y002635D03*
D127*
X002851Y002651D03*
X015951Y017601D03*
D128*
X011843Y016018D03*
X008510Y014918D03*
X007393Y007385D03*
X004593Y005368D03*
X007110Y004185D03*
X002843Y002668D03*
X016060Y010735D03*
D129*
X015201Y013068D03*
X013568Y011835D03*
X012301Y010935D03*
X012284Y010918D03*
X010151Y009385D03*
X009068Y005618D03*
X002818Y002685D03*
X008501Y014935D03*
X011518Y017568D03*
D130*
X012310Y010951D03*
X014593Y009651D03*
X007393Y007401D03*
X002810Y002701D03*
D131*
X002785Y002718D03*
X006468Y006735D03*
X012335Y010968D03*
X012568Y011135D03*
X017785Y012535D03*
X015935Y017635D03*
X011535Y017585D03*
D132*
X011876Y015968D03*
X015193Y013085D03*
X012526Y011118D03*
X009443Y008885D03*
X011843Y007635D03*
X006643Y006868D03*
X006526Y006785D03*
X006509Y006768D03*
X006293Y003568D03*
X002776Y002735D03*
X008476Y014968D03*
D133*
X011543Y017601D03*
X013576Y011851D03*
X012359Y011001D03*
X009243Y008751D03*
X006609Y006851D03*
X006543Y006801D03*
X002759Y002751D03*
D134*
X002735Y002768D03*
X006568Y006818D03*
X006585Y006835D03*
X009268Y008768D03*
X009285Y008785D03*
X012385Y011018D03*
X012468Y011085D03*
X014585Y009635D03*
X016018Y010685D03*
X009368Y013385D03*
X013718Y018768D03*
D135*
X015176Y018185D03*
X015926Y017668D03*
X009326Y008818D03*
X002726Y002785D03*
D136*
X002701Y002801D03*
X008451Y015001D03*
D137*
X008443Y015018D03*
X011560Y017635D03*
X015193Y013118D03*
X014593Y009618D03*
X009910Y006185D03*
X007393Y007435D03*
X004593Y005418D03*
X003860Y004885D03*
X002693Y002818D03*
D138*
X002685Y002835D03*
X009068Y005568D03*
X012618Y008168D03*
X015968Y010618D03*
X015918Y017685D03*
X015235Y018168D03*
D139*
X018026Y014351D03*
X015676Y010401D03*
X014593Y009601D03*
X012676Y008201D03*
X003793Y004851D03*
X003659Y004751D03*
X002659Y002851D03*
D140*
X002651Y002868D03*
X003701Y004785D03*
D141*
X002626Y002885D03*
X015726Y010418D03*
X015876Y010535D03*
D142*
X013568Y011901D03*
X010451Y014101D03*
X011601Y017701D03*
X002618Y002901D03*
D143*
X002601Y002918D03*
X009368Y013335D03*
X014584Y009585D03*
X015751Y010435D03*
X015801Y010468D03*
X015818Y010485D03*
X015868Y010518D03*
X015318Y018135D03*
D144*
X015368Y018118D03*
X010435Y014068D03*
X013568Y011918D03*
X009068Y005535D03*
X002585Y002935D03*
D145*
X002576Y002951D03*
X008393Y015101D03*
X015893Y017751D03*
X016926Y016751D03*
D146*
X015193Y013185D03*
X014593Y009568D03*
X009376Y013318D03*
X011609Y017718D03*
X007393Y007485D03*
X002559Y002968D03*
D147*
X006051Y002985D03*
X013751Y012368D03*
X013851Y012435D03*
X017751Y011618D03*
X017801Y011668D03*
X017851Y011718D03*
D148*
X017893Y012468D03*
X015893Y017768D03*
X015443Y018085D03*
X012293Y018218D03*
X006293Y003485D03*
X002543Y002985D03*
D149*
X002534Y003001D03*
X009068Y005501D03*
X009368Y013301D03*
X017118Y016551D03*
D150*
X017110Y016568D03*
X017093Y016585D03*
X017060Y016635D03*
X017010Y016685D03*
X015893Y017785D03*
X011643Y017768D03*
X015210Y013235D03*
X011843Y007535D03*
X006293Y003468D03*
X004593Y005485D03*
X002510Y003018D03*
D151*
X002035Y003668D03*
X002085Y003835D03*
X006118Y003035D03*
X006235Y003118D03*
X007768Y004235D03*
X007818Y004268D03*
X007885Y004318D03*
X009068Y005185D03*
X009518Y006285D03*
X012268Y008285D03*
X013618Y012268D03*
X013685Y012318D03*
X013818Y012418D03*
X013918Y012485D03*
X014768Y014735D03*
X014735Y014768D03*
X017818Y011685D03*
X017768Y011635D03*
X011185Y014268D03*
X011135Y014235D03*
X011118Y014218D03*
X011068Y014185D03*
X010468Y016585D03*
D152*
X011651Y017785D03*
X015551Y018035D03*
X010351Y013985D03*
X002501Y003035D03*
D153*
X002493Y003051D03*
X004593Y005501D03*
X006293Y003451D03*
X015209Y013251D03*
X017909Y012451D03*
X008359Y015151D03*
D154*
X010093Y013785D03*
X010310Y013935D03*
X010110Y016685D03*
X014593Y009518D03*
X002460Y003085D03*
D155*
X002443Y003101D03*
X010210Y013851D03*
X015710Y017951D03*
D156*
X015676Y017968D03*
X011676Y017835D03*
X010226Y013868D03*
X009376Y013268D03*
X015226Y013318D03*
X002426Y003118D03*
D157*
X002418Y003135D03*
X010185Y013835D03*
X010218Y016785D03*
X010335Y016868D03*
X013568Y011985D03*
X015235Y013335D03*
X015768Y017918D03*
X015735Y017935D03*
D158*
X010151Y009551D03*
X002401Y003151D03*
D159*
X002393Y003168D03*
X007393Y007568D03*
X011843Y007468D03*
X017960Y012418D03*
X008310Y015235D03*
D160*
X008660Y014518D03*
X010443Y016635D03*
X015410Y016768D03*
X016910Y013768D03*
X016860Y010918D03*
X016810Y010885D03*
X016743Y010835D03*
X013010Y010435D03*
X012960Y010468D03*
X012943Y010485D03*
X012893Y010518D03*
X009060Y005218D03*
X006293Y003185D03*
X002060Y003618D03*
D161*
X002368Y003185D03*
X009068Y005435D03*
X010151Y009568D03*
X015268Y013418D03*
X015451Y013718D03*
X011701Y017885D03*
D162*
X011835Y014701D03*
X006285Y003201D03*
D163*
X002360Y003201D03*
X008310Y015251D03*
X018193Y014401D03*
D164*
X002351Y003218D03*
D165*
X002743Y004385D03*
X002859Y004468D03*
X003159Y004685D03*
X004593Y005718D03*
X004659Y005768D03*
X004959Y005985D03*
X005076Y006068D03*
X005376Y006285D03*
X005559Y006418D03*
X005859Y006635D03*
X005976Y006718D03*
X007393Y007735D03*
X007593Y007885D03*
X007776Y008018D03*
X008009Y008185D03*
X008076Y008235D03*
X008193Y008318D03*
X008493Y008535D03*
X008609Y008618D03*
X010159Y009735D03*
X010293Y009835D03*
X010409Y009918D03*
X010709Y010135D03*
X010826Y010218D03*
X011126Y010435D03*
X011309Y010568D03*
X011543Y010735D03*
X008209Y015468D03*
X009059Y005268D03*
X006676Y004218D03*
X006293Y003235D03*
D166*
X002335Y003235D03*
X015318Y013535D03*
X015335Y013568D03*
X015368Y013618D03*
X015385Y013635D03*
D167*
X006284Y003251D03*
D168*
X002326Y003251D03*
D169*
X006293Y003268D03*
X011843Y007335D03*
X012293Y014968D03*
D170*
X018010Y012385D03*
X018310Y013718D03*
X011843Y007418D03*
X007393Y007618D03*
X002310Y003268D03*
X002293Y003285D03*
D171*
X002193Y003435D03*
X004593Y005668D03*
X006293Y003285D03*
X007393Y007685D03*
X018393Y013318D03*
X018393Y013335D03*
X018393Y013368D03*
X018393Y013385D03*
X018393Y013418D03*
X018393Y013435D03*
X018393Y013468D03*
D172*
X018385Y013551D03*
X018335Y013151D03*
X013568Y012101D03*
X006285Y003301D03*
D173*
X006285Y003351D03*
X002285Y003301D03*
X013568Y012051D03*
D174*
X009393Y013185D03*
X011793Y018018D03*
X018293Y013085D03*
X018360Y013635D03*
X011843Y007385D03*
X006293Y003318D03*
X004593Y005635D03*
D175*
X002268Y003318D03*
X009068Y005368D03*
X013568Y012068D03*
X018035Y012368D03*
X018335Y013685D03*
X011768Y017985D03*
X008268Y015335D03*
D176*
X008260Y015351D03*
X007393Y007651D03*
X002243Y003351D03*
X018310Y013101D03*
D177*
X018293Y013735D03*
X011743Y017935D03*
X008293Y015285D03*
X011843Y007435D03*
X006293Y003368D03*
X004593Y005585D03*
D178*
X002235Y003368D03*
X013568Y012085D03*
X014585Y009385D03*
X018318Y013118D03*
X018368Y013618D03*
X012435Y015035D03*
D179*
X012593Y015085D03*
X015309Y013518D03*
X015293Y013485D03*
X015409Y013668D03*
X011726Y017918D03*
X008293Y015268D03*
X010159Y009585D03*
X004593Y005568D03*
X006293Y003385D03*
D180*
X002226Y003385D03*
X011843Y018068D03*
X018376Y013585D03*
X018326Y013135D03*
D181*
X006284Y003401D03*
D182*
X004593Y005651D03*
X002210Y003401D03*
X018360Y013201D03*
X018393Y013501D03*
D183*
X018226Y013768D03*
X015826Y017885D03*
X012159Y018185D03*
X010276Y016835D03*
X010259Y016818D03*
X008326Y015218D03*
X011843Y007485D03*
X006293Y003418D03*
X004593Y005535D03*
D184*
X004593Y005518D03*
X006293Y003435D03*
X010160Y009535D03*
X010160Y013818D03*
X010143Y016718D03*
X010160Y016735D03*
X017943Y012435D03*
D185*
X014409Y015051D03*
X009393Y013151D03*
X007393Y007701D03*
X002176Y003451D03*
D186*
X002168Y003468D03*
X013568Y012135D03*
X014585Y009335D03*
D187*
X012718Y010718D03*
X011851Y007318D03*
X009068Y005285D03*
X002151Y003485D03*
X012184Y014918D03*
D188*
X015843Y010501D03*
X006293Y003501D03*
X004593Y005451D03*
D189*
X004593Y005701D03*
X002143Y003501D03*
X012160Y014901D03*
D190*
X011593Y017685D03*
X015910Y017718D03*
X011843Y007585D03*
X006293Y003518D03*
X004593Y005435D03*
D191*
X002135Y003518D03*
X012735Y010685D03*
X014585Y009318D03*
X012135Y014885D03*
X014418Y015035D03*
D192*
X015193Y013135D03*
X013576Y011885D03*
X015926Y010585D03*
X010476Y014135D03*
X008426Y015035D03*
X011576Y017668D03*
X012393Y018235D03*
X003826Y004868D03*
X003743Y004818D03*
X003676Y004768D03*
X006293Y003535D03*
D193*
X004735Y005818D03*
X004685Y005785D03*
X004618Y005735D03*
X004818Y005885D03*
X004868Y005918D03*
X004885Y005935D03*
X004935Y005968D03*
X005035Y006035D03*
X005168Y006135D03*
X005218Y006168D03*
X005235Y006185D03*
X005285Y006218D03*
X005418Y006318D03*
X005485Y006368D03*
X005518Y006385D03*
X005585Y006435D03*
X005635Y006468D03*
X005718Y006535D03*
X005768Y006568D03*
X005785Y006585D03*
X005835Y006618D03*
X005935Y006685D03*
X007435Y007768D03*
X007518Y007835D03*
X007568Y007868D03*
X007635Y007918D03*
X007668Y007935D03*
X007735Y007985D03*
X007868Y008085D03*
X007918Y008118D03*
X007935Y008135D03*
X007985Y008168D03*
X008118Y008268D03*
X008218Y008335D03*
X008268Y008368D03*
X008285Y008385D03*
X008335Y008418D03*
X008418Y008485D03*
X008468Y008518D03*
X008535Y008568D03*
X008568Y008585D03*
X008635Y008635D03*
X008685Y008668D03*
X008768Y008735D03*
X010218Y009785D03*
X010268Y009818D03*
X010335Y009868D03*
X010368Y009885D03*
X010435Y009935D03*
X010485Y009968D03*
X010568Y010035D03*
X010618Y010068D03*
X010635Y010085D03*
X010685Y010118D03*
X010785Y010185D03*
X010918Y010285D03*
X010968Y010318D03*
X010985Y010335D03*
X011035Y010368D03*
X011168Y010468D03*
X011235Y010518D03*
X011268Y010535D03*
X011335Y010585D03*
X011385Y010618D03*
X011468Y010685D03*
X011518Y010718D03*
X013568Y012168D03*
X015568Y010818D03*
X012018Y014818D03*
X003135Y004668D03*
X003085Y004635D03*
X003068Y004618D03*
X003018Y004585D03*
X002935Y004518D03*
X002885Y004485D03*
X002818Y004435D03*
X002785Y004418D03*
X002718Y004368D03*
X002668Y004335D03*
X002585Y004268D03*
X002535Y004235D03*
X002518Y004218D03*
X002468Y004185D03*
X002118Y003535D03*
D194*
X004593Y005401D03*
X006293Y003551D03*
X009310Y008801D03*
X015193Y013101D03*
X015993Y010651D03*
D195*
X011993Y014801D03*
X002360Y004101D03*
X002110Y003551D03*
D196*
X002093Y003568D03*
X002293Y004035D03*
X012793Y010618D03*
X018160Y012285D03*
D197*
X015535Y010868D03*
X013568Y012185D03*
X012835Y010585D03*
X010035Y014218D03*
X011885Y014735D03*
X009068Y005235D03*
X002268Y004018D03*
X002085Y003585D03*
D198*
X004593Y005351D03*
X006293Y003601D03*
X015209Y013051D03*
X011809Y016051D03*
X008526Y014901D03*
D199*
X012859Y010551D03*
X006676Y004251D03*
X002076Y003601D03*
D200*
X006293Y003618D03*
X008543Y014868D03*
X011493Y017518D03*
X015960Y017568D03*
D201*
X011751Y016118D03*
X012201Y010818D03*
X010151Y009335D03*
X006301Y003635D03*
D202*
X002168Y003918D03*
X002051Y003635D03*
X009984Y014268D03*
X011501Y014485D03*
X011551Y014518D03*
X011568Y014535D03*
X011651Y014585D03*
X014534Y012968D03*
X014551Y012985D03*
X014601Y013018D03*
X015468Y010935D03*
X015484Y010918D03*
X016718Y010818D03*
X016784Y010868D03*
X016884Y010935D03*
X016934Y010968D03*
X016951Y010985D03*
X017001Y011018D03*
X017018Y011035D03*
X017068Y011068D03*
X017084Y011085D03*
X017134Y011118D03*
X017151Y011135D03*
X017201Y011168D03*
X017218Y011185D03*
X017268Y011218D03*
X017284Y011235D03*
X017334Y011268D03*
X017351Y011285D03*
X017401Y011318D03*
X017418Y011335D03*
X017484Y011385D03*
X008201Y015535D03*
D203*
X011443Y017435D03*
X014593Y009735D03*
X007393Y007318D03*
X006293Y003668D03*
D204*
X006293Y003685D03*
X004593Y005268D03*
X007393Y007285D03*
X010160Y009285D03*
X008643Y014735D03*
X015060Y015885D03*
X017660Y012618D03*
D205*
X017876Y011735D03*
X015376Y011018D03*
X015226Y011118D03*
X014826Y014685D03*
X008776Y004968D03*
X008576Y004818D03*
X008526Y004785D03*
X008326Y004635D03*
X008226Y004568D03*
X008176Y004535D03*
X008026Y004418D03*
X007976Y004385D03*
X002076Y003818D03*
X002026Y003685D03*
D206*
X006293Y003701D03*
D207*
X009510Y006301D03*
X010543Y006251D03*
X010610Y006301D03*
X010893Y006501D03*
X010960Y006551D03*
X011093Y006651D03*
X011843Y007201D03*
X009793Y014451D03*
X010493Y016551D03*
X014893Y014601D03*
X002010Y003701D03*
D208*
X006293Y003718D03*
X007393Y007268D03*
X013576Y011718D03*
X014593Y009785D03*
X017643Y012635D03*
X017793Y014285D03*
X009376Y013535D03*
X008693Y014668D03*
D209*
X008659Y013785D03*
X013893Y008685D03*
X013593Y008468D03*
X013526Y008418D03*
X013476Y008385D03*
X013459Y008368D03*
X013409Y008335D03*
X013343Y008285D03*
X013276Y008235D03*
X011759Y007135D03*
X016909Y013035D03*
X018093Y011968D03*
X014959Y014518D03*
X014943Y014535D03*
X015409Y016035D03*
X002026Y003768D03*
X002009Y003718D03*
D210*
X006293Y003735D03*
X010160Y009235D03*
X016010Y017368D03*
D211*
X018251Y012218D03*
X018101Y011985D03*
X014351Y009018D03*
X014301Y008985D03*
X014151Y008868D03*
X014101Y008835D03*
X014001Y008768D03*
X013801Y008618D03*
X013751Y008585D03*
X013551Y008435D03*
X013251Y008218D03*
X012251Y008335D03*
X009501Y006335D03*
X002001Y003735D03*
D212*
X006293Y003751D03*
X016009Y017351D03*
D213*
X016676Y016451D03*
X014959Y014501D03*
X013776Y008601D03*
X013709Y008551D03*
X013643Y008501D03*
X013359Y008301D03*
X013293Y008251D03*
X009809Y008701D03*
X006643Y004351D03*
X002009Y003751D03*
X008176Y015601D03*
D214*
X009393Y013618D03*
X012359Y015835D03*
X017559Y012685D03*
X009076Y005818D03*
X006293Y003785D03*
D215*
X006643Y004335D03*
X005410Y004885D03*
X002043Y003785D03*
X010493Y006218D03*
X010560Y006268D03*
X010593Y006285D03*
X010643Y006318D03*
X010660Y006335D03*
X010710Y006368D03*
X010793Y006435D03*
X010843Y006468D03*
X010860Y006485D03*
X010910Y006518D03*
X011143Y006685D03*
X011210Y006735D03*
X011393Y006868D03*
X014160Y011135D03*
X014910Y014585D03*
X017993Y011868D03*
X018010Y011885D03*
X009810Y014435D03*
X009760Y014468D03*
X008193Y015585D03*
D216*
X011310Y017201D03*
X006293Y003801D03*
D217*
X008551Y004801D03*
X008618Y004851D03*
X008684Y004901D03*
X009034Y005151D03*
X012268Y008301D03*
X015334Y011051D03*
X017934Y011801D03*
X014851Y014651D03*
X009851Y014401D03*
X009701Y014501D03*
X002051Y003801D03*
D218*
X006301Y003818D03*
X011851Y007885D03*
D219*
X006293Y003835D03*
X016043Y017218D03*
D220*
X006293Y003851D03*
D221*
X002101Y003851D03*
X013801Y012401D03*
X014001Y012551D03*
X015401Y011001D03*
X014751Y014751D03*
X016701Y016501D03*
D222*
X011851Y007935D03*
X006301Y003868D03*
D223*
X006293Y003901D03*
X016059Y017101D03*
D224*
X014460Y012901D03*
X017443Y011351D03*
X017510Y011401D03*
X017560Y011451D03*
X002143Y003901D03*
D225*
X006301Y003918D03*
X011851Y007985D03*
X016068Y017068D03*
D226*
X016076Y017035D03*
X009076Y005968D03*
X006293Y003935D03*
X004593Y005035D03*
D227*
X006301Y003951D03*
X016084Y017001D03*
D228*
X011751Y014651D03*
X010001Y014251D03*
X015501Y010901D03*
X002201Y003951D03*
D229*
X006301Y003968D03*
X011851Y008035D03*
X017351Y012818D03*
D230*
X018185Y012268D03*
X014585Y009268D03*
X013035Y010418D03*
X012885Y010535D03*
X010018Y014235D03*
X002218Y003968D03*
D231*
X004593Y004985D03*
X006293Y003985D03*
D232*
X009526Y006235D03*
X011843Y007268D03*
X012276Y008235D03*
X012843Y010568D03*
X015509Y010885D03*
X011809Y014685D03*
X011776Y014668D03*
X002226Y003985D03*
D233*
X006301Y004001D03*
D234*
X002251Y004001D03*
D235*
X006301Y004018D03*
X010151Y008968D03*
X011851Y008085D03*
X013501Y015118D03*
X016101Y016885D03*
D236*
X004593Y004935D03*
X006293Y004035D03*
D237*
X006301Y004051D03*
D238*
X002310Y004051D03*
X010043Y014201D03*
X011910Y014751D03*
X008210Y015501D03*
X012810Y010601D03*
X015543Y010851D03*
X013710Y018851D03*
D239*
X013568Y015218D03*
X010151Y008918D03*
X011851Y008135D03*
X006301Y004068D03*
D240*
X006293Y004085D03*
X009076Y006118D03*
X013576Y015235D03*
D241*
X015560Y010835D03*
X011843Y007285D03*
X008210Y015485D03*
X002343Y004085D03*
D242*
X006301Y004101D03*
X013568Y015251D03*
D243*
X006301Y004118D03*
D244*
X006676Y004235D03*
X002376Y004118D03*
X014426Y015018D03*
D245*
X006301Y004135D03*
D246*
X005001Y006018D03*
X005101Y006085D03*
X005151Y006118D03*
X005301Y006235D03*
X005351Y006268D03*
X005451Y006335D03*
X005651Y006485D03*
X005701Y006518D03*
X005901Y006668D03*
X004801Y005868D03*
X004751Y005835D03*
X003001Y004568D03*
X002951Y004535D03*
X002651Y004318D03*
X002601Y004285D03*
X002451Y004168D03*
X002401Y004135D03*
X007451Y007785D03*
X007501Y007818D03*
X007701Y007968D03*
X007801Y008035D03*
X007851Y008068D03*
X008051Y008218D03*
X008151Y008285D03*
X008351Y008435D03*
X008401Y008468D03*
X008701Y008685D03*
X008751Y008718D03*
X010201Y009768D03*
X010501Y009985D03*
X010551Y010018D03*
X010751Y010168D03*
X010851Y010235D03*
X010901Y010268D03*
X011051Y010385D03*
X011101Y010418D03*
X011201Y010485D03*
X011401Y010635D03*
X011451Y010668D03*
X012751Y010668D03*
X012051Y014835D03*
D247*
X013718Y018751D03*
X007035Y004151D03*
D248*
X007793Y004251D03*
X007860Y004301D03*
X007993Y004401D03*
X008143Y004501D03*
X008210Y004551D03*
X008343Y004651D03*
X008410Y004701D03*
X008760Y004951D03*
X008893Y005051D03*
X008960Y005101D03*
X005410Y004151D03*
X014160Y010401D03*
X015260Y011101D03*
X017893Y011751D03*
X014810Y014701D03*
X009910Y014351D03*
D249*
X007726Y014401D03*
X014376Y016401D03*
X007426Y006201D03*
X004676Y004151D03*
D250*
X002426Y004151D03*
D251*
X007076Y004168D03*
D252*
X005410Y004168D03*
X005410Y004868D03*
X007060Y006618D03*
X014160Y010418D03*
X014160Y011118D03*
X015043Y014335D03*
X017693Y016435D03*
X017710Y016418D03*
X017743Y016385D03*
X018160Y017568D03*
X018160Y018718D03*
X018260Y012185D03*
X018243Y012168D03*
X009543Y016618D03*
X009493Y016585D03*
X009360Y016485D03*
X009293Y016435D03*
X009193Y016368D03*
X009160Y016335D03*
X009060Y016268D03*
X009010Y016235D03*
X008993Y016218D03*
X008943Y016185D03*
X008860Y016118D03*
X008810Y016085D03*
X008743Y016035D03*
X002660Y017568D03*
X002660Y018718D03*
D253*
X002660Y018735D03*
X010593Y016418D03*
X014160Y010435D03*
X018610Y014518D03*
X018143Y015785D03*
X018110Y015835D03*
X018093Y015868D03*
X018060Y015918D03*
X016610Y016368D03*
X018160Y018735D03*
X004210Y004618D03*
X005410Y004185D03*
X006610Y004418D03*
D254*
X004601Y004185D03*
X004551Y004218D03*
X014401Y016485D03*
X014451Y016585D03*
D255*
X007026Y006701D03*
X008826Y005001D03*
X008476Y004751D03*
X008276Y004601D03*
X007926Y004351D03*
X007726Y004201D03*
D256*
X006676Y004201D03*
X012726Y010701D03*
X008226Y015451D03*
D257*
X010926Y016151D03*
X014159Y010451D03*
X018559Y014851D03*
X018543Y014901D03*
X018526Y014951D03*
X018509Y015001D03*
X018493Y015051D03*
X018159Y018751D03*
X005409Y004201D03*
X002659Y018751D03*
D258*
X002376Y017601D03*
X004576Y004201D03*
X017876Y017601D03*
D259*
X012768Y010651D03*
X011285Y010551D03*
X011218Y010501D03*
X011085Y010401D03*
X010935Y010301D03*
X010868Y010251D03*
X010735Y010151D03*
X010668Y010101D03*
X010385Y009901D03*
X010318Y009851D03*
X010185Y009751D03*
X008718Y008701D03*
X008585Y008601D03*
X008518Y008551D03*
X008385Y008451D03*
X008235Y008351D03*
X008168Y008301D03*
X008035Y008201D03*
X007968Y008151D03*
X007818Y008051D03*
X007685Y007951D03*
X007618Y007901D03*
X005885Y006651D03*
X005818Y006601D03*
X005535Y006401D03*
X005468Y006351D03*
X005335Y006251D03*
X005185Y006151D03*
X005118Y006101D03*
X004985Y006001D03*
X004918Y005951D03*
X004635Y005751D03*
X003185Y004701D03*
X003118Y004651D03*
X002968Y004551D03*
X002835Y004451D03*
X002768Y004401D03*
X002635Y004301D03*
X002485Y004201D03*
X014585Y009301D03*
D260*
X015360Y011035D03*
X015310Y011068D03*
X014793Y014718D03*
X009893Y014368D03*
X008193Y015568D03*
X009793Y008735D03*
X011843Y007218D03*
X009010Y005135D03*
X008710Y004918D03*
X008660Y004885D03*
X008643Y004868D03*
X008593Y004835D03*
X008460Y004735D03*
X008393Y004685D03*
X008360Y004668D03*
X008293Y004618D03*
X008160Y004518D03*
X008110Y004485D03*
X008093Y004468D03*
X008043Y004435D03*
X007960Y004368D03*
X007910Y004335D03*
X007843Y004285D03*
X007743Y004218D03*
X006660Y004318D03*
D261*
X005410Y004218D03*
X005410Y004818D03*
X014160Y010468D03*
X014160Y011068D03*
X016910Y013085D03*
X018643Y014568D03*
X018643Y014585D03*
X016543Y016285D03*
X015410Y016085D03*
X018160Y018768D03*
X008660Y013835D03*
X002660Y018768D03*
D262*
X002660Y017518D03*
X008660Y014435D03*
X010793Y016218D03*
X015410Y016685D03*
X018160Y017518D03*
X016910Y013685D03*
X014160Y010485D03*
X009893Y008535D03*
X007143Y006485D03*
X006543Y004518D03*
X005410Y004235D03*
D263*
X006185Y004868D03*
X004535Y004235D03*
X004485Y004268D03*
X008285Y006418D03*
X008285Y006435D03*
X008285Y006618D03*
X008285Y006635D03*
X010268Y008168D03*
X011035Y008418D03*
X011035Y008435D03*
X011035Y008618D03*
X011035Y008635D03*
X012018Y008685D03*
X007718Y014368D03*
X011785Y016418D03*
X011785Y016435D03*
X011785Y016618D03*
X011785Y016635D03*
X014418Y016535D03*
X014418Y016518D03*
X014435Y016568D03*
X014468Y016618D03*
X014485Y016635D03*
D264*
X015410Y016651D03*
X016460Y016201D03*
X016910Y013651D03*
X014160Y010501D03*
X008660Y014401D03*
X005410Y004251D03*
D265*
X005410Y004451D03*
X005410Y004501D03*
X005410Y004551D03*
X005410Y004601D03*
X006210Y004851D03*
X004510Y004251D03*
X009243Y006701D03*
X010210Y008201D03*
X010143Y008251D03*
X011993Y008701D03*
X014160Y010701D03*
X014160Y010751D03*
X014160Y010801D03*
X014160Y010851D03*
X016910Y013301D03*
X016910Y013351D03*
X016910Y013401D03*
X016910Y013451D03*
X015410Y016301D03*
X015410Y016351D03*
X015410Y016401D03*
X015410Y016451D03*
X014460Y016601D03*
X018443Y017601D03*
X008660Y014201D03*
X008660Y014151D03*
X008660Y014101D03*
X008660Y014051D03*
X007710Y014351D03*
X002943Y017601D03*
D266*
X010526Y010001D03*
X011009Y010351D03*
X011426Y010651D03*
X008309Y008401D03*
X007893Y008101D03*
X007476Y007801D03*
X005676Y006501D03*
X005259Y006201D03*
X004776Y005851D03*
X003043Y004601D03*
X002559Y004251D03*
X011843Y007301D03*
X012076Y014851D03*
D267*
X014343Y016268D03*
X014343Y016285D03*
X015410Y016635D03*
X016393Y016135D03*
X016910Y013635D03*
X014160Y011018D03*
X014160Y010535D03*
X014160Y010518D03*
X009943Y008468D03*
X006493Y004585D03*
X005410Y004768D03*
X005410Y004285D03*
X005410Y004268D03*
X007760Y014468D03*
X008660Y014385D03*
D268*
X009643Y014518D03*
X010460Y016618D03*
X014443Y014985D03*
X014493Y012935D03*
X013560Y012218D03*
X017460Y011368D03*
X017543Y011435D03*
X011843Y007235D03*
X006660Y004285D03*
D269*
X005409Y004301D03*
X005409Y004751D03*
X007259Y006351D03*
X007526Y006151D03*
X014159Y010551D03*
X014159Y011001D03*
X014343Y016301D03*
X007743Y014451D03*
D270*
X008659Y014251D03*
X008659Y014001D03*
X014159Y010901D03*
X014159Y010651D03*
X016909Y013251D03*
X016909Y013501D03*
X015409Y016251D03*
X015409Y016501D03*
X014493Y016651D03*
X014409Y016501D03*
X017909Y018701D03*
X018409Y018701D03*
X005409Y004651D03*
X005409Y004401D03*
X004459Y004301D03*
X002909Y018701D03*
X002409Y018701D03*
D271*
X008660Y014335D03*
X008660Y013935D03*
X014160Y010968D03*
X014160Y010585D03*
X014160Y010568D03*
X016910Y013185D03*
X016910Y013585D03*
X015410Y016185D03*
X015410Y016585D03*
X014360Y016368D03*
X007293Y006318D03*
X005410Y004718D03*
X005410Y004335D03*
X005410Y004318D03*
D272*
X004435Y004318D03*
X008285Y006368D03*
X008285Y006385D03*
X008285Y006668D03*
X008285Y006685D03*
X011035Y008368D03*
X011035Y008385D03*
X011035Y008668D03*
X011035Y008685D03*
X007718Y014385D03*
X011785Y016368D03*
X011785Y016385D03*
X011785Y016668D03*
X011785Y016685D03*
X012535Y016885D03*
X012668Y016218D03*
X014385Y016435D03*
X017935Y017585D03*
X018385Y017585D03*
X019235Y019768D03*
X002885Y017585D03*
X002435Y017585D03*
X001585Y019768D03*
D273*
X008660Y014301D03*
X014160Y010951D03*
X014160Y010601D03*
X016910Y013551D03*
X015410Y016551D03*
X010043Y008351D03*
X010310Y008151D03*
X007360Y006251D03*
X005410Y004701D03*
X005410Y004351D03*
X004410Y004351D03*
D274*
X004701Y005801D03*
X004851Y005901D03*
X005051Y006051D03*
X005401Y006301D03*
X005601Y006451D03*
X005751Y006551D03*
X005951Y006701D03*
X007401Y007751D03*
X007551Y007851D03*
X007751Y008001D03*
X008101Y008251D03*
X008451Y008501D03*
X008651Y008651D03*
X010251Y009801D03*
X010451Y009951D03*
X010601Y010051D03*
X010801Y010201D03*
X011151Y010451D03*
X011351Y010601D03*
X011501Y010701D03*
X002901Y004501D03*
X002701Y004351D03*
D275*
X006643Y004368D03*
X009810Y008685D03*
X014443Y009085D03*
X014510Y009135D03*
X014560Y009168D03*
X018210Y012118D03*
X015010Y014418D03*
X016660Y016435D03*
X017610Y016535D03*
X008310Y015718D03*
X008243Y015668D03*
D276*
X007734Y014418D03*
X011784Y016335D03*
X011784Y016718D03*
X013184Y015918D03*
X014368Y016385D03*
X012068Y008618D03*
X011034Y008718D03*
X011034Y008335D03*
X010018Y008385D03*
X009318Y006618D03*
X008284Y006718D03*
X008284Y006335D03*
X007484Y006168D03*
X007451Y006185D03*
X007318Y006285D03*
X004384Y004368D03*
D277*
X006626Y004385D03*
X009826Y008668D03*
X015026Y014385D03*
X009426Y016535D03*
X009226Y016385D03*
X009126Y016318D03*
X008926Y016168D03*
X008876Y016135D03*
X008676Y015985D03*
D278*
X014576Y016735D03*
X004376Y004385D03*
D279*
X006618Y004401D03*
X009835Y008651D03*
X016635Y016401D03*
X017768Y016351D03*
X009518Y016601D03*
X009385Y016501D03*
D280*
X011785Y016301D03*
X012085Y008601D03*
X011035Y008301D03*
X008285Y006301D03*
X004368Y004401D03*
D281*
X005410Y004418D03*
X005410Y004435D03*
X005410Y004468D03*
X005410Y004485D03*
X005410Y004518D03*
X005410Y004535D03*
X005410Y004568D03*
X005410Y004585D03*
X005410Y004618D03*
X006243Y004835D03*
X006260Y004818D03*
X006310Y004785D03*
X009260Y006685D03*
X010243Y008185D03*
X010110Y008285D03*
X014160Y010668D03*
X014160Y010685D03*
X014160Y010718D03*
X014160Y010735D03*
X014160Y010768D03*
X014160Y010785D03*
X014160Y010818D03*
X014160Y010835D03*
X014160Y010868D03*
X016910Y013318D03*
X016910Y013335D03*
X016910Y013368D03*
X016910Y013385D03*
X016910Y013418D03*
X016910Y013435D03*
X016910Y013468D03*
X016910Y013485D03*
X015410Y016318D03*
X015410Y016335D03*
X015410Y016368D03*
X015410Y016385D03*
X015410Y016418D03*
X015410Y016435D03*
X015410Y016468D03*
X015410Y016485D03*
X012560Y016868D03*
X008660Y014235D03*
X008660Y014218D03*
X008660Y014185D03*
X008660Y014168D03*
X008660Y014135D03*
X008660Y014118D03*
X008660Y014085D03*
X008660Y014068D03*
X001493Y019735D03*
D282*
X008659Y014368D03*
X008659Y013918D03*
X012109Y008568D03*
X014159Y010985D03*
X016909Y013168D03*
X016909Y013618D03*
X016326Y016085D03*
X015409Y016168D03*
X015409Y016618D03*
X009359Y006568D03*
X007243Y006368D03*
X006476Y004618D03*
X005409Y004735D03*
X004343Y004418D03*
D283*
X006601Y004435D03*
X007084Y006568D03*
X009851Y008618D03*
X018301Y015485D03*
X018284Y015518D03*
X018251Y015585D03*
X018234Y015618D03*
X018218Y015635D03*
X018201Y015668D03*
X018201Y015685D03*
X018168Y015735D03*
X018151Y015768D03*
D284*
X016368Y016118D03*
X011785Y016285D03*
X009968Y008435D03*
X011035Y008285D03*
X008285Y006285D03*
X004335Y004435D03*
D285*
X006593Y004451D03*
X009860Y008601D03*
X018293Y015501D03*
X018343Y015401D03*
X018360Y015351D03*
X018410Y015251D03*
D286*
X012126Y008551D03*
X009376Y006551D03*
X004326Y004451D03*
D287*
X004243Y004568D03*
X005409Y004835D03*
X006576Y004468D03*
X007109Y006535D03*
X009443Y006435D03*
X009859Y008585D03*
X014159Y011085D03*
X018509Y014985D03*
X018526Y014968D03*
X018509Y015018D03*
X018493Y015035D03*
X018476Y015085D03*
X018443Y015168D03*
X018543Y014918D03*
X018559Y014868D03*
X016576Y016318D03*
X018159Y017535D03*
X014343Y016135D03*
X002659Y017535D03*
D288*
X002660Y018785D03*
X008660Y013885D03*
X014343Y016235D03*
X014660Y016768D03*
X015410Y016135D03*
X018160Y018785D03*
X016910Y013135D03*
X014160Y011035D03*
X009393Y006518D03*
X006510Y004568D03*
X005410Y004785D03*
X004310Y004468D03*
D289*
X006568Y004485D03*
X007118Y006518D03*
X008285Y006835D03*
X011035Y008835D03*
X010685Y016318D03*
X010668Y016335D03*
X011785Y016835D03*
X018535Y014935D03*
X018568Y014835D03*
X018568Y014818D03*
X018585Y014785D03*
X018585Y014768D03*
X018618Y014685D03*
X018618Y014668D03*
X018635Y014618D03*
D290*
X012151Y008518D03*
X004301Y004485D03*
D291*
X004293Y004501D03*
X005409Y004801D03*
X009409Y006501D03*
X012159Y008501D03*
X014159Y011051D03*
X012593Y016151D03*
D292*
X010776Y016235D03*
X016526Y016268D03*
X004276Y004518D03*
D293*
X006535Y004535D03*
X008285Y006235D03*
X009418Y006485D03*
X011035Y008235D03*
X012168Y008485D03*
X014335Y016185D03*
X011785Y016235D03*
D294*
X011784Y016218D03*
X011784Y016818D03*
X010851Y016185D03*
X010734Y016268D03*
X010718Y016285D03*
X014334Y016168D03*
X011034Y008818D03*
X011034Y008218D03*
X012184Y008468D03*
X009434Y006468D03*
X008284Y006218D03*
X008284Y006818D03*
X004268Y004535D03*
D295*
X006518Y004551D03*
X008285Y006251D03*
X007168Y006451D03*
X009918Y008501D03*
X011035Y008251D03*
X011785Y016251D03*
D296*
X010693Y016301D03*
X008660Y014451D03*
X014343Y016151D03*
X015410Y016701D03*
X016560Y016301D03*
X018610Y014701D03*
X018643Y014551D03*
X016910Y013701D03*
X012193Y008451D03*
X009443Y006451D03*
X004260Y004551D03*
D297*
X008251Y004585D03*
X008434Y004718D03*
X008501Y004768D03*
X008734Y004935D03*
X008801Y004985D03*
X008851Y005018D03*
X008868Y005035D03*
X008918Y005068D03*
X008934Y005085D03*
X008984Y005118D03*
X009051Y005168D03*
X014584Y009218D03*
X015284Y011085D03*
X017901Y011768D03*
X017918Y011785D03*
X017951Y011818D03*
X017968Y011835D03*
X018234Y012235D03*
X014868Y014635D03*
X014834Y014668D03*
X016701Y016485D03*
X010484Y016568D03*
X009734Y014485D03*
X009834Y014418D03*
X009868Y014385D03*
D298*
X010635Y016368D03*
X007835Y014518D03*
X016585Y016335D03*
X018418Y015235D03*
X018418Y015218D03*
X018435Y015185D03*
X018468Y015118D03*
X018485Y015068D03*
X004235Y004585D03*
D299*
X006485Y004601D03*
X008285Y006751D03*
X011035Y008751D03*
X016268Y016051D03*
X011785Y016751D03*
D300*
X004226Y004601D03*
D301*
X004209Y004635D03*
X009476Y006385D03*
X012226Y008385D03*
X009409Y013068D03*
X008659Y014485D03*
X013709Y018868D03*
X015409Y016735D03*
X016626Y016385D03*
X017793Y016318D03*
X017826Y016268D03*
X017893Y016185D03*
X017893Y016168D03*
X017926Y016135D03*
X016909Y013735D03*
X015076Y014218D03*
X015076Y014235D03*
X015059Y014285D03*
D302*
X015410Y016201D03*
X015410Y016601D03*
X014360Y016351D03*
X016910Y013601D03*
X016910Y013201D03*
X018160Y018801D03*
X008660Y014351D03*
X008660Y013951D03*
X009993Y008401D03*
X006443Y004651D03*
X002660Y018801D03*
D303*
X009451Y016551D03*
X015051Y014301D03*
X017801Y016301D03*
X004201Y004651D03*
D304*
X004184Y004668D03*
X007051Y006635D03*
X008284Y006168D03*
X011034Y008168D03*
X015034Y014368D03*
X015001Y014435D03*
X016651Y016418D03*
X017651Y016485D03*
X017668Y016468D03*
X018218Y012135D03*
X011784Y016168D03*
X010534Y016485D03*
X009084Y016285D03*
X008784Y016068D03*
X008718Y016018D03*
X008651Y015968D03*
X008601Y015935D03*
X008584Y015918D03*
X008534Y015885D03*
X008518Y015868D03*
X008468Y015835D03*
X008451Y015818D03*
X008401Y015785D03*
X008384Y015768D03*
X008334Y015735D03*
X008268Y015685D03*
X008201Y015635D03*
X008184Y015618D03*
D305*
X006401Y004701D03*
D306*
X004168Y004701D03*
X010818Y006451D03*
X011168Y006701D03*
X011235Y006751D03*
X011368Y006851D03*
X011435Y006901D03*
X011718Y007101D03*
X011785Y007151D03*
X014585Y009201D03*
X018068Y011951D03*
X014935Y014551D03*
D307*
X015976Y010635D03*
X009876Y006168D03*
X003626Y004718D03*
D308*
X003651Y004735D03*
X010151Y009435D03*
X012651Y008185D03*
D309*
X006351Y004751D03*
D310*
X006326Y004768D03*
X010126Y008268D03*
X019326Y019735D03*
D311*
X015918Y017701D03*
X015268Y018151D03*
X017835Y012501D03*
X009368Y013351D03*
X008418Y015051D03*
X007385Y007451D03*
X009068Y005551D03*
X003718Y004801D03*
D312*
X005410Y004851D03*
X014160Y011101D03*
X018160Y015751D03*
X018110Y015851D03*
X018043Y015951D03*
X018010Y016001D03*
X018160Y017551D03*
X002660Y017551D03*
D313*
X004593Y004901D03*
D314*
X004601Y004918D03*
X011851Y008118D03*
D315*
X017301Y012851D03*
X016101Y016901D03*
X004601Y004951D03*
D316*
X004593Y004968D03*
X007393Y006985D03*
X010160Y008985D03*
X014593Y010068D03*
X016093Y016935D03*
D317*
X004601Y005001D03*
D318*
X004593Y005051D03*
D319*
X004601Y005085D03*
X011234Y017068D03*
X016068Y017135D03*
D320*
X013726Y018651D03*
X011243Y017101D03*
X009409Y013701D03*
X004593Y005101D03*
D321*
X004593Y005118D03*
X007393Y007135D03*
X009410Y013685D03*
X011260Y017118D03*
X017610Y014235D03*
X014593Y009918D03*
D322*
X009401Y013668D03*
X004601Y005135D03*
D323*
X004593Y005151D03*
X016043Y017251D03*
D324*
X010151Y009185D03*
X004601Y005168D03*
D325*
X004593Y005185D03*
X008810Y014535D03*
D326*
X004593Y005201D03*
D327*
X004601Y005218D03*
D328*
X004593Y005235D03*
D329*
X009068Y005251D03*
D330*
X004593Y005251D03*
X011393Y017351D03*
D331*
X009068Y005301D03*
D332*
X004601Y005301D03*
X011451Y017451D03*
X015984Y017501D03*
D333*
X011743Y016135D03*
X013576Y011785D03*
X007393Y007335D03*
X004593Y005318D03*
D334*
X007385Y007668D03*
X009068Y005335D03*
X018385Y013568D03*
X018318Y014435D03*
X014385Y015068D03*
D335*
X009068Y005351D03*
D336*
X004601Y005385D03*
X012351Y010985D03*
D337*
X015360Y013601D03*
X007393Y007601D03*
X009060Y005401D03*
D338*
X009068Y005418D03*
X007385Y007585D03*
X009385Y013235D03*
X013568Y012018D03*
X015285Y013468D03*
X015418Y013685D03*
D339*
X014585Y009501D03*
X009068Y005451D03*
X008335Y015201D03*
X010235Y016801D03*
D340*
X010368Y016885D03*
X011668Y017818D03*
X008334Y015185D03*
X010251Y013885D03*
X010284Y013918D03*
X015651Y017985D03*
X015868Y017835D03*
X018134Y014385D03*
X009068Y005468D03*
X007384Y007535D03*
D341*
X010151Y009485D03*
X010401Y014035D03*
X016951Y016735D03*
X004601Y005468D03*
D342*
X009068Y005518D03*
X018085Y014368D03*
X011618Y017735D03*
D343*
X015260Y013401D03*
X004593Y005551D03*
D344*
X009068Y005585D03*
X010151Y009418D03*
X013568Y011868D03*
X010501Y014168D03*
X009368Y013368D03*
X011918Y015918D03*
X017818Y012518D03*
D345*
X016035Y010701D03*
X009068Y005601D03*
X006485Y006751D03*
X008485Y014951D03*
X015118Y018201D03*
D346*
X004601Y005601D03*
D347*
X009076Y005685D03*
X012176Y010785D03*
X015976Y017518D03*
D348*
X009068Y005701D03*
D349*
X009068Y005718D03*
X015985Y017468D03*
D350*
X009076Y005735D03*
D351*
X009068Y005751D03*
D352*
X009068Y005768D03*
X008718Y014635D03*
X011368Y017318D03*
X015201Y016018D03*
X016001Y017385D03*
D353*
X012243Y015885D03*
X011359Y017285D03*
X008759Y014585D03*
X013576Y011685D03*
X011843Y007818D03*
X009076Y005785D03*
X007393Y007235D03*
D354*
X009068Y005801D03*
X008784Y014551D03*
X011334Y017251D03*
D355*
X009068Y005851D03*
D356*
X009076Y005868D03*
D357*
X009076Y005885D03*
D358*
X009068Y005901D03*
D359*
X009076Y005918D03*
D360*
X009068Y005935D03*
X016068Y017085D03*
D361*
X011151Y016935D03*
X011851Y008018D03*
X009068Y005985D03*
D362*
X009076Y006001D03*
D363*
X009076Y006018D03*
X013576Y011468D03*
X017426Y014185D03*
D364*
X009068Y006035D03*
D365*
X009076Y006051D03*
D366*
X009068Y006085D03*
D367*
X009076Y006101D03*
D368*
X009076Y006135D03*
D369*
X009835Y006151D03*
X011885Y015951D03*
X015935Y017651D03*
D370*
X011568Y017651D03*
X009935Y006201D03*
D371*
X008285Y006201D03*
X011035Y008201D03*
X018468Y015101D03*
X018435Y015201D03*
X018385Y015301D03*
X011785Y016201D03*
D372*
X009526Y006218D03*
D373*
X007401Y006218D03*
D374*
X007026Y006685D03*
X010526Y006235D03*
X010726Y006385D03*
X010776Y006418D03*
X010976Y006568D03*
X011276Y006785D03*
X011326Y006818D03*
X014876Y014618D03*
D375*
X011676Y014601D03*
X012976Y010451D03*
X012276Y008251D03*
X009526Y006251D03*
D376*
X009384Y006535D03*
X008284Y006768D03*
X008284Y006268D03*
X007201Y006418D03*
X011034Y008268D03*
X011034Y008768D03*
X012134Y008535D03*
X016234Y016035D03*
X016434Y016168D03*
X016451Y016185D03*
X011784Y016268D03*
X011784Y016768D03*
D377*
X011784Y016701D03*
X011784Y016351D03*
X012651Y016201D03*
X011034Y008701D03*
X011034Y008351D03*
X008284Y006701D03*
X008284Y006351D03*
X007301Y006301D03*
D378*
X009501Y006318D03*
X011001Y006585D03*
X011051Y006618D03*
X011251Y006768D03*
X011351Y006835D03*
X011551Y006985D03*
X011601Y007018D03*
X011801Y007168D03*
X012251Y008318D03*
X009801Y008718D03*
X009401Y013085D03*
X010501Y016535D03*
X014401Y016035D03*
X018051Y011935D03*
D379*
X012635Y016185D03*
X011785Y016318D03*
X011785Y016735D03*
X007735Y014435D03*
X011035Y008735D03*
X011035Y008318D03*
X009985Y008418D03*
X008285Y006735D03*
X008285Y006318D03*
X007268Y006335D03*
D380*
X010676Y006351D03*
X011026Y006601D03*
X011576Y007001D03*
X017976Y011851D03*
X018026Y011901D03*
D381*
X018234Y012151D03*
X015018Y014401D03*
X017684Y016451D03*
X012234Y008351D03*
X009484Y006351D03*
X008218Y015651D03*
X008284Y015701D03*
X008351Y015751D03*
X008418Y015801D03*
X008484Y015851D03*
X008634Y015951D03*
X008701Y016001D03*
X008768Y016051D03*
X008834Y016101D03*
X008901Y016151D03*
D382*
X009268Y016418D03*
X009335Y016468D03*
X009468Y016568D03*
X009568Y016635D03*
X011785Y016868D03*
X014368Y016068D03*
X015068Y014268D03*
X017818Y016285D03*
X017785Y016335D03*
X017868Y016218D03*
X011035Y008868D03*
X012235Y008368D03*
X009485Y006368D03*
X008285Y006868D03*
D383*
X007226Y006385D03*
X012626Y016168D03*
D384*
X011651Y007051D03*
X011501Y006951D03*
X011301Y006801D03*
X010751Y006401D03*
D385*
X009468Y006401D03*
X008284Y006851D03*
X011034Y008851D03*
X012218Y008401D03*
X018318Y015451D03*
X018268Y015551D03*
X018234Y015601D03*
X018218Y015651D03*
X018184Y015701D03*
X018134Y015801D03*
X016601Y016351D03*
X014351Y016101D03*
X011784Y016851D03*
X010601Y016401D03*
D386*
X011785Y016401D03*
X011785Y016601D03*
X012685Y016251D03*
X014435Y016551D03*
X019285Y019751D03*
X011035Y008601D03*
X011035Y008401D03*
X010085Y008301D03*
X008285Y006601D03*
X008285Y006401D03*
X001535Y019751D03*
D387*
X002660Y017501D03*
X008660Y013901D03*
X015410Y016151D03*
X016410Y016151D03*
X018160Y017501D03*
X016910Y013151D03*
X007210Y006401D03*
D388*
X009460Y006418D03*
X012210Y008418D03*
X016910Y013068D03*
X016910Y013718D03*
X018393Y015285D03*
X018360Y015368D03*
X018343Y015385D03*
X018310Y015468D03*
X018260Y015568D03*
X015410Y016068D03*
X015410Y016718D03*
X008660Y014468D03*
X008660Y013818D03*
D389*
X007768Y014485D03*
X011785Y016785D03*
X014335Y016218D03*
X016485Y016218D03*
X011035Y008785D03*
X008285Y006785D03*
X007185Y006435D03*
D390*
X008284Y006468D03*
X008284Y006485D03*
X008284Y006518D03*
X008284Y006535D03*
X008284Y006568D03*
X008284Y006585D03*
X009001Y006885D03*
X009234Y006718D03*
X010184Y008218D03*
X010168Y008235D03*
X011034Y008468D03*
X011034Y008485D03*
X011034Y008518D03*
X011034Y008535D03*
X011034Y008568D03*
X011034Y008585D03*
X011751Y008885D03*
X011984Y008718D03*
X007718Y014335D03*
X011784Y016468D03*
X011784Y016485D03*
X011784Y016518D03*
X011784Y016535D03*
X011784Y016568D03*
X011784Y016585D03*
X012684Y016268D03*
X017868Y018685D03*
X018451Y018685D03*
X002951Y018685D03*
X002368Y018685D03*
D391*
X007151Y006468D03*
D392*
X007035Y006668D03*
X008285Y006885D03*
X010935Y006535D03*
X011068Y006635D03*
X011118Y006668D03*
X011185Y006718D03*
X011418Y006885D03*
X011468Y006918D03*
X011485Y006935D03*
X011535Y006968D03*
X011618Y007035D03*
X011668Y007068D03*
X011685Y007085D03*
X011735Y007118D03*
X011835Y007185D03*
X011035Y008885D03*
X014918Y014568D03*
X016685Y016468D03*
X018035Y011918D03*
X011785Y016885D03*
D393*
X010651Y016351D03*
X018451Y015151D03*
X007101Y006551D03*
D394*
X007076Y006585D03*
X018076Y015885D03*
X018126Y015818D03*
X018176Y015718D03*
X018026Y015968D03*
D395*
X009326Y006601D03*
D396*
X007076Y006601D03*
X008659Y013801D03*
X010559Y016451D03*
X015076Y014251D03*
X015076Y014201D03*
X015409Y016051D03*
X017843Y016251D03*
X017876Y016201D03*
X017909Y016151D03*
X016909Y013051D03*
D397*
X014385Y016451D03*
X014535Y016701D03*
X011785Y016651D03*
X012035Y008651D03*
X011035Y008651D03*
X009285Y006651D03*
X008285Y006651D03*
D398*
X007051Y006651D03*
X013501Y008401D03*
X013851Y008651D03*
X014051Y008801D03*
X014401Y009051D03*
X018151Y012051D03*
X018551Y014501D03*
D399*
X011943Y008751D03*
X009193Y006751D03*
D400*
X009151Y006785D03*
X011901Y008785D03*
X012701Y016318D03*
D401*
X007718Y014301D03*
X011818Y008851D03*
X011885Y008801D03*
X009135Y006801D03*
X009068Y006851D03*
X001435Y019701D03*
X019385Y019701D03*
D402*
X016518Y016251D03*
X014335Y016201D03*
X013185Y015901D03*
X011785Y016801D03*
X007785Y014501D03*
X011035Y008801D03*
X008285Y006801D03*
D403*
X006676Y006885D03*
D404*
X007393Y006901D03*
X010159Y008901D03*
X017226Y012901D03*
D405*
X016110Y016785D03*
X007393Y006918D03*
D406*
X007393Y006935D03*
X014593Y010135D03*
X017243Y012885D03*
X016110Y016818D03*
D407*
X007393Y006951D03*
D408*
X007393Y006968D03*
D409*
X007393Y007001D03*
X016093Y016951D03*
D410*
X017493Y014201D03*
X007393Y007051D03*
D411*
X007393Y007068D03*
X010160Y009068D03*
X014593Y009985D03*
X011193Y017018D03*
D412*
X011843Y007951D03*
X007393Y007101D03*
D413*
X007393Y007118D03*
X014593Y009935D03*
X016059Y017168D03*
D414*
X011293Y017185D03*
X014593Y009885D03*
X007393Y007168D03*
D415*
X007393Y007185D03*
X009393Y013635D03*
X012393Y015818D03*
X014593Y009868D03*
D416*
X014593Y009851D03*
X010160Y009201D03*
X007393Y007201D03*
X009393Y013601D03*
D417*
X011343Y017268D03*
X014593Y009835D03*
X007393Y007218D03*
D418*
X011843Y007251D03*
X012910Y010501D03*
X016693Y010801D03*
D419*
X014593Y009801D03*
X008710Y014651D03*
X007393Y007251D03*
D420*
X011843Y007351D03*
X018393Y013351D03*
X018393Y013401D03*
X018393Y013451D03*
D421*
X014593Y009701D03*
X008560Y014851D03*
X015960Y017551D03*
X007393Y007351D03*
D422*
X011851Y007368D03*
X008251Y015385D03*
D423*
X011843Y007401D03*
D424*
X011843Y007451D03*
X015309Y013501D03*
X015393Y013651D03*
X017993Y012401D03*
X018276Y013751D03*
X012059Y018151D03*
D425*
X010268Y013901D03*
X015218Y013301D03*
X011851Y007501D03*
D426*
X007393Y007501D03*
X016993Y016701D03*
X017043Y016651D03*
X015510Y018051D03*
D427*
X015543Y013768D03*
X015209Y013268D03*
X010343Y013968D03*
X009376Y013285D03*
X010093Y016668D03*
X011843Y007518D03*
X007393Y007518D03*
D428*
X011851Y007551D03*
X015201Y013201D03*
X015401Y018101D03*
D429*
X015793Y017901D03*
X015859Y017851D03*
X015493Y013751D03*
X015243Y013351D03*
X011693Y017851D03*
X010309Y016851D03*
X007393Y007551D03*
D430*
X011851Y007601D03*
X015951Y010601D03*
D431*
X011851Y007651D03*
X009368Y013401D03*
X011851Y016001D03*
D432*
X010160Y009318D03*
X011843Y007718D03*
D433*
X015593Y010785D03*
X007393Y007718D03*
D434*
X011851Y007735D03*
X015001Y015818D03*
D435*
X011851Y007751D03*
D436*
X011851Y007785D03*
X015151Y015968D03*
D437*
X015184Y016001D03*
X011851Y007801D03*
D438*
X011851Y007851D03*
D439*
X011851Y007868D03*
X010151Y009168D03*
X016034Y017268D03*
D440*
X011851Y007901D03*
D441*
X011851Y007918D03*
X010151Y009118D03*
X016051Y017185D03*
D442*
X011851Y007968D03*
D443*
X011851Y008001D03*
D444*
X011851Y008051D03*
D445*
X011851Y008068D03*
X016101Y016918D03*
D446*
X016101Y016851D03*
X011851Y008101D03*
D447*
X012576Y008151D03*
X012426Y011051D03*
X009376Y008851D03*
D448*
X013435Y008351D03*
X013568Y008451D03*
X013918Y008701D03*
X013985Y008751D03*
X014118Y008851D03*
X014185Y008901D03*
X014468Y009101D03*
X014535Y009151D03*
X018118Y012001D03*
D449*
X018451Y015135D03*
X018401Y015268D03*
X014351Y016118D03*
X012201Y008435D03*
D450*
X009951Y008451D03*
X016351Y016101D03*
D451*
X009926Y008485D03*
D452*
X009909Y008518D03*
X008659Y013868D03*
X008659Y014418D03*
X015409Y016118D03*
X015409Y016668D03*
X016493Y016235D03*
X016909Y013668D03*
X016909Y013118D03*
D453*
X018626Y014635D03*
X010876Y016168D03*
X009876Y008568D03*
D454*
X011926Y008768D03*
X018476Y017618D03*
X002976Y017618D03*
D455*
X011551Y017618D03*
X011901Y015935D03*
X012451Y011068D03*
X012401Y011035D03*
X009401Y008868D03*
D456*
X010159Y008935D03*
X014593Y010118D03*
X016109Y016835D03*
D457*
X015410Y016751D03*
X017643Y016501D03*
X014993Y014451D03*
X016910Y013751D03*
X018193Y012101D03*
X014260Y008951D03*
X008660Y014501D03*
D458*
X010151Y008951D03*
X014601Y010101D03*
D459*
X014326Y009001D03*
X014376Y016051D03*
X010526Y016501D03*
D460*
X014601Y010051D03*
X010151Y009001D03*
D461*
X010160Y009018D03*
X014593Y010035D03*
D462*
X010151Y009035D03*
D463*
X010151Y009051D03*
D464*
X010151Y009085D03*
X017551Y014218D03*
D465*
X014593Y009901D03*
X010159Y009151D03*
X011276Y017151D03*
D466*
X010151Y009218D03*
D467*
X014518Y012951D03*
X014584Y013001D03*
X016768Y010851D03*
X016834Y010901D03*
X016901Y010951D03*
X016968Y011001D03*
X017051Y011051D03*
X017118Y011101D03*
X017184Y011151D03*
X017251Y011201D03*
X017318Y011251D03*
X017384Y011301D03*
X014584Y009251D03*
X011601Y014551D03*
D468*
X016001Y017401D03*
X010151Y009251D03*
D469*
X010151Y009268D03*
X016001Y017418D03*
D470*
X010151Y009301D03*
D471*
X014585Y009351D03*
X018385Y013301D03*
D472*
X018343Y013168D03*
X018393Y013518D03*
X018393Y013535D03*
X014593Y009368D03*
X010160Y009668D03*
X009393Y013168D03*
X012393Y015018D03*
X013710Y018835D03*
D473*
X018351Y013651D03*
X014584Y009401D03*
D474*
X010151Y009401D03*
D475*
X014593Y009418D03*
X014359Y015085D03*
X012526Y015068D03*
X008276Y015318D03*
D476*
X009384Y013218D03*
X012018Y018135D03*
X018234Y013035D03*
X014584Y009435D03*
D477*
X015193Y013151D03*
X010160Y009451D03*
D478*
X014593Y009468D03*
X012110Y018168D03*
D479*
X008401Y015085D03*
X010151Y009468D03*
D480*
X010151Y009501D03*
D481*
X010151Y009518D03*
X008351Y015168D03*
D482*
X014585Y009535D03*
X017068Y016618D03*
D483*
X014593Y009551D03*
D484*
X010151Y009601D03*
X008284Y015301D03*
X011751Y017951D03*
D485*
X011751Y017968D03*
X018251Y014418D03*
X010151Y009618D03*
D486*
X010151Y009635D03*
X011884Y018085D03*
D487*
X010151Y009685D03*
D488*
X010151Y009701D03*
X012251Y014951D03*
D489*
X012101Y014868D03*
X009401Y013135D03*
X010151Y009718D03*
D490*
X009385Y013568D03*
X008735Y014618D03*
X014585Y009818D03*
D491*
X014593Y010001D03*
D492*
X014593Y010085D03*
D493*
X014601Y010151D03*
D494*
X014593Y010168D03*
D495*
X014593Y010185D03*
D496*
X014593Y010201D03*
D497*
X014593Y010218D03*
X013593Y011318D03*
D498*
X014601Y010235D03*
D499*
X014593Y010251D03*
D500*
X014593Y010268D03*
X013593Y011268D03*
X017093Y012985D03*
D501*
X014601Y010285D03*
D502*
X014593Y010301D03*
X013743Y018451D03*
D503*
X014593Y010318D03*
D504*
X014601Y010335D03*
D505*
X014593Y010351D03*
D506*
X014601Y010368D03*
D507*
X014601Y010385D03*
D508*
X013076Y010401D03*
D509*
X015776Y010451D03*
D510*
X015901Y010551D03*
D511*
X016068Y010751D03*
X017768Y012551D03*
X012268Y010901D03*
X011518Y017551D03*
D512*
X012226Y010851D03*
D513*
X012501Y011101D03*
D514*
X013593Y011151D03*
D515*
X013593Y011168D03*
D516*
X013593Y011185D03*
X013743Y018418D03*
D517*
X013593Y011201D03*
D518*
X013584Y011218D03*
D519*
X013593Y011235D03*
D520*
X013593Y011251D03*
X017060Y013001D03*
D521*
X013593Y011285D03*
D522*
X013585Y011301D03*
D523*
X013585Y011335D03*
X017168Y012935D03*
D524*
X013593Y011351D03*
D525*
X013585Y011368D03*
X013735Y018535D03*
D526*
X013585Y011385D03*
D527*
X013585Y011401D03*
X013568Y015201D03*
D528*
X011476Y014468D03*
X011426Y014435D03*
X009976Y014285D03*
X014476Y012918D03*
X017526Y011418D03*
X016726Y016535D03*
D529*
X013585Y011418D03*
D530*
X013585Y011485D03*
X011135Y016918D03*
X016085Y016985D03*
D531*
X013576Y011501D03*
D532*
X013585Y011518D03*
X011185Y016985D03*
X013735Y018618D03*
D533*
X013576Y011535D03*
D534*
X013585Y011551D03*
X011218Y017051D03*
D535*
X013576Y011568D03*
D536*
X013576Y011601D03*
D537*
X013576Y011618D03*
X017509Y012718D03*
X016043Y017235D03*
X013726Y018668D03*
D538*
X017726Y014268D03*
X013576Y011668D03*
X008776Y014568D03*
D539*
X009376Y013551D03*
X013576Y011701D03*
D540*
X013576Y011735D03*
D541*
X013568Y011951D03*
X017085Y016601D03*
X015885Y017801D03*
X010085Y016651D03*
D542*
X013576Y011968D03*
X015876Y017818D03*
D543*
X013576Y012001D03*
D544*
X013576Y012035D03*
D545*
X018176Y012085D03*
X017626Y016518D03*
D546*
X013568Y012118D03*
X008235Y015418D03*
D547*
X008560Y015901D03*
X009043Y016251D03*
X009110Y016301D03*
X009243Y016401D03*
X009310Y016451D03*
X015043Y014351D03*
X018260Y012201D03*
D548*
X014435Y015001D03*
X013568Y012201D03*
D549*
X018110Y012318D03*
D550*
X018059Y012351D03*
X018376Y013601D03*
D551*
X017668Y014251D03*
X017534Y012701D03*
D552*
X017410Y012785D03*
D553*
X017385Y012801D03*
D554*
X017201Y012918D03*
D555*
X017151Y012951D03*
D556*
X017118Y012968D03*
X013734Y018485D03*
D557*
X017035Y013018D03*
D558*
X015226Y013035D03*
D559*
X018259Y013051D03*
X018326Y013701D03*
X009393Y013201D03*
D560*
X009410Y013051D03*
X008660Y013851D03*
X010760Y016251D03*
X015410Y016101D03*
X016910Y013101D03*
D561*
X018276Y013068D03*
D562*
X011851Y014718D03*
X009401Y013118D03*
D563*
X018376Y013251D03*
D564*
X009385Y013251D03*
D565*
X012326Y014985D03*
X018376Y013285D03*
X018376Y013268D03*
D566*
X015251Y013368D03*
X015251Y013385D03*
X015851Y017868D03*
X011701Y017868D03*
D567*
X015276Y013451D03*
D568*
X009368Y013451D03*
D569*
X013701Y018818D03*
X015351Y013585D03*
D570*
X009401Y013651D03*
D571*
X011718Y017901D03*
X015435Y013701D03*
D572*
X009410Y013718D03*
D573*
X015476Y013735D03*
D574*
X016068Y017118D03*
X009418Y013735D03*
D575*
X009418Y013751D03*
D576*
X009426Y013768D03*
D577*
X016868Y013785D03*
X016868Y013818D03*
D578*
X016868Y013801D03*
D579*
X007968Y013801D03*
D580*
X007943Y013818D03*
X007760Y014068D03*
D581*
X016876Y013868D03*
X016876Y013835D03*
D582*
X013168Y015935D03*
X007918Y013835D03*
X007884Y013868D03*
X007801Y013985D03*
X007784Y014018D03*
D583*
X013593Y015551D03*
X016876Y013851D03*
D584*
X007901Y013851D03*
X007768Y014051D03*
D585*
X016885Y013968D03*
X016885Y013935D03*
X016885Y013918D03*
X016885Y013885D03*
D586*
X007876Y013885D03*
X007826Y013935D03*
D587*
X016885Y013951D03*
X016885Y013901D03*
D588*
X007860Y013901D03*
X007793Y014001D03*
D589*
X007810Y013968D03*
X007843Y013918D03*
D590*
X010318Y013951D03*
D591*
X007826Y013951D03*
D592*
X013584Y015535D03*
X016884Y014085D03*
X016884Y014068D03*
X016884Y014035D03*
X016884Y014018D03*
X016884Y013985D03*
D593*
X016884Y014001D03*
X016884Y014051D03*
X016884Y014101D03*
D594*
X010376Y014001D03*
D595*
X007776Y014035D03*
D596*
X007751Y014085D03*
D597*
X007751Y014101D03*
D598*
X016876Y014118D03*
D599*
X017259Y014135D03*
X013576Y015268D03*
D600*
X017318Y014151D03*
D601*
X017985Y016051D03*
X015085Y014151D03*
D602*
X013568Y015185D03*
X016101Y016868D03*
X013734Y018568D03*
X017368Y014168D03*
D603*
X017851Y016235D03*
X017751Y016368D03*
X015051Y014318D03*
X010551Y016468D03*
X009401Y016518D03*
D604*
X018376Y014451D03*
D605*
X011526Y014501D03*
D606*
X018551Y014885D03*
X018601Y014735D03*
X018601Y014718D03*
X018651Y014535D03*
D607*
X018635Y014601D03*
X018618Y014651D03*
X018585Y014801D03*
D608*
X008751Y014601D03*
D609*
X008201Y015518D03*
X011701Y014618D03*
D610*
X008668Y014701D03*
X015135Y015951D03*
D611*
X018601Y014751D03*
D612*
X015985Y017485D03*
X011435Y017418D03*
X008618Y014768D03*
D613*
X008226Y015435D03*
X012226Y014935D03*
D614*
X012351Y015001D03*
X008234Y015401D03*
D615*
X011776Y018001D03*
X011926Y018101D03*
X012476Y015051D03*
D616*
X013468Y015101D03*
D617*
X016976Y016718D03*
X008376Y015118D03*
D618*
X013543Y015151D03*
D619*
X013576Y015285D03*
D620*
X013576Y015301D03*
D621*
X010626Y016385D03*
X018276Y015535D03*
X018326Y015435D03*
X018326Y015418D03*
X018376Y015335D03*
X018376Y015318D03*
D622*
X013576Y015318D03*
D623*
X013585Y015335D03*
D624*
X013576Y015351D03*
D625*
X013585Y015368D03*
D626*
X011801Y018035D03*
X008251Y015368D03*
D627*
X013576Y015385D03*
D628*
X013585Y015401D03*
D629*
X013585Y015418D03*
D630*
X013585Y015435D03*
D631*
X013585Y015451D03*
D632*
X013593Y015468D03*
X013743Y018385D03*
D633*
X013585Y015485D03*
D634*
X013593Y015501D03*
D635*
X013593Y015518D03*
D636*
X013584Y015568D03*
D637*
X013593Y015585D03*
D638*
X013593Y015601D03*
D639*
X013593Y015618D03*
X013759Y018268D03*
D640*
X013593Y015635D03*
D641*
X013601Y015651D03*
D642*
X013593Y015668D03*
D643*
X013601Y015685D03*
D644*
X013601Y015701D03*
D645*
X013601Y015718D03*
D646*
X013601Y015735D03*
D647*
X013601Y015751D03*
D648*
X013601Y015768D03*
D649*
X012468Y015785D03*
X011285Y017168D03*
D650*
X014976Y015801D03*
D651*
X012426Y015801D03*
D652*
X011418Y017401D03*
X015035Y015851D03*
D653*
X012318Y015851D03*
D654*
X018076Y015901D03*
D655*
X011926Y015901D03*
D656*
X014351Y016085D03*
X017951Y016085D03*
X018001Y016018D03*
X018051Y015935D03*
D657*
X016301Y016068D03*
D658*
X015951Y017585D03*
X011801Y016068D03*
X011501Y017535D03*
D659*
X017951Y016101D03*
D660*
X011776Y016101D03*
D661*
X010826Y016201D03*
D662*
X009176Y016351D03*
X008976Y016201D03*
X017726Y016401D03*
D663*
X014334Y016251D03*
D664*
X012701Y016301D03*
D665*
X012701Y016351D03*
X001351Y019651D03*
D666*
X017026Y016668D03*
D667*
X012226Y018201D03*
X010126Y016701D03*
D668*
X014601Y016751D03*
D669*
X010201Y016768D03*
D670*
X016110Y016801D03*
D671*
X012576Y016851D03*
D672*
X011135Y016901D03*
D673*
X011160Y016951D03*
D674*
X011168Y016968D03*
D675*
X016076Y017018D03*
D676*
X016076Y017051D03*
D677*
X011235Y017085D03*
D678*
X016051Y017201D03*
D679*
X016035Y017285D03*
X011318Y017218D03*
D680*
X011318Y017235D03*
X013718Y018685D03*
D681*
X013718Y018701D03*
X011368Y017301D03*
D682*
X016026Y017318D03*
D683*
X011626Y017751D03*
D684*
X011660Y017801D03*
X013710Y018801D03*
X015610Y018001D03*
D685*
X011801Y018051D03*
D686*
X015051Y018218D03*
D687*
X013760Y018251D03*
D688*
X013751Y018285D03*
D689*
X013751Y018301D03*
D690*
X013751Y018318D03*
D691*
X013743Y018335D03*
D692*
X013743Y018351D03*
D693*
X013743Y018368D03*
D694*
X013743Y018401D03*
D695*
X013743Y018435D03*
D696*
X013743Y018468D03*
D697*
X013743Y018501D03*
D698*
X013735Y018518D03*
D699*
X013734Y018551D03*
D700*
X013726Y018585D03*
D701*
X013726Y018601D03*
D702*
X010409Y019785D03*
D703*
X010410Y019801D03*
D704*
X010410Y019835D03*
D705*
X010409Y019851D03*
D706*
X010410Y019868D03*
D707*
X010410Y019885D03*
M02*
