G75*
G70*
%OFA0B0*%
%FSLAX24Y24*%
%IPPOS*%
%LPD*%
%AMOC8*
5,1,8,0,0,1.08239X$1,22.5*
%
%ADD10C,0.0000*%
%ADD11OC8,0.0520*%
%ADD12C,0.0520*%
%ADD13C,0.0600*%
%ADD14C,0.0660*%
%ADD15C,0.0120*%
%ADD16C,0.0100*%
%ADD17C,0.0357*%
D10*
X000655Y001655D02*
X000655Y019155D01*
X000657Y019215D01*
X000662Y019276D01*
X000671Y019335D01*
X000684Y019394D01*
X000700Y019453D01*
X000720Y019510D01*
X000743Y019565D01*
X000770Y019620D01*
X000799Y019672D01*
X000832Y019723D01*
X000868Y019772D01*
X000906Y019818D01*
X000948Y019862D01*
X000992Y019904D01*
X001038Y019942D01*
X001087Y019978D01*
X001138Y020011D01*
X001190Y020040D01*
X001245Y020067D01*
X001300Y020090D01*
X001357Y020110D01*
X001416Y020126D01*
X001475Y020139D01*
X001534Y020148D01*
X001595Y020153D01*
X001655Y020155D01*
X019155Y020155D01*
X019215Y020153D01*
X019276Y020148D01*
X019335Y020139D01*
X019394Y020126D01*
X019453Y020110D01*
X019510Y020090D01*
X019565Y020067D01*
X019620Y020040D01*
X019672Y020011D01*
X019723Y019978D01*
X019772Y019942D01*
X019818Y019904D01*
X019862Y019862D01*
X019904Y019818D01*
X019942Y019772D01*
X019978Y019723D01*
X020011Y019672D01*
X020040Y019620D01*
X020067Y019565D01*
X020090Y019510D01*
X020110Y019453D01*
X020126Y019394D01*
X020139Y019335D01*
X020148Y019276D01*
X020153Y019215D01*
X020155Y019155D01*
X020155Y001655D01*
X020153Y001595D01*
X020148Y001534D01*
X020139Y001475D01*
X020126Y001416D01*
X020110Y001357D01*
X020090Y001300D01*
X020067Y001245D01*
X020040Y001190D01*
X020011Y001138D01*
X019978Y001087D01*
X019942Y001038D01*
X019904Y000992D01*
X019862Y000948D01*
X019818Y000906D01*
X019772Y000868D01*
X019723Y000832D01*
X019672Y000799D01*
X019620Y000770D01*
X019565Y000743D01*
X019510Y000720D01*
X019453Y000700D01*
X019394Y000684D01*
X019335Y000671D01*
X019276Y000662D01*
X019215Y000657D01*
X019155Y000655D01*
X001655Y000655D01*
X001595Y000657D01*
X001534Y000662D01*
X001475Y000671D01*
X001416Y000684D01*
X001357Y000700D01*
X001300Y000720D01*
X001245Y000743D01*
X001190Y000770D01*
X001138Y000799D01*
X001087Y000832D01*
X001038Y000868D01*
X000992Y000906D01*
X000948Y000948D01*
X000906Y000992D01*
X000868Y001038D01*
X000832Y001087D01*
X000799Y001138D01*
X000770Y001190D01*
X000743Y001245D01*
X000720Y001300D01*
X000700Y001357D01*
X000684Y001416D01*
X000671Y001475D01*
X000662Y001534D01*
X000657Y001595D01*
X000655Y001655D01*
X002183Y018155D02*
X002185Y018198D01*
X002191Y018240D01*
X002201Y018282D01*
X002214Y018323D01*
X002231Y018363D01*
X002252Y018400D01*
X002276Y018436D01*
X002303Y018469D01*
X002333Y018500D01*
X002366Y018528D01*
X002401Y018553D01*
X002438Y018574D01*
X002477Y018592D01*
X002517Y018606D01*
X002559Y018617D01*
X002601Y018624D01*
X002644Y018627D01*
X002687Y018626D01*
X002730Y018621D01*
X002772Y018612D01*
X002813Y018600D01*
X002853Y018584D01*
X002891Y018564D01*
X002927Y018541D01*
X002961Y018514D01*
X002993Y018485D01*
X003021Y018453D01*
X003047Y018418D01*
X003069Y018382D01*
X003088Y018343D01*
X003103Y018303D01*
X003115Y018262D01*
X003123Y018219D01*
X003127Y018176D01*
X003127Y018134D01*
X003123Y018091D01*
X003115Y018048D01*
X003103Y018007D01*
X003088Y017967D01*
X003069Y017928D01*
X003047Y017892D01*
X003021Y017857D01*
X002993Y017825D01*
X002961Y017796D01*
X002927Y017769D01*
X002891Y017746D01*
X002853Y017726D01*
X002813Y017710D01*
X002772Y017698D01*
X002730Y017689D01*
X002687Y017684D01*
X002644Y017683D01*
X002601Y017686D01*
X002559Y017693D01*
X002517Y017704D01*
X002477Y017718D01*
X002438Y017736D01*
X002401Y017757D01*
X002366Y017782D01*
X002333Y017810D01*
X002303Y017841D01*
X002276Y017874D01*
X002252Y017910D01*
X002231Y017947D01*
X002214Y017987D01*
X002201Y018028D01*
X002191Y018070D01*
X002185Y018112D01*
X002183Y018155D01*
X008840Y019155D02*
X008842Y019190D01*
X008848Y019225D01*
X008858Y019259D01*
X008871Y019292D01*
X008888Y019323D01*
X008909Y019351D01*
X008932Y019378D01*
X008959Y019401D01*
X008987Y019422D01*
X009018Y019439D01*
X009051Y019452D01*
X009085Y019462D01*
X009120Y019468D01*
X009155Y019470D01*
X009190Y019468D01*
X009225Y019462D01*
X009259Y019452D01*
X009292Y019439D01*
X009323Y019422D01*
X009351Y019401D01*
X009378Y019378D01*
X009401Y019351D01*
X009422Y019323D01*
X009439Y019292D01*
X009452Y019259D01*
X009462Y019225D01*
X009468Y019190D01*
X009470Y019155D01*
X009468Y019120D01*
X009462Y019085D01*
X009452Y019051D01*
X009439Y019018D01*
X009422Y018987D01*
X009401Y018959D01*
X009378Y018932D01*
X009351Y018909D01*
X009323Y018888D01*
X009292Y018871D01*
X009259Y018858D01*
X009225Y018848D01*
X009190Y018842D01*
X009155Y018840D01*
X009120Y018842D01*
X009085Y018848D01*
X009051Y018858D01*
X009018Y018871D01*
X008987Y018888D01*
X008959Y018909D01*
X008932Y018932D01*
X008909Y018959D01*
X008888Y018987D01*
X008871Y019018D01*
X008858Y019051D01*
X008848Y019085D01*
X008842Y019120D01*
X008840Y019155D01*
X011340Y019155D02*
X011342Y019190D01*
X011348Y019225D01*
X011358Y019259D01*
X011371Y019292D01*
X011388Y019323D01*
X011409Y019351D01*
X011432Y019378D01*
X011459Y019401D01*
X011487Y019422D01*
X011518Y019439D01*
X011551Y019452D01*
X011585Y019462D01*
X011620Y019468D01*
X011655Y019470D01*
X011690Y019468D01*
X011725Y019462D01*
X011759Y019452D01*
X011792Y019439D01*
X011823Y019422D01*
X011851Y019401D01*
X011878Y019378D01*
X011901Y019351D01*
X011922Y019323D01*
X011939Y019292D01*
X011952Y019259D01*
X011962Y019225D01*
X011968Y019190D01*
X011970Y019155D01*
X011968Y019120D01*
X011962Y019085D01*
X011952Y019051D01*
X011939Y019018D01*
X011922Y018987D01*
X011901Y018959D01*
X011878Y018932D01*
X011851Y018909D01*
X011823Y018888D01*
X011792Y018871D01*
X011759Y018858D01*
X011725Y018848D01*
X011690Y018842D01*
X011655Y018840D01*
X011620Y018842D01*
X011585Y018848D01*
X011551Y018858D01*
X011518Y018871D01*
X011487Y018888D01*
X011459Y018909D01*
X011432Y018932D01*
X011409Y018959D01*
X011388Y018987D01*
X011371Y019018D01*
X011358Y019051D01*
X011348Y019085D01*
X011342Y019120D01*
X011340Y019155D01*
X017683Y018155D02*
X017685Y018198D01*
X017691Y018240D01*
X017701Y018282D01*
X017714Y018323D01*
X017731Y018363D01*
X017752Y018400D01*
X017776Y018436D01*
X017803Y018469D01*
X017833Y018500D01*
X017866Y018528D01*
X017901Y018553D01*
X017938Y018574D01*
X017977Y018592D01*
X018017Y018606D01*
X018059Y018617D01*
X018101Y018624D01*
X018144Y018627D01*
X018187Y018626D01*
X018230Y018621D01*
X018272Y018612D01*
X018313Y018600D01*
X018353Y018584D01*
X018391Y018564D01*
X018427Y018541D01*
X018461Y018514D01*
X018493Y018485D01*
X018521Y018453D01*
X018547Y018418D01*
X018569Y018382D01*
X018588Y018343D01*
X018603Y018303D01*
X018615Y018262D01*
X018623Y018219D01*
X018627Y018176D01*
X018627Y018134D01*
X018623Y018091D01*
X018615Y018048D01*
X018603Y018007D01*
X018588Y017967D01*
X018569Y017928D01*
X018547Y017892D01*
X018521Y017857D01*
X018493Y017825D01*
X018461Y017796D01*
X018427Y017769D01*
X018391Y017746D01*
X018353Y017726D01*
X018313Y017710D01*
X018272Y017698D01*
X018230Y017689D01*
X018187Y017684D01*
X018144Y017683D01*
X018101Y017686D01*
X018059Y017693D01*
X018017Y017704D01*
X017977Y017718D01*
X017938Y017736D01*
X017901Y017757D01*
X017866Y017782D01*
X017833Y017810D01*
X017803Y017841D01*
X017776Y017874D01*
X017752Y017910D01*
X017731Y017947D01*
X017714Y017987D01*
X017701Y018028D01*
X017691Y018070D01*
X017685Y018112D01*
X017683Y018155D01*
D11*
X012655Y014155D03*
X011655Y014155D03*
X011030Y015405D03*
X010030Y015405D03*
X009530Y016530D03*
X008530Y016530D03*
X007780Y017030D03*
X006780Y017030D03*
X005905Y016405D03*
X004905Y016405D03*
X004655Y015155D03*
X003655Y015155D03*
X003405Y013405D03*
X004405Y013405D03*
X004530Y012030D03*
X005530Y012030D03*
X006155Y010780D03*
X007155Y010780D03*
X007780Y009530D03*
X008780Y009530D03*
X009280Y008530D03*
X010280Y008530D03*
X010655Y007530D03*
X011655Y007530D03*
X012030Y006530D03*
X013030Y006530D03*
X013405Y005405D03*
X014405Y005405D03*
X014905Y004530D03*
X015905Y004530D03*
X016280Y003405D03*
X017280Y003405D03*
X005655Y006155D03*
X003655Y007655D03*
X001655Y007655D03*
X001655Y006155D03*
D12*
X001915Y004655D02*
X001395Y004655D01*
X001395Y003655D02*
X001915Y003655D01*
X001915Y002655D02*
X001395Y002655D01*
X001395Y001655D02*
X001915Y001655D01*
X004395Y001655D02*
X004915Y001655D01*
X004915Y002655D02*
X004395Y002655D01*
X004395Y003655D02*
X004915Y003655D01*
X004915Y004655D02*
X004395Y004655D01*
D13*
X017265Y006075D02*
X017265Y006675D01*
X019045Y006675D02*
X019045Y006075D01*
X019045Y008635D02*
X019045Y009235D01*
X017265Y009235D02*
X017265Y008635D01*
D14*
X013655Y019155D03*
X007155Y019155D03*
D15*
X015115Y001945D02*
X014995Y001825D01*
X014995Y001815D02*
X014995Y001695D01*
X015105Y001585D01*
X014995Y001475D01*
X014995Y001465D02*
X014995Y001345D01*
X014995Y001335D02*
X015115Y001215D01*
X015355Y001215D01*
X015485Y001345D01*
X015783Y001215D02*
X016268Y001215D01*
X016575Y001335D02*
X016575Y001815D01*
X016695Y001935D01*
X016935Y001935D01*
X017055Y001815D01*
X017055Y001335D01*
X016935Y001215D01*
X016695Y001215D01*
X016575Y001335D01*
X016265Y001693D02*
X016023Y001935D01*
X016023Y001928D02*
X016023Y001223D01*
X015485Y001815D02*
X015355Y001945D01*
X015115Y001945D01*
X015108Y001585D02*
X015223Y001585D01*
X016585Y001815D02*
X017055Y001335D01*
X017365Y001215D02*
X017855Y001215D01*
X017365Y001695D01*
X017365Y001815D01*
X017365Y001825D02*
X017485Y001945D01*
X017725Y001945D01*
X017855Y001815D01*
X018235Y001835D02*
X018355Y001955D01*
X018595Y001955D01*
X018715Y001835D01*
X018715Y001955D01*
X019085Y001955D01*
X019205Y001835D01*
X019205Y001585D01*
X019085Y001465D01*
X018965Y001465D01*
X019205Y001215D01*
X018965Y001465D02*
X018715Y001465D01*
X018715Y001835D01*
X018475Y001585D02*
X018225Y001585D01*
X018225Y001345D01*
X018345Y001215D01*
X018595Y001215D01*
X018715Y001335D01*
X018715Y001215D01*
X018715Y001335D02*
X018715Y001465D01*
D16*
X001096Y001096D02*
X000951Y001296D01*
X000875Y001532D01*
X000865Y001655D01*
X000865Y001725D01*
X000865Y001742D01*
X000865Y019155D01*
X000875Y019279D01*
X000951Y019514D01*
X001096Y019714D01*
X001296Y019859D01*
X001532Y019935D01*
X001655Y019945D01*
X001717Y019945D01*
X001742Y019945D01*
X019155Y019945D01*
X019279Y019935D01*
X019514Y019859D01*
X019714Y019714D01*
X019859Y019514D01*
X019935Y019279D01*
X019945Y019155D01*
X019945Y019119D01*
X019945Y019068D01*
X019945Y001655D01*
X019935Y001531D01*
X019859Y001296D01*
X019714Y001096D01*
X019514Y000951D01*
X019279Y000875D01*
X019155Y000865D01*
X001655Y000865D01*
X001532Y000875D01*
X001296Y000951D01*
X001096Y001096D01*
X001059Y001148D02*
X014801Y001148D01*
X014766Y001182D02*
X014725Y001281D01*
X014725Y001389D01*
X014725Y001421D01*
X014725Y001529D01*
X014748Y001585D01*
X014725Y001641D01*
X014725Y001771D01*
X014725Y001879D01*
X014766Y001978D01*
X014962Y002174D01*
X015061Y002215D01*
X015169Y002215D01*
X015409Y002215D01*
X015508Y002174D01*
X015584Y002098D01*
X015714Y001968D01*
X015753Y001875D01*
X015753Y001981D01*
X015753Y001981D01*
X015753Y001989D01*
X015794Y002088D01*
X015870Y002164D01*
X015969Y002205D01*
X016076Y002205D01*
X016176Y002164D01*
X016359Y001981D01*
X016466Y002088D01*
X016542Y002164D01*
X016641Y002205D01*
X016881Y002205D01*
X016989Y002205D01*
X017088Y002164D01*
X017205Y002047D01*
X017332Y002174D01*
X017431Y002215D01*
X017539Y002215D01*
X017779Y002215D01*
X017878Y002174D01*
X017954Y002098D01*
X018035Y002017D01*
X018202Y002184D01*
X018301Y002225D01*
X018409Y002225D01*
X018649Y002225D01*
X018655Y002222D01*
X018661Y002225D01*
X019031Y002225D01*
X019139Y002225D01*
X019238Y002184D01*
X019358Y002064D01*
X019434Y001988D01*
X019475Y001889D01*
X019475Y001639D01*
X019475Y001531D01*
X019434Y001432D01*
X019402Y001400D01*
X019437Y001363D01*
X019476Y001263D01*
X019474Y001156D01*
X019431Y001058D01*
X019353Y000983D01*
X019253Y000944D01*
X019146Y000946D01*
X019048Y000989D01*
X018954Y001087D01*
X018944Y001062D01*
X018868Y000986D01*
X018769Y000945D01*
X018661Y000945D01*
X018655Y000948D01*
X018649Y000945D01*
X018541Y000945D01*
X018393Y000945D01*
X018388Y000943D01*
X018340Y000945D01*
X018291Y000945D01*
X018286Y000947D01*
X018281Y000947D01*
X018237Y000968D01*
X018192Y000986D01*
X018188Y000990D01*
X018183Y000993D01*
X018150Y001028D01*
X018116Y001062D01*
X018114Y001067D01*
X018095Y001088D01*
X018086Y001065D01*
X018084Y001064D01*
X018084Y001062D01*
X018048Y001026D01*
X018010Y000988D01*
X018009Y000987D01*
X018008Y000986D01*
X017961Y000967D01*
X017912Y000946D01*
X017910Y000946D01*
X017909Y000945D01*
X017858Y000945D01*
X017804Y000945D01*
X017803Y000945D01*
X017311Y000945D01*
X017212Y000986D01*
X017150Y001048D01*
X017088Y000986D01*
X016989Y000945D01*
X016881Y000945D01*
X016749Y000945D01*
X016641Y000945D01*
X016542Y000986D01*
X016481Y001047D01*
X016421Y000986D01*
X016321Y000945D01*
X015729Y000945D01*
X015630Y000986D01*
X015569Y001047D01*
X015508Y000986D01*
X015409Y000945D01*
X015169Y000945D01*
X015061Y000945D01*
X014962Y000986D01*
X014766Y001182D01*
X014740Y001246D02*
X004955Y001246D01*
X004947Y001245D02*
X005011Y001255D01*
X005072Y001275D01*
X005130Y001304D01*
X005182Y001342D01*
X005228Y001388D01*
X005266Y001440D01*
X005295Y001498D01*
X005315Y001559D01*
X005325Y001623D01*
X005325Y001625D01*
X004685Y001625D01*
X004685Y001245D01*
X004947Y001245D01*
X005185Y001345D02*
X014725Y001345D01*
X014725Y001443D02*
X005267Y001443D01*
X005309Y001542D02*
X014731Y001542D01*
X014725Y001641D02*
X004685Y001641D01*
X004685Y001625D02*
X004685Y001685D01*
X005325Y001685D01*
X005325Y001687D01*
X005315Y001751D01*
X005295Y001812D01*
X005266Y001870D01*
X005247Y001895D01*
X007366Y001895D01*
X007435Y001826D01*
X007578Y001767D01*
X007732Y001767D01*
X007875Y001826D01*
X007984Y001935D01*
X008044Y002078D01*
X008044Y002232D01*
X019945Y002232D01*
X019945Y002330D02*
X008003Y002330D01*
X007984Y002375D02*
X007964Y002395D01*
X012978Y002395D01*
X013082Y002395D01*
X013177Y002435D01*
X014803Y004060D01*
X015100Y004060D01*
X015375Y004335D01*
X015375Y004725D01*
X015100Y005000D01*
X014710Y005000D01*
X014435Y004725D01*
X014435Y004428D01*
X012922Y002915D01*
X011464Y002915D01*
X011484Y002935D01*
X011544Y003078D01*
X011544Y003232D01*
X011484Y003375D01*
X011375Y003484D01*
X011232Y003544D01*
X011078Y003544D01*
X010935Y003484D01*
X010866Y003415D01*
X008755Y003415D01*
X008802Y003435D01*
X008876Y003508D01*
X010513Y005145D01*
X013000Y005145D01*
X013210Y004935D01*
X013600Y004935D01*
X013875Y005210D01*
X013875Y005600D01*
X013600Y005875D01*
X013210Y005875D01*
X013000Y005665D01*
X010513Y005665D01*
X008040Y008138D01*
X008040Y008430D01*
X008060Y008383D01*
X008133Y008310D01*
X009892Y006551D01*
X009892Y006453D01*
X009951Y006310D01*
X010060Y006201D01*
X010203Y006142D01*
X010357Y006142D01*
X010500Y006201D01*
X010569Y006270D01*
X011625Y006270D01*
X011835Y006060D01*
X012225Y006060D01*
X012500Y006335D01*
X012500Y006725D01*
X012225Y007000D01*
X011835Y007000D01*
X011625Y006790D01*
X010569Y006790D01*
X010500Y006859D01*
X010357Y006919D01*
X010259Y006919D01*
X009118Y008060D01*
X009382Y008060D01*
X009633Y007810D01*
X009728Y007770D01*
X009832Y007770D01*
X010231Y007770D01*
X010185Y007725D01*
X010185Y007335D01*
X010460Y007060D01*
X010117Y007060D01*
X010019Y007159D02*
X010362Y007159D01*
X010460Y007060D02*
X010850Y007060D01*
X011125Y007335D01*
X011125Y007725D01*
X011080Y007770D01*
X011231Y007770D01*
X011185Y007725D01*
X011185Y007335D01*
X011460Y007060D01*
X010850Y007060D01*
X010949Y007159D02*
X011362Y007159D01*
X011460Y007060D02*
X011850Y007060D01*
X012125Y007335D01*
X012125Y007725D01*
X012080Y007770D01*
X012422Y007770D01*
X012770Y007422D01*
X012770Y006935D01*
X012560Y006725D01*
X012560Y006335D01*
X012835Y006060D01*
X013225Y006060D01*
X013500Y006335D01*
X013500Y006725D01*
X013290Y006935D01*
X013290Y007478D01*
X013290Y007582D01*
X013251Y007677D01*
X012751Y008177D01*
X012677Y008251D01*
X012582Y008290D01*
X010705Y008290D01*
X010750Y008335D01*
X010750Y008725D01*
X010475Y009000D01*
X010085Y009000D01*
X009810Y008725D01*
X009810Y008368D01*
X009750Y008428D01*
X009750Y008725D01*
X009540Y008935D01*
X009540Y012478D01*
X009540Y012582D01*
X009501Y012677D01*
X008023Y014155D01*
X008751Y014883D01*
X008790Y014978D01*
X008790Y015082D01*
X008790Y016125D01*
X009000Y016335D01*
X009000Y016725D01*
X008725Y017000D01*
X008335Y017000D01*
X008250Y016915D01*
X008250Y016915D01*
X008250Y017225D01*
X007975Y017500D01*
X007585Y017500D01*
X007310Y017225D01*
X007310Y016835D01*
X007585Y016560D01*
X007975Y016560D01*
X008060Y016646D01*
X008060Y016335D01*
X008270Y016125D01*
X008270Y015138D01*
X007547Y014415D01*
X005464Y014415D01*
X005484Y014435D01*
X005544Y014578D01*
X005544Y014732D01*
X005484Y014875D01*
X005415Y014944D01*
X005415Y016103D01*
X005415Y016207D01*
X005376Y016302D01*
X005375Y016303D01*
X005375Y016600D01*
X005205Y016770D01*
X005606Y016770D01*
X005435Y016600D01*
X005435Y016210D01*
X005710Y015935D01*
X006100Y015935D01*
X006375Y016210D01*
X006375Y016600D01*
X006205Y016770D01*
X006375Y016770D01*
X006585Y016560D01*
X006975Y016560D01*
X007250Y016835D01*
X007250Y017225D01*
X006975Y017500D01*
X006585Y017500D01*
X006375Y017290D01*
X004082Y017290D01*
X003978Y017290D01*
X003883Y017251D01*
X002008Y015376D01*
X001935Y015302D01*
X001895Y015207D01*
X001895Y012707D01*
X001895Y012603D01*
X001935Y012508D01*
X002633Y011810D01*
X002728Y011770D01*
X002832Y011770D01*
X004125Y011770D01*
X004335Y011560D01*
X004725Y011560D01*
X005000Y011835D01*
X005000Y012225D01*
X004830Y012395D01*
X005231Y012395D01*
X005060Y012225D01*
X005060Y011835D01*
X005335Y011560D01*
X005725Y011560D01*
X006000Y011835D01*
X006000Y012225D01*
X005830Y012395D01*
X006547Y012395D01*
X006895Y012047D01*
X006895Y011185D01*
X006685Y010975D01*
X006685Y010618D01*
X006625Y010678D01*
X006625Y010975D01*
X006350Y011250D01*
X005960Y011250D01*
X005685Y010975D01*
X005685Y010585D01*
X005960Y010310D01*
X006257Y010310D01*
X006633Y009935D01*
X006728Y009895D01*
X006832Y009895D01*
X007481Y009895D01*
X007310Y009725D01*
X007310Y009335D01*
X007520Y009125D01*
X007520Y007978D01*
X007560Y007883D01*
X007633Y007810D01*
X010037Y005405D01*
X008547Y003915D01*
X005316Y003915D01*
X005314Y003921D01*
X005181Y004054D01*
X005009Y004125D01*
X004302Y004125D01*
X004129Y004054D01*
X003997Y003921D01*
X003925Y003749D01*
X003925Y003562D01*
X003986Y003415D01*
X003603Y003415D01*
X003508Y003376D01*
X003435Y003302D01*
X003047Y002915D01*
X002316Y002915D01*
X002314Y002921D01*
X002181Y003054D01*
X002009Y003125D01*
X001302Y003125D01*
X001129Y003054D01*
X000997Y002921D01*
X000925Y002749D01*
X000925Y002562D01*
X000997Y002389D01*
X001129Y002257D01*
X001302Y002185D01*
X002009Y002185D01*
X002181Y002257D01*
X002314Y002389D01*
X002316Y002395D01*
X003103Y002395D01*
X003207Y002395D01*
X003302Y002435D01*
X003763Y002895D01*
X003986Y002895D01*
X003925Y002749D01*
X003925Y002562D01*
X003986Y002415D01*
X003603Y002415D01*
X003508Y002376D01*
X003435Y002302D01*
X003047Y001915D01*
X002316Y001915D01*
X002314Y001921D01*
X002181Y002054D01*
X002009Y002125D01*
X001302Y002125D01*
X001129Y002054D01*
X000997Y001921D01*
X000925Y001749D01*
X000925Y001562D01*
X000997Y001389D01*
X001129Y001257D01*
X001302Y001185D01*
X002009Y001185D01*
X002181Y001257D01*
X002314Y001389D01*
X002316Y001395D01*
X003103Y001395D01*
X003207Y001395D01*
X003302Y001435D01*
X003763Y001895D01*
X004063Y001895D01*
X004044Y001870D01*
X004015Y001812D01*
X003995Y001751D01*
X003985Y001687D01*
X003985Y001685D01*
X004625Y001685D01*
X004625Y001625D01*
X004685Y001625D01*
X004625Y001625D02*
X004625Y001245D01*
X004363Y001245D01*
X004299Y001255D01*
X004238Y001275D01*
X004180Y001304D01*
X004128Y001342D01*
X004082Y001388D01*
X004044Y001440D01*
X004015Y001498D01*
X003995Y001559D01*
X003985Y001623D01*
X003985Y001625D01*
X004625Y001625D01*
X004625Y001641D02*
X003508Y001641D01*
X003607Y001739D02*
X003993Y001739D01*
X004028Y001838D02*
X003705Y001838D01*
X003410Y001542D02*
X004001Y001542D01*
X004043Y001443D02*
X003311Y001443D01*
X003155Y001655D02*
X003655Y002155D01*
X007655Y002155D01*
X008044Y002133D02*
X014921Y002133D01*
X014823Y002035D02*
X008026Y002035D01*
X007985Y001936D02*
X014749Y001936D01*
X014725Y001838D02*
X007887Y001838D01*
X008044Y002232D02*
X007984Y002375D01*
X007423Y001838D02*
X005282Y001838D01*
X005317Y001739D02*
X014725Y001739D01*
X014899Y001049D02*
X001161Y001049D01*
X001298Y000951D02*
X015048Y000951D01*
X015422Y000951D02*
X015715Y000951D01*
X016335Y000951D02*
X016628Y000951D01*
X017002Y000951D02*
X017298Y000951D01*
X017924Y000951D02*
X018274Y000951D01*
X018129Y001049D02*
X018071Y001049D01*
X018782Y000951D02*
X019136Y000951D01*
X019270Y000951D02*
X019512Y000951D01*
X019422Y001049D02*
X019649Y001049D01*
X019751Y001148D02*
X019470Y001148D01*
X019476Y001246D02*
X019823Y001246D01*
X019875Y001345D02*
X019444Y001345D01*
X019439Y001443D02*
X019907Y001443D01*
X019936Y001542D02*
X019475Y001542D01*
X019475Y001641D02*
X019944Y001641D01*
X019945Y001739D02*
X019475Y001739D01*
X019475Y001838D02*
X019945Y001838D01*
X019945Y001936D02*
X019455Y001936D01*
X019387Y002035D02*
X019945Y002035D01*
X019945Y002133D02*
X019289Y002133D01*
X019945Y002429D02*
X013163Y002429D01*
X013270Y002527D02*
X019945Y002527D01*
X019945Y002626D02*
X013369Y002626D01*
X013467Y002725D02*
X019945Y002725D01*
X019945Y002823D02*
X013566Y002823D01*
X013664Y002922D02*
X019945Y002922D01*
X019945Y003020D02*
X017560Y003020D01*
X017475Y002935D02*
X017750Y003210D01*
X017750Y003600D01*
X017475Y003875D01*
X017085Y003875D01*
X016810Y003600D01*
X016810Y003210D01*
X017085Y002935D01*
X017475Y002935D01*
X017658Y003119D02*
X019945Y003119D01*
X019945Y003217D02*
X017750Y003217D01*
X017750Y003316D02*
X019945Y003316D01*
X019945Y003414D02*
X017750Y003414D01*
X017750Y003513D02*
X019945Y003513D01*
X019945Y003611D02*
X017738Y003611D01*
X017640Y003710D02*
X019945Y003710D01*
X019945Y003809D02*
X017541Y003809D01*
X017019Y003809D02*
X016541Y003809D01*
X016475Y003875D02*
X016085Y003875D01*
X015810Y003600D01*
X015810Y003210D01*
X016085Y002935D01*
X016475Y002935D01*
X016750Y003210D01*
X016750Y003600D01*
X016475Y003875D01*
X016640Y003710D02*
X016920Y003710D01*
X016822Y003611D02*
X016738Y003611D01*
X016750Y003513D02*
X016810Y003513D01*
X016810Y003414D02*
X016750Y003414D01*
X016750Y003316D02*
X016810Y003316D01*
X016810Y003217D02*
X016750Y003217D01*
X016658Y003119D02*
X016902Y003119D01*
X017000Y003020D02*
X016560Y003020D01*
X016000Y003020D02*
X013763Y003020D01*
X013861Y003119D02*
X015902Y003119D01*
X015810Y003217D02*
X013960Y003217D01*
X014058Y003316D02*
X015810Y003316D01*
X015810Y003414D02*
X014157Y003414D01*
X014256Y003513D02*
X015810Y003513D01*
X015822Y003611D02*
X014354Y003611D01*
X014453Y003710D02*
X015920Y003710D01*
X016019Y003809D02*
X014551Y003809D01*
X014650Y003907D02*
X019945Y003907D01*
X019945Y004006D02*
X014748Y004006D01*
X015144Y004104D02*
X015666Y004104D01*
X015710Y004060D02*
X016100Y004060D01*
X016375Y004335D01*
X016375Y004725D01*
X016100Y005000D01*
X015710Y005000D01*
X015435Y004725D01*
X015435Y004335D01*
X015710Y004060D01*
X015568Y004203D02*
X015242Y004203D01*
X015341Y004301D02*
X015469Y004301D01*
X015435Y004400D02*
X015375Y004400D01*
X015375Y004498D02*
X015435Y004498D01*
X015435Y004597D02*
X015375Y004597D01*
X015375Y004695D02*
X015435Y004695D01*
X015504Y004794D02*
X015306Y004794D01*
X015207Y004892D02*
X015603Y004892D01*
X015701Y004991D02*
X015109Y004991D01*
X014853Y005188D02*
X019945Y005188D01*
X019945Y005090D02*
X014754Y005090D01*
X014701Y004991D02*
X014656Y004991D01*
X014600Y004935D02*
X014875Y005210D01*
X014875Y005600D01*
X014600Y005875D01*
X014210Y005875D01*
X013935Y005600D01*
X013935Y005210D01*
X014210Y004935D01*
X014600Y004935D01*
X014603Y004892D02*
X010260Y004892D01*
X010162Y004794D02*
X014504Y004794D01*
X014435Y004695D02*
X010063Y004695D01*
X009964Y004597D02*
X014435Y004597D01*
X014435Y004498D02*
X009866Y004498D01*
X009767Y004400D02*
X014407Y004400D01*
X014309Y004301D02*
X009669Y004301D01*
X009570Y004203D02*
X014210Y004203D01*
X014111Y004104D02*
X009472Y004104D01*
X009373Y004006D02*
X014013Y004006D01*
X013914Y003907D02*
X009275Y003907D01*
X009176Y003809D02*
X013816Y003809D01*
X013717Y003710D02*
X009078Y003710D01*
X008979Y003611D02*
X013619Y003611D01*
X013520Y003513D02*
X011306Y003513D01*
X011445Y003414D02*
X013422Y003414D01*
X013323Y003316D02*
X011509Y003316D01*
X011544Y003217D02*
X013225Y003217D01*
X013126Y003119D02*
X011544Y003119D01*
X011520Y003020D02*
X013028Y003020D01*
X012929Y002922D02*
X011471Y002922D01*
X011155Y003155D02*
X003655Y003155D01*
X003155Y002655D01*
X001655Y002655D01*
X001286Y003119D02*
X000865Y003119D01*
X000865Y003217D02*
X001224Y003217D01*
X001302Y003185D02*
X001129Y003257D01*
X000997Y003389D01*
X000925Y003562D01*
X000925Y003749D01*
X000997Y003921D01*
X001129Y004054D01*
X001302Y004125D01*
X002009Y004125D01*
X002181Y004054D01*
X002314Y003921D01*
X002385Y003749D01*
X002385Y003562D01*
X002314Y003389D01*
X002181Y003257D01*
X002009Y003185D01*
X001302Y003185D01*
X001095Y003020D02*
X000865Y003020D01*
X000865Y002922D02*
X000997Y002922D01*
X000956Y002823D02*
X000865Y002823D01*
X000865Y002725D02*
X000925Y002725D01*
X000925Y002626D02*
X000865Y002626D01*
X000865Y002527D02*
X000939Y002527D01*
X000980Y002429D02*
X000865Y002429D01*
X000865Y002330D02*
X001055Y002330D01*
X001189Y002232D02*
X000865Y002232D01*
X000865Y002133D02*
X003266Y002133D01*
X003364Y002232D02*
X002121Y002232D01*
X002255Y002330D02*
X003463Y002330D01*
X003288Y002429D02*
X003980Y002429D01*
X003939Y002527D02*
X003395Y002527D01*
X003494Y002626D02*
X003925Y002626D01*
X003925Y002725D02*
X003592Y002725D01*
X003691Y002823D02*
X003956Y002823D01*
X003602Y003414D02*
X002324Y003414D01*
X002365Y003513D02*
X003945Y003513D01*
X003925Y003611D02*
X002385Y003611D01*
X002385Y003710D02*
X003925Y003710D01*
X003950Y003809D02*
X002360Y003809D01*
X002319Y003907D02*
X003991Y003907D01*
X004081Y004006D02*
X002229Y004006D01*
X002059Y004104D02*
X004251Y004104D01*
X004302Y004185D02*
X004129Y004257D01*
X003997Y004389D01*
X003925Y004562D01*
X003925Y004749D01*
X003997Y004921D01*
X004129Y005054D01*
X004302Y005125D01*
X005009Y005125D01*
X005181Y005054D01*
X005314Y004921D01*
X005385Y004749D01*
X005385Y004562D01*
X005314Y004389D01*
X005181Y004257D01*
X005009Y004185D01*
X004302Y004185D01*
X004259Y004203D02*
X002051Y004203D01*
X002009Y004185D02*
X002181Y004257D01*
X002314Y004389D01*
X002385Y004562D01*
X002385Y004749D01*
X002314Y004921D01*
X002181Y005054D01*
X002009Y005125D01*
X001302Y005125D01*
X001129Y005054D01*
X000997Y004921D01*
X000925Y004749D01*
X000925Y004562D01*
X000997Y004389D01*
X001129Y004257D01*
X001302Y004185D01*
X002009Y004185D01*
X002226Y004301D02*
X004084Y004301D01*
X003992Y004400D02*
X002318Y004400D01*
X002359Y004498D02*
X003951Y004498D01*
X003925Y004597D02*
X002385Y004597D01*
X002385Y004695D02*
X003925Y004695D01*
X003944Y004794D02*
X002366Y004794D01*
X002326Y004892D02*
X003985Y004892D01*
X004066Y004991D02*
X002244Y004991D01*
X002094Y005090D02*
X004216Y005090D01*
X005094Y005090D02*
X009722Y005090D01*
X009820Y005188D02*
X000865Y005188D01*
X000865Y005090D02*
X001216Y005090D01*
X001066Y004991D02*
X000865Y004991D01*
X000865Y004892D02*
X000985Y004892D01*
X000944Y004794D02*
X000865Y004794D01*
X000865Y004695D02*
X000925Y004695D01*
X000925Y004597D02*
X000865Y004597D01*
X000865Y004498D02*
X000951Y004498D01*
X000992Y004400D02*
X000865Y004400D01*
X000865Y004301D02*
X001084Y004301D01*
X001259Y004203D02*
X000865Y004203D01*
X000865Y004104D02*
X001251Y004104D01*
X001081Y004006D02*
X000865Y004006D01*
X000865Y003907D02*
X000991Y003907D01*
X000950Y003809D02*
X000865Y003809D01*
X000865Y003710D02*
X000925Y003710D01*
X000925Y003611D02*
X000865Y003611D01*
X000865Y003513D02*
X000945Y003513D01*
X000986Y003414D02*
X000865Y003414D01*
X000865Y003316D02*
X001070Y003316D01*
X002024Y003119D02*
X003251Y003119D01*
X003350Y003217D02*
X002086Y003217D01*
X002240Y003316D02*
X003448Y003316D01*
X003152Y003020D02*
X002215Y003020D01*
X002313Y002922D02*
X003054Y002922D01*
X003167Y002035D02*
X002200Y002035D01*
X002299Y001936D02*
X003069Y001936D01*
X003155Y001655D02*
X001655Y001655D01*
X001154Y001246D02*
X000988Y001246D01*
X000935Y001345D02*
X001041Y001345D01*
X000974Y001443D02*
X000903Y001443D01*
X000874Y001542D02*
X000933Y001542D01*
X000925Y001641D02*
X000866Y001641D01*
X000865Y001739D02*
X000925Y001739D01*
X000962Y001838D02*
X000865Y001838D01*
X000865Y001936D02*
X001011Y001936D01*
X001110Y002035D02*
X000865Y002035D01*
X002156Y001246D02*
X004355Y001246D01*
X004125Y001345D02*
X002270Y001345D01*
X004625Y001345D02*
X004685Y001345D01*
X004685Y001443D02*
X004625Y001443D01*
X004625Y001542D02*
X004685Y001542D01*
X004685Y001246D02*
X004625Y001246D01*
X004655Y002655D02*
X013030Y002655D01*
X014905Y004530D01*
X014155Y004991D02*
X013656Y004991D01*
X013754Y005090D02*
X014056Y005090D01*
X013957Y005188D02*
X013853Y005188D01*
X013875Y005287D02*
X013935Y005287D01*
X013935Y005385D02*
X013875Y005385D01*
X013875Y005484D02*
X013935Y005484D01*
X013935Y005582D02*
X013875Y005582D01*
X013794Y005681D02*
X014016Y005681D01*
X014115Y005779D02*
X013695Y005779D01*
X013405Y005405D02*
X010405Y005405D01*
X008655Y003655D01*
X004655Y003655D01*
X005059Y004104D02*
X008736Y004104D01*
X008638Y004006D02*
X005229Y004006D01*
X005051Y004203D02*
X008835Y004203D01*
X008934Y004301D02*
X005226Y004301D01*
X005318Y004400D02*
X009032Y004400D01*
X009131Y004498D02*
X005359Y004498D01*
X005385Y004597D02*
X009229Y004597D01*
X009328Y004695D02*
X005385Y004695D01*
X005366Y004794D02*
X009426Y004794D01*
X009525Y004892D02*
X005326Y004892D01*
X005244Y004991D02*
X009623Y004991D01*
X009919Y005287D02*
X000865Y005287D01*
X000865Y005385D02*
X010018Y005385D01*
X009959Y005484D02*
X000865Y005484D01*
X000865Y005582D02*
X009860Y005582D01*
X009762Y005681D02*
X000865Y005681D01*
X000865Y005779D02*
X001366Y005779D01*
X001460Y005685D02*
X001185Y005960D01*
X001185Y006350D01*
X001460Y006625D01*
X001850Y006625D01*
X002125Y006350D01*
X002125Y005960D01*
X001850Y005685D01*
X001460Y005685D01*
X001268Y005878D02*
X000865Y005878D01*
X000865Y005976D02*
X001185Y005976D01*
X001185Y006075D02*
X000865Y006075D01*
X000865Y006174D02*
X001185Y006174D01*
X001185Y006272D02*
X000865Y006272D01*
X000865Y006371D02*
X001206Y006371D01*
X001305Y006469D02*
X000865Y006469D01*
X000865Y006568D02*
X001403Y006568D01*
X000865Y006666D02*
X008776Y006666D01*
X008875Y006568D02*
X005907Y006568D01*
X005850Y006625D02*
X005460Y006625D01*
X005185Y006350D01*
X005185Y005960D01*
X005460Y005685D01*
X005850Y005685D01*
X006125Y005960D01*
X006125Y006350D01*
X005850Y006625D01*
X006006Y006469D02*
X008973Y006469D01*
X009072Y006371D02*
X006104Y006371D01*
X006125Y006272D02*
X009170Y006272D01*
X009269Y006174D02*
X006125Y006174D01*
X006125Y006075D02*
X009368Y006075D01*
X009466Y005976D02*
X006125Y005976D01*
X006043Y005878D02*
X009565Y005878D01*
X009663Y005779D02*
X005944Y005779D01*
X005366Y005779D02*
X001944Y005779D01*
X002043Y005878D02*
X005268Y005878D01*
X005185Y005976D02*
X002125Y005976D01*
X002125Y006075D02*
X005185Y006075D01*
X005185Y006174D02*
X002125Y006174D01*
X002125Y006272D02*
X005185Y006272D01*
X005206Y006371D02*
X002104Y006371D01*
X002006Y006469D02*
X005305Y006469D01*
X005403Y006568D02*
X001907Y006568D01*
X001850Y007185D02*
X001460Y007185D01*
X001185Y007460D01*
X001185Y007850D01*
X001460Y008125D01*
X001850Y008125D01*
X002125Y007850D01*
X002125Y007460D01*
X001850Y007185D01*
X001922Y007258D02*
X003473Y007258D01*
X003485Y007245D02*
X003625Y007245D01*
X003625Y007625D01*
X003685Y007625D01*
X003685Y007245D01*
X003825Y007245D01*
X004065Y007485D01*
X004065Y007625D01*
X003685Y007625D01*
X003685Y007685D01*
X004065Y007685D01*
X004065Y007825D01*
X003825Y008065D01*
X003685Y008065D01*
X003685Y007685D01*
X003625Y007685D01*
X003625Y007625D01*
X003245Y007625D01*
X003245Y007485D01*
X003485Y007245D01*
X003625Y007258D02*
X003685Y007258D01*
X003685Y007356D02*
X003625Y007356D01*
X003625Y007455D02*
X003685Y007455D01*
X003685Y007553D02*
X003625Y007553D01*
X003625Y007652D02*
X002125Y007652D01*
X002125Y007750D02*
X003245Y007750D01*
X003245Y007685D02*
X003245Y007825D01*
X003485Y008065D01*
X003625Y008065D01*
X003625Y007685D01*
X003245Y007685D01*
X003245Y007553D02*
X002125Y007553D01*
X002119Y007455D02*
X003276Y007455D01*
X003374Y007356D02*
X002021Y007356D01*
X002125Y007849D02*
X003269Y007849D01*
X003368Y007947D02*
X002028Y007947D01*
X001929Y008046D02*
X003466Y008046D01*
X003625Y008046D02*
X003685Y008046D01*
X003685Y007947D02*
X003625Y007947D01*
X003625Y007849D02*
X003685Y007849D01*
X003685Y007750D02*
X003625Y007750D01*
X003685Y007652D02*
X007791Y007652D01*
X007692Y007750D02*
X004065Y007750D01*
X004041Y007849D02*
X007594Y007849D01*
X007533Y007947D02*
X003943Y007947D01*
X003844Y008046D02*
X007520Y008046D01*
X007520Y008144D02*
X000865Y008144D01*
X000865Y008046D02*
X001381Y008046D01*
X001283Y007947D02*
X000865Y007947D01*
X000865Y007849D02*
X001185Y007849D01*
X001185Y007750D02*
X000865Y007750D01*
X000865Y007652D02*
X001185Y007652D01*
X001185Y007553D02*
X000865Y007553D01*
X000865Y007455D02*
X001191Y007455D01*
X001289Y007356D02*
X000865Y007356D01*
X000865Y007258D02*
X001388Y007258D01*
X000865Y007159D02*
X008284Y007159D01*
X008382Y007060D02*
X000865Y007060D01*
X000865Y006962D02*
X008481Y006962D01*
X008579Y006863D02*
X000865Y006863D01*
X000865Y006765D02*
X008678Y006765D01*
X009019Y007159D02*
X009284Y007159D01*
X009382Y007060D02*
X009117Y007060D01*
X009216Y006962D02*
X009481Y006962D01*
X009579Y006863D02*
X009315Y006863D01*
X009413Y006765D02*
X009678Y006765D01*
X009776Y006666D02*
X009512Y006666D01*
X009610Y006568D02*
X009875Y006568D01*
X009892Y006469D02*
X009709Y006469D01*
X009807Y006371D02*
X009926Y006371D01*
X009906Y006272D02*
X009989Y006272D01*
X010004Y006174D02*
X010126Y006174D01*
X010103Y006075D02*
X011821Y006075D01*
X011722Y006174D02*
X010434Y006174D01*
X010201Y005976D02*
X016825Y005976D01*
X016826Y005970D02*
X016848Y005902D01*
X016880Y005839D01*
X016922Y005782D01*
X016972Y005732D01*
X017029Y005690D01*
X017092Y005658D01*
X017160Y005636D01*
X017215Y005627D01*
X017215Y006325D01*
X016815Y006325D01*
X016815Y006040D01*
X016826Y005970D01*
X016861Y005878D02*
X010300Y005878D01*
X010399Y005779D02*
X013115Y005779D01*
X013016Y005681D02*
X010497Y005681D01*
X010405Y005405D02*
X007780Y008030D01*
X007780Y009530D01*
X007310Y009524D02*
X000865Y009524D01*
X000865Y009425D02*
X007310Y009425D01*
X007319Y009327D02*
X000865Y009327D01*
X000865Y009228D02*
X007417Y009228D01*
X007516Y009130D02*
X000865Y009130D01*
X000865Y009031D02*
X007520Y009031D01*
X007520Y008933D02*
X000865Y008933D01*
X000865Y008834D02*
X007520Y008834D01*
X007520Y008736D02*
X000865Y008736D01*
X000865Y008637D02*
X007520Y008637D01*
X007520Y008539D02*
X000865Y008539D01*
X000865Y008440D02*
X007520Y008440D01*
X007520Y008341D02*
X000865Y008341D01*
X000865Y008243D02*
X007520Y008243D01*
X008040Y008243D02*
X008200Y008243D01*
X008298Y008144D02*
X008040Y008144D01*
X008132Y008046D02*
X008397Y008046D01*
X008495Y007947D02*
X008231Y007947D01*
X008329Y007849D02*
X008594Y007849D01*
X008692Y007750D02*
X008428Y007750D01*
X008526Y007652D02*
X008791Y007652D01*
X008889Y007553D02*
X008625Y007553D01*
X008723Y007455D02*
X008988Y007455D01*
X009086Y007356D02*
X008822Y007356D01*
X008920Y007258D02*
X009185Y007258D01*
X009526Y007652D02*
X010185Y007652D01*
X010185Y007553D02*
X009625Y007553D01*
X009723Y007455D02*
X010185Y007455D01*
X010185Y007356D02*
X009822Y007356D01*
X009920Y007258D02*
X010263Y007258D01*
X010216Y006962D02*
X011797Y006962D01*
X011850Y007060D02*
X012770Y007060D01*
X012770Y006962D02*
X012263Y006962D01*
X012361Y006863D02*
X012699Y006863D01*
X012600Y006765D02*
X012460Y006765D01*
X012500Y006666D02*
X012560Y006666D01*
X012560Y006568D02*
X012500Y006568D01*
X012500Y006469D02*
X012560Y006469D01*
X012560Y006371D02*
X012500Y006371D01*
X012437Y006272D02*
X012623Y006272D01*
X012722Y006174D02*
X012338Y006174D01*
X012240Y006075D02*
X012821Y006075D01*
X013240Y006075D02*
X016815Y006075D01*
X016815Y006174D02*
X013338Y006174D01*
X013437Y006272D02*
X016815Y006272D01*
X016815Y006425D02*
X017215Y006425D01*
X017215Y006325D01*
X017315Y006325D01*
X017315Y005627D01*
X017370Y005636D01*
X017438Y005658D01*
X017501Y005690D01*
X017558Y005732D01*
X017608Y005782D01*
X017650Y005839D01*
X017682Y005902D01*
X017704Y005970D01*
X017715Y006040D01*
X017715Y006325D01*
X017315Y006325D01*
X017315Y006425D01*
X017215Y006425D01*
X017215Y007123D01*
X017160Y007114D01*
X017092Y007092D01*
X017029Y007060D01*
X016972Y007018D01*
X016922Y006968D01*
X016880Y006911D01*
X016848Y006848D01*
X016826Y006780D01*
X016815Y006711D01*
X016815Y006425D01*
X016815Y006469D02*
X013500Y006469D01*
X013500Y006371D02*
X017215Y006371D01*
X017215Y006469D02*
X017315Y006469D01*
X017315Y006425D02*
X017315Y007123D01*
X017370Y007114D01*
X017438Y007092D01*
X017501Y007060D01*
X017558Y007018D01*
X017608Y006968D01*
X017650Y006911D01*
X017682Y006848D01*
X017704Y006780D01*
X017715Y006711D01*
X017715Y006425D01*
X017315Y006425D01*
X017315Y006371D02*
X018535Y006371D01*
X018535Y006469D02*
X017715Y006469D01*
X017715Y006568D02*
X018535Y006568D01*
X018535Y006666D02*
X017715Y006666D01*
X017706Y006765D02*
X018535Y006765D01*
X018535Y006777D02*
X018535Y005974D01*
X018613Y005786D01*
X018756Y005643D01*
X018944Y005565D01*
X019147Y005565D01*
X019334Y005643D01*
X019477Y005786D01*
X019555Y005974D01*
X019555Y006777D01*
X019477Y006964D01*
X019334Y007107D01*
X019147Y007185D01*
X018944Y007185D01*
X018756Y007107D01*
X018613Y006964D01*
X018535Y006777D01*
X018571Y006863D02*
X017674Y006863D01*
X017613Y006962D02*
X018612Y006962D01*
X018709Y007060D02*
X017500Y007060D01*
X017315Y007060D02*
X017215Y007060D01*
X017215Y006962D02*
X017315Y006962D01*
X017315Y006863D02*
X017215Y006863D01*
X017215Y006765D02*
X017315Y006765D01*
X017315Y006666D02*
X017215Y006666D01*
X017215Y006568D02*
X017315Y006568D01*
X017315Y006272D02*
X017215Y006272D01*
X017215Y006174D02*
X017315Y006174D01*
X017315Y006075D02*
X017215Y006075D01*
X017215Y005976D02*
X017315Y005976D01*
X017315Y005878D02*
X017215Y005878D01*
X017215Y005779D02*
X017315Y005779D01*
X017315Y005681D02*
X017215Y005681D01*
X017048Y005681D02*
X014794Y005681D01*
X014875Y005582D02*
X018902Y005582D01*
X018718Y005681D02*
X017482Y005681D01*
X017606Y005779D02*
X018620Y005779D01*
X018575Y005878D02*
X017670Y005878D01*
X017705Y005976D02*
X018535Y005976D01*
X018535Y006075D02*
X017715Y006075D01*
X017715Y006174D02*
X018535Y006174D01*
X018535Y006272D02*
X017715Y006272D01*
X016924Y005779D02*
X014695Y005779D01*
X014875Y005484D02*
X019945Y005484D01*
X019945Y005582D02*
X019188Y005582D01*
X019372Y005681D02*
X019945Y005681D01*
X019945Y005779D02*
X019471Y005779D01*
X019515Y005878D02*
X019945Y005878D01*
X019945Y005976D02*
X019555Y005976D01*
X019555Y006075D02*
X019945Y006075D01*
X019945Y006174D02*
X019555Y006174D01*
X019555Y006272D02*
X019945Y006272D01*
X019945Y006371D02*
X019555Y006371D01*
X019555Y006469D02*
X019945Y006469D01*
X019945Y006568D02*
X019555Y006568D01*
X019555Y006666D02*
X019945Y006666D01*
X019945Y006765D02*
X019555Y006765D01*
X019519Y006863D02*
X019945Y006863D01*
X019945Y006962D02*
X019478Y006962D01*
X019381Y007060D02*
X019945Y007060D01*
X019945Y007159D02*
X019210Y007159D01*
X018881Y007159D02*
X013290Y007159D01*
X013290Y007258D02*
X019945Y007258D01*
X019945Y007356D02*
X013290Y007356D01*
X013290Y007455D02*
X019945Y007455D01*
X019945Y007553D02*
X013290Y007553D01*
X013261Y007652D02*
X019945Y007652D01*
X019945Y007750D02*
X013178Y007750D01*
X013079Y007849D02*
X019945Y007849D01*
X019945Y007947D02*
X012981Y007947D01*
X012882Y008046D02*
X019945Y008046D01*
X019945Y008144D02*
X019193Y008144D01*
X019147Y008125D02*
X019334Y008203D01*
X019477Y008346D01*
X019555Y008534D01*
X019555Y009337D01*
X019477Y009524D01*
X019945Y009524D01*
X019945Y009425D02*
X019518Y009425D01*
X019555Y009327D02*
X019945Y009327D01*
X019945Y009228D02*
X019555Y009228D01*
X019555Y009130D02*
X019945Y009130D01*
X019945Y009031D02*
X019555Y009031D01*
X019555Y008933D02*
X019945Y008933D01*
X019945Y008834D02*
X019555Y008834D01*
X019555Y008736D02*
X019945Y008736D01*
X019945Y008637D02*
X019555Y008637D01*
X019555Y008539D02*
X019945Y008539D01*
X019945Y008440D02*
X019516Y008440D01*
X019473Y008341D02*
X019945Y008341D01*
X019945Y008243D02*
X019374Y008243D01*
X019147Y008125D02*
X018944Y008125D01*
X018756Y008203D01*
X018613Y008346D01*
X018535Y008534D01*
X018535Y009337D01*
X018613Y009524D01*
X017611Y009524D01*
X017608Y009528D02*
X017558Y009578D01*
X017501Y009620D01*
X017438Y009652D01*
X017370Y009674D01*
X017315Y009683D01*
X017315Y008985D01*
X017215Y008985D01*
X017215Y008885D01*
X016815Y008885D01*
X016815Y008600D01*
X016826Y008530D01*
X016848Y008462D01*
X016880Y008399D01*
X016922Y008342D01*
X016972Y008292D01*
X017029Y008250D01*
X017092Y008218D01*
X017160Y008196D01*
X017215Y008187D01*
X017215Y008885D01*
X017315Y008885D01*
X017315Y008187D01*
X017370Y008196D01*
X017438Y008218D01*
X017501Y008250D01*
X017558Y008292D01*
X017608Y008342D01*
X017650Y008399D01*
X017682Y008462D01*
X017704Y008530D01*
X017715Y008600D01*
X017715Y008885D01*
X017315Y008885D01*
X017315Y008985D01*
X017715Y008985D01*
X017715Y009271D01*
X017704Y009340D01*
X017682Y009408D01*
X017650Y009471D01*
X017608Y009528D01*
X017673Y009425D02*
X018572Y009425D01*
X018535Y009327D02*
X017706Y009327D01*
X017715Y009228D02*
X018535Y009228D01*
X018535Y009130D02*
X017715Y009130D01*
X017715Y009031D02*
X018535Y009031D01*
X018535Y008933D02*
X017315Y008933D01*
X017315Y009031D02*
X017215Y009031D01*
X017215Y008985D02*
X017215Y009683D01*
X017160Y009674D01*
X017092Y009652D01*
X017029Y009620D01*
X016972Y009578D01*
X016922Y009528D01*
X016880Y009471D01*
X016848Y009408D01*
X016826Y009340D01*
X016815Y009271D01*
X016815Y008985D01*
X017215Y008985D01*
X017215Y008933D02*
X010542Y008933D01*
X010641Y008834D02*
X016815Y008834D01*
X016815Y008736D02*
X010739Y008736D01*
X010750Y008637D02*
X016815Y008637D01*
X016825Y008539D02*
X010750Y008539D01*
X010750Y008440D02*
X016859Y008440D01*
X016922Y008341D02*
X010750Y008341D01*
X011100Y007750D02*
X011211Y007750D01*
X011185Y007652D02*
X011125Y007652D01*
X011125Y007553D02*
X011185Y007553D01*
X011185Y007455D02*
X011125Y007455D01*
X011125Y007356D02*
X011185Y007356D01*
X011263Y007258D02*
X011047Y007258D01*
X010491Y006863D02*
X011699Y006863D01*
X012030Y006530D02*
X010280Y006530D01*
X008280Y008530D01*
X008280Y009780D01*
X007905Y010155D01*
X006780Y010155D01*
X006155Y010780D01*
X005860Y010411D02*
X000865Y010411D01*
X000865Y010509D02*
X005761Y010509D01*
X005685Y010608D02*
X000865Y010608D01*
X000865Y010707D02*
X005685Y010707D01*
X005685Y010805D02*
X000865Y010805D01*
X000865Y010904D02*
X005685Y010904D01*
X005713Y011002D02*
X000865Y011002D01*
X000865Y011101D02*
X005811Y011101D01*
X005910Y011199D02*
X000865Y011199D01*
X000865Y011298D02*
X006895Y011298D01*
X006895Y011396D02*
X000865Y011396D01*
X000865Y011495D02*
X006895Y011495D01*
X006895Y011593D02*
X005758Y011593D01*
X005857Y011692D02*
X006895Y011692D01*
X006895Y011791D02*
X005955Y011791D01*
X006000Y011889D02*
X006895Y011889D01*
X006895Y011988D02*
X006000Y011988D01*
X006000Y012086D02*
X006856Y012086D01*
X006758Y012185D02*
X006000Y012185D01*
X005942Y012283D02*
X006659Y012283D01*
X006561Y012382D02*
X005843Y012382D01*
X005217Y012382D02*
X004843Y012382D01*
X004942Y012283D02*
X005119Y012283D01*
X005060Y012185D02*
X005000Y012185D01*
X005000Y012086D02*
X005060Y012086D01*
X005060Y011988D02*
X005000Y011988D01*
X005000Y011889D02*
X005060Y011889D01*
X005105Y011791D02*
X004955Y011791D01*
X004857Y011692D02*
X005204Y011692D01*
X005302Y011593D02*
X004758Y011593D01*
X004302Y011593D02*
X000865Y011593D01*
X000865Y011692D02*
X004204Y011692D01*
X004530Y012030D02*
X002780Y012030D01*
X002155Y012655D01*
X002155Y015155D01*
X004030Y017030D01*
X006780Y017030D01*
X007250Y017013D02*
X007310Y017013D01*
X007310Y016915D02*
X007250Y016915D01*
X007231Y016816D02*
X007329Y016816D01*
X007428Y016718D02*
X007132Y016718D01*
X007034Y016619D02*
X007526Y016619D01*
X008034Y016619D02*
X008060Y016619D01*
X008060Y016521D02*
X006375Y016521D01*
X006375Y016422D02*
X008060Y016422D01*
X008072Y016324D02*
X006375Y016324D01*
X006375Y016225D02*
X008171Y016225D01*
X008269Y016126D02*
X006291Y016126D01*
X006193Y016028D02*
X008270Y016028D01*
X008270Y015929D02*
X005415Y015929D01*
X005415Y015831D02*
X008270Y015831D01*
X008270Y015732D02*
X005415Y015732D01*
X005415Y015634D02*
X008270Y015634D01*
X008270Y015535D02*
X005415Y015535D01*
X005415Y015437D02*
X008270Y015437D01*
X008270Y015338D02*
X005415Y015338D01*
X005415Y015240D02*
X008270Y015240D01*
X008270Y015141D02*
X005415Y015141D01*
X005415Y015042D02*
X008175Y015042D01*
X008076Y014944D02*
X005416Y014944D01*
X005497Y014845D02*
X007978Y014845D01*
X007879Y014747D02*
X005538Y014747D01*
X005544Y014648D02*
X007781Y014648D01*
X007682Y014550D02*
X005532Y014550D01*
X005491Y014451D02*
X007584Y014451D01*
X007655Y014155D02*
X009280Y012530D01*
X009280Y008530D01*
X009780Y008030D01*
X012530Y008030D01*
X013030Y007530D01*
X013030Y006530D01*
X013361Y006863D02*
X016856Y006863D01*
X016824Y006765D02*
X013460Y006765D01*
X013500Y006666D02*
X016815Y006666D01*
X016815Y006568D02*
X013500Y006568D01*
X013290Y006962D02*
X016917Y006962D01*
X017030Y007060D02*
X013290Y007060D01*
X012770Y007159D02*
X011949Y007159D01*
X012047Y007258D02*
X012770Y007258D01*
X012770Y007356D02*
X012125Y007356D01*
X012125Y007455D02*
X012738Y007455D01*
X012639Y007553D02*
X012125Y007553D01*
X012125Y007652D02*
X012541Y007652D01*
X012442Y007750D02*
X012100Y007750D01*
X012685Y008243D02*
X017044Y008243D01*
X017215Y008243D02*
X017315Y008243D01*
X017315Y008341D02*
X017215Y008341D01*
X017215Y008440D02*
X017315Y008440D01*
X017315Y008539D02*
X017215Y008539D01*
X017215Y008637D02*
X017315Y008637D01*
X017315Y008736D02*
X017215Y008736D01*
X017215Y008834D02*
X017315Y008834D01*
X017315Y009130D02*
X017215Y009130D01*
X017215Y009228D02*
X017315Y009228D01*
X017315Y009327D02*
X017215Y009327D01*
X017215Y009425D02*
X017315Y009425D01*
X017315Y009524D02*
X017215Y009524D01*
X017215Y009623D02*
X017315Y009623D01*
X017496Y009623D02*
X018711Y009623D01*
X018756Y009667D02*
X018613Y009524D01*
X018756Y009667D02*
X018944Y009745D01*
X019147Y009745D01*
X019334Y009667D01*
X019477Y009524D01*
X019379Y009623D02*
X019945Y009623D01*
X019945Y009721D02*
X019204Y009721D01*
X018886Y009721D02*
X009540Y009721D01*
X009540Y009623D02*
X017034Y009623D01*
X016919Y009524D02*
X009540Y009524D01*
X009540Y009425D02*
X016857Y009425D01*
X016824Y009327D02*
X009540Y009327D01*
X009540Y009228D02*
X016815Y009228D01*
X016815Y009130D02*
X009540Y009130D01*
X009540Y009031D02*
X016815Y009031D01*
X017487Y008243D02*
X018716Y008243D01*
X018617Y008341D02*
X017608Y008341D01*
X017671Y008440D02*
X018574Y008440D01*
X018535Y008539D02*
X017705Y008539D01*
X017715Y008637D02*
X018535Y008637D01*
X018535Y008736D02*
X017715Y008736D01*
X017715Y008834D02*
X018535Y008834D01*
X018897Y008144D02*
X012783Y008144D01*
X010211Y007750D02*
X009428Y007750D01*
X009329Y007849D02*
X009594Y007849D01*
X009495Y007947D02*
X009231Y007947D01*
X009132Y008046D02*
X009397Y008046D01*
X009750Y008440D02*
X009810Y008440D01*
X009810Y008539D02*
X009750Y008539D01*
X009750Y008637D02*
X009810Y008637D01*
X009821Y008736D02*
X009739Y008736D01*
X009641Y008834D02*
X009920Y008834D01*
X010018Y008933D02*
X009542Y008933D01*
X009540Y009820D02*
X019945Y009820D01*
X019945Y009918D02*
X009540Y009918D01*
X009540Y010017D02*
X019945Y010017D01*
X019945Y010115D02*
X009540Y010115D01*
X009540Y010214D02*
X019945Y010214D01*
X019945Y010312D02*
X009540Y010312D01*
X009540Y010411D02*
X019945Y010411D01*
X019945Y010509D02*
X009540Y010509D01*
X009540Y010608D02*
X019945Y010608D01*
X019945Y010707D02*
X009540Y010707D01*
X009540Y010805D02*
X019945Y010805D01*
X019945Y010904D02*
X009540Y010904D01*
X009540Y011002D02*
X019945Y011002D01*
X019945Y011101D02*
X009540Y011101D01*
X009540Y011199D02*
X019945Y011199D01*
X019945Y011298D02*
X009540Y011298D01*
X009540Y011396D02*
X019945Y011396D01*
X019945Y011495D02*
X009540Y011495D01*
X009540Y011593D02*
X019945Y011593D01*
X019945Y011692D02*
X009540Y011692D01*
X009540Y011791D02*
X019945Y011791D01*
X019945Y011889D02*
X009540Y011889D01*
X009540Y011988D02*
X019945Y011988D01*
X019945Y012086D02*
X009540Y012086D01*
X009540Y012185D02*
X019945Y012185D01*
X019945Y012283D02*
X009540Y012283D01*
X009540Y012382D02*
X019945Y012382D01*
X019945Y012480D02*
X009540Y012480D01*
X009540Y012579D02*
X019945Y012579D01*
X019945Y012677D02*
X009500Y012677D01*
X009402Y012776D02*
X019945Y012776D01*
X019945Y012874D02*
X009303Y012874D01*
X009205Y012973D02*
X009788Y012973D01*
X009810Y012951D02*
X009953Y012892D01*
X010107Y012892D01*
X010250Y012951D01*
X010359Y013060D01*
X010419Y013203D01*
X010419Y013357D01*
X010359Y013500D01*
X010290Y013569D01*
X010290Y015000D01*
X010500Y015210D01*
X010500Y015600D01*
X010225Y015875D01*
X009835Y015875D01*
X009560Y015600D01*
X009560Y015210D01*
X009770Y015000D01*
X009770Y013569D01*
X009701Y013500D01*
X009642Y013357D01*
X009642Y013203D01*
X009701Y013060D01*
X009810Y012951D01*
X009696Y013072D02*
X009106Y013072D01*
X009008Y013170D02*
X009655Y013170D01*
X009642Y013269D02*
X008909Y013269D01*
X008811Y013367D02*
X009646Y013367D01*
X009687Y013466D02*
X008712Y013466D01*
X008614Y013564D02*
X009765Y013564D01*
X009770Y013663D02*
X008515Y013663D01*
X008416Y013761D02*
X009770Y013761D01*
X009770Y013860D02*
X008318Y013860D01*
X008219Y013958D02*
X009770Y013958D01*
X009770Y014057D02*
X008121Y014057D01*
X008023Y014156D02*
X009770Y014156D01*
X009770Y014254D02*
X008122Y014254D01*
X008220Y014353D02*
X009770Y014353D01*
X009770Y014451D02*
X008319Y014451D01*
X008417Y014550D02*
X009770Y014550D01*
X009770Y014648D02*
X008516Y014648D01*
X008614Y014747D02*
X009770Y014747D01*
X009770Y014845D02*
X008713Y014845D01*
X008776Y014944D02*
X009770Y014944D01*
X009728Y015042D02*
X008790Y015042D01*
X008790Y015141D02*
X009630Y015141D01*
X009560Y015240D02*
X008790Y015240D01*
X008790Y015338D02*
X009560Y015338D01*
X009560Y015437D02*
X008790Y015437D01*
X008790Y015535D02*
X009560Y015535D01*
X009594Y015634D02*
X008790Y015634D01*
X008790Y015732D02*
X009693Y015732D01*
X009791Y015831D02*
X008790Y015831D01*
X008790Y015929D02*
X019945Y015929D01*
X019945Y015831D02*
X011269Y015831D01*
X011225Y015875D02*
X010835Y015875D01*
X010560Y015600D01*
X010560Y015210D01*
X010835Y014935D01*
X011225Y014935D01*
X011500Y015210D01*
X011500Y015600D01*
X011225Y015875D01*
X011368Y015732D02*
X019945Y015732D01*
X019945Y015634D02*
X011466Y015634D01*
X011500Y015535D02*
X019945Y015535D01*
X019945Y015437D02*
X011500Y015437D01*
X011500Y015338D02*
X019945Y015338D01*
X019945Y015240D02*
X011500Y015240D01*
X011431Y015141D02*
X019945Y015141D01*
X019945Y015042D02*
X011332Y015042D01*
X011234Y014944D02*
X019945Y014944D01*
X019945Y014845D02*
X010290Y014845D01*
X010290Y014747D02*
X019945Y014747D01*
X019945Y014648D02*
X010290Y014648D01*
X010290Y014550D02*
X011385Y014550D01*
X011460Y014625D02*
X011185Y014350D01*
X011185Y013960D01*
X011460Y013685D01*
X011850Y013685D01*
X012125Y013960D01*
X012125Y014350D01*
X011850Y014625D01*
X011460Y014625D01*
X011287Y014451D02*
X010290Y014451D01*
X010290Y014353D02*
X011188Y014353D01*
X011185Y014254D02*
X010290Y014254D01*
X010290Y014156D02*
X011185Y014156D01*
X011185Y014057D02*
X010290Y014057D01*
X010290Y013958D02*
X011187Y013958D01*
X011286Y013860D02*
X010290Y013860D01*
X010290Y013761D02*
X011384Y013761D01*
X011926Y013761D02*
X012384Y013761D01*
X012460Y013685D02*
X012185Y013960D01*
X012185Y014350D01*
X012460Y014625D01*
X012850Y014625D01*
X013125Y014350D01*
X013125Y013960D01*
X012850Y013685D01*
X012460Y013685D01*
X012286Y013860D02*
X012025Y013860D01*
X012123Y013958D02*
X012187Y013958D01*
X012185Y014057D02*
X012125Y014057D01*
X012125Y014156D02*
X012185Y014156D01*
X012185Y014254D02*
X012125Y014254D01*
X012122Y014353D02*
X012188Y014353D01*
X012287Y014451D02*
X012024Y014451D01*
X011925Y014550D02*
X012385Y014550D01*
X012925Y014550D02*
X019945Y014550D01*
X019945Y014451D02*
X013024Y014451D01*
X013122Y014353D02*
X019945Y014353D01*
X019945Y014254D02*
X013125Y014254D01*
X013125Y014156D02*
X019945Y014156D01*
X019945Y014057D02*
X013125Y014057D01*
X013123Y013958D02*
X019945Y013958D01*
X019945Y013860D02*
X013025Y013860D01*
X012926Y013761D02*
X019945Y013761D01*
X019945Y013663D02*
X010290Y013663D01*
X010295Y013564D02*
X019945Y013564D01*
X019945Y013466D02*
X010374Y013466D01*
X010414Y013367D02*
X019945Y013367D01*
X019945Y013269D02*
X010419Y013269D01*
X010405Y013170D02*
X019945Y013170D01*
X019945Y013072D02*
X010364Y013072D01*
X010272Y012973D02*
X019945Y012973D01*
X019945Y016028D02*
X008790Y016028D01*
X008791Y016126D02*
X009269Y016126D01*
X009335Y016060D02*
X009725Y016060D01*
X010000Y016335D01*
X010000Y016725D01*
X009725Y017000D01*
X009335Y017000D01*
X009060Y016725D01*
X009060Y016335D01*
X009335Y016060D01*
X009171Y016225D02*
X008890Y016225D01*
X008988Y016324D02*
X009072Y016324D01*
X009060Y016422D02*
X009000Y016422D01*
X009000Y016521D02*
X009060Y016521D01*
X009060Y016619D02*
X009000Y016619D01*
X009000Y016718D02*
X009060Y016718D01*
X009152Y016816D02*
X008909Y016816D01*
X008810Y016915D02*
X009250Y016915D01*
X009810Y016915D02*
X019945Y016915D01*
X019945Y017013D02*
X008250Y017013D01*
X008250Y017112D02*
X019945Y017112D01*
X019945Y017210D02*
X008250Y017210D01*
X008166Y017309D02*
X019945Y017309D01*
X019945Y017407D02*
X008067Y017407D01*
X007493Y017407D02*
X007067Y017407D01*
X007166Y017309D02*
X007394Y017309D01*
X007310Y017210D02*
X007250Y017210D01*
X007250Y017112D02*
X007310Y017112D01*
X006493Y017407D02*
X000865Y017407D01*
X000865Y017309D02*
X006394Y017309D01*
X006428Y016718D02*
X006257Y016718D01*
X006356Y016619D02*
X006526Y016619D01*
X005553Y016718D02*
X005257Y016718D01*
X005356Y016619D02*
X005455Y016619D01*
X005435Y016521D02*
X005375Y016521D01*
X005375Y016422D02*
X005435Y016422D01*
X005435Y016324D02*
X005375Y016324D01*
X005408Y016225D02*
X005435Y016225D01*
X005415Y016126D02*
X005519Y016126D01*
X005618Y016028D02*
X005415Y016028D01*
X005155Y016155D02*
X004905Y016405D01*
X005155Y016155D02*
X005155Y014655D01*
X004155Y014155D02*
X003405Y013405D01*
X002655Y013155D02*
X002655Y014155D01*
X003655Y015155D01*
X004155Y014155D02*
X007655Y014155D01*
X008530Y015030D01*
X008530Y016530D01*
X009791Y016126D02*
X019945Y016126D01*
X019945Y016225D02*
X009890Y016225D01*
X009988Y016324D02*
X019945Y016324D01*
X019945Y016422D02*
X010000Y016422D01*
X010000Y016521D02*
X019945Y016521D01*
X019945Y016619D02*
X010000Y016619D01*
X010000Y016718D02*
X019945Y016718D01*
X019945Y016816D02*
X009909Y016816D01*
X010269Y015831D02*
X010791Y015831D01*
X010693Y015732D02*
X010368Y015732D01*
X010466Y015634D02*
X010594Y015634D01*
X010560Y015535D02*
X010500Y015535D01*
X010500Y015437D02*
X010560Y015437D01*
X010560Y015338D02*
X010500Y015338D01*
X010500Y015240D02*
X010560Y015240D01*
X010630Y015141D02*
X010431Y015141D01*
X010332Y015042D02*
X010728Y015042D01*
X010827Y014944D02*
X010290Y014944D01*
X010030Y015405D02*
X010030Y013280D01*
X007155Y012155D02*
X007155Y010780D01*
X006811Y011101D02*
X006499Y011101D01*
X006401Y011199D02*
X006895Y011199D01*
X006713Y011002D02*
X006598Y011002D01*
X006625Y010904D02*
X006685Y010904D01*
X006685Y010805D02*
X006625Y010805D01*
X006625Y010707D02*
X006685Y010707D01*
X006354Y010214D02*
X000865Y010214D01*
X000865Y010312D02*
X005958Y010312D01*
X006452Y010115D02*
X000865Y010115D01*
X000865Y010017D02*
X006551Y010017D01*
X006673Y009918D02*
X000865Y009918D01*
X000865Y009820D02*
X007405Y009820D01*
X007310Y009721D02*
X000865Y009721D01*
X000865Y009623D02*
X007310Y009623D01*
X008040Y008341D02*
X008101Y008341D01*
X007889Y007553D02*
X004065Y007553D01*
X004034Y007455D02*
X007988Y007455D01*
X008086Y007356D02*
X003936Y007356D01*
X003837Y007258D02*
X008185Y007258D01*
X010359Y004991D02*
X013155Y004991D01*
X013056Y005090D02*
X010457Y005090D01*
X011004Y003513D02*
X008881Y003513D01*
X008876Y003508D02*
X008876Y003508D01*
X014875Y005287D02*
X019945Y005287D01*
X019945Y005385D02*
X014875Y005385D01*
X016109Y004991D02*
X019945Y004991D01*
X019945Y004892D02*
X016207Y004892D01*
X016306Y004794D02*
X019945Y004794D01*
X019945Y004695D02*
X016375Y004695D01*
X016375Y004597D02*
X019945Y004597D01*
X019945Y004498D02*
X016375Y004498D01*
X016375Y004400D02*
X019945Y004400D01*
X019945Y004301D02*
X016341Y004301D01*
X016242Y004203D02*
X019945Y004203D01*
X019945Y004104D02*
X016144Y004104D01*
X016206Y002133D02*
X016511Y002133D01*
X016413Y002035D02*
X016305Y002035D01*
X015839Y002133D02*
X015549Y002133D01*
X015647Y002035D02*
X015772Y002035D01*
X015753Y001936D02*
X015727Y001936D01*
X017119Y002133D02*
X017291Y002133D01*
X017919Y002133D02*
X018151Y002133D01*
X018053Y002035D02*
X018017Y002035D01*
X018931Y001049D02*
X018990Y001049D01*
X007155Y012155D02*
X006655Y012655D01*
X003155Y012655D01*
X002655Y013155D01*
X001895Y013170D02*
X000865Y013170D01*
X000865Y013072D02*
X001895Y013072D01*
X001895Y012973D02*
X000865Y012973D01*
X000865Y012874D02*
X001895Y012874D01*
X001895Y012776D02*
X000865Y012776D01*
X000865Y012677D02*
X001895Y012677D01*
X001905Y012579D02*
X000865Y012579D01*
X000865Y012480D02*
X001962Y012480D01*
X002061Y012382D02*
X000865Y012382D01*
X000865Y012283D02*
X002159Y012283D01*
X002258Y012185D02*
X000865Y012185D01*
X000865Y012086D02*
X002356Y012086D01*
X002455Y011988D02*
X000865Y011988D01*
X000865Y011889D02*
X002553Y011889D01*
X002679Y011791D02*
X000865Y011791D01*
X000865Y013269D02*
X001895Y013269D01*
X001895Y013367D02*
X000865Y013367D01*
X000865Y013466D02*
X001895Y013466D01*
X001895Y013564D02*
X000865Y013564D01*
X000865Y013663D02*
X001895Y013663D01*
X001895Y013761D02*
X000865Y013761D01*
X000865Y013860D02*
X001895Y013860D01*
X001895Y013958D02*
X000865Y013958D01*
X000865Y014057D02*
X001895Y014057D01*
X001895Y014156D02*
X000865Y014156D01*
X000865Y014254D02*
X001895Y014254D01*
X001895Y014353D02*
X000865Y014353D01*
X000865Y014451D02*
X001895Y014451D01*
X001895Y014550D02*
X000865Y014550D01*
X000865Y014648D02*
X001895Y014648D01*
X001895Y014747D02*
X000865Y014747D01*
X000865Y014845D02*
X001895Y014845D01*
X001895Y014944D02*
X000865Y014944D01*
X000865Y015042D02*
X001895Y015042D01*
X001895Y015141D02*
X000865Y015141D01*
X000865Y015240D02*
X001909Y015240D01*
X001970Y015338D02*
X000865Y015338D01*
X000865Y015437D02*
X002069Y015437D01*
X002167Y015535D02*
X000865Y015535D01*
X000865Y015634D02*
X002266Y015634D01*
X002365Y015732D02*
X000865Y015732D01*
X000865Y015831D02*
X002463Y015831D01*
X002562Y015929D02*
X000865Y015929D01*
X000865Y016028D02*
X002660Y016028D01*
X002759Y016126D02*
X000865Y016126D01*
X000865Y016225D02*
X002857Y016225D01*
X002956Y016324D02*
X000865Y016324D01*
X000865Y016422D02*
X003054Y016422D01*
X003153Y016521D02*
X000865Y016521D01*
X000865Y016619D02*
X003251Y016619D01*
X003350Y016718D02*
X000865Y016718D01*
X000865Y016816D02*
X003449Y016816D01*
X003547Y016915D02*
X000865Y016915D01*
X000865Y017013D02*
X003646Y017013D01*
X003744Y017112D02*
X000865Y017112D01*
X000865Y017210D02*
X003843Y017210D01*
X003234Y017769D02*
X003338Y018019D01*
X003338Y018291D01*
X003234Y018542D01*
X003042Y018734D01*
X002791Y018838D01*
X002519Y018838D01*
X002269Y018734D01*
X002077Y018542D01*
X001973Y018291D01*
X001973Y018019D01*
X002077Y017769D01*
X002269Y017577D01*
X002519Y017473D01*
X002791Y017473D01*
X003042Y017577D01*
X003234Y017769D01*
X003247Y017802D02*
X017563Y017802D01*
X017577Y017769D02*
X017769Y017577D01*
X018019Y017473D01*
X018291Y017473D01*
X018542Y017577D01*
X018734Y017769D01*
X018838Y018019D01*
X018838Y018291D01*
X018734Y018542D01*
X018542Y018734D01*
X018291Y018838D01*
X018019Y018838D01*
X017769Y018734D01*
X017577Y018542D01*
X017473Y018291D01*
X017473Y018019D01*
X017577Y017769D01*
X017642Y017703D02*
X003168Y017703D01*
X003070Y017605D02*
X017741Y017605D01*
X017939Y017506D02*
X002871Y017506D01*
X002439Y017506D02*
X000865Y017506D01*
X000865Y017605D02*
X002241Y017605D01*
X002142Y017703D02*
X000865Y017703D01*
X000865Y017802D02*
X002063Y017802D01*
X002022Y017900D02*
X000865Y017900D01*
X000865Y017999D02*
X001981Y017999D01*
X001973Y018097D02*
X000865Y018097D01*
X000865Y018196D02*
X001973Y018196D01*
X001974Y018294D02*
X000865Y018294D01*
X000865Y018393D02*
X002015Y018393D01*
X002056Y018491D02*
X000865Y018491D01*
X000865Y018590D02*
X002125Y018590D01*
X002223Y018689D02*
X000865Y018689D01*
X000865Y018787D02*
X002398Y018787D01*
X002913Y018787D02*
X006759Y018787D01*
X006697Y018849D02*
X006849Y018697D01*
X007048Y018615D01*
X007263Y018615D01*
X007461Y018697D01*
X007613Y018849D01*
X007695Y019048D01*
X007695Y019263D01*
X007613Y019461D01*
X007461Y019613D01*
X007263Y019695D01*
X007048Y019695D01*
X006849Y019613D01*
X006697Y019461D01*
X006615Y019263D01*
X006615Y019048D01*
X006697Y018849D01*
X006682Y018886D02*
X000865Y018886D01*
X000865Y018984D02*
X006641Y018984D01*
X006615Y019083D02*
X000865Y019083D01*
X000867Y019181D02*
X006615Y019181D01*
X006622Y019280D02*
X000875Y019280D01*
X000907Y019378D02*
X006663Y019378D01*
X006713Y019477D02*
X000939Y019477D01*
X000996Y019575D02*
X006812Y019575D01*
X006997Y019674D02*
X001068Y019674D01*
X001177Y019773D02*
X019633Y019773D01*
X019743Y019674D02*
X011774Y019674D01*
X011760Y019680D02*
X011551Y019680D01*
X011358Y019600D01*
X011210Y019452D01*
X011130Y019260D01*
X011130Y019051D01*
X011210Y018858D01*
X011358Y018710D01*
X011551Y018630D01*
X011760Y018630D01*
X011952Y018710D01*
X012100Y018858D01*
X012180Y019051D01*
X012180Y019260D01*
X012100Y019452D01*
X011952Y019600D01*
X011760Y019680D01*
X011536Y019674D02*
X009274Y019674D01*
X009260Y019680D02*
X009051Y019680D01*
X008858Y019600D01*
X008710Y019452D01*
X008630Y019260D01*
X008630Y019051D01*
X008710Y018858D01*
X008858Y018710D01*
X009051Y018630D01*
X009260Y018630D01*
X009452Y018710D01*
X009600Y018858D01*
X009680Y019051D01*
X009680Y019260D01*
X009600Y019452D01*
X009452Y019600D01*
X009260Y019680D01*
X009036Y019674D02*
X007314Y019674D01*
X007498Y019575D02*
X008833Y019575D01*
X008734Y019477D02*
X007597Y019477D01*
X007647Y019378D02*
X008679Y019378D01*
X008639Y019280D02*
X007688Y019280D01*
X007695Y019181D02*
X008630Y019181D01*
X008630Y019083D02*
X007695Y019083D01*
X007669Y018984D02*
X008658Y018984D01*
X008699Y018886D02*
X007628Y018886D01*
X007551Y018787D02*
X008781Y018787D01*
X008910Y018689D02*
X007440Y018689D01*
X006870Y018689D02*
X003087Y018689D01*
X003185Y018590D02*
X017625Y018590D01*
X017556Y018491D02*
X003254Y018491D01*
X003295Y018393D02*
X017515Y018393D01*
X017474Y018294D02*
X003336Y018294D01*
X003338Y018196D02*
X017473Y018196D01*
X017473Y018097D02*
X003338Y018097D01*
X003329Y017999D02*
X017481Y017999D01*
X017522Y017900D02*
X003288Y017900D01*
X001334Y019871D02*
X019477Y019871D01*
X019814Y019575D02*
X013887Y019575D01*
X013907Y019566D02*
X013839Y019600D01*
X013768Y019623D01*
X013704Y019633D01*
X013704Y019204D01*
X013607Y019204D01*
X013607Y019633D01*
X013543Y019623D01*
X013471Y019600D01*
X013404Y019566D01*
X013342Y019521D01*
X013289Y019468D01*
X013245Y019407D01*
X013210Y019339D01*
X013187Y019268D01*
X013177Y019204D01*
X013606Y019204D01*
X013606Y019107D01*
X013177Y019107D01*
X013187Y019043D01*
X013210Y018971D01*
X013245Y018904D01*
X013289Y018842D01*
X013342Y018789D01*
X013404Y018745D01*
X013471Y018710D01*
X013543Y018687D01*
X013607Y018677D01*
X013607Y019106D01*
X013704Y019106D01*
X013704Y018677D01*
X013768Y018687D01*
X013839Y018710D01*
X013907Y018745D01*
X013968Y018789D01*
X014021Y018842D01*
X014066Y018904D01*
X014100Y018971D01*
X014123Y019043D01*
X014133Y019107D01*
X013704Y019107D01*
X013704Y019204D01*
X014133Y019204D01*
X014123Y019268D01*
X014100Y019339D01*
X014066Y019407D01*
X014021Y019468D01*
X013968Y019521D01*
X013907Y019566D01*
X014012Y019477D02*
X019871Y019477D01*
X019903Y019378D02*
X014080Y019378D01*
X014119Y019280D02*
X019935Y019280D01*
X019943Y019181D02*
X013704Y019181D01*
X013606Y019181D02*
X012180Y019181D01*
X012180Y019083D02*
X013181Y019083D01*
X013206Y018984D02*
X012152Y018984D01*
X012112Y018886D02*
X013258Y018886D01*
X013345Y018787D02*
X012029Y018787D01*
X011900Y018689D02*
X013538Y018689D01*
X013607Y018689D02*
X013704Y018689D01*
X013772Y018689D02*
X017723Y018689D01*
X017898Y018787D02*
X013965Y018787D01*
X014053Y018886D02*
X019945Y018886D01*
X019945Y018984D02*
X014104Y018984D01*
X014130Y019083D02*
X019945Y019083D01*
X019945Y018787D02*
X018413Y018787D01*
X018587Y018689D02*
X019945Y018689D01*
X019945Y018590D02*
X018685Y018590D01*
X018754Y018491D02*
X019945Y018491D01*
X019945Y018393D02*
X018795Y018393D01*
X018836Y018294D02*
X019945Y018294D01*
X019945Y018196D02*
X018838Y018196D01*
X018838Y018097D02*
X019945Y018097D01*
X019945Y017999D02*
X018829Y017999D01*
X018788Y017900D02*
X019945Y017900D01*
X019945Y017802D02*
X018747Y017802D01*
X018668Y017703D02*
X019945Y017703D01*
X019945Y017605D02*
X018570Y017605D01*
X018371Y017506D02*
X019945Y017506D01*
X013704Y018787D02*
X013607Y018787D01*
X013607Y018886D02*
X013704Y018886D01*
X013704Y018984D02*
X013607Y018984D01*
X013607Y019083D02*
X013704Y019083D01*
X013704Y019280D02*
X013607Y019280D01*
X013607Y019378D02*
X013704Y019378D01*
X013704Y019477D02*
X013607Y019477D01*
X013607Y019575D02*
X013704Y019575D01*
X013423Y019575D02*
X011977Y019575D01*
X012076Y019477D02*
X013298Y019477D01*
X013230Y019378D02*
X012131Y019378D01*
X012172Y019280D02*
X013191Y019280D01*
X011410Y018689D02*
X009400Y018689D01*
X009529Y018787D02*
X011281Y018787D01*
X011199Y018886D02*
X009612Y018886D01*
X009652Y018984D02*
X011158Y018984D01*
X011130Y019083D02*
X009680Y019083D01*
X009680Y019181D02*
X011130Y019181D01*
X011139Y019280D02*
X009672Y019280D01*
X009631Y019378D02*
X011179Y019378D01*
X011234Y019477D02*
X009576Y019477D01*
X009477Y019575D02*
X011333Y019575D01*
D17*
X005155Y014655D03*
X010030Y013280D03*
X010280Y006530D03*
X011155Y003155D03*
X007655Y002155D03*
M02*
