G75*
G70*
%OFA0B0*%
%FSLAX24Y24*%
%IPPOS*%
%LPD*%
%AMOC8*
5,1,8,0,0,1.08239X$1,22.5*
%
%ADD10C,0.0000*%
%ADD11C,0.0060*%
%ADD12C,0.0120*%
%ADD13C,0.0050*%
%ADD14C,0.0080*%
D10*
X000559Y001809D02*
X000559Y018994D01*
X000561Y019062D01*
X000566Y019129D01*
X000575Y019196D01*
X000588Y019263D01*
X000605Y019328D01*
X000624Y019393D01*
X000648Y019457D01*
X000675Y019519D01*
X000705Y019580D01*
X000738Y019638D01*
X000774Y019695D01*
X000814Y019750D01*
X000856Y019803D01*
X000902Y019854D01*
X000949Y019901D01*
X001000Y019947D01*
X001053Y019989D01*
X001108Y020029D01*
X001165Y020065D01*
X001223Y020098D01*
X001284Y020128D01*
X001346Y020155D01*
X001410Y020179D01*
X001475Y020198D01*
X001540Y020215D01*
X001607Y020228D01*
X001674Y020237D01*
X001741Y020242D01*
X001809Y020244D01*
X018994Y020244D01*
X019062Y020242D01*
X019129Y020237D01*
X019196Y020228D01*
X019263Y020215D01*
X019328Y020198D01*
X019393Y020179D01*
X019457Y020155D01*
X019519Y020128D01*
X019580Y020098D01*
X019638Y020065D01*
X019695Y020029D01*
X019750Y019989D01*
X019803Y019947D01*
X019854Y019901D01*
X019901Y019854D01*
X019947Y019803D01*
X019989Y019750D01*
X020029Y019695D01*
X020065Y019638D01*
X020098Y019580D01*
X020128Y019519D01*
X020155Y019457D01*
X020179Y019393D01*
X020198Y019328D01*
X020215Y019263D01*
X020228Y019196D01*
X020237Y019129D01*
X020242Y019062D01*
X020244Y018994D01*
X020244Y001809D01*
X020242Y001741D01*
X020237Y001674D01*
X020228Y001607D01*
X020215Y001540D01*
X020198Y001475D01*
X020179Y001410D01*
X020155Y001346D01*
X020128Y001284D01*
X020098Y001223D01*
X020065Y001165D01*
X020029Y001108D01*
X019989Y001053D01*
X019947Y001000D01*
X019901Y000949D01*
X019854Y000902D01*
X019803Y000856D01*
X019750Y000814D01*
X019695Y000774D01*
X019638Y000738D01*
X019580Y000705D01*
X019519Y000675D01*
X019457Y000648D01*
X019393Y000624D01*
X019328Y000605D01*
X019263Y000588D01*
X019196Y000575D01*
X019129Y000566D01*
X019062Y000561D01*
X018994Y000559D01*
X001809Y000559D01*
X001741Y000561D01*
X001674Y000566D01*
X001607Y000575D01*
X001540Y000588D01*
X001475Y000605D01*
X001410Y000624D01*
X001346Y000648D01*
X001284Y000675D01*
X001223Y000705D01*
X001165Y000738D01*
X001108Y000774D01*
X001053Y000814D01*
X001000Y000856D01*
X000949Y000902D01*
X000902Y000949D01*
X000856Y001000D01*
X000814Y001053D01*
X000774Y001108D01*
X000738Y001165D01*
X000705Y001223D01*
X000675Y001284D01*
X000648Y001346D01*
X000624Y001410D01*
X000605Y001475D01*
X000588Y001540D01*
X000575Y001607D01*
X000566Y001674D01*
X000561Y001741D01*
X000559Y001809D01*
X002179Y018151D02*
X002181Y018194D01*
X002187Y018236D01*
X002197Y018278D01*
X002210Y018319D01*
X002227Y018359D01*
X002248Y018396D01*
X002272Y018432D01*
X002299Y018465D01*
X002329Y018496D01*
X002362Y018524D01*
X002397Y018549D01*
X002434Y018570D01*
X002473Y018588D01*
X002513Y018602D01*
X002555Y018613D01*
X002597Y018620D01*
X002640Y018623D01*
X002683Y018622D01*
X002726Y018617D01*
X002768Y018608D01*
X002809Y018596D01*
X002849Y018580D01*
X002887Y018560D01*
X002923Y018537D01*
X002957Y018510D01*
X002989Y018481D01*
X003017Y018449D01*
X003043Y018414D01*
X003065Y018378D01*
X003084Y018339D01*
X003099Y018299D01*
X003111Y018258D01*
X003119Y018215D01*
X003123Y018172D01*
X003123Y018130D01*
X003119Y018087D01*
X003111Y018044D01*
X003099Y018003D01*
X003084Y017963D01*
X003065Y017924D01*
X003043Y017888D01*
X003017Y017853D01*
X002989Y017821D01*
X002957Y017792D01*
X002923Y017765D01*
X002887Y017742D01*
X002849Y017722D01*
X002809Y017706D01*
X002768Y017694D01*
X002726Y017685D01*
X002683Y017680D01*
X002640Y017679D01*
X002597Y017682D01*
X002555Y017689D01*
X002513Y017700D01*
X002473Y017714D01*
X002434Y017732D01*
X002397Y017753D01*
X002362Y017778D01*
X002329Y017806D01*
X002299Y017837D01*
X002272Y017870D01*
X002248Y017906D01*
X002227Y017943D01*
X002210Y017983D01*
X002197Y018024D01*
X002187Y018066D01*
X002181Y018108D01*
X002179Y018151D01*
X017679Y018151D02*
X017681Y018194D01*
X017687Y018236D01*
X017697Y018278D01*
X017710Y018319D01*
X017727Y018359D01*
X017748Y018396D01*
X017772Y018432D01*
X017799Y018465D01*
X017829Y018496D01*
X017862Y018524D01*
X017897Y018549D01*
X017934Y018570D01*
X017973Y018588D01*
X018013Y018602D01*
X018055Y018613D01*
X018097Y018620D01*
X018140Y018623D01*
X018183Y018622D01*
X018226Y018617D01*
X018268Y018608D01*
X018309Y018596D01*
X018349Y018580D01*
X018387Y018560D01*
X018423Y018537D01*
X018457Y018510D01*
X018489Y018481D01*
X018517Y018449D01*
X018543Y018414D01*
X018565Y018378D01*
X018584Y018339D01*
X018599Y018299D01*
X018611Y018258D01*
X018619Y018215D01*
X018623Y018172D01*
X018623Y018130D01*
X018619Y018087D01*
X018611Y018044D01*
X018599Y018003D01*
X018584Y017963D01*
X018565Y017924D01*
X018543Y017888D01*
X018517Y017853D01*
X018489Y017821D01*
X018457Y017792D01*
X018423Y017765D01*
X018387Y017742D01*
X018349Y017722D01*
X018309Y017706D01*
X018268Y017694D01*
X018226Y017685D01*
X018183Y017680D01*
X018140Y017679D01*
X018097Y017682D01*
X018055Y017689D01*
X018013Y017700D01*
X017973Y017714D01*
X017934Y017732D01*
X017897Y017753D01*
X017862Y017778D01*
X017829Y017806D01*
X017799Y017837D01*
X017772Y017870D01*
X017748Y017906D01*
X017727Y017943D01*
X017710Y017983D01*
X017697Y018024D01*
X017687Y018066D01*
X017681Y018108D01*
X017679Y018151D01*
D11*
X017763Y009372D02*
X017763Y009031D01*
X017650Y009031D02*
X017876Y009031D01*
X017650Y009258D02*
X017763Y009372D01*
X017508Y009315D02*
X017451Y009372D01*
X017338Y009372D01*
X017281Y009315D01*
X017281Y009088D01*
X017338Y009031D01*
X017451Y009031D01*
X017508Y009088D01*
X017395Y008672D02*
X017395Y008331D01*
X017508Y008331D02*
X017281Y008331D01*
X017281Y008558D02*
X017395Y008672D01*
X017650Y008615D02*
X017650Y008388D01*
X017876Y008615D01*
X017876Y008388D01*
X017820Y008331D01*
X017706Y008331D01*
X017650Y008388D01*
X017650Y008615D02*
X017706Y008672D01*
X017820Y008672D01*
X017876Y008615D01*
X018018Y008615D02*
X018018Y008388D01*
X018245Y008615D01*
X018245Y008388D01*
X018188Y008331D01*
X018075Y008331D01*
X018018Y008388D01*
X018018Y008615D02*
X018075Y008672D01*
X018188Y008672D01*
X018245Y008615D01*
X018386Y008558D02*
X018386Y008331D01*
X018613Y008331D02*
X018613Y008501D01*
X018556Y008558D01*
X018386Y008558D01*
X018271Y007651D02*
X018751Y007651D01*
X019501Y007151D02*
X019518Y007153D01*
X019535Y007157D01*
X019551Y007164D01*
X019565Y007174D01*
X019578Y007187D01*
X019588Y007201D01*
X019595Y007217D01*
X019599Y007234D01*
X019601Y007251D01*
X019601Y008051D01*
X019599Y008068D01*
X019595Y008085D01*
X019588Y008101D01*
X019578Y008115D01*
X019565Y008128D01*
X019551Y008138D01*
X019535Y008145D01*
X019518Y008149D01*
X019501Y008151D01*
X016801Y008151D01*
X016784Y008149D01*
X016767Y008145D01*
X016751Y008138D01*
X016737Y008128D01*
X016724Y008115D01*
X016714Y008101D01*
X016707Y008085D01*
X016703Y008068D01*
X016701Y008051D01*
X016701Y007251D01*
X016703Y007234D01*
X016707Y007217D01*
X016714Y007201D01*
X016724Y007187D01*
X016737Y007174D01*
X016751Y007164D01*
X016767Y007157D01*
X016784Y007153D01*
X016801Y007151D01*
X019501Y007151D01*
X018021Y007651D02*
X017551Y007651D01*
X017409Y005632D02*
X017409Y005291D01*
X017522Y005291D02*
X017295Y005291D01*
X017154Y005348D02*
X017097Y005291D01*
X016983Y005291D01*
X016927Y005348D01*
X016927Y005575D01*
X016983Y005632D01*
X017097Y005632D01*
X017154Y005575D01*
X017295Y005518D02*
X017409Y005632D01*
X017401Y005151D02*
X016551Y005151D01*
X016551Y001151D01*
X018751Y001151D01*
X018751Y005151D01*
X017901Y005151D01*
X017899Y005121D01*
X017894Y005091D01*
X017885Y005062D01*
X017872Y005035D01*
X017857Y005009D01*
X017838Y004985D01*
X017817Y004964D01*
X017793Y004945D01*
X017767Y004930D01*
X017740Y004917D01*
X017711Y004908D01*
X017681Y004903D01*
X017651Y004901D01*
X017621Y004903D01*
X017591Y004908D01*
X017562Y004917D01*
X017535Y004930D01*
X017509Y004945D01*
X017485Y004964D01*
X017464Y004985D01*
X017445Y005009D01*
X017430Y005035D01*
X017417Y005062D01*
X017408Y005091D01*
X017403Y005121D01*
X017401Y005151D01*
X016795Y005291D02*
X016681Y005291D01*
X016738Y005291D02*
X016738Y005632D01*
X016681Y005632D02*
X016795Y005632D01*
X005271Y018090D02*
X004931Y018090D01*
X004931Y018260D01*
X004988Y018317D01*
X005044Y018317D01*
X005101Y018260D01*
X005101Y018090D01*
X005101Y018260D02*
X005158Y018317D01*
X005215Y018317D01*
X005271Y018260D01*
X005271Y018090D01*
X005271Y018458D02*
X005044Y018458D01*
X004931Y018571D01*
X005044Y018685D01*
X005271Y018685D01*
X005101Y018685D02*
X005101Y018458D01*
X004931Y018826D02*
X004931Y019053D01*
X004931Y018940D02*
X005271Y018940D01*
X005271Y019308D02*
X004931Y019308D01*
X004931Y019195D02*
X004931Y019421D01*
X005044Y019563D02*
X004931Y019676D01*
X005271Y019676D01*
X005271Y019563D02*
X005271Y019790D01*
X002521Y016813D02*
X002181Y017039D01*
X001896Y016983D02*
X001896Y016870D01*
X001840Y016813D01*
X001613Y017040D01*
X001840Y017040D01*
X001896Y016983D01*
X001840Y016813D02*
X001613Y016813D01*
X001556Y016870D01*
X001556Y016983D01*
X001613Y017040D01*
X001840Y016685D02*
X001896Y016685D01*
X001896Y016629D01*
X001840Y016629D01*
X001840Y016685D01*
X001896Y016487D02*
X001896Y016260D01*
X001669Y016487D01*
X001613Y016487D01*
X001556Y016431D01*
X001556Y016317D01*
X001613Y016260D01*
X001726Y015751D02*
X001783Y015751D01*
X001783Y015524D01*
X001840Y015524D02*
X001726Y015524D01*
X001669Y015580D01*
X001669Y015694D01*
X001726Y015751D01*
X001896Y015694D02*
X001896Y015580D01*
X001840Y015524D01*
X001896Y015382D02*
X001726Y015382D01*
X001669Y015326D01*
X001669Y015155D01*
X001896Y015155D01*
X001896Y015014D02*
X001896Y014844D01*
X001840Y014787D01*
X001783Y014844D01*
X001783Y015014D01*
X001726Y015014D02*
X001896Y015014D01*
X001726Y015014D02*
X001669Y014957D01*
X001669Y014844D01*
X001613Y014646D02*
X001556Y014589D01*
X001556Y014476D01*
X001613Y014419D01*
X001840Y014419D01*
X001896Y014476D01*
X001896Y014589D01*
X001840Y014646D01*
X002294Y014659D02*
X002294Y014773D01*
X002351Y014830D01*
X002521Y014830D01*
X002521Y014659D01*
X002465Y014603D01*
X002408Y014659D01*
X002408Y014830D01*
X002351Y014971D02*
X002294Y015028D01*
X002294Y015198D01*
X002408Y015141D02*
X002465Y015198D01*
X002521Y015141D01*
X002521Y014971D01*
X002408Y015028D02*
X002351Y014971D01*
X002408Y015028D02*
X002408Y015141D01*
X002521Y015339D02*
X002294Y015566D01*
X002238Y015566D01*
X002181Y015509D01*
X002181Y015396D01*
X002238Y015339D01*
X002521Y015339D02*
X002521Y015566D01*
X002465Y015708D02*
X002238Y015934D01*
X002465Y015934D01*
X002521Y015878D01*
X002521Y015764D01*
X002465Y015708D01*
X002238Y015708D01*
X002181Y015764D01*
X002181Y015878D01*
X002238Y015934D01*
X002294Y016076D02*
X002181Y016189D01*
X002521Y016189D01*
X002521Y016076D02*
X002521Y016303D01*
X002465Y016444D02*
X002521Y016501D01*
X002521Y016614D01*
X002465Y016671D01*
X002351Y016671D01*
X002294Y016614D01*
X002294Y016558D01*
X002351Y016444D01*
X002181Y016444D01*
X002181Y016671D01*
X002351Y014461D02*
X002521Y014461D01*
X002521Y014348D02*
X002351Y014348D01*
X002294Y014404D01*
X002351Y014461D01*
X002351Y014348D02*
X002294Y014291D01*
X002294Y014234D01*
X002521Y014234D01*
X002521Y014093D02*
X002294Y013866D01*
X002181Y013725D02*
X002521Y013498D01*
X002465Y013356D02*
X002408Y013300D01*
X002408Y013186D01*
X002351Y013129D01*
X002294Y013186D01*
X002294Y013356D01*
X002465Y013356D02*
X002521Y013300D01*
X002521Y013129D01*
X002521Y012997D02*
X002465Y012941D01*
X002238Y012941D01*
X002294Y012884D02*
X002294Y012997D01*
X002294Y012742D02*
X002294Y012572D01*
X002351Y012516D01*
X002465Y012516D01*
X002521Y012572D01*
X002521Y012742D01*
X002408Y012374D02*
X002408Y012147D01*
X002465Y012147D02*
X002351Y012147D01*
X002294Y012204D01*
X002294Y012317D01*
X002351Y012374D01*
X002408Y012374D01*
X002521Y012317D02*
X002521Y012204D01*
X002465Y012147D01*
X002578Y012015D02*
X002294Y012015D01*
X002181Y012015D02*
X002124Y012015D01*
X001896Y012266D02*
X001896Y012379D01*
X001840Y012436D01*
X001840Y012577D02*
X001783Y012634D01*
X001783Y012804D01*
X001726Y012804D02*
X001896Y012804D01*
X001896Y012634D01*
X001840Y012577D01*
X001669Y012634D02*
X001669Y012747D01*
X001726Y012804D01*
X001669Y012946D02*
X001669Y013116D01*
X001726Y013172D01*
X001896Y013172D01*
X001840Y013314D02*
X001726Y013314D01*
X001669Y013371D01*
X001669Y013541D01*
X001556Y013541D02*
X001896Y013541D01*
X001896Y013371D01*
X001840Y013314D01*
X001840Y013682D02*
X001896Y013739D01*
X001896Y013909D01*
X001953Y013909D02*
X002010Y013852D01*
X002010Y013796D01*
X001953Y013909D02*
X001669Y013909D01*
X001669Y013682D02*
X001840Y013682D01*
X002294Y014093D02*
X002521Y013866D01*
X001896Y012946D02*
X001669Y012946D01*
X001613Y012436D02*
X001556Y012379D01*
X001556Y012266D01*
X001613Y012209D01*
X001840Y012209D01*
X001896Y012266D01*
X002351Y011760D02*
X002294Y011704D01*
X002294Y011590D01*
X002351Y011534D01*
X002465Y011534D01*
X002521Y011590D01*
X002521Y011704D01*
X002465Y011760D01*
X002351Y011760D01*
X002635Y011902D02*
X002635Y011959D01*
X002578Y012015D01*
X002294Y011397D02*
X002294Y011340D01*
X002408Y011227D01*
X002521Y011227D02*
X002294Y011227D01*
X002351Y011085D02*
X002465Y011085D01*
X002521Y011028D01*
X002521Y010858D01*
X002635Y010858D02*
X002294Y010858D01*
X002294Y011028D01*
X002351Y011085D01*
X002181Y010717D02*
X002521Y010490D01*
X002521Y010349D02*
X002351Y010349D01*
X002294Y010292D01*
X002294Y010178D01*
X002408Y010178D02*
X002408Y010349D01*
X002521Y010349D02*
X002521Y010178D01*
X002465Y010122D01*
X002408Y010178D01*
X002521Y009980D02*
X002521Y009810D01*
X002465Y009753D01*
X002351Y009753D01*
X002294Y009810D01*
X002294Y009980D01*
X002465Y009626D02*
X002521Y009626D01*
X002521Y009569D01*
X002465Y009569D01*
X002465Y009626D01*
X002465Y009428D02*
X002408Y009371D01*
X002408Y009258D01*
X002351Y009201D01*
X002294Y009258D01*
X002294Y009428D01*
X002465Y009428D02*
X002521Y009371D01*
X002521Y009201D01*
X002465Y009059D02*
X002351Y009059D01*
X002294Y009003D01*
X002294Y008833D01*
X002181Y008833D02*
X002521Y008833D01*
X002521Y009003D01*
X002465Y009059D01*
X002521Y008691D02*
X002351Y008691D01*
X002294Y008634D01*
X002294Y008521D01*
X002408Y008521D02*
X002408Y008691D01*
X002521Y008691D02*
X002521Y008521D01*
X002465Y008464D01*
X002408Y008521D01*
X002521Y008332D02*
X002521Y008219D01*
X002521Y008276D02*
X002181Y008276D01*
X002181Y008219D01*
X002351Y008077D02*
X002351Y007851D01*
X002294Y007709D02*
X002294Y007539D01*
X002351Y007482D01*
X002408Y007539D01*
X002408Y007652D01*
X002465Y007709D01*
X002521Y007652D01*
X002521Y007482D01*
X002521Y007114D02*
X002181Y007341D01*
X002181Y006972D02*
X002521Y006746D01*
X002521Y006618D02*
X002465Y006618D01*
X002465Y006561D01*
X002521Y006561D01*
X002521Y006618D01*
X002351Y006618D02*
X002351Y006561D01*
X002294Y006561D01*
X002294Y006618D01*
X002351Y006618D01*
X002351Y006420D02*
X002465Y006420D01*
X002521Y006363D01*
X002521Y006193D01*
X002635Y006193D02*
X002294Y006193D01*
X002294Y006363D01*
X002351Y006420D01*
X002294Y006061D02*
X002294Y005948D01*
X002238Y006004D02*
X002465Y006004D01*
X002521Y006061D01*
X002521Y005816D02*
X002465Y005759D01*
X002238Y005759D01*
X002294Y005702D02*
X002294Y005816D01*
X002351Y005561D02*
X002521Y005561D01*
X002351Y005561D02*
X002294Y005504D01*
X002294Y005391D01*
X002351Y005334D01*
X002181Y005334D02*
X002521Y005334D01*
X002521Y002901D02*
X002391Y002901D01*
X002361Y002741D01*
X002241Y002691D01*
X002111Y002781D01*
X002021Y002691D01*
X002111Y002561D01*
X002051Y002431D01*
X001901Y002411D01*
X001901Y002281D01*
X002051Y002251D01*
X002101Y002121D01*
X002021Y001991D01*
X002111Y001901D01*
X002231Y001981D01*
X002281Y001951D01*
X002381Y002181D01*
X002351Y002151D02*
X002251Y002001D01*
X002101Y001951D01*
X002051Y002001D01*
X002151Y002151D01*
X002051Y002301D01*
X001951Y002301D01*
X001951Y002401D01*
X002101Y002401D01*
X002151Y002551D01*
X002051Y002701D01*
X002101Y002751D01*
X002251Y002651D01*
X002401Y002751D01*
X002401Y002851D01*
X002501Y002851D01*
X002551Y002701D01*
X002701Y002651D01*
X002801Y002751D01*
X002851Y002701D01*
X002801Y002551D01*
X002851Y002401D01*
X003001Y002401D01*
X002951Y002301D01*
X002801Y002251D01*
X002801Y002101D01*
X002851Y002001D01*
X002801Y001951D01*
X002701Y002001D01*
X002651Y002001D01*
X002601Y002151D01*
X002701Y002351D01*
X002601Y002501D01*
X002451Y002551D01*
X002301Y002501D01*
X002251Y002351D01*
X002301Y002201D01*
X002351Y002151D01*
X002348Y002147D02*
X002148Y002147D01*
X002115Y002205D02*
X002300Y002205D01*
X002280Y002264D02*
X002076Y002264D01*
X001951Y002322D02*
X002261Y002322D01*
X002261Y002381D02*
X001951Y002381D01*
X002114Y002439D02*
X002281Y002439D01*
X002300Y002498D02*
X002133Y002498D01*
X002148Y002556D02*
X002803Y002556D01*
X002811Y002561D02*
X002861Y002441D01*
X003011Y002411D01*
X003011Y002281D01*
X002871Y002251D01*
X002811Y002121D01*
X002901Y001991D01*
X002811Y001901D01*
X002691Y001981D01*
X002631Y001951D01*
X002541Y002181D01*
X002603Y002147D02*
X002801Y002147D01*
X002801Y002205D02*
X002628Y002205D01*
X002657Y002264D02*
X002839Y002264D01*
X002962Y002322D02*
X002687Y002322D01*
X002682Y002381D02*
X002991Y002381D01*
X002839Y002439D02*
X002643Y002439D01*
X002604Y002498D02*
X002819Y002498D01*
X002811Y002561D02*
X002901Y002691D01*
X002811Y002781D01*
X002671Y002691D01*
X002551Y002741D01*
X002521Y002901D01*
X002502Y002849D02*
X002401Y002849D01*
X002401Y002791D02*
X002521Y002791D01*
X002541Y002732D02*
X002372Y002732D01*
X002285Y002674D02*
X002634Y002674D01*
X002724Y002674D02*
X002842Y002674D01*
X002820Y002732D02*
X002782Y002732D01*
X002823Y002615D02*
X002109Y002615D01*
X002070Y002674D02*
X002218Y002674D01*
X002130Y002732D02*
X002082Y002732D01*
X002381Y002181D02*
X002359Y002194D01*
X002339Y002210D01*
X002321Y002229D01*
X002306Y002251D01*
X002295Y002274D01*
X002287Y002299D01*
X002283Y002324D01*
X002282Y002350D01*
X002285Y002376D01*
X002292Y002401D01*
X002303Y002424D01*
X002316Y002446D01*
X002333Y002466D01*
X002352Y002483D01*
X002374Y002498D01*
X002398Y002508D01*
X002422Y002516D01*
X002448Y002520D01*
X002474Y002520D01*
X002500Y002516D01*
X002524Y002508D01*
X002548Y002498D01*
X002570Y002483D01*
X002589Y002466D01*
X002606Y002446D01*
X002619Y002424D01*
X002630Y002401D01*
X002637Y002376D01*
X002640Y002350D01*
X002639Y002324D01*
X002635Y002299D01*
X002627Y002274D01*
X002616Y002251D01*
X002601Y002229D01*
X002583Y002210D01*
X002563Y002194D01*
X002541Y002181D01*
X002622Y002088D02*
X002808Y002088D01*
X002837Y002030D02*
X002642Y002030D01*
X002762Y001971D02*
X002821Y001971D01*
X002309Y002088D02*
X002109Y002088D01*
X002070Y002030D02*
X002270Y002030D01*
X002161Y001971D02*
X002081Y001971D01*
D12*
X018021Y007401D02*
X018021Y007651D01*
X018021Y007901D01*
X018271Y007901D02*
X018271Y007651D01*
X018271Y007401D01*
D13*
X015204Y000559D02*
X015204Y020244D01*
X005598Y020244D01*
X005598Y000559D01*
X015204Y000559D01*
D14*
X007081Y019011D02*
X007081Y019292D01*
X006941Y019151D02*
X007221Y019151D01*
X013441Y019151D02*
X013721Y019151D01*
M02*
