%
M48
M72
T01C0.0197
T02C0.0320
T03C0.0394
T04C0.0400
T05C0.0630
T06C0.0945
%
T01
X5155Y14655
X10030Y13280
X10280Y6530
X11155Y3155
X7655Y2155
T02
X1655Y1655
X4905Y16405
X5905Y16405
X6780Y17030
X7780Y17030
X8530Y16530
X9530Y16530
X10030Y15405
X11030Y15405
X11655Y14155
X12655Y14155
X8780Y9530
X7780Y9530
X7155Y10780
X6155Y10780
X5530Y12030
X4530Y12030
X4405Y13405
X3405Y13405
X3655Y15155
X4655Y15155
X10280Y8530
X10655Y7530
X11655Y7530
X12030Y6530
X13030Y6530
X13405Y5405
X14405Y5405
X14905Y4530
X15905Y4530
X16280Y3405
X17280Y3405
X9280Y8530
X5655Y6155
X4655Y4655
X4655Y3655
X4655Y2655
X4655Y1655
X1655Y2655
X1655Y3655
X1655Y4655
X1655Y6155
X1655Y7655
X3655Y7655
T03
X7155Y19155
X13655Y19155
T04
X17265Y8935
X19045Y8935
X19045Y6375
X17265Y6375
T05
X9155Y19155
X11655Y19155
T06
X2655Y18155
X18155Y18155
M30
