%
M48
M72
T01C0.0197
T02C0.0320
T03C0.0394
T04C0.0400
T05C0.0630
T06C0.1024
%
T01
X8155Y5155
X8655Y4655
X3155Y3155
T02
X1655Y1655
X1655Y2655
X1655Y3655
X1655Y4655
X1655Y6155
X3655Y6155
X4655Y4655
X4655Y3655
X4655Y2655
X4655Y1655
X6905Y6155
X7905Y6155
X9655Y5655
X10655Y5655
X10655Y7655
X9655Y7655
X9405Y9905
X10405Y10155
X11405Y10155
X12405Y10655
X13405Y10655
X10655Y12155
X9655Y12155
X8405Y9905
X7405Y10405
X6405Y10405
X5905Y8155
X6905Y8155
X9655Y3655
X10655Y3655
X19155Y6155
X19155Y10155
T03
X5155Y19155
X15655Y19155
T04
X17265Y4435
X19045Y4435
X19045Y1875
X17265Y1875
T05
X7155Y19155
X13655Y19155
T06
X2655Y18155
X18155Y18155
M30
