%
M48
M72
T01C0.0197
T02C0.0320
T03C0.0400
T04C0.0472
T05C0.1024
%
T01
X12651Y5151
X12151Y4651
X17651Y3151
T02
X19151Y1651
X7401Y10651
X8401Y10651
X9401Y10151
X10401Y10151
X11401Y9901
X12401Y9901
X13401Y10401
X14401Y10401
X13901Y8151
X14901Y8151
X13901Y6151
X12901Y6151
X11151Y5651
X10151Y5651
X10151Y7651
X11151Y7651
X11151Y3651
X10151Y3651
X16151Y3651
X16151Y2651
X16151Y1651
X16151Y4651
X17151Y6151
X19151Y6151
X19151Y4651
X19151Y3651
X19151Y2651
X11151Y12151
X10151Y12151
T03
X1761Y1871
X1761Y4431
X3541Y4431
X3541Y1871
T04
X8161Y19256
X12641Y19256
T05
X2651Y18151
X18151Y18151
M30
