G75*
G70*
%OFA0B0*%
%FSLAX24Y24*%
%IPPOS*%
%LPD*%
%AMOC8*
5,1,8,0,0,1.08239X$1,22.5*
%
%ADD10C,0.0000*%
%ADD11C,0.0060*%
%ADD12C,0.0100*%
%ADD13C,0.0020*%
%ADD14C,0.0080*%
%ADD15R,1.7233X0.0017*%
%ADD16R,1.7433X0.0017*%
%ADD17R,1.7567X0.0017*%
%ADD18R,1.7667X0.0017*%
%ADD19R,1.7767X0.0017*%
%ADD20R,1.7833X0.0017*%
%ADD21R,1.7900X0.0017*%
%ADD22R,0.0334X0.0017*%
%ADD23R,0.0333X0.0017*%
%ADD24R,0.0300X0.0017*%
%ADD25R,0.0250X0.0017*%
%ADD26R,0.0233X0.0017*%
%ADD27R,0.0217X0.0017*%
%ADD28R,0.0200X0.0017*%
%ADD29R,0.0200X0.0017*%
%ADD30R,0.0183X0.0017*%
%ADD31R,0.0184X0.0017*%
%ADD32R,0.0183X0.0017*%
%ADD33R,0.0167X0.0017*%
%ADD34R,0.0166X0.0017*%
%ADD35R,0.0167X0.0017*%
%ADD36R,0.0166X0.0017*%
%ADD37R,0.0150X0.0017*%
%ADD38R,0.0150X0.0017*%
%ADD39R,0.0133X0.0017*%
%ADD40R,0.0134X0.0017*%
%ADD41R,0.0133X0.0017*%
%ADD42R,0.0134X0.0017*%
%ADD43R,0.0117X0.0017*%
%ADD44R,0.0116X0.0017*%
%ADD45R,0.0117X0.0017*%
%ADD46R,0.0116X0.0017*%
%ADD47R,0.0650X0.0017*%
%ADD48R,0.1116X0.0017*%
%ADD49R,0.1433X0.0017*%
%ADD50R,0.1716X0.0017*%
%ADD51R,0.1933X0.0017*%
%ADD52R,0.2133X0.0017*%
%ADD53R,0.2333X0.0017*%
%ADD54R,0.2484X0.0017*%
%ADD55R,0.2650X0.0017*%
%ADD56R,0.0100X0.0017*%
%ADD57R,0.1017X0.0017*%
%ADD58R,0.1016X0.0017*%
%ADD59R,0.0883X0.0017*%
%ADD60R,0.0867X0.0017*%
%ADD61R,0.0783X0.0017*%
%ADD62R,0.0800X0.0017*%
%ADD63R,0.0717X0.0017*%
%ADD64R,0.0733X0.0017*%
%ADD65R,0.0683X0.0017*%
%ADD66R,0.0100X0.0017*%
%ADD67R,0.0650X0.0017*%
%ADD68R,0.0633X0.0017*%
%ADD69R,0.0600X0.0017*%
%ADD70R,0.0583X0.0017*%
%ADD71R,0.0584X0.0017*%
%ADD72R,0.0550X0.0017*%
%ADD73R,0.0567X0.0017*%
%ADD74R,0.0534X0.0017*%
%ADD75R,0.0517X0.0017*%
%ADD76R,0.0500X0.0017*%
%ADD77R,0.0483X0.0017*%
%ADD78R,0.0484X0.0017*%
%ADD79R,0.0467X0.0017*%
%ADD80R,0.0467X0.0017*%
%ADD81R,0.0450X0.0017*%
%ADD82R,0.0450X0.0017*%
%ADD83R,0.0433X0.0017*%
%ADD84R,0.0417X0.0017*%
%ADD85R,0.0433X0.0017*%
%ADD86R,0.0417X0.0017*%
%ADD87R,0.0400X0.0017*%
%ADD88R,0.0400X0.0017*%
%ADD89R,0.0383X0.0017*%
%ADD90R,0.0384X0.0017*%
%ADD91R,0.0367X0.0017*%
%ADD92R,0.0384X0.0017*%
%ADD93R,0.0367X0.0017*%
%ADD94R,0.0366X0.0017*%
%ADD95R,0.0350X0.0017*%
%ADD96R,0.0350X0.0017*%
%ADD97R,0.0334X0.0017*%
%ADD98R,0.0317X0.0017*%
%ADD99R,0.0316X0.0017*%
%ADD100R,0.0317X0.0017*%
%ADD101R,0.0300X0.0017*%
%ADD102R,0.0283X0.0017*%
%ADD103R,0.0284X0.0017*%
%ADD104R,0.0283X0.0017*%
%ADD105R,0.0284X0.0017*%
%ADD106R,0.0267X0.0017*%
%ADD107R,0.0267X0.0017*%
%ADD108R,0.0266X0.0017*%
%ADD109R,0.0250X0.0017*%
%ADD110R,0.0234X0.0017*%
%ADD111R,0.0234X0.0017*%
%ADD112R,0.0233X0.0017*%
%ADD113R,0.0217X0.0017*%
%ADD114R,0.0216X0.0017*%
%ADD115R,0.0216X0.0017*%
%ADD116R,0.0184X0.0017*%
%ADD117R,0.0734X0.0017*%
%ADD118R,0.0850X0.0017*%
%ADD119R,0.0933X0.0017*%
%ADD120R,0.0366X0.0017*%
%ADD121R,0.0383X0.0017*%
%ADD122R,0.0083X0.0017*%
%ADD123R,0.0600X0.0017*%
%ADD124R,0.0767X0.0017*%
%ADD125R,0.0833X0.0017*%
%ADD126R,0.0900X0.0017*%
%ADD127R,0.0950X0.0017*%
%ADD128R,0.0583X0.0017*%
%ADD129R,0.0516X0.0017*%
%ADD130R,0.0333X0.0017*%
%ADD131R,0.0667X0.0017*%
%ADD132R,0.0716X0.0017*%
%ADD133R,0.0416X0.0017*%
%ADD134R,0.0784X0.0017*%
%ADD135R,0.1033X0.0017*%
%ADD136R,0.1217X0.0017*%
%ADD137R,0.1383X0.0017*%
%ADD138R,0.1517X0.0017*%
%ADD139R,0.1650X0.0017*%
%ADD140R,0.1783X0.0017*%
%ADD141R,0.1917X0.0017*%
%ADD142R,0.0783X0.0017*%
%ADD143R,0.0633X0.0017*%
%ADD144R,0.0616X0.0017*%
%ADD145R,0.0566X0.0017*%
%ADD146R,0.0567X0.0017*%
%ADD147R,0.0550X0.0017*%
%ADD148R,0.0533X0.0017*%
%ADD149R,0.0516X0.0017*%
%ADD150R,0.0416X0.0017*%
%ADD151R,0.0634X0.0017*%
%ADD152R,0.0683X0.0017*%
%ADD153R,0.0700X0.0017*%
%ADD154R,0.0700X0.0017*%
%ADD155R,0.0717X0.0017*%
%ADD156R,0.0734X0.0017*%
%ADD157R,0.0750X0.0017*%
%ADD158R,0.0750X0.0017*%
%ADD159R,0.0766X0.0017*%
%ADD160R,0.0800X0.0017*%
%ADD161R,0.0817X0.0017*%
%ADD162R,0.0883X0.0017*%
%ADD163R,0.0266X0.0017*%
%ADD164R,0.0816X0.0017*%
%ADD165R,0.0834X0.0017*%
%ADD166R,0.0834X0.0017*%
%ADD167R,0.0666X0.0017*%
%ADD168R,0.0500X0.0017*%
%ADD169R,0.0517X0.0017*%
%ADD170R,0.0050X0.0017*%
%ADD171R,0.0483X0.0017*%
%ADD172R,0.0084X0.0017*%
%ADD173R,0.0966X0.0017*%
%ADD174R,0.1167X0.0017*%
%ADD175R,0.1316X0.0017*%
%ADD176R,0.0033X0.0017*%
%ADD177R,0.1467X0.0017*%
%ADD178R,0.1617X0.0017*%
%ADD179R,0.1750X0.0017*%
%ADD180R,0.0866X0.0017*%
%ADD181R,0.0733X0.0017*%
%ADD182R,0.0617X0.0017*%
%ADD183R,0.0533X0.0017*%
%ADD184R,0.0534X0.0017*%
%ADD185R,0.0767X0.0017*%
%ADD186R,0.0484X0.0017*%
%ADD187R,0.0466X0.0017*%
%ADD188R,0.0066X0.0017*%
%ADD189R,0.0766X0.0017*%
%ADD190R,0.0817X0.0017*%
%ADD191R,0.0016X0.0017*%
%ADD192R,0.0934X0.0017*%
%ADD193R,0.0983X0.0017*%
%ADD194R,0.1000X0.0017*%
%ADD195R,0.1034X0.0017*%
%ADD196R,0.0716X0.0017*%
%ADD197R,0.1050X0.0017*%
%ADD198R,0.1083X0.0017*%
%ADD199R,0.0816X0.0017*%
%ADD200R,0.1117X0.0017*%
%ADD201R,0.0850X0.0017*%
%ADD202R,0.1150X0.0017*%
%ADD203R,0.1166X0.0017*%
%ADD204R,0.1183X0.0017*%
%ADD205R,0.0984X0.0017*%
%ADD206R,0.1200X0.0017*%
%ADD207R,0.1033X0.0017*%
%ADD208R,0.1250X0.0017*%
%ADD209R,0.1067X0.0017*%
%ADD210R,0.1250X0.0017*%
%ADD211R,0.1100X0.0017*%
%ADD212R,0.1283X0.0017*%
%ADD213R,0.1283X0.0017*%
%ADD214R,0.1150X0.0017*%
%ADD215R,0.1300X0.0017*%
%ADD216R,0.1317X0.0017*%
%ADD217R,0.1184X0.0017*%
%ADD218R,0.1317X0.0017*%
%ADD219R,0.1200X0.0017*%
%ADD220R,0.1334X0.0017*%
%ADD221R,0.1216X0.0017*%
%ADD222R,0.1350X0.0017*%
%ADD223R,0.1350X0.0017*%
%ADD224R,0.1267X0.0017*%
%ADD225R,0.1284X0.0017*%
%ADD226R,0.1366X0.0017*%
%ADD227R,0.1383X0.0017*%
%ADD228R,0.1300X0.0017*%
%ADD229R,0.1333X0.0017*%
%ADD230R,0.1367X0.0017*%
%ADD231R,0.1367X0.0017*%
%ADD232R,0.1384X0.0017*%
%ADD233R,0.1384X0.0017*%
%ADD234R,0.1366X0.0017*%
%ADD235R,0.1334X0.0017*%
%ADD236R,0.1333X0.0017*%
%ADD237R,0.1217X0.0017*%
%ADD238R,0.1316X0.0017*%
%ADD239R,0.1183X0.0017*%
%ADD240R,0.1284X0.0017*%
%ADD241R,0.1117X0.0017*%
%ADD242R,0.1066X0.0017*%
%ADD243R,0.1233X0.0017*%
%ADD244R,0.0983X0.0017*%
%ADD245R,0.1184X0.0017*%
%ADD246R,0.1116X0.0017*%
%ADD247R,0.1084X0.0017*%
%ADD248R,0.0967X0.0017*%
%ADD249R,0.0884X0.0017*%
%ADD250R,0.0017X0.0017*%
%ADD251R,0.2167X0.0017*%
%ADD252R,0.2500X0.0017*%
%ADD253R,0.2766X0.0017*%
%ADD254R,0.3050X0.0017*%
%ADD255R,0.3316X0.0017*%
%ADD256R,0.3550X0.0017*%
%ADD257R,0.3767X0.0017*%
%ADD258R,0.4000X0.0017*%
%ADD259R,0.4217X0.0017*%
%ADD260R,0.4416X0.0017*%
%ADD261R,0.4650X0.0017*%
%ADD262R,0.4867X0.0017*%
%ADD263R,0.5083X0.0017*%
%ADD264R,0.5300X0.0017*%
%ADD265R,0.5516X0.0017*%
%ADD266R,0.5734X0.0017*%
%ADD267R,0.5950X0.0017*%
%ADD268R,0.6283X0.0017*%
%ADD269R,0.6384X0.0017*%
%ADD270R,0.6750X0.0017*%
%ADD271R,0.6834X0.0017*%
%ADD272R,0.6950X0.0017*%
%ADD273R,0.7117X0.0017*%
%ADD274R,0.7300X0.0017*%
%ADD275R,0.7433X0.0017*%
%ADD276R,0.7600X0.0017*%
%ADD277R,0.7717X0.0017*%
%ADD278R,0.7833X0.0017*%
%ADD279R,0.7933X0.0017*%
%ADD280R,0.8016X0.0017*%
%ADD281R,0.8100X0.0017*%
%ADD282R,0.8167X0.0017*%
%ADD283R,0.8217X0.0017*%
%ADD284R,0.8266X0.0017*%
%ADD285R,0.8300X0.0017*%
%ADD286R,0.8334X0.0017*%
%ADD287R,0.8366X0.0017*%
%ADD288R,0.8400X0.0017*%
%ADD289R,0.8434X0.0017*%
%ADD290R,0.8434X0.0017*%
%ADD291R,0.8400X0.0017*%
%ADD292R,0.8366X0.0017*%
%ADD293R,0.8234X0.0017*%
%ADD294R,0.8166X0.0017*%
%ADD295R,0.8134X0.0017*%
%ADD296R,0.8066X0.0017*%
%ADD297R,0.8000X0.0017*%
%ADD298R,0.7934X0.0017*%
%ADD299R,0.7866X0.0017*%
%ADD300R,0.7800X0.0017*%
%ADD301R,0.7700X0.0017*%
%ADD302R,0.7500X0.0017*%
%ADD303R,0.7366X0.0017*%
%ADD304R,0.7234X0.0017*%
%ADD305R,0.7100X0.0017*%
%ADD306R,0.6934X0.0017*%
%ADD307R,0.6700X0.0017*%
%ADD308R,0.6500X0.0017*%
%ADD309R,0.6117X0.0017*%
%ADD310R,0.5683X0.0017*%
%ADD311R,0.5666X0.0017*%
%ADD312R,0.5683X0.0017*%
%ADD313R,0.5700X0.0017*%
%ADD314R,0.5700X0.0017*%
%ADD315R,0.5716X0.0017*%
%ADD316R,0.5716X0.0017*%
%ADD317R,0.5667X0.0017*%
%ADD318R,0.5667X0.0017*%
%ADD319R,0.5650X0.0017*%
%ADD320R,0.5650X0.0017*%
%ADD321R,0.5634X0.0017*%
%ADD322R,0.5617X0.0017*%
%ADD323R,0.5617X0.0017*%
%ADD324R,0.5600X0.0017*%
%ADD325R,0.5600X0.0017*%
%ADD326R,0.5583X0.0017*%
%ADD327R,0.5583X0.0017*%
%ADD328R,0.5566X0.0017*%
%ADD329R,0.5566X0.0017*%
%ADD330R,0.5534X0.0017*%
%ADD331R,0.5534X0.0017*%
%ADD332R,0.5517X0.0017*%
%ADD333R,0.0667X0.0017*%
%ADD334R,0.5500X0.0017*%
%ADD335R,0.5500X0.0017*%
%ADD336R,0.5483X0.0017*%
%ADD337R,0.5483X0.0017*%
%ADD338R,0.5466X0.0017*%
%ADD339R,0.5450X0.0017*%
%ADD340R,0.5450X0.0017*%
%ADD341R,0.5434X0.0017*%
%ADD342R,0.5417X0.0017*%
%ADD343R,0.5417X0.0017*%
%ADD344R,0.5383X0.0017*%
%ADD345R,0.5367X0.0017*%
%ADD346R,0.5350X0.0017*%
%ADD347R,0.5317X0.0017*%
%ADD348R,0.5317X0.0017*%
%ADD349R,0.5283X0.0017*%
%ADD350R,0.5283X0.0017*%
%ADD351R,0.5267X0.0017*%
%ADD352R,0.5250X0.0017*%
%ADD353R,0.5233X0.0017*%
%ADD354R,0.5217X0.0017*%
%ADD355R,0.5200X0.0017*%
%ADD356R,0.5183X0.0017*%
%ADD357R,0.5167X0.0017*%
%ADD358R,0.5133X0.0017*%
%ADD359R,0.5117X0.0017*%
%ADD360R,0.5100X0.0017*%
%ADD361R,0.5083X0.0017*%
%ADD362R,0.5067X0.0017*%
%ADD363R,0.5033X0.0017*%
%ADD364R,0.5017X0.0017*%
%ADD365R,0.5000X0.0017*%
%ADD366R,0.4967X0.0017*%
%ADD367R,0.4950X0.0017*%
%ADD368R,0.4933X0.0017*%
%ADD369R,0.4900X0.0017*%
%ADD370R,0.4883X0.0017*%
%ADD371R,0.4850X0.0017*%
%ADD372R,0.4833X0.0017*%
%ADD373R,0.4800X0.0017*%
%ADD374R,0.4783X0.0017*%
%ADD375R,0.4750X0.0017*%
%ADD376R,0.4717X0.0017*%
%ADD377R,0.4683X0.0017*%
%ADD378R,0.4617X0.0017*%
%ADD379R,0.4583X0.0017*%
%ADD380R,0.4567X0.0017*%
%ADD381R,0.4533X0.0017*%
%ADD382R,0.4500X0.0017*%
%ADD383R,0.4450X0.0017*%
%ADD384R,0.4417X0.0017*%
%ADD385R,0.4383X0.0017*%
%ADD386R,0.4350X0.0017*%
%ADD387R,0.4317X0.0017*%
%ADD388R,0.4283X0.0017*%
%ADD389R,0.4234X0.0017*%
%ADD390R,0.4200X0.0017*%
%ADD391R,0.4150X0.0017*%
%ADD392R,0.4100X0.0017*%
%ADD393R,0.4066X0.0017*%
%ADD394R,0.4034X0.0017*%
%ADD395R,0.3966X0.0017*%
%ADD396R,0.3934X0.0017*%
%ADD397R,0.3866X0.0017*%
%ADD398R,0.3817X0.0017*%
%ADD399R,0.3766X0.0017*%
%ADD400R,0.3717X0.0017*%
%ADD401R,0.3650X0.0017*%
%ADD402R,0.3583X0.0017*%
%ADD403R,0.3533X0.0017*%
%ADD404R,0.3467X0.0017*%
%ADD405R,0.3400X0.0017*%
%ADD406R,0.3333X0.0017*%
%ADD407R,0.3267X0.0017*%
%ADD408R,0.3184X0.0017*%
%ADD409R,0.3116X0.0017*%
%ADD410R,0.3016X0.0017*%
%ADD411R,0.2933X0.0017*%
%ADD412R,0.2850X0.0017*%
%ADD413R,0.2750X0.0017*%
%ADD414R,0.2650X0.0017*%
%ADD415R,0.2550X0.0017*%
%ADD416R,0.2434X0.0017*%
%ADD417R,0.2300X0.0017*%
%ADD418R,0.2166X0.0017*%
%ADD419R,0.2033X0.0017*%
%ADD420R,0.1867X0.0017*%
%ADD421R,0.1684X0.0017*%
%ADD422R,0.1484X0.0017*%
%ADD423R,0.0900X0.0017*%
%ADD424R,1.7900X0.0017*%
%ADD425R,1.7833X0.0017*%
%ADD426R,1.7667X0.0017*%
%ADD427R,1.7600X0.0017*%
%ADD428R,1.7467X0.0017*%
%ADD429R,1.7267X0.0017*%
D10*
X000655Y001655D02*
X000655Y019155D01*
X000657Y019215D01*
X000662Y019276D01*
X000671Y019335D01*
X000684Y019394D01*
X000700Y019453D01*
X000720Y019510D01*
X000743Y019565D01*
X000770Y019620D01*
X000799Y019672D01*
X000832Y019723D01*
X000868Y019772D01*
X000906Y019818D01*
X000948Y019862D01*
X000992Y019904D01*
X001038Y019942D01*
X001087Y019978D01*
X001138Y020011D01*
X001190Y020040D01*
X001245Y020067D01*
X001300Y020090D01*
X001357Y020110D01*
X001416Y020126D01*
X001475Y020139D01*
X001534Y020148D01*
X001595Y020153D01*
X001655Y020155D01*
X019155Y020155D01*
X019215Y020153D01*
X019276Y020148D01*
X019335Y020139D01*
X019394Y020126D01*
X019453Y020110D01*
X019510Y020090D01*
X019565Y020067D01*
X019620Y020040D01*
X019672Y020011D01*
X019723Y019978D01*
X019772Y019942D01*
X019818Y019904D01*
X019862Y019862D01*
X019904Y019818D01*
X019942Y019772D01*
X019978Y019723D01*
X020011Y019672D01*
X020040Y019620D01*
X020067Y019565D01*
X020090Y019510D01*
X020110Y019453D01*
X020126Y019394D01*
X020139Y019335D01*
X020148Y019276D01*
X020153Y019215D01*
X020155Y019155D01*
X020155Y001655D01*
X020153Y001595D01*
X020148Y001534D01*
X020139Y001475D01*
X020126Y001416D01*
X020110Y001357D01*
X020090Y001300D01*
X020067Y001245D01*
X020040Y001190D01*
X020011Y001138D01*
X019978Y001087D01*
X019942Y001038D01*
X019904Y000992D01*
X019862Y000948D01*
X019818Y000906D01*
X019772Y000868D01*
X019723Y000832D01*
X019672Y000799D01*
X019620Y000770D01*
X019565Y000743D01*
X019510Y000720D01*
X019453Y000700D01*
X019394Y000684D01*
X019335Y000671D01*
X019276Y000662D01*
X019215Y000657D01*
X019155Y000655D01*
X001655Y000655D01*
X001595Y000657D01*
X001534Y000662D01*
X001475Y000671D01*
X001416Y000684D01*
X001357Y000700D01*
X001300Y000720D01*
X001245Y000743D01*
X001190Y000770D01*
X001138Y000799D01*
X001087Y000832D01*
X001038Y000868D01*
X000992Y000906D01*
X000948Y000948D01*
X000906Y000992D01*
X000868Y001038D01*
X000832Y001087D01*
X000799Y001138D01*
X000770Y001190D01*
X000743Y001245D01*
X000720Y001300D01*
X000700Y001357D01*
X000684Y001416D01*
X000671Y001475D01*
X000662Y001534D01*
X000657Y001595D01*
X000655Y001655D01*
X002143Y018155D02*
X002145Y018200D01*
X002151Y018244D01*
X002160Y018288D01*
X002174Y018330D01*
X002191Y018371D01*
X002212Y018411D01*
X002236Y018449D01*
X002263Y018484D01*
X002293Y018517D01*
X002326Y018547D01*
X002361Y018574D01*
X002399Y018598D01*
X002439Y018619D01*
X002480Y018636D01*
X002522Y018650D01*
X002566Y018659D01*
X002610Y018665D01*
X002655Y018667D01*
X002700Y018665D01*
X002744Y018659D01*
X002788Y018650D01*
X002830Y018636D01*
X002871Y018619D01*
X002911Y018598D01*
X002949Y018574D01*
X002984Y018547D01*
X003017Y018517D01*
X003047Y018484D01*
X003074Y018449D01*
X003098Y018411D01*
X003119Y018371D01*
X003136Y018330D01*
X003150Y018288D01*
X003159Y018244D01*
X003165Y018200D01*
X003167Y018155D01*
X003165Y018110D01*
X003159Y018066D01*
X003150Y018022D01*
X003136Y017980D01*
X003119Y017939D01*
X003098Y017899D01*
X003074Y017861D01*
X003047Y017826D01*
X003017Y017793D01*
X002984Y017763D01*
X002949Y017736D01*
X002911Y017712D01*
X002871Y017691D01*
X002830Y017674D01*
X002788Y017660D01*
X002744Y017651D01*
X002700Y017645D01*
X002655Y017643D01*
X002610Y017645D01*
X002566Y017651D01*
X002522Y017660D01*
X002480Y017674D01*
X002439Y017691D01*
X002399Y017712D01*
X002361Y017736D01*
X002326Y017763D01*
X002293Y017793D01*
X002263Y017826D01*
X002236Y017861D01*
X002212Y017899D01*
X002191Y017939D01*
X002174Y017980D01*
X002160Y018022D01*
X002151Y018066D01*
X002145Y018110D01*
X002143Y018155D01*
X006840Y019155D02*
X006842Y019190D01*
X006848Y019225D01*
X006858Y019259D01*
X006871Y019292D01*
X006888Y019323D01*
X006909Y019351D01*
X006932Y019378D01*
X006959Y019401D01*
X006987Y019422D01*
X007018Y019439D01*
X007051Y019452D01*
X007085Y019462D01*
X007120Y019468D01*
X007155Y019470D01*
X007190Y019468D01*
X007225Y019462D01*
X007259Y019452D01*
X007292Y019439D01*
X007323Y019422D01*
X007351Y019401D01*
X007378Y019378D01*
X007401Y019351D01*
X007422Y019323D01*
X007439Y019292D01*
X007452Y019259D01*
X007462Y019225D01*
X007468Y019190D01*
X007470Y019155D01*
X007468Y019120D01*
X007462Y019085D01*
X007452Y019051D01*
X007439Y019018D01*
X007422Y018987D01*
X007401Y018959D01*
X007378Y018932D01*
X007351Y018909D01*
X007323Y018888D01*
X007292Y018871D01*
X007259Y018858D01*
X007225Y018848D01*
X007190Y018842D01*
X007155Y018840D01*
X007120Y018842D01*
X007085Y018848D01*
X007051Y018858D01*
X007018Y018871D01*
X006987Y018888D01*
X006959Y018909D01*
X006932Y018932D01*
X006909Y018959D01*
X006888Y018987D01*
X006871Y019018D01*
X006858Y019051D01*
X006848Y019085D01*
X006842Y019120D01*
X006840Y019155D01*
X013340Y019155D02*
X013342Y019190D01*
X013348Y019225D01*
X013358Y019259D01*
X013371Y019292D01*
X013388Y019323D01*
X013409Y019351D01*
X013432Y019378D01*
X013459Y019401D01*
X013487Y019422D01*
X013518Y019439D01*
X013551Y019452D01*
X013585Y019462D01*
X013620Y019468D01*
X013655Y019470D01*
X013690Y019468D01*
X013725Y019462D01*
X013759Y019452D01*
X013792Y019439D01*
X013823Y019422D01*
X013851Y019401D01*
X013878Y019378D01*
X013901Y019351D01*
X013922Y019323D01*
X013939Y019292D01*
X013952Y019259D01*
X013962Y019225D01*
X013968Y019190D01*
X013970Y019155D01*
X013968Y019120D01*
X013962Y019085D01*
X013952Y019051D01*
X013939Y019018D01*
X013922Y018987D01*
X013901Y018959D01*
X013878Y018932D01*
X013851Y018909D01*
X013823Y018888D01*
X013792Y018871D01*
X013759Y018858D01*
X013725Y018848D01*
X013690Y018842D01*
X013655Y018840D01*
X013620Y018842D01*
X013585Y018848D01*
X013551Y018858D01*
X013518Y018871D01*
X013487Y018888D01*
X013459Y018909D01*
X013432Y018932D01*
X013409Y018959D01*
X013388Y018987D01*
X013371Y019018D01*
X013358Y019051D01*
X013348Y019085D01*
X013342Y019120D01*
X013340Y019155D01*
X017643Y018155D02*
X017645Y018200D01*
X017651Y018244D01*
X017660Y018288D01*
X017674Y018330D01*
X017691Y018371D01*
X017712Y018411D01*
X017736Y018449D01*
X017763Y018484D01*
X017793Y018517D01*
X017826Y018547D01*
X017861Y018574D01*
X017899Y018598D01*
X017939Y018619D01*
X017980Y018636D01*
X018022Y018650D01*
X018066Y018659D01*
X018110Y018665D01*
X018155Y018667D01*
X018200Y018665D01*
X018244Y018659D01*
X018288Y018650D01*
X018330Y018636D01*
X018371Y018619D01*
X018411Y018598D01*
X018449Y018574D01*
X018484Y018547D01*
X018517Y018517D01*
X018547Y018484D01*
X018574Y018449D01*
X018598Y018411D01*
X018619Y018371D01*
X018636Y018330D01*
X018650Y018288D01*
X018659Y018244D01*
X018665Y018200D01*
X018667Y018155D01*
X018665Y018110D01*
X018659Y018066D01*
X018650Y018022D01*
X018636Y017980D01*
X018619Y017939D01*
X018598Y017899D01*
X018574Y017861D01*
X018547Y017826D01*
X018517Y017793D01*
X018484Y017763D01*
X018449Y017736D01*
X018411Y017712D01*
X018371Y017691D01*
X018330Y017674D01*
X018288Y017660D01*
X018244Y017651D01*
X018200Y017645D01*
X018155Y017643D01*
X018110Y017645D01*
X018066Y017651D01*
X018022Y017660D01*
X017980Y017674D01*
X017939Y017691D01*
X017899Y017712D01*
X017861Y017736D01*
X017826Y017763D01*
X017793Y017793D01*
X017763Y017826D01*
X017736Y017861D01*
X017712Y017899D01*
X017691Y017939D01*
X017674Y017980D01*
X017660Y018022D01*
X017651Y018066D01*
X017645Y018110D01*
X017643Y018155D01*
D11*
X012403Y012175D02*
X012403Y011835D01*
X012290Y011835D02*
X012517Y011835D01*
X012290Y012062D02*
X012403Y012175D01*
X012149Y012119D02*
X012149Y011892D01*
X012092Y011835D01*
X011922Y011835D01*
X011922Y012175D01*
X012092Y012175D01*
X012149Y012119D01*
X011780Y012175D02*
X011553Y012175D01*
X011553Y011835D01*
X011780Y011835D01*
X011667Y012005D02*
X011553Y012005D01*
X011412Y011835D02*
X011185Y011835D01*
X011185Y012175D01*
X010155Y011555D02*
X010110Y011557D01*
X010064Y011562D01*
X010020Y011570D01*
X009976Y011582D01*
X009933Y011598D01*
X009891Y011616D01*
X009851Y011638D01*
X009813Y011662D01*
X009777Y011689D01*
X009742Y011719D01*
X009711Y011752D01*
X009681Y011787D01*
X010155Y011555D02*
X010200Y011557D01*
X010246Y011562D01*
X010290Y011570D01*
X010334Y011582D01*
X010377Y011598D01*
X010419Y011616D01*
X010459Y011638D01*
X010497Y011662D01*
X010533Y011689D01*
X010568Y011719D01*
X010599Y011752D01*
X010629Y011787D01*
X010155Y012755D02*
X010109Y012753D01*
X010063Y012748D01*
X010017Y012739D01*
X009972Y012727D01*
X009929Y012711D01*
X009887Y012692D01*
X009846Y012669D01*
X009807Y012644D01*
X009771Y012616D01*
X009736Y012585D01*
X009704Y012551D01*
X009675Y012515D01*
X010155Y012755D02*
X010202Y012753D01*
X010250Y012747D01*
X010296Y012738D01*
X010342Y012725D01*
X010386Y012709D01*
X010430Y012689D01*
X010471Y012665D01*
X010510Y012639D01*
X010547Y012609D01*
X010582Y012576D01*
X010614Y012541D01*
X010643Y012504D01*
X012431Y010287D02*
X012461Y010252D01*
X012492Y010219D01*
X012527Y010189D01*
X012563Y010162D01*
X012601Y010138D01*
X012641Y010116D01*
X012683Y010098D01*
X012726Y010082D01*
X012770Y010070D01*
X012814Y010062D01*
X012860Y010057D01*
X012905Y010055D01*
X012950Y010057D01*
X012996Y010062D01*
X013040Y010070D01*
X013084Y010082D01*
X013127Y010098D01*
X013169Y010116D01*
X013209Y010138D01*
X013247Y010162D01*
X013283Y010189D01*
X013318Y010219D01*
X013349Y010252D01*
X013379Y010287D01*
X012905Y011255D02*
X012859Y011253D01*
X012813Y011248D01*
X012767Y011239D01*
X012722Y011227D01*
X012679Y011211D01*
X012637Y011192D01*
X012596Y011169D01*
X012557Y011144D01*
X012521Y011116D01*
X012486Y011085D01*
X012454Y011051D01*
X012425Y011015D01*
X012905Y011255D02*
X012952Y011253D01*
X013000Y011247D01*
X013046Y011238D01*
X013092Y011225D01*
X013136Y011209D01*
X013180Y011189D01*
X013221Y011165D01*
X013260Y011139D01*
X013297Y011109D01*
X013332Y011076D01*
X013364Y011041D01*
X013393Y011004D01*
X013342Y009175D02*
X013172Y009175D01*
X013172Y008835D01*
X013342Y008835D01*
X013399Y008892D01*
X013399Y009119D01*
X013342Y009175D01*
X013540Y009119D02*
X013597Y009175D01*
X013710Y009175D01*
X013767Y009119D01*
X013767Y009062D01*
X013540Y008835D01*
X013767Y008835D01*
X013030Y008835D02*
X012803Y008835D01*
X012803Y009175D01*
X013030Y009175D01*
X012917Y009005D02*
X012803Y009005D01*
X012662Y008835D02*
X012435Y008835D01*
X012435Y009175D01*
X012210Y008925D02*
X012267Y008869D01*
X012267Y008812D01*
X012210Y008755D01*
X012267Y008699D01*
X012267Y008642D01*
X012210Y008585D01*
X012097Y008585D01*
X012040Y008642D01*
X011899Y008642D02*
X011899Y008869D01*
X011842Y008925D01*
X011672Y008925D01*
X011672Y008585D01*
X011842Y008585D01*
X011899Y008642D01*
X012040Y008869D02*
X012097Y008925D01*
X012210Y008925D01*
X012210Y008755D02*
X012153Y008755D01*
X011530Y008585D02*
X011303Y008585D01*
X011303Y008925D01*
X011530Y008925D01*
X011417Y008755D02*
X011303Y008755D01*
X011162Y008585D02*
X010935Y008585D01*
X010935Y008925D01*
X010905Y009555D02*
X010860Y009557D01*
X010814Y009562D01*
X010770Y009570D01*
X010726Y009582D01*
X010683Y009598D01*
X010641Y009616D01*
X010601Y009638D01*
X010563Y009662D01*
X010527Y009689D01*
X010492Y009719D01*
X010461Y009752D01*
X010431Y009787D01*
X010905Y009555D02*
X010950Y009557D01*
X010996Y009562D01*
X011040Y009570D01*
X011084Y009582D01*
X011127Y009598D01*
X011169Y009616D01*
X011209Y009638D01*
X011247Y009662D01*
X011283Y009689D01*
X011318Y009719D01*
X011349Y009752D01*
X011379Y009787D01*
X010905Y010755D02*
X010859Y010753D01*
X010813Y010748D01*
X010767Y010739D01*
X010722Y010727D01*
X010679Y010711D01*
X010637Y010692D01*
X010596Y010669D01*
X010557Y010644D01*
X010521Y010616D01*
X010486Y010585D01*
X010454Y010551D01*
X010425Y010515D01*
X010905Y010755D02*
X010952Y010753D01*
X011000Y010747D01*
X011046Y010738D01*
X011092Y010725D01*
X011136Y010709D01*
X011180Y010689D01*
X011221Y010665D01*
X011260Y010639D01*
X011297Y010609D01*
X011332Y010576D01*
X011364Y010541D01*
X011393Y010504D01*
X009460Y008675D02*
X009290Y008505D01*
X009517Y008505D01*
X009460Y008335D02*
X009460Y008675D01*
X009149Y008619D02*
X009149Y008392D01*
X009092Y008335D01*
X008922Y008335D01*
X008922Y008675D01*
X009092Y008675D01*
X009149Y008619D01*
X008780Y008675D02*
X008553Y008675D01*
X008553Y008335D01*
X008780Y008335D01*
X008667Y008505D02*
X008553Y008505D01*
X008412Y008335D02*
X008185Y008335D01*
X008185Y008675D01*
X007017Y009142D02*
X006960Y009085D01*
X006847Y009085D01*
X006790Y009142D01*
X006790Y009255D02*
X006903Y009312D01*
X006960Y009312D01*
X007017Y009255D01*
X007017Y009142D01*
X006790Y009255D02*
X006790Y009425D01*
X007017Y009425D01*
X006649Y009369D02*
X006649Y009142D01*
X006592Y009085D01*
X006422Y009085D01*
X006422Y009425D01*
X006592Y009425D01*
X006649Y009369D01*
X006280Y009425D02*
X006053Y009425D01*
X006053Y009085D01*
X006280Y009085D01*
X006167Y009255D02*
X006053Y009255D01*
X005912Y009085D02*
X005685Y009085D01*
X005685Y009425D01*
X005931Y007787D02*
X005961Y007752D01*
X005992Y007719D01*
X006027Y007689D01*
X006063Y007662D01*
X006101Y007638D01*
X006141Y007616D01*
X006183Y007598D01*
X006226Y007582D01*
X006270Y007570D01*
X006314Y007562D01*
X006360Y007557D01*
X006405Y007555D01*
X006553Y007175D02*
X006553Y006835D01*
X006780Y006835D01*
X006922Y006835D02*
X007092Y006835D01*
X007149Y006892D01*
X007149Y007119D01*
X007092Y007175D01*
X006922Y007175D01*
X006922Y006835D01*
X006667Y007005D02*
X006553Y007005D01*
X006553Y007175D02*
X006780Y007175D01*
X006412Y006835D02*
X006185Y006835D01*
X006185Y007175D01*
X006405Y007555D02*
X006450Y007557D01*
X006496Y007562D01*
X006540Y007570D01*
X006584Y007582D01*
X006627Y007598D01*
X006669Y007616D01*
X006709Y007638D01*
X006747Y007662D01*
X006783Y007689D01*
X006818Y007719D01*
X006849Y007752D01*
X006879Y007787D01*
X006405Y008755D02*
X006359Y008753D01*
X006313Y008748D01*
X006267Y008739D01*
X006222Y008727D01*
X006179Y008711D01*
X006137Y008692D01*
X006096Y008669D01*
X006057Y008644D01*
X006021Y008616D01*
X005986Y008585D01*
X005954Y008551D01*
X005925Y008515D01*
X006405Y008755D02*
X006452Y008753D01*
X006500Y008747D01*
X006546Y008738D01*
X006592Y008725D01*
X006636Y008709D01*
X006680Y008689D01*
X006721Y008665D01*
X006760Y008639D01*
X006797Y008609D01*
X006832Y008576D01*
X006864Y008541D01*
X006893Y008504D01*
X007517Y007175D02*
X007403Y007119D01*
X007290Y007005D01*
X007460Y007005D01*
X007517Y006949D01*
X007517Y006892D01*
X007460Y006835D01*
X007347Y006835D01*
X007290Y006892D01*
X007290Y007005D01*
X006931Y005787D02*
X006961Y005752D01*
X006992Y005719D01*
X007027Y005689D01*
X007063Y005662D01*
X007101Y005638D01*
X007141Y005616D01*
X007183Y005598D01*
X007226Y005582D01*
X007270Y005570D01*
X007314Y005562D01*
X007360Y005557D01*
X007405Y005555D01*
X007450Y005557D01*
X007496Y005562D01*
X007540Y005570D01*
X007584Y005582D01*
X007627Y005598D01*
X007669Y005616D01*
X007709Y005638D01*
X007747Y005662D01*
X007783Y005689D01*
X007818Y005719D01*
X007849Y005752D01*
X007879Y005787D01*
X007405Y006755D02*
X007359Y006753D01*
X007313Y006748D01*
X007267Y006739D01*
X007222Y006727D01*
X007179Y006711D01*
X007137Y006692D01*
X007096Y006669D01*
X007057Y006644D01*
X007021Y006616D01*
X006986Y006585D01*
X006954Y006551D01*
X006925Y006515D01*
X007405Y006755D02*
X007452Y006753D01*
X007500Y006747D01*
X007546Y006738D01*
X007592Y006725D01*
X007636Y006709D01*
X007680Y006689D01*
X007721Y006665D01*
X007760Y006639D01*
X007797Y006609D01*
X007832Y006576D01*
X007864Y006541D01*
X007893Y006504D01*
X007790Y004925D02*
X008017Y004925D01*
X008017Y004869D01*
X007790Y004642D01*
X007790Y004585D01*
X007649Y004642D02*
X007649Y004869D01*
X007592Y004925D01*
X007422Y004925D01*
X007422Y004585D01*
X007592Y004585D01*
X007649Y004642D01*
X007280Y004585D02*
X007053Y004585D01*
X007053Y004925D01*
X007280Y004925D01*
X007167Y004755D02*
X007053Y004755D01*
X006912Y004585D02*
X006685Y004585D01*
X006685Y004925D01*
X009681Y005287D02*
X009711Y005252D01*
X009742Y005219D01*
X009777Y005189D01*
X009813Y005162D01*
X009851Y005138D01*
X009891Y005116D01*
X009933Y005098D01*
X009976Y005082D01*
X010020Y005070D01*
X010064Y005062D01*
X010110Y005057D01*
X010155Y005055D01*
X010200Y005057D01*
X010246Y005062D01*
X010290Y005070D01*
X010334Y005082D01*
X010377Y005098D01*
X010419Y005116D01*
X010459Y005138D01*
X010497Y005162D01*
X010533Y005189D01*
X010568Y005219D01*
X010599Y005252D01*
X010629Y005287D01*
X011185Y005335D02*
X011185Y005675D01*
X011185Y005335D02*
X011412Y005335D01*
X011553Y005335D02*
X011780Y005335D01*
X011922Y005335D02*
X012092Y005335D01*
X012149Y005392D01*
X012149Y005619D01*
X012092Y005675D01*
X011922Y005675D01*
X011922Y005335D01*
X011667Y005505D02*
X011553Y005505D01*
X011553Y005675D02*
X011553Y005335D01*
X011553Y005675D02*
X011780Y005675D01*
X012290Y005619D02*
X012290Y005562D01*
X012347Y005505D01*
X012517Y005505D01*
X012517Y005392D02*
X012517Y005619D01*
X012460Y005675D01*
X012347Y005675D01*
X012290Y005619D01*
X012290Y005392D02*
X012347Y005335D01*
X012460Y005335D01*
X012517Y005392D01*
X012403Y003675D02*
X012403Y003335D01*
X012290Y003335D02*
X012517Y003335D01*
X012658Y003392D02*
X012885Y003619D01*
X012885Y003392D01*
X012828Y003335D01*
X012715Y003335D01*
X012658Y003392D01*
X012658Y003619D01*
X012715Y003675D01*
X012828Y003675D01*
X012885Y003619D01*
X012403Y003675D02*
X012290Y003562D01*
X012149Y003619D02*
X012149Y003392D01*
X012092Y003335D01*
X011922Y003335D01*
X011922Y003675D01*
X012092Y003675D01*
X012149Y003619D01*
X011780Y003675D02*
X011553Y003675D01*
X011553Y003335D01*
X011780Y003335D01*
X011667Y003505D02*
X011553Y003505D01*
X011412Y003335D02*
X011185Y003335D01*
X011185Y003675D01*
X010155Y003055D02*
X010110Y003057D01*
X010064Y003062D01*
X010020Y003070D01*
X009976Y003082D01*
X009933Y003098D01*
X009891Y003116D01*
X009851Y003138D01*
X009813Y003162D01*
X009777Y003189D01*
X009742Y003219D01*
X009711Y003252D01*
X009681Y003287D01*
X010155Y003055D02*
X010200Y003057D01*
X010246Y003062D01*
X010290Y003070D01*
X010334Y003082D01*
X010377Y003098D01*
X010419Y003116D01*
X010459Y003138D01*
X010497Y003162D01*
X010533Y003189D01*
X010568Y003219D01*
X010599Y003252D01*
X010629Y003287D01*
X010155Y004255D02*
X010109Y004253D01*
X010063Y004248D01*
X010017Y004239D01*
X009972Y004227D01*
X009929Y004211D01*
X009887Y004192D01*
X009846Y004169D01*
X009807Y004144D01*
X009771Y004116D01*
X009736Y004085D01*
X009704Y004051D01*
X009675Y004015D01*
X010155Y004255D02*
X010202Y004253D01*
X010250Y004247D01*
X010296Y004238D01*
X010342Y004225D01*
X010386Y004209D01*
X010430Y004189D01*
X010471Y004165D01*
X010510Y004139D01*
X010547Y004109D01*
X010582Y004076D01*
X010614Y004041D01*
X010643Y004004D01*
X009675Y006015D02*
X009704Y006051D01*
X009736Y006085D01*
X009771Y006116D01*
X009807Y006144D01*
X009846Y006169D01*
X009887Y006192D01*
X009929Y006211D01*
X009972Y006227D01*
X010017Y006239D01*
X010063Y006248D01*
X010109Y006253D01*
X010155Y006255D01*
X010202Y006253D01*
X010250Y006247D01*
X010296Y006238D01*
X010342Y006225D01*
X010386Y006209D01*
X010430Y006189D01*
X010471Y006165D01*
X010510Y006139D01*
X010547Y006109D01*
X010582Y006076D01*
X010614Y006041D01*
X010643Y006004D01*
X011185Y007335D02*
X011412Y007335D01*
X011553Y007335D02*
X011553Y007675D01*
X011780Y007675D01*
X011922Y007675D02*
X011922Y007335D01*
X012092Y007335D01*
X012149Y007392D01*
X012149Y007619D01*
X012092Y007675D01*
X011922Y007675D01*
X011667Y007505D02*
X011553Y007505D01*
X011553Y007335D02*
X011780Y007335D01*
X012290Y007392D02*
X012290Y007449D01*
X012347Y007505D01*
X012460Y007505D01*
X012517Y007449D01*
X012517Y007392D01*
X012460Y007335D01*
X012347Y007335D01*
X012290Y007392D01*
X012347Y007505D02*
X012290Y007562D01*
X012290Y007619D01*
X012347Y007675D01*
X012460Y007675D01*
X012517Y007619D01*
X012517Y007562D01*
X012460Y007505D01*
X011185Y007675D02*
X011185Y007335D01*
X010155Y007055D02*
X010110Y007057D01*
X010064Y007062D01*
X010020Y007070D01*
X009976Y007082D01*
X009933Y007098D01*
X009891Y007116D01*
X009851Y007138D01*
X009813Y007162D01*
X009777Y007189D01*
X009742Y007219D01*
X009711Y007252D01*
X009681Y007287D01*
X010155Y007055D02*
X010200Y007057D01*
X010246Y007062D01*
X010290Y007070D01*
X010334Y007082D01*
X010377Y007098D01*
X010419Y007116D01*
X010459Y007138D01*
X010497Y007162D01*
X010533Y007189D01*
X010568Y007219D01*
X010599Y007252D01*
X010629Y007287D01*
X010155Y008255D02*
X010109Y008253D01*
X010063Y008248D01*
X010017Y008239D01*
X009972Y008227D01*
X009929Y008211D01*
X009887Y008192D01*
X009846Y008169D01*
X009807Y008144D01*
X009771Y008116D01*
X009736Y008085D01*
X009704Y008051D01*
X009675Y008015D01*
X010155Y008255D02*
X010202Y008253D01*
X010250Y008247D01*
X010296Y008238D01*
X010342Y008225D01*
X010386Y008209D01*
X010430Y008189D01*
X010471Y008165D01*
X010510Y008139D01*
X010547Y008109D01*
X010582Y008076D01*
X010614Y008041D01*
X010643Y008004D01*
X008905Y009305D02*
X008860Y009307D01*
X008814Y009312D01*
X008770Y009320D01*
X008726Y009332D01*
X008683Y009348D01*
X008641Y009366D01*
X008601Y009388D01*
X008563Y009412D01*
X008527Y009439D01*
X008492Y009469D01*
X008461Y009502D01*
X008431Y009537D01*
X008905Y009305D02*
X008950Y009307D01*
X008996Y009312D01*
X009040Y009320D01*
X009084Y009332D01*
X009127Y009348D01*
X009169Y009366D01*
X009209Y009388D01*
X009247Y009412D01*
X009283Y009439D01*
X009318Y009469D01*
X009349Y009502D01*
X009379Y009537D01*
X008905Y010505D02*
X008859Y010503D01*
X008813Y010498D01*
X008767Y010489D01*
X008722Y010477D01*
X008679Y010461D01*
X008637Y010442D01*
X008596Y010419D01*
X008557Y010394D01*
X008521Y010366D01*
X008486Y010335D01*
X008454Y010301D01*
X008425Y010265D01*
X008905Y010505D02*
X008952Y010503D01*
X009000Y010497D01*
X009046Y010488D01*
X009092Y010475D01*
X009136Y010459D01*
X009180Y010439D01*
X009221Y010415D01*
X009260Y010389D01*
X009297Y010359D01*
X009332Y010326D01*
X009364Y010291D01*
X009393Y010254D01*
X006905Y009805D02*
X006860Y009807D01*
X006814Y009812D01*
X006770Y009820D01*
X006726Y009832D01*
X006683Y009848D01*
X006641Y009866D01*
X006601Y009888D01*
X006563Y009912D01*
X006527Y009939D01*
X006492Y009969D01*
X006461Y010002D01*
X006431Y010037D01*
X006905Y009805D02*
X006950Y009807D01*
X006996Y009812D01*
X007040Y009820D01*
X007084Y009832D01*
X007127Y009848D01*
X007169Y009866D01*
X007209Y009888D01*
X007247Y009912D01*
X007283Y009939D01*
X007318Y009969D01*
X007349Y010002D01*
X007379Y010037D01*
X006905Y011005D02*
X006859Y011003D01*
X006813Y010998D01*
X006767Y010989D01*
X006722Y010977D01*
X006679Y010961D01*
X006637Y010942D01*
X006596Y010919D01*
X006557Y010894D01*
X006521Y010866D01*
X006486Y010835D01*
X006454Y010801D01*
X006425Y010765D01*
X006905Y011005D02*
X006952Y011003D01*
X007000Y010997D01*
X007046Y010988D01*
X007092Y010975D01*
X007136Y010959D01*
X007180Y010939D01*
X007221Y010915D01*
X007260Y010889D01*
X007297Y010859D01*
X007332Y010826D01*
X007364Y010791D01*
X007393Y010754D01*
X016335Y002467D02*
X016675Y002467D01*
X016675Y002580D02*
X016675Y002353D01*
X016618Y002212D02*
X016675Y002155D01*
X016675Y002042D01*
X016618Y001985D01*
X016505Y002042D02*
X016505Y002155D01*
X016562Y002212D01*
X016618Y002212D01*
X016505Y002042D02*
X016448Y001985D01*
X016392Y001985D01*
X016335Y002042D01*
X016335Y002155D01*
X016392Y002212D01*
X016448Y002353D02*
X016335Y002467D01*
X016955Y002305D02*
X016955Y002655D01*
X016955Y003655D01*
X016955Y004005D01*
X017755Y004355D02*
X017855Y004355D01*
X017855Y004455D01*
X018455Y004455D01*
X018455Y004355D01*
X018555Y004355D01*
X019355Y004005D02*
X019355Y003605D01*
X019355Y002655D01*
X019355Y002305D01*
X018555Y001955D02*
X018455Y001955D01*
X018455Y001855D01*
X017855Y001855D01*
X017855Y001955D01*
X017755Y001955D01*
X018055Y003155D02*
X018057Y003175D01*
X018063Y003193D01*
X018072Y003211D01*
X018084Y003226D01*
X018099Y003238D01*
X018117Y003247D01*
X018135Y003253D01*
X018155Y003255D01*
X018175Y003253D01*
X018193Y003247D01*
X018211Y003238D01*
X018226Y003226D01*
X018238Y003211D01*
X018247Y003193D01*
X018253Y003175D01*
X018255Y003155D01*
X018253Y003135D01*
X018247Y003117D01*
X018238Y003099D01*
X018226Y003084D01*
X018211Y003072D01*
X018193Y003063D01*
X018175Y003057D01*
X018155Y003055D01*
X018135Y003057D01*
X018117Y003063D01*
X018099Y003072D01*
X018084Y003084D01*
X018072Y003099D01*
X018063Y003117D01*
X018057Y003135D01*
X018055Y003155D01*
X017455Y003155D02*
X017457Y003207D01*
X017463Y003259D01*
X017473Y003311D01*
X017486Y003361D01*
X017503Y003411D01*
X017524Y003459D01*
X017549Y003505D01*
X017577Y003549D01*
X017608Y003591D01*
X017642Y003631D01*
X017679Y003668D01*
X017719Y003702D01*
X017761Y003733D01*
X017805Y003761D01*
X017851Y003786D01*
X017899Y003807D01*
X017949Y003824D01*
X017999Y003837D01*
X018051Y003847D01*
X018103Y003853D01*
X018155Y003855D01*
X018207Y003853D01*
X018259Y003847D01*
X018311Y003837D01*
X018361Y003824D01*
X018411Y003807D01*
X018459Y003786D01*
X018505Y003761D01*
X018549Y003733D01*
X018591Y003702D01*
X018631Y003668D01*
X018668Y003631D01*
X018702Y003591D01*
X018733Y003549D01*
X018761Y003505D01*
X018786Y003459D01*
X018807Y003411D01*
X018824Y003361D01*
X018837Y003311D01*
X018847Y003259D01*
X018853Y003207D01*
X018855Y003155D01*
X018853Y003103D01*
X018847Y003051D01*
X018837Y002999D01*
X018824Y002949D01*
X018807Y002899D01*
X018786Y002851D01*
X018761Y002805D01*
X018733Y002761D01*
X018702Y002719D01*
X018668Y002679D01*
X018631Y002642D01*
X018591Y002608D01*
X018549Y002577D01*
X018505Y002549D01*
X018459Y002524D01*
X018411Y002503D01*
X018361Y002486D01*
X018311Y002473D01*
X018259Y002463D01*
X018207Y002457D01*
X018155Y002455D01*
X018103Y002457D01*
X018051Y002463D01*
X017999Y002473D01*
X017949Y002486D01*
X017899Y002503D01*
X017851Y002524D01*
X017805Y002549D01*
X017761Y002577D01*
X017719Y002608D01*
X017679Y002642D01*
X017642Y002679D01*
X017608Y002719D01*
X017577Y002761D01*
X017549Y002805D01*
X017524Y002851D01*
X017503Y002899D01*
X017486Y002949D01*
X017473Y002999D01*
X017463Y003051D01*
X017457Y003103D01*
X017455Y003155D01*
D12*
X010905Y010955D02*
X010851Y010953D01*
X010797Y010948D01*
X010744Y010939D01*
X010691Y010926D01*
X010640Y010910D01*
X010590Y010890D01*
X010541Y010867D01*
X010493Y010841D01*
X010448Y010812D01*
X010405Y010779D01*
X010364Y010744D01*
X010325Y010706D01*
X010289Y010666D01*
X010256Y010623D01*
X010226Y010578D01*
X010199Y010531D01*
X010210Y009758D02*
X010240Y009710D01*
X010273Y009665D01*
X010309Y009622D01*
X010347Y009581D01*
X010389Y009544D01*
X010433Y009509D01*
X010479Y009478D01*
X010528Y009449D01*
X010578Y009425D01*
X010630Y009404D01*
X010684Y009386D01*
X010738Y009373D01*
X010793Y009363D01*
X010849Y009357D01*
X010905Y009355D01*
X010958Y009357D01*
X011012Y009362D01*
X011064Y009371D01*
X011116Y009383D01*
X011167Y009399D01*
X011217Y009418D01*
X011266Y009441D01*
X011313Y009467D01*
X011358Y009495D01*
X011401Y009527D01*
X011441Y009561D01*
X011480Y009599D01*
X011516Y009638D01*
X011520Y010667D02*
X011484Y010707D01*
X011445Y010745D01*
X011404Y010780D01*
X011361Y010812D01*
X011316Y010842D01*
X011269Y010868D01*
X011220Y010890D01*
X011169Y010910D01*
X011118Y010926D01*
X011066Y010939D01*
X011012Y010948D01*
X010959Y010953D01*
X010905Y010955D01*
X010155Y012955D02*
X010101Y012953D01*
X010047Y012948D01*
X009994Y012939D01*
X009941Y012926D01*
X009890Y012910D01*
X009840Y012890D01*
X009791Y012867D01*
X009743Y012841D01*
X009698Y012812D01*
X009655Y012779D01*
X009614Y012744D01*
X009575Y012706D01*
X009539Y012666D01*
X009506Y012623D01*
X009476Y012578D01*
X009449Y012531D01*
X009460Y011758D02*
X009490Y011710D01*
X009523Y011665D01*
X009559Y011622D01*
X009597Y011581D01*
X009639Y011544D01*
X009683Y011509D01*
X009729Y011478D01*
X009778Y011449D01*
X009828Y011425D01*
X009880Y011404D01*
X009934Y011386D01*
X009988Y011373D01*
X010043Y011363D01*
X010099Y011357D01*
X010155Y011355D01*
X010208Y011357D01*
X010262Y011362D01*
X010314Y011371D01*
X010366Y011383D01*
X010417Y011399D01*
X010467Y011418D01*
X010516Y011441D01*
X010563Y011467D01*
X010608Y011495D01*
X010651Y011527D01*
X010691Y011561D01*
X010730Y011599D01*
X010766Y011638D01*
X010770Y012667D02*
X010734Y012707D01*
X010695Y012745D01*
X010654Y012780D01*
X010611Y012812D01*
X010566Y012842D01*
X010519Y012868D01*
X010470Y012890D01*
X010419Y012910D01*
X010368Y012926D01*
X010316Y012939D01*
X010262Y012948D01*
X010209Y012953D01*
X010155Y012955D01*
X012210Y010258D02*
X012240Y010210D01*
X012273Y010165D01*
X012309Y010122D01*
X012347Y010081D01*
X012389Y010044D01*
X012433Y010009D01*
X012479Y009978D01*
X012528Y009949D01*
X012578Y009925D01*
X012630Y009904D01*
X012684Y009886D01*
X012738Y009873D01*
X012793Y009863D01*
X012849Y009857D01*
X012905Y009855D01*
X012958Y009857D01*
X013012Y009862D01*
X013064Y009871D01*
X013116Y009883D01*
X013167Y009899D01*
X013217Y009918D01*
X013266Y009941D01*
X013313Y009967D01*
X013358Y009995D01*
X013401Y010027D01*
X013441Y010061D01*
X013480Y010099D01*
X013516Y010138D01*
X012905Y011455D02*
X012851Y011453D01*
X012797Y011448D01*
X012744Y011439D01*
X012691Y011426D01*
X012640Y011410D01*
X012590Y011390D01*
X012541Y011367D01*
X012493Y011341D01*
X012448Y011312D01*
X012405Y011279D01*
X012364Y011244D01*
X012325Y011206D01*
X012289Y011166D01*
X012256Y011123D01*
X012226Y011078D01*
X012199Y011031D01*
X012905Y011455D02*
X012959Y011453D01*
X013012Y011448D01*
X013066Y011439D01*
X013118Y011426D01*
X013169Y011410D01*
X013220Y011390D01*
X013269Y011368D01*
X013316Y011342D01*
X013361Y011312D01*
X013404Y011280D01*
X013445Y011245D01*
X013484Y011207D01*
X013520Y011167D01*
X010155Y008455D02*
X010101Y008453D01*
X010047Y008448D01*
X009994Y008439D01*
X009941Y008426D01*
X009890Y008410D01*
X009840Y008390D01*
X009791Y008367D01*
X009743Y008341D01*
X009698Y008312D01*
X009655Y008279D01*
X009614Y008244D01*
X009575Y008206D01*
X009539Y008166D01*
X009506Y008123D01*
X009476Y008078D01*
X009449Y008031D01*
X009460Y007258D02*
X009490Y007210D01*
X009523Y007165D01*
X009559Y007122D01*
X009597Y007081D01*
X009639Y007044D01*
X009683Y007009D01*
X009729Y006978D01*
X009778Y006949D01*
X009828Y006925D01*
X009880Y006904D01*
X009934Y006886D01*
X009988Y006873D01*
X010043Y006863D01*
X010099Y006857D01*
X010155Y006855D01*
X010208Y006857D01*
X010262Y006862D01*
X010314Y006871D01*
X010366Y006883D01*
X010417Y006899D01*
X010467Y006918D01*
X010516Y006941D01*
X010563Y006967D01*
X010608Y006995D01*
X010651Y007027D01*
X010691Y007061D01*
X010730Y007099D01*
X010766Y007138D01*
X010770Y008167D02*
X010734Y008207D01*
X010695Y008245D01*
X010654Y008280D01*
X010611Y008312D01*
X010566Y008342D01*
X010519Y008368D01*
X010470Y008390D01*
X010419Y008410D01*
X010368Y008426D01*
X010316Y008439D01*
X010262Y008448D01*
X010209Y008453D01*
X010155Y008455D01*
X008905Y010705D02*
X008851Y010703D01*
X008797Y010698D01*
X008744Y010689D01*
X008691Y010676D01*
X008640Y010660D01*
X008590Y010640D01*
X008541Y010617D01*
X008493Y010591D01*
X008448Y010562D01*
X008405Y010529D01*
X008364Y010494D01*
X008325Y010456D01*
X008289Y010416D01*
X008256Y010373D01*
X008226Y010328D01*
X008199Y010281D01*
X008210Y009508D02*
X008240Y009460D01*
X008273Y009415D01*
X008309Y009372D01*
X008347Y009331D01*
X008389Y009294D01*
X008433Y009259D01*
X008479Y009228D01*
X008528Y009199D01*
X008578Y009175D01*
X008630Y009154D01*
X008684Y009136D01*
X008738Y009123D01*
X008793Y009113D01*
X008849Y009107D01*
X008905Y009105D01*
X008958Y009107D01*
X009012Y009112D01*
X009064Y009121D01*
X009116Y009133D01*
X009167Y009149D01*
X009217Y009168D01*
X009266Y009191D01*
X009313Y009217D01*
X009358Y009245D01*
X009401Y009277D01*
X009441Y009311D01*
X009480Y009349D01*
X009516Y009388D01*
X009520Y010417D02*
X009484Y010457D01*
X009445Y010495D01*
X009404Y010530D01*
X009361Y010562D01*
X009316Y010592D01*
X009269Y010618D01*
X009220Y010640D01*
X009169Y010660D01*
X009118Y010676D01*
X009066Y010689D01*
X009012Y010698D01*
X008959Y010703D01*
X008905Y010705D01*
X006905Y011205D02*
X006851Y011203D01*
X006797Y011198D01*
X006744Y011189D01*
X006691Y011176D01*
X006640Y011160D01*
X006590Y011140D01*
X006541Y011117D01*
X006493Y011091D01*
X006448Y011062D01*
X006405Y011029D01*
X006364Y010994D01*
X006325Y010956D01*
X006289Y010916D01*
X006256Y010873D01*
X006226Y010828D01*
X006199Y010781D01*
X006210Y010008D02*
X006240Y009960D01*
X006273Y009915D01*
X006309Y009872D01*
X006347Y009831D01*
X006389Y009794D01*
X006433Y009759D01*
X006479Y009728D01*
X006528Y009699D01*
X006578Y009675D01*
X006630Y009654D01*
X006684Y009636D01*
X006738Y009623D01*
X006793Y009613D01*
X006849Y009607D01*
X006905Y009605D01*
X006958Y009607D01*
X007012Y009612D01*
X007064Y009621D01*
X007116Y009633D01*
X007167Y009649D01*
X007217Y009668D01*
X007266Y009691D01*
X007313Y009717D01*
X007358Y009745D01*
X007401Y009777D01*
X007441Y009811D01*
X007480Y009849D01*
X007516Y009888D01*
X007520Y010917D02*
X007484Y010957D01*
X007445Y010995D01*
X007404Y011030D01*
X007361Y011062D01*
X007316Y011092D01*
X007269Y011118D01*
X007220Y011140D01*
X007169Y011160D01*
X007118Y011176D01*
X007066Y011189D01*
X007012Y011198D01*
X006959Y011203D01*
X006905Y011205D01*
X005710Y007758D02*
X005740Y007710D01*
X005773Y007665D01*
X005809Y007622D01*
X005847Y007581D01*
X005889Y007544D01*
X005933Y007509D01*
X005979Y007478D01*
X006028Y007449D01*
X006078Y007425D01*
X006130Y007404D01*
X006184Y007386D01*
X006238Y007373D01*
X006293Y007363D01*
X006349Y007357D01*
X006405Y007355D01*
X006458Y007357D01*
X006512Y007362D01*
X006564Y007371D01*
X006616Y007383D01*
X006667Y007399D01*
X006717Y007418D01*
X006766Y007441D01*
X006813Y007467D01*
X006858Y007495D01*
X006901Y007527D01*
X006941Y007561D01*
X006980Y007599D01*
X007016Y007638D01*
X006405Y008955D02*
X006351Y008953D01*
X006297Y008948D01*
X006244Y008939D01*
X006191Y008926D01*
X006140Y008910D01*
X006090Y008890D01*
X006041Y008867D01*
X005993Y008841D01*
X005948Y008812D01*
X005905Y008779D01*
X005864Y008744D01*
X005825Y008706D01*
X005789Y008666D01*
X005756Y008623D01*
X005726Y008578D01*
X005699Y008531D01*
X006405Y008955D02*
X006459Y008953D01*
X006512Y008948D01*
X006566Y008939D01*
X006618Y008926D01*
X006669Y008910D01*
X006720Y008890D01*
X006769Y008868D01*
X006816Y008842D01*
X006861Y008812D01*
X006904Y008780D01*
X006945Y008745D01*
X006984Y008707D01*
X007020Y008667D01*
X006710Y005758D02*
X006740Y005710D01*
X006773Y005665D01*
X006809Y005622D01*
X006847Y005581D01*
X006889Y005544D01*
X006933Y005509D01*
X006979Y005478D01*
X007028Y005449D01*
X007078Y005425D01*
X007130Y005404D01*
X007184Y005386D01*
X007238Y005373D01*
X007293Y005363D01*
X007349Y005357D01*
X007405Y005355D01*
X007458Y005357D01*
X007512Y005362D01*
X007564Y005371D01*
X007616Y005383D01*
X007667Y005399D01*
X007717Y005418D01*
X007766Y005441D01*
X007813Y005467D01*
X007858Y005495D01*
X007901Y005527D01*
X007941Y005561D01*
X007980Y005599D01*
X008016Y005638D01*
X007405Y006955D02*
X007351Y006953D01*
X007297Y006948D01*
X007244Y006939D01*
X007191Y006926D01*
X007140Y006910D01*
X007090Y006890D01*
X007041Y006867D01*
X006993Y006841D01*
X006948Y006812D01*
X006905Y006779D01*
X006864Y006744D01*
X006825Y006706D01*
X006789Y006666D01*
X006756Y006623D01*
X006726Y006578D01*
X006699Y006531D01*
X007405Y006955D02*
X007459Y006953D01*
X007512Y006948D01*
X007566Y006939D01*
X007618Y006926D01*
X007669Y006910D01*
X007720Y006890D01*
X007769Y006868D01*
X007816Y006842D01*
X007861Y006812D01*
X007904Y006780D01*
X007945Y006745D01*
X007984Y006707D01*
X008020Y006667D01*
X009460Y005258D02*
X009490Y005210D01*
X009523Y005165D01*
X009559Y005122D01*
X009597Y005081D01*
X009639Y005044D01*
X009683Y005009D01*
X009729Y004978D01*
X009778Y004949D01*
X009828Y004925D01*
X009880Y004904D01*
X009934Y004886D01*
X009988Y004873D01*
X010043Y004863D01*
X010099Y004857D01*
X010155Y004855D01*
X010208Y004857D01*
X010262Y004862D01*
X010314Y004871D01*
X010366Y004883D01*
X010417Y004899D01*
X010467Y004918D01*
X010516Y004941D01*
X010563Y004967D01*
X010608Y004995D01*
X010651Y005027D01*
X010691Y005061D01*
X010730Y005099D01*
X010766Y005138D01*
X010155Y006455D02*
X010101Y006453D01*
X010047Y006448D01*
X009994Y006439D01*
X009941Y006426D01*
X009890Y006410D01*
X009840Y006390D01*
X009791Y006367D01*
X009743Y006341D01*
X009698Y006312D01*
X009655Y006279D01*
X009614Y006244D01*
X009575Y006206D01*
X009539Y006166D01*
X009506Y006123D01*
X009476Y006078D01*
X009449Y006031D01*
X010155Y006455D02*
X010209Y006453D01*
X010262Y006448D01*
X010316Y006439D01*
X010368Y006426D01*
X010419Y006410D01*
X010470Y006390D01*
X010519Y006368D01*
X010566Y006342D01*
X010611Y006312D01*
X010654Y006280D01*
X010695Y006245D01*
X010734Y006207D01*
X010770Y006167D01*
X009460Y003258D02*
X009490Y003210D01*
X009523Y003165D01*
X009559Y003122D01*
X009597Y003081D01*
X009639Y003044D01*
X009683Y003009D01*
X009729Y002978D01*
X009778Y002949D01*
X009828Y002925D01*
X009880Y002904D01*
X009934Y002886D01*
X009988Y002873D01*
X010043Y002863D01*
X010099Y002857D01*
X010155Y002855D01*
X010208Y002857D01*
X010262Y002862D01*
X010314Y002871D01*
X010366Y002883D01*
X010417Y002899D01*
X010467Y002918D01*
X010516Y002941D01*
X010563Y002967D01*
X010608Y002995D01*
X010651Y003027D01*
X010691Y003061D01*
X010730Y003099D01*
X010766Y003138D01*
X010155Y004455D02*
X010101Y004453D01*
X010047Y004448D01*
X009994Y004439D01*
X009941Y004426D01*
X009890Y004410D01*
X009840Y004390D01*
X009791Y004367D01*
X009743Y004341D01*
X009698Y004312D01*
X009655Y004279D01*
X009614Y004244D01*
X009575Y004206D01*
X009539Y004166D01*
X009506Y004123D01*
X009476Y004078D01*
X009449Y004031D01*
X010155Y004455D02*
X010209Y004453D01*
X010262Y004448D01*
X010316Y004439D01*
X010368Y004426D01*
X010419Y004410D01*
X010470Y004390D01*
X010519Y004368D01*
X010566Y004342D01*
X010611Y004312D01*
X010654Y004280D01*
X010695Y004245D01*
X010734Y004207D01*
X010770Y004167D01*
D13*
X016955Y003655D02*
X017055Y003655D01*
X017055Y002655D01*
X016955Y002655D01*
X019255Y002655D02*
X019355Y002655D01*
X019255Y002655D02*
X019255Y003605D01*
X019355Y003605D01*
D14*
X016155Y018655D02*
X015155Y018655D01*
X015155Y019655D01*
X016155Y019655D01*
X016155Y018655D01*
X016685Y019179D02*
X016685Y019500D01*
X005655Y019655D02*
X005655Y018655D01*
X004655Y018655D01*
X004655Y019655D01*
X005655Y019655D01*
X004285Y019355D02*
X003965Y019355D01*
X004125Y019195D02*
X004125Y019515D01*
D15*
X010397Y000905D03*
D16*
X010397Y000922D03*
D17*
X010397Y000938D03*
D18*
X010397Y000955D03*
D19*
X010397Y000972D03*
X010397Y019822D03*
D20*
X010397Y000988D03*
D21*
X010397Y001005D03*
D22*
X005730Y007222D03*
X006230Y010872D03*
X014630Y009822D03*
X015280Y009838D03*
X016880Y006022D03*
X001580Y001022D03*
D23*
X007414Y002238D03*
X007447Y002222D03*
X007514Y002188D03*
X007547Y002172D03*
X007364Y005022D03*
X007964Y005388D03*
X012697Y002138D03*
X012764Y002172D03*
X012797Y002188D03*
X016847Y006038D03*
X015897Y006638D03*
X015314Y009822D03*
X008047Y011088D03*
X002647Y017488D03*
X018147Y017488D03*
X019214Y001022D03*
D24*
X019263Y001038D03*
X016780Y006072D03*
X016747Y006088D03*
X016663Y006138D03*
X015880Y006672D03*
X015497Y009722D03*
X015463Y009738D03*
X015413Y009772D03*
X015380Y009788D03*
X014847Y010038D03*
X014130Y010822D03*
X014113Y010838D03*
X014080Y010872D03*
X011697Y013222D03*
X008530Y014438D03*
X007863Y011188D03*
X007947Y011138D03*
X007330Y009322D03*
X005813Y010672D03*
X005730Y007238D03*
X007463Y005072D03*
X007497Y005088D03*
X007163Y002372D03*
X007230Y002338D03*
X007313Y002288D03*
X007347Y002272D03*
X013063Y002322D03*
X013097Y002338D03*
X013180Y002388D03*
X001530Y001038D03*
D25*
X001488Y001055D03*
X006655Y002705D03*
X006722Y002655D03*
X006788Y002605D03*
X007855Y005305D03*
X004672Y006255D03*
X013522Y002605D03*
X013605Y002655D03*
X013672Y002705D03*
X013738Y002755D03*
X016322Y006355D03*
X016255Y006405D03*
X016188Y006455D03*
X016122Y006505D03*
X015855Y006705D03*
X015905Y009455D03*
X015838Y009505D03*
X019305Y001055D03*
D26*
X019347Y001072D03*
X014064Y003022D03*
X013964Y002938D03*
X013947Y002922D03*
X013914Y002888D03*
X013847Y002838D03*
X013714Y002738D03*
X016164Y006472D03*
X016147Y006488D03*
X016097Y006522D03*
X016014Y006588D03*
X015847Y006722D03*
X016314Y009122D03*
X016197Y009222D03*
X016114Y009288D03*
X016047Y009338D03*
X016014Y009372D03*
X015947Y009422D03*
X008514Y010838D03*
X008497Y010822D03*
X008397Y010738D03*
X006964Y011472D03*
X006897Y011422D03*
X006864Y011388D03*
X006847Y011372D03*
X006797Y011338D03*
X005464Y010438D03*
X005397Y010388D03*
X005314Y010322D03*
X004914Y006438D03*
X004897Y006422D03*
X004847Y006388D03*
X004764Y006322D03*
X003547Y006038D03*
X006347Y002938D03*
X006414Y002888D03*
X006497Y002822D03*
X006564Y002772D03*
X001447Y001072D03*
X002964Y017622D03*
X001447Y019722D03*
X018464Y017622D03*
X019347Y019722D03*
D27*
X018472Y018672D03*
X017822Y018672D03*
X014372Y010638D03*
X014389Y010622D03*
X014422Y010588D03*
X014439Y010572D03*
X014472Y010538D03*
X016239Y009188D03*
X016289Y009138D03*
X016372Y009072D03*
X016422Y009022D03*
X016472Y008972D03*
X015422Y007138D03*
X015439Y007122D03*
X015472Y007088D03*
X015489Y007072D03*
X015522Y007038D03*
X015539Y007022D03*
X015572Y006988D03*
X015589Y006972D03*
X015622Y006938D03*
X015639Y006922D03*
X015672Y006888D03*
X015689Y006872D03*
X015789Y006788D03*
X015839Y006738D03*
X014189Y003138D03*
X014172Y003122D03*
X014139Y003088D03*
X014122Y003072D03*
X014089Y003038D03*
X014022Y002988D03*
X019372Y001088D03*
X008439Y010772D03*
X008372Y010722D03*
X008339Y010688D03*
X008322Y010672D03*
X008289Y010638D03*
X008272Y010622D03*
X008172Y010538D03*
X008122Y010488D03*
X008072Y010438D03*
X008022Y010388D03*
X006739Y011288D03*
X006722Y011272D03*
X006689Y011238D03*
X006672Y011222D03*
X006622Y011188D03*
X006572Y011138D03*
X006522Y011088D03*
X006339Y010922D03*
X005372Y010372D03*
X005339Y010338D03*
X005272Y010288D03*
X005222Y010238D03*
X005172Y010188D03*
X005022Y006538D03*
X004972Y006488D03*
X007872Y005322D03*
X007889Y005338D03*
X006022Y003238D03*
X006039Y003222D03*
X006072Y003188D03*
X006089Y003172D03*
X006122Y003138D03*
X006139Y003122D03*
X006172Y003088D03*
X006189Y003072D03*
X006289Y002988D03*
X006372Y002922D03*
X001422Y001088D03*
X002322Y018672D03*
X002972Y018672D03*
D28*
X002997Y018655D03*
X002297Y018655D03*
X007130Y011705D03*
X007180Y011655D03*
X006430Y011005D03*
X006380Y010955D03*
X006047Y010605D03*
X005997Y010555D03*
X005130Y010155D03*
X005080Y010105D03*
X005030Y010055D03*
X004980Y010005D03*
X004930Y009955D03*
X004880Y009905D03*
X004847Y009855D03*
X004797Y009805D03*
X004713Y009705D03*
X004630Y009605D03*
X005563Y007105D03*
X005480Y007005D03*
X005430Y006955D03*
X005397Y006905D03*
X005347Y006855D03*
X005297Y006805D03*
X005247Y006755D03*
X005197Y006705D03*
X005147Y006655D03*
X005097Y006605D03*
X005597Y003705D03*
X005680Y003605D03*
X005763Y003505D03*
X005813Y003455D03*
X005863Y003405D03*
X005897Y003355D03*
X005947Y003305D03*
X005997Y003255D03*
X008997Y005855D03*
X007630Y009955D03*
X007713Y010055D03*
X007797Y010155D03*
X007847Y010205D03*
X007897Y010255D03*
X007947Y010305D03*
X007997Y010355D03*
X013447Y011605D03*
X013763Y011205D03*
X014297Y010705D03*
X014347Y010655D03*
X014497Y010505D03*
X014547Y010455D03*
X016497Y008955D03*
X016547Y008905D03*
X016597Y008855D03*
X016647Y008805D03*
X016697Y008755D03*
X016747Y008705D03*
X016797Y008655D03*
X016880Y008555D03*
X016930Y008505D03*
X017013Y008405D03*
X017097Y008305D03*
X015413Y007155D03*
X015363Y007205D03*
X015313Y007255D03*
X015263Y007305D03*
X015180Y007405D03*
X015097Y007505D03*
X015013Y007605D03*
X014680Y003655D03*
X014597Y003555D03*
X014463Y003405D03*
X014413Y003355D03*
X014363Y003305D03*
X014313Y003255D03*
X014263Y003205D03*
X014213Y003155D03*
X019397Y001105D03*
X018497Y018655D03*
X017797Y018655D03*
X001397Y001105D03*
D29*
X001363Y001122D03*
X005663Y003622D03*
X005697Y003588D03*
X005747Y003522D03*
X005780Y003488D03*
X005797Y003472D03*
X005830Y003438D03*
X005847Y003422D03*
X005863Y003388D03*
X005880Y003372D03*
X005913Y003338D03*
X005930Y003322D03*
X005963Y003288D03*
X005980Y003272D03*
X006880Y004822D03*
X005080Y006588D03*
X005113Y006622D03*
X005130Y006638D03*
X005163Y006672D03*
X005180Y006688D03*
X005213Y006722D03*
X005230Y006738D03*
X005263Y006772D03*
X005280Y006788D03*
X005313Y006822D03*
X005330Y006838D03*
X005363Y006872D03*
X005380Y006888D03*
X005447Y006972D03*
X005463Y006988D03*
X005497Y007022D03*
X005547Y007088D03*
X005580Y007122D03*
X005747Y007322D03*
X004697Y009688D03*
X004780Y009788D03*
X004813Y009822D03*
X004830Y009838D03*
X004863Y009872D03*
X004897Y009922D03*
X004913Y009938D03*
X004947Y009972D03*
X004963Y009988D03*
X004997Y010022D03*
X005013Y010038D03*
X005047Y010072D03*
X005063Y010088D03*
X005097Y010122D03*
X005113Y010138D03*
X005147Y010172D03*
X005863Y010388D03*
X005930Y010472D03*
X005947Y010488D03*
X006013Y010572D03*
X006030Y010588D03*
X006063Y010622D03*
X006080Y010638D03*
X006363Y010938D03*
X006397Y010972D03*
X006413Y010988D03*
X006447Y011022D03*
X006463Y011038D03*
X007147Y011688D03*
X007163Y011672D03*
X007063Y011788D03*
X008230Y010588D03*
X008213Y010572D03*
X008013Y010372D03*
X007980Y010338D03*
X007963Y010322D03*
X007930Y010288D03*
X007913Y010272D03*
X007880Y010238D03*
X007863Y010222D03*
X007830Y010188D03*
X007813Y010172D03*
X007780Y010138D03*
X007730Y010072D03*
X007697Y010038D03*
X013380Y011688D03*
X013513Y011522D03*
X013630Y011372D03*
X013697Y011288D03*
X013947Y010972D03*
X014013Y010888D03*
X014280Y010722D03*
X014313Y010688D03*
X014330Y010672D03*
X014480Y010522D03*
X014513Y010488D03*
X014530Y010472D03*
X014563Y010438D03*
X014580Y010422D03*
X014780Y010072D03*
X016513Y008938D03*
X016530Y008922D03*
X016563Y008888D03*
X016580Y008872D03*
X016613Y008838D03*
X016630Y008822D03*
X016663Y008788D03*
X016680Y008772D03*
X016713Y008738D03*
X016730Y008722D03*
X016763Y008688D03*
X016780Y008672D03*
X016847Y008588D03*
X016863Y008572D03*
X016897Y008538D03*
X016913Y008522D03*
X016947Y008488D03*
X016997Y008422D03*
X017030Y008388D03*
X017080Y008322D03*
X015730Y006838D03*
X015747Y006822D03*
X015397Y007172D03*
X015380Y007188D03*
X015347Y007222D03*
X015330Y007238D03*
X015297Y007272D03*
X015280Y007288D03*
X015247Y007322D03*
X015213Y007372D03*
X015197Y007388D03*
X015163Y007422D03*
X015080Y007522D03*
X015063Y007538D03*
X017930Y005972D03*
X014663Y003638D03*
X014580Y003538D03*
X014563Y003522D03*
X014497Y003438D03*
X014480Y003422D03*
X014447Y003388D03*
X014430Y003372D03*
X014397Y003338D03*
X014380Y003322D03*
X014347Y003288D03*
X014330Y003272D03*
X014297Y003238D03*
X014280Y003222D03*
X014247Y003188D03*
X014230Y003172D03*
X019430Y001122D03*
X018497Y017638D03*
X017797Y017638D03*
X019430Y019672D03*
X019413Y019688D03*
X002997Y017638D03*
X002297Y017638D03*
X001363Y019672D03*
X001380Y019688D03*
D30*
X002272Y018638D03*
X003022Y018638D03*
X003039Y017672D03*
X006889Y012022D03*
X006922Y011972D03*
X006989Y011888D03*
X007022Y011838D03*
X007039Y011822D03*
X007072Y011772D03*
X007122Y011722D03*
X006122Y010688D03*
X005989Y010538D03*
X005972Y010522D03*
X005889Y010422D03*
X005822Y010338D03*
X005789Y010288D03*
X005772Y010272D03*
X005739Y010222D03*
X005672Y010122D03*
X004872Y009888D03*
X004772Y009772D03*
X004739Y009738D03*
X004722Y009722D03*
X004689Y009672D03*
X004639Y009622D03*
X004622Y009588D03*
X004572Y009538D03*
X004572Y009522D03*
X004539Y009488D03*
X004522Y009472D03*
X004489Y009422D03*
X004422Y009338D03*
X004389Y009288D03*
X004339Y009222D03*
X004322Y009188D03*
X004289Y009138D03*
X004272Y009122D03*
X004239Y009072D03*
X004222Y009038D03*
X004189Y008988D03*
X004122Y008888D03*
X005639Y007188D03*
X005622Y007172D03*
X005589Y007138D03*
X005539Y007072D03*
X005422Y006938D03*
X003489Y006088D03*
X005222Y004238D03*
X005389Y003988D03*
X005422Y003938D03*
X005472Y003872D03*
X005489Y003838D03*
X005539Y003788D03*
X005539Y003772D03*
X005572Y003738D03*
X005589Y003722D03*
X005622Y003672D03*
X005739Y003538D03*
X006572Y004988D03*
X008472Y006722D03*
X008372Y006888D03*
X008339Y006938D03*
X008289Y007022D03*
X008589Y006538D03*
X008689Y006372D03*
X008722Y006322D03*
X008772Y006238D03*
X008839Y006138D03*
X008872Y006088D03*
X007989Y007522D03*
X007289Y009372D03*
X007472Y009738D03*
X007489Y009772D03*
X007522Y009822D03*
X007539Y009838D03*
X007572Y009888D03*
X007622Y009938D03*
X007639Y009972D03*
X007689Y010022D03*
X007739Y010088D03*
X007772Y010122D03*
X012989Y011838D03*
X013022Y011872D03*
X013039Y011888D03*
X013072Y011938D03*
X013089Y011972D03*
X013122Y012022D03*
X013139Y012038D03*
X013172Y012088D03*
X013222Y012172D03*
X013389Y011672D03*
X013422Y011638D03*
X013439Y011622D03*
X013472Y011572D03*
X013539Y011488D03*
X013572Y011438D03*
X013589Y011422D03*
X013622Y011388D03*
X013672Y011322D03*
X013739Y011238D03*
X013772Y011188D03*
X013789Y011172D03*
X013822Y011138D03*
X013822Y011122D03*
X013872Y011072D03*
X013889Y011038D03*
X013939Y010988D03*
X013972Y010938D03*
X013989Y010922D03*
X014622Y010372D03*
X014639Y010338D03*
X014572Y008222D03*
X014639Y008122D03*
X014672Y008072D03*
X014689Y008038D03*
X014722Y007988D03*
X014739Y007972D03*
X014772Y007922D03*
X014839Y007822D03*
X014872Y007788D03*
X014889Y007772D03*
X014922Y007722D03*
X014939Y007688D03*
X014989Y007638D03*
X015022Y007588D03*
X015039Y007572D03*
X015122Y007472D03*
X015239Y007338D03*
X016822Y008622D03*
X016989Y008438D03*
X017039Y008372D03*
X017072Y008338D03*
X017122Y008272D03*
X017172Y008222D03*
X017189Y008188D03*
X017222Y008138D03*
X017239Y008122D03*
X017272Y008088D03*
X017322Y008022D03*
X017339Y007988D03*
X017372Y007938D03*
X017389Y007922D03*
X017422Y007872D03*
X017489Y007772D03*
X017522Y007722D03*
X017972Y006022D03*
X017939Y005988D03*
X015022Y004122D03*
X014989Y004072D03*
X014922Y003972D03*
X014889Y003922D03*
X014822Y003838D03*
X014789Y003788D03*
X014772Y003772D03*
X014739Y003738D03*
X014739Y003722D03*
X014689Y003672D03*
X014622Y003588D03*
X014539Y003488D03*
X014522Y003472D03*
X001339Y001138D03*
X018539Y017672D03*
X018522Y018638D03*
X017772Y018638D03*
D31*
X017755Y017672D03*
X013105Y011988D03*
X013055Y011922D03*
X013355Y011722D03*
X013455Y011588D03*
X013505Y011538D03*
X013555Y011472D03*
X013655Y011338D03*
X013705Y011272D03*
X013755Y011222D03*
X013855Y011088D03*
X013905Y011022D03*
X014605Y010388D03*
X014655Y010322D03*
X014605Y008172D03*
X014655Y008088D03*
X014705Y008022D03*
X014755Y007938D03*
X014805Y007872D03*
X014905Y007738D03*
X014955Y007672D03*
X015005Y007622D03*
X015105Y007488D03*
X015155Y007438D03*
X016805Y008638D03*
X016955Y008472D03*
X017105Y008288D03*
X017155Y008238D03*
X017205Y008172D03*
X017305Y008038D03*
X017355Y007972D03*
X017455Y007822D03*
X017555Y007672D03*
X017605Y007588D03*
X014955Y004022D03*
X014855Y003888D03*
X014805Y003822D03*
X014705Y003688D03*
X014655Y003622D03*
X014605Y003572D03*
X019455Y001138D03*
X009005Y005872D03*
X008805Y006188D03*
X008555Y006588D03*
X008505Y006672D03*
X008255Y007072D03*
X008155Y007238D03*
X005755Y007338D03*
X005505Y007038D03*
X005405Y006922D03*
X003455Y006122D03*
X005255Y004188D03*
X005355Y004038D03*
X005455Y003888D03*
X005505Y003822D03*
X005605Y003688D03*
X005655Y003638D03*
X005705Y003572D03*
X004155Y008938D03*
X004205Y009022D03*
X004255Y009088D03*
X004305Y009172D03*
X004355Y009238D03*
X004455Y009372D03*
X004505Y009438D03*
X004605Y009572D03*
X004655Y009638D03*
X005705Y010172D03*
X005805Y010322D03*
X005855Y010372D03*
X005905Y010438D03*
X006105Y010672D03*
X007105Y011738D03*
X006955Y011922D03*
X006855Y012072D03*
X007655Y009988D03*
X007605Y009922D03*
X007505Y009788D03*
X007455Y009722D03*
X007405Y009638D03*
X002255Y017672D03*
D32*
X002272Y017655D03*
X003022Y017655D03*
X001339Y019655D03*
X006939Y011955D03*
X006972Y011905D03*
X007089Y011755D03*
X006089Y010655D03*
X005922Y010455D03*
X005872Y010405D03*
X005839Y010355D03*
X005722Y010205D03*
X005689Y010155D03*
X005622Y010055D03*
X005589Y010005D03*
X004672Y009655D03*
X004589Y009555D03*
X004472Y009405D03*
X004439Y009355D03*
X004372Y009255D03*
X005522Y007055D03*
X003472Y006105D03*
X003439Y006155D03*
X005339Y004055D03*
X005372Y004005D03*
X005522Y003805D03*
X005639Y003655D03*
X005722Y003555D03*
X008672Y006405D03*
X008639Y006455D03*
X008422Y006805D03*
X008889Y006055D03*
X008922Y006005D03*
X008989Y005905D03*
X007939Y007605D03*
X007589Y009905D03*
X007672Y010005D03*
X013039Y011905D03*
X013372Y011705D03*
X013489Y011555D03*
X013522Y011505D03*
X013572Y011455D03*
X013639Y011355D03*
X013689Y011305D03*
X013722Y011255D03*
X013839Y011105D03*
X013889Y011055D03*
X013922Y011005D03*
X014589Y010405D03*
X014522Y008305D03*
X014789Y007905D03*
X014822Y007855D03*
X014889Y007755D03*
X014939Y007705D03*
X014972Y007655D03*
X015139Y007455D03*
X015222Y007355D03*
X016839Y008605D03*
X016972Y008455D03*
X017139Y008255D03*
X017172Y008205D03*
X017222Y008155D03*
X017289Y008055D03*
X017439Y007855D03*
X017472Y007805D03*
X015072Y004205D03*
X014939Y004005D03*
X014872Y003905D03*
X014839Y003855D03*
X014722Y003705D03*
X014639Y003605D03*
X019472Y001155D03*
X018522Y017655D03*
X017772Y017655D03*
X001322Y001155D03*
D33*
X001297Y001172D03*
X004964Y004722D03*
X005014Y004622D03*
X005064Y004522D03*
X005114Y004438D03*
X005114Y004422D03*
X005147Y004372D03*
X005164Y004338D03*
X005197Y004288D03*
X005197Y004272D03*
X005264Y004172D03*
X005297Y004122D03*
X005314Y004088D03*
X005364Y004022D03*
X005397Y003972D03*
X004914Y004838D03*
X004897Y004872D03*
X004847Y004988D03*
X004797Y005122D03*
X004747Y005272D03*
X003447Y006138D03*
X003414Y006188D03*
X003397Y006222D03*
X003397Y006238D03*
X003464Y007472D03*
X003497Y007572D03*
X003514Y007622D03*
X003547Y007722D03*
X003614Y007888D03*
X003647Y007972D03*
X003697Y008088D03*
X003714Y008122D03*
X003747Y008188D03*
X003764Y008222D03*
X003764Y008238D03*
X003797Y008288D03*
X003814Y008322D03*
X003814Y008338D03*
X003847Y008388D03*
X003864Y008422D03*
X003864Y008438D03*
X003897Y008488D03*
X003914Y008522D03*
X003914Y008538D03*
X003947Y008588D03*
X003964Y008622D03*
X003997Y008672D03*
X003997Y008688D03*
X004047Y008772D03*
X004064Y008788D03*
X004097Y008838D03*
X004114Y008872D03*
X004147Y008922D03*
X004414Y009322D03*
X004464Y009388D03*
X005347Y009538D03*
X005364Y009572D03*
X005364Y009588D03*
X005414Y009688D03*
X005464Y009772D03*
X005464Y009788D03*
X005497Y009838D03*
X005514Y009872D03*
X005514Y009888D03*
X005547Y009922D03*
X005547Y009938D03*
X005564Y009972D03*
X005597Y010022D03*
X005614Y010038D03*
X005647Y010088D03*
X005714Y010188D03*
X005747Y010238D03*
X007297Y009438D03*
X007314Y009472D03*
X007347Y009538D03*
X007364Y009572D03*
X007397Y009622D03*
X007564Y009872D03*
X007297Y008822D03*
X007314Y008788D03*
X007364Y008672D03*
X007414Y008572D03*
X007464Y008472D03*
X007514Y008372D03*
X007564Y008272D03*
X007597Y008222D03*
X007614Y008188D03*
X007614Y008172D03*
X007647Y008122D03*
X007664Y008088D03*
X007697Y008038D03*
X007697Y008022D03*
X007714Y007988D03*
X007747Y007938D03*
X007764Y007922D03*
X007797Y007838D03*
X007814Y007822D03*
X007847Y007772D03*
X007864Y007738D03*
X007864Y007722D03*
X007897Y007688D03*
X007897Y007672D03*
X007914Y007638D03*
X007947Y007588D03*
X007964Y007572D03*
X008014Y007488D03*
X008014Y007472D03*
X008047Y007422D03*
X008064Y007388D03*
X008097Y007338D03*
X008114Y007322D03*
X008164Y007222D03*
X008197Y007172D03*
X008214Y007138D03*
X008247Y007088D03*
X008314Y006988D03*
X008314Y006972D03*
X008347Y006922D03*
X008397Y006838D03*
X008414Y006822D03*
X008447Y006772D03*
X008464Y006738D03*
X008497Y006688D03*
X008564Y006572D03*
X008597Y006522D03*
X008614Y006488D03*
X008647Y006438D03*
X008664Y006422D03*
X008714Y006338D03*
X008747Y006288D03*
X008747Y006272D03*
X008814Y006172D03*
X008847Y006122D03*
X008897Y006038D03*
X008914Y006022D03*
X008947Y005972D03*
X008964Y005938D03*
X008997Y005888D03*
X006514Y005122D03*
X006464Y005288D03*
X006447Y005338D03*
X006214Y006072D03*
X006197Y006122D03*
X006147Y006272D03*
X006114Y006372D03*
X006097Y006422D03*
X006064Y006522D03*
X006047Y006572D03*
X005914Y006938D03*
X005897Y006988D03*
X005847Y007122D03*
X005747Y007388D03*
X005714Y007472D03*
X005697Y007522D03*
X005647Y007638D03*
X005614Y007722D03*
X005597Y007772D03*
X005564Y007838D03*
X005547Y007888D03*
X005497Y007988D03*
X005464Y008072D03*
X005414Y008172D03*
X005364Y008272D03*
X005314Y008388D03*
X005297Y008422D03*
X005264Y008522D03*
X006997Y011872D03*
X006947Y011938D03*
X006914Y011988D03*
X006847Y012088D03*
X006814Y012138D03*
X006797Y012172D03*
X006764Y012222D03*
X006747Y012238D03*
X006714Y012322D03*
X006697Y012338D03*
X006647Y012438D03*
X006614Y012522D03*
X006564Y012622D03*
X006547Y012672D03*
X006547Y015138D03*
X006564Y015172D03*
X006614Y015288D03*
X006647Y015372D03*
X006664Y015388D03*
X006697Y015472D03*
X006714Y015488D03*
X006764Y015572D03*
X006764Y015588D03*
X010064Y019122D03*
X013264Y015572D03*
X013297Y015488D03*
X013314Y015472D03*
X013364Y015372D03*
X013414Y015272D03*
X013447Y015188D03*
X013514Y015022D03*
X013547Y014922D03*
X013564Y012938D03*
X013514Y012788D03*
X013497Y012738D03*
X013447Y012622D03*
X013414Y012538D03*
X013364Y012438D03*
X013364Y012422D03*
X013347Y012388D03*
X013314Y012338D03*
X013314Y012322D03*
X013264Y012238D03*
X013247Y012222D03*
X013197Y012138D03*
X013197Y012122D03*
X013164Y012072D03*
X014714Y010238D03*
X014714Y010222D03*
X014147Y009138D03*
X014164Y009088D03*
X014214Y008938D03*
X014297Y008738D03*
X014314Y008688D03*
X014347Y008622D03*
X014364Y008588D03*
X014397Y008538D03*
X014397Y008522D03*
X014414Y008488D03*
X014447Y008438D03*
X014447Y008422D03*
X014497Y008338D03*
X014514Y008322D03*
X014547Y008272D03*
X014564Y008238D03*
X014597Y008188D03*
X014797Y007888D03*
X017414Y007888D03*
X017447Y007838D03*
X017514Y007738D03*
X017547Y007688D03*
X017614Y007572D03*
X017647Y007522D03*
X017664Y007488D03*
X017697Y007438D03*
X017697Y007422D03*
X017714Y007388D03*
X017747Y007338D03*
X017797Y007238D03*
X017847Y007138D03*
X017864Y007088D03*
X017897Y007022D03*
X017914Y006972D03*
X017947Y006888D03*
X017964Y006838D03*
X017997Y006072D03*
X015464Y004972D03*
X015447Y004938D03*
X015397Y004822D03*
X015364Y004738D03*
X015314Y004638D03*
X015264Y004538D03*
X015214Y004438D03*
X015197Y004422D03*
X015147Y004338D03*
X015147Y004322D03*
X015114Y004272D03*
X015097Y004238D03*
X015064Y004188D03*
X015047Y004172D03*
X014997Y004088D03*
X014964Y004038D03*
X014897Y003938D03*
X014847Y003872D03*
X019497Y001172D03*
X019514Y001188D03*
X018564Y017688D03*
X018597Y017722D03*
X018614Y017738D03*
X018597Y018572D03*
X018547Y018622D03*
X018147Y018822D03*
X017747Y018622D03*
X017714Y018588D03*
X017697Y018572D03*
X017697Y017722D03*
X019497Y019622D03*
X003097Y018572D03*
X003047Y018622D03*
X002647Y018822D03*
X002247Y018622D03*
X002214Y018588D03*
X002197Y018572D03*
X002197Y017722D03*
X003064Y017688D03*
X003097Y017722D03*
X003114Y017738D03*
X001297Y019622D03*
X001314Y019638D03*
D34*
X003080Y018588D03*
X002180Y017738D03*
X002230Y017688D03*
X006630Y015338D03*
X006630Y015322D03*
X006680Y015422D03*
X006680Y015438D03*
X006730Y015522D03*
X006580Y015222D03*
X006580Y012588D03*
X006630Y012488D03*
X006630Y012472D03*
X006680Y012372D03*
X006730Y012288D03*
X006730Y012272D03*
X006780Y012188D03*
X006830Y012122D03*
X006880Y012038D03*
X005680Y010138D03*
X005630Y010072D03*
X005580Y009988D03*
X005480Y009822D03*
X005430Y009722D03*
X005380Y009622D03*
X005330Y009488D03*
X004380Y009272D03*
X004180Y008972D03*
X004080Y008822D03*
X004030Y008738D03*
X004030Y008722D03*
X003980Y008638D03*
X003880Y008472D03*
X003830Y008372D03*
X003780Y008272D03*
X003730Y008172D03*
X003630Y007938D03*
X003530Y007672D03*
X003480Y007522D03*
X003430Y006172D03*
X004730Y005322D03*
X004780Y005172D03*
X004830Y005038D03*
X004930Y004788D03*
X004980Y004688D03*
X005030Y004588D03*
X005080Y004488D03*
X005130Y004388D03*
X005180Y004322D03*
X005230Y004222D03*
X005280Y004138D03*
X005330Y004072D03*
X005430Y003922D03*
X006230Y006022D03*
X006180Y006172D03*
X006130Y006322D03*
X006080Y006472D03*
X006030Y006622D03*
X005880Y007038D03*
X005830Y007172D03*
X005730Y007438D03*
X005630Y007688D03*
X005530Y007922D03*
X005480Y008038D03*
X005430Y008138D03*
X005380Y008238D03*
X005330Y008338D03*
X005280Y008472D03*
X007280Y008872D03*
X007330Y008738D03*
X007380Y008638D03*
X007430Y008538D03*
X007480Y008438D03*
X007530Y008338D03*
X007580Y008238D03*
X007630Y008138D03*
X007680Y008072D03*
X007730Y007972D03*
X007780Y007888D03*
X007780Y007872D03*
X007830Y007788D03*
X007930Y007622D03*
X007980Y007538D03*
X008030Y007438D03*
X008080Y007372D03*
X008130Y007288D03*
X008130Y007272D03*
X008180Y007188D03*
X008230Y007122D03*
X008280Y007038D03*
X008380Y006872D03*
X008430Y006788D03*
X008530Y006638D03*
X008530Y006622D03*
X008630Y006472D03*
X008680Y006388D03*
X008780Y006222D03*
X008880Y006072D03*
X008930Y005988D03*
X008980Y005922D03*
X007280Y009388D03*
X007380Y009588D03*
X007430Y009672D03*
X007430Y009688D03*
X013230Y012188D03*
X013280Y012272D03*
X013330Y012372D03*
X013380Y012472D03*
X013430Y012572D03*
X013480Y012688D03*
X013530Y012838D03*
X013530Y014972D03*
X013430Y015222D03*
X013430Y015238D03*
X013380Y015338D03*
X013330Y015438D03*
X013280Y015522D03*
X013280Y015538D03*
X017680Y017738D03*
X017730Y017688D03*
X018580Y018588D03*
X019480Y019638D03*
X014680Y010288D03*
X014680Y010272D03*
X014730Y010188D03*
X014730Y009872D03*
X014230Y008888D03*
X014280Y008772D03*
X014330Y008672D03*
X014380Y008572D03*
X014430Y008472D03*
X014480Y008388D03*
X014480Y008372D03*
X014530Y008288D03*
X014630Y008138D03*
X014830Y007838D03*
X017280Y008072D03*
X017480Y007788D03*
X017580Y007638D03*
X017580Y007622D03*
X017630Y007538D03*
X017680Y007472D03*
X017730Y007372D03*
X017780Y007272D03*
X017830Y007172D03*
X017980Y006038D03*
X015480Y005022D03*
X015430Y004888D03*
X015380Y004788D03*
X015380Y004772D03*
X015330Y004672D03*
X015280Y004572D03*
X015230Y004488D03*
X015230Y004472D03*
X015180Y004388D03*
X015130Y004288D03*
X015080Y004222D03*
X015030Y004138D03*
X014930Y003988D03*
X001280Y001188D03*
D35*
X001264Y001205D03*
X004947Y004755D03*
X004997Y004655D03*
X005047Y004555D03*
X005097Y004455D03*
X005147Y004355D03*
X005214Y004255D03*
X005247Y004205D03*
X005447Y003905D03*
X004864Y004955D03*
X006364Y005605D03*
X006347Y005655D03*
X006314Y005755D03*
X005964Y006805D03*
X005947Y006855D03*
X005664Y007605D03*
X005514Y007955D03*
X005497Y008005D03*
X005447Y008105D03*
X005397Y008205D03*
X005347Y008305D03*
X004197Y009005D03*
X004164Y008955D03*
X004097Y008855D03*
X004047Y008755D03*
X004014Y008705D03*
X003964Y008605D03*
X003897Y008505D03*
X003847Y008405D03*
X003797Y008305D03*
X003747Y008205D03*
X003664Y008005D03*
X003597Y007855D03*
X004264Y009105D03*
X004297Y009155D03*
X005314Y009455D03*
X005397Y009655D03*
X005447Y009755D03*
X005497Y009855D03*
X005564Y009955D03*
X007414Y009655D03*
X007447Y009705D03*
X007514Y009805D03*
X007347Y008705D03*
X007397Y008605D03*
X007447Y008505D03*
X007497Y008405D03*
X007547Y008305D03*
X007597Y008205D03*
X007664Y008105D03*
X007714Y008005D03*
X007747Y007955D03*
X007764Y007905D03*
X007797Y007855D03*
X007847Y007755D03*
X007914Y007655D03*
X007964Y007555D03*
X007997Y007505D03*
X008064Y007405D03*
X008114Y007305D03*
X008147Y007255D03*
X008264Y007055D03*
X008297Y007005D03*
X008364Y006905D03*
X008397Y006855D03*
X008514Y006655D03*
X008547Y006605D03*
X008614Y006505D03*
X008697Y006355D03*
X008764Y006255D03*
X008797Y006205D03*
X008864Y006105D03*
X003414Y006205D03*
X006864Y012055D03*
X006747Y012255D03*
X006714Y012305D03*
X006697Y012355D03*
X006664Y012405D03*
X006614Y012505D03*
X006597Y012555D03*
X006514Y012755D03*
X006497Y012805D03*
X006464Y012905D03*
X006447Y012955D03*
X006464Y014905D03*
X006497Y015005D03*
X006514Y015055D03*
X006597Y015255D03*
X006647Y015355D03*
X006664Y015405D03*
X006697Y015455D03*
X006714Y015505D03*
X006747Y015555D03*
X003064Y018605D03*
X002214Y017705D03*
X013264Y015555D03*
X013297Y015505D03*
X013347Y015405D03*
X013397Y015305D03*
X013464Y015155D03*
X013464Y012655D03*
X013397Y012505D03*
X013347Y012405D03*
X013297Y012305D03*
X013264Y012255D03*
X013247Y012205D03*
X013214Y012155D03*
X013147Y012055D03*
X013114Y012005D03*
X014664Y010305D03*
X014697Y010255D03*
X014247Y008855D03*
X014264Y008805D03*
X014314Y008705D03*
X014364Y008605D03*
X014414Y008505D03*
X014464Y008405D03*
X014497Y008355D03*
X014547Y008255D03*
X014614Y008155D03*
X014647Y008105D03*
X014714Y008005D03*
X014747Y007955D03*
X017364Y007955D03*
X017497Y007755D03*
X017564Y007655D03*
X017597Y007605D03*
X017714Y007405D03*
X017764Y007305D03*
X017814Y007205D03*
X017864Y007105D03*
X018014Y006105D03*
X015597Y005355D03*
X015514Y005105D03*
X015414Y004855D03*
X015347Y004705D03*
X015297Y004605D03*
X015247Y004505D03*
X015214Y004455D03*
X015197Y004405D03*
X015164Y004355D03*
X015047Y004155D03*
X015014Y004105D03*
X017714Y017705D03*
X018564Y018605D03*
X019514Y019605D03*
D36*
X017730Y018605D03*
X018580Y017705D03*
X013480Y015105D03*
X013380Y012455D03*
X013330Y012355D03*
X013180Y012105D03*
X013080Y011955D03*
X014630Y010355D03*
X014330Y008655D03*
X014380Y008555D03*
X014430Y008455D03*
X014580Y008205D03*
X014680Y008055D03*
X017330Y008005D03*
X017530Y007705D03*
X017630Y007555D03*
X017680Y007455D03*
X017880Y007055D03*
X017980Y006055D03*
X015580Y005305D03*
X015530Y005155D03*
X015430Y004905D03*
X015130Y004305D03*
X014980Y004055D03*
X019530Y001205D03*
X008830Y006155D03*
X008730Y006305D03*
X008580Y006555D03*
X008480Y006705D03*
X008330Y006955D03*
X008230Y007105D03*
X008180Y007205D03*
X008080Y007355D03*
X008030Y007455D03*
X007880Y007705D03*
X007830Y007805D03*
X007680Y008055D03*
X007630Y008155D03*
X007330Y008755D03*
X007330Y009505D03*
X007380Y009605D03*
X007480Y009755D03*
X005530Y009905D03*
X005480Y009805D03*
X004330Y009205D03*
X004230Y009055D03*
X004130Y008905D03*
X004080Y008805D03*
X003980Y008655D03*
X003930Y008555D03*
X003880Y008455D03*
X003830Y008355D03*
X003780Y008255D03*
X003730Y008155D03*
X003680Y008055D03*
X003580Y007805D03*
X005330Y008355D03*
X005580Y007805D03*
X005680Y007555D03*
X005930Y006905D03*
X006330Y005705D03*
X005130Y004405D03*
X005180Y004305D03*
X005280Y004155D03*
X005480Y003855D03*
X004880Y004905D03*
X006830Y012105D03*
X006780Y012205D03*
X006530Y012705D03*
X006480Y014955D03*
X006780Y015605D03*
X003080Y017705D03*
X002230Y018605D03*
X001280Y019605D03*
D37*
X001238Y001222D03*
X001222Y001238D03*
X001188Y001272D03*
X001172Y001288D03*
X001138Y001338D03*
X004988Y004672D03*
X005005Y004638D03*
X005038Y004572D03*
X005055Y004538D03*
X005088Y004472D03*
X004955Y004738D03*
X004938Y004772D03*
X004922Y004822D03*
X004888Y004888D03*
X004872Y004922D03*
X004872Y004938D03*
X004855Y004972D03*
X004838Y005022D03*
X004822Y005072D03*
X004805Y005088D03*
X004788Y005138D03*
X004772Y005188D03*
X004755Y005222D03*
X004755Y005238D03*
X004738Y005288D03*
X004722Y005338D03*
X004722Y005372D03*
X004705Y005388D03*
X004705Y005422D03*
X004688Y005438D03*
X004688Y005472D03*
X004688Y005488D03*
X004672Y005522D03*
X004672Y005538D03*
X004655Y005572D03*
X004655Y005588D03*
X004655Y005622D03*
X004638Y005638D03*
X004638Y005672D03*
X004622Y005722D03*
X004622Y005738D03*
X004605Y005788D03*
X004605Y005822D03*
X004605Y005838D03*
X004588Y005872D03*
X004588Y005888D03*
X004588Y005922D03*
X004572Y005972D03*
X004572Y005988D03*
X004572Y006022D03*
X004572Y006038D03*
X003388Y006272D03*
X003372Y006288D03*
X003372Y006322D03*
X003355Y006338D03*
X003355Y006372D03*
X003355Y006388D03*
X003338Y006422D03*
X003338Y006438D03*
X003338Y006472D03*
X003338Y006488D03*
X003322Y006572D03*
X003322Y006588D03*
X003322Y006622D03*
X003322Y006638D03*
X003322Y006672D03*
X003322Y006688D03*
X003322Y006722D03*
X003322Y006738D03*
X003338Y006838D03*
X003338Y006872D03*
X003338Y006888D03*
X003338Y006922D03*
X003338Y006938D03*
X003355Y006972D03*
X003355Y006988D03*
X003355Y007022D03*
X003355Y007038D03*
X003372Y007072D03*
X003372Y007088D03*
X003372Y007122D03*
X003372Y007138D03*
X003388Y007172D03*
X003388Y007188D03*
X003405Y007238D03*
X003405Y007272D03*
X003405Y007288D03*
X003422Y007322D03*
X003422Y007338D03*
X003438Y007372D03*
X003438Y007388D03*
X003455Y007422D03*
X003455Y007438D03*
X003472Y007488D03*
X003488Y007538D03*
X003505Y007588D03*
X003522Y007638D03*
X003538Y007688D03*
X003555Y007738D03*
X003572Y007772D03*
X003572Y007788D03*
X003588Y007822D03*
X003588Y007838D03*
X003605Y007872D03*
X003622Y007922D03*
X003655Y007988D03*
X003672Y008022D03*
X003672Y008038D03*
X003688Y008072D03*
X003722Y008138D03*
X003938Y008572D03*
X005222Y008672D03*
X005222Y008688D03*
X005222Y008722D03*
X005222Y008738D03*
X005222Y008772D03*
X005205Y008872D03*
X005205Y008888D03*
X005222Y009022D03*
X005222Y009038D03*
X005222Y009072D03*
X005222Y009088D03*
X005238Y009172D03*
X005238Y009188D03*
X005255Y009222D03*
X005255Y009238D03*
X005255Y009272D03*
X005272Y009322D03*
X005272Y009338D03*
X005288Y009372D03*
X005288Y009388D03*
X005305Y009422D03*
X005305Y009438D03*
X005322Y009472D03*
X005338Y009522D03*
X005388Y009638D03*
X005405Y009672D03*
X005438Y009738D03*
X005238Y008638D03*
X005238Y008622D03*
X005238Y008588D03*
X005255Y008572D03*
X005255Y008538D03*
X005272Y008488D03*
X005288Y008438D03*
X005322Y008372D03*
X005338Y008322D03*
X005355Y008288D03*
X005388Y008222D03*
X005405Y008188D03*
X005438Y008122D03*
X005455Y008088D03*
X005488Y008022D03*
X005505Y007972D03*
X005522Y007938D03*
X005555Y007872D03*
X005572Y007822D03*
X005588Y007788D03*
X005605Y007738D03*
X005638Y007672D03*
X005655Y007622D03*
X005672Y007588D03*
X005672Y007572D03*
X005688Y007538D03*
X005705Y007488D03*
X005738Y007422D03*
X005755Y007372D03*
X005822Y007188D03*
X005838Y007138D03*
X005855Y007088D03*
X005872Y007072D03*
X005888Y007022D03*
X005905Y006972D03*
X005922Y006922D03*
X005938Y006888D03*
X005938Y006872D03*
X005955Y006838D03*
X005955Y006822D03*
X005972Y006788D03*
X005972Y006772D03*
X005988Y006738D03*
X005988Y006722D03*
X006005Y006688D03*
X006005Y006672D03*
X006022Y006638D03*
X006038Y006588D03*
X006055Y006538D03*
X006072Y006488D03*
X006088Y006438D03*
X006105Y006388D03*
X006122Y006338D03*
X006138Y006288D03*
X006155Y006238D03*
X006172Y006222D03*
X006172Y006188D03*
X006188Y006138D03*
X006205Y006088D03*
X006222Y006038D03*
X006238Y005988D03*
X006238Y005972D03*
X006255Y005938D03*
X006255Y005922D03*
X006272Y005888D03*
X006272Y005872D03*
X006288Y005838D03*
X006288Y005822D03*
X006305Y005788D03*
X006305Y005772D03*
X006322Y005738D03*
X006322Y005722D03*
X006338Y005688D03*
X006338Y005672D03*
X006355Y005638D03*
X006355Y005622D03*
X006372Y005588D03*
X006372Y005572D03*
X006388Y005538D03*
X006388Y005522D03*
X006405Y005488D03*
X006405Y005472D03*
X006422Y005438D03*
X006422Y005422D03*
X006438Y005388D03*
X006438Y005372D03*
X006455Y005322D03*
X006472Y005272D03*
X006472Y005238D03*
X006488Y005222D03*
X006488Y005188D03*
X006505Y005172D03*
X006505Y005138D03*
X006522Y005088D03*
X006522Y005072D03*
X006538Y005038D03*
X006538Y005022D03*
X007555Y008288D03*
X007538Y008322D03*
X007505Y008388D03*
X007488Y008422D03*
X007455Y008488D03*
X007438Y008522D03*
X007405Y008588D03*
X007388Y008622D03*
X007355Y008688D03*
X007338Y008722D03*
X007322Y008772D03*
X007288Y008838D03*
X007272Y008888D03*
X007255Y008922D03*
X007255Y008938D03*
X007238Y008972D03*
X007238Y008988D03*
X007222Y009038D03*
X007222Y009072D03*
X007222Y009088D03*
X007222Y009122D03*
X007222Y009138D03*
X007222Y009172D03*
X007222Y009188D03*
X007238Y009222D03*
X007288Y009422D03*
X007322Y009488D03*
X007338Y009522D03*
X006672Y012388D03*
X006655Y012422D03*
X006605Y012538D03*
X006588Y012572D03*
X006555Y012638D03*
X006538Y012688D03*
X006522Y012722D03*
X006522Y012738D03*
X006505Y012772D03*
X006505Y012788D03*
X006488Y012822D03*
X006488Y012838D03*
X006472Y012872D03*
X006472Y012888D03*
X006455Y012922D03*
X006455Y012938D03*
X006438Y012972D03*
X006438Y012988D03*
X006422Y013022D03*
X006422Y013038D03*
X006422Y013072D03*
X006405Y013088D03*
X006405Y013122D03*
X006405Y013138D03*
X006388Y013172D03*
X006388Y013188D03*
X006372Y013238D03*
X006372Y013272D03*
X006372Y013288D03*
X006355Y013322D03*
X006355Y013338D03*
X006355Y013372D03*
X006355Y013388D03*
X006338Y013422D03*
X006338Y013438D03*
X006338Y013472D03*
X006338Y013488D03*
X006322Y013572D03*
X006322Y013588D03*
X006322Y013622D03*
X006322Y013638D03*
X006322Y013672D03*
X006322Y013688D03*
X006305Y013822D03*
X006305Y013838D03*
X006305Y013872D03*
X006305Y013888D03*
X006305Y013922D03*
X006305Y013938D03*
X006305Y013972D03*
X006322Y014122D03*
X006322Y014138D03*
X006322Y014172D03*
X006322Y014188D03*
X006322Y014222D03*
X006322Y014238D03*
X006338Y014288D03*
X006338Y014322D03*
X006338Y014338D03*
X006338Y014372D03*
X006355Y014422D03*
X006355Y014438D03*
X006355Y014472D03*
X006355Y014488D03*
X006372Y014522D03*
X006372Y014538D03*
X006372Y014572D03*
X006388Y014622D03*
X006388Y014638D03*
X006405Y014672D03*
X006405Y014688D03*
X006405Y014722D03*
X006422Y014738D03*
X006422Y014772D03*
X006422Y014788D03*
X006438Y014822D03*
X006438Y014838D03*
X006455Y014872D03*
X006455Y014888D03*
X006472Y014922D03*
X006472Y014938D03*
X006488Y014972D03*
X006488Y014988D03*
X006505Y015022D03*
X006505Y015038D03*
X006522Y015072D03*
X006522Y015088D03*
X006538Y015122D03*
X006572Y015188D03*
X006588Y015238D03*
X006605Y015272D03*
X006738Y015538D03*
X003155Y017788D03*
X003138Y017772D03*
X003138Y018522D03*
X003138Y018538D03*
X002155Y018538D03*
X002155Y018522D03*
X002138Y017788D03*
X002155Y017772D03*
X001188Y019522D03*
X001205Y019538D03*
X001238Y019572D03*
X001255Y019588D03*
X013288Y012288D03*
X013388Y012488D03*
X013405Y012522D03*
X013438Y012588D03*
X013455Y012638D03*
X013472Y012672D03*
X013488Y012722D03*
X013505Y012772D03*
X013522Y012822D03*
X013538Y012872D03*
X013555Y012888D03*
X013555Y012922D03*
X013572Y012972D03*
X013572Y012988D03*
X013588Y013022D03*
X013588Y013038D03*
X013605Y013072D03*
X013605Y013088D03*
X013605Y013122D03*
X013622Y013138D03*
X013622Y013172D03*
X013622Y013188D03*
X013638Y013222D03*
X013638Y013238D03*
X013638Y013272D03*
X013655Y013288D03*
X013655Y013322D03*
X013655Y013338D03*
X013672Y013388D03*
X013672Y013422D03*
X013672Y013438D03*
X013672Y013472D03*
X013688Y013522D03*
X013688Y013538D03*
X013688Y013572D03*
X013688Y013588D03*
X013688Y013622D03*
X013688Y013638D03*
X013705Y013722D03*
X013705Y013738D03*
X013705Y013772D03*
X013705Y013788D03*
X013705Y013822D03*
X013705Y013838D03*
X013705Y013872D03*
X013705Y013888D03*
X013705Y013922D03*
X013705Y013938D03*
X013705Y013972D03*
X013705Y013988D03*
X013705Y014022D03*
X013705Y014038D03*
X013705Y014072D03*
X013705Y014088D03*
X013688Y014172D03*
X013688Y014188D03*
X013688Y014222D03*
X013688Y014238D03*
X013688Y014272D03*
X013688Y014288D03*
X013672Y014338D03*
X013672Y014372D03*
X013672Y014388D03*
X013672Y014422D03*
X013655Y014472D03*
X013655Y014488D03*
X013638Y014538D03*
X013638Y014572D03*
X013638Y014588D03*
X013622Y014622D03*
X013622Y014638D03*
X013622Y014672D03*
X013605Y014688D03*
X013605Y014722D03*
X013605Y014738D03*
X013588Y014772D03*
X013588Y014788D03*
X013572Y014822D03*
X013572Y014838D03*
X013555Y014872D03*
X013555Y014888D03*
X013538Y014938D03*
X013522Y014988D03*
X013505Y015038D03*
X013488Y015072D03*
X013488Y015088D03*
X013472Y015122D03*
X013472Y015138D03*
X013455Y015172D03*
X013405Y015288D03*
X013388Y015322D03*
X013355Y015388D03*
X013338Y015422D03*
X017638Y017788D03*
X017655Y017772D03*
X017655Y018522D03*
X017655Y018538D03*
X018638Y018538D03*
X018638Y018522D03*
X018655Y017788D03*
X018638Y017772D03*
X019605Y019522D03*
X019588Y019538D03*
X019555Y019572D03*
X019538Y019588D03*
X014738Y010172D03*
X014738Y010138D03*
X014755Y010122D03*
X014755Y010088D03*
X014755Y009922D03*
X014738Y009888D03*
X014088Y009588D03*
X014088Y009572D03*
X014088Y009538D03*
X014088Y009522D03*
X014088Y009488D03*
X014088Y009472D03*
X014088Y009438D03*
X014088Y009422D03*
X014105Y009388D03*
X014105Y009372D03*
X014105Y009338D03*
X014105Y009322D03*
X014122Y009272D03*
X014122Y009238D03*
X014122Y009222D03*
X014138Y009188D03*
X014138Y009172D03*
X014155Y009122D03*
X014172Y009072D03*
X014172Y009038D03*
X014188Y009022D03*
X014188Y008988D03*
X014205Y008972D03*
X014222Y008922D03*
X014238Y008872D03*
X014255Y008838D03*
X014255Y008822D03*
X014272Y008788D03*
X014305Y008722D03*
X014338Y008638D03*
X015805Y006588D03*
X015805Y006572D03*
X015805Y006538D03*
X015805Y006522D03*
X015788Y006438D03*
X015788Y006422D03*
X015788Y006388D03*
X015788Y006372D03*
X015788Y006338D03*
X015788Y006322D03*
X015772Y006238D03*
X015772Y006222D03*
X015772Y006188D03*
X015772Y006172D03*
X015772Y006138D03*
X015755Y006088D03*
X015755Y006072D03*
X015755Y006038D03*
X015755Y006022D03*
X015738Y005988D03*
X015738Y005972D03*
X015738Y005938D03*
X015738Y005922D03*
X015722Y005888D03*
X015722Y005872D03*
X015722Y005838D03*
X015705Y005788D03*
X015705Y005772D03*
X015688Y005722D03*
X015688Y005688D03*
X015688Y005672D03*
X015672Y005638D03*
X015672Y005622D03*
X015655Y005588D03*
X015655Y005572D03*
X015655Y005538D03*
X015638Y005522D03*
X015638Y005488D03*
X015638Y005472D03*
X015622Y005438D03*
X015622Y005422D03*
X015605Y005388D03*
X015605Y005372D03*
X015588Y005338D03*
X015588Y005322D03*
X015572Y005288D03*
X015572Y005272D03*
X015555Y005238D03*
X015555Y005222D03*
X015538Y005188D03*
X015538Y005172D03*
X015522Y005138D03*
X015522Y005122D03*
X015505Y005088D03*
X015505Y005072D03*
X015488Y005038D03*
X015472Y004988D03*
X015438Y004922D03*
X015422Y004872D03*
X015405Y004838D03*
X015355Y004722D03*
X015338Y004688D03*
X015305Y004622D03*
X015288Y004588D03*
X015255Y004522D03*
X015172Y004372D03*
X017888Y007038D03*
X017872Y007072D03*
X017855Y007122D03*
X017822Y007188D03*
X017805Y007222D03*
X017772Y007288D03*
X017755Y007322D03*
X017905Y006988D03*
X017922Y006938D03*
X017938Y006922D03*
X017955Y006872D03*
X017972Y006822D03*
X017972Y006788D03*
X017988Y006772D03*
X017988Y006738D03*
X018005Y006722D03*
X018005Y006688D03*
X018005Y006672D03*
X018022Y006638D03*
X018022Y006622D03*
X018022Y006588D03*
X018038Y006572D03*
X018038Y006538D03*
X018038Y006522D03*
X018038Y006488D03*
X018055Y006438D03*
X018055Y006422D03*
X018055Y006388D03*
X018055Y006372D03*
X018055Y006338D03*
X018055Y006322D03*
X018055Y006288D03*
X018055Y006272D03*
X018038Y006238D03*
X018038Y006222D03*
X018038Y006188D03*
X018038Y006172D03*
X018022Y006138D03*
X018022Y006122D03*
X018005Y006088D03*
X019655Y001338D03*
X019622Y001288D03*
X019605Y001272D03*
X019572Y001238D03*
X019555Y001222D03*
D38*
X019588Y001255D03*
X015455Y004955D03*
X015472Y005005D03*
X015488Y005055D03*
X015555Y005205D03*
X015572Y005255D03*
X015605Y005405D03*
X015622Y005455D03*
X015638Y005505D03*
X015655Y005555D03*
X015672Y005605D03*
X015672Y005655D03*
X015688Y005705D03*
X015705Y005755D03*
X015705Y005805D03*
X015722Y005855D03*
X015738Y005955D03*
X015755Y006055D03*
X015755Y006105D03*
X015772Y006155D03*
X015772Y006205D03*
X015788Y006305D03*
X015788Y006355D03*
X015788Y006405D03*
X015805Y006555D03*
X015388Y004805D03*
X015372Y004755D03*
X015322Y004655D03*
X015272Y004555D03*
X018022Y006155D03*
X018038Y006205D03*
X018055Y006255D03*
X018055Y006305D03*
X018055Y006355D03*
X018055Y006405D03*
X018038Y006505D03*
X018038Y006555D03*
X018022Y006605D03*
X018005Y006705D03*
X017988Y006755D03*
X017972Y006805D03*
X017955Y006855D03*
X017938Y006905D03*
X017922Y006955D03*
X017905Y007005D03*
X017838Y007155D03*
X017788Y007255D03*
X017738Y007355D03*
X014722Y009855D03*
X014738Y009905D03*
X014755Y010105D03*
X014738Y010155D03*
X014722Y010205D03*
X014088Y009555D03*
X014088Y009505D03*
X014088Y009455D03*
X014105Y009355D03*
X014105Y009305D03*
X014122Y009255D03*
X014138Y009205D03*
X014138Y009155D03*
X014155Y009105D03*
X014172Y009055D03*
X014188Y009005D03*
X014205Y008955D03*
X014222Y008905D03*
X014288Y008755D03*
X013422Y012555D03*
X013438Y012605D03*
X013488Y012705D03*
X013505Y012755D03*
X013522Y012805D03*
X013538Y012855D03*
X013555Y012905D03*
X013572Y012955D03*
X013588Y013005D03*
X013588Y013055D03*
X013605Y013105D03*
X013622Y013155D03*
X013638Y013205D03*
X013638Y013255D03*
X013655Y013305D03*
X013655Y013355D03*
X013672Y013405D03*
X013672Y013455D03*
X013688Y013505D03*
X013688Y013555D03*
X013688Y013605D03*
X013705Y013705D03*
X013705Y013755D03*
X013705Y013805D03*
X013705Y013855D03*
X013705Y013905D03*
X013705Y013955D03*
X013705Y014005D03*
X013705Y014055D03*
X013705Y014105D03*
X013688Y014205D03*
X013688Y014255D03*
X013672Y014355D03*
X013672Y014405D03*
X013655Y014455D03*
X013655Y014505D03*
X013638Y014555D03*
X013638Y014605D03*
X013622Y014655D03*
X013605Y014705D03*
X013588Y014755D03*
X013588Y014805D03*
X013572Y014855D03*
X013555Y014905D03*
X013538Y014955D03*
X013522Y015005D03*
X013505Y015055D03*
X013438Y015205D03*
X013422Y015255D03*
X013372Y015355D03*
X013322Y015455D03*
X017672Y017755D03*
X017638Y018505D03*
X017672Y018555D03*
X018622Y018555D03*
X018655Y018505D03*
X018622Y017755D03*
X019622Y019505D03*
X019572Y019555D03*
X007522Y008355D03*
X007572Y008255D03*
X007472Y008455D03*
X007422Y008555D03*
X007372Y008655D03*
X007305Y008805D03*
X007288Y008855D03*
X007272Y008905D03*
X007255Y008955D03*
X007238Y009005D03*
X007222Y009055D03*
X007222Y009105D03*
X007222Y009155D03*
X007288Y009405D03*
X007305Y009455D03*
X007355Y009555D03*
X005622Y007705D03*
X005638Y007655D03*
X005605Y007755D03*
X005555Y007855D03*
X005538Y007905D03*
X005472Y008055D03*
X005422Y008155D03*
X005372Y008255D03*
X005305Y008405D03*
X005288Y008455D03*
X005272Y008505D03*
X005255Y008555D03*
X005238Y008605D03*
X005238Y008655D03*
X005222Y008705D03*
X005222Y008755D03*
X005205Y008855D03*
X005205Y008905D03*
X005222Y009055D03*
X005222Y009105D03*
X005238Y009155D03*
X005238Y009205D03*
X005255Y009255D03*
X005272Y009305D03*
X005288Y009355D03*
X005305Y009405D03*
X005338Y009505D03*
X005355Y009555D03*
X005372Y009605D03*
X005422Y009705D03*
X003705Y008105D03*
X003638Y007955D03*
X003622Y007905D03*
X003555Y007755D03*
X003538Y007705D03*
X003522Y007655D03*
X003505Y007605D03*
X003488Y007555D03*
X003472Y007505D03*
X003455Y007455D03*
X003438Y007405D03*
X003438Y007355D03*
X003422Y007305D03*
X003405Y007255D03*
X003388Y007205D03*
X003388Y007155D03*
X003372Y007105D03*
X003355Y007055D03*
X003355Y007005D03*
X003338Y006905D03*
X003338Y006855D03*
X003322Y006755D03*
X003322Y006705D03*
X003322Y006655D03*
X003322Y006605D03*
X003322Y006555D03*
X003338Y006455D03*
X003355Y006355D03*
X003372Y006305D03*
X003388Y006255D03*
X004572Y006005D03*
X004572Y005955D03*
X004588Y005905D03*
X004605Y005805D03*
X004622Y005755D03*
X004622Y005705D03*
X004638Y005655D03*
X004655Y005605D03*
X004672Y005555D03*
X004672Y005505D03*
X004688Y005455D03*
X004705Y005405D03*
X004722Y005355D03*
X004738Y005305D03*
X004755Y005255D03*
X004772Y005205D03*
X004788Y005155D03*
X004805Y005105D03*
X004822Y005055D03*
X004838Y005005D03*
X004905Y004855D03*
X004922Y004805D03*
X004972Y004705D03*
X005022Y004605D03*
X005072Y004505D03*
X006438Y005355D03*
X006422Y005405D03*
X006405Y005455D03*
X006388Y005505D03*
X006372Y005555D03*
X006305Y005805D03*
X006288Y005855D03*
X006272Y005905D03*
X006255Y005955D03*
X006238Y006005D03*
X006222Y006055D03*
X006205Y006105D03*
X006188Y006155D03*
X006172Y006205D03*
X006155Y006255D03*
X006138Y006305D03*
X006122Y006355D03*
X006105Y006405D03*
X006088Y006455D03*
X006072Y006505D03*
X006055Y006555D03*
X006038Y006605D03*
X006022Y006655D03*
X006005Y006705D03*
X005988Y006755D03*
X005905Y006955D03*
X005888Y007005D03*
X005872Y007055D03*
X005855Y007105D03*
X005838Y007155D03*
X005738Y007405D03*
X005722Y007455D03*
X005705Y007505D03*
X006455Y005305D03*
X006472Y005255D03*
X006488Y005205D03*
X006505Y005155D03*
X006522Y005105D03*
X006538Y005055D03*
X006555Y005005D03*
X001205Y001255D03*
X006638Y012455D03*
X006572Y012605D03*
X006555Y012655D03*
X006472Y012855D03*
X006438Y013005D03*
X006422Y013055D03*
X006405Y013105D03*
X006388Y013155D03*
X006388Y013205D03*
X006372Y013255D03*
X006355Y013355D03*
X006338Y013455D03*
X006338Y013505D03*
X006322Y013555D03*
X006322Y013605D03*
X006322Y013655D03*
X006305Y013855D03*
X006305Y013905D03*
X006305Y013955D03*
X006322Y014105D03*
X006322Y014155D03*
X006322Y014205D03*
X006322Y014255D03*
X006338Y014305D03*
X006338Y014355D03*
X006355Y014455D03*
X006372Y014505D03*
X006372Y014555D03*
X006388Y014605D03*
X006388Y014655D03*
X006405Y014705D03*
X006422Y014755D03*
X006438Y014805D03*
X006455Y014855D03*
X006538Y015105D03*
X006555Y015155D03*
X006572Y015205D03*
X006622Y015305D03*
X003122Y017755D03*
X003155Y018505D03*
X003122Y018555D03*
X002172Y018555D03*
X002138Y018505D03*
X002172Y017755D03*
X001172Y019505D03*
X001222Y019555D03*
D39*
X001097Y019405D03*
X001047Y019305D03*
X002097Y017855D03*
X003164Y017805D03*
X003197Y017855D03*
X003214Y018405D03*
X006347Y014405D03*
X006314Y014055D03*
X006314Y014005D03*
X006314Y013805D03*
X006314Y013755D03*
X006314Y013705D03*
X006347Y013405D03*
X006364Y013305D03*
X005214Y009005D03*
X005214Y008955D03*
X005214Y008805D03*
X003347Y006955D03*
X003347Y006405D03*
X004597Y005855D03*
X001064Y001455D03*
X001097Y001405D03*
X001164Y001305D03*
X013697Y013655D03*
X013697Y014155D03*
X017597Y017855D03*
X018664Y017805D03*
X018697Y017855D03*
X018714Y018405D03*
X019747Y019305D03*
X019697Y019405D03*
X019664Y019455D03*
X014097Y009405D03*
X015797Y006505D03*
X015797Y006455D03*
X015747Y006005D03*
X018047Y006455D03*
X018014Y006655D03*
X019697Y001405D03*
X019664Y001355D03*
D40*
X019630Y001305D03*
X019730Y001455D03*
X015730Y005905D03*
X015780Y006255D03*
X013680Y014305D03*
X017630Y017805D03*
X017580Y018405D03*
X007230Y009205D03*
X003330Y006805D03*
X003330Y006505D03*
X001130Y001355D03*
X002130Y017805D03*
X002080Y018405D03*
X001130Y019455D03*
D41*
X001147Y019472D03*
X001164Y019488D03*
X001114Y019422D03*
X001064Y019338D03*
X002064Y018372D03*
X002097Y018438D03*
X002114Y018472D03*
X002114Y017838D03*
X002114Y017822D03*
X003214Y017888D03*
X003197Y018438D03*
X003164Y018488D03*
X006347Y014388D03*
X006314Y014088D03*
X006314Y014072D03*
X006314Y014038D03*
X006314Y014022D03*
X006314Y013988D03*
X006314Y013788D03*
X006314Y013772D03*
X006314Y013738D03*
X006314Y013722D03*
X005264Y009288D03*
X005214Y008988D03*
X005214Y008972D03*
X005214Y008938D03*
X005214Y008922D03*
X005214Y008838D03*
X005214Y008822D03*
X005214Y008788D03*
X003397Y007222D03*
X004614Y005772D03*
X001047Y001488D03*
X001097Y001388D03*
X001114Y001372D03*
X001147Y001322D03*
X013264Y011872D03*
X013664Y013372D03*
X013697Y013672D03*
X013697Y013688D03*
X013697Y014122D03*
X013697Y014138D03*
X013664Y014438D03*
X013647Y014522D03*
X017614Y017822D03*
X017614Y017838D03*
X017564Y018372D03*
X017597Y018438D03*
X017614Y018472D03*
X018664Y018488D03*
X018697Y018438D03*
X018714Y017888D03*
X019764Y019272D03*
X019714Y019372D03*
X019664Y019438D03*
X019647Y019472D03*
X014114Y009288D03*
X015797Y006488D03*
X015797Y006472D03*
X015764Y006122D03*
X015714Y005822D03*
X015697Y005738D03*
X018047Y006472D03*
X019764Y001522D03*
X019747Y001488D03*
X019714Y001422D03*
X019697Y001388D03*
X019647Y001322D03*
D42*
X019680Y001372D03*
X015780Y006272D03*
X015780Y006288D03*
X013680Y013488D03*
X013680Y014322D03*
X017580Y017888D03*
X017630Y018488D03*
X018680Y018472D03*
X018730Y018372D03*
X018680Y017838D03*
X018680Y017822D03*
X019730Y019338D03*
X019680Y019422D03*
X019630Y019488D03*
X007230Y009022D03*
X005230Y009122D03*
X005230Y009138D03*
X003330Y006822D03*
X003330Y006788D03*
X003330Y006772D03*
X003330Y006538D03*
X003330Y006522D03*
X004580Y005938D03*
X004630Y005688D03*
X001030Y001522D03*
X001080Y001422D03*
X006380Y013222D03*
X006330Y013522D03*
X006330Y013538D03*
X006330Y014272D03*
X006380Y014588D03*
X003180Y017822D03*
X003180Y017838D03*
X003230Y018372D03*
X003180Y018472D03*
X002130Y018488D03*
X002080Y017888D03*
X001030Y019272D03*
X001080Y019372D03*
X001130Y019438D03*
D43*
X001089Y019388D03*
X001039Y019288D03*
X001022Y019238D03*
X000989Y019172D03*
X000989Y019138D03*
X000972Y019088D03*
X000972Y019072D03*
X002072Y018388D03*
X002089Y018422D03*
X002039Y018288D03*
X002039Y018272D03*
X002022Y018222D03*
X002022Y018188D03*
X002022Y018172D03*
X002022Y018138D03*
X002022Y018122D03*
X002022Y018088D03*
X002039Y018038D03*
X002039Y018022D03*
X002039Y017988D03*
X002072Y017922D03*
X002089Y017872D03*
X003222Y017922D03*
X003239Y017938D03*
X003239Y017972D03*
X003272Y018088D03*
X003272Y018122D03*
X003272Y018138D03*
X003272Y018172D03*
X003272Y018188D03*
X003272Y018222D03*
X003239Y018322D03*
X003239Y018338D03*
X003222Y018388D03*
X017522Y018222D03*
X017522Y018188D03*
X017522Y018172D03*
X017522Y018138D03*
X017522Y018122D03*
X017522Y018088D03*
X017539Y018038D03*
X017539Y018022D03*
X017539Y017988D03*
X017572Y017922D03*
X017589Y017872D03*
X017539Y018272D03*
X017539Y018288D03*
X017572Y018388D03*
X017589Y018422D03*
X018722Y018388D03*
X018739Y018338D03*
X018739Y018322D03*
X018772Y018222D03*
X018772Y018188D03*
X018772Y018172D03*
X018772Y018138D03*
X018772Y018122D03*
X018772Y018088D03*
X018739Y017972D03*
X018739Y017938D03*
X018722Y017922D03*
X019839Y017922D03*
X019839Y017938D03*
X019839Y017972D03*
X019839Y017988D03*
X019839Y018022D03*
X019839Y018038D03*
X019839Y018072D03*
X019839Y018088D03*
X019839Y018122D03*
X019839Y018138D03*
X019839Y018172D03*
X019839Y018188D03*
X019839Y018222D03*
X019839Y018238D03*
X019839Y018272D03*
X019839Y018288D03*
X019839Y018322D03*
X019839Y018338D03*
X019839Y018372D03*
X019839Y018388D03*
X019839Y018422D03*
X019839Y018438D03*
X019839Y018472D03*
X019839Y018488D03*
X019839Y018522D03*
X019839Y018538D03*
X019839Y018572D03*
X019839Y018588D03*
X019839Y018622D03*
X019839Y018638D03*
X019839Y018672D03*
X019839Y018688D03*
X019839Y018722D03*
X019839Y018738D03*
X019839Y018772D03*
X019839Y018788D03*
X019839Y018822D03*
X019839Y018838D03*
X019839Y018872D03*
X019839Y018888D03*
X019839Y018922D03*
X019839Y018938D03*
X019839Y018972D03*
X019839Y018988D03*
X019822Y019072D03*
X019822Y019088D03*
X019789Y019188D03*
X019789Y019222D03*
X019772Y019238D03*
X019739Y019322D03*
X019839Y017888D03*
X019839Y017872D03*
X019839Y017838D03*
X019839Y017822D03*
X019839Y017788D03*
X019839Y017772D03*
X019839Y017738D03*
X019839Y017722D03*
X019839Y017688D03*
X019839Y017672D03*
X019839Y017638D03*
X019839Y017622D03*
X019839Y017588D03*
X019839Y017572D03*
X019839Y017538D03*
X019839Y017522D03*
X019839Y017488D03*
X019839Y017472D03*
X019839Y017438D03*
X019839Y017422D03*
X019839Y017388D03*
X019839Y017372D03*
X019839Y017338D03*
X019839Y017322D03*
X019839Y017288D03*
X019839Y017272D03*
X019839Y017238D03*
X019839Y017222D03*
X019839Y017188D03*
X019839Y017172D03*
X019839Y017138D03*
X019839Y017122D03*
X019839Y017088D03*
X019839Y017072D03*
X019839Y017038D03*
X019839Y017022D03*
X019839Y016988D03*
X019839Y016972D03*
X019839Y016938D03*
X019839Y016922D03*
X019839Y016888D03*
X019839Y016872D03*
X019839Y016838D03*
X019839Y016822D03*
X019839Y016788D03*
X019839Y016772D03*
X019839Y016738D03*
X019839Y016722D03*
X019839Y016688D03*
X019839Y016672D03*
X019839Y016638D03*
X019839Y016622D03*
X019839Y016588D03*
X019839Y016572D03*
X019839Y016538D03*
X019839Y016522D03*
X019839Y016488D03*
X019839Y016472D03*
X019839Y016438D03*
X019839Y016422D03*
X019839Y016388D03*
X019839Y016372D03*
X019839Y016338D03*
X019839Y016322D03*
X019839Y016288D03*
X019839Y016272D03*
X019839Y016238D03*
X019839Y016222D03*
X019839Y016188D03*
X019839Y016172D03*
X019839Y016138D03*
X019839Y016122D03*
X019839Y016088D03*
X019839Y016072D03*
X019839Y016038D03*
X019839Y016022D03*
X019839Y015988D03*
X019839Y015972D03*
X019839Y015938D03*
X019839Y015922D03*
X019839Y015888D03*
X019839Y015872D03*
X019839Y015838D03*
X019839Y015822D03*
X019839Y015788D03*
X019839Y015772D03*
X019839Y015738D03*
X019839Y015722D03*
X019839Y015688D03*
X019839Y015672D03*
X019839Y015638D03*
X019839Y015622D03*
X019839Y015588D03*
X019839Y015572D03*
X019839Y015538D03*
X019839Y015522D03*
X019839Y015488D03*
X019839Y015472D03*
X019839Y015438D03*
X019839Y015422D03*
X019839Y015388D03*
X019839Y015372D03*
X019839Y015338D03*
X019839Y015322D03*
X019839Y015288D03*
X019839Y015272D03*
X019839Y015238D03*
X019839Y015222D03*
X019839Y015188D03*
X019839Y015172D03*
X019839Y015138D03*
X019839Y015122D03*
X019839Y015088D03*
X019839Y015072D03*
X019839Y015038D03*
X019839Y015022D03*
X019839Y014988D03*
X019839Y014972D03*
X019839Y014938D03*
X019839Y014922D03*
X019839Y014888D03*
X019839Y014872D03*
X019839Y014838D03*
X019839Y014822D03*
X019839Y014788D03*
X019839Y014772D03*
X019839Y014738D03*
X019839Y014722D03*
X019839Y014688D03*
X019839Y014672D03*
X019839Y014638D03*
X019839Y014622D03*
X019839Y014588D03*
X019839Y014572D03*
X019839Y014538D03*
X019839Y014522D03*
X019839Y014488D03*
X019839Y014472D03*
X019839Y014438D03*
X019839Y014422D03*
X019839Y014388D03*
X019839Y014372D03*
X019839Y014338D03*
X019839Y014322D03*
X019839Y014288D03*
X019839Y014272D03*
X019839Y014238D03*
X019839Y014222D03*
X019839Y014188D03*
X019839Y014172D03*
X019839Y014138D03*
X019839Y014122D03*
X019839Y014088D03*
X019839Y014072D03*
X019839Y014038D03*
X019839Y014022D03*
X019839Y013988D03*
X019839Y013972D03*
X019839Y013938D03*
X019839Y013922D03*
X019839Y013888D03*
X019839Y013872D03*
X019839Y013838D03*
X019839Y013822D03*
X019839Y013788D03*
X019839Y013772D03*
X019839Y013738D03*
X019839Y013722D03*
X019839Y013688D03*
X019839Y013672D03*
X019839Y013638D03*
X019839Y013622D03*
X019839Y013588D03*
X019839Y013572D03*
X019839Y013538D03*
X019839Y013522D03*
X019839Y013488D03*
X019839Y013472D03*
X019839Y013438D03*
X019839Y013422D03*
X019839Y013388D03*
X019839Y013372D03*
X019839Y013338D03*
X019839Y013322D03*
X019839Y013288D03*
X019839Y013272D03*
X019839Y013238D03*
X019839Y013222D03*
X019839Y013188D03*
X019839Y013172D03*
X019839Y013138D03*
X019839Y013122D03*
X019839Y013088D03*
X019839Y013072D03*
X019839Y013038D03*
X019839Y013022D03*
X019839Y012988D03*
X019839Y012972D03*
X019839Y012938D03*
X019839Y012922D03*
X019839Y012888D03*
X019839Y012872D03*
X019839Y012838D03*
X019839Y012822D03*
X019839Y012788D03*
X019839Y012772D03*
X019839Y012738D03*
X019839Y012722D03*
X019839Y012688D03*
X019839Y012672D03*
X019839Y012638D03*
X019839Y012622D03*
X019839Y012588D03*
X019839Y012572D03*
X019839Y012538D03*
X019839Y012522D03*
X019839Y012488D03*
X019839Y012472D03*
X019839Y012438D03*
X019839Y012422D03*
X019839Y012388D03*
X019839Y012372D03*
X019839Y012338D03*
X019839Y012322D03*
X019839Y012288D03*
X019839Y012272D03*
X019839Y012238D03*
X019839Y012222D03*
X019839Y012188D03*
X019839Y012172D03*
X019839Y012138D03*
X019839Y012122D03*
X019839Y012088D03*
X019839Y012072D03*
X019839Y012038D03*
X019839Y012022D03*
X019839Y011988D03*
X019839Y011972D03*
X019839Y011938D03*
X019839Y011922D03*
X019839Y011888D03*
X019839Y011872D03*
X019839Y011838D03*
X019839Y011822D03*
X019839Y011788D03*
X019839Y011772D03*
X019839Y011738D03*
X019839Y011722D03*
X019839Y011688D03*
X019839Y011672D03*
X019839Y011638D03*
X019839Y011622D03*
X019839Y011588D03*
X019839Y011572D03*
X019839Y011538D03*
X019839Y011522D03*
X019839Y011488D03*
X019839Y011472D03*
X019839Y011438D03*
X019839Y011422D03*
X019839Y011388D03*
X019839Y011372D03*
X019839Y011338D03*
X019839Y011322D03*
X019839Y011288D03*
X019839Y011272D03*
X019839Y011238D03*
X019839Y011222D03*
X019839Y011188D03*
X019839Y011172D03*
X019839Y011138D03*
X019839Y011122D03*
X019839Y011088D03*
X019839Y011072D03*
X019839Y011038D03*
X019839Y011022D03*
X019839Y010988D03*
X019839Y010972D03*
X019839Y010938D03*
X019839Y010922D03*
X019839Y010888D03*
X019839Y010872D03*
X019839Y010838D03*
X019839Y010822D03*
X019839Y010788D03*
X019839Y010772D03*
X019839Y010738D03*
X019839Y010722D03*
X019839Y010688D03*
X019839Y010672D03*
X019839Y010638D03*
X019839Y010622D03*
X019839Y010588D03*
X019839Y010572D03*
X019839Y010538D03*
X019839Y010522D03*
X019839Y010488D03*
X019839Y010472D03*
X019839Y010438D03*
X019839Y010422D03*
X019839Y010388D03*
X019839Y010372D03*
X019839Y010338D03*
X019839Y010322D03*
X019839Y010288D03*
X019839Y010272D03*
X019839Y010238D03*
X019839Y010222D03*
X019839Y010188D03*
X019839Y010172D03*
X019839Y010138D03*
X019839Y010122D03*
X019839Y010088D03*
X019839Y010072D03*
X019839Y010038D03*
X019839Y010022D03*
X019839Y009988D03*
X019839Y009972D03*
X019839Y009938D03*
X019839Y009922D03*
X019839Y009888D03*
X019839Y009872D03*
X019839Y009838D03*
X019839Y009822D03*
X019839Y009788D03*
X019839Y009772D03*
X019839Y009738D03*
X019839Y009722D03*
X019839Y009688D03*
X019839Y009672D03*
X019839Y009638D03*
X019839Y009622D03*
X019839Y009588D03*
X019839Y009572D03*
X019839Y009538D03*
X019839Y009522D03*
X019839Y009488D03*
X019839Y009472D03*
X019839Y009438D03*
X019839Y009422D03*
X019839Y009388D03*
X019839Y009372D03*
X019839Y009338D03*
X019839Y009322D03*
X019839Y009288D03*
X019839Y009272D03*
X019839Y009238D03*
X019839Y009222D03*
X019839Y009188D03*
X019839Y009172D03*
X019839Y009138D03*
X019839Y009122D03*
X019839Y009088D03*
X019839Y009072D03*
X019839Y009038D03*
X019839Y009022D03*
X019839Y008988D03*
X019839Y008972D03*
X019839Y008938D03*
X019839Y008922D03*
X019839Y008888D03*
X019839Y008872D03*
X019839Y008838D03*
X019839Y008822D03*
X019839Y008788D03*
X019839Y008772D03*
X019839Y008738D03*
X019839Y008722D03*
X019839Y008688D03*
X019839Y008672D03*
X019839Y008638D03*
X019839Y008622D03*
X019839Y008588D03*
X019839Y008572D03*
X019839Y008538D03*
X019839Y008522D03*
X019839Y008488D03*
X019839Y008472D03*
X019839Y008438D03*
X019839Y008422D03*
X019839Y008388D03*
X019839Y008372D03*
X019839Y008338D03*
X019839Y008322D03*
X019839Y008288D03*
X019839Y008272D03*
X019839Y008238D03*
X019839Y008222D03*
X019839Y008188D03*
X019839Y008172D03*
X019839Y008138D03*
X019839Y008122D03*
X019839Y008088D03*
X019839Y008072D03*
X019839Y008038D03*
X019839Y008022D03*
X019839Y007988D03*
X019839Y007972D03*
X019839Y007938D03*
X019839Y007922D03*
X019839Y007888D03*
X019839Y007872D03*
X019839Y007838D03*
X019839Y007822D03*
X019839Y007788D03*
X019839Y007772D03*
X019839Y007738D03*
X019839Y007722D03*
X019839Y007688D03*
X019839Y007672D03*
X019839Y007638D03*
X019839Y007622D03*
X019839Y007588D03*
X019839Y007572D03*
X019839Y007538D03*
X019839Y007522D03*
X019839Y007488D03*
X019839Y007472D03*
X019839Y007438D03*
X019839Y007422D03*
X019839Y007388D03*
X019839Y007372D03*
X019839Y007338D03*
X019839Y007322D03*
X019839Y007288D03*
X019839Y007272D03*
X019839Y007238D03*
X019839Y007222D03*
X019839Y007188D03*
X019839Y007172D03*
X019839Y007138D03*
X019839Y007122D03*
X019839Y007088D03*
X019839Y007072D03*
X019839Y007038D03*
X019839Y007022D03*
X019839Y006988D03*
X019839Y006972D03*
X019839Y006938D03*
X019839Y006922D03*
X019839Y006888D03*
X019839Y006872D03*
X019839Y006838D03*
X019839Y006822D03*
X019839Y006788D03*
X019839Y006772D03*
X019839Y006738D03*
X019839Y006722D03*
X019839Y006688D03*
X019839Y006672D03*
X019839Y006638D03*
X019839Y006622D03*
X019839Y006588D03*
X019839Y006572D03*
X019839Y006538D03*
X019839Y006522D03*
X019839Y006488D03*
X019839Y006472D03*
X019839Y006438D03*
X019839Y006422D03*
X019839Y006388D03*
X019839Y006372D03*
X019839Y006338D03*
X019839Y006322D03*
X019839Y006288D03*
X019839Y006272D03*
X019839Y006238D03*
X019839Y006222D03*
X019839Y006188D03*
X019839Y006172D03*
X019839Y006138D03*
X019839Y006122D03*
X019839Y006088D03*
X019839Y006072D03*
X019839Y006038D03*
X019839Y006022D03*
X019839Y005988D03*
X019839Y005972D03*
X019839Y005938D03*
X019839Y005922D03*
X019839Y005888D03*
X019839Y005872D03*
X019839Y005838D03*
X019839Y005822D03*
X019839Y005788D03*
X019839Y005772D03*
X019839Y005738D03*
X019839Y005722D03*
X019839Y005688D03*
X019839Y005672D03*
X019839Y005638D03*
X019839Y005622D03*
X019839Y005588D03*
X019839Y005572D03*
X019839Y005538D03*
X019839Y005522D03*
X019839Y005488D03*
X019839Y005472D03*
X019839Y005438D03*
X019839Y005422D03*
X019839Y005388D03*
X019839Y005372D03*
X019839Y005338D03*
X019839Y005322D03*
X019839Y005288D03*
X019839Y005272D03*
X019839Y005238D03*
X019839Y005222D03*
X019839Y005188D03*
X019839Y005172D03*
X019839Y005138D03*
X019839Y005122D03*
X019839Y005088D03*
X019839Y005072D03*
X019839Y005038D03*
X019839Y005022D03*
X019839Y004988D03*
X019839Y004972D03*
X019839Y004938D03*
X019839Y004922D03*
X019839Y004888D03*
X019839Y004872D03*
X019839Y004838D03*
X019839Y004822D03*
X019839Y004788D03*
X019839Y004772D03*
X019839Y004738D03*
X019839Y004722D03*
X019839Y004688D03*
X019839Y004672D03*
X019839Y004638D03*
X019839Y004622D03*
X019839Y004588D03*
X019839Y004572D03*
X019839Y004538D03*
X019839Y004522D03*
X019839Y004488D03*
X019839Y004472D03*
X019839Y004438D03*
X019839Y004422D03*
X019839Y004388D03*
X019839Y004372D03*
X019839Y004338D03*
X019839Y004322D03*
X019839Y004288D03*
X019839Y004272D03*
X019839Y004238D03*
X019839Y004222D03*
X019839Y004188D03*
X019839Y004172D03*
X019839Y004138D03*
X019839Y004122D03*
X019839Y004088D03*
X019839Y004072D03*
X019839Y004038D03*
X019839Y004022D03*
X019839Y003988D03*
X019839Y003972D03*
X019839Y003938D03*
X019839Y003922D03*
X019839Y003888D03*
X019839Y003872D03*
X019839Y003838D03*
X019839Y003822D03*
X019839Y003788D03*
X019839Y003772D03*
X019839Y003738D03*
X019839Y003722D03*
X019839Y003688D03*
X019839Y003672D03*
X019839Y003638D03*
X019839Y003622D03*
X019839Y003588D03*
X019839Y003572D03*
X019839Y003538D03*
X019839Y003522D03*
X019839Y003488D03*
X019839Y003472D03*
X019839Y003438D03*
X019839Y003422D03*
X019839Y003388D03*
X019839Y003372D03*
X019839Y003338D03*
X019839Y003322D03*
X019839Y003288D03*
X019839Y003272D03*
X019839Y003238D03*
X019839Y003222D03*
X019839Y003188D03*
X019839Y003172D03*
X019839Y003138D03*
X019839Y003122D03*
X019839Y003088D03*
X019839Y003072D03*
X019839Y003038D03*
X019839Y003022D03*
X019839Y002988D03*
X019839Y002972D03*
X019839Y002938D03*
X019839Y002922D03*
X019839Y002888D03*
X019839Y002872D03*
X019839Y002838D03*
X019839Y002822D03*
X019839Y002788D03*
X019839Y002772D03*
X019839Y002738D03*
X019839Y002722D03*
X019839Y002688D03*
X019839Y002672D03*
X019839Y002638D03*
X019839Y002622D03*
X019839Y002588D03*
X019839Y002572D03*
X019839Y002538D03*
X019839Y002522D03*
X019839Y002488D03*
X019839Y002472D03*
X019839Y002438D03*
X019839Y002422D03*
X019839Y002388D03*
X019839Y002372D03*
X019839Y002338D03*
X019839Y002322D03*
X019839Y002288D03*
X019839Y002272D03*
X019839Y002238D03*
X019839Y002222D03*
X019839Y002188D03*
X019839Y002172D03*
X019839Y002138D03*
X019839Y002122D03*
X019839Y002088D03*
X019839Y002072D03*
X019839Y002038D03*
X019839Y002022D03*
X019839Y001988D03*
X019839Y001972D03*
X019839Y001938D03*
X019839Y001922D03*
X019839Y001888D03*
X019839Y001872D03*
X019839Y001838D03*
X019839Y001822D03*
X019839Y001788D03*
X019822Y001738D03*
X019822Y001722D03*
X019822Y001688D03*
X019789Y001588D03*
X019789Y001572D03*
X019772Y001538D03*
X019739Y001472D03*
X019722Y001438D03*
X001072Y001438D03*
X001022Y001538D03*
X000989Y001622D03*
X000989Y001638D03*
X000972Y001688D03*
X000972Y001722D03*
X000972Y001738D03*
D44*
X000955Y001788D03*
X000955Y001822D03*
X000955Y001838D03*
X000955Y001872D03*
X000955Y001888D03*
X000955Y001922D03*
X000955Y001938D03*
X000955Y001972D03*
X000955Y001988D03*
X000955Y002022D03*
X000955Y002038D03*
X000955Y002072D03*
X000955Y002088D03*
X000955Y002122D03*
X000955Y002138D03*
X000955Y002172D03*
X000955Y002188D03*
X000955Y002222D03*
X000955Y002238D03*
X000955Y002272D03*
X000955Y002288D03*
X000955Y002322D03*
X000955Y002338D03*
X000955Y002372D03*
X000955Y002388D03*
X000955Y002422D03*
X000955Y002438D03*
X000955Y002472D03*
X000955Y002488D03*
X000955Y002522D03*
X000955Y002538D03*
X000955Y002572D03*
X000955Y002588D03*
X000955Y002622D03*
X000955Y002638D03*
X000955Y002672D03*
X000955Y002688D03*
X000955Y002722D03*
X000955Y002738D03*
X000955Y002772D03*
X000955Y002788D03*
X000955Y002822D03*
X000955Y002838D03*
X000955Y002872D03*
X000955Y002888D03*
X000955Y002922D03*
X000955Y002938D03*
X000955Y002972D03*
X000955Y002988D03*
X000955Y003022D03*
X000955Y003038D03*
X000955Y003072D03*
X000955Y003088D03*
X000955Y003122D03*
X000955Y003138D03*
X000955Y003172D03*
X000955Y003188D03*
X000955Y003222D03*
X000955Y003238D03*
X000955Y003272D03*
X000955Y003288D03*
X000955Y003322D03*
X000955Y003338D03*
X000955Y003372D03*
X000955Y003388D03*
X000955Y003422D03*
X000955Y003438D03*
X000955Y003472D03*
X000955Y003488D03*
X000955Y003522D03*
X000955Y003538D03*
X000955Y003572D03*
X000955Y003588D03*
X000955Y003622D03*
X000955Y003638D03*
X000955Y003672D03*
X000955Y003688D03*
X000955Y003722D03*
X000955Y003738D03*
X000955Y003772D03*
X000955Y003788D03*
X000955Y003822D03*
X000955Y003838D03*
X000955Y003872D03*
X000955Y003888D03*
X000955Y003922D03*
X000955Y003938D03*
X000955Y003972D03*
X000955Y003988D03*
X000955Y004022D03*
X000955Y004038D03*
X000955Y004072D03*
X000955Y004088D03*
X000955Y004122D03*
X000955Y004138D03*
X000955Y004172D03*
X000955Y004188D03*
X000955Y004222D03*
X000955Y004238D03*
X000955Y004272D03*
X000955Y004288D03*
X000955Y004322D03*
X000955Y004338D03*
X000955Y004372D03*
X000955Y004388D03*
X000955Y004422D03*
X000955Y004438D03*
X000955Y004472D03*
X000955Y004488D03*
X000955Y004522D03*
X000955Y004538D03*
X000955Y004572D03*
X000955Y004588D03*
X000955Y004622D03*
X000955Y004638D03*
X000955Y004672D03*
X000955Y004688D03*
X000955Y004722D03*
X000955Y004738D03*
X000955Y004772D03*
X000955Y004788D03*
X000955Y004822D03*
X000955Y004838D03*
X000955Y004872D03*
X000955Y004888D03*
X000955Y004922D03*
X000955Y004938D03*
X000955Y004972D03*
X000955Y004988D03*
X000955Y005022D03*
X000955Y005038D03*
X000955Y005072D03*
X000955Y005088D03*
X000955Y005122D03*
X000955Y005138D03*
X000955Y005172D03*
X000955Y005188D03*
X000955Y005222D03*
X000955Y005238D03*
X000955Y005272D03*
X000955Y005288D03*
X000955Y005322D03*
X000955Y005338D03*
X000955Y005372D03*
X000955Y005388D03*
X000955Y005422D03*
X000955Y005438D03*
X000955Y005472D03*
X000955Y005488D03*
X000955Y005522D03*
X000955Y005538D03*
X000955Y005572D03*
X000955Y005588D03*
X000955Y005622D03*
X000955Y005638D03*
X000955Y005672D03*
X000955Y005688D03*
X000955Y005722D03*
X000955Y005738D03*
X000955Y005772D03*
X000955Y005788D03*
X000955Y005822D03*
X000955Y005838D03*
X000955Y005872D03*
X000955Y005888D03*
X000955Y005922D03*
X000955Y005938D03*
X000955Y005972D03*
X000955Y005988D03*
X000955Y006022D03*
X000955Y006038D03*
X000955Y006072D03*
X000955Y006088D03*
X000955Y006122D03*
X000955Y006138D03*
X000955Y006172D03*
X000955Y006188D03*
X000955Y006222D03*
X000955Y006238D03*
X000955Y006272D03*
X000955Y006288D03*
X000955Y006322D03*
X000955Y006338D03*
X000955Y006372D03*
X000955Y006388D03*
X000955Y006422D03*
X000955Y006438D03*
X000955Y006472D03*
X000955Y006488D03*
X000955Y006522D03*
X000955Y006538D03*
X000955Y006572D03*
X000955Y006588D03*
X000955Y006622D03*
X000955Y006638D03*
X000955Y006672D03*
X000955Y006688D03*
X000955Y006722D03*
X000955Y006738D03*
X000955Y006772D03*
X000955Y006788D03*
X000955Y006822D03*
X000955Y006838D03*
X000955Y006872D03*
X000955Y006888D03*
X000955Y006922D03*
X000955Y006938D03*
X000955Y006972D03*
X000955Y006988D03*
X000955Y007022D03*
X000955Y007038D03*
X000955Y007072D03*
X000955Y007088D03*
X000955Y007122D03*
X000955Y007138D03*
X000955Y007172D03*
X000955Y007188D03*
X000955Y007222D03*
X000955Y007238D03*
X000955Y007272D03*
X000955Y007288D03*
X000955Y007322D03*
X000955Y007338D03*
X000955Y007372D03*
X000955Y007388D03*
X000955Y007422D03*
X000955Y007438D03*
X000955Y007472D03*
X000955Y007488D03*
X000955Y007522D03*
X000955Y007538D03*
X000955Y007572D03*
X000955Y007588D03*
X000955Y007622D03*
X000955Y007638D03*
X000955Y007672D03*
X000955Y007688D03*
X000955Y007722D03*
X000955Y007738D03*
X000955Y007772D03*
X000955Y007788D03*
X000955Y007822D03*
X000955Y007838D03*
X000955Y007872D03*
X000955Y007888D03*
X000955Y007922D03*
X000955Y007938D03*
X000955Y007972D03*
X000955Y007988D03*
X000955Y008022D03*
X000955Y008038D03*
X000955Y008072D03*
X000955Y008088D03*
X000955Y008122D03*
X000955Y008138D03*
X000955Y008172D03*
X000955Y008188D03*
X000955Y008222D03*
X000955Y008238D03*
X000955Y008272D03*
X000955Y008288D03*
X000955Y008322D03*
X000955Y008338D03*
X000955Y008372D03*
X000955Y008388D03*
X000955Y008422D03*
X000955Y008438D03*
X000955Y008472D03*
X000955Y008488D03*
X000955Y008522D03*
X000955Y008538D03*
X000955Y008572D03*
X000955Y008588D03*
X000955Y008622D03*
X000955Y008638D03*
X000955Y008672D03*
X000955Y008688D03*
X000955Y008722D03*
X000955Y008738D03*
X000955Y008772D03*
X000955Y008788D03*
X000955Y008822D03*
X000955Y008838D03*
X000955Y008872D03*
X000955Y008888D03*
X000955Y008922D03*
X000955Y008938D03*
X000955Y008972D03*
X000955Y008988D03*
X000955Y009022D03*
X000955Y009038D03*
X000955Y009072D03*
X000955Y009088D03*
X000955Y009122D03*
X000955Y009138D03*
X000955Y009172D03*
X000955Y009188D03*
X000955Y009222D03*
X000955Y009238D03*
X000955Y009272D03*
X000955Y009288D03*
X000955Y009322D03*
X000955Y009338D03*
X000955Y009372D03*
X000955Y009388D03*
X000955Y009422D03*
X000955Y009438D03*
X000955Y009472D03*
X000955Y009488D03*
X000955Y009522D03*
X000955Y009538D03*
X000955Y009572D03*
X000955Y009588D03*
X000955Y009622D03*
X000955Y009638D03*
X000955Y009672D03*
X000955Y009688D03*
X000955Y009722D03*
X000955Y009738D03*
X000955Y009772D03*
X000955Y009788D03*
X000955Y009822D03*
X000955Y009838D03*
X000955Y009872D03*
X000955Y009888D03*
X000955Y009922D03*
X000955Y009938D03*
X000955Y009972D03*
X000955Y009988D03*
X000955Y010022D03*
X000955Y010038D03*
X000955Y010072D03*
X000955Y010088D03*
X000955Y010122D03*
X000955Y010138D03*
X000955Y010172D03*
X000955Y010188D03*
X000955Y010222D03*
X000955Y010238D03*
X000955Y010272D03*
X000955Y010288D03*
X000955Y010322D03*
X000955Y010338D03*
X000955Y010372D03*
X000955Y010388D03*
X000955Y010422D03*
X000955Y010438D03*
X000955Y010472D03*
X000955Y010488D03*
X000955Y010522D03*
X000955Y010538D03*
X000955Y010572D03*
X000955Y010588D03*
X000955Y010622D03*
X000955Y010638D03*
X000955Y010672D03*
X000955Y010688D03*
X000955Y010722D03*
X000955Y010738D03*
X000955Y010772D03*
X000955Y010788D03*
X000955Y010822D03*
X000955Y010838D03*
X000955Y010872D03*
X000955Y010888D03*
X000955Y010922D03*
X000955Y010938D03*
X000955Y010972D03*
X000955Y010988D03*
X000955Y011022D03*
X000955Y011038D03*
X000955Y011072D03*
X000955Y011088D03*
X000955Y011122D03*
X000955Y011138D03*
X000955Y011172D03*
X000955Y011188D03*
X000955Y011222D03*
X000955Y011238D03*
X000955Y011272D03*
X000955Y011288D03*
X000955Y011322D03*
X000955Y011338D03*
X000955Y011372D03*
X000955Y011388D03*
X000955Y011422D03*
X000955Y011438D03*
X000955Y011472D03*
X000955Y011488D03*
X000955Y011522D03*
X000955Y011538D03*
X000955Y011572D03*
X000955Y011588D03*
X000955Y011622D03*
X000955Y011638D03*
X000955Y011672D03*
X000955Y011688D03*
X000955Y011722D03*
X000955Y011738D03*
X000955Y011772D03*
X000955Y011788D03*
X000955Y011822D03*
X000955Y011838D03*
X000955Y011872D03*
X000955Y011888D03*
X000955Y011922D03*
X000955Y011938D03*
X000955Y011972D03*
X000955Y011988D03*
X000955Y012022D03*
X000955Y012038D03*
X000955Y012072D03*
X000955Y012088D03*
X000955Y012122D03*
X000955Y012138D03*
X000955Y012172D03*
X000955Y012188D03*
X000955Y012222D03*
X000955Y012238D03*
X000955Y012272D03*
X000955Y012288D03*
X000955Y012322D03*
X000955Y012338D03*
X000955Y012372D03*
X000955Y012388D03*
X000955Y012422D03*
X000955Y012438D03*
X000955Y012472D03*
X000955Y012488D03*
X000955Y012522D03*
X000955Y012538D03*
X000955Y012572D03*
X000955Y012588D03*
X000955Y012622D03*
X000955Y012638D03*
X000955Y012672D03*
X000955Y012688D03*
X000955Y012722D03*
X000955Y012738D03*
X000955Y012772D03*
X000955Y012788D03*
X000955Y012822D03*
X000955Y012838D03*
X000955Y012872D03*
X000955Y012888D03*
X000955Y012922D03*
X000955Y012938D03*
X000955Y012972D03*
X000955Y012988D03*
X000955Y013022D03*
X000955Y013038D03*
X000955Y013072D03*
X000955Y013088D03*
X000955Y013122D03*
X000955Y013138D03*
X000955Y013172D03*
X000955Y013188D03*
X000955Y013222D03*
X000955Y013238D03*
X000955Y013272D03*
X000955Y013288D03*
X000955Y013322D03*
X000955Y013338D03*
X000955Y013372D03*
X000955Y013388D03*
X000955Y013422D03*
X000955Y013438D03*
X000955Y013472D03*
X000955Y013488D03*
X000955Y013522D03*
X000955Y013538D03*
X000955Y013572D03*
X000955Y013588D03*
X000955Y013622D03*
X000955Y013638D03*
X000955Y013672D03*
X000955Y013688D03*
X000955Y013722D03*
X000955Y013738D03*
X000955Y013772D03*
X000955Y013788D03*
X000955Y013822D03*
X000955Y013838D03*
X000955Y013872D03*
X000955Y013888D03*
X000955Y013922D03*
X000955Y013938D03*
X000955Y013972D03*
X000955Y013988D03*
X000955Y014022D03*
X000955Y014038D03*
X000955Y014072D03*
X000955Y014088D03*
X000955Y014122D03*
X000955Y014138D03*
X000955Y014172D03*
X000955Y014188D03*
X000955Y014222D03*
X000955Y014238D03*
X000955Y014272D03*
X000955Y014288D03*
X000955Y014322D03*
X000955Y014338D03*
X000955Y014372D03*
X000955Y014388D03*
X000955Y014422D03*
X000955Y014438D03*
X000955Y014472D03*
X000955Y014488D03*
X000955Y014522D03*
X000955Y014538D03*
X000955Y014572D03*
X000955Y014588D03*
X000955Y014622D03*
X000955Y014638D03*
X000955Y014672D03*
X000955Y014688D03*
X000955Y014722D03*
X000955Y014738D03*
X000955Y014772D03*
X000955Y014788D03*
X000955Y014822D03*
X000955Y014838D03*
X000955Y014872D03*
X000955Y014888D03*
X000955Y014922D03*
X000955Y014938D03*
X000955Y014972D03*
X000955Y014988D03*
X000955Y015022D03*
X000955Y015038D03*
X000955Y015072D03*
X000955Y015088D03*
X000955Y015122D03*
X000955Y015138D03*
X000955Y015172D03*
X000955Y015188D03*
X000955Y015222D03*
X000955Y015238D03*
X000955Y015272D03*
X000955Y015288D03*
X000955Y015322D03*
X000955Y015338D03*
X000955Y015372D03*
X000955Y015388D03*
X000955Y015422D03*
X000955Y015438D03*
X000955Y015472D03*
X000955Y015488D03*
X000955Y015522D03*
X000955Y015538D03*
X000955Y015572D03*
X000955Y015588D03*
X000955Y015622D03*
X000955Y015638D03*
X000955Y015672D03*
X000955Y015688D03*
X000955Y015722D03*
X000955Y015738D03*
X000955Y015772D03*
X000955Y015788D03*
X000955Y015822D03*
X000955Y015838D03*
X000955Y015872D03*
X000955Y015888D03*
X000955Y015922D03*
X000955Y015938D03*
X000955Y015972D03*
X000955Y015988D03*
X000955Y016022D03*
X000955Y016038D03*
X000955Y016072D03*
X000955Y016088D03*
X000955Y016122D03*
X000955Y016138D03*
X000955Y016172D03*
X000955Y016188D03*
X000955Y016222D03*
X000955Y016238D03*
X000955Y016272D03*
X000955Y016288D03*
X000955Y016322D03*
X000955Y016338D03*
X000955Y016372D03*
X000955Y016388D03*
X000955Y016422D03*
X000955Y016438D03*
X000955Y016472D03*
X000955Y016488D03*
X000955Y016522D03*
X000955Y016538D03*
X000955Y016572D03*
X000955Y016588D03*
X000955Y016622D03*
X000955Y016638D03*
X000955Y016672D03*
X000955Y016688D03*
X000955Y016722D03*
X000955Y016738D03*
X000955Y016772D03*
X000955Y016788D03*
X000955Y016822D03*
X000955Y016838D03*
X000955Y016872D03*
X000955Y016888D03*
X000955Y016922D03*
X000955Y016938D03*
X000955Y016972D03*
X000955Y016988D03*
X000955Y017022D03*
X000955Y017038D03*
X000955Y017072D03*
X000955Y017088D03*
X000955Y017122D03*
X000955Y017138D03*
X000955Y017172D03*
X000955Y017188D03*
X000955Y017222D03*
X000955Y017238D03*
X000955Y017272D03*
X000955Y017288D03*
X000955Y017322D03*
X000955Y017338D03*
X000955Y017372D03*
X000955Y017388D03*
X000955Y017422D03*
X000955Y017438D03*
X000955Y017472D03*
X000955Y017488D03*
X000955Y017522D03*
X000955Y017538D03*
X000955Y017572D03*
X000955Y017588D03*
X000955Y017622D03*
X000955Y017638D03*
X000955Y017672D03*
X000955Y017688D03*
X000955Y017722D03*
X000955Y017738D03*
X000955Y017772D03*
X000955Y017788D03*
X000955Y017822D03*
X000955Y017838D03*
X000955Y017872D03*
X000955Y017888D03*
X000955Y017922D03*
X000955Y017938D03*
X000955Y017972D03*
X000955Y017988D03*
X000955Y018022D03*
X000955Y018038D03*
X000955Y018072D03*
X000955Y018088D03*
X000955Y018122D03*
X000955Y018138D03*
X000955Y018172D03*
X000955Y018188D03*
X000955Y018222D03*
X000955Y018238D03*
X000955Y018272D03*
X000955Y018288D03*
X000955Y018322D03*
X000955Y018338D03*
X000955Y018372D03*
X000955Y018388D03*
X000955Y018422D03*
X000955Y018438D03*
X000955Y018472D03*
X000955Y018488D03*
X000955Y018522D03*
X000955Y018538D03*
X000955Y018572D03*
X000955Y018588D03*
X000955Y018622D03*
X000955Y018638D03*
X000955Y018672D03*
X000955Y018688D03*
X000955Y018722D03*
X000955Y018738D03*
X000955Y018772D03*
X000955Y018788D03*
X000955Y018822D03*
X000955Y018838D03*
X000955Y018872D03*
X000955Y018888D03*
X000955Y018922D03*
X000955Y018938D03*
X000955Y018972D03*
X000955Y018988D03*
X001005Y019188D03*
X001005Y019222D03*
X001055Y019322D03*
X002055Y018338D03*
X002055Y018322D03*
X002055Y017972D03*
X002055Y017938D03*
X003205Y017872D03*
X003255Y017988D03*
X003255Y018022D03*
X003255Y018038D03*
X003255Y018272D03*
X003255Y018288D03*
X003205Y018422D03*
X017555Y018338D03*
X017555Y018322D03*
X017555Y017972D03*
X017555Y017938D03*
X018705Y017872D03*
X018755Y017988D03*
X018755Y018022D03*
X018755Y018038D03*
X018755Y018272D03*
X018755Y018288D03*
X018705Y018422D03*
X019755Y019288D03*
X019705Y019388D03*
X019805Y019172D03*
X019805Y019138D03*
X019805Y001638D03*
X019805Y001622D03*
X001055Y001472D03*
X001005Y001572D03*
X001005Y001588D03*
D45*
X001022Y001555D03*
X001039Y001505D03*
X000989Y001655D03*
X000972Y001705D03*
X002072Y017905D03*
X002039Y018005D03*
X002039Y018055D03*
X002022Y018105D03*
X002022Y018155D03*
X002022Y018205D03*
X002039Y018255D03*
X002039Y018305D03*
X000972Y019055D03*
X000972Y019105D03*
X000989Y019155D03*
X001022Y019255D03*
X001072Y019355D03*
X003189Y018455D03*
X003239Y018355D03*
X003272Y018205D03*
X003272Y018155D03*
X003272Y018105D03*
X003239Y017955D03*
X003222Y017905D03*
X017522Y018105D03*
X017522Y018155D03*
X017522Y018205D03*
X017539Y018255D03*
X017539Y018305D03*
X017539Y018055D03*
X017539Y018005D03*
X017572Y017905D03*
X018722Y017905D03*
X018739Y017955D03*
X018772Y018105D03*
X018772Y018155D03*
X018772Y018205D03*
X018739Y018355D03*
X018689Y018455D03*
X019722Y019355D03*
X019772Y019255D03*
X019789Y019205D03*
X019822Y019105D03*
X019822Y019055D03*
X019839Y019005D03*
X019839Y018955D03*
X019839Y018905D03*
X019839Y018855D03*
X019839Y018805D03*
X019839Y018755D03*
X019839Y018705D03*
X019839Y018655D03*
X019839Y018605D03*
X019839Y018555D03*
X019839Y018505D03*
X019839Y018455D03*
X019839Y018405D03*
X019839Y018355D03*
X019839Y018305D03*
X019839Y018255D03*
X019839Y018205D03*
X019839Y018155D03*
X019839Y018105D03*
X019839Y018055D03*
X019839Y018005D03*
X019839Y017955D03*
X019839Y017905D03*
X019839Y017855D03*
X019839Y017805D03*
X019839Y017755D03*
X019839Y017705D03*
X019839Y017655D03*
X019839Y017605D03*
X019839Y017555D03*
X019839Y017505D03*
X019839Y017455D03*
X019839Y017405D03*
X019839Y017355D03*
X019839Y017305D03*
X019839Y017255D03*
X019839Y017205D03*
X019839Y017155D03*
X019839Y017105D03*
X019839Y017055D03*
X019839Y017005D03*
X019839Y016955D03*
X019839Y016905D03*
X019839Y016855D03*
X019839Y016805D03*
X019839Y016755D03*
X019839Y016705D03*
X019839Y016655D03*
X019839Y016605D03*
X019839Y016555D03*
X019839Y016505D03*
X019839Y016455D03*
X019839Y016405D03*
X019839Y016355D03*
X019839Y016305D03*
X019839Y016255D03*
X019839Y016205D03*
X019839Y016155D03*
X019839Y016105D03*
X019839Y016055D03*
X019839Y016005D03*
X019839Y015955D03*
X019839Y015905D03*
X019839Y015855D03*
X019839Y015805D03*
X019839Y015755D03*
X019839Y015705D03*
X019839Y015655D03*
X019839Y015605D03*
X019839Y015555D03*
X019839Y015505D03*
X019839Y015455D03*
X019839Y015405D03*
X019839Y015355D03*
X019839Y015305D03*
X019839Y015255D03*
X019839Y015205D03*
X019839Y015155D03*
X019839Y015105D03*
X019839Y015055D03*
X019839Y015005D03*
X019839Y014955D03*
X019839Y014905D03*
X019839Y014855D03*
X019839Y014805D03*
X019839Y014755D03*
X019839Y014705D03*
X019839Y014655D03*
X019839Y014605D03*
X019839Y014555D03*
X019839Y014505D03*
X019839Y014455D03*
X019839Y014405D03*
X019839Y014355D03*
X019839Y014305D03*
X019839Y014255D03*
X019839Y014205D03*
X019839Y014155D03*
X019839Y014105D03*
X019839Y014055D03*
X019839Y014005D03*
X019839Y013955D03*
X019839Y013905D03*
X019839Y013855D03*
X019839Y013805D03*
X019839Y013755D03*
X019839Y013705D03*
X019839Y013655D03*
X019839Y013605D03*
X019839Y013555D03*
X019839Y013505D03*
X019839Y013455D03*
X019839Y013405D03*
X019839Y013355D03*
X019839Y013305D03*
X019839Y013255D03*
X019839Y013205D03*
X019839Y013155D03*
X019839Y013105D03*
X019839Y013055D03*
X019839Y013005D03*
X019839Y012955D03*
X019839Y012905D03*
X019839Y012855D03*
X019839Y012805D03*
X019839Y012755D03*
X019839Y012705D03*
X019839Y012655D03*
X019839Y012605D03*
X019839Y012555D03*
X019839Y012505D03*
X019839Y012455D03*
X019839Y012405D03*
X019839Y012355D03*
X019839Y012305D03*
X019839Y012255D03*
X019839Y012205D03*
X019839Y012155D03*
X019839Y012105D03*
X019839Y012055D03*
X019839Y012005D03*
X019839Y011955D03*
X019839Y011905D03*
X019839Y011855D03*
X019839Y011805D03*
X019839Y011755D03*
X019839Y011705D03*
X019839Y011655D03*
X019839Y011605D03*
X019839Y011555D03*
X019839Y011505D03*
X019839Y011455D03*
X019839Y011405D03*
X019839Y011355D03*
X019839Y011305D03*
X019839Y011255D03*
X019839Y011205D03*
X019839Y011155D03*
X019839Y011105D03*
X019839Y011055D03*
X019839Y011005D03*
X019839Y010955D03*
X019839Y010905D03*
X019839Y010855D03*
X019839Y010805D03*
X019839Y010755D03*
X019839Y010705D03*
X019839Y010655D03*
X019839Y010605D03*
X019839Y010555D03*
X019839Y010505D03*
X019839Y010455D03*
X019839Y010405D03*
X019839Y010355D03*
X019839Y010305D03*
X019839Y010255D03*
X019839Y010205D03*
X019839Y010155D03*
X019839Y010105D03*
X019839Y010055D03*
X019839Y010005D03*
X019839Y009955D03*
X019839Y009905D03*
X019839Y009855D03*
X019839Y009805D03*
X019839Y009755D03*
X019839Y009705D03*
X019839Y009655D03*
X019839Y009605D03*
X019839Y009555D03*
X019839Y009505D03*
X019839Y009455D03*
X019839Y009405D03*
X019839Y009355D03*
X019839Y009305D03*
X019839Y009255D03*
X019839Y009205D03*
X019839Y009155D03*
X019839Y009105D03*
X019839Y009055D03*
X019839Y009005D03*
X019839Y008955D03*
X019839Y008905D03*
X019839Y008855D03*
X019839Y008805D03*
X019839Y008755D03*
X019839Y008705D03*
X019839Y008655D03*
X019839Y008605D03*
X019839Y008555D03*
X019839Y008505D03*
X019839Y008455D03*
X019839Y008405D03*
X019839Y008355D03*
X019839Y008305D03*
X019839Y008255D03*
X019839Y008205D03*
X019839Y008155D03*
X019839Y008105D03*
X019839Y008055D03*
X019839Y008005D03*
X019839Y007955D03*
X019839Y007905D03*
X019839Y007855D03*
X019839Y007805D03*
X019839Y007755D03*
X019839Y007705D03*
X019839Y007655D03*
X019839Y007605D03*
X019839Y007555D03*
X019839Y007505D03*
X019839Y007455D03*
X019839Y007405D03*
X019839Y007355D03*
X019839Y007305D03*
X019839Y007255D03*
X019839Y007205D03*
X019839Y007155D03*
X019839Y007105D03*
X019839Y007055D03*
X019839Y007005D03*
X019839Y006955D03*
X019839Y006905D03*
X019839Y006855D03*
X019839Y006805D03*
X019839Y006755D03*
X019839Y006705D03*
X019839Y006655D03*
X019839Y006605D03*
X019839Y006555D03*
X019839Y006505D03*
X019839Y006455D03*
X019839Y006405D03*
X019839Y006355D03*
X019839Y006305D03*
X019839Y006255D03*
X019839Y006205D03*
X019839Y006155D03*
X019839Y006105D03*
X019839Y006055D03*
X019839Y006005D03*
X019839Y005955D03*
X019839Y005905D03*
X019839Y005855D03*
X019839Y005805D03*
X019839Y005755D03*
X019839Y005705D03*
X019839Y005655D03*
X019839Y005605D03*
X019839Y005555D03*
X019839Y005505D03*
X019839Y005455D03*
X019839Y005405D03*
X019839Y005355D03*
X019839Y005305D03*
X019839Y005255D03*
X019839Y005205D03*
X019839Y005155D03*
X019839Y005105D03*
X019839Y005055D03*
X019839Y005005D03*
X019839Y004955D03*
X019839Y004905D03*
X019839Y004855D03*
X019839Y004805D03*
X019839Y004755D03*
X019839Y004705D03*
X019839Y004655D03*
X019839Y004605D03*
X019839Y004555D03*
X019839Y004505D03*
X019839Y004455D03*
X019839Y004405D03*
X019839Y004355D03*
X019839Y004305D03*
X019839Y004255D03*
X019839Y004205D03*
X019839Y004155D03*
X019839Y004105D03*
X019839Y004055D03*
X019839Y004005D03*
X019839Y003955D03*
X019839Y003905D03*
X019839Y003855D03*
X019839Y003805D03*
X019839Y003755D03*
X019839Y003705D03*
X019839Y003655D03*
X019839Y003605D03*
X019839Y003555D03*
X019839Y003505D03*
X019839Y003455D03*
X019839Y003405D03*
X019839Y003355D03*
X019839Y003305D03*
X019839Y003255D03*
X019839Y003205D03*
X019839Y003155D03*
X019839Y003105D03*
X019839Y003055D03*
X019839Y003005D03*
X019839Y002955D03*
X019839Y002905D03*
X019839Y002855D03*
X019839Y002805D03*
X019839Y002755D03*
X019839Y002705D03*
X019839Y002655D03*
X019839Y002605D03*
X019839Y002555D03*
X019839Y002505D03*
X019839Y002455D03*
X019839Y002405D03*
X019839Y002355D03*
X019839Y002305D03*
X019839Y002255D03*
X019839Y002205D03*
X019839Y002155D03*
X019839Y002105D03*
X019839Y002055D03*
X019839Y002005D03*
X019839Y001955D03*
X019839Y001905D03*
X019839Y001855D03*
X019839Y001805D03*
X019822Y001705D03*
X019789Y001605D03*
X019772Y001555D03*
D46*
X019755Y001505D03*
X019805Y001655D03*
X018755Y018005D03*
X018755Y018055D03*
X018755Y018255D03*
X018755Y018305D03*
X019805Y019155D03*
X017605Y018455D03*
X017555Y018355D03*
X017555Y017955D03*
X003255Y018005D03*
X003255Y018055D03*
X003255Y018255D03*
X003255Y018305D03*
X002105Y018455D03*
X002055Y018355D03*
X002055Y017955D03*
X000955Y017955D03*
X000955Y017905D03*
X000955Y017855D03*
X000955Y017805D03*
X000955Y017755D03*
X000955Y017705D03*
X000955Y017655D03*
X000955Y017605D03*
X000955Y017555D03*
X000955Y017505D03*
X000955Y017455D03*
X000955Y017405D03*
X000955Y017355D03*
X000955Y017305D03*
X000955Y017255D03*
X000955Y017205D03*
X000955Y017155D03*
X000955Y017105D03*
X000955Y017055D03*
X000955Y017005D03*
X000955Y016955D03*
X000955Y016905D03*
X000955Y016855D03*
X000955Y016805D03*
X000955Y016755D03*
X000955Y016705D03*
X000955Y016655D03*
X000955Y016605D03*
X000955Y016555D03*
X000955Y016505D03*
X000955Y016455D03*
X000955Y016405D03*
X000955Y016355D03*
X000955Y016305D03*
X000955Y016255D03*
X000955Y016205D03*
X000955Y016155D03*
X000955Y016105D03*
X000955Y016055D03*
X000955Y016005D03*
X000955Y015955D03*
X000955Y015905D03*
X000955Y015855D03*
X000955Y015805D03*
X000955Y015755D03*
X000955Y015705D03*
X000955Y015655D03*
X000955Y015605D03*
X000955Y015555D03*
X000955Y015505D03*
X000955Y015455D03*
X000955Y015405D03*
X000955Y015355D03*
X000955Y015305D03*
X000955Y015255D03*
X000955Y015205D03*
X000955Y015155D03*
X000955Y015105D03*
X000955Y015055D03*
X000955Y015005D03*
X000955Y014955D03*
X000955Y014905D03*
X000955Y014855D03*
X000955Y014805D03*
X000955Y014755D03*
X000955Y014705D03*
X000955Y014655D03*
X000955Y014605D03*
X000955Y014555D03*
X000955Y014505D03*
X000955Y014455D03*
X000955Y014405D03*
X000955Y014355D03*
X000955Y014305D03*
X000955Y014255D03*
X000955Y014205D03*
X000955Y014155D03*
X000955Y014105D03*
X000955Y014055D03*
X000955Y014005D03*
X000955Y013955D03*
X000955Y013905D03*
X000955Y013855D03*
X000955Y013805D03*
X000955Y013755D03*
X000955Y013705D03*
X000955Y013655D03*
X000955Y013605D03*
X000955Y013555D03*
X000955Y013505D03*
X000955Y013455D03*
X000955Y013405D03*
X000955Y013355D03*
X000955Y013305D03*
X000955Y013255D03*
X000955Y013205D03*
X000955Y013155D03*
X000955Y013105D03*
X000955Y013055D03*
X000955Y013005D03*
X000955Y012955D03*
X000955Y012905D03*
X000955Y012855D03*
X000955Y012805D03*
X000955Y012755D03*
X000955Y012705D03*
X000955Y012655D03*
X000955Y012605D03*
X000955Y012555D03*
X000955Y012505D03*
X000955Y012455D03*
X000955Y012405D03*
X000955Y012355D03*
X000955Y012305D03*
X000955Y012255D03*
X000955Y012205D03*
X000955Y012155D03*
X000955Y012105D03*
X000955Y012055D03*
X000955Y012005D03*
X000955Y011955D03*
X000955Y011905D03*
X000955Y011855D03*
X000955Y011805D03*
X000955Y011755D03*
X000955Y011705D03*
X000955Y011655D03*
X000955Y011605D03*
X000955Y011555D03*
X000955Y011505D03*
X000955Y011455D03*
X000955Y011405D03*
X000955Y011355D03*
X000955Y011305D03*
X000955Y011255D03*
X000955Y011205D03*
X000955Y011155D03*
X000955Y011105D03*
X000955Y011055D03*
X000955Y011005D03*
X000955Y010955D03*
X000955Y010905D03*
X000955Y010855D03*
X000955Y010805D03*
X000955Y010755D03*
X000955Y010705D03*
X000955Y010655D03*
X000955Y010605D03*
X000955Y010555D03*
X000955Y010505D03*
X000955Y010455D03*
X000955Y010405D03*
X000955Y010355D03*
X000955Y010305D03*
X000955Y010255D03*
X000955Y010205D03*
X000955Y010155D03*
X000955Y010105D03*
X000955Y010055D03*
X000955Y010005D03*
X000955Y009955D03*
X000955Y009905D03*
X000955Y009855D03*
X000955Y009805D03*
X000955Y009755D03*
X000955Y009705D03*
X000955Y009655D03*
X000955Y009605D03*
X000955Y009555D03*
X000955Y009505D03*
X000955Y009455D03*
X000955Y009405D03*
X000955Y009355D03*
X000955Y009305D03*
X000955Y009255D03*
X000955Y009205D03*
X000955Y009155D03*
X000955Y009105D03*
X000955Y009055D03*
X000955Y009005D03*
X000955Y008955D03*
X000955Y008905D03*
X000955Y008855D03*
X000955Y008805D03*
X000955Y008755D03*
X000955Y008705D03*
X000955Y008655D03*
X000955Y008605D03*
X000955Y008555D03*
X000955Y008505D03*
X000955Y008455D03*
X000955Y008405D03*
X000955Y008355D03*
X000955Y008305D03*
X000955Y008255D03*
X000955Y008205D03*
X000955Y008155D03*
X000955Y008105D03*
X000955Y008055D03*
X000955Y008005D03*
X000955Y007955D03*
X000955Y007905D03*
X000955Y007855D03*
X000955Y007805D03*
X000955Y007755D03*
X000955Y007705D03*
X000955Y007655D03*
X000955Y007605D03*
X000955Y007555D03*
X000955Y007505D03*
X000955Y007455D03*
X000955Y007405D03*
X000955Y007355D03*
X000955Y007305D03*
X000955Y007255D03*
X000955Y007205D03*
X000955Y007155D03*
X000955Y007105D03*
X000955Y007055D03*
X000955Y007005D03*
X000955Y006955D03*
X000955Y006905D03*
X000955Y006855D03*
X000955Y006805D03*
X000955Y006755D03*
X000955Y006705D03*
X000955Y006655D03*
X000955Y006605D03*
X000955Y006555D03*
X000955Y006505D03*
X000955Y006455D03*
X000955Y006405D03*
X000955Y006355D03*
X000955Y006305D03*
X000955Y006255D03*
X000955Y006205D03*
X000955Y006155D03*
X000955Y006105D03*
X000955Y006055D03*
X000955Y006005D03*
X000955Y005955D03*
X000955Y005905D03*
X000955Y005855D03*
X000955Y005805D03*
X000955Y005755D03*
X000955Y005705D03*
X000955Y005655D03*
X000955Y005605D03*
X000955Y005555D03*
X000955Y005505D03*
X000955Y005455D03*
X000955Y005405D03*
X000955Y005355D03*
X000955Y005305D03*
X000955Y005255D03*
X000955Y005205D03*
X000955Y005155D03*
X000955Y005105D03*
X000955Y005055D03*
X000955Y005005D03*
X000955Y004955D03*
X000955Y004905D03*
X000955Y004855D03*
X000955Y004805D03*
X000955Y004755D03*
X000955Y004705D03*
X000955Y004655D03*
X000955Y004605D03*
X000955Y004555D03*
X000955Y004505D03*
X000955Y004455D03*
X000955Y004405D03*
X000955Y004355D03*
X000955Y004305D03*
X000955Y004255D03*
X000955Y004205D03*
X000955Y004155D03*
X000955Y004105D03*
X000955Y004055D03*
X000955Y004005D03*
X000955Y003955D03*
X000955Y003905D03*
X000955Y003855D03*
X000955Y003805D03*
X000955Y003755D03*
X000955Y003705D03*
X000955Y003655D03*
X000955Y003605D03*
X000955Y003555D03*
X000955Y003505D03*
X000955Y003455D03*
X000955Y003405D03*
X000955Y003355D03*
X000955Y003305D03*
X000955Y003255D03*
X000955Y003205D03*
X000955Y003155D03*
X000955Y003105D03*
X000955Y003055D03*
X000955Y003005D03*
X000955Y002955D03*
X000955Y002905D03*
X000955Y002855D03*
X000955Y002805D03*
X000955Y002755D03*
X000955Y002705D03*
X000955Y002655D03*
X000955Y002605D03*
X000955Y002555D03*
X000955Y002505D03*
X000955Y002455D03*
X000955Y002405D03*
X000955Y002355D03*
X000955Y002305D03*
X000955Y002255D03*
X000955Y002205D03*
X000955Y002155D03*
X000955Y002105D03*
X000955Y002055D03*
X000955Y002005D03*
X000955Y001955D03*
X000955Y001905D03*
X000955Y001855D03*
X000955Y001805D03*
X001005Y001605D03*
X000955Y018005D03*
X000955Y018055D03*
X000955Y018105D03*
X000955Y018155D03*
X000955Y018205D03*
X000955Y018255D03*
X000955Y018305D03*
X000955Y018355D03*
X000955Y018405D03*
X000955Y018455D03*
X000955Y018505D03*
X000955Y018555D03*
X000955Y018605D03*
X000955Y018655D03*
X000955Y018705D03*
X000955Y018755D03*
X000955Y018805D03*
X000955Y018855D03*
X000955Y018905D03*
X000955Y018955D03*
X000955Y019005D03*
X001005Y019205D03*
D47*
X008522Y014372D03*
X011705Y013288D03*
X010572Y010972D03*
X009005Y011022D03*
X011288Y009122D03*
X011372Y009138D03*
X006872Y004872D03*
X010155Y001522D03*
D48*
X010155Y001538D03*
X011705Y013488D03*
D49*
X010164Y001555D03*
D50*
X010155Y001572D03*
D51*
X010164Y001588D03*
D52*
X010164Y001605D03*
D53*
X010164Y001622D03*
D54*
X010155Y001638D03*
D55*
X010155Y001655D03*
D56*
X000980Y001672D03*
X000963Y001772D03*
X002647Y017472D03*
X003263Y018072D03*
X003263Y018238D03*
X002030Y018238D03*
X002030Y018072D03*
X000963Y019022D03*
X000963Y019038D03*
X000980Y019122D03*
X017530Y018238D03*
X017530Y018072D03*
X018147Y017472D03*
X018763Y018072D03*
X018763Y018238D03*
X019830Y019022D03*
X019830Y019038D03*
X019813Y019122D03*
X019830Y001772D03*
X019813Y001672D03*
D57*
X009272Y001672D03*
X008522Y014238D03*
D58*
X011705Y013422D03*
X011055Y001672D03*
D59*
X009122Y001688D03*
X006939Y004938D03*
X008522Y013238D03*
D60*
X011197Y001688D03*
D61*
X009022Y001705D03*
X013139Y009505D03*
D62*
X013413Y009555D03*
X006897Y004905D03*
X003913Y005955D03*
X011297Y001705D03*
D63*
X008922Y001722D03*
X010039Y008822D03*
X012222Y009322D03*
X009172Y010988D03*
X007922Y011288D03*
D64*
X012297Y009338D03*
X012464Y009372D03*
X011397Y001722D03*
X018147Y017572D03*
X018147Y018722D03*
X002647Y018722D03*
X002647Y017572D03*
D65*
X007839Y011322D03*
X008639Y008838D03*
X011589Y009188D03*
X011739Y009222D03*
X017522Y005822D03*
X011472Y001738D03*
X008839Y001738D03*
D66*
X000963Y001755D03*
X019830Y001755D03*
D67*
X011438Y009155D03*
X008522Y013155D03*
X008755Y001755D03*
D68*
X011564Y001755D03*
X011014Y009055D03*
X011214Y009105D03*
X011697Y014505D03*
D69*
X010647Y010988D03*
X010947Y009038D03*
X010880Y009022D03*
X010747Y008988D03*
X007230Y011538D03*
X002647Y017538D03*
X018147Y017538D03*
X011630Y001772D03*
X008680Y001772D03*
D70*
X008622Y001788D03*
X014472Y009772D03*
X010789Y011022D03*
X008522Y013138D03*
X008522Y014388D03*
X007722Y011372D03*
D71*
X011705Y013272D03*
X011705Y014522D03*
X011705Y001788D03*
D72*
X008555Y001805D03*
X006872Y004855D03*
X010422Y008905D03*
D73*
X010614Y008955D03*
X010914Y011055D03*
X008664Y011105D03*
X011764Y001805D03*
D74*
X011830Y001822D03*
X008480Y001822D03*
X008480Y010938D03*
X008430Y011172D03*
X011030Y011088D03*
X013130Y011788D03*
D75*
X008372Y011188D03*
X008422Y001838D03*
X011889Y001838D03*
D76*
X011947Y001855D03*
X008380Y001855D03*
X008313Y011205D03*
X011430Y011205D03*
X011597Y011255D03*
X013130Y011805D03*
D77*
X013122Y011822D03*
X014922Y009972D03*
X017539Y005788D03*
X008522Y013122D03*
X008239Y008938D03*
X003889Y005888D03*
X008322Y001872D03*
D78*
X012005Y001872D03*
X007405Y009238D03*
X011655Y011272D03*
X011705Y011288D03*
D79*
X011814Y011322D03*
X011864Y011338D03*
X011964Y011372D03*
X012014Y011388D03*
X012114Y011422D03*
X006064Y010772D03*
X002647Y018788D03*
X018147Y018788D03*
X012047Y001888D03*
X008264Y001888D03*
D80*
X008214Y001905D03*
X004397Y006055D03*
X011914Y011355D03*
X012064Y011405D03*
D81*
X012222Y011455D03*
X012372Y011505D03*
X012505Y011555D03*
X012655Y011605D03*
X012805Y011655D03*
X008188Y008955D03*
X007388Y009255D03*
X012105Y001905D03*
D82*
X012155Y001922D03*
X008155Y001922D03*
X007222Y004972D03*
X008138Y008972D03*
X008505Y010922D03*
X008205Y011038D03*
X007488Y011472D03*
X007205Y011572D03*
X006088Y010788D03*
X012172Y011438D03*
X012272Y011472D03*
X012322Y011488D03*
X012422Y011522D03*
X012472Y011538D03*
X012555Y011572D03*
X012605Y011588D03*
X012705Y011622D03*
X012755Y011638D03*
X012855Y011672D03*
X014905Y009988D03*
X017138Y005922D03*
D83*
X012197Y001938D03*
X008114Y001938D03*
X009414Y008672D03*
X008097Y008988D03*
X012897Y011688D03*
X012997Y011722D03*
D84*
X014572Y009805D03*
X014889Y010005D03*
X008072Y001955D03*
D85*
X012247Y001955D03*
X008047Y009005D03*
X006114Y010805D03*
X012947Y011705D03*
X018147Y017505D03*
X002647Y017505D03*
D86*
X008522Y014422D03*
X006139Y010822D03*
X007372Y009272D03*
X004422Y006072D03*
X008022Y001972D03*
X012339Y001988D03*
X017089Y005938D03*
D87*
X015080Y009922D03*
X008930Y005788D03*
X008763Y005722D03*
X008680Y005688D03*
X008513Y005622D03*
X008430Y005588D03*
X008263Y005522D03*
X008180Y005488D03*
X007280Y004988D03*
X006863Y004838D03*
X007897Y002022D03*
X007980Y001988D03*
X012297Y001972D03*
X006163Y010838D03*
X007197Y011588D03*
D88*
X007413Y011505D03*
X008147Y011055D03*
X007913Y009055D03*
X008847Y005755D03*
X008597Y005655D03*
X008347Y005555D03*
X007930Y002005D03*
X012380Y002005D03*
D89*
X012422Y002022D03*
X012472Y002038D03*
X008889Y005772D03*
X008639Y005672D03*
X008389Y005572D03*
X008139Y005472D03*
X008022Y005422D03*
X007772Y002072D03*
X003872Y005872D03*
X004439Y006088D03*
X007822Y009088D03*
D90*
X007855Y009072D03*
X007355Y009288D03*
X004255Y006022D03*
X008055Y005438D03*
X008305Y005538D03*
X008555Y005638D03*
X008805Y005738D03*
X007855Y002038D03*
D91*
X007814Y002055D03*
X007697Y002105D03*
X007664Y009155D03*
X006197Y010855D03*
X002647Y018805D03*
X018147Y018805D03*
D92*
X011705Y014555D03*
X008105Y005455D03*
X012505Y002055D03*
D93*
X012547Y002072D03*
X016997Y005972D03*
X015914Y006622D03*
X015164Y009888D03*
X008097Y011072D03*
X007747Y009122D03*
X004297Y006038D03*
D94*
X007630Y009172D03*
X007380Y011522D03*
X007730Y002088D03*
X012580Y002088D03*
D95*
X012622Y002105D03*
X008955Y005805D03*
X005722Y007205D03*
X004455Y006105D03*
X007555Y009205D03*
D96*
X007522Y009222D03*
X007588Y009188D03*
X007705Y009138D03*
X007622Y002138D03*
X007655Y002122D03*
X012655Y002122D03*
X016955Y005988D03*
X017538Y005772D03*
X015205Y009872D03*
X014872Y010022D03*
D97*
X008530Y010905D03*
X007180Y011605D03*
X007480Y002205D03*
X007580Y002155D03*
X012730Y002155D03*
X012830Y002205D03*
D98*
X012872Y002222D03*
X012972Y002272D03*
X008972Y005822D03*
X004472Y006122D03*
X005839Y010688D03*
X002872Y017588D03*
X002422Y017588D03*
X001572Y019772D03*
X014172Y010772D03*
X017922Y017588D03*
X018372Y017588D03*
X019222Y019772D03*
D99*
X014155Y010788D03*
X014205Y010738D03*
X007405Y005038D03*
X007255Y002322D03*
X012905Y002238D03*
X013005Y002288D03*
X006255Y010888D03*
D100*
X007439Y005055D03*
X007289Y002305D03*
X007372Y002255D03*
X012939Y002255D03*
X015889Y006655D03*
X015339Y009805D03*
X014189Y010755D03*
X014139Y010805D03*
D101*
X014097Y010855D03*
X016630Y006155D03*
X016713Y006105D03*
X013030Y002305D03*
X007530Y005105D03*
X007197Y002355D03*
X005780Y010655D03*
X002897Y018705D03*
X002397Y018705D03*
X017897Y018705D03*
X018397Y018705D03*
D102*
X019272Y019755D03*
X015439Y009755D03*
X015522Y009705D03*
X013372Y002505D03*
X013289Y002455D03*
X013122Y002355D03*
X007789Y005255D03*
X007622Y005155D03*
X005739Y007255D03*
X004522Y006155D03*
X007022Y002455D03*
X007922Y011155D03*
X007839Y011205D03*
X001522Y019755D03*
D103*
X007805Y011222D03*
X005755Y010638D03*
X007755Y005238D03*
X007555Y005122D03*
X007055Y002438D03*
X013155Y002372D03*
X016605Y006172D03*
X015555Y009688D03*
D104*
X015872Y006688D03*
X016522Y006222D03*
X016572Y006188D03*
X016689Y006122D03*
X013322Y002472D03*
X013272Y002438D03*
X013239Y002422D03*
X007939Y005372D03*
X007839Y005288D03*
X007672Y005188D03*
X007639Y005172D03*
X007589Y005138D03*
X006972Y002488D03*
X007072Y002422D03*
X007139Y002388D03*
X004489Y006138D03*
X005722Y010622D03*
X007172Y011622D03*
X007772Y011238D03*
X007889Y011172D03*
X007972Y011122D03*
X008522Y013088D03*
D105*
X008005Y011105D03*
X003605Y006005D03*
X007105Y002405D03*
X007705Y005205D03*
X013205Y002405D03*
X015605Y009655D03*
D106*
X015664Y009622D03*
X015714Y009588D03*
X016347Y006338D03*
X016414Y006288D03*
X016447Y006272D03*
X016497Y006238D03*
X013547Y002622D03*
X013497Y002588D03*
X013397Y002522D03*
X013347Y002488D03*
X007814Y005272D03*
X006614Y004972D03*
X004547Y006172D03*
X007314Y009338D03*
X005664Y010588D03*
X005647Y010572D03*
X011697Y014572D03*
X019314Y019738D03*
X006897Y002538D03*
X006914Y002522D03*
X006847Y002572D03*
X006814Y002588D03*
X006997Y002472D03*
D107*
X006947Y002505D03*
X006864Y002555D03*
X004597Y006205D03*
X005614Y010555D03*
X005697Y010605D03*
X006297Y010905D03*
X002364Y017605D03*
X014814Y010055D03*
X015764Y009555D03*
X016397Y006305D03*
X016464Y006255D03*
X016547Y006205D03*
X013447Y002555D03*
X017864Y017605D03*
D108*
X015580Y009672D03*
X015630Y009638D03*
X013480Y002572D03*
X013430Y002538D03*
X007730Y005222D03*
X004630Y006222D03*
X004580Y006188D03*
X001480Y019738D03*
D109*
X002355Y018688D03*
X002938Y018688D03*
X008555Y010888D03*
X005588Y010538D03*
X005572Y010522D03*
X005522Y010488D03*
X005505Y010472D03*
X005738Y007288D03*
X005738Y007272D03*
X004788Y006338D03*
X004722Y006288D03*
X004705Y006272D03*
X004655Y006238D03*
X003572Y006022D03*
X006472Y002838D03*
X006538Y002788D03*
X006605Y002738D03*
X006622Y002722D03*
X006672Y002688D03*
X006688Y002672D03*
X006738Y002638D03*
X006772Y002622D03*
X008988Y005838D03*
X013572Y002638D03*
X013622Y002672D03*
X013638Y002688D03*
X013688Y002722D03*
X013755Y002772D03*
X016272Y006388D03*
X016305Y006372D03*
X016372Y006322D03*
X016205Y006438D03*
X017855Y005922D03*
X015988Y009388D03*
X015922Y009438D03*
X015855Y009488D03*
X015805Y009522D03*
X015788Y009538D03*
X015738Y009572D03*
X017855Y018688D03*
X018438Y018688D03*
D110*
X016030Y009355D03*
X013930Y002905D03*
X007930Y005355D03*
X006330Y002955D03*
X006580Y002755D03*
X004930Y006455D03*
X005480Y010455D03*
X006880Y011405D03*
X008530Y010855D03*
D111*
X007180Y011638D03*
X007030Y011522D03*
X006980Y011488D03*
X006930Y011438D03*
X006780Y011322D03*
X005430Y010422D03*
X004830Y006372D03*
X006230Y003038D03*
X006430Y002872D03*
X013780Y002788D03*
X013830Y002822D03*
X013880Y002872D03*
X016230Y006422D03*
X016080Y006538D03*
X016030Y006572D03*
X017880Y005938D03*
X016180Y009238D03*
X016130Y009272D03*
X016080Y009322D03*
X015880Y009472D03*
X014680Y009838D03*
X013230Y011838D03*
X017830Y017622D03*
X002330Y017622D03*
D112*
X006947Y011455D03*
X007014Y011505D03*
X006764Y011305D03*
X006647Y011205D03*
X005547Y010505D03*
X005414Y010405D03*
X005297Y010305D03*
X005747Y007305D03*
X004814Y006355D03*
X004747Y006305D03*
X006214Y003055D03*
X006447Y002855D03*
X006514Y002805D03*
X013797Y002805D03*
X013864Y002855D03*
X014047Y003005D03*
X016064Y006555D03*
X016214Y009205D03*
X016097Y009305D03*
X015964Y009405D03*
X008414Y010755D03*
D113*
X008472Y010805D03*
X008189Y010555D03*
X008139Y010505D03*
X008089Y010455D03*
X008039Y010405D03*
X006822Y011355D03*
X006589Y011155D03*
X006539Y011105D03*
X006489Y011055D03*
X005239Y010255D03*
X005189Y010205D03*
X005039Y006555D03*
X004989Y006505D03*
X004872Y006405D03*
X003872Y005855D03*
X003522Y006055D03*
X006272Y003005D03*
X006389Y002905D03*
X013989Y002955D03*
X015822Y006755D03*
X015772Y006805D03*
X016439Y009005D03*
X016389Y009055D03*
X016339Y009105D03*
X016272Y009155D03*
X019372Y019705D03*
X001422Y019705D03*
D114*
X006605Y011172D03*
X006555Y011122D03*
X006505Y011072D03*
X005255Y010272D03*
X005205Y010222D03*
X008055Y010422D03*
X008105Y010472D03*
X008155Y010522D03*
X008455Y010788D03*
X008555Y010872D03*
X005055Y006572D03*
X005005Y006522D03*
X004955Y006472D03*
X003505Y006072D03*
X006255Y003022D03*
X006305Y002972D03*
X014005Y002972D03*
X015805Y006772D03*
X016455Y008988D03*
X016405Y009038D03*
X016355Y009088D03*
X016255Y009172D03*
D115*
X016155Y009255D03*
X014455Y010555D03*
X014405Y010605D03*
X015455Y007105D03*
X015505Y007055D03*
X015555Y007005D03*
X015605Y006955D03*
X015655Y006905D03*
X015705Y006855D03*
X017905Y005955D03*
X014155Y003105D03*
X014105Y003055D03*
X007305Y009355D03*
X008255Y010605D03*
X008305Y010655D03*
X008355Y010705D03*
X006705Y011255D03*
X005355Y010355D03*
X006055Y003205D03*
X006105Y003155D03*
X006155Y003105D03*
D116*
X005555Y003755D03*
X005405Y003955D03*
X005305Y004105D03*
X005605Y007155D03*
X005755Y007355D03*
X004405Y009305D03*
X004505Y009455D03*
X004555Y009505D03*
X004755Y009755D03*
X005655Y010105D03*
X005755Y010255D03*
X005805Y010305D03*
X005955Y010505D03*
X007055Y011805D03*
X007005Y011855D03*
X006905Y012005D03*
X006805Y012155D03*
X007755Y010105D03*
X007555Y009855D03*
X008205Y007155D03*
X008455Y006755D03*
X008955Y005955D03*
X013955Y010955D03*
X014005Y010905D03*
X013805Y011155D03*
X013605Y011405D03*
X013405Y011655D03*
X013255Y011855D03*
X013005Y011855D03*
X014855Y007805D03*
X015055Y007555D03*
X017055Y008355D03*
X017255Y008105D03*
X017405Y007905D03*
X017655Y007505D03*
X017955Y006005D03*
X015105Y004255D03*
X014905Y003955D03*
X014805Y003805D03*
X014755Y003755D03*
X014555Y003505D03*
X014505Y003455D03*
X019455Y019655D03*
D117*
X006880Y004888D03*
D118*
X006922Y004922D03*
X003922Y005972D03*
X008522Y013222D03*
X011705Y014438D03*
D119*
X011697Y014405D03*
X006947Y004955D03*
D120*
X007330Y005005D03*
X007980Y005405D03*
X007780Y009105D03*
D121*
X008722Y005705D03*
X008472Y005605D03*
X008222Y005505D03*
X015122Y009905D03*
X015922Y006605D03*
X017039Y005955D03*
X008522Y013105D03*
D122*
X017539Y005755D03*
D123*
X017530Y005805D03*
X010813Y009005D03*
X008863Y011055D03*
X002647Y018755D03*
X018147Y018755D03*
D124*
X011697Y014472D03*
X009264Y010972D03*
X012797Y009438D03*
X017514Y005838D03*
D125*
X017497Y005855D03*
D126*
X017480Y005872D03*
X011697Y013372D03*
X008530Y014288D03*
X003930Y005988D03*
D127*
X011705Y013388D03*
X008522Y014272D03*
X017472Y005888D03*
D128*
X013122Y011755D03*
X010722Y011005D03*
X010222Y008855D03*
X008272Y011005D03*
X003889Y005905D03*
D129*
X011705Y013255D03*
X017205Y005905D03*
D130*
X016914Y006005D03*
X016814Y006055D03*
X017814Y005905D03*
X015247Y009855D03*
X007347Y009305D03*
D131*
X003897Y005922D03*
X011514Y009172D03*
X018147Y018738D03*
X002647Y018738D03*
D132*
X012055Y009288D03*
X003905Y005938D03*
D133*
X004205Y006005D03*
D134*
X009405Y008688D03*
X013055Y009488D03*
X011705Y013322D03*
D135*
X011697Y014355D03*
X009397Y008705D03*
D136*
X009389Y008722D03*
X008522Y013438D03*
X008522Y014088D03*
X009972Y019088D03*
D137*
X008522Y013872D03*
X008522Y013838D03*
X008522Y013822D03*
X008522Y013788D03*
X008522Y013772D03*
X008522Y013738D03*
X008522Y013722D03*
X008522Y013688D03*
X008522Y013672D03*
X009389Y008738D03*
D138*
X009389Y008755D03*
D139*
X009388Y008772D03*
D140*
X009389Y008788D03*
X009722Y015288D03*
D141*
X009372Y008805D03*
D142*
X008739Y008822D03*
X009939Y010838D03*
X012972Y009472D03*
X008522Y014338D03*
D143*
X007797Y011338D03*
X010147Y008838D03*
X011147Y009088D03*
D144*
X008555Y008855D03*
X008455Y010955D03*
X007755Y011355D03*
D145*
X007680Y011388D03*
X008730Y011088D03*
X010680Y008972D03*
X008480Y008872D03*
X013130Y011772D03*
D146*
X014964Y009938D03*
X010847Y011038D03*
X008797Y011072D03*
X010297Y008872D03*
X010364Y008888D03*
X010547Y008938D03*
X018147Y018772D03*
X002647Y018772D03*
D147*
X008605Y011122D03*
X009955Y010822D03*
X010972Y011072D03*
X010488Y008922D03*
X008422Y008888D03*
D148*
X008364Y008905D03*
X007647Y011405D03*
X007214Y011555D03*
X011097Y011105D03*
X014947Y009955D03*
D149*
X011205Y011138D03*
X008305Y008922D03*
X007605Y011422D03*
D150*
X007455Y011488D03*
X007955Y009038D03*
X008005Y009022D03*
X011705Y013238D03*
D151*
X011080Y009072D03*
D152*
X011672Y009205D03*
X009089Y011005D03*
X009722Y015255D03*
D153*
X011697Y014488D03*
X008530Y013172D03*
X011813Y009238D03*
X011980Y009272D03*
D154*
X011897Y009255D03*
X007880Y011305D03*
D155*
X008522Y014355D03*
X012139Y009305D03*
D156*
X012380Y009355D03*
D157*
X012538Y009388D03*
X012705Y009422D03*
X014372Y009738D03*
X007955Y011272D03*
D158*
X012622Y009405D03*
D159*
X012880Y009455D03*
D160*
X013230Y009522D03*
X013313Y009538D03*
X013497Y009572D03*
X013863Y009638D03*
X014047Y009672D03*
D161*
X014139Y009688D03*
X013772Y009622D03*
X013589Y009588D03*
X008522Y014322D03*
D162*
X013722Y009605D03*
D163*
X015680Y009605D03*
X018430Y017605D03*
X002930Y017605D03*
D164*
X011705Y014455D03*
X013955Y009655D03*
D165*
X014230Y009705D03*
D166*
X014330Y009722D03*
D167*
X014430Y009755D03*
D168*
X014530Y009788D03*
X011547Y011238D03*
X011497Y011222D03*
X011380Y011188D03*
X011330Y011172D03*
X008263Y011222D03*
X008197Y011238D03*
X008247Y011022D03*
X007563Y011438D03*
X006013Y010738D03*
X005997Y010722D03*
X011697Y014538D03*
D169*
X008522Y014405D03*
X011272Y011155D03*
X005972Y010705D03*
D170*
X014072Y010722D03*
D171*
X006039Y010755D03*
D172*
X010005Y010805D03*
D173*
X009930Y010855D03*
D174*
X009914Y010872D03*
X011697Y013522D03*
X011697Y014272D03*
D175*
X011705Y014122D03*
X011705Y013688D03*
X011705Y013672D03*
X009905Y010888D03*
D176*
X014197Y010888D03*
D177*
X009897Y010905D03*
D178*
X009889Y010922D03*
D179*
X009888Y010938D03*
D180*
X009380Y010955D03*
D181*
X010464Y010955D03*
D182*
X008939Y011038D03*
X008389Y010972D03*
X008322Y010988D03*
X013122Y011738D03*
D183*
X011147Y011122D03*
X008547Y011138D03*
X002647Y017522D03*
X018147Y017522D03*
D184*
X008480Y011155D03*
D185*
X007997Y011255D03*
D186*
X011755Y011305D03*
D187*
X007530Y011455D03*
D188*
X013280Y011888D03*
D189*
X008530Y013188D03*
D190*
X008522Y013205D03*
D191*
X011705Y013205D03*
D192*
X008530Y013255D03*
D193*
X008522Y013272D03*
D194*
X008530Y013288D03*
X011697Y014372D03*
D195*
X008530Y013305D03*
D196*
X011705Y013305D03*
D197*
X011705Y014338D03*
X008522Y014222D03*
X008522Y013322D03*
D198*
X008522Y013338D03*
X008522Y014188D03*
D199*
X011705Y013338D03*
D200*
X008522Y013355D03*
D201*
X008522Y014305D03*
X011705Y013355D03*
D202*
X011705Y014288D03*
X008522Y013372D03*
D203*
X008530Y013388D03*
X008530Y014138D03*
D204*
X008522Y013405D03*
D205*
X011705Y013405D03*
D206*
X011697Y014238D03*
X008530Y013422D03*
D207*
X011697Y013438D03*
D208*
X008522Y013455D03*
X008522Y014055D03*
D209*
X011697Y013455D03*
D210*
X011705Y013588D03*
X011705Y014188D03*
X008522Y014072D03*
X008522Y013472D03*
D211*
X011697Y013472D03*
D212*
X008522Y013488D03*
X008522Y014022D03*
X008522Y014038D03*
D213*
X008522Y013505D03*
D214*
X008522Y014155D03*
X011705Y013505D03*
D215*
X011697Y014138D03*
X008530Y013522D03*
D216*
X008522Y013538D03*
X008522Y013972D03*
X008522Y013988D03*
D217*
X011705Y013538D03*
D218*
X008522Y013555D03*
D219*
X011697Y013555D03*
D220*
X008530Y013572D03*
D221*
X011705Y013572D03*
X011705Y014222D03*
D222*
X011705Y014072D03*
X011705Y013738D03*
X011705Y013722D03*
X009722Y015272D03*
X008522Y013938D03*
X008522Y013922D03*
X008522Y013622D03*
X008522Y013588D03*
D223*
X008522Y013605D03*
X011705Y014055D03*
D224*
X011697Y013605D03*
D225*
X011705Y013622D03*
X011705Y013638D03*
X011705Y014172D03*
D226*
X008530Y013888D03*
X008530Y013638D03*
D227*
X008522Y013655D03*
X008522Y013705D03*
X008522Y013755D03*
X008522Y013805D03*
X008522Y013855D03*
D228*
X008530Y014005D03*
X011697Y013655D03*
D229*
X011697Y013705D03*
D230*
X011697Y013755D03*
X011697Y014005D03*
D231*
X011697Y014022D03*
X011697Y014038D03*
X011697Y013788D03*
X011697Y013772D03*
D232*
X011705Y013805D03*
X011705Y013855D03*
X011705Y013905D03*
X011705Y013955D03*
D233*
X011705Y013938D03*
X011705Y013922D03*
X011705Y013888D03*
X011705Y013872D03*
X011705Y013838D03*
X011705Y013822D03*
X011705Y013972D03*
X011705Y013988D03*
D234*
X008530Y013905D03*
D235*
X008530Y013955D03*
D236*
X011697Y014088D03*
D237*
X008522Y014105D03*
D238*
X011705Y014105D03*
D239*
X008522Y014122D03*
D240*
X011705Y014155D03*
D241*
X008522Y014172D03*
D242*
X008530Y014205D03*
D243*
X011697Y014205D03*
D244*
X008522Y014255D03*
D245*
X011705Y014255D03*
D246*
X011705Y014305D03*
D247*
X011705Y014322D03*
D248*
X011697Y014388D03*
D249*
X011705Y014422D03*
D250*
X008522Y014455D03*
D251*
X009747Y015305D03*
D252*
X009763Y015322D03*
D253*
X009780Y015338D03*
D254*
X009788Y015355D03*
D255*
X009805Y015372D03*
D256*
X009822Y015388D03*
D257*
X009847Y015405D03*
D258*
X009863Y015422D03*
D259*
X009872Y015438D03*
D260*
X009905Y015455D03*
D261*
X009938Y015472D03*
X009872Y018322D03*
D262*
X009964Y015488D03*
D263*
X009989Y015505D03*
D264*
X010030Y015522D03*
D265*
X010055Y015538D03*
D266*
X010080Y015555D03*
D267*
X010105Y015572D03*
D268*
X010189Y015588D03*
D269*
X010155Y015605D03*
D270*
X010072Y015622D03*
D271*
X010130Y015638D03*
D272*
X010155Y015655D03*
D273*
X010139Y015672D03*
D274*
X010130Y015688D03*
D275*
X010114Y015705D03*
D276*
X010097Y015722D03*
X010030Y016372D03*
D277*
X010089Y015738D03*
D278*
X010064Y015755D03*
D279*
X010064Y015772D03*
D280*
X010055Y015788D03*
D281*
X010047Y015805D03*
D282*
X010047Y015822D03*
D283*
X010039Y015838D03*
D284*
X010030Y015855D03*
X010030Y016205D03*
D285*
X010030Y016188D03*
X010030Y015872D03*
D286*
X010030Y015888D03*
X010030Y016172D03*
D287*
X010030Y016155D03*
X010030Y015905D03*
D288*
X010030Y015922D03*
X010030Y015938D03*
X010030Y016122D03*
D289*
X010030Y016055D03*
X010030Y016005D03*
X010030Y015955D03*
D290*
X010030Y015972D03*
X010030Y015988D03*
X010030Y016022D03*
X010030Y016038D03*
X010030Y016072D03*
X010030Y016088D03*
D291*
X010030Y016105D03*
D292*
X010030Y016138D03*
D293*
X010030Y016222D03*
D294*
X010030Y016238D03*
D295*
X010030Y016255D03*
D296*
X010030Y016272D03*
D297*
X010030Y016288D03*
D298*
X010030Y016305D03*
D299*
X010030Y016322D03*
D300*
X010030Y016338D03*
D301*
X010030Y016355D03*
D302*
X010030Y016388D03*
D303*
X010030Y016405D03*
D304*
X010030Y016422D03*
D305*
X010030Y016438D03*
D306*
X010030Y016455D03*
D307*
X010030Y016472D03*
D308*
X010030Y016488D03*
D309*
X010022Y016505D03*
D310*
X009939Y016522D03*
X009922Y016572D03*
X009922Y016588D03*
X009922Y016622D03*
X009922Y016638D03*
X009889Y017088D03*
D311*
X009930Y016538D03*
D312*
X009922Y016555D03*
X009922Y016605D03*
X009889Y017105D03*
D313*
X009897Y017055D03*
X009897Y017005D03*
X009897Y016955D03*
X009913Y016805D03*
X009913Y016755D03*
X009913Y016705D03*
X009913Y016655D03*
D314*
X009913Y016672D03*
X009913Y016688D03*
X009913Y016722D03*
X009913Y016738D03*
X009913Y016772D03*
X009913Y016788D03*
X009913Y016822D03*
X009897Y016972D03*
X009897Y016988D03*
X009897Y017022D03*
X009897Y017038D03*
X009897Y017072D03*
D315*
X009905Y016938D03*
X009905Y016922D03*
X009905Y016888D03*
X009905Y016872D03*
X009905Y016838D03*
D316*
X009905Y016855D03*
X009905Y016905D03*
D317*
X009897Y017122D03*
X009897Y017138D03*
X009897Y017172D03*
X009897Y017188D03*
D318*
X009897Y017155D03*
D319*
X009888Y017205D03*
X009888Y017255D03*
D320*
X009888Y017238D03*
X009888Y017222D03*
D321*
X009880Y017272D03*
D322*
X009889Y017288D03*
X009889Y017322D03*
X009889Y017338D03*
D323*
X009889Y017305D03*
D324*
X009880Y017355D03*
D325*
X009880Y017372D03*
X009880Y017388D03*
D326*
X009889Y017405D03*
D327*
X009889Y017422D03*
D328*
X009880Y017438D03*
X009880Y017472D03*
D329*
X009880Y017455D03*
D330*
X009880Y017488D03*
X009880Y017522D03*
D331*
X009880Y017505D03*
D332*
X009872Y017538D03*
D333*
X002647Y017555D03*
X018147Y017555D03*
D334*
X009880Y017555D03*
D335*
X009880Y017572D03*
D336*
X009872Y017588D03*
D337*
X009872Y017605D03*
D338*
X009880Y017622D03*
D339*
X009872Y017638D03*
D340*
X009872Y017655D03*
D341*
X009880Y017672D03*
D342*
X009872Y017688D03*
D343*
X009872Y017705D03*
D344*
X009872Y017722D03*
X009872Y017738D03*
D345*
X009864Y017755D03*
D346*
X009872Y017772D03*
X009872Y017788D03*
D347*
X009872Y017805D03*
D348*
X009872Y017822D03*
D349*
X009872Y017838D03*
D350*
X009872Y017855D03*
D351*
X009864Y017872D03*
D352*
X009872Y017888D03*
D353*
X009864Y017905D03*
D354*
X009872Y017922D03*
D355*
X009863Y017938D03*
D356*
X009872Y017955D03*
D357*
X009864Y017972D03*
D358*
X009864Y017988D03*
D359*
X009872Y018005D03*
D360*
X009863Y018022D03*
D361*
X009872Y018038D03*
D362*
X009864Y018055D03*
D363*
X009864Y018072D03*
D364*
X009872Y018088D03*
D365*
X009863Y018105D03*
D366*
X009864Y018122D03*
D367*
X009872Y018138D03*
D368*
X009864Y018155D03*
D369*
X009863Y018172D03*
D370*
X009872Y018188D03*
D371*
X009872Y018205D03*
D372*
X009864Y018222D03*
D373*
X009863Y018238D03*
D374*
X009872Y018255D03*
D375*
X009872Y018272D03*
D376*
X009872Y018288D03*
D377*
X009872Y018305D03*
D378*
X009872Y018338D03*
D379*
X009872Y018355D03*
D380*
X009864Y018372D03*
D381*
X009864Y018388D03*
D382*
X009863Y018405D03*
D383*
X009872Y018422D03*
D384*
X009872Y018438D03*
D385*
X009872Y018455D03*
D386*
X009872Y018472D03*
D387*
X009872Y018488D03*
D388*
X009872Y018505D03*
D389*
X009880Y018522D03*
D390*
X009880Y018538D03*
D391*
X009872Y018555D03*
D392*
X009880Y018572D03*
D393*
X009880Y018588D03*
D394*
X009880Y018605D03*
D395*
X009880Y018622D03*
D396*
X009880Y018638D03*
D397*
X009880Y018655D03*
D398*
X009889Y018672D03*
D399*
X009880Y018688D03*
D400*
X009889Y018705D03*
D401*
X009888Y018722D03*
D402*
X009889Y018738D03*
D403*
X009897Y018755D03*
D404*
X009897Y018772D03*
D405*
X009897Y018788D03*
D406*
X009897Y018805D03*
D407*
X009897Y018822D03*
D408*
X009905Y018838D03*
D409*
X009905Y018855D03*
D410*
X009905Y018872D03*
D411*
X009914Y018888D03*
D412*
X009905Y018905D03*
D413*
X009922Y018922D03*
D414*
X009922Y018938D03*
D415*
X009922Y018955D03*
D416*
X009930Y018972D03*
D417*
X009930Y018988D03*
D418*
X009930Y019005D03*
D419*
X009947Y019022D03*
D420*
X009947Y019038D03*
D421*
X009955Y019055D03*
D422*
X009955Y019072D03*
D423*
X009980Y019105D03*
D424*
X010397Y019788D03*
D425*
X010397Y019805D03*
D426*
X010397Y019838D03*
D427*
X010397Y019855D03*
D428*
X010397Y019872D03*
D429*
X010397Y019888D03*
M02*
