<?xml version="1.0" encoding="UTF-8" standalone="no"?>
<!-- Created with Inkscape (http://www.inkscape.org/) -->

<svg
   xmlns:dc="http://purl.org/dc/elements/1.1/"
   xmlns:cc="http://creativecommons.org/ns#"
   xmlns:rdf="http://www.w3.org/1999/02/22-rdf-syntax-ns#"
   xmlns:svg="http://www.w3.org/2000/svg"
   xmlns="http://www.w3.org/2000/svg"
   xmlns:sodipodi="http://sodipodi.sourceforge.net/DTD/sodipodi-0.dtd"
   xmlns:inkscape="http://www.inkscape.org/namespaces/inkscape"
   width="175.5"
   height="175.5"
   id="svg2"
   version="1.1"
   inkscape:version="0.48.4 r9939"
   sodipodi:docname="Snowman PCB.svg">
  <defs
     id="defs4" />
  <sodipodi:namedview
     id="base"
     pagecolor="#ffffff"
     bordercolor="#666666"
     borderopacity="1.0"
     inkscape:pageopacity="0.0"
     inkscape:pageshadow="2"
     inkscape:zoom="2.1500914"
     inkscape:cx="-123.02784"
     inkscape:cy="-42.554749"
     inkscape:document-units="in"
     inkscape:current-layer="layer1"
     showgrid="false"
     units="in"
     inkscape:window-width="1920"
     inkscape:window-height="1115"
     inkscape:window-x="-8"
     inkscape:window-y="-8"
     inkscape:window-maximized="1" />
  <metadata
     id="metadata7">
    <rdf:RDF>
      <cc:Work
         rdf:about="">
        <dc:format>image/svg+xml</dc:format>
        <dc:type
           rdf:resource="http://purl.org/dc/dcmitype/StillImage" />
        <dc:title></dc:title>
      </cc:Work>
    </rdf:RDF>
  </metadata>
  <g
     inkscape:label="Layer 1"
     inkscape:groupmode="layer"
     id="layer1"
     transform="translate(0,-876.85975)">
    <rect
       style="fill:#ffffff;fill-rule:evenodd;stroke:#000000;stroke-width:0.99418603999999999px;stroke-linecap:butt;stroke-linejoin:miter;stroke-opacity:1"
       id="rect2985"
       width="170.00581"
       height="170.00581"
       x="2.7470932"
       y="879.60681"
       ry="8.5102367" />
    <path
       sodipodi:type="arc"
       style="fill:#ffffff;stroke:#000000;stroke-opacity:1"
       id="path2989"
       sodipodi:cx="-34.797413"
       sodipodi:cy="48.224678"
       sodipodi:rx="6.051724"
       sodipodi:ry="4.917026"
       d="m -28.745689,48.224678 a 6.051724,4.917026 0 1 1 -12.103448,0 6.051724,4.917026 0 1 1 12.103448,0 z"
       transform="matrix(0.92948721,0,0,1.1439842,50.34375,839.69148)" />
    <path
       sodipodi:type="arc"
       style="fill:#ffffff;stroke:#000000;stroke-opacity:1"
       id="path2989-1"
       sodipodi:cx="-34.797413"
       sodipodi:cy="48.224678"
       sodipodi:rx="6.051724"
       sodipodi:ry="4.917026"
       d="m -28.745689,48.224678 a 6.051724,4.917026 0 1 1 -12.103448,0 6.051724,4.917026 0 1 1 12.103448,0 z"
       transform="matrix(0.92948721,0,0,1.1439842,189.84375,839.69148)" />
    <path
       d="m 747.36172,130.84396 a 111.0071,98.744682 0 1 1 -222.01421,0 111.0071,98.744682 0 1 1 222.01421,0 z"
       sodipodi:ry="98.744682"
       sodipodi:rx="111.0071"
       sodipodi:cy="130.84396"
       sodipodi:cx="636.35461"
       id="path4113"
       style="fill:#ffffff;fill-opacity:1;stroke:#000000;stroke-width:2.82059875;stroke-linecap:round;stroke-miterlimit:4;stroke-opacity:1;stroke-dasharray:none;stroke-dashoffset:0"
       sodipodi:type="arc"
       transform="matrix(0.45784263,0,0,0.47023456,-205.74751,935.96419)" />
    <path
       transform="matrix(-0.20440169,0.32711198,-0.17856225,-0.09525337,260.88731,738.06298)"
       d="m 897.09218,284.44681 a 66.475174,49.695034 0 1 1 -132.95035,0 66.475174,49.695034 0 1 1 132.95035,0 z"
       sodipodi:ry="49.695034"
       sodipodi:rx="66.475174"
       sodipodi:cy="284.44681"
       sodipodi:cx="830.617"
       id="path4836"
       style="fill:#ffffff;fill-opacity:1;stroke:#000000;stroke-width:4.68969154;stroke-linecap:round;stroke-miterlimit:4;stroke-opacity:1;stroke-dasharray:none;stroke-dashoffset:0"
       sodipodi:type="arc" />
    <path
       sodipodi:type="arc"
       style="fill:#ffffff;fill-opacity:1;stroke:#000000;stroke-width:5.03124418;stroke-linecap:round;stroke-miterlimit:4;stroke-opacity:1;stroke-dasharray:none;stroke-dashoffset:0"
       id="path4826"
       sodipodi:cx="830.617"
       sodipodi:cy="284.44681"
       sodipodi:rx="66.475174"
       sodipodi:ry="49.695034"
       d="m 897.09218,284.44681 a 66.475174,49.695034 0 1 1 -132.95035,0 66.475174,49.695034 0 1 1 132.95035,0 z"
       transform="matrix(0.25115235,0.26708583,-0.12667233,0.13470861,-33.755949,726.62598)" />
    <path
       sodipodi:type="arc"
       style="fill:#ffffff;fill-opacity:1;stroke:#000000;stroke-width:4.23223957;stroke-linecap:round;stroke-miterlimit:4;stroke-opacity:1;stroke-dasharray:none;stroke-dashoffset:0"
       id="path4111"
       sodipodi:cx="636.35461"
       sodipodi:cy="130.84396"
       sodipodi:rx="111.0071"
       sodipodi:ry="98.744682"
       d="m 747.36172,130.84396 a 111.0071,98.744682 0 1 1 -222.01421,0 111.0071,98.744682 0 1 1 222.01421,0 z"
       transform="matrix(0.29986768,0,0,0.31889172,-106.57416,891.34809)" />
    <path
       sodipodi:type="arc"
       style="fill:#000000;fill-opacity:1;stroke:#000000;stroke-width:4.53743708;stroke-linecap:round;stroke-miterlimit:4;stroke-opacity:1;stroke-dasharray:none;stroke-dashoffset:0"
       id="path4702"
       sodipodi:cx="586.01416"
       sodipodi:cy="119.87234"
       sodipodi:rx="19.361702"
       sodipodi:ry="19.361702"
       d="m 605.37586,119.87234 a 19.361702,19.361702 0 1 1 -38.7234,0 19.361702,19.361702 0 1 1 38.7234,0 z"
       transform="matrix(0.28987209,0,0,0.28700255,-98.974815,899.90434)" />
    <path
       style="fill:#000000;fill-opacity:1;stroke:#000000;stroke-width:1.30875;stroke-linecap:round;stroke-miterlimit:4;stroke-opacity:1;stroke-dasharray:none;stroke-dashoffset:0"
       d="m 60.54219,917.83262 c 20.317033,4.67523 33.360068,1.56876 47.79873,0 7.41708,-0.80587 13.45791,-1.71354 13.45791,-3.84201 l 0,0 c 0,-2.12847 -6.00224,-3.842 -13.45791,-3.842 l -47.79873,0 c -7.455677,0 -13.457898,1.71353 -13.457898,3.842 l 0,0 c 0,2.12847 6.17087,2.16516 13.457898,3.84201 z"
       id="rect4718"
       inkscape:connector-curvature="0"
       sodipodi:nodetypes="sssssssss" />
    <path
       style="fill:#000000;fill-opacity:1;stroke:#000000;stroke-width:1.30875;stroke-linecap:butt;stroke-linejoin:miter;stroke-miterlimit:4;stroke-opacity:1;stroke-dasharray:none"
       d="m 59.303999,912.19806 c 0,0 -8.46083,-24.46593 23.357274,-25.44023 30.346067,-0.92922 25.523587,25.55004 25.523587,25.55004 -15.905187,1.20346 -27.365301,2.39729 -48.880861,-0.10981 z"
       id="path4720"
       inkscape:connector-curvature="0"
       sodipodi:nodetypes="cscc" />
    <path
       style="fill:#ffffff;fill-opacity:1;stroke:#000000;stroke-width:1.30875;stroke-linecap:butt;stroke-linejoin:miter;stroke-miterlimit:4;stroke-opacity:1;stroke-dasharray:none"
       d="m 113.66253,951.80567 c 0,0 -19.487376,7.13833 -27.615708,8.37319 -8.128328,1.23486 -27.3456,-6.31482 -27.3456,-6.31482 l -0.38187,5.34618 -1.210806,1.28531 c -0.986352,-0.50328 -1.583363,-0.82893 -1.583363,-0.82893 l -3.511339,3.39026 -3.37163,3.76281 c 0,0 19.72795,17.07379 37.6002,11.70757 12.542403,-3.76591 40.189466,-8.41976 40.189466,-8.41976 2.16225,-3.86542 -1.86633,-6.41154 -4.58244,-9.23939 0,0 -0.7569,0.16136 -0.87551,0.18628 l -7.3114,-9.2487 z"
       id="path4730"
       inkscape:connector-curvature="0" />
    <path
       style="fill:#ffffff;fill-opacity:1;stroke:#000000;stroke-width:1.30875;stroke-linecap:butt;stroke-linejoin:miter;stroke-miterlimit:4;stroke-opacity:1;stroke-dasharray:none"
       d="m 58.645339,953.566 c 0,0 -23.24333,16.55865 -16.280692,29.98143 4.886246,9.41985 10.925201,30.18637 10.925201,30.18637 5.015353,1.6239 8.317873,-1.4063 11.986985,-3.4462 0,0 -0.13674,-0.3667 -0.149022,-0.4005 l 10.357053,-4.1633 c 0,0 -14.603961,-22.461 -16.20618,-28.5657 -1.602223,-6.10471 12.378168,-17.24003 12.378168,-17.24003 l -4.452043,-1.06178 c 2.99e-4,-3e-4 0.01863,-0.0186 0.01863,-0.0186 L 63.52582,956.67684 58.645339,953.566 z"
       id="path4734"
       inkscape:connector-curvature="0" />
    <path
       transform="matrix(-0.28987209,0,0,0.28700255,269.36463,898.74011)"
       d="m 605.37586,119.87234 a 19.361702,19.361702 0 1 1 -38.7234,0 19.361702,19.361702 0 1 1 38.7234,0 z"
       sodipodi:ry="19.361702"
       sodipodi:rx="19.361702"
       sodipodi:cy="119.87234"
       sodipodi:cx="586.01416"
       id="path4816"
       style="fill:#000000;fill-opacity:1;stroke:#000000;stroke-width:4.53743708;stroke-linecap:round;stroke-miterlimit:4;stroke-opacity:1;stroke-dasharray:none;stroke-dashoffset:0"
       sodipodi:type="arc" />
  </g>
</svg>
