G75*
G70*
%OFA0B0*%
%FSLAX24Y24*%
%IPPOS*%
%LPD*%
%AMOC8*
5,1,8,0,0,1.08239X$1,22.5*
%
%ADD10C,0.0000*%
%ADD11OC8,0.0600*%
%ADD12R,0.2049X0.1261*%
%ADD13R,0.0830X0.2080*%
%ADD14C,0.0437*%
D10*
X000111Y002079D02*
X004048Y009953D01*
X002079Y009953D01*
X006016Y015859D01*
X004048Y015859D01*
X009953Y019796D01*
X015859Y015859D01*
X013890Y015859D01*
X017827Y009953D01*
X015859Y009953D01*
X019796Y002079D01*
X014890Y002079D01*
X014890Y000111D01*
X010288Y000111D01*
X010288Y009953D01*
X009619Y009953D01*
X009619Y000111D01*
X005016Y000111D01*
X005016Y002079D01*
X000111Y002079D01*
D11*
X001579Y003111D03*
X002579Y003111D03*
X002760Y006111D03*
X003760Y006111D03*
X003548Y011111D03*
X004548Y011111D03*
X005123Y013611D03*
X006123Y013611D03*
X006304Y016611D03*
X007304Y016611D03*
X012603Y016611D03*
X013603Y016611D03*
X013784Y013611D03*
X014784Y013611D03*
X015359Y011111D03*
X016359Y011111D03*
X016146Y006111D03*
X017146Y006111D03*
X017327Y003111D03*
X018327Y003111D03*
D12*
X009953Y012111D03*
X009953Y014861D03*
D13*
X009111Y017861D03*
D14*
X011611Y014861D03*
X011611Y012111D03*
X012111Y011111D03*
X011361Y009111D03*
X008611Y009111D03*
X008236Y010611D03*
X008611Y006111D03*
M02*
