G75*
G70*
%OFA0B0*%
%FSLAX24Y24*%
%IPPOS*%
%LPD*%
%AMOC8*
5,1,8,0,0,1.08239X$1,22.5*
%
%ADD10C,0.0000*%
%ADD11OC8,0.0520*%
%ADD12C,0.0520*%
%ADD13C,0.0600*%
%ADD14R,0.0591X0.1181*%
%ADD15R,0.1969X0.1181*%
%ADD16R,0.0787X0.1575*%
%ADD17C,0.0160*%
%ADD18C,0.0357*%
%ADD19C,0.0120*%
%ADD20C,0.0240*%
D10*
X000665Y002634D02*
X004602Y010508D01*
X002634Y010508D01*
X006571Y016413D01*
X004602Y016413D01*
X010173Y020144D01*
X010173Y010508D01*
X010842Y010508D01*
X010842Y020144D01*
X016413Y016413D01*
X014445Y016413D01*
X018382Y010508D01*
X016413Y010508D01*
X020350Y002634D01*
X016445Y002634D01*
X016445Y000665D01*
X004571Y000665D01*
X004571Y002634D01*
X000665Y002634D01*
D11*
X002134Y003665D03*
X003134Y003665D03*
X003315Y006665D03*
X004315Y006665D03*
X004102Y011665D03*
X005102Y011665D03*
X005677Y014165D03*
X006677Y014165D03*
X006858Y017165D03*
X007858Y017165D03*
X013157Y017165D03*
X014157Y017165D03*
X014338Y014165D03*
X015338Y014165D03*
X015913Y011665D03*
X016913Y011665D03*
X015165Y008665D03*
X013165Y008665D03*
X017882Y003665D03*
X018882Y003665D03*
D12*
X015925Y003665D02*
X015405Y003665D01*
X015405Y004665D02*
X015925Y004665D01*
X015925Y005665D02*
X015405Y005665D01*
X015405Y006665D02*
X015925Y006665D01*
X012925Y006665D02*
X012405Y006665D01*
X012405Y005665D02*
X012925Y005665D01*
X012925Y004665D02*
X012405Y004665D01*
X012405Y003665D02*
X012925Y003665D01*
D13*
X007555Y003585D02*
X007555Y004185D01*
X005775Y004185D02*
X005775Y003585D01*
X005775Y006145D02*
X005775Y006745D01*
X007555Y006745D02*
X007555Y006145D01*
D14*
X009790Y012665D03*
X011165Y012665D03*
X011165Y015415D03*
X009790Y015415D03*
D15*
X010508Y009665D03*
X010508Y006665D03*
X010508Y003665D03*
D16*
X015807Y001665D03*
X005209Y001665D03*
D17*
X006165Y001665D01*
X007555Y003885D02*
X007555Y006445D01*
X007555Y007430D01*
X007790Y007665D01*
X012165Y007665D01*
X012665Y007165D01*
X012665Y006665D01*
X012165Y008165D02*
X007665Y008165D01*
X004815Y008165D01*
X003315Y006665D01*
X004665Y009665D02*
X007165Y009665D01*
X006165Y010165D02*
X006165Y014665D01*
X007858Y016358D01*
X007858Y017165D01*
X008415Y015415D02*
X007665Y014665D01*
X007665Y008165D01*
X008415Y008665D02*
X008165Y008915D01*
X008165Y012665D01*
X009790Y012665D01*
X011165Y012665D02*
X011165Y011415D01*
X011915Y010665D01*
X011915Y008915D01*
X011665Y008665D01*
X008415Y008665D01*
X008665Y006665D02*
X008665Y005665D01*
X009165Y005165D01*
X014165Y005165D01*
X014665Y004665D01*
X015665Y004665D01*
X017165Y004665D01*
X017665Y005165D01*
X017665Y005665D02*
X015665Y005665D01*
X014665Y005665D01*
X012165Y008165D01*
X012415Y008415D01*
X012415Y014915D01*
X014588Y014915D01*
X015338Y014165D01*
X012415Y014915D02*
X011915Y015415D01*
X011165Y015415D01*
X009790Y015415D02*
X008415Y015415D01*
X015165Y008665D02*
X015165Y007665D01*
X015665Y007165D01*
X015665Y006665D01*
X017665Y005665D02*
X018882Y004449D01*
X018882Y003665D01*
X015665Y003665D02*
X014665Y003665D01*
X014165Y004165D01*
X012165Y004165D01*
X011665Y004665D01*
X009165Y004665D01*
X008665Y004165D01*
X008665Y003665D01*
X014665Y001665D02*
X015807Y001665D01*
D18*
X014665Y001665D03*
X017665Y005165D03*
X011915Y010665D03*
X008665Y009665D03*
X007165Y009665D03*
X006165Y010165D03*
X004665Y009665D03*
X008165Y012665D03*
X007665Y014665D03*
X008665Y006665D03*
X008665Y003665D03*
X006165Y001665D03*
D19*
X005935Y001445D02*
X005985Y001395D01*
X006102Y001347D01*
X006229Y001347D01*
X006346Y001395D01*
X006435Y001485D01*
X006484Y001602D01*
X006484Y001729D01*
X006435Y001846D01*
X006346Y001935D01*
X006229Y001984D01*
X006102Y001984D01*
X005985Y001935D01*
X005935Y001885D01*
X005742Y001885D01*
X005742Y002511D01*
X005660Y002593D01*
X004757Y002593D01*
X004731Y002567D01*
X004731Y002700D01*
X004637Y002794D01*
X000924Y002794D01*
X002915Y006775D01*
X002915Y006500D01*
X003149Y006265D01*
X003480Y006265D01*
X003715Y006500D01*
X003715Y006754D01*
X004906Y007945D01*
X007756Y007945D01*
X012074Y007945D01*
X012134Y007885D01*
X007699Y007885D01*
X007570Y007756D01*
X007335Y007521D01*
X007335Y007339D01*
X007335Y007130D01*
X007306Y007118D01*
X007182Y006994D01*
X007115Y006833D01*
X007115Y006058D01*
X007182Y005896D01*
X007306Y005772D01*
X007335Y005760D01*
X007335Y004570D01*
X007306Y004558D01*
X007182Y004434D01*
X007115Y004273D01*
X007115Y003498D01*
X007182Y003336D01*
X007306Y003212D01*
X007468Y003145D01*
X007643Y003145D01*
X007804Y003212D01*
X007928Y003336D01*
X007995Y003498D01*
X007995Y004273D01*
X007928Y004434D01*
X007804Y004558D01*
X007775Y004570D01*
X007775Y005760D01*
X007804Y005772D01*
X007928Y005896D01*
X007995Y006058D01*
X007995Y006833D01*
X007928Y006994D01*
X007804Y007118D01*
X007775Y007130D01*
X007775Y007339D01*
X007881Y007445D01*
X012074Y007445D01*
X012445Y007074D01*
X012445Y007065D01*
X012326Y007065D01*
X012179Y007004D01*
X012066Y006892D01*
X012005Y006745D01*
X012005Y006586D01*
X012066Y006439D01*
X012179Y006326D01*
X012326Y006265D01*
X013005Y006265D01*
X013152Y006326D01*
X013264Y006439D01*
X013325Y006586D01*
X013325Y006694D01*
X014574Y005445D01*
X014756Y005445D01*
X015063Y005445D01*
X015066Y005439D01*
X015179Y005326D01*
X015326Y005265D01*
X016005Y005265D01*
X016152Y005326D01*
X016264Y005439D01*
X016267Y005445D01*
X017509Y005445D01*
X017485Y005435D01*
X017395Y005346D01*
X017347Y005229D01*
X017347Y005158D01*
X017074Y004885D01*
X016267Y004885D01*
X016264Y004892D01*
X016152Y005004D01*
X016005Y005065D01*
X015326Y005065D01*
X015179Y005004D01*
X015066Y004892D01*
X015063Y004885D01*
X014756Y004885D01*
X014385Y005256D01*
X014256Y005385D01*
X013211Y005385D01*
X013264Y005439D01*
X013325Y005586D01*
X013325Y005745D01*
X013264Y005892D01*
X013152Y006004D01*
X013005Y006065D01*
X012326Y006065D01*
X012179Y006004D01*
X012066Y005892D01*
X012005Y005745D01*
X012005Y005586D01*
X012066Y005439D01*
X012120Y005385D01*
X009256Y005385D01*
X008885Y005756D01*
X008885Y006405D01*
X009383Y006405D01*
X009383Y006017D01*
X009465Y005935D01*
X011550Y005935D01*
X011632Y006017D01*
X011632Y007314D01*
X011550Y007396D01*
X009465Y007396D01*
X009383Y007314D01*
X009383Y006925D01*
X008856Y006925D01*
X008846Y006935D01*
X008729Y006984D01*
X008602Y006984D01*
X008485Y006935D01*
X008395Y006846D01*
X008347Y006729D01*
X008347Y006602D01*
X008395Y006485D01*
X008445Y006435D01*
X008445Y005756D01*
X008445Y005574D01*
X009074Y004945D01*
X009256Y004945D01*
X012120Y004945D01*
X012066Y004892D01*
X012005Y004745D01*
X012005Y004636D01*
X011756Y004885D01*
X011574Y004885D01*
X009074Y004885D01*
X008945Y004756D01*
X008445Y004256D01*
X008445Y004074D01*
X008445Y003895D01*
X008395Y003846D01*
X008347Y003729D01*
X008347Y003602D01*
X008395Y003485D01*
X008485Y003395D01*
X008602Y003347D01*
X008729Y003347D01*
X008846Y003395D01*
X008855Y003405D01*
X009383Y003405D01*
X009383Y003017D01*
X009465Y002935D01*
X011550Y002935D01*
X011632Y003017D01*
X011632Y004314D01*
X011550Y004396D01*
X009465Y004396D01*
X009383Y004314D01*
X009383Y003925D01*
X008885Y003925D01*
X008885Y004074D01*
X009256Y004445D01*
X011574Y004445D01*
X011945Y004074D01*
X012074Y003945D01*
X012091Y003945D01*
X012085Y003939D01*
X012046Y003885D01*
X012016Y003826D01*
X011996Y003764D01*
X011985Y003698D01*
X011985Y003685D01*
X012645Y003685D01*
X012645Y003645D01*
X012685Y003645D01*
X012685Y003245D01*
X012958Y003245D01*
X013024Y003256D01*
X013086Y003276D01*
X013145Y003306D01*
X013199Y003345D01*
X013246Y003392D01*
X015113Y003392D01*
X015066Y003439D02*
X015179Y003326D01*
X015326Y003265D01*
X016005Y003265D01*
X016152Y003326D01*
X016264Y003439D01*
X016325Y003586D01*
X016325Y003745D01*
X016264Y003892D01*
X016152Y004004D01*
X016005Y004065D01*
X015326Y004065D01*
X015179Y004004D01*
X015066Y003892D01*
X015063Y003885D01*
X014756Y003885D01*
X014256Y004385D01*
X014074Y004385D01*
X013211Y004385D01*
X013264Y004439D01*
X013325Y004586D01*
X013325Y004745D01*
X013264Y004892D01*
X013211Y004945D01*
X014074Y004945D01*
X014574Y004445D01*
X014756Y004445D01*
X015063Y004445D01*
X015066Y004439D01*
X015179Y004326D01*
X015326Y004265D01*
X016005Y004265D01*
X016152Y004326D01*
X016264Y004439D01*
X016267Y004445D01*
X017256Y004445D01*
X017385Y004574D01*
X017658Y004847D01*
X017729Y004847D01*
X017846Y004895D01*
X017935Y004985D01*
X017964Y005055D01*
X018662Y004358D01*
X018662Y004011D01*
X018482Y003831D01*
X018482Y003500D01*
X018716Y003265D01*
X019047Y003265D01*
X019282Y003500D01*
X019282Y003831D01*
X019102Y004011D01*
X019102Y004358D01*
X019102Y004540D01*
X017885Y005756D01*
X017756Y005885D01*
X016267Y005885D01*
X016264Y005892D01*
X016152Y006004D01*
X016005Y006065D01*
X015326Y006065D01*
X015179Y006004D01*
X015066Y005892D01*
X015063Y005885D01*
X014756Y005885D01*
X012476Y008165D01*
X012635Y008324D01*
X012635Y008506D01*
X012635Y014695D01*
X014497Y014695D01*
X014938Y014254D01*
X014938Y014000D01*
X015173Y013765D01*
X015504Y013765D01*
X015738Y014000D01*
X015738Y014184D01*
X017295Y011849D01*
X017079Y012065D01*
X016748Y012065D01*
X016513Y011831D01*
X016513Y011500D01*
X016748Y011265D01*
X017079Y011265D01*
X017313Y011500D01*
X017313Y011822D01*
X018082Y010668D01*
X016439Y010668D01*
X016401Y010681D01*
X016375Y010668D01*
X016347Y010668D01*
X016318Y010639D01*
X016282Y010621D01*
X016273Y010594D01*
X016253Y010574D01*
X016253Y010534D01*
X016240Y010495D01*
X016253Y010470D01*
X016253Y010441D01*
X016282Y010413D01*
X020091Y002794D01*
X016378Y002794D01*
X016285Y002700D01*
X016285Y002589D01*
X016262Y002602D01*
X016222Y002613D01*
X015867Y002613D01*
X015867Y001725D01*
X015747Y001725D01*
X015747Y001605D01*
X015253Y001605D01*
X015253Y000857D01*
X015262Y000825D01*
X005742Y000825D01*
X005742Y001445D01*
X005935Y001445D01*
X006030Y001376D02*
X005742Y001376D01*
X005742Y001258D02*
X015253Y001258D01*
X015253Y001376D02*
X006300Y001376D01*
X006439Y001495D02*
X015253Y001495D01*
X015253Y001725D02*
X015747Y001725D01*
X015747Y002613D01*
X015392Y002613D01*
X015351Y002602D01*
X015315Y002581D01*
X015285Y002551D01*
X015264Y002514D01*
X015253Y002474D01*
X015253Y001725D01*
X015253Y001732D02*
X006482Y001732D01*
X006484Y001614D02*
X015747Y001614D01*
X015747Y001732D02*
X015867Y001732D01*
X015867Y001851D02*
X015747Y001851D01*
X015747Y001969D02*
X015867Y001969D01*
X015867Y002088D02*
X015747Y002088D01*
X015747Y002206D02*
X015867Y002206D01*
X015867Y002325D02*
X015747Y002325D01*
X015747Y002443D02*
X015867Y002443D01*
X015867Y002562D02*
X015747Y002562D01*
X015296Y002562D02*
X005691Y002562D01*
X005742Y002443D02*
X015253Y002443D01*
X015253Y002325D02*
X005742Y002325D01*
X005742Y002206D02*
X015253Y002206D01*
X015253Y002088D02*
X005742Y002088D01*
X005742Y001969D02*
X006067Y001969D01*
X006263Y001969D02*
X015253Y001969D01*
X015253Y001851D02*
X006430Y001851D01*
X005742Y001139D02*
X015253Y001139D01*
X015253Y001021D02*
X005742Y001021D01*
X005742Y000902D02*
X015253Y000902D01*
X016285Y002680D02*
X004731Y002680D01*
X004731Y002567D02*
X004731Y002567D01*
X005437Y003273D02*
X003307Y003273D01*
X003299Y003265D02*
X003534Y003500D01*
X003534Y003831D01*
X003299Y004065D01*
X002968Y004065D01*
X002734Y003831D01*
X002734Y003500D01*
X002968Y003265D01*
X003299Y003265D01*
X003426Y003392D02*
X005357Y003392D01*
X005349Y003409D02*
X005382Y003344D01*
X005424Y003286D01*
X005476Y003234D01*
X005534Y003192D01*
X005599Y003159D01*
X005667Y003137D01*
X005735Y003126D01*
X005735Y003845D01*
X005315Y003845D01*
X005315Y003549D01*
X005327Y003477D01*
X005349Y003409D01*
X005321Y003510D02*
X003534Y003510D01*
X003534Y003629D02*
X005315Y003629D01*
X005315Y003747D02*
X003534Y003747D01*
X003499Y003866D02*
X005735Y003866D01*
X005735Y003845D02*
X005735Y003925D01*
X005315Y003925D01*
X005315Y004221D01*
X005327Y004293D01*
X005349Y004362D01*
X005382Y004426D01*
X005424Y004485D01*
X005476Y004536D01*
X005534Y004579D01*
X005599Y004611D01*
X005667Y004634D01*
X005735Y004645D01*
X005735Y003925D01*
X005815Y003925D01*
X005815Y004645D01*
X005883Y004634D01*
X005952Y004611D01*
X006016Y004579D01*
X006075Y004536D01*
X006126Y004485D01*
X006169Y004426D01*
X006201Y004362D01*
X006224Y004293D01*
X006235Y004221D01*
X006235Y003925D01*
X005815Y003925D01*
X005815Y003845D01*
X005815Y003126D01*
X005883Y003137D01*
X005952Y003159D01*
X006016Y003192D01*
X006075Y003234D01*
X006126Y003286D01*
X006169Y003344D01*
X006201Y003409D01*
X006224Y003477D01*
X006235Y003549D01*
X006235Y003845D01*
X005815Y003845D01*
X005735Y003845D01*
X005815Y003866D02*
X007115Y003866D01*
X007115Y003984D02*
X006235Y003984D01*
X006235Y004103D02*
X007115Y004103D01*
X007115Y004221D02*
X006235Y004221D01*
X006209Y004340D02*
X007143Y004340D01*
X007206Y004459D02*
X006145Y004459D01*
X006018Y004577D02*
X007335Y004577D01*
X007335Y004696D02*
X001875Y004696D01*
X001934Y004814D02*
X007335Y004814D01*
X007335Y004933D02*
X001994Y004933D01*
X002053Y005051D02*
X007335Y005051D01*
X007335Y005170D02*
X002112Y005170D01*
X002172Y005288D02*
X007335Y005288D01*
X007335Y005407D02*
X002231Y005407D01*
X002290Y005525D02*
X007335Y005525D01*
X007335Y005644D02*
X002349Y005644D01*
X002409Y005763D02*
X005519Y005763D01*
X005534Y005752D02*
X005599Y005719D01*
X005667Y005697D01*
X005735Y005686D01*
X005735Y006405D01*
X005315Y006405D01*
X005315Y006109D01*
X005327Y006037D01*
X005349Y005969D01*
X005382Y005904D01*
X005424Y005846D01*
X005476Y005794D01*
X005534Y005752D01*
X005398Y005881D02*
X002468Y005881D01*
X002527Y006000D02*
X005339Y006000D01*
X005315Y006118D02*
X002586Y006118D01*
X002646Y006237D02*
X005315Y006237D01*
X005315Y006355D02*
X004571Y006355D01*
X004480Y006265D02*
X004715Y006500D01*
X004715Y006831D01*
X004480Y007065D01*
X004149Y007065D01*
X003915Y006831D01*
X003915Y006500D01*
X004149Y006265D01*
X004480Y006265D01*
X004689Y006474D02*
X005735Y006474D01*
X005735Y006485D02*
X005735Y006405D01*
X005815Y006405D01*
X005815Y005686D01*
X005883Y005697D01*
X005952Y005719D01*
X006016Y005752D01*
X006075Y005794D01*
X006126Y005846D01*
X006169Y005904D01*
X006201Y005969D01*
X006224Y006037D01*
X006235Y006109D01*
X006235Y006405D01*
X005815Y006405D01*
X005815Y006485D01*
X005735Y006485D01*
X005315Y006485D01*
X005315Y006781D01*
X005327Y006853D01*
X005349Y006922D01*
X005382Y006986D01*
X005424Y007045D01*
X005476Y007096D01*
X005534Y007139D01*
X005599Y007171D01*
X005667Y007194D01*
X005735Y007205D01*
X005735Y006485D01*
X005815Y006485D02*
X005815Y007205D01*
X005883Y007194D01*
X005952Y007171D01*
X006016Y007139D01*
X006075Y007096D01*
X006126Y007045D01*
X006169Y006986D01*
X006201Y006922D01*
X006224Y006853D01*
X006235Y006781D01*
X006235Y006485D01*
X005815Y006485D01*
X005815Y006474D02*
X007115Y006474D01*
X007115Y006592D02*
X006235Y006592D01*
X006235Y006711D02*
X007115Y006711D01*
X007115Y006829D02*
X006228Y006829D01*
X006188Y006948D02*
X007163Y006948D01*
X007254Y007067D02*
X006104Y007067D01*
X005910Y007185D02*
X007335Y007185D01*
X007335Y007304D02*
X004264Y007304D01*
X004383Y007422D02*
X007335Y007422D01*
X007355Y007541D02*
X004501Y007541D01*
X004620Y007659D02*
X007473Y007659D01*
X007592Y007778D02*
X004739Y007778D01*
X004857Y007896D02*
X012123Y007896D01*
X012508Y008133D02*
X014945Y008133D01*
X014945Y008015D02*
X012627Y008015D01*
X012745Y007896D02*
X014945Y007896D01*
X014945Y007778D02*
X012864Y007778D01*
X012982Y007659D02*
X014945Y007659D01*
X014945Y007574D02*
X015074Y007445D01*
X015445Y007074D01*
X015445Y007065D01*
X015326Y007065D01*
X015179Y007004D01*
X015066Y006892D01*
X015005Y006745D01*
X015005Y006586D01*
X015066Y006439D01*
X015179Y006326D01*
X015326Y006265D01*
X016005Y006265D01*
X016152Y006326D01*
X016264Y006439D01*
X016325Y006586D01*
X016325Y006745D01*
X016264Y006892D01*
X016152Y007004D01*
X016005Y007065D01*
X015885Y007065D01*
X015885Y007074D01*
X015885Y007256D01*
X015385Y007756D01*
X015385Y008320D01*
X015565Y008500D01*
X015565Y008831D01*
X015331Y009065D01*
X015000Y009065D01*
X014765Y008831D01*
X014765Y008500D01*
X014945Y008320D01*
X014945Y007574D01*
X014979Y007541D02*
X013101Y007541D01*
X013219Y007422D02*
X015097Y007422D01*
X015216Y007304D02*
X013338Y007304D01*
X013456Y007185D02*
X015334Y007185D01*
X015445Y007067D02*
X013575Y007067D01*
X013693Y006948D02*
X015122Y006948D01*
X015040Y006829D02*
X013812Y006829D01*
X013931Y006711D02*
X015005Y006711D01*
X015005Y006592D02*
X014049Y006592D01*
X014168Y006474D02*
X015051Y006474D01*
X015149Y006355D02*
X014286Y006355D01*
X014405Y006237D02*
X018370Y006237D01*
X018310Y006355D02*
X016181Y006355D01*
X016279Y006474D02*
X018251Y006474D01*
X018192Y006592D02*
X016325Y006592D01*
X016325Y006711D02*
X018133Y006711D01*
X018073Y006829D02*
X016290Y006829D01*
X016208Y006948D02*
X018014Y006948D01*
X017955Y007067D02*
X015885Y007067D01*
X015885Y007185D02*
X017895Y007185D01*
X017836Y007304D02*
X015838Y007304D01*
X015719Y007422D02*
X017777Y007422D01*
X017718Y007541D02*
X015601Y007541D01*
X015482Y007659D02*
X017658Y007659D01*
X017599Y007778D02*
X015385Y007778D01*
X015385Y007896D02*
X017540Y007896D01*
X017481Y008015D02*
X015385Y008015D01*
X015385Y008133D02*
X017421Y008133D01*
X017362Y008252D02*
X015385Y008252D01*
X015436Y008371D02*
X017303Y008371D01*
X017243Y008489D02*
X015555Y008489D01*
X015565Y008608D02*
X017184Y008608D01*
X017125Y008726D02*
X015565Y008726D01*
X015551Y008845D02*
X017066Y008845D01*
X017006Y008963D02*
X015433Y008963D01*
X014898Y008963D02*
X013461Y008963D01*
X013580Y008845D02*
X014779Y008845D01*
X014765Y008726D02*
X013585Y008726D01*
X013585Y008685D02*
X013585Y008839D01*
X013339Y009085D01*
X013185Y009085D01*
X013185Y008685D01*
X013585Y008685D01*
X013585Y008645D02*
X013185Y008645D01*
X013185Y008245D01*
X013339Y008245D01*
X013585Y008491D01*
X013585Y008645D01*
X013585Y008608D02*
X014765Y008608D01*
X014776Y008489D02*
X013583Y008489D01*
X013464Y008371D02*
X014894Y008371D01*
X014945Y008252D02*
X013346Y008252D01*
X013185Y008252D02*
X013145Y008252D01*
X013145Y008245D02*
X013145Y008645D01*
X013185Y008645D01*
X013185Y008685D01*
X013145Y008685D01*
X013145Y008645D01*
X012745Y008645D01*
X012745Y008491D01*
X012991Y008245D01*
X013145Y008245D01*
X013145Y008371D02*
X013185Y008371D01*
X013185Y008489D02*
X013145Y008489D01*
X013145Y008608D02*
X013185Y008608D01*
X013145Y008685D02*
X012745Y008685D01*
X012745Y008839D01*
X012991Y009085D01*
X013145Y009085D01*
X013145Y008685D01*
X013145Y008726D02*
X013185Y008726D01*
X013185Y008845D02*
X013145Y008845D01*
X013145Y008963D02*
X013185Y008963D01*
X013185Y009082D02*
X013145Y009082D01*
X012988Y009082D02*
X012635Y009082D01*
X012635Y009200D02*
X016888Y009200D01*
X016947Y009082D02*
X013343Y009082D01*
X012869Y008963D02*
X012635Y008963D01*
X012635Y008845D02*
X012751Y008845D01*
X012745Y008726D02*
X012635Y008726D01*
X012635Y008608D02*
X012745Y008608D01*
X012747Y008489D02*
X012635Y008489D01*
X012635Y008371D02*
X012866Y008371D01*
X012984Y008252D02*
X012563Y008252D01*
X012097Y007422D02*
X007858Y007422D01*
X007775Y007304D02*
X009383Y007304D01*
X009383Y007185D02*
X007775Y007185D01*
X007856Y007067D02*
X009383Y007067D01*
X009383Y006948D02*
X008814Y006948D01*
X008516Y006948D02*
X007947Y006948D01*
X007995Y006829D02*
X008389Y006829D01*
X008347Y006711D02*
X007995Y006711D01*
X007995Y006592D02*
X008351Y006592D01*
X008406Y006474D02*
X007995Y006474D01*
X007995Y006355D02*
X008445Y006355D01*
X008445Y006237D02*
X007995Y006237D01*
X007995Y006118D02*
X008445Y006118D01*
X008445Y006000D02*
X007971Y006000D01*
X007913Y005881D02*
X008445Y005881D01*
X008445Y005763D02*
X007781Y005763D01*
X007775Y005644D02*
X008445Y005644D01*
X008494Y005525D02*
X007775Y005525D01*
X007775Y005407D02*
X008612Y005407D01*
X008731Y005288D02*
X007775Y005288D01*
X007775Y005170D02*
X008849Y005170D01*
X008968Y005051D02*
X007775Y005051D01*
X007775Y004933D02*
X012107Y004933D01*
X012034Y004814D02*
X011827Y004814D01*
X011946Y004696D02*
X012005Y004696D01*
X011679Y004340D02*
X011606Y004340D01*
X011632Y004221D02*
X011798Y004221D01*
X011916Y004103D02*
X011632Y004103D01*
X011632Y003984D02*
X012035Y003984D01*
X012036Y003866D02*
X011632Y003866D01*
X011632Y003747D02*
X011993Y003747D01*
X011985Y003645D02*
X011985Y003632D01*
X011996Y003567D01*
X012016Y003504D01*
X012046Y003445D01*
X012085Y003392D01*
X011632Y003392D01*
X011632Y003510D02*
X012014Y003510D01*
X011986Y003629D02*
X011632Y003629D01*
X011632Y003273D02*
X012253Y003273D01*
X012244Y003276D02*
X012307Y003256D01*
X012372Y003245D01*
X012645Y003245D01*
X012645Y003645D01*
X011985Y003645D01*
X012085Y003392D02*
X012132Y003345D01*
X012185Y003306D01*
X012244Y003276D01*
X012645Y003273D02*
X012685Y003273D01*
X012685Y003392D02*
X012645Y003392D01*
X012645Y003510D02*
X012685Y003510D01*
X012685Y003629D02*
X012645Y003629D01*
X012685Y003645D02*
X012685Y003685D01*
X013345Y003685D01*
X013345Y003698D01*
X013335Y003764D01*
X013314Y003826D01*
X013284Y003885D01*
X013246Y003939D01*
X013239Y003945D01*
X014074Y003945D01*
X014574Y003445D01*
X014756Y003445D01*
X015063Y003445D01*
X015066Y003439D01*
X015306Y003273D02*
X013078Y003273D01*
X013246Y003392D02*
X013284Y003445D01*
X013314Y003504D01*
X013335Y003567D01*
X013345Y003632D01*
X013345Y003645D01*
X012685Y003645D01*
X013316Y003510D02*
X014509Y003510D01*
X014390Y003629D02*
X013345Y003629D01*
X013337Y003747D02*
X014272Y003747D01*
X014153Y003866D02*
X013294Y003866D01*
X013273Y004459D02*
X014561Y004459D01*
X014442Y004577D02*
X013322Y004577D01*
X013325Y004696D02*
X014324Y004696D01*
X014205Y004814D02*
X013296Y004814D01*
X013223Y004933D02*
X014086Y004933D01*
X014353Y005288D02*
X015270Y005288D01*
X015098Y005407D02*
X013233Y005407D01*
X013300Y005525D02*
X014494Y005525D01*
X014375Y005644D02*
X013325Y005644D01*
X013318Y005763D02*
X014257Y005763D01*
X014138Y005881D02*
X013269Y005881D01*
X013156Y006000D02*
X014020Y006000D01*
X013901Y006118D02*
X011632Y006118D01*
X011632Y006237D02*
X013783Y006237D01*
X013664Y006355D02*
X013181Y006355D01*
X013279Y006474D02*
X013545Y006474D01*
X013427Y006592D02*
X013325Y006592D01*
X012445Y007067D02*
X011632Y007067D01*
X011632Y007185D02*
X012334Y007185D01*
X012216Y007304D02*
X011632Y007304D01*
X011632Y006948D02*
X012122Y006948D01*
X012040Y006829D02*
X011632Y006829D01*
X011632Y006711D02*
X012005Y006711D01*
X012005Y006592D02*
X011632Y006592D01*
X011632Y006474D02*
X012051Y006474D01*
X012149Y006355D02*
X011632Y006355D01*
X011615Y006000D02*
X012174Y006000D01*
X012062Y005881D02*
X008885Y005881D01*
X008885Y005763D02*
X012013Y005763D01*
X012005Y005644D02*
X008997Y005644D01*
X009116Y005525D02*
X012030Y005525D01*
X012098Y005407D02*
X009235Y005407D01*
X009400Y006000D02*
X008885Y006000D01*
X008885Y006118D02*
X009383Y006118D01*
X009383Y006237D02*
X008885Y006237D01*
X008885Y006355D02*
X009383Y006355D01*
X009003Y004814D02*
X007775Y004814D01*
X007775Y004696D02*
X008885Y004696D01*
X008766Y004577D02*
X007775Y004577D01*
X007904Y004459D02*
X008647Y004459D01*
X008529Y004340D02*
X007967Y004340D01*
X007995Y004221D02*
X008445Y004221D01*
X008445Y004103D02*
X007995Y004103D01*
X007995Y003984D02*
X008445Y003984D01*
X008416Y003866D02*
X007995Y003866D01*
X007995Y003747D02*
X008355Y003747D01*
X008347Y003629D02*
X007995Y003629D01*
X007995Y003510D02*
X008385Y003510D01*
X008493Y003392D02*
X007951Y003392D01*
X007865Y003273D02*
X009383Y003273D01*
X009383Y003155D02*
X007665Y003155D01*
X007445Y003155D02*
X005939Y003155D01*
X005815Y003155D02*
X005735Y003155D01*
X005735Y003273D02*
X005815Y003273D01*
X005815Y003392D02*
X005735Y003392D01*
X005735Y003510D02*
X005815Y003510D01*
X005815Y003629D02*
X005735Y003629D01*
X005735Y003747D02*
X005815Y003747D01*
X005815Y003984D02*
X005735Y003984D01*
X005735Y004103D02*
X005815Y004103D01*
X005815Y004221D02*
X005735Y004221D01*
X005735Y004340D02*
X005815Y004340D01*
X005815Y004459D02*
X005735Y004459D01*
X005735Y004577D02*
X005815Y004577D01*
X005532Y004577D02*
X001816Y004577D01*
X001757Y004459D02*
X005405Y004459D01*
X005342Y004340D02*
X001697Y004340D01*
X001638Y004221D02*
X005315Y004221D01*
X005315Y004103D02*
X001579Y004103D01*
X001520Y003984D02*
X001887Y003984D01*
X001968Y004065D02*
X001734Y003831D01*
X001734Y003500D01*
X001968Y003265D01*
X002299Y003265D01*
X002534Y003500D01*
X002534Y003831D01*
X002299Y004065D01*
X001968Y004065D01*
X001769Y003866D02*
X001460Y003866D01*
X001401Y003747D02*
X001734Y003747D01*
X001734Y003629D02*
X001342Y003629D01*
X001282Y003510D02*
X001734Y003510D01*
X001842Y003392D02*
X001223Y003392D01*
X001164Y003273D02*
X001960Y003273D01*
X002307Y003273D02*
X002960Y003273D01*
X002842Y003392D02*
X002426Y003392D01*
X002534Y003510D02*
X002734Y003510D01*
X002734Y003629D02*
X002534Y003629D01*
X002534Y003747D02*
X002734Y003747D01*
X002769Y003866D02*
X002499Y003866D01*
X002380Y003984D02*
X002887Y003984D01*
X003380Y003984D02*
X005315Y003984D01*
X005612Y003155D02*
X001105Y003155D01*
X001045Y003036D02*
X009383Y003036D01*
X009383Y003392D02*
X008837Y003392D01*
X008885Y003984D02*
X009383Y003984D01*
X009383Y004103D02*
X008914Y004103D01*
X009033Y004221D02*
X009383Y004221D01*
X009410Y004340D02*
X009151Y004340D01*
X007329Y005763D02*
X006031Y005763D01*
X006152Y005881D02*
X007197Y005881D01*
X007139Y006000D02*
X006212Y006000D01*
X006235Y006118D02*
X007115Y006118D01*
X007115Y006237D02*
X006235Y006237D01*
X006235Y006355D02*
X007115Y006355D01*
X005815Y006355D02*
X005735Y006355D01*
X005735Y006237D02*
X005815Y006237D01*
X005815Y006118D02*
X005735Y006118D01*
X005735Y006000D02*
X005815Y006000D01*
X005815Y005881D02*
X005735Y005881D01*
X005735Y005763D02*
X005815Y005763D01*
X005815Y006592D02*
X005735Y006592D01*
X005735Y006711D02*
X005815Y006711D01*
X005815Y006829D02*
X005735Y006829D01*
X005735Y006948D02*
X005815Y006948D01*
X005815Y007067D02*
X005735Y007067D01*
X005735Y007185D02*
X005815Y007185D01*
X005641Y007185D02*
X004146Y007185D01*
X004027Y007067D02*
X005446Y007067D01*
X005362Y006948D02*
X004598Y006948D01*
X004715Y006829D02*
X005323Y006829D01*
X005315Y006711D02*
X004715Y006711D01*
X004715Y006592D02*
X005315Y006592D01*
X004059Y006355D02*
X003571Y006355D01*
X003689Y006474D02*
X003941Y006474D01*
X003915Y006592D02*
X003715Y006592D01*
X003715Y006711D02*
X003915Y006711D01*
X003915Y006829D02*
X003790Y006829D01*
X003909Y006948D02*
X004032Y006948D01*
X003059Y006355D02*
X002705Y006355D01*
X002764Y006474D02*
X002941Y006474D01*
X002915Y006592D02*
X002824Y006592D01*
X002883Y006711D02*
X002915Y006711D01*
X006235Y003747D02*
X007115Y003747D01*
X007115Y003629D02*
X006235Y003629D01*
X006229Y003510D02*
X007115Y003510D01*
X007159Y003392D02*
X006193Y003392D01*
X006114Y003273D02*
X007245Y003273D01*
X011632Y003155D02*
X019911Y003155D01*
X019851Y003273D02*
X019055Y003273D01*
X019174Y003392D02*
X019792Y003392D01*
X019733Y003510D02*
X019282Y003510D01*
X019282Y003629D02*
X019674Y003629D01*
X019614Y003747D02*
X019282Y003747D01*
X019247Y003866D02*
X019555Y003866D01*
X019496Y003984D02*
X019128Y003984D01*
X019102Y004103D02*
X019436Y004103D01*
X019377Y004221D02*
X019102Y004221D01*
X019102Y004340D02*
X019318Y004340D01*
X019259Y004459D02*
X019102Y004459D01*
X019064Y004577D02*
X019199Y004577D01*
X019140Y004696D02*
X018946Y004696D01*
X018827Y004814D02*
X019081Y004814D01*
X019022Y004933D02*
X018709Y004933D01*
X018590Y005051D02*
X018962Y005051D01*
X018903Y005170D02*
X018472Y005170D01*
X018353Y005288D02*
X018844Y005288D01*
X018784Y005407D02*
X018235Y005407D01*
X018116Y005525D02*
X018725Y005525D01*
X018666Y005644D02*
X017997Y005644D01*
X017879Y005763D02*
X018607Y005763D01*
X018547Y005881D02*
X017760Y005881D01*
X017457Y005407D02*
X016233Y005407D01*
X016061Y005288D02*
X017372Y005288D01*
X017347Y005170D02*
X014472Y005170D01*
X014590Y005051D02*
X015292Y005051D01*
X015107Y004933D02*
X014709Y004933D01*
X014301Y004340D02*
X015165Y004340D01*
X015159Y003984D02*
X014657Y003984D01*
X014539Y004103D02*
X018662Y004103D01*
X018662Y004221D02*
X014420Y004221D01*
X016038Y005051D02*
X017240Y005051D01*
X017122Y004933D02*
X016223Y004933D01*
X016166Y004340D02*
X018662Y004340D01*
X018561Y004459D02*
X017270Y004459D01*
X017388Y004577D02*
X018442Y004577D01*
X018324Y004696D02*
X017507Y004696D01*
X017625Y004814D02*
X018205Y004814D01*
X018086Y004933D02*
X017883Y004933D01*
X017963Y005051D02*
X017968Y005051D01*
X018047Y004065D02*
X017716Y004065D01*
X017482Y003831D01*
X017482Y003500D01*
X017716Y003265D01*
X018047Y003265D01*
X018282Y003500D01*
X018282Y003831D01*
X018047Y004065D01*
X018128Y003984D02*
X018635Y003984D01*
X018517Y003866D02*
X018247Y003866D01*
X018282Y003747D02*
X018482Y003747D01*
X018482Y003629D02*
X018282Y003629D01*
X018282Y003510D02*
X018482Y003510D01*
X018590Y003392D02*
X018174Y003392D01*
X018055Y003273D02*
X018708Y003273D01*
X017708Y003273D02*
X016024Y003273D01*
X016217Y003392D02*
X017590Y003392D01*
X017482Y003510D02*
X016294Y003510D01*
X016325Y003629D02*
X017482Y003629D01*
X017482Y003747D02*
X016324Y003747D01*
X016275Y003866D02*
X017517Y003866D01*
X017635Y003984D02*
X016172Y003984D01*
X016156Y006000D02*
X018488Y006000D01*
X018429Y006118D02*
X014523Y006118D01*
X014642Y006000D02*
X015174Y006000D01*
X016829Y009319D02*
X012635Y009319D01*
X012635Y009437D02*
X016769Y009437D01*
X016710Y009556D02*
X012635Y009556D01*
X012635Y009674D02*
X016651Y009674D01*
X016591Y009793D02*
X012635Y009793D01*
X012635Y009912D02*
X016532Y009912D01*
X016473Y010030D02*
X012635Y010030D01*
X012635Y010149D02*
X016414Y010149D01*
X016354Y010267D02*
X012635Y010267D01*
X012635Y010386D02*
X016295Y010386D01*
X016243Y010504D02*
X012635Y010504D01*
X012635Y010623D02*
X016285Y010623D01*
X016079Y011265D02*
X015748Y011265D01*
X015513Y011500D01*
X015513Y011831D01*
X015748Y012065D01*
X016079Y012065D01*
X016313Y011831D01*
X016313Y011500D01*
X016079Y011265D01*
X016148Y011334D02*
X016679Y011334D01*
X016560Y011453D02*
X016266Y011453D01*
X016313Y011571D02*
X016513Y011571D01*
X016513Y011690D02*
X016313Y011690D01*
X016313Y011808D02*
X016513Y011808D01*
X016609Y011927D02*
X016217Y011927D01*
X016099Y012045D02*
X016728Y012045D01*
X017006Y012282D02*
X012635Y012282D01*
X012635Y012164D02*
X017085Y012164D01*
X017099Y012045D02*
X017164Y012045D01*
X017217Y011927D02*
X017243Y011927D01*
X017313Y011808D02*
X017322Y011808D01*
X017313Y011690D02*
X017401Y011690D01*
X017480Y011571D02*
X017313Y011571D01*
X017266Y011453D02*
X017559Y011453D01*
X017638Y011334D02*
X017148Y011334D01*
X017717Y011216D02*
X012635Y011216D01*
X012635Y011334D02*
X015679Y011334D01*
X015560Y011453D02*
X012635Y011453D01*
X012635Y011571D02*
X015513Y011571D01*
X015513Y011690D02*
X012635Y011690D01*
X012635Y011808D02*
X015513Y011808D01*
X015609Y011927D02*
X012635Y011927D01*
X012635Y012045D02*
X015728Y012045D01*
X016611Y012875D02*
X012635Y012875D01*
X012635Y012757D02*
X016690Y012757D01*
X016769Y012638D02*
X012635Y012638D01*
X012635Y012520D02*
X016848Y012520D01*
X016927Y012401D02*
X012635Y012401D01*
X012635Y012994D02*
X016532Y012994D01*
X016453Y013112D02*
X012635Y013112D01*
X012635Y013231D02*
X016374Y013231D01*
X016295Y013349D02*
X012635Y013349D01*
X012635Y013468D02*
X016216Y013468D01*
X016137Y013586D02*
X012635Y013586D01*
X012635Y013705D02*
X016058Y013705D01*
X015979Y013824D02*
X015562Y013824D01*
X015681Y013942D02*
X015900Y013942D01*
X015821Y014061D02*
X015738Y014061D01*
X015738Y014179D02*
X015742Y014179D01*
X015114Y013824D02*
X014562Y013824D01*
X014504Y013765D02*
X014173Y013765D01*
X013938Y014000D01*
X013938Y014331D01*
X014173Y014565D01*
X014504Y014565D01*
X014738Y014331D01*
X014738Y014000D01*
X014504Y013765D01*
X014681Y013942D02*
X014996Y013942D01*
X014938Y014061D02*
X014738Y014061D01*
X014738Y014179D02*
X014938Y014179D01*
X014895Y014298D02*
X014738Y014298D01*
X014776Y014416D02*
X014653Y014416D01*
X014658Y014535D02*
X014534Y014535D01*
X014539Y014653D02*
X012635Y014653D01*
X012635Y014535D02*
X014142Y014535D01*
X014024Y014416D02*
X012635Y014416D01*
X012635Y014298D02*
X013938Y014298D01*
X013938Y014179D02*
X012635Y014179D01*
X012635Y014061D02*
X013938Y014061D01*
X013996Y013942D02*
X012635Y013942D01*
X012635Y013824D02*
X014114Y013824D01*
X012635Y011097D02*
X017796Y011097D01*
X017875Y010978D02*
X012635Y010978D01*
X012635Y010860D02*
X017954Y010860D01*
X018033Y010741D02*
X012635Y010741D01*
X011632Y003036D02*
X019970Y003036D01*
X020029Y002918D02*
X000986Y002918D01*
X000927Y002799D02*
X020088Y002799D01*
D20*
X010508Y003665D02*
X008665Y003665D01*
X008665Y006665D02*
X010508Y006665D01*
X010508Y009665D02*
X008665Y009665D01*
M02*
