%
M48
M72
T01C0.0197
T02C0.0320
T03C0.0400
%
T01
X4665Y9665
X6165Y10165
X7165Y9665
X8665Y9665
X8665Y6665
X8665Y3665
X6165Y1665
X14665Y1665
X17665Y5165
X11915Y10665
X8165Y12665
X7665Y14665
T02
X4102Y11665
X5102Y11665
X5677Y14165
X6677Y14165
X6858Y17165
X7858Y17165
X13157Y17165
X14157Y17165
X14338Y14165
X15338Y14165
X15913Y11665
X16913Y11665
X15165Y8665
X13165Y8665
X12665Y6665
X12665Y5665
X12665Y4665
X12665Y3665
X15665Y3665
X15665Y4665
X15665Y5665
X15665Y6665
X17882Y3665
X18882Y3665
X4315Y6665
X3315Y6665
X3134Y3665
X2134Y3665
T03
X5775Y3885
X7555Y3885
X7555Y6445
X5775Y6445
M30
