G75*
G70*
%OFA0B0*%
%FSLAX24Y24*%
%IPPOS*%
%LPD*%
%AMOC8*
5,1,8,0,0,1.08239X$1,22.5*
%
%ADD10C,0.0000*%
%ADD11OC8,0.0600*%
%ADD12C,0.0600*%
%ADD13C,0.0680*%
%ADD14R,0.0671X0.1261*%
%ADD15R,0.2049X0.1261*%
%ADD16R,0.0867X0.1655*%
%ADD17C,0.0437*%
D10*
X000665Y002634D02*
X004602Y010508D01*
X002634Y010508D01*
X006571Y016413D01*
X004602Y016413D01*
X010173Y020144D01*
X010173Y010508D01*
X010842Y010508D01*
X010842Y020144D01*
X016413Y016413D01*
X014445Y016413D01*
X018382Y010508D01*
X016413Y010508D01*
X020350Y002634D01*
X016445Y002634D01*
X016445Y000665D01*
X004571Y000665D01*
X004571Y002634D01*
X000665Y002634D01*
D11*
X002134Y003665D03*
X003134Y003665D03*
X003315Y006665D03*
X004315Y006665D03*
X004102Y011665D03*
X005102Y011665D03*
X005677Y014165D03*
X006677Y014165D03*
X006858Y017165D03*
X007858Y017165D03*
X013157Y017165D03*
X014157Y017165D03*
X014338Y014165D03*
X015338Y014165D03*
X015913Y011665D03*
X016913Y011665D03*
X015165Y008665D03*
X013165Y008665D03*
X017882Y003665D03*
X018882Y003665D03*
D12*
X015925Y003665D02*
X015405Y003665D01*
X015405Y004665D02*
X015925Y004665D01*
X015925Y005665D02*
X015405Y005665D01*
X015405Y006665D02*
X015925Y006665D01*
X012925Y006665D02*
X012405Y006665D01*
X012405Y005665D02*
X012925Y005665D01*
X012925Y004665D02*
X012405Y004665D01*
X012405Y003665D02*
X012925Y003665D01*
D13*
X007555Y003585D02*
X007555Y004185D01*
X005775Y004185D02*
X005775Y003585D01*
X005775Y006145D02*
X005775Y006745D01*
X007555Y006745D02*
X007555Y006145D01*
D14*
X009790Y012665D03*
X011165Y012665D03*
X011165Y015415D03*
X009790Y015415D03*
D15*
X010508Y009665D03*
X010508Y006665D03*
X010508Y003665D03*
D16*
X015807Y001665D03*
X005209Y001665D03*
D17*
X006165Y001665D03*
X008665Y003665D03*
X008665Y006665D03*
X008665Y009665D03*
X007165Y009665D03*
X006165Y010165D03*
X004665Y009665D03*
X008165Y012665D03*
X007665Y014665D03*
X011915Y010665D03*
X017665Y005165D03*
X014665Y001665D03*
M02*
