G75*
G70*
%OFA0B0*%
%FSLAX24Y24*%
%IPPOS*%
%LPD*%
%AMOC8*
5,1,8,0,0,1.08239X$1,22.5*
%
%ADD10C,0.0000*%
%ADD11C,0.0060*%
%ADD12C,0.0100*%
%ADD13C,0.0080*%
D10*
X000111Y002079D02*
X004048Y009953D01*
X002079Y009953D01*
X006016Y015859D01*
X004048Y015859D01*
X009953Y019796D01*
X015859Y015859D01*
X013890Y015859D01*
X017827Y009953D01*
X015859Y009953D01*
X019796Y002079D01*
X014890Y002079D01*
X014890Y000111D01*
X010288Y000111D01*
X010288Y009953D01*
X009619Y009953D01*
X009619Y000111D01*
X005016Y000111D01*
X005016Y002079D01*
X000111Y002079D01*
D11*
X002079Y002511D02*
X002124Y002513D01*
X002170Y002518D01*
X002214Y002526D01*
X002258Y002538D01*
X002301Y002554D01*
X002343Y002572D01*
X002383Y002594D01*
X002421Y002618D01*
X002457Y002645D01*
X002492Y002675D01*
X002523Y002708D01*
X002553Y002743D01*
X002963Y002631D02*
X002963Y002291D01*
X003076Y002291D02*
X002849Y002291D01*
X003076Y002518D02*
X002963Y002631D01*
X003331Y002631D02*
X003331Y002291D01*
X003444Y002291D02*
X003218Y002291D01*
X003444Y002518D02*
X003331Y002631D01*
X003586Y002574D02*
X003586Y002348D01*
X003643Y002291D01*
X003813Y002291D01*
X003813Y002631D01*
X003643Y002631D01*
X003586Y002574D01*
X003954Y002631D02*
X004181Y002631D01*
X004181Y002291D01*
X003954Y002291D01*
X004068Y002461D02*
X004181Y002461D01*
X004323Y002291D02*
X004549Y002291D01*
X004549Y002631D01*
X002079Y002511D02*
X002034Y002513D01*
X001988Y002518D01*
X001944Y002526D01*
X001900Y002538D01*
X001857Y002554D01*
X001815Y002572D01*
X001775Y002594D01*
X001737Y002618D01*
X001701Y002645D01*
X001666Y002675D01*
X001635Y002708D01*
X001605Y002743D01*
X002079Y003711D02*
X002125Y003709D01*
X002171Y003704D01*
X002217Y003695D01*
X002262Y003683D01*
X002305Y003667D01*
X002347Y003648D01*
X002388Y003625D01*
X002427Y003600D01*
X002463Y003572D01*
X002498Y003541D01*
X002530Y003507D01*
X002559Y003471D01*
X002079Y003711D02*
X002032Y003709D01*
X001984Y003703D01*
X001938Y003694D01*
X001892Y003681D01*
X001848Y003665D01*
X001804Y003645D01*
X001763Y003621D01*
X001724Y003595D01*
X001687Y003565D01*
X001652Y003532D01*
X001620Y003497D01*
X001591Y003460D01*
X004250Y009791D02*
X004193Y009848D01*
X004193Y009904D01*
X004250Y009961D01*
X004420Y009961D01*
X004420Y009848D01*
X004363Y009791D01*
X004250Y009791D01*
X004420Y009961D02*
X004306Y010074D01*
X004193Y010131D01*
X004675Y010131D02*
X004675Y009791D01*
X004788Y009791D02*
X004561Y009791D01*
X004788Y010018D02*
X004675Y010131D01*
X004929Y010074D02*
X004986Y010131D01*
X005156Y010131D01*
X005156Y009791D01*
X004986Y009791D01*
X004929Y009848D01*
X004929Y010074D01*
X005298Y010131D02*
X005525Y010131D01*
X005525Y009791D01*
X005298Y009791D01*
X005411Y009961D02*
X005525Y009961D01*
X005666Y009791D02*
X005893Y009791D01*
X005893Y010131D01*
X004522Y010743D02*
X004492Y010708D01*
X004461Y010675D01*
X004426Y010645D01*
X004390Y010618D01*
X004352Y010594D01*
X004312Y010572D01*
X004270Y010554D01*
X004227Y010538D01*
X004183Y010526D01*
X004139Y010518D01*
X004093Y010513D01*
X004048Y010511D01*
X004003Y010513D01*
X003957Y010518D01*
X003913Y010526D01*
X003869Y010538D01*
X003826Y010554D01*
X003784Y010572D01*
X003744Y010594D01*
X003706Y010618D01*
X003670Y010645D01*
X003635Y010675D01*
X003604Y010708D01*
X003574Y010743D01*
X004048Y011711D02*
X004094Y011709D01*
X004140Y011704D01*
X004186Y011695D01*
X004231Y011683D01*
X004274Y011667D01*
X004316Y011648D01*
X004357Y011625D01*
X004396Y011600D01*
X004432Y011572D01*
X004467Y011541D01*
X004499Y011507D01*
X004528Y011471D01*
X004048Y011711D02*
X004001Y011709D01*
X003953Y011703D01*
X003907Y011694D01*
X003861Y011681D01*
X003817Y011665D01*
X003773Y011645D01*
X003732Y011621D01*
X003693Y011595D01*
X003656Y011565D01*
X003621Y011532D01*
X003589Y011497D01*
X003560Y011460D01*
X006005Y015291D02*
X006005Y015631D01*
X006176Y015461D01*
X005949Y015461D01*
X006317Y015291D02*
X006544Y015291D01*
X006430Y015291D02*
X006430Y015631D01*
X006544Y015518D01*
X006685Y015574D02*
X006685Y015348D01*
X006742Y015291D01*
X006912Y015291D01*
X006912Y015631D01*
X006742Y015631D01*
X006685Y015574D01*
X007054Y015631D02*
X007280Y015631D01*
X007280Y015291D01*
X007054Y015291D01*
X007167Y015461D02*
X007280Y015461D01*
X007422Y015291D02*
X007649Y015291D01*
X007649Y015631D01*
X007278Y016243D02*
X007248Y016208D01*
X007217Y016175D01*
X007182Y016145D01*
X007146Y016118D01*
X007108Y016094D01*
X007068Y016072D01*
X007026Y016054D01*
X006983Y016038D01*
X006939Y016026D01*
X006895Y016018D01*
X006849Y016013D01*
X006804Y016011D01*
X006759Y016013D01*
X006713Y016018D01*
X006669Y016026D01*
X006625Y016038D01*
X006582Y016054D01*
X006540Y016072D01*
X006500Y016094D01*
X006462Y016118D01*
X006426Y016145D01*
X006391Y016175D01*
X006360Y016208D01*
X006330Y016243D01*
X006804Y017211D02*
X006850Y017209D01*
X006896Y017204D01*
X006942Y017195D01*
X006987Y017183D01*
X007030Y017167D01*
X007072Y017148D01*
X007113Y017125D01*
X007152Y017100D01*
X007188Y017072D01*
X007223Y017041D01*
X007255Y017007D01*
X007284Y016971D01*
X006804Y017211D02*
X006757Y017209D01*
X006709Y017203D01*
X006663Y017194D01*
X006617Y017181D01*
X006573Y017165D01*
X006529Y017145D01*
X006488Y017121D01*
X006449Y017095D01*
X006412Y017065D01*
X006377Y017032D01*
X006345Y016997D01*
X006316Y016960D01*
X013429Y012574D02*
X013429Y012348D01*
X013486Y012291D01*
X013599Y012291D01*
X013656Y012348D01*
X013599Y012461D02*
X013429Y012461D01*
X013429Y012574D02*
X013486Y012631D01*
X013599Y012631D01*
X013656Y012574D01*
X013656Y012518D01*
X013599Y012461D01*
X013797Y012291D02*
X014024Y012291D01*
X013911Y012291D02*
X013911Y012631D01*
X014024Y012518D01*
X014166Y012574D02*
X014166Y012348D01*
X014222Y012291D01*
X014392Y012291D01*
X014392Y012631D01*
X014222Y012631D01*
X014166Y012574D01*
X014534Y012631D02*
X014761Y012631D01*
X014761Y012291D01*
X014534Y012291D01*
X014647Y012461D02*
X014761Y012461D01*
X014902Y012291D02*
X015129Y012291D01*
X015129Y012631D01*
X014758Y013243D02*
X014728Y013208D01*
X014697Y013175D01*
X014662Y013145D01*
X014626Y013118D01*
X014588Y013094D01*
X014548Y013072D01*
X014506Y013054D01*
X014463Y013038D01*
X014419Y013026D01*
X014375Y013018D01*
X014329Y013013D01*
X014284Y013011D01*
X014239Y013013D01*
X014193Y013018D01*
X014149Y013026D01*
X014105Y013038D01*
X014062Y013054D01*
X014020Y013072D01*
X013980Y013094D01*
X013942Y013118D01*
X013906Y013145D01*
X013871Y013175D01*
X013840Y013208D01*
X013810Y013243D01*
X014284Y014211D02*
X014330Y014209D01*
X014376Y014204D01*
X014422Y014195D01*
X014467Y014183D01*
X014510Y014167D01*
X014552Y014148D01*
X014593Y014125D01*
X014632Y014100D01*
X014668Y014072D01*
X014703Y014041D01*
X014735Y014007D01*
X014764Y013971D01*
X014284Y014211D02*
X014237Y014209D01*
X014189Y014203D01*
X014143Y014194D01*
X014097Y014181D01*
X014053Y014165D01*
X014009Y014145D01*
X013968Y014121D01*
X013929Y014095D01*
X013892Y014065D01*
X013857Y014032D01*
X013825Y013997D01*
X013796Y013960D01*
X017120Y005743D02*
X017090Y005708D01*
X017059Y005675D01*
X017024Y005645D01*
X016988Y005618D01*
X016950Y005594D01*
X016910Y005572D01*
X016868Y005554D01*
X016825Y005538D01*
X016781Y005526D01*
X016737Y005518D01*
X016691Y005513D01*
X016646Y005511D01*
X016585Y005131D02*
X016755Y005131D01*
X016755Y004791D01*
X016585Y004791D01*
X016528Y004848D01*
X016528Y005074D01*
X016585Y005131D01*
X016386Y005018D02*
X016273Y005131D01*
X016273Y004791D01*
X016386Y004791D02*
X016160Y004791D01*
X016018Y004848D02*
X016018Y004904D01*
X015961Y004961D01*
X015848Y004961D01*
X015791Y004904D01*
X015791Y004848D01*
X015848Y004791D01*
X015961Y004791D01*
X016018Y004848D01*
X015961Y004961D02*
X016018Y005018D01*
X016018Y005074D01*
X015961Y005131D01*
X015848Y005131D01*
X015791Y005074D01*
X015791Y005018D01*
X015848Y004961D01*
X016896Y004791D02*
X017123Y004791D01*
X017123Y005131D01*
X016896Y005131D01*
X017010Y004961D02*
X017123Y004961D01*
X017264Y004791D02*
X017491Y004791D01*
X017491Y005131D01*
X016646Y005511D02*
X016601Y005513D01*
X016555Y005518D01*
X016511Y005526D01*
X016467Y005538D01*
X016424Y005554D01*
X016382Y005572D01*
X016342Y005594D01*
X016304Y005618D01*
X016268Y005645D01*
X016233Y005675D01*
X016202Y005708D01*
X016172Y005743D01*
X016646Y006711D02*
X016692Y006709D01*
X016738Y006704D01*
X016784Y006695D01*
X016829Y006683D01*
X016872Y006667D01*
X016914Y006648D01*
X016955Y006625D01*
X016994Y006600D01*
X017030Y006572D01*
X017065Y006541D01*
X017097Y006507D01*
X017126Y006471D01*
X016646Y006711D02*
X016599Y006709D01*
X016551Y006703D01*
X016505Y006694D01*
X016459Y006681D01*
X016415Y006665D01*
X016371Y006645D01*
X016330Y006621D01*
X016291Y006595D01*
X016254Y006565D01*
X016219Y006532D01*
X016187Y006497D01*
X016158Y006460D01*
D12*
X016646Y006911D02*
X016700Y006909D01*
X016754Y006904D01*
X016807Y006895D01*
X016860Y006882D01*
X016911Y006866D01*
X016961Y006846D01*
X017010Y006823D01*
X017058Y006797D01*
X017103Y006768D01*
X017146Y006735D01*
X017187Y006700D01*
X017226Y006662D01*
X017262Y006622D01*
X017295Y006579D01*
X017325Y006534D01*
X017352Y006487D01*
X017341Y005714D02*
X017311Y005666D01*
X017278Y005621D01*
X017242Y005578D01*
X017204Y005537D01*
X017162Y005500D01*
X017118Y005465D01*
X017072Y005434D01*
X017023Y005405D01*
X016973Y005381D01*
X016921Y005360D01*
X016867Y005342D01*
X016813Y005329D01*
X016758Y005319D01*
X016702Y005313D01*
X016646Y005311D01*
X016593Y005313D01*
X016539Y005318D01*
X016487Y005327D01*
X016435Y005339D01*
X016384Y005355D01*
X016334Y005374D01*
X016285Y005397D01*
X016238Y005423D01*
X016193Y005451D01*
X016150Y005483D01*
X016110Y005517D01*
X016071Y005555D01*
X016035Y005594D01*
X016031Y006623D02*
X016067Y006663D01*
X016106Y006701D01*
X016147Y006736D01*
X016190Y006768D01*
X016235Y006798D01*
X016282Y006824D01*
X016331Y006846D01*
X016382Y006866D01*
X016433Y006882D01*
X016485Y006895D01*
X016539Y006904D01*
X016592Y006909D01*
X016646Y006911D01*
X014284Y012811D02*
X014340Y012813D01*
X014396Y012819D01*
X014451Y012829D01*
X014505Y012842D01*
X014559Y012860D01*
X014611Y012881D01*
X014661Y012905D01*
X014710Y012934D01*
X014756Y012965D01*
X014800Y013000D01*
X014842Y013037D01*
X014880Y013078D01*
X014916Y013121D01*
X014949Y013166D01*
X014979Y013214D01*
X014284Y012811D02*
X014231Y012813D01*
X014177Y012818D01*
X014125Y012827D01*
X014073Y012839D01*
X014022Y012855D01*
X013972Y012874D01*
X013923Y012897D01*
X013876Y012923D01*
X013831Y012951D01*
X013788Y012983D01*
X013748Y013017D01*
X013709Y013055D01*
X013673Y013094D01*
X014284Y014411D02*
X014338Y014409D01*
X014392Y014404D01*
X014445Y014395D01*
X014498Y014382D01*
X014549Y014366D01*
X014599Y014346D01*
X014648Y014323D01*
X014696Y014297D01*
X014741Y014268D01*
X014784Y014235D01*
X014825Y014200D01*
X014864Y014162D01*
X014900Y014122D01*
X014933Y014079D01*
X014963Y014034D01*
X014990Y013987D01*
X014284Y014411D02*
X014230Y014409D01*
X014177Y014404D01*
X014123Y014395D01*
X014071Y014382D01*
X014020Y014366D01*
X013969Y014346D01*
X013920Y014324D01*
X013873Y014298D01*
X013828Y014268D01*
X013785Y014236D01*
X013744Y014201D01*
X013705Y014163D01*
X013669Y014123D01*
X007499Y016214D02*
X007469Y016166D01*
X007436Y016121D01*
X007400Y016078D01*
X007362Y016037D01*
X007320Y016000D01*
X007276Y015965D01*
X007230Y015934D01*
X007181Y015905D01*
X007131Y015881D01*
X007079Y015860D01*
X007025Y015842D01*
X006971Y015829D01*
X006916Y015819D01*
X006860Y015813D01*
X006804Y015811D01*
X006751Y015813D01*
X006697Y015818D01*
X006645Y015827D01*
X006593Y015839D01*
X006542Y015855D01*
X006492Y015874D01*
X006443Y015897D01*
X006396Y015923D01*
X006351Y015951D01*
X006308Y015983D01*
X006268Y016017D01*
X006229Y016055D01*
X006193Y016094D01*
X006804Y017411D02*
X006858Y017409D01*
X006912Y017404D01*
X006965Y017395D01*
X007018Y017382D01*
X007069Y017366D01*
X007119Y017346D01*
X007168Y017323D01*
X007216Y017297D01*
X007261Y017268D01*
X007304Y017235D01*
X007345Y017200D01*
X007384Y017162D01*
X007420Y017122D01*
X007453Y017079D01*
X007483Y017034D01*
X007510Y016987D01*
X006804Y017411D02*
X006750Y017409D01*
X006697Y017404D01*
X006643Y017395D01*
X006591Y017382D01*
X006540Y017366D01*
X006489Y017346D01*
X006440Y017324D01*
X006393Y017298D01*
X006348Y017268D01*
X006305Y017236D01*
X006264Y017201D01*
X006225Y017163D01*
X006189Y017123D01*
X004743Y010714D02*
X004713Y010666D01*
X004680Y010621D01*
X004644Y010578D01*
X004606Y010537D01*
X004564Y010500D01*
X004520Y010465D01*
X004474Y010434D01*
X004425Y010405D01*
X004375Y010381D01*
X004323Y010360D01*
X004269Y010342D01*
X004215Y010329D01*
X004160Y010319D01*
X004104Y010313D01*
X004048Y010311D01*
X003995Y010313D01*
X003941Y010318D01*
X003889Y010327D01*
X003837Y010339D01*
X003786Y010355D01*
X003736Y010374D01*
X003687Y010397D01*
X003640Y010423D01*
X003595Y010451D01*
X003552Y010483D01*
X003512Y010517D01*
X003473Y010555D01*
X003437Y010594D01*
X004048Y011911D02*
X004102Y011909D01*
X004156Y011904D01*
X004209Y011895D01*
X004262Y011882D01*
X004313Y011866D01*
X004363Y011846D01*
X004412Y011823D01*
X004460Y011797D01*
X004505Y011768D01*
X004548Y011735D01*
X004589Y011700D01*
X004628Y011662D01*
X004664Y011622D01*
X004697Y011579D01*
X004727Y011534D01*
X004754Y011487D01*
X004048Y011911D02*
X003994Y011909D01*
X003941Y011904D01*
X003887Y011895D01*
X003835Y011882D01*
X003784Y011866D01*
X003733Y011846D01*
X003684Y011824D01*
X003637Y011798D01*
X003592Y011768D01*
X003549Y011736D01*
X003508Y011701D01*
X003469Y011663D01*
X003433Y011623D01*
X002774Y002714D02*
X002744Y002666D01*
X002711Y002621D01*
X002675Y002578D01*
X002637Y002537D01*
X002595Y002500D01*
X002551Y002465D01*
X002505Y002434D01*
X002456Y002405D01*
X002406Y002381D01*
X002354Y002360D01*
X002300Y002342D01*
X002246Y002329D01*
X002191Y002319D01*
X002135Y002313D01*
X002079Y002311D01*
X002026Y002313D01*
X001972Y002318D01*
X001920Y002327D01*
X001868Y002339D01*
X001817Y002355D01*
X001767Y002374D01*
X001718Y002397D01*
X001671Y002423D01*
X001626Y002451D01*
X001583Y002483D01*
X001543Y002517D01*
X001504Y002555D01*
X001468Y002594D01*
X002079Y003911D02*
X002133Y003909D01*
X002187Y003904D01*
X002240Y003895D01*
X002293Y003882D01*
X002344Y003866D01*
X002394Y003846D01*
X002443Y003823D01*
X002491Y003797D01*
X002536Y003768D01*
X002579Y003735D01*
X002620Y003700D01*
X002659Y003662D01*
X002695Y003622D01*
X002728Y003579D01*
X002758Y003534D01*
X002785Y003487D01*
X002079Y003911D02*
X002025Y003909D01*
X001972Y003904D01*
X001918Y003895D01*
X001866Y003882D01*
X001815Y003866D01*
X001764Y003846D01*
X001715Y003824D01*
X001668Y003798D01*
X001623Y003768D01*
X001580Y003736D01*
X001539Y003701D01*
X001500Y003663D01*
X001464Y003623D01*
D13*
X009111Y016151D02*
X009041Y016221D01*
X009111Y016151D02*
X009251Y016151D01*
X009321Y016221D01*
X009321Y016501D01*
X009251Y016571D01*
X009111Y016571D01*
X009041Y016501D01*
M02*
