%
M48
M72
T01C0.0197
T02C0.0320
%
T01
X8236Y10611
X8611Y9111
X11361Y9111
X12111Y11111
X11611Y12111
X11611Y14861
X8611Y6111
T02
X4548Y11111
X3548Y11111
X5123Y13611
X6123Y13611
X6304Y16611
X7304Y16611
X12603Y16611
X13603Y16611
X13784Y13611
X14784Y13611
X15359Y11111
X16359Y11111
X16146Y6111
X17146Y6111
X17327Y3111
X18327Y3111
X3760Y6111
X2760Y6111
X2579Y3111
X1579Y3111
M30
