G75*
G70*
%OFA0B0*%
%FSLAX24Y24*%
%IPPOS*%
%LPD*%
%AMOC8*
5,1,8,0,0,1.08239X$1,22.5*
%
%ADD10C,0.0000*%
%ADD11OC8,0.0520*%
%ADD12C,0.0520*%
%ADD13C,0.0600*%
%ADD14C,0.0660*%
%ADD15C,0.0160*%
%ADD16C,0.0357*%
%ADD17C,0.0100*%
D10*
X000655Y001655D02*
X000655Y019155D01*
X000657Y019215D01*
X000662Y019276D01*
X000671Y019335D01*
X000684Y019394D01*
X000700Y019453D01*
X000720Y019510D01*
X000743Y019565D01*
X000770Y019620D01*
X000799Y019672D01*
X000832Y019723D01*
X000868Y019772D01*
X000906Y019818D01*
X000948Y019862D01*
X000992Y019904D01*
X001038Y019942D01*
X001087Y019978D01*
X001138Y020011D01*
X001190Y020040D01*
X001245Y020067D01*
X001300Y020090D01*
X001357Y020110D01*
X001416Y020126D01*
X001475Y020139D01*
X001534Y020148D01*
X001595Y020153D01*
X001655Y020155D01*
X019155Y020155D01*
X019215Y020153D01*
X019276Y020148D01*
X019335Y020139D01*
X019394Y020126D01*
X019453Y020110D01*
X019510Y020090D01*
X019565Y020067D01*
X019620Y020040D01*
X019672Y020011D01*
X019723Y019978D01*
X019772Y019942D01*
X019818Y019904D01*
X019862Y019862D01*
X019904Y019818D01*
X019942Y019772D01*
X019978Y019723D01*
X020011Y019672D01*
X020040Y019620D01*
X020067Y019565D01*
X020090Y019510D01*
X020110Y019453D01*
X020126Y019394D01*
X020139Y019335D01*
X020148Y019276D01*
X020153Y019215D01*
X020155Y019155D01*
X020155Y001655D01*
X020153Y001595D01*
X020148Y001534D01*
X020139Y001475D01*
X020126Y001416D01*
X020110Y001357D01*
X020090Y001300D01*
X020067Y001245D01*
X020040Y001190D01*
X020011Y001138D01*
X019978Y001087D01*
X019942Y001038D01*
X019904Y000992D01*
X019862Y000948D01*
X019818Y000906D01*
X019772Y000868D01*
X019723Y000832D01*
X019672Y000799D01*
X019620Y000770D01*
X019565Y000743D01*
X019510Y000720D01*
X019453Y000700D01*
X019394Y000684D01*
X019335Y000671D01*
X019276Y000662D01*
X019215Y000657D01*
X019155Y000655D01*
X001655Y000655D01*
X001595Y000657D01*
X001534Y000662D01*
X001475Y000671D01*
X001416Y000684D01*
X001357Y000700D01*
X001300Y000720D01*
X001245Y000743D01*
X001190Y000770D01*
X001138Y000799D01*
X001087Y000832D01*
X001038Y000868D01*
X000992Y000906D01*
X000948Y000948D01*
X000906Y000992D01*
X000868Y001038D01*
X000832Y001087D01*
X000799Y001138D01*
X000770Y001190D01*
X000743Y001245D01*
X000720Y001300D01*
X000700Y001357D01*
X000684Y001416D01*
X000671Y001475D01*
X000662Y001534D01*
X000657Y001595D01*
X000655Y001655D01*
X002183Y018155D02*
X002185Y018198D01*
X002191Y018240D01*
X002201Y018282D01*
X002214Y018323D01*
X002231Y018363D01*
X002252Y018400D01*
X002276Y018436D01*
X002303Y018469D01*
X002333Y018500D01*
X002366Y018528D01*
X002401Y018553D01*
X002438Y018574D01*
X002477Y018592D01*
X002517Y018606D01*
X002559Y018617D01*
X002601Y018624D01*
X002644Y018627D01*
X002687Y018626D01*
X002730Y018621D01*
X002772Y018612D01*
X002813Y018600D01*
X002853Y018584D01*
X002891Y018564D01*
X002927Y018541D01*
X002961Y018514D01*
X002993Y018485D01*
X003021Y018453D01*
X003047Y018418D01*
X003069Y018382D01*
X003088Y018343D01*
X003103Y018303D01*
X003115Y018262D01*
X003123Y018219D01*
X003127Y018176D01*
X003127Y018134D01*
X003123Y018091D01*
X003115Y018048D01*
X003103Y018007D01*
X003088Y017967D01*
X003069Y017928D01*
X003047Y017892D01*
X003021Y017857D01*
X002993Y017825D01*
X002961Y017796D01*
X002927Y017769D01*
X002891Y017746D01*
X002853Y017726D01*
X002813Y017710D01*
X002772Y017698D01*
X002730Y017689D01*
X002687Y017684D01*
X002644Y017683D01*
X002601Y017686D01*
X002559Y017693D01*
X002517Y017704D01*
X002477Y017718D01*
X002438Y017736D01*
X002401Y017757D01*
X002366Y017782D01*
X002333Y017810D01*
X002303Y017841D01*
X002276Y017874D01*
X002252Y017910D01*
X002231Y017947D01*
X002214Y017987D01*
X002201Y018028D01*
X002191Y018070D01*
X002185Y018112D01*
X002183Y018155D01*
X008840Y019155D02*
X008842Y019190D01*
X008848Y019225D01*
X008858Y019259D01*
X008871Y019292D01*
X008888Y019323D01*
X008909Y019351D01*
X008932Y019378D01*
X008959Y019401D01*
X008987Y019422D01*
X009018Y019439D01*
X009051Y019452D01*
X009085Y019462D01*
X009120Y019468D01*
X009155Y019470D01*
X009190Y019468D01*
X009225Y019462D01*
X009259Y019452D01*
X009292Y019439D01*
X009323Y019422D01*
X009351Y019401D01*
X009378Y019378D01*
X009401Y019351D01*
X009422Y019323D01*
X009439Y019292D01*
X009452Y019259D01*
X009462Y019225D01*
X009468Y019190D01*
X009470Y019155D01*
X009468Y019120D01*
X009462Y019085D01*
X009452Y019051D01*
X009439Y019018D01*
X009422Y018987D01*
X009401Y018959D01*
X009378Y018932D01*
X009351Y018909D01*
X009323Y018888D01*
X009292Y018871D01*
X009259Y018858D01*
X009225Y018848D01*
X009190Y018842D01*
X009155Y018840D01*
X009120Y018842D01*
X009085Y018848D01*
X009051Y018858D01*
X009018Y018871D01*
X008987Y018888D01*
X008959Y018909D01*
X008932Y018932D01*
X008909Y018959D01*
X008888Y018987D01*
X008871Y019018D01*
X008858Y019051D01*
X008848Y019085D01*
X008842Y019120D01*
X008840Y019155D01*
X011340Y019155D02*
X011342Y019190D01*
X011348Y019225D01*
X011358Y019259D01*
X011371Y019292D01*
X011388Y019323D01*
X011409Y019351D01*
X011432Y019378D01*
X011459Y019401D01*
X011487Y019422D01*
X011518Y019439D01*
X011551Y019452D01*
X011585Y019462D01*
X011620Y019468D01*
X011655Y019470D01*
X011690Y019468D01*
X011725Y019462D01*
X011759Y019452D01*
X011792Y019439D01*
X011823Y019422D01*
X011851Y019401D01*
X011878Y019378D01*
X011901Y019351D01*
X011922Y019323D01*
X011939Y019292D01*
X011952Y019259D01*
X011962Y019225D01*
X011968Y019190D01*
X011970Y019155D01*
X011968Y019120D01*
X011962Y019085D01*
X011952Y019051D01*
X011939Y019018D01*
X011922Y018987D01*
X011901Y018959D01*
X011878Y018932D01*
X011851Y018909D01*
X011823Y018888D01*
X011792Y018871D01*
X011759Y018858D01*
X011725Y018848D01*
X011690Y018842D01*
X011655Y018840D01*
X011620Y018842D01*
X011585Y018848D01*
X011551Y018858D01*
X011518Y018871D01*
X011487Y018888D01*
X011459Y018909D01*
X011432Y018932D01*
X011409Y018959D01*
X011388Y018987D01*
X011371Y019018D01*
X011358Y019051D01*
X011348Y019085D01*
X011342Y019120D01*
X011340Y019155D01*
X017683Y018155D02*
X017685Y018198D01*
X017691Y018240D01*
X017701Y018282D01*
X017714Y018323D01*
X017731Y018363D01*
X017752Y018400D01*
X017776Y018436D01*
X017803Y018469D01*
X017833Y018500D01*
X017866Y018528D01*
X017901Y018553D01*
X017938Y018574D01*
X017977Y018592D01*
X018017Y018606D01*
X018059Y018617D01*
X018101Y018624D01*
X018144Y018627D01*
X018187Y018626D01*
X018230Y018621D01*
X018272Y018612D01*
X018313Y018600D01*
X018353Y018584D01*
X018391Y018564D01*
X018427Y018541D01*
X018461Y018514D01*
X018493Y018485D01*
X018521Y018453D01*
X018547Y018418D01*
X018569Y018382D01*
X018588Y018343D01*
X018603Y018303D01*
X018615Y018262D01*
X018623Y018219D01*
X018627Y018176D01*
X018627Y018134D01*
X018623Y018091D01*
X018615Y018048D01*
X018603Y018007D01*
X018588Y017967D01*
X018569Y017928D01*
X018547Y017892D01*
X018521Y017857D01*
X018493Y017825D01*
X018461Y017796D01*
X018427Y017769D01*
X018391Y017746D01*
X018353Y017726D01*
X018313Y017710D01*
X018272Y017698D01*
X018230Y017689D01*
X018187Y017684D01*
X018144Y017683D01*
X018101Y017686D01*
X018059Y017693D01*
X018017Y017704D01*
X017977Y017718D01*
X017938Y017736D01*
X017901Y017757D01*
X017866Y017782D01*
X017833Y017810D01*
X017803Y017841D01*
X017776Y017874D01*
X017752Y017910D01*
X017731Y017947D01*
X017714Y017987D01*
X017701Y018028D01*
X017691Y018070D01*
X017685Y018112D01*
X017683Y018155D01*
D11*
X017155Y013405D03*
X016155Y013405D03*
X015155Y012405D03*
X014155Y012405D03*
X012905Y011155D03*
X011905Y011155D03*
X010905Y012155D03*
X009905Y012155D03*
X008905Y011155D03*
X007905Y011155D03*
X006655Y012405D03*
X005655Y012405D03*
X004655Y013405D03*
X003655Y013405D03*
X003655Y008655D03*
X001655Y008655D03*
X003655Y006405D03*
X004655Y006405D03*
X005655Y007405D03*
X006655Y007405D03*
X007905Y008655D03*
X008905Y008655D03*
X009905Y007655D03*
X010905Y007655D03*
X011905Y008655D03*
X012905Y008655D03*
X014155Y007405D03*
X015155Y007405D03*
X016155Y006405D03*
X017155Y006405D03*
X019155Y006155D03*
X019155Y010155D03*
X010905Y009905D03*
X009905Y009905D03*
X009905Y005155D03*
X010905Y005155D03*
X010905Y002655D03*
X009905Y002655D03*
X009905Y014655D03*
X010905Y014655D03*
X010905Y016905D03*
X009905Y016905D03*
D12*
X004915Y004655D02*
X004395Y004655D01*
X004395Y003655D02*
X004915Y003655D01*
X004915Y002655D02*
X004395Y002655D01*
X004395Y001655D02*
X004915Y001655D01*
X001915Y001655D02*
X001395Y001655D01*
X001395Y002655D02*
X001915Y002655D01*
X001915Y003655D02*
X001395Y003655D01*
X001395Y004655D02*
X001915Y004655D01*
D13*
X017265Y004735D02*
X017265Y004135D01*
X019045Y004135D02*
X019045Y004735D01*
X019045Y002175D02*
X019045Y001575D01*
X017265Y001575D02*
X017265Y002175D01*
D14*
X013655Y019155D03*
X007155Y019155D03*
D15*
X005655Y019155D01*
X001655Y015155D01*
X001655Y008655D01*
X001655Y004655D01*
X003655Y006155D02*
X003655Y006405D01*
X003655Y006155D02*
X004155Y005655D01*
X007655Y005655D01*
X008155Y005155D01*
X009905Y005155D01*
X010905Y005155D02*
X010905Y007655D01*
X010905Y008655D01*
X011905Y008655D01*
X010905Y008655D02*
X009905Y008655D01*
X009905Y009905D01*
X009405Y010405D01*
X009405Y011905D01*
X008405Y011905D01*
X007905Y011405D01*
X007905Y011155D01*
X008905Y011155D02*
X008905Y010405D01*
X008655Y010155D01*
X006655Y010155D01*
X006655Y012405D01*
X006655Y015655D01*
X007905Y016905D01*
X009905Y016905D01*
X009905Y014655D02*
X009405Y014155D01*
X009405Y011905D01*
X009905Y011905D02*
X012905Y008905D01*
X012905Y008655D01*
X014155Y008405D02*
X014155Y007405D01*
X014155Y008405D02*
X011905Y010655D01*
X011905Y011155D01*
X009905Y011905D02*
X009905Y012155D01*
X006655Y010155D02*
X006655Y007405D01*
X006655Y006405D01*
X004655Y006405D01*
X005655Y007405D02*
X003655Y009405D01*
X003655Y013405D01*
X008905Y008655D02*
X009905Y008655D01*
X010905Y005155D02*
X010905Y002655D01*
X010405Y002155D01*
X006655Y002155D01*
X006155Y002655D01*
X004655Y002655D01*
X014155Y011155D02*
X014155Y012405D01*
X014155Y011155D02*
X016155Y009155D01*
X016155Y006405D01*
D16*
X006655Y006405D03*
D17*
X000951Y001296D02*
X001096Y001096D01*
X001296Y000951D01*
X001532Y000875D01*
X001655Y000865D01*
X019155Y000865D01*
X019279Y000875D01*
X019514Y000951D01*
X019714Y001096D01*
X019859Y001296D01*
X019935Y001531D01*
X019945Y001655D01*
X019945Y019068D01*
X019945Y019119D01*
X019945Y019155D01*
X019935Y019279D01*
X019859Y019514D01*
X019714Y019714D01*
X019514Y019859D01*
X019279Y019935D01*
X019155Y019945D01*
X001742Y019945D01*
X001717Y019945D01*
X001655Y019945D01*
X001532Y019935D01*
X001296Y019859D01*
X001096Y019714D01*
X000951Y019514D01*
X000875Y019279D01*
X000865Y019155D01*
X000865Y001742D01*
X000865Y001725D01*
X000865Y001655D01*
X000875Y001532D01*
X000951Y001296D01*
X000935Y001345D02*
X001041Y001345D01*
X000997Y001389D02*
X001129Y001257D01*
X001302Y001185D01*
X002009Y001185D01*
X002181Y001257D01*
X002314Y001389D01*
X002385Y001562D01*
X002385Y001749D01*
X002314Y001921D01*
X002181Y002054D01*
X002009Y002125D01*
X001302Y002125D01*
X001129Y002054D01*
X000997Y001921D01*
X000925Y001749D01*
X000925Y001562D01*
X000997Y001389D01*
X000974Y001443D02*
X000903Y001443D01*
X000874Y001542D02*
X000933Y001542D01*
X000925Y001641D02*
X000866Y001641D01*
X000865Y001739D02*
X000925Y001739D01*
X000962Y001838D02*
X000865Y001838D01*
X000865Y001936D02*
X001011Y001936D01*
X001110Y002035D02*
X000865Y002035D01*
X000865Y002133D02*
X003395Y002133D01*
X003395Y002035D02*
X002200Y002035D01*
X002299Y001936D02*
X003395Y001936D01*
X003395Y001838D02*
X002348Y001838D01*
X002385Y001739D02*
X003395Y001739D01*
X003395Y001707D02*
X003395Y001603D01*
X003435Y001508D01*
X003935Y001008D01*
X004008Y000935D01*
X004103Y000895D01*
X016493Y000895D01*
X016597Y000895D01*
X016692Y000935D01*
X016938Y001181D01*
X016976Y001143D01*
X017164Y001065D01*
X017367Y001065D01*
X017554Y001143D01*
X017697Y001286D01*
X017775Y001474D01*
X017775Y002277D01*
X017697Y002464D01*
X017554Y002607D01*
X017525Y002619D01*
X017525Y003691D01*
X017554Y003703D01*
X017697Y003846D01*
X017775Y004034D01*
X017775Y004837D01*
X017697Y005024D01*
X017554Y005167D01*
X017541Y005173D01*
X018263Y005895D01*
X018750Y005895D01*
X018960Y005685D01*
X019350Y005685D01*
X019625Y005960D01*
X019625Y006350D01*
X019350Y006625D01*
X018960Y006625D01*
X018750Y006415D01*
X018103Y006415D01*
X018008Y006376D01*
X017935Y006302D01*
X017045Y005412D01*
X017005Y005317D01*
X017005Y005213D01*
X017005Y005179D01*
X016976Y005167D01*
X016833Y005024D01*
X016755Y004837D01*
X016755Y004034D01*
X016833Y003846D01*
X016976Y003703D01*
X017005Y003691D01*
X017005Y002619D01*
X016976Y002607D01*
X016833Y002464D01*
X016755Y002277D01*
X016755Y001733D01*
X016437Y001415D01*
X005247Y001415D01*
X005266Y001440D01*
X005295Y001498D01*
X005315Y001559D01*
X005325Y001623D01*
X005325Y001625D01*
X004685Y001625D01*
X004685Y001685D01*
X004625Y001685D01*
X004625Y002065D01*
X004363Y002065D01*
X004299Y002055D01*
X004238Y002035D01*
X004180Y002006D01*
X004128Y001968D01*
X004082Y001922D01*
X004044Y001870D01*
X004015Y001812D01*
X003995Y001751D01*
X003986Y001692D01*
X003915Y001763D01*
X003915Y004047D01*
X004127Y004259D01*
X004129Y004257D01*
X004302Y004185D01*
X005009Y004185D01*
X005181Y004257D01*
X005314Y004389D01*
X005385Y004562D01*
X005385Y004749D01*
X005314Y004921D01*
X005181Y005054D01*
X005009Y005125D01*
X004302Y005125D01*
X004129Y005054D01*
X003997Y004921D01*
X003956Y004824D01*
X003935Y004802D01*
X003508Y004376D01*
X003435Y004302D01*
X003395Y004207D01*
X003395Y001707D01*
X003395Y001641D02*
X002385Y001641D01*
X002377Y001542D02*
X003421Y001542D01*
X003499Y001443D02*
X002336Y001443D01*
X002270Y001345D02*
X003598Y001345D01*
X003696Y001246D02*
X002156Y001246D01*
X001298Y000951D02*
X003992Y000951D01*
X003893Y001049D02*
X001161Y001049D01*
X001059Y001148D02*
X003795Y001148D01*
X004155Y001155D02*
X016545Y001155D01*
X017265Y001875D01*
X017265Y004435D01*
X017265Y005265D01*
X018155Y006155D01*
X019155Y006155D01*
X019543Y005878D02*
X019945Y005878D01*
X019945Y005976D02*
X019625Y005976D01*
X019625Y006075D02*
X019945Y006075D01*
X019945Y006174D02*
X019625Y006174D01*
X019625Y006272D02*
X019945Y006272D01*
X019945Y006371D02*
X019604Y006371D01*
X019506Y006469D02*
X019945Y006469D01*
X019945Y006568D02*
X019407Y006568D01*
X019945Y006666D02*
X017559Y006666D01*
X017625Y006600D02*
X017350Y006875D01*
X016960Y006875D01*
X016685Y006600D01*
X016685Y006210D01*
X016960Y005935D01*
X017350Y005935D01*
X017625Y006210D01*
X017625Y006600D01*
X017625Y006568D02*
X018903Y006568D01*
X018805Y006469D02*
X017625Y006469D01*
X017625Y006371D02*
X018003Y006371D01*
X017904Y006272D02*
X017625Y006272D01*
X017588Y006174D02*
X017806Y006174D01*
X017707Y006075D02*
X017490Y006075D01*
X017391Y005976D02*
X017609Y005976D01*
X017510Y005878D02*
X011195Y005878D01*
X011195Y005976D02*
X015919Y005976D01*
X015960Y005935D02*
X016350Y005935D01*
X016625Y006210D01*
X016625Y006600D01*
X016445Y006780D01*
X016445Y009097D01*
X016445Y009213D01*
X016401Y009319D01*
X014445Y011275D01*
X014445Y012030D01*
X014625Y012210D01*
X014625Y012600D01*
X014350Y012875D01*
X013960Y012875D01*
X013685Y012600D01*
X013685Y012210D01*
X013865Y012030D01*
X013865Y011097D01*
X013909Y010991D01*
X013991Y010909D01*
X015865Y009035D01*
X015865Y006780D01*
X015685Y006600D01*
X015685Y006210D01*
X015960Y005935D01*
X015821Y006075D02*
X011195Y006075D01*
X011195Y006174D02*
X015722Y006174D01*
X015685Y006272D02*
X011195Y006272D01*
X011195Y006371D02*
X015685Y006371D01*
X015685Y006469D02*
X011195Y006469D01*
X011195Y006568D02*
X015685Y006568D01*
X015752Y006666D02*
X011195Y006666D01*
X011195Y006765D02*
X015850Y006765D01*
X015865Y006863D02*
X011195Y006863D01*
X011195Y006962D02*
X013934Y006962D01*
X013960Y006935D02*
X013685Y007210D01*
X013685Y007600D01*
X013865Y007780D01*
X013865Y008285D01*
X013375Y008775D01*
X013375Y008460D01*
X013100Y008185D01*
X012710Y008185D01*
X012435Y008460D01*
X012435Y008850D01*
X012493Y008907D01*
X011375Y010025D01*
X011375Y009710D01*
X011100Y009435D01*
X010710Y009435D01*
X010435Y009710D01*
X010435Y010100D01*
X010710Y010375D01*
X011025Y010375D01*
X009715Y011685D01*
X009710Y011685D01*
X009695Y011701D01*
X009695Y010525D01*
X009845Y010375D01*
X010100Y010375D01*
X010375Y010100D01*
X010375Y009710D01*
X010195Y009530D01*
X010195Y008945D01*
X010847Y008945D01*
X010963Y008945D01*
X011530Y008945D01*
X011710Y009125D01*
X012100Y009125D01*
X012375Y008850D01*
X012375Y008460D01*
X012100Y008185D01*
X011710Y008185D01*
X011530Y008365D01*
X011195Y008365D01*
X011195Y008030D01*
X011375Y007850D01*
X011375Y007460D01*
X011195Y007280D01*
X011195Y005530D01*
X011375Y005350D01*
X011375Y004960D01*
X011195Y004780D01*
X011195Y003030D01*
X011375Y002850D01*
X011375Y002460D01*
X011100Y002185D01*
X010845Y002185D01*
X010569Y001909D01*
X010463Y001865D01*
X010347Y001865D01*
X006597Y001865D01*
X006491Y001909D01*
X006409Y001991D01*
X006035Y002365D01*
X005290Y002365D01*
X005181Y002257D01*
X005009Y002185D01*
X004302Y002185D01*
X004129Y002257D01*
X003997Y002389D01*
X003925Y002562D01*
X003925Y002749D01*
X003997Y002921D01*
X004129Y003054D01*
X004302Y003125D01*
X005009Y003125D01*
X005181Y003054D01*
X005290Y002945D01*
X006097Y002945D01*
X006213Y002945D01*
X006319Y002901D01*
X006775Y002445D01*
X009451Y002445D01*
X009435Y002460D01*
X009435Y002850D01*
X009710Y003125D01*
X010100Y003125D01*
X010375Y002850D01*
X010375Y002535D01*
X010435Y002595D01*
X010435Y002850D01*
X010615Y003030D01*
X010615Y004780D01*
X010435Y004960D01*
X010435Y005350D01*
X010615Y005530D01*
X010615Y007280D01*
X010435Y007460D01*
X010435Y007850D01*
X010615Y008030D01*
X010615Y008365D01*
X009963Y008365D01*
X009847Y008365D01*
X009280Y008365D01*
X009100Y008185D01*
X008710Y008185D01*
X008435Y008460D01*
X008435Y008850D01*
X008710Y009125D01*
X009100Y009125D01*
X009280Y008945D01*
X009615Y008945D01*
X009615Y009530D01*
X009435Y009710D01*
X009435Y009965D01*
X009241Y010159D01*
X009159Y010241D01*
X009155Y010251D01*
X009151Y010241D01*
X008901Y009991D01*
X008819Y009909D01*
X008713Y009865D01*
X006945Y009865D01*
X006945Y007780D01*
X007125Y007600D01*
X007125Y007210D01*
X006945Y007030D01*
X006945Y006664D01*
X006984Y006625D01*
X007044Y006482D01*
X007044Y006328D01*
X006984Y006185D01*
X006875Y006076D01*
X006732Y006017D01*
X006578Y006017D01*
X006435Y006076D01*
X006396Y006115D01*
X005030Y006115D01*
X004860Y005945D01*
X007713Y005945D01*
X007819Y005901D01*
X007901Y005819D01*
X008275Y005445D01*
X009530Y005445D01*
X009710Y005625D01*
X010100Y005625D01*
X010375Y005350D01*
X010375Y004960D01*
X010100Y004685D01*
X009710Y004685D01*
X009530Y004865D01*
X008213Y004865D01*
X008097Y004865D01*
X007991Y004909D01*
X007535Y005365D01*
X004213Y005365D01*
X004097Y005365D01*
X003991Y005409D01*
X003491Y005909D01*
X003465Y005935D01*
X003460Y005935D01*
X003185Y006210D01*
X003185Y006600D01*
X003460Y006875D01*
X003850Y006875D01*
X004125Y006600D01*
X004125Y006210D01*
X004067Y006153D01*
X004275Y005945D01*
X004451Y005945D01*
X004185Y006210D01*
X004185Y006600D01*
X004460Y006875D01*
X004850Y006875D01*
X005030Y006695D01*
X006365Y006695D01*
X006365Y007030D01*
X006185Y007210D01*
X006185Y007600D01*
X006365Y007780D01*
X006365Y010097D01*
X006365Y010213D01*
X006365Y012030D01*
X006185Y012210D01*
X006185Y012600D01*
X006365Y012780D01*
X006365Y015597D01*
X006365Y015713D01*
X006409Y015819D01*
X007741Y017151D01*
X007847Y017195D01*
X007963Y017195D01*
X009530Y017195D01*
X009710Y017375D01*
X010100Y017375D01*
X010375Y017100D01*
X010375Y016710D01*
X010100Y016435D01*
X009710Y016435D01*
X009530Y016615D01*
X008025Y016615D01*
X006945Y015535D01*
X006945Y012780D01*
X007125Y012600D01*
X007125Y012210D01*
X006945Y012030D01*
X006945Y010445D01*
X008535Y010445D01*
X008615Y010525D01*
X008615Y010780D01*
X008435Y010960D01*
X008435Y011350D01*
X008701Y011615D01*
X008525Y011615D01*
X008317Y011407D01*
X008375Y011350D01*
X008375Y010960D01*
X008100Y010685D01*
X007710Y010685D01*
X007435Y010960D01*
X007435Y011350D01*
X007710Y011625D01*
X007715Y011625D01*
X008159Y012069D01*
X008159Y012069D01*
X008241Y012151D01*
X008347Y012195D01*
X009115Y012195D01*
X009115Y014213D01*
X009159Y014319D01*
X009241Y014401D01*
X009241Y014401D01*
X009435Y014595D01*
X009435Y014850D01*
X009710Y015125D01*
X010100Y015125D01*
X010375Y014850D01*
X010375Y014460D01*
X010100Y014185D01*
X009845Y014185D01*
X009695Y014035D01*
X009695Y012610D01*
X009710Y012625D01*
X010100Y012625D01*
X010375Y012350D01*
X010375Y011960D01*
X010317Y011903D01*
X011615Y010605D01*
X011615Y010780D01*
X011435Y010960D01*
X011435Y011350D01*
X011710Y011625D01*
X012100Y011625D01*
X012375Y011350D01*
X012375Y010960D01*
X012195Y010780D01*
X012195Y010775D01*
X014401Y008569D01*
X014445Y008463D01*
X014445Y008347D01*
X014445Y007780D01*
X014625Y007600D01*
X014625Y007210D01*
X014350Y006935D01*
X013960Y006935D01*
X013835Y007060D02*
X011195Y007060D01*
X011195Y007159D02*
X013737Y007159D01*
X013685Y007258D02*
X011195Y007258D01*
X011271Y007356D02*
X013685Y007356D01*
X013685Y007455D02*
X011369Y007455D01*
X011375Y007553D02*
X013685Y007553D01*
X013737Y007652D02*
X011375Y007652D01*
X011375Y007750D02*
X013836Y007750D01*
X013865Y007849D02*
X011375Y007849D01*
X011278Y007947D02*
X013865Y007947D01*
X013865Y008046D02*
X011195Y008046D01*
X011195Y008144D02*
X013865Y008144D01*
X013865Y008243D02*
X013158Y008243D01*
X013256Y008341D02*
X013809Y008341D01*
X013710Y008440D02*
X013355Y008440D01*
X013375Y008539D02*
X013611Y008539D01*
X013513Y008637D02*
X013375Y008637D01*
X013375Y008736D02*
X013414Y008736D01*
X013840Y009130D02*
X015770Y009130D01*
X015865Y009031D02*
X013939Y009031D01*
X014038Y008933D02*
X015865Y008933D01*
X015865Y008834D02*
X014136Y008834D01*
X014235Y008736D02*
X015865Y008736D01*
X015865Y008637D02*
X014333Y008637D01*
X014414Y008539D02*
X015865Y008539D01*
X015865Y008440D02*
X014445Y008440D01*
X014445Y008341D02*
X015865Y008341D01*
X015865Y008243D02*
X014445Y008243D01*
X014445Y008144D02*
X015865Y008144D01*
X015865Y008046D02*
X014445Y008046D01*
X014445Y007947D02*
X015865Y007947D01*
X015865Y007849D02*
X015376Y007849D01*
X015350Y007875D02*
X014960Y007875D01*
X014685Y007600D01*
X014685Y007210D01*
X014960Y006935D01*
X015350Y006935D01*
X015625Y007210D01*
X015625Y007600D01*
X015350Y007875D01*
X015475Y007750D02*
X015865Y007750D01*
X015865Y007652D02*
X015573Y007652D01*
X015625Y007553D02*
X015865Y007553D01*
X015865Y007455D02*
X015625Y007455D01*
X015625Y007356D02*
X015865Y007356D01*
X015865Y007258D02*
X015625Y007258D01*
X015574Y007159D02*
X015865Y007159D01*
X015865Y007060D02*
X015475Y007060D01*
X015377Y006962D02*
X015865Y006962D01*
X016445Y006962D02*
X019945Y006962D01*
X019945Y007060D02*
X016445Y007060D01*
X016445Y007159D02*
X019945Y007159D01*
X019945Y007258D02*
X016445Y007258D01*
X016445Y007356D02*
X019945Y007356D01*
X019945Y007455D02*
X016445Y007455D01*
X016445Y007553D02*
X019945Y007553D01*
X019945Y007652D02*
X016445Y007652D01*
X016445Y007750D02*
X019945Y007750D01*
X019945Y007849D02*
X016445Y007849D01*
X016445Y007947D02*
X019945Y007947D01*
X019945Y008046D02*
X016445Y008046D01*
X016445Y008144D02*
X019945Y008144D01*
X019945Y008243D02*
X016445Y008243D01*
X016445Y008341D02*
X019945Y008341D01*
X019945Y008440D02*
X016445Y008440D01*
X016445Y008539D02*
X019945Y008539D01*
X019945Y008637D02*
X016445Y008637D01*
X016445Y008736D02*
X019945Y008736D01*
X019945Y008834D02*
X016445Y008834D01*
X016445Y008933D02*
X019945Y008933D01*
X019945Y009031D02*
X016445Y009031D01*
X016445Y009130D02*
X019945Y009130D01*
X019945Y009228D02*
X016439Y009228D01*
X016393Y009327D02*
X019945Y009327D01*
X019945Y009425D02*
X016295Y009425D01*
X016196Y009524D02*
X019945Y009524D01*
X019945Y009623D02*
X016098Y009623D01*
X015999Y009721D02*
X018924Y009721D01*
X018960Y009685D02*
X018685Y009960D01*
X018685Y010350D01*
X018895Y010560D01*
X018895Y013547D01*
X015047Y017395D01*
X008707Y017395D01*
X008603Y017395D01*
X008508Y017435D01*
X007308Y018634D01*
X007263Y018615D01*
X007048Y018615D01*
X006849Y018697D01*
X006697Y018849D01*
X006691Y018865D01*
X005775Y018865D01*
X001945Y015035D01*
X001945Y009030D01*
X002125Y008850D01*
X002125Y008460D01*
X001945Y008280D01*
X001945Y005125D01*
X002009Y005125D01*
X002181Y005054D01*
X002314Y004921D01*
X002385Y004749D01*
X002385Y004562D01*
X002314Y004389D01*
X002181Y004257D01*
X002009Y004185D01*
X001302Y004185D01*
X001129Y004257D01*
X000997Y004389D01*
X000925Y004562D01*
X000925Y004749D01*
X000997Y004921D01*
X001129Y005054D01*
X001302Y005125D01*
X001365Y005125D01*
X001365Y008280D01*
X001185Y008460D01*
X001185Y008850D01*
X001365Y009030D01*
X001365Y015097D01*
X001365Y015213D01*
X001409Y015319D01*
X005409Y019319D01*
X005491Y019401D01*
X005597Y019445D01*
X006691Y019445D01*
X006697Y019461D01*
X006849Y019613D01*
X007048Y019695D01*
X007263Y019695D01*
X007461Y019613D01*
X007613Y019461D01*
X007695Y019263D01*
X007695Y019048D01*
X007676Y019002D01*
X008763Y017915D01*
X015207Y017915D01*
X015302Y017876D01*
X015376Y017802D01*
X017563Y017802D01*
X017577Y017769D02*
X017769Y017577D01*
X018019Y017473D01*
X018291Y017473D01*
X018542Y017577D01*
X018734Y017769D01*
X018838Y018019D01*
X018838Y018291D01*
X018734Y018542D01*
X018542Y018734D01*
X018291Y018838D01*
X018019Y018838D01*
X017769Y018734D01*
X017577Y018542D01*
X017473Y018291D01*
X017473Y018019D01*
X017577Y017769D01*
X017642Y017703D02*
X015475Y017703D01*
X015573Y017605D02*
X017741Y017605D01*
X017939Y017506D02*
X015672Y017506D01*
X015770Y017407D02*
X019945Y017407D01*
X019945Y017309D02*
X015869Y017309D01*
X015967Y017210D02*
X019945Y017210D01*
X019945Y017112D02*
X016066Y017112D01*
X016165Y017013D02*
X019945Y017013D01*
X019945Y016915D02*
X016263Y016915D01*
X016362Y016816D02*
X019945Y016816D01*
X019945Y016718D02*
X016460Y016718D01*
X016559Y016619D02*
X019945Y016619D01*
X019945Y016521D02*
X016657Y016521D01*
X016756Y016422D02*
X019945Y016422D01*
X019945Y016324D02*
X016854Y016324D01*
X016953Y016225D02*
X019945Y016225D01*
X019945Y016126D02*
X017051Y016126D01*
X017150Y016028D02*
X019945Y016028D01*
X019945Y015929D02*
X017249Y015929D01*
X017347Y015831D02*
X019945Y015831D01*
X019945Y015732D02*
X017446Y015732D01*
X017544Y015634D02*
X019945Y015634D01*
X019945Y015535D02*
X017643Y015535D01*
X017741Y015437D02*
X019945Y015437D01*
X019945Y015338D02*
X017840Y015338D01*
X017938Y015240D02*
X019945Y015240D01*
X019945Y015141D02*
X018037Y015141D01*
X018135Y015042D02*
X019945Y015042D01*
X019945Y014944D02*
X018234Y014944D01*
X018333Y014845D02*
X019945Y014845D01*
X019945Y014747D02*
X018431Y014747D01*
X018530Y014648D02*
X019945Y014648D01*
X019945Y014550D02*
X018628Y014550D01*
X018727Y014451D02*
X019945Y014451D01*
X019945Y014353D02*
X018825Y014353D01*
X018924Y014254D02*
X019945Y014254D01*
X019945Y014156D02*
X019022Y014156D01*
X019121Y014057D02*
X019945Y014057D01*
X019945Y013958D02*
X019219Y013958D01*
X019318Y013860D02*
X019945Y013860D01*
X019945Y013761D02*
X019393Y013761D01*
X019376Y013802D02*
X015376Y017802D01*
X015243Y017900D02*
X017522Y017900D01*
X017481Y017999D02*
X008679Y017999D01*
X008581Y018097D02*
X017473Y018097D01*
X017473Y018196D02*
X008482Y018196D01*
X008384Y018294D02*
X017474Y018294D01*
X017515Y018393D02*
X008285Y018393D01*
X008186Y018491D02*
X017556Y018491D01*
X017625Y018590D02*
X008088Y018590D01*
X007989Y018689D02*
X008910Y018689D01*
X008858Y018710D02*
X009051Y018630D01*
X009260Y018630D01*
X009452Y018710D01*
X009600Y018858D01*
X009680Y019051D01*
X009680Y019260D01*
X009600Y019452D01*
X009452Y019600D01*
X009260Y019680D01*
X009051Y019680D01*
X008858Y019600D01*
X008710Y019452D01*
X008630Y019260D01*
X008630Y019051D01*
X008710Y018858D01*
X008858Y018710D01*
X008781Y018787D02*
X007891Y018787D01*
X007792Y018886D02*
X008699Y018886D01*
X008658Y018984D02*
X007694Y018984D01*
X007695Y019083D02*
X008630Y019083D01*
X008630Y019181D02*
X007695Y019181D01*
X007688Y019280D02*
X008639Y019280D01*
X008679Y019378D02*
X007647Y019378D01*
X007597Y019477D02*
X008734Y019477D01*
X008833Y019575D02*
X007498Y019575D01*
X007314Y019674D02*
X009036Y019674D01*
X009274Y019674D02*
X011536Y019674D01*
X011551Y019680D02*
X011358Y019600D01*
X011210Y019452D01*
X011130Y019260D01*
X011130Y019051D01*
X011210Y018858D01*
X011358Y018710D01*
X011551Y018630D01*
X011760Y018630D01*
X011952Y018710D01*
X012100Y018858D01*
X012180Y019051D01*
X012180Y019260D01*
X012100Y019452D01*
X011952Y019600D01*
X011760Y019680D01*
X011551Y019680D01*
X011774Y019674D02*
X019743Y019674D01*
X019814Y019575D02*
X013887Y019575D01*
X013907Y019566D02*
X013839Y019600D01*
X013768Y019623D01*
X013704Y019633D01*
X013704Y019204D01*
X013607Y019204D01*
X013607Y019633D01*
X013543Y019623D01*
X013471Y019600D01*
X013404Y019566D01*
X013342Y019521D01*
X013289Y019468D01*
X013245Y019407D01*
X013210Y019339D01*
X013187Y019268D01*
X013177Y019204D01*
X013606Y019204D01*
X013606Y019107D01*
X013177Y019107D01*
X013187Y019043D01*
X013210Y018971D01*
X013245Y018904D01*
X013289Y018842D01*
X013342Y018789D01*
X013404Y018745D01*
X013471Y018710D01*
X013543Y018687D01*
X013607Y018677D01*
X013607Y019106D01*
X013704Y019106D01*
X013704Y018677D01*
X013768Y018687D01*
X013839Y018710D01*
X013907Y018745D01*
X013968Y018789D01*
X014021Y018842D01*
X014066Y018904D01*
X014100Y018971D01*
X014123Y019043D01*
X014133Y019107D01*
X013704Y019107D01*
X013704Y019204D01*
X014133Y019204D01*
X014123Y019268D01*
X014100Y019339D01*
X014066Y019407D01*
X014021Y019468D01*
X013968Y019521D01*
X013907Y019566D01*
X014012Y019477D02*
X019871Y019477D01*
X019903Y019378D02*
X014080Y019378D01*
X014119Y019280D02*
X019935Y019280D01*
X019943Y019181D02*
X013704Y019181D01*
X013606Y019181D02*
X012180Y019181D01*
X012180Y019083D02*
X013181Y019083D01*
X013206Y018984D02*
X012152Y018984D01*
X012112Y018886D02*
X013258Y018886D01*
X013345Y018787D02*
X012029Y018787D01*
X011900Y018689D02*
X013538Y018689D01*
X013607Y018689D02*
X013704Y018689D01*
X013772Y018689D02*
X017723Y018689D01*
X017898Y018787D02*
X013965Y018787D01*
X014053Y018886D02*
X019945Y018886D01*
X019945Y018984D02*
X014104Y018984D01*
X014130Y019083D02*
X019945Y019083D01*
X019945Y018787D02*
X018413Y018787D01*
X018587Y018689D02*
X019945Y018689D01*
X019945Y018590D02*
X018685Y018590D01*
X018754Y018491D02*
X019945Y018491D01*
X019945Y018393D02*
X018795Y018393D01*
X018836Y018294D02*
X019945Y018294D01*
X019945Y018196D02*
X018838Y018196D01*
X018838Y018097D02*
X019945Y018097D01*
X019945Y017999D02*
X018829Y017999D01*
X018788Y017900D02*
X019945Y017900D01*
X019945Y017802D02*
X018747Y017802D01*
X018668Y017703D02*
X019945Y017703D01*
X019945Y017605D02*
X018570Y017605D01*
X018371Y017506D02*
X019945Y017506D01*
X019633Y019773D02*
X001177Y019773D01*
X001068Y019674D02*
X006997Y019674D01*
X006812Y019575D02*
X000996Y019575D01*
X000939Y019477D02*
X006713Y019477D01*
X007155Y019155D02*
X008655Y017655D01*
X015155Y017655D01*
X019155Y013655D01*
X019155Y010155D01*
X019484Y009820D02*
X019945Y009820D01*
X019945Y009918D02*
X019583Y009918D01*
X019625Y009960D02*
X019625Y010350D01*
X019415Y010560D01*
X019415Y013603D01*
X019415Y013707D01*
X019376Y013802D01*
X019415Y013663D02*
X019945Y013663D01*
X019945Y013564D02*
X019415Y013564D01*
X019415Y013466D02*
X019945Y013466D01*
X019945Y013367D02*
X019415Y013367D01*
X019415Y013269D02*
X019945Y013269D01*
X019945Y013170D02*
X019415Y013170D01*
X019415Y013072D02*
X019945Y013072D01*
X019945Y012973D02*
X019415Y012973D01*
X019415Y012874D02*
X019945Y012874D01*
X019945Y012776D02*
X019415Y012776D01*
X019415Y012677D02*
X019945Y012677D01*
X019945Y012579D02*
X019415Y012579D01*
X019415Y012480D02*
X019945Y012480D01*
X019945Y012382D02*
X019415Y012382D01*
X019415Y012283D02*
X019945Y012283D01*
X019945Y012185D02*
X019415Y012185D01*
X019415Y012086D02*
X019945Y012086D01*
X019945Y011988D02*
X019415Y011988D01*
X019415Y011889D02*
X019945Y011889D01*
X019945Y011791D02*
X019415Y011791D01*
X019415Y011692D02*
X019945Y011692D01*
X019945Y011593D02*
X019415Y011593D01*
X019415Y011495D02*
X019945Y011495D01*
X019945Y011396D02*
X019415Y011396D01*
X019415Y011298D02*
X019945Y011298D01*
X019945Y011199D02*
X019415Y011199D01*
X019415Y011101D02*
X019945Y011101D01*
X019945Y011002D02*
X019415Y011002D01*
X019415Y010904D02*
X019945Y010904D01*
X019945Y010805D02*
X019415Y010805D01*
X019415Y010707D02*
X019945Y010707D01*
X019945Y010608D02*
X019415Y010608D01*
X019465Y010509D02*
X019945Y010509D01*
X019945Y010411D02*
X019564Y010411D01*
X019625Y010312D02*
X019945Y010312D01*
X019945Y010214D02*
X019625Y010214D01*
X019625Y010115D02*
X019945Y010115D01*
X019945Y010017D02*
X019625Y010017D01*
X019625Y009960D02*
X019350Y009685D01*
X018960Y009685D01*
X018826Y009820D02*
X015901Y009820D01*
X015802Y009918D02*
X018727Y009918D01*
X018685Y010017D02*
X015704Y010017D01*
X015605Y010115D02*
X018685Y010115D01*
X018685Y010214D02*
X015506Y010214D01*
X015408Y010312D02*
X018685Y010312D01*
X018746Y010411D02*
X015309Y010411D01*
X015211Y010509D02*
X018845Y010509D01*
X018895Y010608D02*
X015112Y010608D01*
X015014Y010707D02*
X018895Y010707D01*
X018895Y010805D02*
X014915Y010805D01*
X014817Y010904D02*
X018895Y010904D01*
X018895Y011002D02*
X014718Y011002D01*
X014620Y011101D02*
X018895Y011101D01*
X018895Y011199D02*
X014521Y011199D01*
X014445Y011298D02*
X018895Y011298D01*
X018895Y011396D02*
X014445Y011396D01*
X014445Y011495D02*
X018895Y011495D01*
X018895Y011593D02*
X014445Y011593D01*
X014445Y011692D02*
X018895Y011692D01*
X018895Y011791D02*
X014445Y011791D01*
X014445Y011889D02*
X018895Y011889D01*
X018895Y011988D02*
X015402Y011988D01*
X015350Y011935D02*
X015625Y012210D01*
X015625Y012600D01*
X015350Y012875D01*
X014960Y012875D01*
X014685Y012600D01*
X014685Y012210D01*
X014960Y011935D01*
X015350Y011935D01*
X015501Y012086D02*
X018895Y012086D01*
X018895Y012185D02*
X015599Y012185D01*
X015625Y012283D02*
X018895Y012283D01*
X018895Y012382D02*
X015625Y012382D01*
X015625Y012480D02*
X018895Y012480D01*
X018895Y012579D02*
X015625Y012579D01*
X015547Y012677D02*
X018895Y012677D01*
X018895Y012776D02*
X015449Y012776D01*
X015350Y012874D02*
X018895Y012874D01*
X018895Y012973D02*
X017388Y012973D01*
X017350Y012935D02*
X017625Y013210D01*
X017625Y013600D01*
X017350Y013875D01*
X016960Y013875D01*
X016685Y013600D01*
X016685Y013210D01*
X016960Y012935D01*
X017350Y012935D01*
X017486Y013072D02*
X018895Y013072D01*
X018895Y013170D02*
X017585Y013170D01*
X017625Y013269D02*
X018895Y013269D01*
X018895Y013367D02*
X017625Y013367D01*
X017625Y013466D02*
X018895Y013466D01*
X018878Y013564D02*
X017625Y013564D01*
X017562Y013663D02*
X018780Y013663D01*
X018681Y013761D02*
X017463Y013761D01*
X017365Y013860D02*
X018583Y013860D01*
X018484Y013958D02*
X009695Y013958D01*
X009695Y013860D02*
X015945Y013860D01*
X015960Y013875D02*
X015685Y013600D01*
X015685Y013210D01*
X015960Y012935D01*
X016350Y012935D01*
X016625Y013210D01*
X016625Y013600D01*
X016350Y013875D01*
X015960Y013875D01*
X015847Y013761D02*
X009695Y013761D01*
X009695Y013663D02*
X015748Y013663D01*
X015685Y013564D02*
X009695Y013564D01*
X009695Y013466D02*
X015685Y013466D01*
X015685Y013367D02*
X009695Y013367D01*
X009695Y013269D02*
X015685Y013269D01*
X015725Y013170D02*
X009695Y013170D01*
X009695Y013072D02*
X015824Y013072D01*
X015923Y012973D02*
X009695Y012973D01*
X009695Y012874D02*
X013960Y012874D01*
X013861Y012776D02*
X009695Y012776D01*
X009695Y012677D02*
X013763Y012677D01*
X013685Y012579D02*
X011146Y012579D01*
X011100Y012625D02*
X010710Y012625D01*
X010435Y012350D01*
X010435Y011960D01*
X010710Y011685D01*
X011100Y011685D01*
X011375Y011960D01*
X011375Y012350D01*
X011100Y012625D01*
X011245Y012480D02*
X013685Y012480D01*
X013685Y012382D02*
X011343Y012382D01*
X011375Y012283D02*
X013685Y012283D01*
X013711Y012185D02*
X011375Y012185D01*
X011375Y012086D02*
X013809Y012086D01*
X013865Y011988D02*
X011375Y011988D01*
X011304Y011889D02*
X013865Y011889D01*
X013865Y011791D02*
X011205Y011791D01*
X011107Y011692D02*
X013865Y011692D01*
X013865Y011593D02*
X013131Y011593D01*
X013100Y011625D02*
X013375Y011350D01*
X013375Y010960D01*
X013100Y010685D01*
X012710Y010685D01*
X012435Y010960D01*
X012435Y011350D01*
X012710Y011625D01*
X013100Y011625D01*
X013230Y011495D02*
X013865Y011495D01*
X013865Y011396D02*
X013329Y011396D01*
X013375Y011298D02*
X013865Y011298D01*
X013865Y011199D02*
X013375Y011199D01*
X013375Y011101D02*
X013865Y011101D01*
X013905Y011002D02*
X013375Y011002D01*
X013318Y010904D02*
X013996Y010904D01*
X014095Y010805D02*
X013220Y010805D01*
X013121Y010707D02*
X014194Y010707D01*
X014292Y010608D02*
X012362Y010608D01*
X012264Y010707D02*
X012689Y010707D01*
X012590Y010805D02*
X012220Y010805D01*
X012318Y010904D02*
X012492Y010904D01*
X012435Y011002D02*
X012375Y011002D01*
X012375Y011101D02*
X012435Y011101D01*
X012435Y011199D02*
X012375Y011199D01*
X012375Y011298D02*
X012435Y011298D01*
X012482Y011396D02*
X012329Y011396D01*
X012230Y011495D02*
X012580Y011495D01*
X012679Y011593D02*
X012131Y011593D01*
X011679Y011593D02*
X010627Y011593D01*
X010704Y011692D02*
X010528Y011692D01*
X010605Y011791D02*
X010430Y011791D01*
X010506Y011889D02*
X010331Y011889D01*
X010375Y011988D02*
X010435Y011988D01*
X010435Y012086D02*
X010375Y012086D01*
X010375Y012185D02*
X010435Y012185D01*
X010435Y012283D02*
X010375Y012283D01*
X010343Y012382D02*
X010467Y012382D01*
X010566Y012480D02*
X010245Y012480D01*
X010146Y012579D02*
X010664Y012579D01*
X010725Y011495D02*
X011580Y011495D01*
X011482Y011396D02*
X010824Y011396D01*
X010922Y011298D02*
X011435Y011298D01*
X011435Y011199D02*
X011021Y011199D01*
X011120Y011101D02*
X011435Y011101D01*
X011435Y011002D02*
X011218Y011002D01*
X011317Y010904D02*
X011492Y010904D01*
X011415Y010805D02*
X011590Y010805D01*
X011615Y010707D02*
X011514Y010707D01*
X011612Y010608D02*
X011615Y010608D01*
X011383Y010017D02*
X011375Y010017D01*
X011375Y009918D02*
X011482Y009918D01*
X011580Y009820D02*
X011375Y009820D01*
X011375Y009721D02*
X011679Y009721D01*
X011778Y009623D02*
X011287Y009623D01*
X011189Y009524D02*
X011876Y009524D01*
X011975Y009425D02*
X010195Y009425D01*
X010195Y009327D02*
X012073Y009327D01*
X012172Y009228D02*
X010195Y009228D01*
X010195Y009130D02*
X012270Y009130D01*
X012194Y009031D02*
X012369Y009031D01*
X012292Y008933D02*
X012467Y008933D01*
X012435Y008834D02*
X012375Y008834D01*
X012375Y008736D02*
X012435Y008736D01*
X012435Y008637D02*
X012375Y008637D01*
X012375Y008539D02*
X012435Y008539D01*
X012456Y008440D02*
X012355Y008440D01*
X012256Y008341D02*
X012554Y008341D01*
X012653Y008243D02*
X012158Y008243D01*
X011653Y008243D02*
X011195Y008243D01*
X011195Y008341D02*
X011554Y008341D01*
X011617Y009031D02*
X010195Y009031D01*
X010195Y009524D02*
X010622Y009524D01*
X010523Y009623D02*
X010287Y009623D01*
X010375Y009721D02*
X010435Y009721D01*
X010435Y009820D02*
X010375Y009820D01*
X010375Y009918D02*
X010435Y009918D01*
X010435Y010017D02*
X010375Y010017D01*
X010360Y010115D02*
X010451Y010115D01*
X010549Y010214D02*
X010261Y010214D01*
X010162Y010312D02*
X010648Y010312D01*
X010891Y010509D02*
X009711Y010509D01*
X009695Y010608D02*
X010792Y010608D01*
X010694Y010707D02*
X009695Y010707D01*
X009695Y010805D02*
X010595Y010805D01*
X010496Y010904D02*
X009695Y010904D01*
X009695Y011002D02*
X010398Y011002D01*
X010299Y011101D02*
X009695Y011101D01*
X009695Y011199D02*
X010201Y011199D01*
X010102Y011298D02*
X009695Y011298D01*
X009695Y011396D02*
X010004Y011396D01*
X009905Y011495D02*
X009695Y011495D01*
X009695Y011593D02*
X009807Y011593D01*
X009704Y011692D02*
X009695Y011692D01*
X009115Y012283D02*
X007125Y012283D01*
X007125Y012382D02*
X009115Y012382D01*
X009115Y012480D02*
X007125Y012480D01*
X007125Y012579D02*
X009115Y012579D01*
X009115Y012677D02*
X007047Y012677D01*
X006949Y012776D02*
X009115Y012776D01*
X009115Y012874D02*
X006945Y012874D01*
X006945Y012973D02*
X009115Y012973D01*
X009115Y013072D02*
X006945Y013072D01*
X006945Y013170D02*
X009115Y013170D01*
X009115Y013269D02*
X006945Y013269D01*
X006945Y013367D02*
X009115Y013367D01*
X009115Y013466D02*
X006945Y013466D01*
X006945Y013564D02*
X009115Y013564D01*
X009115Y013663D02*
X006945Y013663D01*
X006945Y013761D02*
X009115Y013761D01*
X009115Y013860D02*
X006945Y013860D01*
X006945Y013958D02*
X009115Y013958D01*
X009115Y014057D02*
X006945Y014057D01*
X006945Y014156D02*
X009115Y014156D01*
X009132Y014254D02*
X006945Y014254D01*
X006945Y014353D02*
X009193Y014353D01*
X009291Y014451D02*
X006945Y014451D01*
X006945Y014550D02*
X009390Y014550D01*
X009435Y014648D02*
X006945Y014648D01*
X006945Y014747D02*
X009435Y014747D01*
X009435Y014845D02*
X006945Y014845D01*
X006945Y014944D02*
X009529Y014944D01*
X009628Y015042D02*
X006945Y015042D01*
X006945Y015141D02*
X017302Y015141D01*
X017400Y015042D02*
X011182Y015042D01*
X011100Y015125D02*
X010710Y015125D01*
X010435Y014850D01*
X010435Y014460D01*
X010710Y014185D01*
X011100Y014185D01*
X011375Y014460D01*
X011375Y014850D01*
X011100Y015125D01*
X011281Y014944D02*
X017499Y014944D01*
X017597Y014845D02*
X011375Y014845D01*
X011375Y014747D02*
X017696Y014747D01*
X017794Y014648D02*
X011375Y014648D01*
X011375Y014550D02*
X017893Y014550D01*
X017991Y014451D02*
X011366Y014451D01*
X011267Y014353D02*
X018090Y014353D01*
X018188Y014254D02*
X011169Y014254D01*
X010641Y014254D02*
X010169Y014254D01*
X010267Y014353D02*
X010543Y014353D01*
X010444Y014451D02*
X010366Y014451D01*
X010375Y014550D02*
X010435Y014550D01*
X010435Y014648D02*
X010375Y014648D01*
X010375Y014747D02*
X010435Y014747D01*
X010435Y014845D02*
X010375Y014845D01*
X010281Y014944D02*
X010529Y014944D01*
X010628Y015042D02*
X010182Y015042D01*
X009816Y014156D02*
X018287Y014156D01*
X018386Y014057D02*
X009717Y014057D01*
X008322Y012185D02*
X007099Y012185D01*
X007001Y012086D02*
X008176Y012086D01*
X008078Y011988D02*
X006945Y011988D01*
X006945Y011889D02*
X007979Y011889D01*
X007880Y011791D02*
X006945Y011791D01*
X006945Y011692D02*
X007782Y011692D01*
X007679Y011593D02*
X006945Y011593D01*
X006945Y011495D02*
X007580Y011495D01*
X007482Y011396D02*
X006945Y011396D01*
X006945Y011298D02*
X007435Y011298D01*
X007435Y011199D02*
X006945Y011199D01*
X006945Y011101D02*
X007435Y011101D01*
X007435Y011002D02*
X006945Y011002D01*
X006945Y010904D02*
X007492Y010904D01*
X007590Y010805D02*
X006945Y010805D01*
X006945Y010707D02*
X007689Y010707D01*
X008121Y010707D02*
X008615Y010707D01*
X008615Y010608D02*
X006945Y010608D01*
X006945Y010509D02*
X008599Y010509D01*
X008590Y010805D02*
X008220Y010805D01*
X008318Y010904D02*
X008492Y010904D01*
X008435Y011002D02*
X008375Y011002D01*
X008375Y011101D02*
X008435Y011101D01*
X008435Y011199D02*
X008375Y011199D01*
X008375Y011298D02*
X008435Y011298D01*
X008482Y011396D02*
X008329Y011396D01*
X008405Y011495D02*
X008580Y011495D01*
X008504Y011593D02*
X008679Y011593D01*
X009124Y010214D02*
X009186Y010214D01*
X009285Y010115D02*
X009025Y010115D01*
X008927Y010017D02*
X009383Y010017D01*
X009435Y009918D02*
X008828Y009918D01*
X009435Y009820D02*
X006945Y009820D01*
X006945Y009721D02*
X009435Y009721D01*
X009523Y009623D02*
X006945Y009623D01*
X006945Y009524D02*
X009615Y009524D01*
X009615Y009425D02*
X006945Y009425D01*
X006945Y009327D02*
X009615Y009327D01*
X009615Y009228D02*
X006945Y009228D01*
X006945Y009130D02*
X009615Y009130D01*
X009615Y009031D02*
X009194Y009031D01*
X008617Y009031D02*
X008194Y009031D01*
X008100Y009125D02*
X008375Y008850D01*
X008375Y008460D01*
X008100Y008185D01*
X007710Y008185D01*
X007435Y008460D01*
X007435Y008850D01*
X007710Y009125D01*
X008100Y009125D01*
X008292Y008933D02*
X008518Y008933D01*
X008435Y008834D02*
X008375Y008834D01*
X008375Y008736D02*
X008435Y008736D01*
X008435Y008637D02*
X008375Y008637D01*
X008375Y008539D02*
X008435Y008539D01*
X008456Y008440D02*
X008355Y008440D01*
X008256Y008341D02*
X008554Y008341D01*
X008653Y008243D02*
X008158Y008243D01*
X007653Y008243D02*
X006945Y008243D01*
X006945Y008341D02*
X007554Y008341D01*
X007456Y008440D02*
X006945Y008440D01*
X006945Y008539D02*
X007435Y008539D01*
X007435Y008637D02*
X006945Y008637D01*
X006945Y008736D02*
X007435Y008736D01*
X007435Y008834D02*
X006945Y008834D01*
X006945Y008933D02*
X007518Y008933D01*
X007617Y009031D02*
X006945Y009031D01*
X006365Y009031D02*
X004439Y009031D01*
X004538Y008933D02*
X006365Y008933D01*
X006365Y008834D02*
X004636Y008834D01*
X004735Y008736D02*
X006365Y008736D01*
X006365Y008637D02*
X004833Y008637D01*
X004932Y008539D02*
X006365Y008539D01*
X006365Y008440D02*
X005030Y008440D01*
X005129Y008341D02*
X006365Y008341D01*
X006365Y008243D02*
X005227Y008243D01*
X005326Y008144D02*
X006365Y008144D01*
X006365Y008046D02*
X005424Y008046D01*
X005523Y007947D02*
X006365Y007947D01*
X006365Y007849D02*
X005876Y007849D01*
X005850Y007875D02*
X005595Y007875D01*
X003945Y009525D01*
X003945Y013030D01*
X004125Y013210D01*
X004125Y013600D01*
X003850Y013875D01*
X003460Y013875D01*
X003185Y013600D01*
X003185Y013210D01*
X003365Y013030D01*
X003365Y009463D01*
X003365Y009347D01*
X003409Y009241D01*
X003585Y009065D01*
X003485Y009065D01*
X003245Y008825D01*
X003245Y008685D01*
X003625Y008685D01*
X003625Y008625D01*
X003685Y008625D01*
X003685Y008245D01*
X003825Y008245D01*
X004065Y008485D01*
X004065Y008585D01*
X005185Y007465D01*
X005185Y007210D01*
X005460Y006935D01*
X005850Y006935D01*
X006125Y007210D01*
X006125Y007600D01*
X005850Y007875D01*
X005975Y007750D02*
X006336Y007750D01*
X006237Y007652D02*
X006073Y007652D01*
X006125Y007553D02*
X006185Y007553D01*
X006185Y007455D02*
X006125Y007455D01*
X006125Y007356D02*
X006185Y007356D01*
X006185Y007258D02*
X006125Y007258D01*
X006074Y007159D02*
X006237Y007159D01*
X006335Y007060D02*
X005975Y007060D01*
X005877Y006962D02*
X006365Y006962D01*
X006365Y006863D02*
X004861Y006863D01*
X004960Y006765D02*
X006365Y006765D01*
X006945Y006765D02*
X010615Y006765D01*
X010615Y006863D02*
X006945Y006863D01*
X006945Y006962D02*
X010615Y006962D01*
X010615Y007060D02*
X006975Y007060D01*
X007074Y007159D02*
X010615Y007159D01*
X010615Y007258D02*
X010172Y007258D01*
X010100Y007185D02*
X010375Y007460D01*
X010375Y007850D01*
X010100Y008125D01*
X009710Y008125D01*
X009435Y007850D01*
X009435Y007460D01*
X009710Y007185D01*
X010100Y007185D01*
X010271Y007356D02*
X010539Y007356D01*
X010441Y007455D02*
X010369Y007455D01*
X010375Y007553D02*
X010435Y007553D01*
X010435Y007652D02*
X010375Y007652D01*
X010375Y007750D02*
X010435Y007750D01*
X010435Y007849D02*
X010375Y007849D01*
X010278Y007947D02*
X010533Y007947D01*
X010615Y008046D02*
X010179Y008046D01*
X009631Y008046D02*
X006945Y008046D01*
X006945Y008144D02*
X010615Y008144D01*
X010615Y008243D02*
X009158Y008243D01*
X009256Y008341D02*
X010615Y008341D01*
X009533Y007947D02*
X006945Y007947D01*
X006945Y007849D02*
X009435Y007849D01*
X009435Y007750D02*
X006975Y007750D01*
X007073Y007652D02*
X009435Y007652D01*
X009435Y007553D02*
X007125Y007553D01*
X007125Y007455D02*
X009441Y007455D01*
X009539Y007356D02*
X007125Y007356D01*
X007125Y007258D02*
X009638Y007258D01*
X010615Y006666D02*
X006945Y006666D01*
X007008Y006568D02*
X010615Y006568D01*
X010615Y006469D02*
X007044Y006469D01*
X007044Y006371D02*
X010615Y006371D01*
X010615Y006272D02*
X007020Y006272D01*
X006973Y006174D02*
X010615Y006174D01*
X010615Y006075D02*
X006873Y006075D01*
X006437Y006075D02*
X004990Y006075D01*
X004891Y005976D02*
X010615Y005976D01*
X010615Y005878D02*
X007842Y005878D01*
X007941Y005779D02*
X010615Y005779D01*
X010615Y005681D02*
X008039Y005681D01*
X008138Y005582D02*
X009668Y005582D01*
X009569Y005484D02*
X008237Y005484D01*
X007811Y005090D02*
X005094Y005090D01*
X005244Y004991D02*
X007909Y004991D01*
X008031Y004892D02*
X005326Y004892D01*
X005366Y004794D02*
X009602Y004794D01*
X009700Y004695D02*
X005385Y004695D01*
X005385Y004597D02*
X010615Y004597D01*
X010615Y004695D02*
X010110Y004695D01*
X010209Y004794D02*
X010602Y004794D01*
X010503Y004892D02*
X010307Y004892D01*
X010375Y004991D02*
X010435Y004991D01*
X010435Y005090D02*
X010375Y005090D01*
X010375Y005188D02*
X010435Y005188D01*
X010435Y005287D02*
X010375Y005287D01*
X010340Y005385D02*
X010471Y005385D01*
X010569Y005484D02*
X010241Y005484D01*
X010143Y005582D02*
X010615Y005582D01*
X011195Y005582D02*
X017215Y005582D01*
X017313Y005681D02*
X011195Y005681D01*
X011195Y005779D02*
X017412Y005779D01*
X017116Y005484D02*
X011241Y005484D01*
X011340Y005385D02*
X017033Y005385D01*
X017005Y005287D02*
X011375Y005287D01*
X011375Y005188D02*
X017005Y005188D01*
X016898Y005090D02*
X011375Y005090D01*
X011375Y004991D02*
X016819Y004991D01*
X016778Y004892D02*
X011307Y004892D01*
X011209Y004794D02*
X016755Y004794D01*
X016755Y004695D02*
X011195Y004695D01*
X011195Y004597D02*
X016755Y004597D01*
X016755Y004498D02*
X011195Y004498D01*
X011195Y004400D02*
X016755Y004400D01*
X016755Y004301D02*
X011195Y004301D01*
X011195Y004203D02*
X016755Y004203D01*
X016755Y004104D02*
X011195Y004104D01*
X011195Y004006D02*
X016767Y004006D01*
X016808Y003907D02*
X011195Y003907D01*
X011195Y003809D02*
X016870Y003809D01*
X016969Y003710D02*
X011195Y003710D01*
X011195Y003611D02*
X017005Y003611D01*
X017005Y003513D02*
X011195Y003513D01*
X011195Y003414D02*
X017005Y003414D01*
X017005Y003316D02*
X011195Y003316D01*
X011195Y003217D02*
X017005Y003217D01*
X017005Y003119D02*
X011195Y003119D01*
X011205Y003020D02*
X017005Y003020D01*
X017005Y002922D02*
X011303Y002922D01*
X011375Y002823D02*
X017005Y002823D01*
X017005Y002725D02*
X011375Y002725D01*
X011375Y002626D02*
X017005Y002626D01*
X016896Y002527D02*
X011375Y002527D01*
X011344Y002429D02*
X016818Y002429D01*
X016777Y002330D02*
X011245Y002330D01*
X011146Y002232D02*
X016755Y002232D01*
X016755Y002133D02*
X010793Y002133D01*
X010695Y002035D02*
X016755Y002035D01*
X016755Y001936D02*
X010596Y001936D01*
X010435Y002626D02*
X010375Y002626D01*
X010375Y002725D02*
X010435Y002725D01*
X010435Y002823D02*
X010375Y002823D01*
X010303Y002922D02*
X010507Y002922D01*
X010606Y003020D02*
X010205Y003020D01*
X010106Y003119D02*
X010615Y003119D01*
X010615Y003217D02*
X005086Y003217D01*
X005009Y003185D02*
X005181Y003257D01*
X005314Y003389D01*
X005385Y003562D01*
X005385Y003749D01*
X005314Y003921D01*
X005181Y004054D01*
X005009Y004125D01*
X004302Y004125D01*
X004129Y004054D01*
X003997Y003921D01*
X003925Y003749D01*
X003925Y003562D01*
X003997Y003389D01*
X004129Y003257D01*
X004302Y003185D01*
X005009Y003185D01*
X005024Y003119D02*
X009704Y003119D01*
X009606Y003020D02*
X005215Y003020D01*
X005240Y003316D02*
X010615Y003316D01*
X010615Y003414D02*
X005324Y003414D01*
X005365Y003513D02*
X010615Y003513D01*
X010615Y003611D02*
X005385Y003611D01*
X005385Y003710D02*
X010615Y003710D01*
X010615Y003809D02*
X005360Y003809D01*
X005319Y003907D02*
X010615Y003907D01*
X010615Y004006D02*
X005229Y004006D01*
X005059Y004104D02*
X010615Y004104D01*
X010615Y004203D02*
X005051Y004203D01*
X005226Y004301D02*
X010615Y004301D01*
X010615Y004400D02*
X005318Y004400D01*
X005359Y004498D02*
X010615Y004498D01*
X009507Y002922D02*
X006269Y002922D01*
X006397Y002823D02*
X009435Y002823D01*
X009435Y002725D02*
X006496Y002725D01*
X006594Y002626D02*
X009435Y002626D01*
X009435Y002527D02*
X006693Y002527D01*
X006267Y002133D02*
X003915Y002133D01*
X003915Y002035D02*
X004237Y002035D01*
X004096Y001936D02*
X003915Y001936D01*
X003915Y001838D02*
X004028Y001838D01*
X003993Y001739D02*
X003939Y001739D01*
X003655Y001655D02*
X004155Y001155D01*
X003655Y001655D02*
X003655Y004155D01*
X004155Y004655D01*
X004655Y004655D01*
X004259Y004203D02*
X004070Y004203D01*
X003972Y004104D02*
X004251Y004104D01*
X004081Y004006D02*
X003915Y004006D01*
X003915Y003907D02*
X003991Y003907D01*
X003950Y003809D02*
X003915Y003809D01*
X003915Y003710D02*
X003925Y003710D01*
X003915Y003611D02*
X003925Y003611D01*
X003915Y003513D02*
X003945Y003513D01*
X003915Y003414D02*
X003986Y003414D01*
X003915Y003316D02*
X004070Y003316D01*
X003915Y003217D02*
X004224Y003217D01*
X004286Y003119D02*
X003915Y003119D01*
X003915Y003020D02*
X004095Y003020D01*
X003997Y002922D02*
X003915Y002922D01*
X003915Y002823D02*
X003956Y002823D01*
X003925Y002725D02*
X003915Y002725D01*
X003915Y002626D02*
X003925Y002626D01*
X003915Y002527D02*
X003939Y002527D01*
X003915Y002429D02*
X003980Y002429D01*
X003915Y002330D02*
X004055Y002330D01*
X004189Y002232D02*
X003915Y002232D01*
X003395Y002232D02*
X002121Y002232D01*
X002181Y002257D02*
X002314Y002389D01*
X002385Y002562D01*
X002385Y002749D01*
X002314Y002921D01*
X002181Y003054D01*
X002009Y003125D01*
X001302Y003125D01*
X001129Y003054D01*
X000997Y002921D01*
X000925Y002749D01*
X000925Y002562D01*
X000997Y002389D01*
X001129Y002257D01*
X001302Y002185D01*
X002009Y002185D01*
X002181Y002257D01*
X002255Y002330D02*
X003395Y002330D01*
X003395Y002429D02*
X002330Y002429D01*
X002371Y002527D02*
X003395Y002527D01*
X003395Y002626D02*
X002385Y002626D01*
X002385Y002725D02*
X003395Y002725D01*
X003395Y002823D02*
X002354Y002823D01*
X002313Y002922D02*
X003395Y002922D01*
X003395Y003020D02*
X002215Y003020D01*
X002024Y003119D02*
X003395Y003119D01*
X003395Y003217D02*
X002086Y003217D01*
X002009Y003185D02*
X002181Y003257D01*
X002314Y003389D01*
X002385Y003562D01*
X002385Y003749D01*
X002314Y003921D01*
X002181Y004054D01*
X002009Y004125D01*
X001302Y004125D01*
X001129Y004054D01*
X000997Y003921D01*
X000925Y003749D01*
X000925Y003562D01*
X000997Y003389D01*
X001129Y003257D01*
X001302Y003185D01*
X002009Y003185D01*
X002240Y003316D02*
X003395Y003316D01*
X003395Y003414D02*
X002324Y003414D01*
X002365Y003513D02*
X003395Y003513D01*
X003395Y003611D02*
X002385Y003611D01*
X002385Y003710D02*
X003395Y003710D01*
X003395Y003809D02*
X002360Y003809D01*
X002319Y003907D02*
X003395Y003907D01*
X003395Y004006D02*
X002229Y004006D01*
X002059Y004104D02*
X003395Y004104D01*
X003395Y004203D02*
X002051Y004203D01*
X002226Y004301D02*
X003434Y004301D01*
X003532Y004400D02*
X002318Y004400D01*
X002359Y004498D02*
X003631Y004498D01*
X003729Y004597D02*
X002385Y004597D01*
X002385Y004695D02*
X003828Y004695D01*
X003926Y004794D02*
X002366Y004794D01*
X002326Y004892D02*
X003985Y004892D01*
X003935Y004802D02*
X003935Y004802D01*
X004066Y004991D02*
X002244Y004991D01*
X002094Y005090D02*
X004216Y005090D01*
X004049Y005385D02*
X001945Y005385D01*
X001945Y005287D02*
X007613Y005287D01*
X007712Y005188D02*
X001945Y005188D01*
X001945Y005484D02*
X003916Y005484D01*
X003818Y005582D02*
X001945Y005582D01*
X001945Y005681D02*
X003719Y005681D01*
X003621Y005779D02*
X001945Y005779D01*
X001945Y005878D02*
X003522Y005878D01*
X003419Y005976D02*
X001945Y005976D01*
X001945Y006075D02*
X003321Y006075D01*
X003222Y006174D02*
X001945Y006174D01*
X001945Y006272D02*
X003185Y006272D01*
X003185Y006371D02*
X001945Y006371D01*
X001945Y006469D02*
X003185Y006469D01*
X003185Y006568D02*
X001945Y006568D01*
X001945Y006666D02*
X003252Y006666D01*
X003350Y006765D02*
X001945Y006765D01*
X001945Y006863D02*
X003449Y006863D01*
X003861Y006863D02*
X004449Y006863D01*
X004350Y006765D02*
X003960Y006765D01*
X004059Y006666D02*
X004252Y006666D01*
X004185Y006568D02*
X004125Y006568D01*
X004125Y006469D02*
X004185Y006469D01*
X004185Y006371D02*
X004125Y006371D01*
X004125Y006272D02*
X004185Y006272D01*
X004222Y006174D02*
X004088Y006174D01*
X004145Y006075D02*
X004321Y006075D01*
X004244Y005976D02*
X004419Y005976D01*
X005434Y006962D02*
X001945Y006962D01*
X001945Y007060D02*
X005335Y007060D01*
X005237Y007159D02*
X001945Y007159D01*
X001945Y007258D02*
X005185Y007258D01*
X005185Y007356D02*
X001945Y007356D01*
X001945Y007455D02*
X005185Y007455D01*
X005097Y007553D02*
X001945Y007553D01*
X001945Y007652D02*
X004998Y007652D01*
X004900Y007750D02*
X001945Y007750D01*
X001945Y007849D02*
X004801Y007849D01*
X004703Y007947D02*
X001945Y007947D01*
X001945Y008046D02*
X004604Y008046D01*
X004506Y008144D02*
X001945Y008144D01*
X001945Y008243D02*
X004407Y008243D01*
X004309Y008341D02*
X003921Y008341D01*
X004020Y008440D02*
X004210Y008440D01*
X004112Y008539D02*
X004065Y008539D01*
X003685Y008539D02*
X003625Y008539D01*
X003625Y008625D02*
X003625Y008245D01*
X003485Y008245D01*
X003245Y008485D01*
X003245Y008625D01*
X003625Y008625D01*
X003625Y008637D02*
X002125Y008637D01*
X002125Y008539D02*
X003245Y008539D01*
X003290Y008440D02*
X002105Y008440D01*
X002006Y008341D02*
X003389Y008341D01*
X003625Y008341D02*
X003685Y008341D01*
X003685Y008440D02*
X003625Y008440D01*
X003245Y008736D02*
X002125Y008736D01*
X002125Y008834D02*
X003254Y008834D01*
X003353Y008933D02*
X002042Y008933D01*
X001945Y009031D02*
X003451Y009031D01*
X003520Y009130D02*
X001945Y009130D01*
X001945Y009228D02*
X003422Y009228D01*
X003374Y009327D02*
X001945Y009327D01*
X001945Y009425D02*
X003365Y009425D01*
X003365Y009524D02*
X001945Y009524D01*
X001945Y009623D02*
X003365Y009623D01*
X003365Y009721D02*
X001945Y009721D01*
X001945Y009820D02*
X003365Y009820D01*
X003365Y009918D02*
X001945Y009918D01*
X001945Y010017D02*
X003365Y010017D01*
X003365Y010115D02*
X001945Y010115D01*
X001945Y010214D02*
X003365Y010214D01*
X003365Y010312D02*
X001945Y010312D01*
X001945Y010411D02*
X003365Y010411D01*
X003365Y010509D02*
X001945Y010509D01*
X001945Y010608D02*
X003365Y010608D01*
X003365Y010707D02*
X001945Y010707D01*
X001945Y010805D02*
X003365Y010805D01*
X003365Y010904D02*
X001945Y010904D01*
X001945Y011002D02*
X003365Y011002D01*
X003365Y011101D02*
X001945Y011101D01*
X001945Y011199D02*
X003365Y011199D01*
X003365Y011298D02*
X001945Y011298D01*
X001945Y011396D02*
X003365Y011396D01*
X003365Y011495D02*
X001945Y011495D01*
X001945Y011593D02*
X003365Y011593D01*
X003365Y011692D02*
X001945Y011692D01*
X001945Y011791D02*
X003365Y011791D01*
X003365Y011889D02*
X001945Y011889D01*
X001945Y011988D02*
X003365Y011988D01*
X003365Y012086D02*
X001945Y012086D01*
X001945Y012185D02*
X003365Y012185D01*
X003365Y012283D02*
X001945Y012283D01*
X001945Y012382D02*
X003365Y012382D01*
X003365Y012480D02*
X001945Y012480D01*
X001945Y012579D02*
X003365Y012579D01*
X003365Y012677D02*
X001945Y012677D01*
X001945Y012776D02*
X003365Y012776D01*
X003365Y012874D02*
X001945Y012874D01*
X001945Y012973D02*
X003365Y012973D01*
X003324Y013072D02*
X001945Y013072D01*
X001945Y013170D02*
X003225Y013170D01*
X003185Y013269D02*
X001945Y013269D01*
X001945Y013367D02*
X003185Y013367D01*
X003185Y013466D02*
X001945Y013466D01*
X001945Y013564D02*
X003185Y013564D01*
X003248Y013663D02*
X001945Y013663D01*
X001945Y013761D02*
X003347Y013761D01*
X003445Y013860D02*
X001945Y013860D01*
X001945Y013958D02*
X006365Y013958D01*
X006365Y013860D02*
X004865Y013860D01*
X004850Y013875D02*
X004460Y013875D01*
X004185Y013600D01*
X004185Y013210D01*
X004460Y012935D01*
X004850Y012935D01*
X005125Y013210D01*
X005125Y013600D01*
X004850Y013875D01*
X004963Y013761D02*
X006365Y013761D01*
X006365Y013663D02*
X005062Y013663D01*
X005125Y013564D02*
X006365Y013564D01*
X006365Y013466D02*
X005125Y013466D01*
X005125Y013367D02*
X006365Y013367D01*
X006365Y013269D02*
X005125Y013269D01*
X005085Y013170D02*
X006365Y013170D01*
X006365Y013072D02*
X004986Y013072D01*
X004888Y012973D02*
X006365Y012973D01*
X006365Y012874D02*
X005850Y012874D01*
X005850Y012875D02*
X005460Y012875D01*
X005185Y012600D01*
X005185Y012210D01*
X005460Y011935D01*
X005850Y011935D01*
X006125Y012210D01*
X006125Y012600D01*
X005850Y012875D01*
X005949Y012776D02*
X006361Y012776D01*
X006263Y012677D02*
X006047Y012677D01*
X006125Y012579D02*
X006185Y012579D01*
X006185Y012480D02*
X006125Y012480D01*
X006125Y012382D02*
X006185Y012382D01*
X006185Y012283D02*
X006125Y012283D01*
X006099Y012185D02*
X006211Y012185D01*
X006309Y012086D02*
X006001Y012086D01*
X005902Y011988D02*
X006365Y011988D01*
X006365Y011889D02*
X003945Y011889D01*
X003945Y011791D02*
X006365Y011791D01*
X006365Y011692D02*
X003945Y011692D01*
X003945Y011593D02*
X006365Y011593D01*
X006365Y011495D02*
X003945Y011495D01*
X003945Y011396D02*
X006365Y011396D01*
X006365Y011298D02*
X003945Y011298D01*
X003945Y011199D02*
X006365Y011199D01*
X006365Y011101D02*
X003945Y011101D01*
X003945Y011002D02*
X006365Y011002D01*
X006365Y010904D02*
X003945Y010904D01*
X003945Y010805D02*
X006365Y010805D01*
X006365Y010707D02*
X003945Y010707D01*
X003945Y010608D02*
X006365Y010608D01*
X006365Y010509D02*
X003945Y010509D01*
X003945Y010411D02*
X006365Y010411D01*
X006365Y010312D02*
X003945Y010312D01*
X003945Y010214D02*
X006365Y010214D01*
X006365Y010115D02*
X003945Y010115D01*
X003945Y010017D02*
X006365Y010017D01*
X006365Y009918D02*
X003945Y009918D01*
X003945Y009820D02*
X006365Y009820D01*
X006365Y009721D02*
X003945Y009721D01*
X003945Y009623D02*
X006365Y009623D01*
X006365Y009524D02*
X003946Y009524D01*
X004045Y009425D02*
X006365Y009425D01*
X006365Y009327D02*
X004143Y009327D01*
X004242Y009228D02*
X006365Y009228D01*
X006365Y009130D02*
X004340Y009130D01*
X003945Y011988D02*
X005408Y011988D01*
X005309Y012086D02*
X003945Y012086D01*
X003945Y012185D02*
X005211Y012185D01*
X005185Y012283D02*
X003945Y012283D01*
X003945Y012382D02*
X005185Y012382D01*
X005185Y012480D02*
X003945Y012480D01*
X003945Y012579D02*
X005185Y012579D01*
X005263Y012677D02*
X003945Y012677D01*
X003945Y012776D02*
X005361Y012776D01*
X005460Y012874D02*
X003945Y012874D01*
X003945Y012973D02*
X004423Y012973D01*
X004324Y013072D02*
X003986Y013072D01*
X004085Y013170D02*
X004225Y013170D01*
X004185Y013269D02*
X004125Y013269D01*
X004125Y013367D02*
X004185Y013367D01*
X004185Y013466D02*
X004125Y013466D01*
X004125Y013564D02*
X004185Y013564D01*
X004248Y013663D02*
X004062Y013663D01*
X003963Y013761D02*
X004347Y013761D01*
X004445Y013860D02*
X003865Y013860D01*
X002347Y015437D02*
X006365Y015437D01*
X006365Y015535D02*
X002445Y015535D01*
X002544Y015634D02*
X006365Y015634D01*
X006373Y015732D02*
X002642Y015732D01*
X002741Y015831D02*
X006421Y015831D01*
X006519Y015929D02*
X002839Y015929D01*
X002938Y016028D02*
X006618Y016028D01*
X006716Y016126D02*
X003037Y016126D01*
X003135Y016225D02*
X006815Y016225D01*
X006913Y016324D02*
X003234Y016324D01*
X003332Y016422D02*
X007012Y016422D01*
X007110Y016521D02*
X003431Y016521D01*
X003529Y016619D02*
X007209Y016619D01*
X007308Y016718D02*
X003628Y016718D01*
X003726Y016816D02*
X007406Y016816D01*
X007505Y016915D02*
X003825Y016915D01*
X003923Y017013D02*
X007603Y017013D01*
X007702Y017112D02*
X004022Y017112D01*
X004121Y017210D02*
X009546Y017210D01*
X009644Y017309D02*
X004219Y017309D01*
X004318Y017407D02*
X008574Y017407D01*
X008436Y017506D02*
X004416Y017506D01*
X004515Y017605D02*
X008338Y017605D01*
X008239Y017703D02*
X004613Y017703D01*
X004712Y017802D02*
X008141Y017802D01*
X008042Y017900D02*
X004810Y017900D01*
X004909Y017999D02*
X007944Y017999D01*
X007845Y018097D02*
X005007Y018097D01*
X005106Y018196D02*
X007747Y018196D01*
X007648Y018294D02*
X005204Y018294D01*
X005303Y018393D02*
X007550Y018393D01*
X007451Y018491D02*
X005402Y018491D01*
X005500Y018590D02*
X007353Y018590D01*
X006870Y018689D02*
X005599Y018689D01*
X005697Y018787D02*
X006759Y018787D01*
X005468Y019378D02*
X000907Y019378D01*
X000875Y019280D02*
X005370Y019280D01*
X005271Y019181D02*
X000867Y019181D01*
X000865Y019083D02*
X005173Y019083D01*
X005074Y018984D02*
X000865Y018984D01*
X000865Y018886D02*
X004976Y018886D01*
X004877Y018787D02*
X002913Y018787D01*
X002791Y018838D02*
X002519Y018838D01*
X002269Y018734D01*
X002077Y018542D01*
X001973Y018291D01*
X001973Y018019D01*
X002077Y017769D01*
X002269Y017577D01*
X002519Y017473D01*
X002791Y017473D01*
X003042Y017577D01*
X003234Y017769D01*
X003338Y018019D01*
X003338Y018291D01*
X003234Y018542D01*
X003042Y018734D01*
X002791Y018838D01*
X003087Y018689D02*
X004778Y018689D01*
X004680Y018590D02*
X003185Y018590D01*
X003254Y018491D02*
X004581Y018491D01*
X004483Y018393D02*
X003295Y018393D01*
X003336Y018294D02*
X004384Y018294D01*
X004286Y018196D02*
X003338Y018196D01*
X003338Y018097D02*
X004187Y018097D01*
X004089Y017999D02*
X003329Y017999D01*
X003288Y017900D02*
X003990Y017900D01*
X003892Y017802D02*
X003247Y017802D01*
X003168Y017703D02*
X003793Y017703D01*
X003694Y017605D02*
X003070Y017605D01*
X002871Y017506D02*
X003596Y017506D01*
X003497Y017407D02*
X000865Y017407D01*
X000865Y017309D02*
X003399Y017309D01*
X003300Y017210D02*
X000865Y017210D01*
X000865Y017112D02*
X003202Y017112D01*
X003103Y017013D02*
X000865Y017013D01*
X000865Y016915D02*
X003005Y016915D01*
X002906Y016816D02*
X000865Y016816D01*
X000865Y016718D02*
X002808Y016718D01*
X002709Y016619D02*
X000865Y016619D01*
X000865Y016521D02*
X002610Y016521D01*
X002512Y016422D02*
X000865Y016422D01*
X000865Y016324D02*
X002413Y016324D01*
X002315Y016225D02*
X000865Y016225D01*
X000865Y016126D02*
X002216Y016126D01*
X002118Y016028D02*
X000865Y016028D01*
X000865Y015929D02*
X002019Y015929D01*
X001921Y015831D02*
X000865Y015831D01*
X000865Y015732D02*
X001822Y015732D01*
X001724Y015634D02*
X000865Y015634D01*
X000865Y015535D02*
X001625Y015535D01*
X001526Y015437D02*
X000865Y015437D01*
X000865Y015338D02*
X001428Y015338D01*
X001376Y015240D02*
X000865Y015240D01*
X000865Y015141D02*
X001365Y015141D01*
X001365Y015042D02*
X000865Y015042D01*
X000865Y014944D02*
X001365Y014944D01*
X001365Y014845D02*
X000865Y014845D01*
X000865Y014747D02*
X001365Y014747D01*
X001365Y014648D02*
X000865Y014648D01*
X000865Y014550D02*
X001365Y014550D01*
X001365Y014451D02*
X000865Y014451D01*
X000865Y014353D02*
X001365Y014353D01*
X001365Y014254D02*
X000865Y014254D01*
X000865Y014156D02*
X001365Y014156D01*
X001365Y014057D02*
X000865Y014057D01*
X000865Y013958D02*
X001365Y013958D01*
X001365Y013860D02*
X000865Y013860D01*
X000865Y013761D02*
X001365Y013761D01*
X001365Y013663D02*
X000865Y013663D01*
X000865Y013564D02*
X001365Y013564D01*
X001365Y013466D02*
X000865Y013466D01*
X000865Y013367D02*
X001365Y013367D01*
X001365Y013269D02*
X000865Y013269D01*
X000865Y013170D02*
X001365Y013170D01*
X001365Y013072D02*
X000865Y013072D01*
X000865Y012973D02*
X001365Y012973D01*
X001365Y012874D02*
X000865Y012874D01*
X000865Y012776D02*
X001365Y012776D01*
X001365Y012677D02*
X000865Y012677D01*
X000865Y012579D02*
X001365Y012579D01*
X001365Y012480D02*
X000865Y012480D01*
X000865Y012382D02*
X001365Y012382D01*
X001365Y012283D02*
X000865Y012283D01*
X000865Y012185D02*
X001365Y012185D01*
X001365Y012086D02*
X000865Y012086D01*
X000865Y011988D02*
X001365Y011988D01*
X001365Y011889D02*
X000865Y011889D01*
X000865Y011791D02*
X001365Y011791D01*
X001365Y011692D02*
X000865Y011692D01*
X000865Y011593D02*
X001365Y011593D01*
X001365Y011495D02*
X000865Y011495D01*
X000865Y011396D02*
X001365Y011396D01*
X001365Y011298D02*
X000865Y011298D01*
X000865Y011199D02*
X001365Y011199D01*
X001365Y011101D02*
X000865Y011101D01*
X000865Y011002D02*
X001365Y011002D01*
X001365Y010904D02*
X000865Y010904D01*
X000865Y010805D02*
X001365Y010805D01*
X001365Y010707D02*
X000865Y010707D01*
X000865Y010608D02*
X001365Y010608D01*
X001365Y010509D02*
X000865Y010509D01*
X000865Y010411D02*
X001365Y010411D01*
X001365Y010312D02*
X000865Y010312D01*
X000865Y010214D02*
X001365Y010214D01*
X001365Y010115D02*
X000865Y010115D01*
X000865Y010017D02*
X001365Y010017D01*
X001365Y009918D02*
X000865Y009918D01*
X000865Y009820D02*
X001365Y009820D01*
X001365Y009721D02*
X000865Y009721D01*
X000865Y009623D02*
X001365Y009623D01*
X001365Y009524D02*
X000865Y009524D01*
X000865Y009425D02*
X001365Y009425D01*
X001365Y009327D02*
X000865Y009327D01*
X000865Y009228D02*
X001365Y009228D01*
X001365Y009130D02*
X000865Y009130D01*
X000865Y009031D02*
X001365Y009031D01*
X001268Y008933D02*
X000865Y008933D01*
X000865Y008834D02*
X001185Y008834D01*
X001185Y008736D02*
X000865Y008736D01*
X000865Y008637D02*
X001185Y008637D01*
X001185Y008539D02*
X000865Y008539D01*
X000865Y008440D02*
X001206Y008440D01*
X001304Y008341D02*
X000865Y008341D01*
X000865Y008243D02*
X001365Y008243D01*
X001365Y008144D02*
X000865Y008144D01*
X000865Y008046D02*
X001365Y008046D01*
X001365Y007947D02*
X000865Y007947D01*
X000865Y007849D02*
X001365Y007849D01*
X001365Y007750D02*
X000865Y007750D01*
X000865Y007652D02*
X001365Y007652D01*
X001365Y007553D02*
X000865Y007553D01*
X000865Y007455D02*
X001365Y007455D01*
X001365Y007356D02*
X000865Y007356D01*
X000865Y007258D02*
X001365Y007258D01*
X001365Y007159D02*
X000865Y007159D01*
X000865Y007060D02*
X001365Y007060D01*
X001365Y006962D02*
X000865Y006962D01*
X000865Y006863D02*
X001365Y006863D01*
X001365Y006765D02*
X000865Y006765D01*
X000865Y006666D02*
X001365Y006666D01*
X001365Y006568D02*
X000865Y006568D01*
X000865Y006469D02*
X001365Y006469D01*
X001365Y006371D02*
X000865Y006371D01*
X000865Y006272D02*
X001365Y006272D01*
X001365Y006174D02*
X000865Y006174D01*
X000865Y006075D02*
X001365Y006075D01*
X001365Y005976D02*
X000865Y005976D01*
X000865Y005878D02*
X001365Y005878D01*
X001365Y005779D02*
X000865Y005779D01*
X000865Y005681D02*
X001365Y005681D01*
X001365Y005582D02*
X000865Y005582D01*
X000865Y005484D02*
X001365Y005484D01*
X001365Y005385D02*
X000865Y005385D01*
X000865Y005287D02*
X001365Y005287D01*
X001365Y005188D02*
X000865Y005188D01*
X000865Y005090D02*
X001216Y005090D01*
X001066Y004991D02*
X000865Y004991D01*
X000865Y004892D02*
X000985Y004892D01*
X000944Y004794D02*
X000865Y004794D01*
X000865Y004695D02*
X000925Y004695D01*
X000925Y004597D02*
X000865Y004597D01*
X000865Y004498D02*
X000951Y004498D01*
X000992Y004400D02*
X000865Y004400D01*
X000865Y004301D02*
X001084Y004301D01*
X001259Y004203D02*
X000865Y004203D01*
X000865Y004104D02*
X001251Y004104D01*
X001081Y004006D02*
X000865Y004006D01*
X000865Y003907D02*
X000991Y003907D01*
X000950Y003809D02*
X000865Y003809D01*
X000865Y003710D02*
X000925Y003710D01*
X000925Y003611D02*
X000865Y003611D01*
X000865Y003513D02*
X000945Y003513D01*
X000986Y003414D02*
X000865Y003414D01*
X000865Y003316D02*
X001070Y003316D01*
X001224Y003217D02*
X000865Y003217D01*
X000865Y003119D02*
X001286Y003119D01*
X001095Y003020D02*
X000865Y003020D01*
X000865Y002922D02*
X000997Y002922D01*
X000956Y002823D02*
X000865Y002823D01*
X000865Y002725D02*
X000925Y002725D01*
X000925Y002626D02*
X000865Y002626D01*
X000865Y002527D02*
X000939Y002527D01*
X000980Y002429D02*
X000865Y002429D01*
X000865Y002330D02*
X001055Y002330D01*
X001189Y002232D02*
X000865Y002232D01*
X000988Y001246D02*
X001154Y001246D01*
X004625Y001739D02*
X004685Y001739D01*
X004685Y001685D02*
X004685Y002065D01*
X004947Y002065D01*
X005011Y002055D01*
X005072Y002035D01*
X005130Y002006D01*
X005182Y001968D01*
X005228Y001922D01*
X005266Y001870D01*
X005295Y001812D01*
X005315Y001751D01*
X005325Y001687D01*
X005325Y001685D01*
X004685Y001685D01*
X004685Y001641D02*
X016663Y001641D01*
X016755Y001739D02*
X005317Y001739D01*
X005282Y001838D02*
X016755Y001838D01*
X016564Y001542D02*
X005309Y001542D01*
X005267Y001443D02*
X016466Y001443D01*
X016807Y001049D02*
X019649Y001049D01*
X019751Y001148D02*
X019186Y001148D01*
X019218Y001158D02*
X019281Y001190D01*
X019338Y001232D01*
X019388Y001282D01*
X019430Y001339D01*
X019462Y001402D01*
X019484Y001470D01*
X019495Y001540D01*
X019495Y001825D01*
X019095Y001825D01*
X019095Y001127D01*
X019150Y001136D01*
X019218Y001158D01*
X019095Y001148D02*
X018995Y001148D01*
X018995Y001127D02*
X018995Y001825D01*
X019095Y001825D01*
X019095Y001925D01*
X019495Y001925D01*
X019495Y002211D01*
X019484Y002280D01*
X019462Y002348D01*
X019430Y002411D01*
X019388Y002468D01*
X019338Y002518D01*
X019281Y002560D01*
X019218Y002592D01*
X019150Y002614D01*
X019095Y002623D01*
X019095Y001925D01*
X018995Y001925D01*
X018995Y001825D01*
X018595Y001825D01*
X018595Y001540D01*
X018606Y001470D01*
X018628Y001402D01*
X018660Y001339D01*
X018702Y001282D01*
X018752Y001232D01*
X018809Y001190D01*
X018872Y001158D01*
X018940Y001136D01*
X018995Y001127D01*
X018904Y001148D02*
X017559Y001148D01*
X017658Y001246D02*
X018737Y001246D01*
X018657Y001345D02*
X017722Y001345D01*
X017763Y001443D02*
X018615Y001443D01*
X018595Y001542D02*
X017775Y001542D01*
X017775Y001641D02*
X018595Y001641D01*
X018595Y001739D02*
X017775Y001739D01*
X017775Y001838D02*
X018995Y001838D01*
X018995Y001925D02*
X018595Y001925D01*
X018595Y002211D01*
X018606Y002280D01*
X018628Y002348D01*
X018660Y002411D01*
X018702Y002468D01*
X018752Y002518D01*
X018809Y002560D01*
X018872Y002592D01*
X018940Y002614D01*
X018995Y002623D01*
X018995Y001925D01*
X018995Y001936D02*
X019095Y001936D01*
X019095Y001838D02*
X019945Y001838D01*
X019945Y001936D02*
X019495Y001936D01*
X019495Y002035D02*
X019945Y002035D01*
X019945Y002133D02*
X019495Y002133D01*
X019492Y002232D02*
X019945Y002232D01*
X019945Y002330D02*
X019468Y002330D01*
X019417Y002429D02*
X019945Y002429D01*
X019945Y002527D02*
X019326Y002527D01*
X019095Y002527D02*
X018995Y002527D01*
X018995Y002429D02*
X019095Y002429D01*
X019095Y002330D02*
X018995Y002330D01*
X018995Y002232D02*
X019095Y002232D01*
X019095Y002133D02*
X018995Y002133D01*
X018995Y002035D02*
X019095Y002035D01*
X019095Y001739D02*
X018995Y001739D01*
X018995Y001641D02*
X019095Y001641D01*
X019095Y001542D02*
X018995Y001542D01*
X018995Y001443D02*
X019095Y001443D01*
X019095Y001345D02*
X018995Y001345D01*
X018995Y001246D02*
X019095Y001246D01*
X019353Y001246D02*
X019823Y001246D01*
X019875Y001345D02*
X019433Y001345D01*
X019475Y001443D02*
X019907Y001443D01*
X019936Y001542D02*
X019495Y001542D01*
X019495Y001641D02*
X019944Y001641D01*
X019945Y001739D02*
X019495Y001739D01*
X019512Y000951D02*
X016708Y000951D01*
X016906Y001148D02*
X016971Y001148D01*
X017775Y001936D02*
X018595Y001936D01*
X018595Y002035D02*
X017775Y002035D01*
X017775Y002133D02*
X018595Y002133D01*
X018599Y002232D02*
X017775Y002232D01*
X017753Y002330D02*
X018622Y002330D01*
X018673Y002429D02*
X017712Y002429D01*
X017634Y002527D02*
X018764Y002527D01*
X018940Y003696D02*
X018872Y003718D01*
X018809Y003750D01*
X018752Y003792D01*
X018702Y003842D01*
X018660Y003899D01*
X018628Y003962D01*
X018606Y004030D01*
X018595Y004100D01*
X018595Y004385D01*
X018995Y004385D01*
X019095Y004385D01*
X019095Y003687D01*
X019150Y003696D01*
X019218Y003718D01*
X019281Y003750D01*
X019338Y003792D01*
X019388Y003842D01*
X019430Y003899D01*
X019462Y003962D01*
X019484Y004030D01*
X019495Y004100D01*
X019495Y004385D01*
X019095Y004385D01*
X019095Y004485D01*
X019495Y004485D01*
X019495Y004771D01*
X019484Y004840D01*
X019462Y004908D01*
X019430Y004971D01*
X019388Y005028D01*
X019338Y005078D01*
X019281Y005120D01*
X019218Y005152D01*
X019150Y005174D01*
X019095Y005183D01*
X019095Y004485D01*
X018995Y004485D01*
X018995Y004385D01*
X018995Y003687D01*
X018940Y003696D01*
X018897Y003710D02*
X017561Y003710D01*
X017525Y003611D02*
X019945Y003611D01*
X019945Y003513D02*
X017525Y003513D01*
X017525Y003414D02*
X019945Y003414D01*
X019945Y003316D02*
X017525Y003316D01*
X017525Y003217D02*
X019945Y003217D01*
X019945Y003119D02*
X017525Y003119D01*
X017525Y003020D02*
X019945Y003020D01*
X019945Y002922D02*
X017525Y002922D01*
X017525Y002823D02*
X019945Y002823D01*
X019945Y002725D02*
X017525Y002725D01*
X017525Y002626D02*
X019945Y002626D01*
X019945Y003710D02*
X019193Y003710D01*
X019095Y003710D02*
X018995Y003710D01*
X018995Y003809D02*
X019095Y003809D01*
X019095Y003907D02*
X018995Y003907D01*
X018995Y004006D02*
X019095Y004006D01*
X019095Y004104D02*
X018995Y004104D01*
X018995Y004203D02*
X019095Y004203D01*
X019095Y004301D02*
X018995Y004301D01*
X018995Y004400D02*
X017775Y004400D01*
X017775Y004498D02*
X018595Y004498D01*
X018595Y004485D02*
X018995Y004485D01*
X018995Y005183D01*
X018940Y005174D01*
X018872Y005152D01*
X018809Y005120D01*
X018752Y005078D01*
X018702Y005028D01*
X018660Y004971D01*
X018628Y004908D01*
X018606Y004840D01*
X018595Y004771D01*
X018595Y004485D01*
X018595Y004597D02*
X017775Y004597D01*
X017775Y004695D02*
X018595Y004695D01*
X018599Y004794D02*
X017775Y004794D01*
X017752Y004892D02*
X018623Y004892D01*
X018675Y004991D02*
X017711Y004991D01*
X017632Y005090D02*
X018767Y005090D01*
X018995Y005090D02*
X019095Y005090D01*
X019095Y004991D02*
X018995Y004991D01*
X018995Y004892D02*
X019095Y004892D01*
X019095Y004794D02*
X018995Y004794D01*
X018995Y004695D02*
X019095Y004695D01*
X019095Y004597D02*
X018995Y004597D01*
X018995Y004498D02*
X019095Y004498D01*
X019095Y004400D02*
X019945Y004400D01*
X019945Y004498D02*
X019495Y004498D01*
X019495Y004597D02*
X019945Y004597D01*
X019945Y004695D02*
X019495Y004695D01*
X019491Y004794D02*
X019945Y004794D01*
X019945Y004892D02*
X019467Y004892D01*
X019415Y004991D02*
X019945Y004991D01*
X019945Y005090D02*
X019323Y005090D01*
X019945Y005188D02*
X017556Y005188D01*
X017654Y005287D02*
X019945Y005287D01*
X019945Y005385D02*
X017753Y005385D01*
X017851Y005484D02*
X019945Y005484D01*
X019945Y005582D02*
X017950Y005582D01*
X018049Y005681D02*
X019945Y005681D01*
X019945Y005779D02*
X019444Y005779D01*
X018866Y005779D02*
X018147Y005779D01*
X018246Y005878D02*
X018768Y005878D01*
X019945Y006765D02*
X017460Y006765D01*
X017361Y006863D02*
X019945Y006863D01*
X019945Y004301D02*
X019495Y004301D01*
X019495Y004203D02*
X019945Y004203D01*
X019945Y004104D02*
X019495Y004104D01*
X019476Y004006D02*
X019945Y004006D01*
X019945Y003907D02*
X019434Y003907D01*
X019355Y003809D02*
X019945Y003809D01*
X018735Y003809D02*
X017660Y003809D01*
X017723Y003907D02*
X018656Y003907D01*
X018614Y004006D02*
X017763Y004006D01*
X017775Y004104D02*
X018595Y004104D01*
X018595Y004203D02*
X017775Y004203D01*
X017775Y004301D02*
X018595Y004301D01*
X016919Y005976D02*
X016391Y005976D01*
X016490Y006075D02*
X016821Y006075D01*
X016722Y006174D02*
X016588Y006174D01*
X016625Y006272D02*
X016685Y006272D01*
X016685Y006371D02*
X016625Y006371D01*
X016625Y006469D02*
X016685Y006469D01*
X016685Y006568D02*
X016625Y006568D01*
X016559Y006666D02*
X016752Y006666D01*
X016850Y006765D02*
X016460Y006765D01*
X016445Y006863D02*
X016949Y006863D01*
X014934Y006962D02*
X014377Y006962D01*
X014475Y007060D02*
X014835Y007060D01*
X014737Y007159D02*
X014574Y007159D01*
X014625Y007258D02*
X014685Y007258D01*
X014685Y007356D02*
X014625Y007356D01*
X014625Y007455D02*
X014685Y007455D01*
X014685Y007553D02*
X014625Y007553D01*
X014573Y007652D02*
X014737Y007652D01*
X014836Y007750D02*
X014475Y007750D01*
X014445Y007849D02*
X014934Y007849D01*
X015672Y009228D02*
X013742Y009228D01*
X013643Y009327D02*
X015573Y009327D01*
X015475Y009425D02*
X013545Y009425D01*
X013446Y009524D02*
X015376Y009524D01*
X015278Y009623D02*
X013348Y009623D01*
X013249Y009721D02*
X015179Y009721D01*
X015080Y009820D02*
X013151Y009820D01*
X013052Y009918D02*
X014982Y009918D01*
X014883Y010017D02*
X012954Y010017D01*
X012855Y010115D02*
X014785Y010115D01*
X014686Y010214D02*
X012756Y010214D01*
X012658Y010312D02*
X014588Y010312D01*
X014489Y010411D02*
X012559Y010411D01*
X012461Y010509D02*
X014391Y010509D01*
X014445Y011988D02*
X014908Y011988D01*
X014809Y012086D02*
X014501Y012086D01*
X014599Y012185D02*
X014711Y012185D01*
X014685Y012283D02*
X014625Y012283D01*
X014625Y012382D02*
X014685Y012382D01*
X014685Y012480D02*
X014625Y012480D01*
X014625Y012579D02*
X014685Y012579D01*
X014763Y012677D02*
X014547Y012677D01*
X014449Y012776D02*
X014861Y012776D01*
X014960Y012874D02*
X014350Y012874D01*
X016388Y012973D02*
X016923Y012973D01*
X016824Y013072D02*
X016486Y013072D01*
X016585Y013170D02*
X016725Y013170D01*
X016685Y013269D02*
X016625Y013269D01*
X016625Y013367D02*
X016685Y013367D01*
X016685Y013466D02*
X016625Y013466D01*
X016625Y013564D02*
X016685Y013564D01*
X016748Y013663D02*
X016562Y013663D01*
X016463Y013761D02*
X016847Y013761D01*
X016945Y013860D02*
X016365Y013860D01*
X017203Y015240D02*
X006945Y015240D01*
X006945Y015338D02*
X017104Y015338D01*
X017006Y015437D02*
X006945Y015437D01*
X006945Y015535D02*
X016907Y015535D01*
X016809Y015634D02*
X007044Y015634D01*
X007142Y015732D02*
X016710Y015732D01*
X016612Y015831D02*
X007241Y015831D01*
X007339Y015929D02*
X016513Y015929D01*
X016415Y016028D02*
X007438Y016028D01*
X007537Y016126D02*
X016316Y016126D01*
X016218Y016225D02*
X007635Y016225D01*
X007734Y016324D02*
X016119Y016324D01*
X016020Y016422D02*
X007832Y016422D01*
X007931Y016521D02*
X009625Y016521D01*
X010185Y016521D02*
X010625Y016521D01*
X010710Y016435D02*
X010435Y016710D01*
X010435Y017100D01*
X010710Y017375D01*
X011100Y017375D01*
X011375Y017100D01*
X011375Y016710D01*
X011100Y016435D01*
X010710Y016435D01*
X010526Y016619D02*
X010284Y016619D01*
X010375Y016718D02*
X010435Y016718D01*
X010435Y016816D02*
X010375Y016816D01*
X010375Y016915D02*
X010435Y016915D01*
X010435Y017013D02*
X010375Y017013D01*
X010363Y017112D02*
X010447Y017112D01*
X010546Y017210D02*
X010264Y017210D01*
X010166Y017309D02*
X010644Y017309D01*
X011166Y017309D02*
X015134Y017309D01*
X015232Y017210D02*
X011264Y017210D01*
X011363Y017112D02*
X015331Y017112D01*
X015429Y017013D02*
X011375Y017013D01*
X011375Y016915D02*
X015528Y016915D01*
X015626Y016816D02*
X011375Y016816D01*
X011375Y016718D02*
X015725Y016718D01*
X015823Y016619D02*
X011284Y016619D01*
X011185Y016521D02*
X015922Y016521D01*
X013704Y018787D02*
X013607Y018787D01*
X013607Y018886D02*
X013704Y018886D01*
X013704Y018984D02*
X013607Y018984D01*
X013607Y019083D02*
X013704Y019083D01*
X013704Y019280D02*
X013607Y019280D01*
X013607Y019378D02*
X013704Y019378D01*
X013704Y019477D02*
X013607Y019477D01*
X013607Y019575D02*
X013704Y019575D01*
X013423Y019575D02*
X011977Y019575D01*
X012076Y019477D02*
X013298Y019477D01*
X013230Y019378D02*
X012131Y019378D01*
X012172Y019280D02*
X013191Y019280D01*
X011410Y018689D02*
X009400Y018689D01*
X009529Y018787D02*
X011281Y018787D01*
X011199Y018886D02*
X009612Y018886D01*
X009652Y018984D02*
X011158Y018984D01*
X011130Y019083D02*
X009680Y019083D01*
X009680Y019181D02*
X011130Y019181D01*
X011139Y019280D02*
X009672Y019280D01*
X009631Y019378D02*
X011179Y019378D01*
X011234Y019477D02*
X009576Y019477D01*
X009477Y019575D02*
X011333Y019575D01*
X006365Y015338D02*
X002248Y015338D01*
X002150Y015240D02*
X006365Y015240D01*
X006365Y015141D02*
X002051Y015141D01*
X001953Y015042D02*
X006365Y015042D01*
X006365Y014944D02*
X001945Y014944D01*
X001945Y014845D02*
X006365Y014845D01*
X006365Y014747D02*
X001945Y014747D01*
X001945Y014648D02*
X006365Y014648D01*
X006365Y014550D02*
X001945Y014550D01*
X001945Y014451D02*
X006365Y014451D01*
X006365Y014353D02*
X001945Y014353D01*
X001945Y014254D02*
X006365Y014254D01*
X006365Y014156D02*
X001945Y014156D01*
X001945Y014057D02*
X006365Y014057D01*
X009809Y010411D02*
X010989Y010411D01*
X006070Y002330D02*
X005255Y002330D01*
X005121Y002232D02*
X006168Y002232D01*
X006365Y002035D02*
X005073Y002035D01*
X005214Y001936D02*
X006464Y001936D01*
X004685Y001936D02*
X004625Y001936D01*
X004625Y001838D02*
X004685Y001838D01*
X004685Y002035D02*
X004625Y002035D01*
X019386Y009721D02*
X019945Y009721D01*
X019477Y019871D02*
X001334Y019871D01*
X000865Y018787D02*
X002398Y018787D01*
X002223Y018689D02*
X000865Y018689D01*
X000865Y018590D02*
X002125Y018590D01*
X002056Y018491D02*
X000865Y018491D01*
X000865Y018393D02*
X002015Y018393D01*
X001974Y018294D02*
X000865Y018294D01*
X000865Y018196D02*
X001973Y018196D01*
X001973Y018097D02*
X000865Y018097D01*
X000865Y017999D02*
X001981Y017999D01*
X002022Y017900D02*
X000865Y017900D01*
X000865Y017802D02*
X002063Y017802D01*
X002142Y017703D02*
X000865Y017703D01*
X000865Y017605D02*
X002241Y017605D01*
X002439Y017506D02*
X000865Y017506D01*
M02*
