%
M48
M72
T01C0.0197
T02C0.0320
T03C0.0394
T04C0.0400
T05C0.0630
T06C0.0945
%
T01
X6655Y6405
T02
X1655Y1655
X1655Y2655
X1655Y3655
X1655Y4655
X3655Y6405
X4655Y6405
X5655Y7405
X6655Y7405
X7905Y8655
X8905Y8655
X9905Y7655
X10905Y7655
X11905Y8655
X12905Y8655
X14155Y7405
X15155Y7405
X16155Y6405
X17155Y6405
X19155Y6155
X19155Y10155
X17155Y13405
X16155Y13405
X15155Y12405
X14155Y12405
X12905Y11155
X11905Y11155
X10905Y12155
X9905Y12155
X8905Y11155
X7905Y11155
X6655Y12405
X5655Y12405
X4655Y13405
X3655Y13405
X3655Y8655
X1655Y8655
X4655Y4655
X4655Y3655
X4655Y2655
X4655Y1655
X9905Y2655
X10905Y2655
X10905Y5155
X9905Y5155
X9905Y9905
X10905Y9905
X10905Y14655
X9905Y14655
X9905Y16905
X10905Y16905
T03
X7155Y19155
X13655Y19155
T04
X17265Y4435
X19045Y4435
X19045Y1875
X17265Y1875
T05
X9155Y19155
X11655Y19155
T06
X2655Y18155
X18155Y18155
M30
