G75*
G70*
%OFA0B0*%
%FSLAX24Y24*%
%IPPOS*%
%LPD*%
%AMOC8*
5,1,8,0,0,1.08239X$1,22.5*
%
%ADD10C,0.0000*%
%ADD11C,0.0060*%
%ADD12C,0.0120*%
%ADD13C,0.0050*%
%ADD14C,0.0080*%
D10*
X000559Y001809D02*
X000559Y018994D01*
X000561Y019062D01*
X000566Y019129D01*
X000575Y019196D01*
X000588Y019263D01*
X000605Y019328D01*
X000624Y019393D01*
X000648Y019457D01*
X000675Y019519D01*
X000705Y019580D01*
X000738Y019638D01*
X000774Y019695D01*
X000814Y019750D01*
X000856Y019803D01*
X000902Y019854D01*
X000949Y019901D01*
X001000Y019947D01*
X001053Y019989D01*
X001108Y020029D01*
X001165Y020065D01*
X001223Y020098D01*
X001284Y020128D01*
X001346Y020155D01*
X001410Y020179D01*
X001475Y020198D01*
X001540Y020215D01*
X001607Y020228D01*
X001674Y020237D01*
X001741Y020242D01*
X001809Y020244D01*
X018994Y020244D01*
X019062Y020242D01*
X019129Y020237D01*
X019196Y020228D01*
X019263Y020215D01*
X019328Y020198D01*
X019393Y020179D01*
X019457Y020155D01*
X019519Y020128D01*
X019580Y020098D01*
X019638Y020065D01*
X019695Y020029D01*
X019750Y019989D01*
X019803Y019947D01*
X019854Y019901D01*
X019901Y019854D01*
X019947Y019803D01*
X019989Y019750D01*
X020029Y019695D01*
X020065Y019638D01*
X020098Y019580D01*
X020128Y019519D01*
X020155Y019457D01*
X020179Y019393D01*
X020198Y019328D01*
X020215Y019263D01*
X020228Y019196D01*
X020237Y019129D01*
X020242Y019062D01*
X020244Y018994D01*
X020244Y001809D01*
X020242Y001741D01*
X020237Y001674D01*
X020228Y001607D01*
X020215Y001540D01*
X020198Y001475D01*
X020179Y001410D01*
X020155Y001346D01*
X020128Y001284D01*
X020098Y001223D01*
X020065Y001165D01*
X020029Y001108D01*
X019989Y001053D01*
X019947Y001000D01*
X019901Y000949D01*
X019854Y000902D01*
X019803Y000856D01*
X019750Y000814D01*
X019695Y000774D01*
X019638Y000738D01*
X019580Y000705D01*
X019519Y000675D01*
X019457Y000648D01*
X019393Y000624D01*
X019328Y000605D01*
X019263Y000588D01*
X019196Y000575D01*
X019129Y000566D01*
X019062Y000561D01*
X018994Y000559D01*
X001809Y000559D01*
X001741Y000561D01*
X001674Y000566D01*
X001607Y000575D01*
X001540Y000588D01*
X001475Y000605D01*
X001410Y000624D01*
X001346Y000648D01*
X001284Y000675D01*
X001223Y000705D01*
X001165Y000738D01*
X001108Y000774D01*
X001053Y000814D01*
X001000Y000856D01*
X000949Y000902D01*
X000902Y000949D01*
X000856Y001000D01*
X000814Y001053D01*
X000774Y001108D01*
X000738Y001165D01*
X000705Y001223D01*
X000675Y001284D01*
X000648Y001346D01*
X000624Y001410D01*
X000605Y001475D01*
X000588Y001540D01*
X000575Y001607D01*
X000566Y001674D01*
X000561Y001741D01*
X000559Y001809D01*
X002179Y018151D02*
X002181Y018194D01*
X002187Y018236D01*
X002197Y018278D01*
X002210Y018319D01*
X002227Y018359D01*
X002248Y018396D01*
X002272Y018432D01*
X002299Y018465D01*
X002329Y018496D01*
X002362Y018524D01*
X002397Y018549D01*
X002434Y018570D01*
X002473Y018588D01*
X002513Y018602D01*
X002555Y018613D01*
X002597Y018620D01*
X002640Y018623D01*
X002683Y018622D01*
X002726Y018617D01*
X002768Y018608D01*
X002809Y018596D01*
X002849Y018580D01*
X002887Y018560D01*
X002923Y018537D01*
X002957Y018510D01*
X002989Y018481D01*
X003017Y018449D01*
X003043Y018414D01*
X003065Y018378D01*
X003084Y018339D01*
X003099Y018299D01*
X003111Y018258D01*
X003119Y018215D01*
X003123Y018172D01*
X003123Y018130D01*
X003119Y018087D01*
X003111Y018044D01*
X003099Y018003D01*
X003084Y017963D01*
X003065Y017924D01*
X003043Y017888D01*
X003017Y017853D01*
X002989Y017821D01*
X002957Y017792D01*
X002923Y017765D01*
X002887Y017742D01*
X002849Y017722D01*
X002809Y017706D01*
X002768Y017694D01*
X002726Y017685D01*
X002683Y017680D01*
X002640Y017679D01*
X002597Y017682D01*
X002555Y017689D01*
X002513Y017700D01*
X002473Y017714D01*
X002434Y017732D01*
X002397Y017753D01*
X002362Y017778D01*
X002329Y017806D01*
X002299Y017837D01*
X002272Y017870D01*
X002248Y017906D01*
X002227Y017943D01*
X002210Y017983D01*
X002197Y018024D01*
X002187Y018066D01*
X002181Y018108D01*
X002179Y018151D01*
X017679Y018151D02*
X017681Y018194D01*
X017687Y018236D01*
X017697Y018278D01*
X017710Y018319D01*
X017727Y018359D01*
X017748Y018396D01*
X017772Y018432D01*
X017799Y018465D01*
X017829Y018496D01*
X017862Y018524D01*
X017897Y018549D01*
X017934Y018570D01*
X017973Y018588D01*
X018013Y018602D01*
X018055Y018613D01*
X018097Y018620D01*
X018140Y018623D01*
X018183Y018622D01*
X018226Y018617D01*
X018268Y018608D01*
X018309Y018596D01*
X018349Y018580D01*
X018387Y018560D01*
X018423Y018537D01*
X018457Y018510D01*
X018489Y018481D01*
X018517Y018449D01*
X018543Y018414D01*
X018565Y018378D01*
X018584Y018339D01*
X018599Y018299D01*
X018611Y018258D01*
X018619Y018215D01*
X018623Y018172D01*
X018623Y018130D01*
X018619Y018087D01*
X018611Y018044D01*
X018599Y018003D01*
X018584Y017963D01*
X018565Y017924D01*
X018543Y017888D01*
X018517Y017853D01*
X018489Y017821D01*
X018457Y017792D01*
X018423Y017765D01*
X018387Y017742D01*
X018349Y017722D01*
X018309Y017706D01*
X018268Y017694D01*
X018226Y017685D01*
X018183Y017680D01*
X018140Y017679D01*
X018097Y017682D01*
X018055Y017689D01*
X018013Y017700D01*
X017973Y017714D01*
X017934Y017732D01*
X017897Y017753D01*
X017862Y017778D01*
X017829Y017806D01*
X017799Y017837D01*
X017772Y017870D01*
X017748Y017906D01*
X017727Y017943D01*
X017710Y017983D01*
X017697Y018024D01*
X017687Y018066D01*
X017681Y018108D01*
X017679Y018151D01*
D11*
X015601Y013522D02*
X015488Y013522D01*
X015431Y013465D01*
X015431Y013238D01*
X015488Y013181D01*
X015601Y013181D01*
X015658Y013238D01*
X015658Y013465D02*
X015601Y013522D01*
X013658Y012465D02*
X013601Y012522D01*
X013488Y012522D01*
X013431Y012465D01*
X013431Y012238D01*
X013488Y012181D01*
X013601Y012181D01*
X013658Y012238D01*
X011408Y011215D02*
X011351Y011272D01*
X011238Y011272D01*
X011181Y011215D01*
X011181Y010988D01*
X011238Y010931D01*
X011351Y010931D01*
X011408Y010988D01*
X009408Y011988D02*
X009351Y011931D01*
X009238Y011931D01*
X009181Y011988D01*
X009181Y012215D01*
X009238Y012272D01*
X009351Y012272D01*
X009408Y012215D01*
X009351Y010022D02*
X009238Y010022D01*
X009181Y009965D01*
X009181Y009738D01*
X009238Y009681D01*
X009351Y009681D01*
X009408Y009738D01*
X009408Y009965D02*
X009351Y010022D01*
X007408Y010988D02*
X007351Y010931D01*
X007238Y010931D01*
X007181Y010988D01*
X007181Y011215D01*
X007238Y011272D01*
X007351Y011272D01*
X007408Y011215D01*
X007351Y008772D02*
X007238Y008772D01*
X007181Y008715D01*
X007181Y008488D01*
X007238Y008431D01*
X007351Y008431D01*
X007408Y008488D01*
X007408Y008715D02*
X007351Y008772D01*
X009181Y007715D02*
X009181Y007488D01*
X009238Y007431D01*
X009351Y007431D01*
X009408Y007488D01*
X009408Y007715D02*
X009351Y007772D01*
X009238Y007772D01*
X009181Y007715D01*
X011181Y008488D02*
X011238Y008431D01*
X011351Y008431D01*
X011408Y008488D01*
X011181Y008488D02*
X011181Y008715D01*
X011238Y008772D01*
X011351Y008772D01*
X011408Y008715D01*
X013431Y007465D02*
X013431Y007238D01*
X013488Y007181D01*
X013601Y007181D01*
X013658Y007238D01*
X013658Y007465D02*
X013601Y007522D01*
X013488Y007522D01*
X013431Y007465D01*
X015431Y006465D02*
X015431Y006238D01*
X015488Y006181D01*
X015601Y006181D01*
X015658Y006238D01*
X015658Y006465D02*
X015601Y006522D01*
X015488Y006522D01*
X015431Y006465D01*
X016681Y005632D02*
X016795Y005632D01*
X016738Y005632D02*
X016738Y005291D01*
X016681Y005291D02*
X016795Y005291D01*
X016927Y005348D02*
X016927Y005575D01*
X016983Y005632D01*
X017097Y005632D01*
X017154Y005575D01*
X017295Y005518D02*
X017409Y005632D01*
X017409Y005291D01*
X017522Y005291D02*
X017295Y005291D01*
X017154Y005348D02*
X017097Y005291D01*
X016983Y005291D01*
X016927Y005348D01*
X016551Y005151D02*
X016551Y001151D01*
X018751Y001151D01*
X018751Y005151D01*
X017901Y005151D01*
X017899Y005121D01*
X017894Y005091D01*
X017885Y005062D01*
X017872Y005035D01*
X017857Y005009D01*
X017838Y004985D01*
X017817Y004964D01*
X017793Y004945D01*
X017767Y004930D01*
X017740Y004917D01*
X017711Y004908D01*
X017681Y004903D01*
X017651Y004901D01*
X017621Y004903D01*
X017591Y004908D01*
X017562Y004917D01*
X017535Y004930D01*
X017509Y004945D01*
X017485Y004964D01*
X017464Y004985D01*
X017445Y005009D01*
X017430Y005035D01*
X017417Y005062D01*
X017408Y005091D01*
X017403Y005121D01*
X017401Y005151D01*
X016551Y005151D01*
X016801Y008151D02*
X019501Y008151D01*
X019518Y008153D01*
X019535Y008157D01*
X019551Y008164D01*
X019565Y008174D01*
X019578Y008187D01*
X019588Y008201D01*
X019595Y008217D01*
X019599Y008234D01*
X019601Y008251D01*
X019601Y009051D01*
X019599Y009068D01*
X019595Y009085D01*
X019588Y009101D01*
X019578Y009115D01*
X019565Y009128D01*
X019551Y009138D01*
X019535Y009145D01*
X019518Y009149D01*
X019501Y009151D01*
X016801Y009151D01*
X016784Y009149D01*
X016767Y009145D01*
X016751Y009138D01*
X016737Y009128D01*
X016724Y009115D01*
X016714Y009101D01*
X016707Y009085D01*
X016703Y009068D01*
X016701Y009051D01*
X016701Y008251D01*
X016703Y008234D01*
X016707Y008217D01*
X016714Y008201D01*
X016724Y008187D01*
X016737Y008174D01*
X016751Y008164D01*
X016767Y008157D01*
X016784Y008153D01*
X016801Y008151D01*
X017551Y008651D02*
X018021Y008651D01*
X018271Y008651D02*
X018751Y008651D01*
X018613Y009331D02*
X018613Y009501D01*
X018556Y009558D01*
X018386Y009558D01*
X018386Y009331D01*
X018245Y009388D02*
X018188Y009331D01*
X018075Y009331D01*
X018018Y009388D01*
X018245Y009615D01*
X018245Y009388D01*
X018245Y009615D02*
X018188Y009672D01*
X018075Y009672D01*
X018018Y009615D01*
X018018Y009388D01*
X017876Y009388D02*
X017820Y009331D01*
X017706Y009331D01*
X017650Y009388D01*
X017876Y009615D01*
X017876Y009388D01*
X017650Y009388D02*
X017650Y009615D01*
X017706Y009672D01*
X017820Y009672D01*
X017876Y009615D01*
X017876Y010031D02*
X017650Y010031D01*
X017763Y010031D02*
X017763Y010372D01*
X017650Y010258D01*
X017508Y010315D02*
X017451Y010372D01*
X017338Y010372D01*
X017281Y010315D01*
X017281Y010088D01*
X017338Y010031D01*
X017451Y010031D01*
X017508Y010088D01*
X017395Y009672D02*
X017395Y009331D01*
X017508Y009331D02*
X017281Y009331D01*
X017281Y009558D02*
X017395Y009672D01*
X009408Y005215D02*
X009351Y005272D01*
X009238Y005272D01*
X009181Y005215D01*
X009181Y004988D01*
X009238Y004931D01*
X009351Y004931D01*
X009408Y004988D01*
X009351Y002772D02*
X009238Y002772D01*
X009181Y002715D01*
X009181Y002488D01*
X009238Y002431D01*
X009351Y002431D01*
X009408Y002488D01*
X009408Y002715D02*
X009351Y002772D01*
X005101Y007181D02*
X004988Y007181D01*
X004931Y007238D01*
X004931Y007465D01*
X004988Y007522D01*
X005101Y007522D01*
X005158Y007465D01*
X005158Y007238D02*
X005101Y007181D01*
X003158Y006465D02*
X003101Y006522D01*
X002988Y006522D01*
X002931Y006465D01*
X002931Y006238D01*
X002988Y006181D01*
X003101Y006181D01*
X003158Y006238D01*
X002635Y006193D02*
X002294Y006193D01*
X002294Y006363D01*
X002351Y006420D01*
X002465Y006420D01*
X002521Y006363D01*
X002521Y006193D01*
X002521Y006061D02*
X002465Y006004D01*
X002238Y006004D01*
X002294Y005948D02*
X002294Y006061D01*
X002294Y005816D02*
X002294Y005702D01*
X002238Y005759D02*
X002465Y005759D01*
X002521Y005816D01*
X002521Y005561D02*
X002351Y005561D01*
X002294Y005504D01*
X002294Y005391D01*
X002351Y005334D01*
X002181Y005334D02*
X002521Y005334D01*
X002521Y006561D02*
X002465Y006561D01*
X002465Y006618D01*
X002521Y006618D01*
X002521Y006561D01*
X002351Y006561D02*
X002294Y006561D01*
X002294Y006618D01*
X002351Y006618D01*
X002351Y006561D01*
X002521Y006746D02*
X002181Y006972D01*
X002521Y007114D02*
X002181Y007341D01*
X002351Y007482D02*
X002294Y007539D01*
X002294Y007709D01*
X002408Y007652D02*
X002465Y007709D01*
X002521Y007652D01*
X002521Y007482D01*
X002408Y007539D02*
X002351Y007482D01*
X002408Y007539D02*
X002408Y007652D01*
X002351Y007851D02*
X002351Y008077D01*
X002181Y008219D02*
X002181Y008276D01*
X002521Y008276D01*
X002521Y008332D02*
X002521Y008219D01*
X002465Y008464D02*
X002408Y008521D01*
X002408Y008691D01*
X002351Y008691D02*
X002521Y008691D01*
X002521Y008521D01*
X002465Y008464D01*
X002294Y008521D02*
X002294Y008634D01*
X002351Y008691D01*
X002294Y008833D02*
X002294Y009003D01*
X002351Y009059D01*
X002465Y009059D01*
X002521Y009003D01*
X002521Y008833D01*
X002181Y008833D01*
X002351Y009201D02*
X002294Y009258D01*
X002294Y009428D01*
X002408Y009371D02*
X002408Y009258D01*
X002351Y009201D01*
X002521Y009201D02*
X002521Y009371D01*
X002465Y009428D01*
X002408Y009371D01*
X002465Y009569D02*
X002465Y009626D01*
X002521Y009626D01*
X002521Y009569D01*
X002465Y009569D01*
X002465Y009753D02*
X002521Y009810D01*
X002521Y009980D01*
X002465Y010122D02*
X002408Y010178D01*
X002408Y010349D01*
X002351Y010349D02*
X002521Y010349D01*
X002521Y010178D01*
X002465Y010122D01*
X002294Y010178D02*
X002294Y010292D01*
X002351Y010349D01*
X002521Y010490D02*
X002181Y010717D01*
X002294Y010858D02*
X002294Y011028D01*
X002351Y011085D01*
X002465Y011085D01*
X002521Y011028D01*
X002521Y010858D01*
X002635Y010858D02*
X002294Y010858D01*
X002294Y011227D02*
X002521Y011227D01*
X002408Y011227D02*
X002294Y011340D01*
X002294Y011397D01*
X002351Y011534D02*
X002465Y011534D01*
X002521Y011590D01*
X002521Y011704D01*
X002465Y011760D01*
X002351Y011760D01*
X002294Y011704D01*
X002294Y011590D01*
X002351Y011534D01*
X002635Y011902D02*
X002635Y011959D01*
X002578Y012015D01*
X002294Y012015D01*
X002181Y012015D02*
X002124Y012015D01*
X002294Y012204D02*
X002294Y012317D01*
X002351Y012374D01*
X002408Y012374D01*
X002408Y012147D01*
X002465Y012147D02*
X002351Y012147D01*
X002294Y012204D01*
X002465Y012147D02*
X002521Y012204D01*
X002521Y012317D01*
X002465Y012516D02*
X002521Y012572D01*
X002521Y012742D01*
X002465Y012941D02*
X002521Y012997D01*
X002465Y012941D02*
X002238Y012941D01*
X002294Y012884D02*
X002294Y012997D01*
X002351Y013129D02*
X002294Y013186D01*
X002294Y013356D01*
X002408Y013300D02*
X002465Y013356D01*
X002521Y013300D01*
X002521Y013129D01*
X002408Y013186D02*
X002351Y013129D01*
X002408Y013186D02*
X002408Y013300D01*
X002521Y013498D02*
X002181Y013725D01*
X002294Y013866D02*
X002521Y014093D01*
X002521Y014234D02*
X002294Y014234D01*
X002294Y014291D01*
X002351Y014348D01*
X002294Y014404D01*
X002351Y014461D01*
X002521Y014461D01*
X002521Y014348D02*
X002351Y014348D01*
X002294Y014093D02*
X002521Y013866D01*
X002931Y013465D02*
X002931Y013238D01*
X002988Y013181D01*
X003101Y013181D01*
X003158Y013238D01*
X003158Y013465D02*
X003101Y013522D01*
X002988Y013522D01*
X002931Y013465D01*
X002294Y012742D02*
X002294Y012572D01*
X002351Y012516D01*
X002465Y012516D01*
X001896Y012941D02*
X001840Y012884D01*
X001896Y012941D02*
X001896Y013054D01*
X001840Y013111D01*
X001783Y013111D01*
X001726Y013054D01*
X001726Y012941D01*
X001669Y012884D01*
X001613Y012884D01*
X001556Y012941D01*
X001556Y013054D01*
X001613Y013111D01*
X001669Y013253D02*
X001669Y013423D01*
X001726Y013479D01*
X001896Y013479D01*
X001840Y013621D02*
X001896Y013678D01*
X001896Y013791D01*
X001840Y013848D01*
X001726Y013848D01*
X001669Y013791D01*
X001669Y013678D01*
X001726Y013621D01*
X001840Y013621D01*
X001840Y013989D02*
X001896Y014046D01*
X001840Y014103D01*
X001896Y014159D01*
X001840Y014216D01*
X001669Y014216D01*
X001726Y014358D02*
X001726Y014471D01*
X001613Y014414D02*
X001556Y014471D01*
X001613Y014414D02*
X001896Y014414D01*
X001896Y014603D02*
X001896Y014716D01*
X001896Y014660D02*
X001556Y014660D01*
X001556Y014603D01*
X001669Y014905D02*
X001669Y015019D01*
X001726Y015075D01*
X001896Y015075D01*
X001896Y014905D01*
X001840Y014849D01*
X001783Y014905D01*
X001783Y015075D01*
X001783Y015217D02*
X001669Y015387D01*
X001726Y015524D02*
X001669Y015580D01*
X001669Y015694D01*
X001726Y015751D01*
X001783Y015751D01*
X001783Y015524D01*
X001840Y015524D02*
X001726Y015524D01*
X001840Y015524D02*
X001896Y015580D01*
X001896Y015694D01*
X002181Y015764D02*
X002181Y015878D01*
X002238Y015934D01*
X002465Y015708D01*
X002521Y015764D01*
X002521Y015878D01*
X002465Y015934D01*
X002238Y015934D01*
X002294Y016076D02*
X002181Y016189D01*
X002521Y016189D01*
X002521Y016076D02*
X002521Y016303D01*
X002465Y016444D02*
X002521Y016501D01*
X002521Y016614D01*
X002465Y016671D01*
X002351Y016671D01*
X002294Y016614D01*
X002294Y016558D01*
X002351Y016444D01*
X002181Y016444D01*
X002181Y016671D01*
X001896Y016685D02*
X001896Y016629D01*
X001840Y016629D01*
X001840Y016685D01*
X001896Y016685D01*
X001840Y016813D02*
X001896Y016869D01*
X001896Y016983D01*
X001840Y017040D01*
X001613Y017040D01*
X001840Y016813D01*
X001613Y016813D01*
X001556Y016869D01*
X001556Y016983D01*
X001613Y017040D01*
X001613Y016487D02*
X001556Y016430D01*
X001556Y016317D01*
X001613Y016260D01*
X001613Y016487D02*
X001669Y016487D01*
X001896Y016260D01*
X001896Y016487D01*
X002181Y017039D02*
X002521Y016813D01*
X002181Y015764D02*
X002238Y015708D01*
X002465Y015708D01*
X002521Y015566D02*
X002521Y015339D01*
X002294Y015566D01*
X002238Y015566D01*
X002181Y015509D01*
X002181Y015396D01*
X002238Y015339D01*
X002294Y015198D02*
X002294Y015028D01*
X002351Y014971D01*
X002408Y015028D01*
X002408Y015141D01*
X002465Y015198D01*
X002521Y015141D01*
X002521Y014971D01*
X002521Y014830D02*
X002521Y014659D01*
X002465Y014603D01*
X002408Y014659D01*
X002408Y014830D01*
X002351Y014830D02*
X002521Y014830D01*
X002351Y014830D02*
X002294Y014773D01*
X002294Y014659D01*
X001896Y015217D02*
X001556Y015217D01*
X001783Y015217D02*
X001896Y015387D01*
X001840Y013989D02*
X001669Y013989D01*
X001669Y013253D02*
X001896Y013253D01*
X004931Y012465D02*
X004931Y012238D01*
X004988Y012181D01*
X005101Y012181D01*
X005158Y012238D01*
X005158Y012465D02*
X005101Y012522D01*
X004988Y012522D01*
X004931Y012465D01*
X002294Y009980D02*
X002294Y009810D01*
X002351Y009753D01*
X002465Y009753D01*
X002641Y003651D02*
X002771Y003651D01*
X002801Y003491D01*
X002921Y003441D01*
X003061Y003531D01*
X003151Y003441D01*
X003061Y003311D01*
X003111Y003191D01*
X003261Y003161D01*
X003261Y003031D01*
X003121Y003001D01*
X003061Y002871D01*
X003151Y002741D01*
X003061Y002651D01*
X002941Y002731D01*
X002881Y002701D01*
X002791Y002931D01*
X002851Y002901D02*
X002951Y003101D01*
X002851Y003251D01*
X002701Y003301D01*
X002551Y003251D01*
X002501Y003101D01*
X002551Y002951D01*
X002601Y002901D01*
X002501Y002751D01*
X002351Y002701D01*
X002301Y002751D01*
X002401Y002901D01*
X002301Y003051D01*
X002201Y003051D01*
X002201Y003151D01*
X002351Y003151D01*
X002401Y003301D01*
X002301Y003451D01*
X002351Y003501D01*
X002501Y003401D01*
X002651Y003501D01*
X002651Y003601D01*
X002751Y003601D01*
X002801Y003451D01*
X002951Y003401D01*
X003051Y003501D01*
X003101Y003451D01*
X003051Y003301D01*
X003101Y003151D01*
X003251Y003151D01*
X003201Y003051D01*
X003051Y003001D01*
X003051Y002851D01*
X003101Y002751D01*
X003051Y002701D01*
X002951Y002751D01*
X002901Y002751D01*
X002851Y002901D01*
X002854Y002908D02*
X003051Y002908D01*
X003051Y002966D02*
X002884Y002966D01*
X002913Y003025D02*
X003122Y003025D01*
X003217Y003083D02*
X002942Y003083D01*
X002924Y003142D02*
X003247Y003142D01*
X003085Y003200D02*
X002885Y003200D01*
X002828Y003259D02*
X003065Y003259D01*
X003057Y003318D02*
X002390Y003318D01*
X002361Y003311D02*
X002271Y003441D01*
X002361Y003531D01*
X002491Y003441D01*
X002611Y003491D01*
X002641Y003651D01*
X002651Y003552D02*
X002768Y003552D01*
X002787Y003493D02*
X002639Y003493D01*
X002551Y003435D02*
X002851Y003435D01*
X002985Y003435D02*
X003096Y003435D01*
X003076Y003376D02*
X002351Y003376D01*
X002361Y003311D02*
X002301Y003181D01*
X002151Y003161D01*
X002151Y003031D01*
X002301Y003001D01*
X002351Y002871D01*
X002271Y002741D01*
X002361Y002651D01*
X002481Y002731D01*
X002531Y002701D01*
X002631Y002931D01*
X002595Y002908D02*
X002397Y002908D01*
X002367Y002849D02*
X002567Y002849D01*
X002528Y002791D02*
X002327Y002791D01*
X002320Y002732D02*
X002444Y002732D01*
X002358Y002966D02*
X002546Y002966D01*
X002527Y003025D02*
X002319Y003025D01*
X002201Y003083D02*
X002507Y003083D01*
X002515Y003142D02*
X002201Y003142D01*
X002368Y003200D02*
X002534Y003200D01*
X002574Y003259D02*
X002387Y003259D01*
X002451Y003435D02*
X002312Y003435D01*
X002343Y003493D02*
X002363Y003493D01*
X002631Y002931D02*
X002609Y002944D01*
X002589Y002960D01*
X002571Y002979D01*
X002556Y003001D01*
X002545Y003024D01*
X002537Y003049D01*
X002533Y003074D01*
X002532Y003100D01*
X002535Y003126D01*
X002542Y003151D01*
X002553Y003174D01*
X002566Y003196D01*
X002583Y003216D01*
X002602Y003233D01*
X002624Y003248D01*
X002648Y003258D01*
X002672Y003266D01*
X002698Y003270D01*
X002724Y003270D01*
X002750Y003266D01*
X002774Y003258D01*
X002798Y003248D01*
X002820Y003233D01*
X002839Y003216D01*
X002856Y003196D01*
X002869Y003174D01*
X002880Y003151D01*
X002887Y003126D01*
X002890Y003100D01*
X002889Y003074D01*
X002885Y003049D01*
X002877Y003024D01*
X002866Y003001D01*
X002851Y002979D01*
X002833Y002960D01*
X002813Y002944D01*
X002791Y002931D01*
X002869Y002849D02*
X003052Y002849D01*
X003082Y002791D02*
X002888Y002791D01*
X002990Y002732D02*
X003082Y002732D01*
X003043Y003493D02*
X003059Y003493D01*
X009238Y014431D02*
X009351Y014431D01*
X009408Y014488D01*
X009238Y014431D02*
X009181Y014488D01*
X009181Y014715D01*
X009238Y014772D01*
X009351Y014772D01*
X009408Y014715D01*
X009351Y016681D02*
X009408Y016738D01*
X009351Y016681D02*
X009238Y016681D01*
X009181Y016738D01*
X009181Y016965D01*
X009238Y017022D01*
X009351Y017022D01*
X009408Y016965D01*
X005271Y018090D02*
X005271Y018260D01*
X005215Y018317D01*
X005158Y018317D01*
X005101Y018260D01*
X005101Y018090D01*
X005101Y018260D02*
X005044Y018317D01*
X004988Y018317D01*
X004931Y018260D01*
X004931Y018090D01*
X005271Y018090D01*
X005271Y018458D02*
X005044Y018458D01*
X004931Y018571D01*
X005044Y018685D01*
X005271Y018685D01*
X005101Y018685D02*
X005101Y018458D01*
X004931Y018826D02*
X004931Y019053D01*
X004931Y018940D02*
X005271Y018940D01*
X005271Y019308D02*
X004931Y019308D01*
X004931Y019195D02*
X004931Y019421D01*
X005044Y019563D02*
X004931Y019676D01*
X005271Y019676D01*
X005271Y019563D02*
X005271Y019790D01*
D12*
X018021Y008901D02*
X018021Y008651D01*
X018021Y008401D01*
X018271Y008401D02*
X018271Y008651D01*
X018271Y008901D01*
D13*
X015204Y000559D02*
X015204Y020244D01*
X005598Y020244D01*
X005598Y000559D01*
X015204Y000559D01*
D14*
X007081Y019011D02*
X007081Y019292D01*
X006941Y019151D02*
X007221Y019151D01*
X013441Y019151D02*
X013721Y019151D01*
M02*
