G75*
G70*
%OFA0B0*%
%FSLAX24Y24*%
%IPPOS*%
%LPD*%
%AMOC8*
5,1,8,0,0,1.08239X$1,22.5*
%
%ADD10C,0.0000*%
D10*
X000559Y001809D02*
X000559Y018994D01*
X000561Y019062D01*
X000566Y019129D01*
X000575Y019196D01*
X000588Y019263D01*
X000605Y019328D01*
X000624Y019393D01*
X000648Y019457D01*
X000675Y019519D01*
X000705Y019580D01*
X000738Y019638D01*
X000774Y019695D01*
X000814Y019750D01*
X000856Y019803D01*
X000902Y019854D01*
X000949Y019901D01*
X001000Y019947D01*
X001053Y019989D01*
X001108Y020029D01*
X001165Y020065D01*
X001223Y020098D01*
X001284Y020128D01*
X001346Y020155D01*
X001410Y020179D01*
X001475Y020198D01*
X001540Y020215D01*
X001607Y020228D01*
X001674Y020237D01*
X001741Y020242D01*
X001809Y020244D01*
X018994Y020244D01*
X019062Y020242D01*
X019129Y020237D01*
X019196Y020228D01*
X019263Y020215D01*
X019328Y020198D01*
X019393Y020179D01*
X019457Y020155D01*
X019519Y020128D01*
X019580Y020098D01*
X019638Y020065D01*
X019695Y020029D01*
X019750Y019989D01*
X019803Y019947D01*
X019854Y019901D01*
X019901Y019854D01*
X019947Y019803D01*
X019989Y019750D01*
X020029Y019695D01*
X020065Y019638D01*
X020098Y019580D01*
X020128Y019519D01*
X020155Y019457D01*
X020179Y019393D01*
X020198Y019328D01*
X020215Y019263D01*
X020228Y019196D01*
X020237Y019129D01*
X020242Y019062D01*
X020244Y018994D01*
X020244Y001809D01*
X020242Y001741D01*
X020237Y001674D01*
X020228Y001607D01*
X020215Y001540D01*
X020198Y001475D01*
X020179Y001410D01*
X020155Y001346D01*
X020128Y001284D01*
X020098Y001223D01*
X020065Y001165D01*
X020029Y001108D01*
X019989Y001053D01*
X019947Y001000D01*
X019901Y000949D01*
X019854Y000902D01*
X019803Y000856D01*
X019750Y000814D01*
X019695Y000774D01*
X019638Y000738D01*
X019580Y000705D01*
X019519Y000675D01*
X019457Y000648D01*
X019393Y000624D01*
X019328Y000605D01*
X019263Y000588D01*
X019196Y000575D01*
X019129Y000566D01*
X019062Y000561D01*
X018994Y000559D01*
X001809Y000559D01*
X001741Y000561D01*
X001674Y000566D01*
X001607Y000575D01*
X001540Y000588D01*
X001475Y000605D01*
X001410Y000624D01*
X001346Y000648D01*
X001284Y000675D01*
X001223Y000705D01*
X001165Y000738D01*
X001108Y000774D01*
X001053Y000814D01*
X001000Y000856D01*
X000949Y000902D01*
X000902Y000949D01*
X000856Y001000D01*
X000814Y001053D01*
X000774Y001108D01*
X000738Y001165D01*
X000705Y001223D01*
X000675Y001284D01*
X000648Y001346D01*
X000624Y001410D01*
X000605Y001475D01*
X000588Y001540D01*
X000575Y001607D01*
X000566Y001674D01*
X000561Y001741D01*
X000559Y001809D01*
X002179Y018151D02*
X002181Y018194D01*
X002187Y018236D01*
X002197Y018278D01*
X002210Y018319D01*
X002227Y018359D01*
X002248Y018396D01*
X002272Y018432D01*
X002299Y018465D01*
X002329Y018496D01*
X002362Y018524D01*
X002397Y018549D01*
X002434Y018570D01*
X002473Y018588D01*
X002513Y018602D01*
X002555Y018613D01*
X002597Y018620D01*
X002640Y018623D01*
X002683Y018622D01*
X002726Y018617D01*
X002768Y018608D01*
X002809Y018596D01*
X002849Y018580D01*
X002887Y018560D01*
X002923Y018537D01*
X002957Y018510D01*
X002989Y018481D01*
X003017Y018449D01*
X003043Y018414D01*
X003065Y018378D01*
X003084Y018339D01*
X003099Y018299D01*
X003111Y018258D01*
X003119Y018215D01*
X003123Y018172D01*
X003123Y018130D01*
X003119Y018087D01*
X003111Y018044D01*
X003099Y018003D01*
X003084Y017963D01*
X003065Y017924D01*
X003043Y017888D01*
X003017Y017853D01*
X002989Y017821D01*
X002957Y017792D01*
X002923Y017765D01*
X002887Y017742D01*
X002849Y017722D01*
X002809Y017706D01*
X002768Y017694D01*
X002726Y017685D01*
X002683Y017680D01*
X002640Y017679D01*
X002597Y017682D01*
X002555Y017689D01*
X002513Y017700D01*
X002473Y017714D01*
X002434Y017732D01*
X002397Y017753D01*
X002362Y017778D01*
X002329Y017806D01*
X002299Y017837D01*
X002272Y017870D01*
X002248Y017906D01*
X002227Y017943D01*
X002210Y017983D01*
X002197Y018024D01*
X002187Y018066D01*
X002181Y018108D01*
X002179Y018151D01*
X017679Y018151D02*
X017681Y018194D01*
X017687Y018236D01*
X017697Y018278D01*
X017710Y018319D01*
X017727Y018359D01*
X017748Y018396D01*
X017772Y018432D01*
X017799Y018465D01*
X017829Y018496D01*
X017862Y018524D01*
X017897Y018549D01*
X017934Y018570D01*
X017973Y018588D01*
X018013Y018602D01*
X018055Y018613D01*
X018097Y018620D01*
X018140Y018623D01*
X018183Y018622D01*
X018226Y018617D01*
X018268Y018608D01*
X018309Y018596D01*
X018349Y018580D01*
X018387Y018560D01*
X018423Y018537D01*
X018457Y018510D01*
X018489Y018481D01*
X018517Y018449D01*
X018543Y018414D01*
X018565Y018378D01*
X018584Y018339D01*
X018599Y018299D01*
X018611Y018258D01*
X018619Y018215D01*
X018623Y018172D01*
X018623Y018130D01*
X018619Y018087D01*
X018611Y018044D01*
X018599Y018003D01*
X018584Y017963D01*
X018565Y017924D01*
X018543Y017888D01*
X018517Y017853D01*
X018489Y017821D01*
X018457Y017792D01*
X018423Y017765D01*
X018387Y017742D01*
X018349Y017722D01*
X018309Y017706D01*
X018268Y017694D01*
X018226Y017685D01*
X018183Y017680D01*
X018140Y017679D01*
X018097Y017682D01*
X018055Y017689D01*
X018013Y017700D01*
X017973Y017714D01*
X017934Y017732D01*
X017897Y017753D01*
X017862Y017778D01*
X017829Y017806D01*
X017799Y017837D01*
X017772Y017870D01*
X017748Y017906D01*
X017727Y017943D01*
X017710Y017983D01*
X017697Y018024D01*
X017687Y018066D01*
X017681Y018108D01*
X017679Y018151D01*
M02*
