%
M48
M72
T01C0.0197
T02C0.0320
T03C0.0400
T04C0.0472
T05C0.0945
%
T01
X14151Y6401
T02
X19151Y1651
X3651Y13401
X4651Y13401
X5651Y12401
X6651Y12401
X7901Y11151
X8901Y11151
X9901Y12151
X10901Y12151
X11901Y11151
X12901Y11151
X14151Y12401
X15151Y12401
X16151Y13401
X17151Y13401
X17151Y8651
X19151Y8651
X17151Y6401
X16151Y6401
X15151Y7401
X14151Y7401
X12901Y8651
X11901Y8651
X10901Y7651
X9901Y7651
X8901Y8651
X7901Y8651
X6651Y7401
X5651Y7401
X4651Y6401
X3651Y6401
X9901Y5151
X10901Y5151
X10901Y2651
X9901Y2651
X16151Y2651
X16151Y1651
X16151Y3651
X16151Y4651
X19151Y4651
X19151Y3651
X19151Y2651
X10901Y9901
X9901Y9901
X9901Y14651
X10901Y14651
X10901Y16901
X9901Y16901
T03
X1761Y1871
X1761Y4431
X3541Y4431
X3541Y1871
T04
X8161Y19256
X12641Y19256
T05
X2651Y18151
X18151Y18151
M30
