G75*
G70*
%OFA0B0*%
%FSLAX24Y24*%
%IPPOS*%
%LPD*%
%AMOC8*
5,1,8,0,0,1.08239X$1,22.5*
%
%ADD10C,0.0000*%
%ADD11OC8,0.0520*%
%ADD12C,0.0520*%
%ADD13C,0.0600*%
%ADD14C,0.0709*%
%ADD15C,0.0160*%
%ADD16C,0.0357*%
%ADD17C,0.0100*%
D10*
X000559Y001809D02*
X000559Y018994D01*
X000561Y019062D01*
X000566Y019129D01*
X000575Y019196D01*
X000588Y019263D01*
X000605Y019328D01*
X000624Y019393D01*
X000648Y019457D01*
X000675Y019519D01*
X000705Y019580D01*
X000738Y019638D01*
X000774Y019695D01*
X000814Y019750D01*
X000856Y019803D01*
X000902Y019854D01*
X000949Y019901D01*
X001000Y019947D01*
X001053Y019989D01*
X001108Y020029D01*
X001165Y020065D01*
X001223Y020098D01*
X001284Y020128D01*
X001346Y020155D01*
X001410Y020179D01*
X001475Y020198D01*
X001540Y020215D01*
X001607Y020228D01*
X001674Y020237D01*
X001741Y020242D01*
X001809Y020244D01*
X018994Y020244D01*
X019062Y020242D01*
X019129Y020237D01*
X019196Y020228D01*
X019263Y020215D01*
X019328Y020198D01*
X019393Y020179D01*
X019457Y020155D01*
X019519Y020128D01*
X019580Y020098D01*
X019638Y020065D01*
X019695Y020029D01*
X019750Y019989D01*
X019803Y019947D01*
X019854Y019901D01*
X019901Y019854D01*
X019947Y019803D01*
X019989Y019750D01*
X020029Y019695D01*
X020065Y019638D01*
X020098Y019580D01*
X020128Y019519D01*
X020155Y019457D01*
X020179Y019393D01*
X020198Y019328D01*
X020215Y019263D01*
X020228Y019196D01*
X020237Y019129D01*
X020242Y019062D01*
X020244Y018994D01*
X020244Y001809D01*
X020242Y001741D01*
X020237Y001674D01*
X020228Y001607D01*
X020215Y001540D01*
X020198Y001475D01*
X020179Y001410D01*
X020155Y001346D01*
X020128Y001284D01*
X020098Y001223D01*
X020065Y001165D01*
X020029Y001108D01*
X019989Y001053D01*
X019947Y001000D01*
X019901Y000949D01*
X019854Y000902D01*
X019803Y000856D01*
X019750Y000814D01*
X019695Y000774D01*
X019638Y000738D01*
X019580Y000705D01*
X019519Y000675D01*
X019457Y000648D01*
X019393Y000624D01*
X019328Y000605D01*
X019263Y000588D01*
X019196Y000575D01*
X019129Y000566D01*
X019062Y000561D01*
X018994Y000559D01*
X001809Y000559D01*
X001741Y000561D01*
X001674Y000566D01*
X001607Y000575D01*
X001540Y000588D01*
X001475Y000605D01*
X001410Y000624D01*
X001346Y000648D01*
X001284Y000675D01*
X001223Y000705D01*
X001165Y000738D01*
X001108Y000774D01*
X001053Y000814D01*
X001000Y000856D01*
X000949Y000902D01*
X000902Y000949D01*
X000856Y001000D01*
X000814Y001053D01*
X000774Y001108D01*
X000738Y001165D01*
X000705Y001223D01*
X000675Y001284D01*
X000648Y001346D01*
X000624Y001410D01*
X000605Y001475D01*
X000588Y001540D01*
X000575Y001607D01*
X000566Y001674D01*
X000561Y001741D01*
X000559Y001809D01*
X002179Y018151D02*
X002181Y018194D01*
X002187Y018236D01*
X002197Y018278D01*
X002210Y018319D01*
X002227Y018359D01*
X002248Y018396D01*
X002272Y018432D01*
X002299Y018465D01*
X002329Y018496D01*
X002362Y018524D01*
X002397Y018549D01*
X002434Y018570D01*
X002473Y018588D01*
X002513Y018602D01*
X002555Y018613D01*
X002597Y018620D01*
X002640Y018623D01*
X002683Y018622D01*
X002726Y018617D01*
X002768Y018608D01*
X002809Y018596D01*
X002849Y018580D01*
X002887Y018560D01*
X002923Y018537D01*
X002957Y018510D01*
X002989Y018481D01*
X003017Y018449D01*
X003043Y018414D01*
X003065Y018378D01*
X003084Y018339D01*
X003099Y018299D01*
X003111Y018258D01*
X003119Y018215D01*
X003123Y018172D01*
X003123Y018130D01*
X003119Y018087D01*
X003111Y018044D01*
X003099Y018003D01*
X003084Y017963D01*
X003065Y017924D01*
X003043Y017888D01*
X003017Y017853D01*
X002989Y017821D01*
X002957Y017792D01*
X002923Y017765D01*
X002887Y017742D01*
X002849Y017722D01*
X002809Y017706D01*
X002768Y017694D01*
X002726Y017685D01*
X002683Y017680D01*
X002640Y017679D01*
X002597Y017682D01*
X002555Y017689D01*
X002513Y017700D01*
X002473Y017714D01*
X002434Y017732D01*
X002397Y017753D01*
X002362Y017778D01*
X002329Y017806D01*
X002299Y017837D01*
X002272Y017870D01*
X002248Y017906D01*
X002227Y017943D01*
X002210Y017983D01*
X002197Y018024D01*
X002187Y018066D01*
X002181Y018108D01*
X002179Y018151D01*
X017679Y018151D02*
X017681Y018194D01*
X017687Y018236D01*
X017697Y018278D01*
X017710Y018319D01*
X017727Y018359D01*
X017748Y018396D01*
X017772Y018432D01*
X017799Y018465D01*
X017829Y018496D01*
X017862Y018524D01*
X017897Y018549D01*
X017934Y018570D01*
X017973Y018588D01*
X018013Y018602D01*
X018055Y018613D01*
X018097Y018620D01*
X018140Y018623D01*
X018183Y018622D01*
X018226Y018617D01*
X018268Y018608D01*
X018309Y018596D01*
X018349Y018580D01*
X018387Y018560D01*
X018423Y018537D01*
X018457Y018510D01*
X018489Y018481D01*
X018517Y018449D01*
X018543Y018414D01*
X018565Y018378D01*
X018584Y018339D01*
X018599Y018299D01*
X018611Y018258D01*
X018619Y018215D01*
X018623Y018172D01*
X018623Y018130D01*
X018619Y018087D01*
X018611Y018044D01*
X018599Y018003D01*
X018584Y017963D01*
X018565Y017924D01*
X018543Y017888D01*
X018517Y017853D01*
X018489Y017821D01*
X018457Y017792D01*
X018423Y017765D01*
X018387Y017742D01*
X018349Y017722D01*
X018309Y017706D01*
X018268Y017694D01*
X018226Y017685D01*
X018183Y017680D01*
X018140Y017679D01*
X018097Y017682D01*
X018055Y017689D01*
X018013Y017700D01*
X017973Y017714D01*
X017934Y017732D01*
X017897Y017753D01*
X017862Y017778D01*
X017829Y017806D01*
X017799Y017837D01*
X017772Y017870D01*
X017748Y017906D01*
X017727Y017943D01*
X017710Y017983D01*
X017697Y018024D01*
X017687Y018066D01*
X017681Y018108D01*
X017679Y018151D01*
D11*
X017151Y013401D03*
X016151Y013401D03*
X015151Y012401D03*
X014151Y012401D03*
X012901Y011151D03*
X011901Y011151D03*
X010901Y012151D03*
X009901Y012151D03*
X008901Y011151D03*
X007901Y011151D03*
X006651Y012401D03*
X005651Y012401D03*
X004651Y013401D03*
X003651Y013401D03*
X007901Y008651D03*
X008901Y008651D03*
X009901Y007651D03*
X010901Y007651D03*
X011901Y008651D03*
X012901Y008651D03*
X014151Y007401D03*
X015151Y007401D03*
X016151Y006401D03*
X017151Y006401D03*
X017151Y008651D03*
X019151Y008651D03*
X010901Y009901D03*
X009901Y009901D03*
X006651Y007401D03*
X005651Y007401D03*
X004651Y006401D03*
X003651Y006401D03*
X009901Y005151D03*
X010901Y005151D03*
X010901Y002651D03*
X009901Y002651D03*
X009901Y014651D03*
X010901Y014651D03*
X010901Y016901D03*
X009901Y016901D03*
D12*
X015891Y004651D02*
X016411Y004651D01*
X016411Y003651D02*
X015891Y003651D01*
X015891Y002651D02*
X016411Y002651D01*
X016411Y001651D02*
X015891Y001651D01*
X018891Y001651D02*
X019411Y001651D01*
X019411Y002651D02*
X018891Y002651D01*
X018891Y003651D02*
X019411Y003651D01*
X019411Y004651D02*
X018891Y004651D01*
D13*
X003541Y004731D02*
X003541Y004131D01*
X001761Y004131D02*
X001761Y004731D01*
X001761Y002171D02*
X001761Y001571D01*
X003541Y001571D02*
X003541Y002171D01*
D14*
X008161Y019256D03*
X012641Y019256D03*
D15*
X010401Y018401D02*
X009547Y019256D01*
X008161Y019256D01*
X010401Y018401D02*
X015901Y018401D01*
X019151Y015151D01*
X019151Y008651D01*
X019151Y004651D01*
X017151Y006151D02*
X017151Y006401D01*
X017151Y006151D02*
X016651Y005651D01*
X013151Y005651D01*
X012651Y005151D01*
X010901Y005151D01*
X009901Y005151D02*
X009901Y007651D01*
X009901Y008651D01*
X008901Y008651D01*
X007901Y008651D02*
X007901Y008901D01*
X010901Y011901D01*
X010901Y012151D01*
X011401Y011901D02*
X012401Y011901D01*
X012901Y011401D01*
X012901Y011151D01*
X011901Y011151D02*
X011901Y010401D01*
X012151Y010151D01*
X014151Y010151D01*
X014151Y012401D01*
X014151Y015651D01*
X012901Y016901D01*
X010901Y016901D01*
X010901Y014651D02*
X011401Y014151D01*
X011401Y011901D01*
X011401Y010401D01*
X010901Y009901D01*
X010901Y008651D01*
X011901Y008651D01*
X010901Y008651D02*
X009901Y008651D01*
X008901Y010651D02*
X008901Y011151D01*
X008901Y010651D02*
X006651Y008401D01*
X006651Y007401D01*
X004651Y006401D02*
X004651Y009151D01*
X006651Y011151D01*
X006651Y012401D01*
X009901Y005151D02*
X009901Y002651D01*
X010401Y002151D01*
X014151Y002151D01*
X014651Y002651D01*
X016151Y002651D01*
X016151Y006401D02*
X014151Y006401D01*
X014151Y007401D01*
X014151Y010151D01*
X015151Y007401D02*
X017151Y009401D01*
X017151Y013401D01*
D16*
X014151Y006401D03*
D17*
X001422Y001138D02*
X001133Y001138D01*
X001047Y001224D02*
X000922Y001441D01*
X000857Y001683D01*
X000849Y001809D01*
X000849Y018936D01*
X000849Y018994D01*
X000857Y019119D01*
X000922Y019361D01*
X001047Y019578D01*
X001224Y019755D01*
X001441Y019881D01*
X001683Y019946D01*
X001809Y019954D01*
X018994Y019954D01*
X019119Y019946D01*
X019119Y019946D01*
X019361Y019881D01*
X019578Y019755D01*
X019755Y019578D01*
X019881Y019361D01*
X019946Y019119D01*
X019954Y018994D01*
X019954Y018936D01*
X019954Y004779D01*
X019877Y004963D01*
X019723Y005117D01*
X019521Y005201D01*
X019521Y008243D01*
X019701Y008423D01*
X019701Y008879D01*
X019521Y009059D01*
X019521Y015078D01*
X019521Y015225D01*
X019465Y015361D01*
X016215Y018611D01*
X016111Y018715D01*
X015975Y018771D01*
X013003Y018771D01*
X013035Y018795D01*
X013102Y018862D01*
X013158Y018939D01*
X013201Y019024D01*
X013231Y019114D01*
X013245Y019206D01*
X012692Y019206D01*
X012692Y019306D01*
X013245Y019306D01*
X013231Y019397D01*
X013201Y019488D01*
X013158Y019572D01*
X013102Y019649D01*
X013035Y019717D01*
X012958Y019772D01*
X012873Y019816D01*
X012783Y019845D01*
X012691Y019859D01*
X012691Y019306D01*
X012591Y019306D01*
X012591Y019859D01*
X012500Y019845D01*
X012409Y019816D01*
X012325Y019772D01*
X012248Y019717D01*
X012180Y019649D01*
X012125Y019572D01*
X012081Y019488D01*
X012052Y019397D01*
X012037Y019306D01*
X012591Y019306D01*
X012591Y019206D01*
X012037Y019206D01*
X012052Y019114D01*
X012081Y019024D01*
X012125Y018939D01*
X012180Y018862D01*
X012248Y018795D01*
X012280Y018771D01*
X010554Y018771D01*
X009861Y019465D01*
X009756Y019569D01*
X009621Y019626D01*
X008702Y019626D01*
X008526Y019802D01*
X008289Y019900D01*
X008033Y019900D01*
X007796Y019802D01*
X007615Y019621D01*
X007517Y019384D01*
X007517Y019127D01*
X007615Y018891D01*
X007796Y018709D01*
X008033Y018611D01*
X008289Y018611D01*
X008526Y018709D01*
X008702Y018886D01*
X009394Y018886D01*
X010192Y018088D01*
X003414Y018088D01*
X003414Y018000D02*
X003298Y017719D01*
X003083Y017505D01*
X002803Y017389D01*
X002500Y017389D01*
X002219Y017505D01*
X002005Y017719D01*
X001889Y018000D01*
X001889Y018303D01*
X002005Y018583D01*
X002219Y018798D01*
X002500Y018914D01*
X002803Y018914D01*
X003083Y018798D01*
X003298Y018583D01*
X003414Y018303D01*
X003414Y018000D01*
X003409Y017989D02*
X015790Y017989D01*
X015748Y018031D02*
X018781Y014998D01*
X018781Y009059D01*
X018601Y008879D01*
X018601Y008423D01*
X018781Y008243D01*
X018781Y005201D01*
X018580Y005117D01*
X018425Y004963D01*
X018341Y004761D01*
X018341Y004542D01*
X018425Y004340D01*
X018580Y004185D01*
X018661Y004151D01*
X018580Y004117D01*
X018425Y003963D01*
X018341Y003761D01*
X018341Y003542D01*
X018425Y003340D01*
X018580Y003185D01*
X018661Y003151D01*
X018580Y003117D01*
X018425Y002963D01*
X018341Y002761D01*
X018341Y002542D01*
X018425Y002340D01*
X018580Y002185D01*
X018661Y002151D01*
X018580Y002117D01*
X018425Y001963D01*
X018341Y001761D01*
X018341Y001542D01*
X018425Y001340D01*
X018580Y001185D01*
X018782Y001101D01*
X019521Y001101D01*
X019711Y001180D01*
X019578Y001047D01*
X019361Y000922D01*
X019119Y000857D01*
X018994Y000849D01*
X016809Y000849D01*
X016844Y000863D01*
X016939Y000959D01*
X017439Y001459D01*
X017491Y001584D01*
X017491Y001719D01*
X017491Y004219D01*
X017439Y004344D01*
X017344Y004439D01*
X016939Y004844D01*
X016918Y004865D01*
X016877Y004963D01*
X016723Y005117D01*
X016521Y005201D01*
X015782Y005201D01*
X015580Y005117D01*
X015425Y004963D01*
X015341Y004761D01*
X015341Y004542D01*
X015425Y004340D01*
X015580Y004185D01*
X015661Y004151D01*
X015580Y004117D01*
X015425Y003963D01*
X015341Y003761D01*
X015341Y003542D01*
X015425Y003340D01*
X015580Y003185D01*
X015661Y003151D01*
X015580Y003117D01*
X015483Y003021D01*
X014725Y003021D01*
X014578Y003021D01*
X014442Y002965D01*
X013998Y002521D01*
X011451Y002521D01*
X011451Y002879D01*
X011129Y003201D01*
X010673Y003201D01*
X010401Y002929D01*
X010271Y003059D01*
X010271Y004743D01*
X010401Y004873D01*
X010673Y004601D01*
X011129Y004601D01*
X011309Y004781D01*
X012578Y004781D01*
X012725Y004781D01*
X012861Y004838D01*
X013304Y005281D01*
X016578Y005281D01*
X016725Y005281D01*
X016861Y005338D01*
X017361Y005838D01*
X017374Y005851D01*
X017379Y005851D01*
X017701Y006173D01*
X017701Y006629D01*
X017379Y006951D01*
X016923Y006951D01*
X016651Y006679D01*
X016379Y006951D01*
X015923Y006951D01*
X015743Y006771D01*
X014521Y006771D01*
X014521Y006993D01*
X014651Y007123D01*
X014923Y006851D01*
X015379Y006851D01*
X015701Y007173D01*
X015701Y007428D01*
X016677Y008404D01*
X016940Y008141D01*
X017121Y008141D01*
X017121Y008621D01*
X017181Y008621D01*
X017181Y008141D01*
X017362Y008141D01*
X017661Y008440D01*
X017661Y008621D01*
X017181Y008621D01*
X017181Y008681D01*
X017661Y008681D01*
X017661Y008862D01*
X017398Y009125D01*
X017465Y009192D01*
X017521Y009328D01*
X017521Y009475D01*
X017521Y012993D01*
X017701Y013173D01*
X017701Y013629D01*
X017379Y013951D01*
X016923Y013951D01*
X016651Y013679D01*
X016379Y013951D01*
X015923Y013951D01*
X015601Y013629D01*
X015601Y013173D01*
X015923Y012851D01*
X016379Y012851D01*
X016651Y013123D01*
X016781Y012993D01*
X016781Y009554D01*
X015178Y007951D01*
X014923Y007951D01*
X014651Y007679D01*
X014521Y007809D01*
X014521Y010078D01*
X014521Y010225D01*
X014521Y011993D01*
X014651Y012123D01*
X014923Y011851D01*
X015379Y011851D01*
X015701Y012173D01*
X015701Y012629D01*
X015379Y012951D01*
X014923Y012951D01*
X014651Y012679D01*
X014521Y012809D01*
X014521Y015578D01*
X014521Y015725D01*
X014465Y015861D01*
X013111Y017215D01*
X012975Y017271D01*
X012828Y017271D01*
X011309Y017271D01*
X011129Y017451D01*
X010673Y017451D01*
X010401Y017179D01*
X010129Y017451D01*
X009673Y017451D01*
X009351Y017129D01*
X009351Y016673D01*
X009673Y016351D01*
X010129Y016351D01*
X010401Y016623D01*
X010673Y016351D01*
X011129Y016351D01*
X011309Y016531D01*
X012748Y016531D01*
X013781Y015498D01*
X013781Y012809D01*
X013601Y012629D01*
X013601Y012173D01*
X013781Y011993D01*
X013781Y010521D01*
X012304Y010521D01*
X012271Y010554D01*
X012271Y010743D01*
X012401Y010873D01*
X012673Y010601D01*
X013129Y010601D01*
X013451Y010923D01*
X013451Y011379D01*
X013129Y011701D01*
X013124Y011701D01*
X012715Y012111D01*
X012611Y012215D01*
X012475Y012271D01*
X011771Y012271D01*
X011771Y014225D01*
X011715Y014361D01*
X011611Y014465D01*
X011451Y014624D01*
X011451Y014879D01*
X011129Y015201D01*
X010673Y015201D01*
X010401Y014929D01*
X010129Y015201D01*
X009673Y015201D01*
X009351Y014879D01*
X009351Y014423D01*
X009673Y014101D01*
X010129Y014101D01*
X010401Y014373D01*
X010673Y014101D01*
X010928Y014101D01*
X011031Y013998D01*
X011031Y012701D01*
X010673Y012701D01*
X010401Y012429D01*
X010129Y012701D01*
X009673Y012701D01*
X009351Y012379D01*
X009351Y011923D01*
X009673Y011601D01*
X010078Y011601D01*
X009451Y010974D01*
X009451Y011379D01*
X009129Y011701D01*
X008673Y011701D01*
X008401Y011429D01*
X008129Y011701D01*
X007673Y011701D01*
X007351Y011379D01*
X007351Y010923D01*
X007673Y010601D01*
X008129Y010601D01*
X008401Y010873D01*
X008501Y010774D01*
X006338Y008611D01*
X006281Y008475D01*
X006281Y008328D01*
X006281Y007809D01*
X006151Y007679D01*
X005879Y007951D01*
X005423Y007951D01*
X005101Y007629D01*
X005101Y007173D01*
X005423Y006851D01*
X005879Y006851D01*
X006151Y007123D01*
X006423Y006851D01*
X006879Y006851D01*
X007201Y007173D01*
X007201Y007629D01*
X007021Y007809D01*
X007021Y008248D01*
X007351Y008578D01*
X007351Y008423D01*
X007673Y008101D01*
X008129Y008101D01*
X008401Y008373D01*
X008673Y008101D01*
X009129Y008101D01*
X009309Y008281D01*
X009531Y008281D01*
X009531Y008059D01*
X009351Y007879D01*
X009351Y007423D01*
X009531Y007243D01*
X009531Y005559D01*
X009351Y005379D01*
X009351Y004923D01*
X009531Y004743D01*
X009531Y003059D01*
X009351Y002879D01*
X009351Y002423D01*
X009673Y002101D01*
X009928Y002101D01*
X010192Y001838D01*
X010328Y001781D01*
X010475Y001781D01*
X014225Y001781D01*
X014361Y001838D01*
X014465Y001942D01*
X014804Y002281D01*
X015483Y002281D01*
X015580Y002185D01*
X015713Y002130D01*
X015695Y002124D01*
X014647Y002124D01*
X014745Y002222D02*
X015543Y002222D01*
X015624Y002087D02*
X015559Y002040D01*
X015502Y001983D01*
X015455Y001919D01*
X015419Y001847D01*
X015394Y001771D01*
X015381Y001691D01*
X015381Y001681D01*
X016121Y001681D01*
X016121Y001621D01*
X015381Y001621D01*
X015381Y001611D01*
X015394Y001532D01*
X015407Y001491D01*
X004402Y001491D01*
X004131Y001762D01*
X004131Y002289D01*
X004041Y002505D01*
X003881Y002666D01*
X003881Y003637D01*
X004041Y003797D01*
X004131Y004014D01*
X004131Y004849D01*
X004041Y005065D01*
X003875Y005231D01*
X003659Y005321D01*
X003424Y005321D01*
X003207Y005231D01*
X003041Y005065D01*
X002951Y004849D01*
X002951Y004014D01*
X003041Y003797D01*
X003201Y003637D01*
X003201Y002666D01*
X003041Y002505D01*
X002951Y002289D01*
X002951Y001454D01*
X003041Y001237D01*
X003207Y001071D01*
X003424Y000981D01*
X003659Y000981D01*
X003865Y001067D01*
X004069Y000863D01*
X004103Y000849D01*
X001866Y000849D01*
X001809Y000849D01*
X001683Y000857D01*
X001441Y000922D01*
X001224Y001047D01*
X001047Y001224D01*
X001040Y001237D02*
X001324Y001237D01*
X001342Y001213D02*
X001403Y001152D01*
X001473Y001101D01*
X001550Y001062D01*
X001632Y001035D01*
X001711Y001022D01*
X001711Y001821D01*
X001811Y001821D01*
X001811Y001022D01*
X001890Y001035D01*
X001972Y001062D01*
X002049Y001101D01*
X002120Y001152D01*
X002181Y001213D01*
X002232Y001283D01*
X002271Y001360D01*
X002298Y001442D01*
X002311Y001528D01*
X002311Y001821D01*
X001811Y001821D01*
X001811Y001921D01*
X002311Y001921D01*
X002311Y002215D01*
X002298Y002300D01*
X002271Y002382D01*
X002232Y002459D01*
X002181Y002530D01*
X002120Y002591D01*
X002049Y002642D01*
X001972Y002681D01*
X001890Y002708D01*
X001811Y002720D01*
X001811Y001921D01*
X001711Y001921D01*
X001711Y001821D01*
X001211Y001821D01*
X001211Y001528D01*
X001225Y001442D01*
X001252Y001360D01*
X001291Y001283D01*
X001342Y001213D01*
X001264Y001335D02*
X000983Y001335D01*
X000926Y001434D02*
X001228Y001434D01*
X001211Y001532D02*
X000897Y001532D01*
X000871Y001631D02*
X001211Y001631D01*
X001211Y001729D02*
X000854Y001729D01*
X000849Y001828D02*
X001711Y001828D01*
X001711Y001921D02*
X001211Y001921D01*
X001211Y002215D01*
X001225Y002300D01*
X001252Y002382D01*
X001291Y002459D01*
X001342Y002530D01*
X001403Y002591D01*
X001473Y002642D01*
X001550Y002681D01*
X001632Y002708D01*
X001711Y002720D01*
X001711Y001921D01*
X001711Y001927D02*
X001811Y001927D01*
X001811Y002025D02*
X001711Y002025D01*
X001711Y002124D02*
X001811Y002124D01*
X001811Y002222D02*
X001711Y002222D01*
X001711Y002321D02*
X001811Y002321D01*
X001811Y002419D02*
X001711Y002419D01*
X001711Y002518D02*
X001811Y002518D01*
X001811Y002616D02*
X001711Y002616D01*
X001711Y002715D02*
X001811Y002715D01*
X001845Y002715D02*
X003201Y002715D01*
X003201Y002813D02*
X000849Y002813D01*
X000849Y002715D02*
X001678Y002715D01*
X001438Y002616D02*
X000849Y002616D01*
X000849Y002518D02*
X001333Y002518D01*
X001270Y002419D02*
X000849Y002419D01*
X000849Y002321D02*
X001232Y002321D01*
X001212Y002222D02*
X000849Y002222D01*
X000849Y002124D02*
X001211Y002124D01*
X001211Y002025D02*
X000849Y002025D01*
X000849Y001927D02*
X001211Y001927D01*
X001711Y001729D02*
X001811Y001729D01*
X001811Y001631D02*
X001711Y001631D01*
X001711Y001532D02*
X001811Y001532D01*
X001811Y001434D02*
X001711Y001434D01*
X001711Y001335D02*
X001811Y001335D01*
X001811Y001237D02*
X001711Y001237D01*
X001711Y001138D02*
X001811Y001138D01*
X001811Y001040D02*
X001711Y001040D01*
X001618Y001040D02*
X001237Y001040D01*
X001408Y000941D02*
X003991Y000941D01*
X003892Y001040D02*
X003800Y001040D01*
X004261Y001151D02*
X003541Y001871D01*
X003541Y004431D01*
X004131Y004390D02*
X009531Y004390D01*
X009531Y004292D02*
X004131Y004292D01*
X004131Y004193D02*
X009531Y004193D01*
X009531Y004094D02*
X004131Y004094D01*
X004124Y003996D02*
X009531Y003996D01*
X009531Y003897D02*
X004083Y003897D01*
X004042Y003799D02*
X009531Y003799D01*
X009531Y003700D02*
X003945Y003700D01*
X003881Y003602D02*
X009531Y003602D01*
X009531Y003503D02*
X003881Y003503D01*
X003881Y003405D02*
X009531Y003405D01*
X009531Y003306D02*
X003881Y003306D01*
X003881Y003208D02*
X009531Y003208D01*
X009531Y003109D02*
X003881Y003109D01*
X003881Y003011D02*
X009483Y003011D01*
X009384Y002912D02*
X003881Y002912D01*
X003881Y002813D02*
X009351Y002813D01*
X009351Y002715D02*
X003881Y002715D01*
X003931Y002616D02*
X009351Y002616D01*
X009351Y002518D02*
X004029Y002518D01*
X004077Y002419D02*
X009355Y002419D01*
X009454Y002321D02*
X004118Y002321D01*
X004131Y002222D02*
X009553Y002222D01*
X009651Y002124D02*
X004131Y002124D01*
X004131Y002025D02*
X010004Y002025D01*
X010103Y001927D02*
X004131Y001927D01*
X004131Y001828D02*
X010215Y001828D01*
X010320Y003011D02*
X010483Y003011D01*
X010581Y003109D02*
X010271Y003109D01*
X010271Y003208D02*
X015557Y003208D01*
X015571Y003109D02*
X011221Y003109D01*
X011320Y003011D02*
X014552Y003011D01*
X014389Y002912D02*
X011418Y002912D01*
X011451Y002813D02*
X014290Y002813D01*
X014192Y002715D02*
X011451Y002715D01*
X011451Y002616D02*
X014093Y002616D01*
X014548Y002025D02*
X015544Y002025D01*
X015624Y002087D02*
X015695Y002124D01*
X015461Y001927D02*
X014450Y001927D01*
X014338Y001828D02*
X015412Y001828D01*
X015387Y001729D02*
X004164Y001729D01*
X004262Y001631D02*
X016121Y001631D01*
X016651Y001151D02*
X004261Y001151D01*
X004361Y001532D02*
X015394Y001532D01*
X016651Y001151D02*
X017151Y001651D01*
X017151Y004151D01*
X016651Y004651D01*
X016151Y004651D01*
X015727Y005178D02*
X013202Y005178D01*
X013103Y005080D02*
X015542Y005080D01*
X015444Y004981D02*
X013005Y004981D01*
X012906Y004883D02*
X015392Y004883D01*
X015351Y004784D02*
X012732Y004784D01*
X013300Y005277D02*
X018781Y005277D01*
X018781Y005376D02*
X016899Y005376D01*
X016997Y005474D02*
X018781Y005474D01*
X018781Y005573D02*
X017096Y005573D01*
X017194Y005671D02*
X018781Y005671D01*
X018781Y005770D02*
X017293Y005770D01*
X017396Y005868D02*
X018781Y005868D01*
X018781Y005967D02*
X017495Y005967D01*
X017593Y006065D02*
X018781Y006065D01*
X018781Y006164D02*
X017692Y006164D01*
X017701Y006262D02*
X018781Y006262D01*
X018781Y006361D02*
X017701Y006361D01*
X017701Y006460D02*
X018781Y006460D01*
X018781Y006558D02*
X017701Y006558D01*
X017674Y006657D02*
X018781Y006657D01*
X018781Y006755D02*
X017575Y006755D01*
X017477Y006854D02*
X018781Y006854D01*
X018781Y006952D02*
X015480Y006952D01*
X015381Y006854D02*
X015826Y006854D01*
X015579Y007051D02*
X018781Y007051D01*
X018781Y007149D02*
X015677Y007149D01*
X015701Y007248D02*
X018781Y007248D01*
X018781Y007346D02*
X015701Y007346D01*
X015718Y007445D02*
X018781Y007445D01*
X018781Y007544D02*
X015817Y007544D01*
X015915Y007642D02*
X018781Y007642D01*
X018781Y007741D02*
X016014Y007741D01*
X016112Y007839D02*
X018781Y007839D01*
X018781Y007938D02*
X016211Y007938D01*
X016309Y008036D02*
X018781Y008036D01*
X018781Y008135D02*
X016408Y008135D01*
X016506Y008233D02*
X016848Y008233D01*
X016749Y008332D02*
X016605Y008332D01*
X016051Y008825D02*
X014521Y008825D01*
X014521Y008923D02*
X016150Y008923D01*
X016248Y009022D02*
X014521Y009022D01*
X014521Y009120D02*
X016347Y009120D01*
X016446Y009219D02*
X014521Y009219D01*
X014521Y009317D02*
X016544Y009317D01*
X016643Y009416D02*
X014521Y009416D01*
X014521Y009514D02*
X016741Y009514D01*
X016781Y009613D02*
X014521Y009613D01*
X014521Y009711D02*
X016781Y009711D01*
X016781Y009810D02*
X014521Y009810D01*
X014521Y009909D02*
X016781Y009909D01*
X016781Y010007D02*
X014521Y010007D01*
X014521Y010106D02*
X016781Y010106D01*
X016781Y010204D02*
X014521Y010204D01*
X014521Y010303D02*
X016781Y010303D01*
X016781Y010401D02*
X014521Y010401D01*
X014521Y010500D02*
X016781Y010500D01*
X016781Y010598D02*
X014521Y010598D01*
X014521Y010697D02*
X016781Y010697D01*
X016781Y010795D02*
X014521Y010795D01*
X014521Y010894D02*
X016781Y010894D01*
X016781Y010993D02*
X014521Y010993D01*
X014521Y011091D02*
X016781Y011091D01*
X016781Y011190D02*
X014521Y011190D01*
X014521Y011288D02*
X016781Y011288D01*
X016781Y011387D02*
X014521Y011387D01*
X014521Y011485D02*
X016781Y011485D01*
X016781Y011584D02*
X014521Y011584D01*
X014521Y011682D02*
X016781Y011682D01*
X016781Y011781D02*
X014521Y011781D01*
X014521Y011879D02*
X014895Y011879D01*
X014797Y011978D02*
X014521Y011978D01*
X014604Y012076D02*
X014698Y012076D01*
X014739Y012766D02*
X014564Y012766D01*
X014521Y012865D02*
X014837Y012865D01*
X014521Y012963D02*
X015811Y012963D01*
X015910Y012865D02*
X015465Y012865D01*
X015564Y012766D02*
X016781Y012766D01*
X016781Y012668D02*
X015663Y012668D01*
X015701Y012569D02*
X016781Y012569D01*
X016781Y012471D02*
X015701Y012471D01*
X015701Y012372D02*
X016781Y012372D01*
X016781Y012274D02*
X015701Y012274D01*
X015701Y012175D02*
X016781Y012175D01*
X016781Y012076D02*
X015604Y012076D01*
X015506Y011978D02*
X016781Y011978D01*
X016781Y011879D02*
X015407Y011879D01*
X016393Y012865D02*
X016781Y012865D01*
X016781Y012963D02*
X016491Y012963D01*
X016590Y013062D02*
X016713Y013062D01*
X016724Y013752D02*
X016579Y013752D01*
X016480Y013850D02*
X016823Y013850D01*
X016921Y013949D02*
X016381Y013949D01*
X015921Y013949D02*
X014521Y013949D01*
X014521Y014047D02*
X018781Y014047D01*
X018781Y013949D02*
X017381Y013949D01*
X017480Y013850D02*
X018781Y013850D01*
X018781Y013752D02*
X017579Y013752D01*
X017677Y013653D02*
X018781Y013653D01*
X018781Y013555D02*
X017701Y013555D01*
X017701Y013456D02*
X018781Y013456D01*
X018781Y013358D02*
X017701Y013358D01*
X017701Y013259D02*
X018781Y013259D01*
X018781Y013160D02*
X017688Y013160D01*
X017590Y013062D02*
X018781Y013062D01*
X018781Y012963D02*
X017521Y012963D01*
X017521Y012865D02*
X018781Y012865D01*
X018781Y012766D02*
X017521Y012766D01*
X017521Y012668D02*
X018781Y012668D01*
X018781Y012569D02*
X017521Y012569D01*
X017521Y012471D02*
X018781Y012471D01*
X018781Y012372D02*
X017521Y012372D01*
X017521Y012274D02*
X018781Y012274D01*
X018781Y012175D02*
X017521Y012175D01*
X017521Y012076D02*
X018781Y012076D01*
X018781Y011978D02*
X017521Y011978D01*
X017521Y011879D02*
X018781Y011879D01*
X018781Y011781D02*
X017521Y011781D01*
X017521Y011682D02*
X018781Y011682D01*
X018781Y011584D02*
X017521Y011584D01*
X017521Y011485D02*
X018781Y011485D01*
X018781Y011387D02*
X017521Y011387D01*
X017521Y011288D02*
X018781Y011288D01*
X018781Y011190D02*
X017521Y011190D01*
X017521Y011091D02*
X018781Y011091D01*
X018781Y010993D02*
X017521Y010993D01*
X017521Y010894D02*
X018781Y010894D01*
X018781Y010795D02*
X017521Y010795D01*
X017521Y010697D02*
X018781Y010697D01*
X018781Y010598D02*
X017521Y010598D01*
X017521Y010500D02*
X018781Y010500D01*
X018781Y010401D02*
X017521Y010401D01*
X017521Y010303D02*
X018781Y010303D01*
X018781Y010204D02*
X017521Y010204D01*
X017521Y010106D02*
X018781Y010106D01*
X018781Y010007D02*
X017521Y010007D01*
X017521Y009909D02*
X018781Y009909D01*
X018781Y009810D02*
X017521Y009810D01*
X017521Y009711D02*
X018781Y009711D01*
X018781Y009613D02*
X017521Y009613D01*
X017521Y009514D02*
X018781Y009514D01*
X018781Y009416D02*
X017521Y009416D01*
X017517Y009317D02*
X018781Y009317D01*
X018781Y009219D02*
X017476Y009219D01*
X017404Y009120D02*
X018781Y009120D01*
X018744Y009022D02*
X017502Y009022D01*
X017601Y008923D02*
X018645Y008923D01*
X018601Y008825D02*
X017661Y008825D01*
X017661Y008726D02*
X018601Y008726D01*
X018601Y008627D02*
X017181Y008627D01*
X017181Y008529D02*
X017121Y008529D01*
X017121Y008430D02*
X017181Y008430D01*
X017181Y008332D02*
X017121Y008332D01*
X017121Y008233D02*
X017181Y008233D01*
X017455Y008233D02*
X018781Y008233D01*
X018693Y008332D02*
X017553Y008332D01*
X017652Y008430D02*
X018601Y008430D01*
X018601Y008529D02*
X017661Y008529D01*
X015953Y008726D02*
X014521Y008726D01*
X014521Y008627D02*
X015854Y008627D01*
X015756Y008529D02*
X014521Y008529D01*
X014521Y008430D02*
X015657Y008430D01*
X015559Y008332D02*
X014521Y008332D01*
X014521Y008233D02*
X015460Y008233D01*
X015362Y008135D02*
X014521Y008135D01*
X014521Y008036D02*
X015263Y008036D01*
X014910Y007938D02*
X014521Y007938D01*
X014521Y007839D02*
X014811Y007839D01*
X014713Y007741D02*
X014590Y007741D01*
X014579Y007051D02*
X014724Y007051D01*
X014822Y006952D02*
X014521Y006952D01*
X014521Y006854D02*
X014921Y006854D01*
X016477Y006854D02*
X016826Y006854D01*
X016727Y006755D02*
X016575Y006755D01*
X016576Y005178D02*
X018727Y005178D01*
X018542Y005080D02*
X016760Y005080D01*
X016859Y004981D02*
X018444Y004981D01*
X018392Y004883D02*
X016911Y004883D01*
X016999Y004784D02*
X018351Y004784D01*
X018341Y004686D02*
X017098Y004686D01*
X017196Y004587D02*
X018341Y004587D01*
X018363Y004489D02*
X017295Y004489D01*
X017393Y004390D02*
X018404Y004390D01*
X018473Y004292D02*
X017461Y004292D01*
X017491Y004193D02*
X018572Y004193D01*
X018557Y004094D02*
X017491Y004094D01*
X017491Y003996D02*
X018458Y003996D01*
X018398Y003897D02*
X017491Y003897D01*
X017491Y003799D02*
X018357Y003799D01*
X018341Y003700D02*
X017491Y003700D01*
X017491Y003602D02*
X018341Y003602D01*
X018357Y003503D02*
X017491Y003503D01*
X017491Y003405D02*
X018398Y003405D01*
X018459Y003306D02*
X017491Y003306D01*
X017491Y003208D02*
X018557Y003208D01*
X018571Y003109D02*
X017491Y003109D01*
X017491Y003011D02*
X018473Y003011D01*
X018404Y002912D02*
X017491Y002912D01*
X017491Y002813D02*
X018363Y002813D01*
X018341Y002715D02*
X017491Y002715D01*
X017491Y002616D02*
X018341Y002616D01*
X018351Y002518D02*
X017491Y002518D01*
X017491Y002419D02*
X018392Y002419D01*
X018444Y002321D02*
X017491Y002321D01*
X017491Y002222D02*
X018543Y002222D01*
X018595Y002124D02*
X017491Y002124D01*
X017491Y002025D02*
X018487Y002025D01*
X018410Y001927D02*
X017491Y001927D01*
X017491Y001828D02*
X018369Y001828D01*
X018341Y001729D02*
X017491Y001729D01*
X017491Y001631D02*
X018341Y001631D01*
X018345Y001532D02*
X017470Y001532D01*
X017415Y001434D02*
X018386Y001434D01*
X018429Y001335D02*
X017316Y001335D01*
X017218Y001237D02*
X018528Y001237D01*
X018693Y001138D02*
X017119Y001138D01*
X017020Y001040D02*
X019565Y001040D01*
X019610Y001138D02*
X019669Y001138D01*
X019395Y000941D02*
X016922Y000941D01*
X015459Y003306D02*
X010271Y003306D01*
X010271Y003405D02*
X015398Y003405D01*
X015357Y003503D02*
X010271Y003503D01*
X010271Y003602D02*
X015341Y003602D01*
X015341Y003700D02*
X010271Y003700D01*
X010271Y003799D02*
X015357Y003799D01*
X015398Y003897D02*
X010271Y003897D01*
X010271Y003996D02*
X015458Y003996D01*
X015557Y004094D02*
X010271Y004094D01*
X010271Y004193D02*
X015572Y004193D01*
X015473Y004292D02*
X010271Y004292D01*
X010271Y004390D02*
X015404Y004390D01*
X015363Y004489D02*
X010271Y004489D01*
X010271Y004587D02*
X015341Y004587D01*
X015341Y004686D02*
X011214Y004686D01*
X010589Y004686D02*
X010271Y004686D01*
X010312Y004784D02*
X010490Y004784D01*
X009531Y004686D02*
X004131Y004686D01*
X004131Y004784D02*
X009490Y004784D01*
X009392Y004883D02*
X004117Y004883D01*
X004076Y004981D02*
X009351Y004981D01*
X009351Y005080D02*
X004027Y005080D01*
X003928Y005178D02*
X009351Y005178D01*
X009351Y005277D02*
X003765Y005277D01*
X003317Y005277D02*
X001831Y005277D01*
X001811Y005277D02*
X001711Y005277D01*
X001711Y005280D02*
X001632Y005268D01*
X001550Y005241D01*
X001473Y005202D01*
X001403Y005151D01*
X001342Y005090D01*
X001291Y005019D01*
X001252Y004942D01*
X001225Y004860D01*
X001211Y004775D01*
X001211Y004481D01*
X001711Y004481D01*
X001711Y004381D01*
X001811Y004381D01*
X001811Y003582D01*
X001890Y003595D01*
X001972Y003622D01*
X002049Y003661D01*
X002120Y003712D01*
X002181Y003773D01*
X002232Y003843D01*
X002271Y003920D01*
X002298Y004002D01*
X002311Y004088D01*
X002311Y004381D01*
X001811Y004381D01*
X001811Y004481D01*
X002311Y004481D01*
X002311Y004775D01*
X002298Y004860D01*
X002271Y004942D01*
X002232Y005019D01*
X002181Y005090D01*
X002120Y005151D01*
X002049Y005202D01*
X001972Y005241D01*
X001890Y005268D01*
X001811Y005280D01*
X001811Y004481D01*
X001711Y004481D01*
X001711Y005280D01*
X001691Y005277D02*
X000849Y005277D01*
X000849Y005376D02*
X009351Y005376D01*
X009446Y005474D02*
X000849Y005474D01*
X000849Y005573D02*
X009531Y005573D01*
X009531Y005671D02*
X000849Y005671D01*
X000849Y005770D02*
X009531Y005770D01*
X009531Y005868D02*
X004896Y005868D01*
X004879Y005851D02*
X005201Y006173D01*
X005201Y006629D01*
X005021Y006809D01*
X005021Y008998D01*
X006861Y010838D01*
X006965Y010942D01*
X007021Y011078D01*
X007021Y011993D01*
X007201Y012173D01*
X007201Y012629D01*
X006879Y012951D01*
X006423Y012951D01*
X006151Y012679D01*
X005879Y012951D01*
X005423Y012951D01*
X005101Y012629D01*
X005101Y012173D01*
X005423Y011851D01*
X005879Y011851D01*
X006151Y012123D01*
X006281Y011993D01*
X006281Y011304D01*
X004338Y009361D01*
X004281Y009225D01*
X004281Y009078D01*
X004281Y006809D01*
X004151Y006679D01*
X003879Y006951D01*
X003423Y006951D01*
X003101Y006629D01*
X003101Y006173D01*
X003423Y005851D01*
X003879Y005851D01*
X004151Y006123D01*
X004423Y005851D01*
X004879Y005851D01*
X004995Y005967D02*
X009531Y005967D01*
X009531Y006065D02*
X005093Y006065D01*
X005192Y006164D02*
X009531Y006164D01*
X009531Y006262D02*
X005201Y006262D01*
X005201Y006361D02*
X009531Y006361D01*
X009531Y006460D02*
X005201Y006460D01*
X005201Y006558D02*
X009531Y006558D01*
X009531Y006657D02*
X005174Y006657D01*
X005075Y006755D02*
X009531Y006755D01*
X009531Y006854D02*
X006881Y006854D01*
X006980Y006952D02*
X009531Y006952D01*
X009531Y007051D02*
X007079Y007051D01*
X007177Y007149D02*
X009531Y007149D01*
X009527Y007248D02*
X007201Y007248D01*
X007201Y007346D02*
X009428Y007346D01*
X009351Y007445D02*
X007201Y007445D01*
X007201Y007544D02*
X009351Y007544D01*
X009351Y007642D02*
X007188Y007642D01*
X007090Y007741D02*
X009351Y007741D01*
X009351Y007839D02*
X007021Y007839D01*
X007021Y007938D02*
X009410Y007938D01*
X009508Y008036D02*
X007021Y008036D01*
X007021Y008135D02*
X007640Y008135D01*
X007541Y008233D02*
X007021Y008233D01*
X007105Y008332D02*
X007443Y008332D01*
X007351Y008430D02*
X007204Y008430D01*
X007302Y008529D02*
X007351Y008529D01*
X006847Y009120D02*
X005143Y009120D01*
X005045Y009022D02*
X006748Y009022D01*
X006650Y008923D02*
X005021Y008923D01*
X005021Y008825D02*
X006551Y008825D01*
X006453Y008726D02*
X005021Y008726D01*
X005021Y008627D02*
X006354Y008627D01*
X006304Y008529D02*
X005021Y008529D01*
X005021Y008430D02*
X006281Y008430D01*
X006281Y008332D02*
X005021Y008332D01*
X005021Y008233D02*
X006281Y008233D01*
X006281Y008135D02*
X005021Y008135D01*
X005021Y008036D02*
X006281Y008036D01*
X006281Y007938D02*
X005893Y007938D01*
X005991Y007839D02*
X006281Y007839D01*
X006213Y007741D02*
X006090Y007741D01*
X005410Y007938D02*
X005021Y007938D01*
X005021Y007839D02*
X005311Y007839D01*
X005213Y007741D02*
X005021Y007741D01*
X005021Y007642D02*
X005114Y007642D01*
X005101Y007544D02*
X005021Y007544D01*
X005021Y007445D02*
X005101Y007445D01*
X005101Y007346D02*
X005021Y007346D01*
X005021Y007248D02*
X005101Y007248D01*
X005125Y007149D02*
X005021Y007149D01*
X005021Y007051D02*
X005224Y007051D01*
X005322Y006952D02*
X005021Y006952D01*
X005021Y006854D02*
X005421Y006854D01*
X005881Y006854D02*
X006421Y006854D01*
X006322Y006952D02*
X005980Y006952D01*
X006079Y007051D02*
X006224Y007051D01*
X004406Y005868D02*
X003896Y005868D01*
X003995Y005967D02*
X004308Y005967D01*
X004209Y006065D02*
X004093Y006065D01*
X004075Y006755D02*
X004227Y006755D01*
X004281Y006854D02*
X003977Y006854D01*
X004281Y006952D02*
X000849Y006952D01*
X000849Y006854D02*
X003326Y006854D01*
X003227Y006755D02*
X000849Y006755D01*
X000849Y006657D02*
X003129Y006657D01*
X003101Y006558D02*
X000849Y006558D01*
X000849Y006460D02*
X003101Y006460D01*
X003101Y006361D02*
X000849Y006361D01*
X000849Y006262D02*
X003101Y006262D01*
X003111Y006164D02*
X000849Y006164D01*
X000849Y006065D02*
X003209Y006065D01*
X003308Y005967D02*
X000849Y005967D01*
X000849Y005868D02*
X003406Y005868D01*
X003154Y005178D02*
X002081Y005178D01*
X002188Y005080D02*
X003056Y005080D01*
X003006Y004981D02*
X002251Y004981D01*
X002290Y004883D02*
X002965Y004883D01*
X002951Y004784D02*
X002310Y004784D01*
X002311Y004686D02*
X002951Y004686D01*
X002951Y004587D02*
X002311Y004587D01*
X002311Y004489D02*
X002951Y004489D01*
X002951Y004390D02*
X001811Y004390D01*
X001811Y004292D02*
X001711Y004292D01*
X001711Y004381D02*
X001711Y003582D01*
X001632Y003595D01*
X001550Y003622D01*
X001473Y003661D01*
X001403Y003712D01*
X001342Y003773D01*
X001291Y003843D01*
X001252Y003920D01*
X001225Y004002D01*
X001211Y004088D01*
X001211Y004381D01*
X001711Y004381D01*
X001711Y004390D02*
X000849Y004390D01*
X000849Y004292D02*
X001211Y004292D01*
X001211Y004193D02*
X000849Y004193D01*
X000849Y004094D02*
X001211Y004094D01*
X001227Y003996D02*
X000849Y003996D01*
X000849Y003897D02*
X001263Y003897D01*
X001323Y003799D02*
X000849Y003799D01*
X000849Y003700D02*
X001419Y003700D01*
X001611Y003602D02*
X000849Y003602D01*
X000849Y003503D02*
X003201Y003503D01*
X003201Y003405D02*
X000849Y003405D01*
X000849Y003306D02*
X003201Y003306D01*
X003201Y003208D02*
X000849Y003208D01*
X000849Y003109D02*
X003201Y003109D01*
X003201Y003011D02*
X000849Y003011D01*
X000849Y002912D02*
X003201Y002912D01*
X003152Y002616D02*
X002084Y002616D01*
X002189Y002518D02*
X003053Y002518D01*
X003005Y002419D02*
X002252Y002419D01*
X002291Y002321D02*
X002965Y002321D01*
X002951Y002222D02*
X002310Y002222D01*
X002311Y002124D02*
X002951Y002124D01*
X002951Y002025D02*
X002311Y002025D01*
X002311Y001927D02*
X002951Y001927D01*
X002951Y001828D02*
X001811Y001828D01*
X002258Y001335D02*
X003000Y001335D01*
X003041Y001237D02*
X002198Y001237D01*
X002101Y001138D02*
X003140Y001138D01*
X003283Y001040D02*
X001905Y001040D01*
X002295Y001434D02*
X002960Y001434D01*
X002951Y001532D02*
X002311Y001532D01*
X002311Y001631D02*
X002951Y001631D01*
X002951Y001729D02*
X002311Y001729D01*
X001911Y003602D02*
X003201Y003602D01*
X003138Y003700D02*
X002104Y003700D01*
X002200Y003799D02*
X003040Y003799D01*
X002999Y003897D02*
X002259Y003897D01*
X002296Y003996D02*
X002959Y003996D01*
X002951Y004094D02*
X002311Y004094D01*
X002311Y004193D02*
X002951Y004193D01*
X002951Y004292D02*
X002311Y004292D01*
X001811Y004193D02*
X001711Y004193D01*
X001711Y004094D02*
X001811Y004094D01*
X001811Y003996D02*
X001711Y003996D01*
X001711Y003897D02*
X001811Y003897D01*
X001811Y003799D02*
X001711Y003799D01*
X001711Y003700D02*
X001811Y003700D01*
X001811Y003602D02*
X001711Y003602D01*
X001711Y004489D02*
X001811Y004489D01*
X001811Y004587D02*
X001711Y004587D01*
X001711Y004686D02*
X001811Y004686D01*
X001811Y004784D02*
X001711Y004784D01*
X001711Y004883D02*
X001811Y004883D01*
X001811Y004981D02*
X001711Y004981D01*
X001711Y005080D02*
X001811Y005080D01*
X001811Y005178D02*
X001711Y005178D01*
X001441Y005178D02*
X000849Y005178D01*
X000849Y005080D02*
X001335Y005080D01*
X001271Y004981D02*
X000849Y004981D01*
X000849Y004883D02*
X001232Y004883D01*
X001213Y004784D02*
X000849Y004784D01*
X000849Y004686D02*
X001211Y004686D01*
X001211Y004587D02*
X000849Y004587D01*
X000849Y004489D02*
X001211Y004489D01*
X000849Y007051D02*
X004281Y007051D01*
X004281Y007149D02*
X000849Y007149D01*
X000849Y007248D02*
X004281Y007248D01*
X004281Y007346D02*
X000849Y007346D01*
X000849Y007445D02*
X004281Y007445D01*
X004281Y007544D02*
X000849Y007544D01*
X000849Y007642D02*
X004281Y007642D01*
X004281Y007741D02*
X000849Y007741D01*
X000849Y007839D02*
X004281Y007839D01*
X004281Y007938D02*
X000849Y007938D01*
X000849Y008036D02*
X004281Y008036D01*
X004281Y008135D02*
X000849Y008135D01*
X000849Y008233D02*
X004281Y008233D01*
X004281Y008332D02*
X000849Y008332D01*
X000849Y008430D02*
X004281Y008430D01*
X004281Y008529D02*
X000849Y008529D01*
X000849Y008627D02*
X004281Y008627D01*
X004281Y008726D02*
X000849Y008726D01*
X000849Y008825D02*
X004281Y008825D01*
X004281Y008923D02*
X000849Y008923D01*
X000849Y009022D02*
X004281Y009022D01*
X004281Y009120D02*
X000849Y009120D01*
X000849Y009219D02*
X004281Y009219D01*
X004320Y009317D02*
X000849Y009317D01*
X000849Y009416D02*
X004393Y009416D01*
X004491Y009514D02*
X000849Y009514D01*
X000849Y009613D02*
X004590Y009613D01*
X004688Y009711D02*
X000849Y009711D01*
X000849Y009810D02*
X004787Y009810D01*
X004885Y009909D02*
X000849Y009909D01*
X000849Y010007D02*
X004984Y010007D01*
X005082Y010106D02*
X000849Y010106D01*
X000849Y010204D02*
X005181Y010204D01*
X005279Y010303D02*
X000849Y010303D01*
X000849Y010401D02*
X005378Y010401D01*
X005477Y010500D02*
X000849Y010500D01*
X000849Y010598D02*
X005575Y010598D01*
X005674Y010697D02*
X000849Y010697D01*
X000849Y010795D02*
X005772Y010795D01*
X005871Y010894D02*
X000849Y010894D01*
X000849Y010993D02*
X005969Y010993D01*
X006068Y011091D02*
X000849Y011091D01*
X000849Y011190D02*
X006166Y011190D01*
X006265Y011288D02*
X000849Y011288D01*
X000849Y011387D02*
X006281Y011387D01*
X006281Y011485D02*
X000849Y011485D01*
X000849Y011584D02*
X006281Y011584D01*
X006281Y011682D02*
X000849Y011682D01*
X000849Y011781D02*
X006281Y011781D01*
X006281Y011879D02*
X005907Y011879D01*
X006006Y011978D02*
X006281Y011978D01*
X006198Y012076D02*
X006104Y012076D01*
X006064Y012766D02*
X006239Y012766D01*
X006337Y012865D02*
X005965Y012865D01*
X005337Y012865D02*
X004893Y012865D01*
X004879Y012851D02*
X005201Y013173D01*
X005201Y013629D01*
X004879Y013951D01*
X004423Y013951D01*
X004151Y013679D01*
X003879Y013951D01*
X003423Y013951D01*
X003101Y013629D01*
X003101Y013173D01*
X003423Y012851D01*
X003879Y012851D01*
X004151Y013123D01*
X004423Y012851D01*
X004879Y012851D01*
X004991Y012963D02*
X011031Y012963D01*
X011031Y012865D02*
X006965Y012865D01*
X007064Y012766D02*
X011031Y012766D01*
X011031Y013062D02*
X005090Y013062D01*
X005188Y013160D02*
X011031Y013160D01*
X011031Y013259D02*
X005201Y013259D01*
X005201Y013358D02*
X011031Y013358D01*
X011031Y013456D02*
X005201Y013456D01*
X005201Y013555D02*
X011031Y013555D01*
X011031Y013653D02*
X005177Y013653D01*
X005079Y013752D02*
X011031Y013752D01*
X011031Y013850D02*
X004980Y013850D01*
X004881Y013949D02*
X011031Y013949D01*
X010982Y014047D02*
X000849Y014047D01*
X000849Y013949D02*
X003421Y013949D01*
X003322Y013850D02*
X000849Y013850D01*
X000849Y013752D02*
X003224Y013752D01*
X003125Y013653D02*
X000849Y013653D01*
X000849Y013555D02*
X003101Y013555D01*
X003101Y013456D02*
X000849Y013456D01*
X000849Y013358D02*
X003101Y013358D01*
X003101Y013259D02*
X000849Y013259D01*
X000849Y013160D02*
X003114Y013160D01*
X003213Y013062D02*
X000849Y013062D01*
X000849Y012963D02*
X003311Y012963D01*
X003410Y012865D02*
X000849Y012865D01*
X000849Y012766D02*
X005239Y012766D01*
X005140Y012668D02*
X000849Y012668D01*
X000849Y012569D02*
X005101Y012569D01*
X005101Y012471D02*
X000849Y012471D01*
X000849Y012372D02*
X005101Y012372D01*
X005101Y012274D02*
X000849Y012274D01*
X000849Y012175D02*
X005101Y012175D01*
X005198Y012076D02*
X000849Y012076D01*
X000849Y011978D02*
X005297Y011978D01*
X005395Y011879D02*
X000849Y011879D01*
X000849Y014146D02*
X009629Y014146D01*
X009530Y014244D02*
X000849Y014244D01*
X000849Y014343D02*
X009432Y014343D01*
X009351Y014442D02*
X000849Y014442D01*
X000849Y014540D02*
X009351Y014540D01*
X009351Y014639D02*
X000849Y014639D01*
X000849Y014737D02*
X009351Y014737D01*
X009351Y014836D02*
X000849Y014836D01*
X000849Y014934D02*
X009406Y014934D01*
X009505Y015033D02*
X000849Y015033D01*
X000849Y015131D02*
X009604Y015131D01*
X010199Y015131D02*
X010604Y015131D01*
X010505Y015033D02*
X010297Y015033D01*
X010396Y014934D02*
X010406Y014934D01*
X010432Y014343D02*
X010371Y014343D01*
X010272Y014244D02*
X010530Y014244D01*
X010629Y014146D02*
X010174Y014146D01*
X011199Y015131D02*
X013781Y015131D01*
X013781Y015033D02*
X011297Y015033D01*
X011396Y014934D02*
X013781Y014934D01*
X013781Y014836D02*
X011451Y014836D01*
X011451Y014737D02*
X013781Y014737D01*
X013781Y014639D02*
X011451Y014639D01*
X011536Y014540D02*
X013781Y014540D01*
X013781Y014442D02*
X011634Y014442D01*
X011611Y014465D02*
X011611Y014465D01*
X011722Y014343D02*
X013781Y014343D01*
X013781Y014244D02*
X011763Y014244D01*
X011771Y014146D02*
X013781Y014146D01*
X013781Y014047D02*
X011771Y014047D01*
X011771Y013949D02*
X013781Y013949D01*
X013781Y013850D02*
X011771Y013850D01*
X011771Y013752D02*
X013781Y013752D01*
X013781Y013653D02*
X011771Y013653D01*
X011771Y013555D02*
X013781Y013555D01*
X013781Y013456D02*
X011771Y013456D01*
X011771Y013358D02*
X013781Y013358D01*
X013781Y013259D02*
X011771Y013259D01*
X011771Y013160D02*
X013781Y013160D01*
X013781Y013062D02*
X011771Y013062D01*
X011771Y012963D02*
X013781Y012963D01*
X013781Y012865D02*
X011771Y012865D01*
X011771Y012766D02*
X013739Y012766D01*
X013640Y012668D02*
X011771Y012668D01*
X011771Y012569D02*
X013601Y012569D01*
X013601Y012471D02*
X011771Y012471D01*
X011771Y012372D02*
X013601Y012372D01*
X013601Y012274D02*
X011771Y012274D01*
X012651Y012175D02*
X013601Y012175D01*
X013698Y012076D02*
X012749Y012076D01*
X012715Y012111D02*
X012715Y012111D01*
X012848Y011978D02*
X013781Y011978D01*
X013781Y011879D02*
X012946Y011879D01*
X013045Y011781D02*
X013781Y011781D01*
X013781Y011682D02*
X013148Y011682D01*
X013246Y011584D02*
X013781Y011584D01*
X013781Y011485D02*
X013345Y011485D01*
X013444Y011387D02*
X013781Y011387D01*
X013781Y011288D02*
X013451Y011288D01*
X013451Y011190D02*
X013781Y011190D01*
X013781Y011091D02*
X013451Y011091D01*
X013451Y010993D02*
X013781Y010993D01*
X013781Y010894D02*
X013422Y010894D01*
X013323Y010795D02*
X013781Y010795D01*
X013781Y010697D02*
X013225Y010697D01*
X013781Y010598D02*
X012271Y010598D01*
X012271Y010697D02*
X012578Y010697D01*
X012479Y010795D02*
X012323Y010795D01*
X010541Y012569D02*
X010261Y012569D01*
X010360Y012471D02*
X010443Y012471D01*
X010640Y012668D02*
X010163Y012668D01*
X009640Y012668D02*
X007163Y012668D01*
X007201Y012569D02*
X009541Y012569D01*
X009443Y012471D02*
X007201Y012471D01*
X007201Y012372D02*
X009351Y012372D01*
X009351Y012274D02*
X007201Y012274D01*
X007201Y012175D02*
X009351Y012175D01*
X009351Y012076D02*
X007104Y012076D01*
X007021Y011978D02*
X009351Y011978D01*
X009395Y011879D02*
X007021Y011879D01*
X007021Y011781D02*
X009494Y011781D01*
X009592Y011682D02*
X009148Y011682D01*
X009246Y011584D02*
X010061Y011584D01*
X009962Y011485D02*
X009345Y011485D01*
X009444Y011387D02*
X009864Y011387D01*
X009765Y011288D02*
X009451Y011288D01*
X009451Y011190D02*
X009666Y011190D01*
X009568Y011091D02*
X009451Y011091D01*
X009451Y010993D02*
X009469Y010993D01*
X008655Y011682D02*
X008148Y011682D01*
X008246Y011584D02*
X008556Y011584D01*
X008457Y011485D02*
X008345Y011485D01*
X008323Y010795D02*
X008479Y010795D01*
X008424Y010697D02*
X008225Y010697D01*
X008325Y010598D02*
X006622Y010598D01*
X006720Y010697D02*
X007578Y010697D01*
X007479Y010795D02*
X006819Y010795D01*
X006917Y010894D02*
X007381Y010894D01*
X007351Y010993D02*
X006986Y010993D01*
X007021Y011091D02*
X007351Y011091D01*
X007351Y011190D02*
X007021Y011190D01*
X007021Y011288D02*
X007351Y011288D01*
X007359Y011387D02*
X007021Y011387D01*
X007021Y011485D02*
X007457Y011485D01*
X007556Y011584D02*
X007021Y011584D01*
X007021Y011682D02*
X007655Y011682D01*
X008227Y010500D02*
X006523Y010500D01*
X006424Y010401D02*
X008128Y010401D01*
X008029Y010303D02*
X006326Y010303D01*
X006227Y010204D02*
X007931Y010204D01*
X007832Y010106D02*
X006129Y010106D01*
X006030Y010007D02*
X007734Y010007D01*
X007635Y009909D02*
X005932Y009909D01*
X005833Y009810D02*
X007537Y009810D01*
X007438Y009711D02*
X005735Y009711D01*
X005636Y009613D02*
X007340Y009613D01*
X007241Y009514D02*
X005538Y009514D01*
X005439Y009416D02*
X007143Y009416D01*
X007044Y009317D02*
X005341Y009317D01*
X005242Y009219D02*
X006946Y009219D01*
X008163Y008135D02*
X008640Y008135D01*
X008541Y008233D02*
X008261Y008233D01*
X008360Y008332D02*
X008443Y008332D01*
X009163Y008135D02*
X009531Y008135D01*
X009531Y008233D02*
X009261Y008233D01*
X009531Y004587D02*
X004131Y004587D01*
X004131Y004489D02*
X009531Y004489D01*
X004410Y012865D02*
X003893Y012865D01*
X003991Y012963D02*
X004311Y012963D01*
X004213Y013062D02*
X004090Y013062D01*
X004079Y013752D02*
X004224Y013752D01*
X004323Y013850D02*
X003980Y013850D01*
X003881Y013949D02*
X004421Y013949D01*
X002825Y017398D02*
X009620Y017398D01*
X009521Y017299D02*
X000849Y017299D01*
X000849Y017201D02*
X009423Y017201D01*
X009351Y017102D02*
X000849Y017102D01*
X000849Y017004D02*
X009351Y017004D01*
X009351Y016905D02*
X000849Y016905D01*
X000849Y016807D02*
X009351Y016807D01*
X009351Y016708D02*
X000849Y016708D01*
X000849Y016609D02*
X009415Y016609D01*
X009514Y016511D02*
X000849Y016511D01*
X000849Y016412D02*
X009612Y016412D01*
X010190Y016412D02*
X010612Y016412D01*
X010514Y016511D02*
X010289Y016511D01*
X010387Y016609D02*
X010415Y016609D01*
X010423Y017201D02*
X010380Y017201D01*
X010281Y017299D02*
X010522Y017299D01*
X010620Y017398D02*
X010182Y017398D01*
X010328Y018031D02*
X010475Y018031D01*
X015748Y018031D01*
X015889Y017891D02*
X003369Y017891D01*
X003328Y017792D02*
X015987Y017792D01*
X016086Y017693D02*
X003272Y017693D01*
X003173Y017595D02*
X016184Y017595D01*
X016283Y017496D02*
X003063Y017496D01*
X002478Y017398D02*
X000849Y017398D01*
X000849Y017496D02*
X002240Y017496D01*
X002129Y017595D02*
X000849Y017595D01*
X000849Y017693D02*
X002031Y017693D01*
X001975Y017792D02*
X000849Y017792D01*
X000849Y017891D02*
X001934Y017891D01*
X001893Y017989D02*
X000849Y017989D01*
X000849Y018088D02*
X001889Y018088D01*
X001889Y018186D02*
X000849Y018186D01*
X000849Y018285D02*
X001889Y018285D01*
X001922Y018383D02*
X000849Y018383D01*
X000849Y018482D02*
X001963Y018482D01*
X002004Y018580D02*
X000849Y018580D01*
X000849Y018679D02*
X002101Y018679D01*
X002199Y018777D02*
X000849Y018777D01*
X000849Y018876D02*
X002409Y018876D01*
X002894Y018876D02*
X007629Y018876D01*
X007580Y018975D02*
X000849Y018975D01*
X000854Y019073D02*
X007539Y019073D01*
X007517Y019172D02*
X000871Y019172D01*
X000897Y019270D02*
X007517Y019270D01*
X007517Y019369D02*
X000926Y019369D01*
X000983Y019467D02*
X007551Y019467D01*
X007592Y019566D02*
X001040Y019566D01*
X001133Y019664D02*
X007659Y019664D01*
X007757Y019763D02*
X001237Y019763D01*
X001408Y019861D02*
X007940Y019861D01*
X008382Y019861D02*
X019395Y019861D01*
X019565Y019763D02*
X012971Y019763D01*
X013087Y019664D02*
X019669Y019664D01*
X019763Y019566D02*
X013162Y019566D01*
X013208Y019467D02*
X019819Y019467D01*
X019876Y019369D02*
X013235Y019369D01*
X013240Y019172D02*
X019931Y019172D01*
X019949Y019073D02*
X013217Y019073D01*
X013176Y018975D02*
X019954Y018975D01*
X019954Y018876D02*
X018394Y018876D01*
X018303Y018914D02*
X018000Y018914D01*
X017719Y018798D01*
X017505Y018583D01*
X017389Y018303D01*
X017389Y018000D01*
X017505Y017719D01*
X017719Y017505D01*
X018000Y017389D01*
X018303Y017389D01*
X018583Y017505D01*
X018798Y017719D01*
X018914Y018000D01*
X018914Y018303D01*
X018798Y018583D01*
X018583Y018798D01*
X018303Y018914D01*
X017909Y018876D02*
X013113Y018876D01*
X013011Y018777D02*
X017699Y018777D01*
X017601Y018679D02*
X016147Y018679D01*
X016245Y018580D02*
X017504Y018580D01*
X017463Y018482D02*
X016344Y018482D01*
X016442Y018383D02*
X017422Y018383D01*
X017389Y018285D02*
X016541Y018285D01*
X016640Y018186D02*
X017389Y018186D01*
X017389Y018088D02*
X016738Y018088D01*
X016837Y017989D02*
X017393Y017989D01*
X017434Y017891D02*
X016935Y017891D01*
X017034Y017792D02*
X017475Y017792D01*
X017531Y017693D02*
X017132Y017693D01*
X017231Y017595D02*
X017629Y017595D01*
X017740Y017496D02*
X017329Y017496D01*
X017428Y017398D02*
X017978Y017398D01*
X017724Y017102D02*
X019954Y017102D01*
X019954Y017004D02*
X017822Y017004D01*
X017921Y016905D02*
X019954Y016905D01*
X019954Y016807D02*
X018019Y016807D01*
X018118Y016708D02*
X019954Y016708D01*
X019954Y016609D02*
X018216Y016609D01*
X018315Y016511D02*
X019954Y016511D01*
X019954Y016412D02*
X018413Y016412D01*
X018512Y016314D02*
X019954Y016314D01*
X019954Y016215D02*
X018610Y016215D01*
X018709Y016117D02*
X019954Y016117D01*
X019954Y016018D02*
X018807Y016018D01*
X018906Y015920D02*
X019954Y015920D01*
X019954Y015821D02*
X019005Y015821D01*
X019103Y015723D02*
X019954Y015723D01*
X019954Y015624D02*
X019202Y015624D01*
X019300Y015526D02*
X019954Y015526D01*
X019954Y015427D02*
X019399Y015427D01*
X019478Y015328D02*
X019954Y015328D01*
X019954Y015230D02*
X019519Y015230D01*
X019521Y015131D02*
X019954Y015131D01*
X019954Y015033D02*
X019521Y015033D01*
X019521Y014934D02*
X019954Y014934D01*
X019954Y014836D02*
X019521Y014836D01*
X019521Y014737D02*
X019954Y014737D01*
X019954Y014639D02*
X019521Y014639D01*
X019521Y014540D02*
X019954Y014540D01*
X019954Y014442D02*
X019521Y014442D01*
X019521Y014343D02*
X019954Y014343D01*
X019954Y014244D02*
X019521Y014244D01*
X019521Y014146D02*
X019954Y014146D01*
X019954Y014047D02*
X019521Y014047D01*
X019521Y013949D02*
X019954Y013949D01*
X019954Y013850D02*
X019521Y013850D01*
X019521Y013752D02*
X019954Y013752D01*
X019954Y013653D02*
X019521Y013653D01*
X019521Y013555D02*
X019954Y013555D01*
X019954Y013456D02*
X019521Y013456D01*
X019521Y013358D02*
X019954Y013358D01*
X019954Y013259D02*
X019521Y013259D01*
X019521Y013160D02*
X019954Y013160D01*
X019954Y013062D02*
X019521Y013062D01*
X019521Y012963D02*
X019954Y012963D01*
X019954Y012865D02*
X019521Y012865D01*
X019521Y012766D02*
X019954Y012766D01*
X019954Y012668D02*
X019521Y012668D01*
X019521Y012569D02*
X019954Y012569D01*
X019954Y012471D02*
X019521Y012471D01*
X019521Y012372D02*
X019954Y012372D01*
X019954Y012274D02*
X019521Y012274D01*
X019521Y012175D02*
X019954Y012175D01*
X019954Y012076D02*
X019521Y012076D01*
X019521Y011978D02*
X019954Y011978D01*
X019954Y011879D02*
X019521Y011879D01*
X019521Y011781D02*
X019954Y011781D01*
X019954Y011682D02*
X019521Y011682D01*
X019521Y011584D02*
X019954Y011584D01*
X019954Y011485D02*
X019521Y011485D01*
X019521Y011387D02*
X019954Y011387D01*
X019954Y011288D02*
X019521Y011288D01*
X019521Y011190D02*
X019954Y011190D01*
X019954Y011091D02*
X019521Y011091D01*
X019521Y010993D02*
X019954Y010993D01*
X019954Y010894D02*
X019521Y010894D01*
X019521Y010795D02*
X019954Y010795D01*
X019954Y010697D02*
X019521Y010697D01*
X019521Y010598D02*
X019954Y010598D01*
X019954Y010500D02*
X019521Y010500D01*
X019521Y010401D02*
X019954Y010401D01*
X019954Y010303D02*
X019521Y010303D01*
X019521Y010204D02*
X019954Y010204D01*
X019954Y010106D02*
X019521Y010106D01*
X019521Y010007D02*
X019954Y010007D01*
X019954Y009909D02*
X019521Y009909D01*
X019521Y009810D02*
X019954Y009810D01*
X019954Y009711D02*
X019521Y009711D01*
X019521Y009613D02*
X019954Y009613D01*
X019954Y009514D02*
X019521Y009514D01*
X019521Y009416D02*
X019954Y009416D01*
X019954Y009317D02*
X019521Y009317D01*
X019521Y009219D02*
X019954Y009219D01*
X019954Y009120D02*
X019521Y009120D01*
X019559Y009022D02*
X019954Y009022D01*
X019954Y008923D02*
X019657Y008923D01*
X019701Y008825D02*
X019954Y008825D01*
X019954Y008726D02*
X019701Y008726D01*
X019701Y008627D02*
X019954Y008627D01*
X019954Y008529D02*
X019701Y008529D01*
X019701Y008430D02*
X019954Y008430D01*
X019954Y008332D02*
X019610Y008332D01*
X019521Y008233D02*
X019954Y008233D01*
X019954Y008135D02*
X019521Y008135D01*
X019521Y008036D02*
X019954Y008036D01*
X019954Y007938D02*
X019521Y007938D01*
X019521Y007839D02*
X019954Y007839D01*
X019954Y007741D02*
X019521Y007741D01*
X019521Y007642D02*
X019954Y007642D01*
X019954Y007544D02*
X019521Y007544D01*
X019521Y007445D02*
X019954Y007445D01*
X019954Y007346D02*
X019521Y007346D01*
X019521Y007248D02*
X019954Y007248D01*
X019954Y007149D02*
X019521Y007149D01*
X019521Y007051D02*
X019954Y007051D01*
X019954Y006952D02*
X019521Y006952D01*
X019521Y006854D02*
X019954Y006854D01*
X019954Y006755D02*
X019521Y006755D01*
X019521Y006657D02*
X019954Y006657D01*
X019954Y006558D02*
X019521Y006558D01*
X019521Y006460D02*
X019954Y006460D01*
X019954Y006361D02*
X019521Y006361D01*
X019521Y006262D02*
X019954Y006262D01*
X019954Y006164D02*
X019521Y006164D01*
X019521Y006065D02*
X019954Y006065D01*
X019954Y005967D02*
X019521Y005967D01*
X019521Y005868D02*
X019954Y005868D01*
X019954Y005770D02*
X019521Y005770D01*
X019521Y005671D02*
X019954Y005671D01*
X019954Y005573D02*
X019521Y005573D01*
X019521Y005474D02*
X019954Y005474D01*
X019954Y005376D02*
X019521Y005376D01*
X019521Y005277D02*
X019954Y005277D01*
X019954Y005178D02*
X019576Y005178D01*
X019760Y005080D02*
X019954Y005080D01*
X019954Y004981D02*
X019859Y004981D01*
X019911Y004883D02*
X019954Y004883D01*
X019951Y004784D02*
X019954Y004784D01*
X015713Y013062D02*
X014521Y013062D01*
X014521Y013160D02*
X015614Y013160D01*
X015601Y013259D02*
X014521Y013259D01*
X014521Y013358D02*
X015601Y013358D01*
X015601Y013456D02*
X014521Y013456D01*
X014521Y013555D02*
X015601Y013555D01*
X015625Y013653D02*
X014521Y013653D01*
X014521Y013752D02*
X015724Y013752D01*
X015822Y013850D02*
X014521Y013850D01*
X014521Y014146D02*
X018781Y014146D01*
X018781Y014244D02*
X014521Y014244D01*
X014521Y014343D02*
X018781Y014343D01*
X018781Y014442D02*
X014521Y014442D01*
X014521Y014540D02*
X018781Y014540D01*
X018781Y014639D02*
X014521Y014639D01*
X014521Y014737D02*
X018781Y014737D01*
X018781Y014836D02*
X014521Y014836D01*
X014521Y014934D02*
X018781Y014934D01*
X018746Y015033D02*
X014521Y015033D01*
X014521Y015131D02*
X018648Y015131D01*
X018549Y015230D02*
X014521Y015230D01*
X014521Y015328D02*
X018451Y015328D01*
X018352Y015427D02*
X014521Y015427D01*
X014521Y015526D02*
X018254Y015526D01*
X018155Y015624D02*
X014521Y015624D01*
X014521Y015723D02*
X018057Y015723D01*
X017958Y015821D02*
X014481Y015821D01*
X014406Y015920D02*
X017860Y015920D01*
X017761Y016018D02*
X014307Y016018D01*
X014209Y016117D02*
X017662Y016117D01*
X017564Y016215D02*
X014110Y016215D01*
X014012Y016314D02*
X017465Y016314D01*
X017367Y016412D02*
X013913Y016412D01*
X013815Y016511D02*
X017268Y016511D01*
X017170Y016609D02*
X013716Y016609D01*
X013618Y016708D02*
X017071Y016708D01*
X016973Y016807D02*
X013519Y016807D01*
X013421Y016905D02*
X016874Y016905D01*
X016776Y017004D02*
X013322Y017004D01*
X013224Y017102D02*
X016677Y017102D01*
X016579Y017201D02*
X013125Y017201D01*
X012768Y016511D02*
X011289Y016511D01*
X011190Y016412D02*
X012867Y016412D01*
X012965Y016314D02*
X000849Y016314D01*
X000849Y016215D02*
X013064Y016215D01*
X013162Y016117D02*
X000849Y016117D01*
X000849Y016018D02*
X013261Y016018D01*
X013360Y015920D02*
X000849Y015920D01*
X000849Y015821D02*
X013458Y015821D01*
X013557Y015723D02*
X000849Y015723D01*
X000849Y015624D02*
X013655Y015624D01*
X013754Y015526D02*
X000849Y015526D01*
X000849Y015427D02*
X013781Y015427D01*
X013781Y015328D02*
X000849Y015328D01*
X000849Y015230D02*
X013781Y015230D01*
X011281Y017299D02*
X016480Y017299D01*
X016381Y017398D02*
X011182Y017398D01*
X010328Y018031D02*
X010192Y018088D01*
X010093Y018186D02*
X003414Y018186D01*
X003414Y018285D02*
X009995Y018285D01*
X009896Y018383D02*
X003380Y018383D01*
X003340Y018482D02*
X009797Y018482D01*
X009699Y018580D02*
X003299Y018580D01*
X003202Y018679D02*
X007870Y018679D01*
X007728Y018777D02*
X003103Y018777D01*
X008453Y018679D02*
X009600Y018679D01*
X009502Y018777D02*
X008594Y018777D01*
X008693Y018876D02*
X009403Y018876D01*
X009957Y019369D02*
X012047Y019369D01*
X012075Y019467D02*
X009858Y019467D01*
X009760Y019566D02*
X012121Y019566D01*
X012196Y019664D02*
X008664Y019664D01*
X008565Y019763D02*
X012311Y019763D01*
X012591Y019763D02*
X012691Y019763D01*
X012691Y019664D02*
X012591Y019664D01*
X012591Y019566D02*
X012691Y019566D01*
X012691Y019467D02*
X012591Y019467D01*
X012591Y019369D02*
X012691Y019369D01*
X012692Y019270D02*
X019905Y019270D01*
X019954Y018777D02*
X018603Y018777D01*
X018702Y018679D02*
X019954Y018679D01*
X019954Y018580D02*
X018799Y018580D01*
X018840Y018482D02*
X019954Y018482D01*
X019954Y018383D02*
X018880Y018383D01*
X018914Y018285D02*
X019954Y018285D01*
X019954Y018186D02*
X018914Y018186D01*
X018914Y018088D02*
X019954Y018088D01*
X019954Y017989D02*
X018909Y017989D01*
X018869Y017891D02*
X019954Y017891D01*
X019954Y017792D02*
X018828Y017792D01*
X018772Y017693D02*
X019954Y017693D01*
X019954Y017595D02*
X018673Y017595D01*
X018563Y017496D02*
X019954Y017496D01*
X019954Y017398D02*
X018325Y017398D01*
X017625Y017201D02*
X019954Y017201D01*
X019954Y017299D02*
X017526Y017299D01*
X012591Y019270D02*
X010056Y019270D01*
X010154Y019172D02*
X012043Y019172D01*
X012065Y019073D02*
X010253Y019073D01*
X010351Y018975D02*
X012106Y018975D01*
X012170Y018876D02*
X010450Y018876D01*
X010548Y018777D02*
X012271Y018777D01*
M02*
