G75*
G70*
%OFA0B0*%
%FSLAX24Y24*%
%IPPOS*%
%LPD*%
%AMOC8*
5,1,8,0,0,1.08239X$1,22.5*
%
%ADD10C,0.0000*%
%ADD11OC8,0.0520*%
%ADD12C,0.0520*%
%ADD13C,0.0600*%
%ADD14C,0.0660*%
%ADD15C,0.0120*%
%ADD16C,0.0160*%
%ADD17C,0.0357*%
%ADD18C,0.0100*%
D10*
X000655Y001655D02*
X000655Y019155D01*
X000657Y019215D01*
X000662Y019276D01*
X000671Y019335D01*
X000684Y019394D01*
X000700Y019453D01*
X000720Y019510D01*
X000743Y019565D01*
X000770Y019620D01*
X000799Y019672D01*
X000832Y019723D01*
X000868Y019772D01*
X000906Y019818D01*
X000948Y019862D01*
X000992Y019904D01*
X001038Y019942D01*
X001087Y019978D01*
X001138Y020011D01*
X001190Y020040D01*
X001245Y020067D01*
X001300Y020090D01*
X001357Y020110D01*
X001416Y020126D01*
X001475Y020139D01*
X001534Y020148D01*
X001595Y020153D01*
X001655Y020155D01*
X019155Y020155D01*
X019215Y020153D01*
X019276Y020148D01*
X019335Y020139D01*
X019394Y020126D01*
X019453Y020110D01*
X019510Y020090D01*
X019565Y020067D01*
X019620Y020040D01*
X019672Y020011D01*
X019723Y019978D01*
X019772Y019942D01*
X019818Y019904D01*
X019862Y019862D01*
X019904Y019818D01*
X019942Y019772D01*
X019978Y019723D01*
X020011Y019672D01*
X020040Y019620D01*
X020067Y019565D01*
X020090Y019510D01*
X020110Y019453D01*
X020126Y019394D01*
X020139Y019335D01*
X020148Y019276D01*
X020153Y019215D01*
X020155Y019155D01*
X020155Y001655D01*
X020153Y001595D01*
X020148Y001534D01*
X020139Y001475D01*
X020126Y001416D01*
X020110Y001357D01*
X020090Y001300D01*
X020067Y001245D01*
X020040Y001190D01*
X020011Y001138D01*
X019978Y001087D01*
X019942Y001038D01*
X019904Y000992D01*
X019862Y000948D01*
X019818Y000906D01*
X019772Y000868D01*
X019723Y000832D01*
X019672Y000799D01*
X019620Y000770D01*
X019565Y000743D01*
X019510Y000720D01*
X019453Y000700D01*
X019394Y000684D01*
X019335Y000671D01*
X019276Y000662D01*
X019215Y000657D01*
X019155Y000655D01*
X001655Y000655D01*
X001595Y000657D01*
X001534Y000662D01*
X001475Y000671D01*
X001416Y000684D01*
X001357Y000700D01*
X001300Y000720D01*
X001245Y000743D01*
X001190Y000770D01*
X001138Y000799D01*
X001087Y000832D01*
X001038Y000868D01*
X000992Y000906D01*
X000948Y000948D01*
X000906Y000992D01*
X000868Y001038D01*
X000832Y001087D01*
X000799Y001138D01*
X000770Y001190D01*
X000743Y001245D01*
X000720Y001300D01*
X000700Y001357D01*
X000684Y001416D01*
X000671Y001475D01*
X000662Y001534D01*
X000657Y001595D01*
X000655Y001655D01*
X002183Y018155D02*
X002185Y018198D01*
X002191Y018240D01*
X002201Y018282D01*
X002214Y018323D01*
X002231Y018363D01*
X002252Y018400D01*
X002276Y018436D01*
X002303Y018469D01*
X002333Y018500D01*
X002366Y018528D01*
X002401Y018553D01*
X002438Y018574D01*
X002477Y018592D01*
X002517Y018606D01*
X002559Y018617D01*
X002601Y018624D01*
X002644Y018627D01*
X002687Y018626D01*
X002730Y018621D01*
X002772Y018612D01*
X002813Y018600D01*
X002853Y018584D01*
X002891Y018564D01*
X002927Y018541D01*
X002961Y018514D01*
X002993Y018485D01*
X003021Y018453D01*
X003047Y018418D01*
X003069Y018382D01*
X003088Y018343D01*
X003103Y018303D01*
X003115Y018262D01*
X003123Y018219D01*
X003127Y018176D01*
X003127Y018134D01*
X003123Y018091D01*
X003115Y018048D01*
X003103Y018007D01*
X003088Y017967D01*
X003069Y017928D01*
X003047Y017892D01*
X003021Y017857D01*
X002993Y017825D01*
X002961Y017796D01*
X002927Y017769D01*
X002891Y017746D01*
X002853Y017726D01*
X002813Y017710D01*
X002772Y017698D01*
X002730Y017689D01*
X002687Y017684D01*
X002644Y017683D01*
X002601Y017686D01*
X002559Y017693D01*
X002517Y017704D01*
X002477Y017718D01*
X002438Y017736D01*
X002401Y017757D01*
X002366Y017782D01*
X002333Y017810D01*
X002303Y017841D01*
X002276Y017874D01*
X002252Y017910D01*
X002231Y017947D01*
X002214Y017987D01*
X002201Y018028D01*
X002191Y018070D01*
X002185Y018112D01*
X002183Y018155D01*
X008840Y019155D02*
X008842Y019190D01*
X008848Y019225D01*
X008858Y019259D01*
X008871Y019292D01*
X008888Y019323D01*
X008909Y019351D01*
X008932Y019378D01*
X008959Y019401D01*
X008987Y019422D01*
X009018Y019439D01*
X009051Y019452D01*
X009085Y019462D01*
X009120Y019468D01*
X009155Y019470D01*
X009190Y019468D01*
X009225Y019462D01*
X009259Y019452D01*
X009292Y019439D01*
X009323Y019422D01*
X009351Y019401D01*
X009378Y019378D01*
X009401Y019351D01*
X009422Y019323D01*
X009439Y019292D01*
X009452Y019259D01*
X009462Y019225D01*
X009468Y019190D01*
X009470Y019155D01*
X009468Y019120D01*
X009462Y019085D01*
X009452Y019051D01*
X009439Y019018D01*
X009422Y018987D01*
X009401Y018959D01*
X009378Y018932D01*
X009351Y018909D01*
X009323Y018888D01*
X009292Y018871D01*
X009259Y018858D01*
X009225Y018848D01*
X009190Y018842D01*
X009155Y018840D01*
X009120Y018842D01*
X009085Y018848D01*
X009051Y018858D01*
X009018Y018871D01*
X008987Y018888D01*
X008959Y018909D01*
X008932Y018932D01*
X008909Y018959D01*
X008888Y018987D01*
X008871Y019018D01*
X008858Y019051D01*
X008848Y019085D01*
X008842Y019120D01*
X008840Y019155D01*
X011340Y019155D02*
X011342Y019190D01*
X011348Y019225D01*
X011358Y019259D01*
X011371Y019292D01*
X011388Y019323D01*
X011409Y019351D01*
X011432Y019378D01*
X011459Y019401D01*
X011487Y019422D01*
X011518Y019439D01*
X011551Y019452D01*
X011585Y019462D01*
X011620Y019468D01*
X011655Y019470D01*
X011690Y019468D01*
X011725Y019462D01*
X011759Y019452D01*
X011792Y019439D01*
X011823Y019422D01*
X011851Y019401D01*
X011878Y019378D01*
X011901Y019351D01*
X011922Y019323D01*
X011939Y019292D01*
X011952Y019259D01*
X011962Y019225D01*
X011968Y019190D01*
X011970Y019155D01*
X011968Y019120D01*
X011962Y019085D01*
X011952Y019051D01*
X011939Y019018D01*
X011922Y018987D01*
X011901Y018959D01*
X011878Y018932D01*
X011851Y018909D01*
X011823Y018888D01*
X011792Y018871D01*
X011759Y018858D01*
X011725Y018848D01*
X011690Y018842D01*
X011655Y018840D01*
X011620Y018842D01*
X011585Y018848D01*
X011551Y018858D01*
X011518Y018871D01*
X011487Y018888D01*
X011459Y018909D01*
X011432Y018932D01*
X011409Y018959D01*
X011388Y018987D01*
X011371Y019018D01*
X011358Y019051D01*
X011348Y019085D01*
X011342Y019120D01*
X011340Y019155D01*
X017683Y018155D02*
X017685Y018198D01*
X017691Y018240D01*
X017701Y018282D01*
X017714Y018323D01*
X017731Y018363D01*
X017752Y018400D01*
X017776Y018436D01*
X017803Y018469D01*
X017833Y018500D01*
X017866Y018528D01*
X017901Y018553D01*
X017938Y018574D01*
X017977Y018592D01*
X018017Y018606D01*
X018059Y018617D01*
X018101Y018624D01*
X018144Y018627D01*
X018187Y018626D01*
X018230Y018621D01*
X018272Y018612D01*
X018313Y018600D01*
X018353Y018584D01*
X018391Y018564D01*
X018427Y018541D01*
X018461Y018514D01*
X018493Y018485D01*
X018521Y018453D01*
X018547Y018418D01*
X018569Y018382D01*
X018588Y018343D01*
X018603Y018303D01*
X018615Y018262D01*
X018623Y018219D01*
X018627Y018176D01*
X018627Y018134D01*
X018623Y018091D01*
X018615Y018048D01*
X018603Y018007D01*
X018588Y017967D01*
X018569Y017928D01*
X018547Y017892D01*
X018521Y017857D01*
X018493Y017825D01*
X018461Y017796D01*
X018427Y017769D01*
X018391Y017746D01*
X018353Y017726D01*
X018313Y017710D01*
X018272Y017698D01*
X018230Y017689D01*
X018187Y017684D01*
X018144Y017683D01*
X018101Y017686D01*
X018059Y017693D01*
X018017Y017704D01*
X017977Y017718D01*
X017938Y017736D01*
X017901Y017757D01*
X017866Y017782D01*
X017833Y017810D01*
X017803Y017841D01*
X017776Y017874D01*
X017752Y017910D01*
X017731Y017947D01*
X017714Y017987D01*
X017701Y018028D01*
X017691Y018070D01*
X017685Y018112D01*
X017683Y018155D01*
D11*
X017155Y013405D03*
X016155Y013405D03*
X015155Y012405D03*
X014155Y012405D03*
X012905Y011155D03*
X011905Y011155D03*
X010905Y012155D03*
X009905Y012155D03*
X008905Y011155D03*
X007905Y011155D03*
X006655Y012405D03*
X005655Y012405D03*
X004655Y013405D03*
X003655Y013405D03*
X003655Y008655D03*
X001655Y008655D03*
X003655Y006405D03*
X004655Y006405D03*
X005655Y007405D03*
X006655Y007405D03*
X007905Y008655D03*
X008905Y008655D03*
X009905Y007655D03*
X010905Y007655D03*
X011905Y008655D03*
X012905Y008655D03*
X014155Y007405D03*
X015155Y007405D03*
X016155Y006405D03*
X017155Y006405D03*
X019155Y006155D03*
X019155Y010155D03*
X010905Y009905D03*
X009905Y009905D03*
X009905Y005155D03*
X010905Y005155D03*
X010905Y002655D03*
X009905Y002655D03*
X009905Y014655D03*
X010905Y014655D03*
X010905Y016905D03*
X009905Y016905D03*
D12*
X004915Y004655D02*
X004395Y004655D01*
X004395Y003655D02*
X004915Y003655D01*
X004915Y002655D02*
X004395Y002655D01*
X004395Y001655D02*
X004915Y001655D01*
X001915Y001655D02*
X001395Y001655D01*
X001395Y002655D02*
X001915Y002655D01*
X001915Y003655D02*
X001395Y003655D01*
X001395Y004655D02*
X001915Y004655D01*
D13*
X017265Y004735D02*
X017265Y004135D01*
X019045Y004135D02*
X019045Y004735D01*
X019045Y002175D02*
X019045Y001575D01*
X017265Y001575D02*
X017265Y002175D01*
D14*
X013655Y019155D03*
X007155Y019155D03*
D15*
X012115Y001945D02*
X011995Y001825D01*
X011995Y001815D02*
X011995Y001695D01*
X012105Y001585D01*
X011995Y001475D01*
X011995Y001465D02*
X011995Y001345D01*
X011995Y001335D02*
X012115Y001215D01*
X012355Y001215D01*
X012485Y001345D01*
X012223Y001585D02*
X012108Y001585D01*
X012355Y001945D02*
X012485Y001815D01*
X012355Y001945D02*
X012115Y001945D01*
X013023Y001935D02*
X013265Y001693D01*
X013023Y001928D02*
X013023Y001223D01*
X012783Y001215D02*
X013268Y001215D01*
X013575Y001335D02*
X013695Y001215D01*
X013935Y001215D01*
X014055Y001335D01*
X013585Y001815D01*
X013575Y001815D02*
X013695Y001935D01*
X013935Y001935D01*
X014055Y001815D01*
X014055Y001335D01*
X014365Y001215D02*
X014855Y001215D01*
X014365Y001695D01*
X014365Y001815D01*
X014365Y001825D02*
X014485Y001945D01*
X014725Y001945D01*
X014855Y001815D01*
X015235Y001835D02*
X015355Y001955D01*
X015595Y001955D01*
X015715Y001835D01*
X015715Y001955D01*
X016085Y001955D01*
X016205Y001835D01*
X016205Y001585D01*
X016085Y001465D01*
X015965Y001465D01*
X016205Y001215D01*
X015965Y001465D02*
X015715Y001465D01*
X015715Y001835D01*
X015475Y001585D02*
X015225Y001585D01*
X015225Y001345D01*
X015345Y001215D01*
X015595Y001215D01*
X015715Y001335D01*
X015715Y001215D01*
X015715Y001335D02*
X015715Y001465D01*
X013575Y001335D02*
X013575Y001815D01*
D16*
X009905Y002655D02*
X008905Y003655D01*
X006655Y003655D01*
X006655Y006405D01*
X005655Y007405D02*
X005655Y004655D01*
X005155Y004155D01*
X004155Y004155D01*
X003655Y003655D01*
X003655Y002655D01*
X002655Y001655D01*
X001655Y001655D01*
X001655Y002655D02*
X002655Y002655D01*
X003155Y003155D01*
X003155Y004655D01*
X003655Y005155D01*
X003655Y006405D01*
X002655Y007155D02*
X002655Y004155D01*
X002155Y003655D01*
X001655Y003655D01*
X004655Y003655D02*
X006655Y003655D01*
X009905Y005155D02*
X009905Y005655D01*
X010405Y006155D01*
X012155Y006155D01*
X012905Y006905D01*
X012905Y008655D01*
X015155Y008655D01*
X015155Y007405D01*
X015155Y008655D02*
X017155Y008655D01*
X017155Y013405D01*
X016155Y013405D02*
X015155Y012405D01*
X013905Y011155D01*
X012905Y011155D01*
X011655Y009905D01*
X010905Y009905D01*
X010905Y009155D01*
X009905Y008155D01*
X006155Y008155D01*
X005655Y007655D01*
X005655Y007405D01*
X004655Y007655D02*
X003155Y007655D01*
X002655Y007155D01*
X004655Y007655D02*
X005655Y008655D01*
X007905Y008655D01*
X009905Y008155D02*
X009905Y007655D01*
X008905Y011155D02*
X011905Y011155D01*
X010905Y012155D02*
X010905Y012405D01*
X014155Y012405D01*
X010905Y012405D02*
X010905Y013405D01*
X005655Y013405D01*
X005655Y012405D01*
X005655Y008655D01*
X005655Y013405D02*
X004655Y013405D01*
X010905Y013405D02*
X010905Y014655D01*
X010905Y016905D01*
X017155Y008655D02*
X017155Y006405D01*
D17*
X006655Y006405D03*
D18*
X000951Y001296D02*
X001096Y001096D01*
X001296Y000951D01*
X001532Y000875D01*
X001655Y000865D01*
X019155Y000865D01*
X019279Y000875D01*
X019514Y000951D01*
X019714Y001096D01*
X019859Y001296D01*
X019935Y001531D01*
X019945Y001655D01*
X019945Y019068D01*
X019945Y019119D01*
X019945Y019155D01*
X019935Y019279D01*
X019859Y019514D01*
X019714Y019714D01*
X019514Y019859D01*
X019279Y019935D01*
X019155Y019945D01*
X001742Y019945D01*
X001717Y019945D01*
X001655Y019945D01*
X001532Y019935D01*
X001296Y019859D01*
X001096Y019714D01*
X000951Y019514D01*
X000875Y019279D01*
X000865Y019155D01*
X000865Y001742D01*
X000865Y001725D01*
X000865Y001655D01*
X000875Y001532D01*
X000951Y001296D01*
X000935Y001345D02*
X001041Y001345D01*
X000997Y001389D02*
X001129Y001257D01*
X001302Y001185D01*
X002009Y001185D01*
X002181Y001257D01*
X002290Y001365D01*
X002597Y001365D01*
X002713Y001365D01*
X002819Y001409D01*
X003819Y002409D01*
X003901Y002491D01*
X003928Y002555D01*
X003997Y002389D01*
X004129Y002257D01*
X004302Y002185D01*
X005009Y002185D01*
X005181Y002257D01*
X005314Y002389D01*
X005385Y002562D01*
X005385Y002749D01*
X005314Y002921D01*
X005181Y003054D01*
X005009Y003125D01*
X004302Y003125D01*
X004129Y003054D01*
X003997Y002921D01*
X003945Y002797D01*
X003945Y003514D01*
X003997Y003389D01*
X004129Y003257D01*
X004302Y003185D01*
X005009Y003185D01*
X005181Y003257D01*
X005290Y003365D01*
X006597Y003365D01*
X006713Y003365D01*
X008785Y003365D01*
X009435Y002715D01*
X009435Y002460D01*
X009710Y002185D01*
X010100Y002185D01*
X010375Y002460D01*
X010375Y002850D01*
X010100Y003125D01*
X009845Y003125D01*
X009069Y003901D01*
X008963Y003945D01*
X008847Y003945D01*
X006945Y003945D01*
X006945Y006146D01*
X006984Y006185D01*
X007044Y006328D01*
X007044Y006482D01*
X006984Y006625D01*
X006875Y006734D01*
X006732Y006794D01*
X006578Y006794D01*
X006435Y006734D01*
X006326Y006625D01*
X006267Y006482D01*
X006267Y006328D01*
X006326Y006185D01*
X006365Y006146D01*
X006365Y003945D01*
X005355Y003945D01*
X005819Y004409D01*
X005901Y004491D01*
X005945Y004597D01*
X006365Y004597D01*
X006365Y004695D02*
X005945Y004695D01*
X005945Y004597D02*
X005945Y007030D01*
X006125Y007210D01*
X006125Y007600D01*
X006067Y007657D01*
X006275Y007865D01*
X006451Y007865D01*
X006185Y007600D01*
X006185Y007210D01*
X006460Y006935D01*
X006850Y006935D01*
X007125Y007210D01*
X007125Y007600D01*
X006860Y007865D01*
X009451Y007865D01*
X009435Y007850D01*
X009435Y007460D01*
X009710Y007185D01*
X010100Y007185D01*
X010375Y007460D01*
X010375Y007850D01*
X010195Y008030D01*
X010195Y008035D01*
X011069Y008909D01*
X011151Y008991D01*
X011195Y009097D01*
X011195Y009530D01*
X011280Y009615D01*
X011597Y009615D01*
X011713Y009615D01*
X011819Y009659D01*
X012845Y010685D01*
X013100Y010685D01*
X013280Y010865D01*
X013847Y010865D01*
X013963Y010865D01*
X014069Y010909D01*
X015095Y011935D01*
X015350Y011935D01*
X015625Y012210D01*
X015625Y012465D01*
X016095Y012935D01*
X016350Y012935D01*
X016625Y013210D01*
X016625Y013600D01*
X016350Y013875D01*
X015960Y013875D01*
X015685Y013600D01*
X015685Y013345D01*
X015215Y012875D01*
X014960Y012875D01*
X014685Y012600D01*
X014685Y012345D01*
X014625Y012285D01*
X014625Y012600D01*
X014350Y012875D01*
X013960Y012875D01*
X013780Y012695D01*
X011195Y012695D01*
X011195Y013347D01*
X011195Y013463D01*
X011195Y014280D01*
X011375Y014460D01*
X011375Y014850D01*
X011195Y015030D01*
X011195Y016530D01*
X011375Y016710D01*
X011375Y017100D01*
X011100Y017375D01*
X010710Y017375D01*
X010435Y017100D01*
X010435Y016710D01*
X010615Y016530D01*
X010615Y015030D01*
X010435Y014850D01*
X010435Y014460D01*
X010615Y014280D01*
X010615Y013695D01*
X005713Y013695D01*
X005597Y013695D01*
X005030Y013695D01*
X004850Y013875D01*
X004460Y013875D01*
X004185Y013600D01*
X004185Y013210D01*
X004460Y012935D01*
X004850Y012935D01*
X005030Y013115D01*
X005365Y013115D01*
X005365Y012780D01*
X005185Y012600D01*
X005185Y012210D01*
X005365Y012030D01*
X005365Y008775D01*
X004535Y007945D01*
X003213Y007945D01*
X003097Y007945D01*
X002991Y007901D01*
X002491Y007401D01*
X002409Y007319D01*
X002365Y007213D01*
X002365Y004797D01*
X002314Y004921D01*
X002181Y005054D01*
X002009Y005125D01*
X001302Y005125D01*
X001129Y005054D01*
X000997Y004921D01*
X000925Y004749D01*
X000925Y004562D01*
X000997Y004389D01*
X001129Y004257D01*
X001302Y004185D01*
X002009Y004185D01*
X002181Y004257D01*
X002314Y004389D01*
X002365Y004513D01*
X002365Y004275D01*
X002155Y004065D01*
X002009Y004125D01*
X001302Y004125D01*
X001129Y004054D01*
X000997Y003921D01*
X000925Y003749D01*
X000925Y003562D01*
X000997Y003389D01*
X001129Y003257D01*
X001302Y003185D01*
X002009Y003185D01*
X002181Y003257D01*
X002314Y003389D01*
X002324Y003414D01*
X002401Y003491D01*
X002865Y003955D01*
X002865Y003275D01*
X002535Y002945D01*
X002290Y002945D01*
X002181Y003054D01*
X002009Y003125D01*
X001302Y003125D01*
X001129Y003054D01*
X000997Y002921D01*
X000925Y002749D01*
X000925Y002562D01*
X000997Y002389D01*
X001129Y002257D01*
X001302Y002185D01*
X002009Y002185D01*
X002181Y002257D01*
X002290Y002365D01*
X002597Y002365D01*
X002713Y002365D01*
X002819Y002409D01*
X003319Y002909D01*
X003365Y002955D01*
X003365Y002775D01*
X002535Y001945D01*
X002290Y001945D01*
X002181Y002054D01*
X002009Y002125D01*
X001302Y002125D01*
X001129Y002054D01*
X000997Y001921D01*
X000925Y001749D01*
X000925Y001562D01*
X000997Y001389D01*
X000974Y001443D02*
X000903Y001443D01*
X000874Y001542D02*
X000933Y001542D01*
X000925Y001641D02*
X000866Y001641D01*
X000865Y001739D02*
X000925Y001739D01*
X000962Y001838D02*
X000865Y001838D01*
X000865Y001936D02*
X001011Y001936D01*
X001110Y002035D02*
X000865Y002035D01*
X000865Y002133D02*
X002723Y002133D01*
X002625Y002035D02*
X002200Y002035D01*
X002121Y002232D02*
X002822Y002232D01*
X002920Y002330D02*
X002255Y002330D01*
X002839Y002429D02*
X003019Y002429D01*
X002938Y002527D02*
X003117Y002527D01*
X003036Y002626D02*
X003216Y002626D01*
X003135Y002725D02*
X003314Y002725D01*
X003365Y002823D02*
X003233Y002823D01*
X003332Y002922D02*
X003365Y002922D01*
X003945Y002922D02*
X003997Y002922D01*
X003956Y002823D02*
X003945Y002823D01*
X003945Y003020D02*
X004095Y003020D01*
X003945Y003119D02*
X004286Y003119D01*
X004224Y003217D02*
X003945Y003217D01*
X003945Y003316D02*
X004070Y003316D01*
X003986Y003414D02*
X003945Y003414D01*
X003945Y003513D02*
X003945Y003513D01*
X003916Y002527D02*
X003939Y002527D01*
X003980Y002429D02*
X003839Y002429D01*
X003740Y002330D02*
X004055Y002330D01*
X004189Y002232D02*
X003642Y002232D01*
X003543Y002133D02*
X011921Y002133D01*
X011962Y002174D02*
X011766Y001978D01*
X011725Y001879D01*
X011725Y001771D01*
X011725Y001641D01*
X011748Y001585D01*
X011725Y001529D01*
X011725Y001421D01*
X011725Y001389D01*
X011725Y001281D01*
X011766Y001182D01*
X011962Y000986D01*
X012061Y000945D01*
X012169Y000945D01*
X012409Y000945D01*
X012508Y000986D01*
X012569Y001047D01*
X012630Y000986D01*
X012729Y000945D01*
X013321Y000945D01*
X013421Y000986D01*
X013481Y001047D01*
X013542Y000986D01*
X013641Y000945D01*
X013749Y000945D01*
X013989Y000945D01*
X014088Y000986D01*
X014150Y001048D01*
X014212Y000986D01*
X014311Y000945D01*
X014803Y000945D01*
X014804Y000945D01*
X014858Y000945D01*
X014909Y000945D01*
X014910Y000946D01*
X014912Y000946D01*
X014961Y000967D01*
X015008Y000986D01*
X015009Y000987D01*
X015010Y000988D01*
X015048Y001026D01*
X015084Y001062D01*
X015084Y001064D01*
X015086Y001065D01*
X015095Y001088D01*
X015114Y001067D01*
X015116Y001062D01*
X015150Y001028D01*
X015183Y000993D01*
X015188Y000990D01*
X015192Y000986D01*
X015237Y000968D01*
X015281Y000947D01*
X015286Y000947D01*
X015291Y000945D01*
X015340Y000945D01*
X015388Y000943D01*
X015393Y000945D01*
X015541Y000945D01*
X015649Y000945D01*
X015655Y000948D01*
X015661Y000945D01*
X015769Y000945D01*
X015868Y000986D01*
X015944Y001062D01*
X015954Y001087D01*
X016048Y000989D01*
X016146Y000946D01*
X016253Y000944D01*
X016353Y000983D01*
X016431Y001058D01*
X016474Y001156D01*
X016476Y001263D01*
X016437Y001363D01*
X016402Y001400D01*
X016434Y001432D01*
X016475Y001531D01*
X016475Y001639D01*
X016475Y001889D01*
X016434Y001988D01*
X016358Y002064D01*
X016238Y002184D01*
X016139Y002225D01*
X016031Y002225D01*
X015661Y002225D01*
X015655Y002222D01*
X015649Y002225D01*
X015409Y002225D01*
X015301Y002225D01*
X015202Y002184D01*
X015035Y002017D01*
X014954Y002098D01*
X014878Y002174D01*
X014779Y002215D01*
X014539Y002215D01*
X014431Y002215D01*
X014332Y002174D01*
X014205Y002047D01*
X014088Y002164D01*
X013989Y002205D01*
X013881Y002205D01*
X013749Y002205D01*
X013641Y002205D01*
X013542Y002164D01*
X013359Y001981D01*
X013176Y002164D01*
X013076Y002205D01*
X012969Y002205D01*
X012870Y002164D01*
X012794Y002088D01*
X012753Y001989D01*
X012753Y001981D01*
X012753Y001875D01*
X012714Y001968D01*
X012584Y002098D01*
X012508Y002174D01*
X012409Y002215D01*
X012169Y002215D01*
X012061Y002215D01*
X011962Y002174D01*
X011823Y002035D02*
X005073Y002035D01*
X005072Y002035D02*
X005011Y002055D01*
X004947Y002065D01*
X004685Y002065D01*
X004685Y001685D01*
X004625Y001685D01*
X004625Y001625D01*
X004685Y001625D01*
X004685Y001245D01*
X004947Y001245D01*
X005011Y001255D01*
X005072Y001275D01*
X005130Y001304D01*
X005182Y001342D01*
X005228Y001388D01*
X005266Y001440D01*
X005295Y001498D01*
X005315Y001559D01*
X005325Y001623D01*
X005325Y001625D01*
X004685Y001625D01*
X004685Y001685D01*
X005325Y001685D01*
X005325Y001687D01*
X005315Y001751D01*
X005295Y001812D01*
X005266Y001870D01*
X005228Y001922D01*
X005182Y001968D01*
X005130Y002006D01*
X005072Y002035D01*
X005214Y001936D02*
X011749Y001936D01*
X011725Y001838D02*
X005282Y001838D01*
X005317Y001739D02*
X011725Y001739D01*
X011725Y001641D02*
X004685Y001641D01*
X004625Y001641D02*
X003051Y001641D01*
X003149Y001739D02*
X003993Y001739D01*
X003995Y001751D02*
X003985Y001687D01*
X003985Y001685D01*
X004625Y001685D01*
X004625Y002065D01*
X004363Y002065D01*
X004299Y002055D01*
X004238Y002035D01*
X004180Y002006D01*
X004128Y001968D01*
X004082Y001922D01*
X004044Y001870D01*
X004015Y001812D01*
X003995Y001751D01*
X004028Y001838D02*
X003248Y001838D01*
X003346Y001936D02*
X004096Y001936D01*
X004237Y002035D02*
X003445Y002035D01*
X002952Y001542D02*
X004001Y001542D01*
X003995Y001559D02*
X004015Y001498D01*
X004044Y001440D01*
X004082Y001388D01*
X004128Y001342D01*
X004180Y001304D01*
X004238Y001275D01*
X004299Y001255D01*
X004363Y001245D01*
X004625Y001245D01*
X004625Y001625D01*
X003985Y001625D01*
X003985Y001623D01*
X003995Y001559D01*
X004043Y001443D02*
X002854Y001443D01*
X002270Y001345D02*
X004125Y001345D01*
X004355Y001246D02*
X002156Y001246D01*
X001298Y000951D02*
X012048Y000951D01*
X011899Y001049D02*
X001161Y001049D01*
X001059Y001148D02*
X011801Y001148D01*
X011740Y001246D02*
X004955Y001246D01*
X005185Y001345D02*
X011725Y001345D01*
X011725Y001443D02*
X005267Y001443D01*
X005309Y001542D02*
X011731Y001542D01*
X011100Y002185D02*
X011375Y002460D01*
X011375Y002850D01*
X011100Y003125D01*
X010710Y003125D01*
X010435Y002850D01*
X010435Y002460D01*
X010710Y002185D01*
X011100Y002185D01*
X011146Y002232D02*
X016755Y002232D01*
X016755Y002277D02*
X016833Y002464D01*
X016976Y002607D01*
X017164Y002685D01*
X017367Y002685D01*
X017554Y002607D01*
X017697Y002464D01*
X017775Y002277D01*
X017775Y001474D01*
X017697Y001286D01*
X017554Y001143D01*
X017367Y001065D01*
X017164Y001065D01*
X016976Y001143D01*
X016833Y001286D01*
X016755Y001474D01*
X016755Y002277D01*
X016777Y002330D02*
X011245Y002330D01*
X011344Y002429D02*
X016818Y002429D01*
X016896Y002527D02*
X011375Y002527D01*
X011375Y002626D02*
X017021Y002626D01*
X016755Y002133D02*
X016289Y002133D01*
X016387Y002035D02*
X016755Y002035D01*
X016755Y001936D02*
X016455Y001936D01*
X016475Y001838D02*
X016755Y001838D01*
X016755Y001739D02*
X016475Y001739D01*
X016475Y001641D02*
X016755Y001641D01*
X016755Y001542D02*
X016475Y001542D01*
X016439Y001443D02*
X016768Y001443D01*
X016808Y001345D02*
X016444Y001345D01*
X016476Y001246D02*
X016873Y001246D01*
X016971Y001148D02*
X016470Y001148D01*
X016422Y001049D02*
X019649Y001049D01*
X019751Y001148D02*
X019186Y001148D01*
X019218Y001158D02*
X019281Y001190D01*
X019338Y001232D01*
X019388Y001282D01*
X019430Y001339D01*
X019462Y001402D01*
X019484Y001470D01*
X019495Y001540D01*
X019495Y001825D01*
X019095Y001825D01*
X019095Y001127D01*
X019150Y001136D01*
X019218Y001158D01*
X019095Y001148D02*
X018995Y001148D01*
X018995Y001127D02*
X018995Y001825D01*
X019095Y001825D01*
X019095Y001925D01*
X019495Y001925D01*
X019495Y002211D01*
X019484Y002280D01*
X019462Y002348D01*
X019430Y002411D01*
X019388Y002468D01*
X019338Y002518D01*
X019281Y002560D01*
X019218Y002592D01*
X019150Y002614D01*
X019095Y002623D01*
X019095Y001925D01*
X018995Y001925D01*
X018995Y001825D01*
X018595Y001825D01*
X018595Y001540D01*
X018606Y001470D01*
X018628Y001402D01*
X018660Y001339D01*
X018702Y001282D01*
X018752Y001232D01*
X018809Y001190D01*
X018872Y001158D01*
X018940Y001136D01*
X018995Y001127D01*
X018904Y001148D02*
X017559Y001148D01*
X017658Y001246D02*
X018737Y001246D01*
X018657Y001345D02*
X017722Y001345D01*
X017763Y001443D02*
X018615Y001443D01*
X018595Y001542D02*
X017775Y001542D01*
X017775Y001641D02*
X018595Y001641D01*
X018595Y001739D02*
X017775Y001739D01*
X017775Y001838D02*
X018995Y001838D01*
X018995Y001925D02*
X018595Y001925D01*
X018595Y002211D01*
X018606Y002280D01*
X018628Y002348D01*
X018660Y002411D01*
X018702Y002468D01*
X018752Y002518D01*
X018809Y002560D01*
X018872Y002592D01*
X018940Y002614D01*
X018995Y002623D01*
X018995Y001925D01*
X018995Y001936D02*
X019095Y001936D01*
X019095Y001838D02*
X019945Y001838D01*
X019945Y001936D02*
X019495Y001936D01*
X019495Y002035D02*
X019945Y002035D01*
X019945Y002133D02*
X019495Y002133D01*
X019492Y002232D02*
X019945Y002232D01*
X019945Y002330D02*
X019468Y002330D01*
X019417Y002429D02*
X019945Y002429D01*
X019945Y002527D02*
X019326Y002527D01*
X019095Y002527D02*
X018995Y002527D01*
X018995Y002429D02*
X019095Y002429D01*
X019095Y002330D02*
X018995Y002330D01*
X018995Y002232D02*
X019095Y002232D01*
X019095Y002133D02*
X018995Y002133D01*
X018995Y002035D02*
X019095Y002035D01*
X019095Y001739D02*
X018995Y001739D01*
X018995Y001641D02*
X019095Y001641D01*
X019095Y001542D02*
X018995Y001542D01*
X018995Y001443D02*
X019095Y001443D01*
X019095Y001345D02*
X018995Y001345D01*
X018995Y001246D02*
X019095Y001246D01*
X019353Y001246D02*
X019823Y001246D01*
X019875Y001345D02*
X019433Y001345D01*
X019475Y001443D02*
X019907Y001443D01*
X019936Y001542D02*
X019495Y001542D01*
X019495Y001641D02*
X019944Y001641D01*
X019945Y001739D02*
X019495Y001739D01*
X019512Y000951D02*
X016270Y000951D01*
X016136Y000951D02*
X015782Y000951D01*
X015931Y001049D02*
X015990Y001049D01*
X015274Y000951D02*
X014924Y000951D01*
X015071Y001049D02*
X015129Y001049D01*
X014298Y000951D02*
X014002Y000951D01*
X013628Y000951D02*
X013335Y000951D01*
X012715Y000951D02*
X012422Y000951D01*
X012727Y001936D02*
X012753Y001936D01*
X012753Y001981D02*
X012753Y001981D01*
X012772Y002035D02*
X012647Y002035D01*
X012549Y002133D02*
X012839Y002133D01*
X013206Y002133D02*
X013511Y002133D01*
X013413Y002035D02*
X013305Y002035D01*
X014119Y002133D02*
X014291Y002133D01*
X014919Y002133D02*
X015151Y002133D01*
X015053Y002035D02*
X015017Y002035D01*
X016833Y003846D02*
X016976Y003703D01*
X017164Y003625D01*
X017367Y003625D01*
X017554Y003703D01*
X017697Y003846D01*
X017775Y004034D01*
X017775Y004837D01*
X017697Y005024D01*
X017554Y005167D01*
X017367Y005245D01*
X017164Y005245D01*
X016976Y005167D01*
X016833Y005024D01*
X016755Y004837D01*
X016755Y004034D01*
X016833Y003846D01*
X016870Y003809D02*
X009162Y003809D01*
X009260Y003710D02*
X016969Y003710D01*
X016808Y003907D02*
X009055Y003907D01*
X009359Y003611D02*
X019945Y003611D01*
X019945Y003513D02*
X009457Y003513D01*
X009556Y003414D02*
X019945Y003414D01*
X019945Y003316D02*
X009655Y003316D01*
X009753Y003217D02*
X019945Y003217D01*
X019945Y003119D02*
X011106Y003119D01*
X011205Y003020D02*
X019945Y003020D01*
X019945Y002922D02*
X011303Y002922D01*
X011375Y002823D02*
X019945Y002823D01*
X019945Y002725D02*
X011375Y002725D01*
X010704Y003119D02*
X010106Y003119D01*
X010205Y003020D02*
X010606Y003020D01*
X010507Y002922D02*
X010303Y002922D01*
X010375Y002823D02*
X010435Y002823D01*
X010435Y002725D02*
X010375Y002725D01*
X010375Y002626D02*
X010435Y002626D01*
X010435Y002527D02*
X010375Y002527D01*
X010344Y002429D02*
X010467Y002429D01*
X010565Y002330D02*
X010245Y002330D01*
X010146Y002232D02*
X010664Y002232D01*
X009664Y002232D02*
X005121Y002232D01*
X005255Y002330D02*
X009565Y002330D01*
X009467Y002429D02*
X005330Y002429D01*
X005371Y002527D02*
X009435Y002527D01*
X009435Y002626D02*
X005385Y002626D01*
X005385Y002725D02*
X009426Y002725D01*
X009327Y002823D02*
X005354Y002823D01*
X005313Y002922D02*
X009228Y002922D01*
X009130Y003020D02*
X005215Y003020D01*
X005024Y003119D02*
X009031Y003119D01*
X008933Y003217D02*
X005086Y003217D01*
X005240Y003316D02*
X008834Y003316D01*
X009710Y004685D02*
X010100Y004685D01*
X010375Y004960D01*
X010375Y005350D01*
X010195Y005530D01*
X010195Y005535D01*
X010525Y005865D01*
X012213Y005865D01*
X012319Y005909D01*
X012401Y005991D01*
X013151Y006741D01*
X013195Y006847D01*
X013195Y006963D01*
X013195Y008280D01*
X013280Y008365D01*
X014865Y008365D01*
X014865Y007780D01*
X014685Y007600D01*
X014685Y007210D01*
X014960Y006935D01*
X015350Y006935D01*
X015625Y007210D01*
X015625Y007600D01*
X015445Y007780D01*
X015445Y008365D01*
X016865Y008365D01*
X016865Y006780D01*
X016685Y006600D01*
X016685Y006210D01*
X016960Y005935D01*
X017350Y005935D01*
X017625Y006210D01*
X017625Y006600D01*
X017445Y006780D01*
X017445Y008597D01*
X017445Y013030D01*
X017625Y013210D01*
X017625Y013600D01*
X017350Y013875D01*
X016960Y013875D01*
X016685Y013600D01*
X016685Y013210D01*
X016865Y013030D01*
X016865Y008945D01*
X015213Y008945D01*
X015097Y008945D01*
X013280Y008945D01*
X013100Y009125D01*
X012710Y009125D01*
X012435Y008850D01*
X012435Y008460D01*
X012615Y008280D01*
X012615Y007025D01*
X012035Y006445D01*
X010463Y006445D01*
X010347Y006445D01*
X010241Y006401D01*
X009741Y005901D01*
X009659Y005819D01*
X009615Y005713D01*
X009615Y005530D01*
X009435Y005350D01*
X009435Y004960D01*
X009710Y004685D01*
X009700Y004695D02*
X006945Y004695D01*
X006945Y004597D02*
X016755Y004597D01*
X016755Y004695D02*
X011110Y004695D01*
X011100Y004685D02*
X011375Y004960D01*
X011375Y005350D01*
X011100Y005625D01*
X010710Y005625D01*
X010435Y005350D01*
X010435Y004960D01*
X010710Y004685D01*
X011100Y004685D01*
X011209Y004794D02*
X016755Y004794D01*
X016778Y004892D02*
X011307Y004892D01*
X011375Y004991D02*
X016819Y004991D01*
X016898Y005090D02*
X011375Y005090D01*
X011375Y005188D02*
X017026Y005188D01*
X017504Y005188D02*
X019945Y005188D01*
X019945Y005090D02*
X019323Y005090D01*
X019338Y005078D02*
X019281Y005120D01*
X019218Y005152D01*
X019150Y005174D01*
X019095Y005183D01*
X019095Y004485D01*
X019495Y004485D01*
X019495Y004771D01*
X019484Y004840D01*
X019462Y004908D01*
X019430Y004971D01*
X019388Y005028D01*
X019338Y005078D01*
X019415Y004991D02*
X019945Y004991D01*
X019945Y004892D02*
X019467Y004892D01*
X019491Y004794D02*
X019945Y004794D01*
X019945Y004695D02*
X019495Y004695D01*
X019495Y004597D02*
X019945Y004597D01*
X019945Y004498D02*
X019495Y004498D01*
X019495Y004385D02*
X019095Y004385D01*
X019095Y003687D01*
X019150Y003696D01*
X019218Y003718D01*
X019281Y003750D01*
X019338Y003792D01*
X019388Y003842D01*
X019430Y003899D01*
X019462Y003962D01*
X019484Y004030D01*
X019495Y004100D01*
X019495Y004385D01*
X019495Y004301D02*
X019945Y004301D01*
X019945Y004203D02*
X019495Y004203D01*
X019495Y004104D02*
X019945Y004104D01*
X019945Y004006D02*
X019476Y004006D01*
X019434Y003907D02*
X019945Y003907D01*
X019945Y003809D02*
X019355Y003809D01*
X019193Y003710D02*
X019945Y003710D01*
X019945Y004400D02*
X019095Y004400D01*
X019095Y004385D02*
X019095Y004485D01*
X018995Y004485D01*
X018995Y004385D01*
X019095Y004385D01*
X019095Y004301D02*
X018995Y004301D01*
X018995Y004385D02*
X018995Y003687D01*
X018940Y003696D01*
X018872Y003718D01*
X018809Y003750D01*
X018752Y003792D01*
X018702Y003842D01*
X018660Y003899D01*
X018628Y003962D01*
X018606Y004030D01*
X018595Y004100D01*
X018595Y004385D01*
X018995Y004385D01*
X018995Y004400D02*
X017775Y004400D01*
X017775Y004498D02*
X018595Y004498D01*
X018595Y004485D02*
X018995Y004485D01*
X018995Y005183D01*
X018940Y005174D01*
X018872Y005152D01*
X018809Y005120D01*
X018752Y005078D01*
X018702Y005028D01*
X018660Y004971D01*
X018628Y004908D01*
X018606Y004840D01*
X018595Y004771D01*
X018595Y004485D01*
X018595Y004597D02*
X017775Y004597D01*
X017775Y004695D02*
X018595Y004695D01*
X018599Y004794D02*
X017775Y004794D01*
X017752Y004892D02*
X018623Y004892D01*
X018675Y004991D02*
X017711Y004991D01*
X017632Y005090D02*
X018767Y005090D01*
X018995Y005090D02*
X019095Y005090D01*
X019095Y004991D02*
X018995Y004991D01*
X018995Y004892D02*
X019095Y004892D01*
X019095Y004794D02*
X018995Y004794D01*
X018995Y004695D02*
X019095Y004695D01*
X019095Y004597D02*
X018995Y004597D01*
X018995Y004498D02*
X019095Y004498D01*
X019095Y004203D02*
X018995Y004203D01*
X018995Y004104D02*
X019095Y004104D01*
X019095Y004006D02*
X018995Y004006D01*
X018995Y003907D02*
X019095Y003907D01*
X019095Y003809D02*
X018995Y003809D01*
X018995Y003710D02*
X019095Y003710D01*
X018897Y003710D02*
X017561Y003710D01*
X017660Y003809D02*
X018735Y003809D01*
X018656Y003907D02*
X017723Y003907D01*
X017763Y004006D02*
X018614Y004006D01*
X018595Y004104D02*
X017775Y004104D01*
X017775Y004203D02*
X018595Y004203D01*
X018595Y004301D02*
X017775Y004301D01*
X016755Y004301D02*
X006945Y004301D01*
X006945Y004203D02*
X016755Y004203D01*
X016755Y004104D02*
X006945Y004104D01*
X006945Y004006D02*
X016767Y004006D01*
X016755Y004400D02*
X006945Y004400D01*
X006945Y004498D02*
X016755Y004498D01*
X016919Y005976D02*
X016391Y005976D01*
X016350Y005935D02*
X016625Y006210D01*
X016625Y006600D01*
X016350Y006875D01*
X015960Y006875D01*
X015685Y006600D01*
X015685Y006210D01*
X015960Y005935D01*
X016350Y005935D01*
X016490Y006075D02*
X016821Y006075D01*
X016722Y006174D02*
X016588Y006174D01*
X016625Y006272D02*
X016685Y006272D01*
X016685Y006371D02*
X016625Y006371D01*
X016625Y006469D02*
X016685Y006469D01*
X016685Y006568D02*
X016625Y006568D01*
X016559Y006666D02*
X016752Y006666D01*
X016850Y006765D02*
X016460Y006765D01*
X016361Y006863D02*
X016865Y006863D01*
X016865Y006962D02*
X015377Y006962D01*
X015475Y007060D02*
X016865Y007060D01*
X016865Y007159D02*
X015574Y007159D01*
X015625Y007258D02*
X016865Y007258D01*
X016865Y007356D02*
X015625Y007356D01*
X015625Y007455D02*
X016865Y007455D01*
X016865Y007553D02*
X015625Y007553D01*
X015573Y007652D02*
X016865Y007652D01*
X016865Y007750D02*
X015475Y007750D01*
X015445Y007849D02*
X016865Y007849D01*
X016865Y007947D02*
X015445Y007947D01*
X015445Y008046D02*
X016865Y008046D01*
X016865Y008144D02*
X015445Y008144D01*
X015445Y008243D02*
X016865Y008243D01*
X016865Y008341D02*
X015445Y008341D01*
X014865Y008341D02*
X013256Y008341D01*
X013195Y008243D02*
X014865Y008243D01*
X014865Y008144D02*
X013195Y008144D01*
X013195Y008046D02*
X014865Y008046D01*
X014865Y007947D02*
X013195Y007947D01*
X013195Y007849D02*
X013934Y007849D01*
X013960Y007875D02*
X013685Y007600D01*
X013685Y007210D01*
X013960Y006935D01*
X014350Y006935D01*
X014625Y007210D01*
X014625Y007600D01*
X014350Y007875D01*
X013960Y007875D01*
X013836Y007750D02*
X013195Y007750D01*
X013195Y007652D02*
X013737Y007652D01*
X013685Y007553D02*
X013195Y007553D01*
X013195Y007455D02*
X013685Y007455D01*
X013685Y007356D02*
X013195Y007356D01*
X013195Y007258D02*
X013685Y007258D01*
X013737Y007159D02*
X013195Y007159D01*
X013195Y007060D02*
X013835Y007060D01*
X013934Y006962D02*
X013195Y006962D01*
X013195Y006863D02*
X015949Y006863D01*
X015850Y006765D02*
X013161Y006765D01*
X013076Y006666D02*
X015752Y006666D01*
X015685Y006568D02*
X012978Y006568D01*
X012879Y006469D02*
X015685Y006469D01*
X015685Y006371D02*
X012781Y006371D01*
X012682Y006272D02*
X015685Y006272D01*
X015722Y006174D02*
X012584Y006174D01*
X012485Y006075D02*
X015821Y006075D01*
X015919Y005976D02*
X012387Y005976D01*
X012244Y005878D02*
X018768Y005878D01*
X018685Y005960D02*
X018960Y005685D01*
X019350Y005685D01*
X019625Y005960D01*
X019625Y006350D01*
X019350Y006625D01*
X018960Y006625D01*
X018685Y006350D01*
X018685Y005960D01*
X018685Y005976D02*
X017391Y005976D01*
X017490Y006075D02*
X018685Y006075D01*
X018685Y006174D02*
X017588Y006174D01*
X017625Y006272D02*
X018685Y006272D01*
X018706Y006371D02*
X017625Y006371D01*
X017625Y006469D02*
X018805Y006469D01*
X018903Y006568D02*
X017625Y006568D01*
X017559Y006666D02*
X019945Y006666D01*
X019945Y006568D02*
X019407Y006568D01*
X019506Y006469D02*
X019945Y006469D01*
X019945Y006371D02*
X019604Y006371D01*
X019625Y006272D02*
X019945Y006272D01*
X019945Y006174D02*
X019625Y006174D01*
X019625Y006075D02*
X019945Y006075D01*
X019945Y005976D02*
X019625Y005976D01*
X019543Y005878D02*
X019945Y005878D01*
X019945Y005779D02*
X019444Y005779D01*
X019945Y005681D02*
X010341Y005681D01*
X010439Y005779D02*
X018866Y005779D01*
X019945Y005582D02*
X011143Y005582D01*
X011241Y005484D02*
X019945Y005484D01*
X019945Y005385D02*
X011340Y005385D01*
X011375Y005287D02*
X019945Y005287D01*
X019945Y006765D02*
X017460Y006765D01*
X017445Y006863D02*
X019945Y006863D01*
X019945Y006962D02*
X017445Y006962D01*
X017445Y007060D02*
X019945Y007060D01*
X019945Y007159D02*
X017445Y007159D01*
X017445Y007258D02*
X019945Y007258D01*
X019945Y007356D02*
X017445Y007356D01*
X017445Y007455D02*
X019945Y007455D01*
X019945Y007553D02*
X017445Y007553D01*
X017445Y007652D02*
X019945Y007652D01*
X019945Y007750D02*
X017445Y007750D01*
X017445Y007849D02*
X019945Y007849D01*
X019945Y007947D02*
X017445Y007947D01*
X017445Y008046D02*
X019945Y008046D01*
X019945Y008144D02*
X017445Y008144D01*
X017445Y008243D02*
X019945Y008243D01*
X019945Y008341D02*
X017445Y008341D01*
X017445Y008440D02*
X019945Y008440D01*
X019945Y008539D02*
X017445Y008539D01*
X017445Y008637D02*
X019945Y008637D01*
X019945Y008736D02*
X017445Y008736D01*
X017445Y008834D02*
X019945Y008834D01*
X019945Y008933D02*
X017445Y008933D01*
X017445Y009031D02*
X019945Y009031D01*
X019945Y009130D02*
X017445Y009130D01*
X017445Y009228D02*
X019945Y009228D01*
X019945Y009327D02*
X017445Y009327D01*
X017445Y009425D02*
X019945Y009425D01*
X019945Y009524D02*
X017445Y009524D01*
X017445Y009623D02*
X019945Y009623D01*
X019945Y009721D02*
X019386Y009721D01*
X019350Y009685D02*
X019625Y009960D01*
X019625Y010350D01*
X019350Y010625D01*
X018960Y010625D01*
X018685Y010350D01*
X018685Y009960D01*
X018960Y009685D01*
X019350Y009685D01*
X019484Y009820D02*
X019945Y009820D01*
X019945Y009918D02*
X019583Y009918D01*
X019625Y010017D02*
X019945Y010017D01*
X019945Y010115D02*
X019625Y010115D01*
X019625Y010214D02*
X019945Y010214D01*
X019945Y010312D02*
X019625Y010312D01*
X019564Y010411D02*
X019945Y010411D01*
X019945Y010509D02*
X019465Y010509D01*
X019367Y010608D02*
X019945Y010608D01*
X019945Y010707D02*
X017445Y010707D01*
X017445Y010805D02*
X019945Y010805D01*
X019945Y010904D02*
X017445Y010904D01*
X017445Y011002D02*
X019945Y011002D01*
X019945Y011101D02*
X017445Y011101D01*
X017445Y011199D02*
X019945Y011199D01*
X019945Y011298D02*
X017445Y011298D01*
X017445Y011396D02*
X019945Y011396D01*
X019945Y011495D02*
X017445Y011495D01*
X017445Y011593D02*
X019945Y011593D01*
X019945Y011692D02*
X017445Y011692D01*
X017445Y011791D02*
X019945Y011791D01*
X019945Y011889D02*
X017445Y011889D01*
X017445Y011988D02*
X019945Y011988D01*
X019945Y012086D02*
X017445Y012086D01*
X017445Y012185D02*
X019945Y012185D01*
X019945Y012283D02*
X017445Y012283D01*
X017445Y012382D02*
X019945Y012382D01*
X019945Y012480D02*
X017445Y012480D01*
X017445Y012579D02*
X019945Y012579D01*
X019945Y012677D02*
X017445Y012677D01*
X017445Y012776D02*
X019945Y012776D01*
X019945Y012874D02*
X017445Y012874D01*
X017445Y012973D02*
X019945Y012973D01*
X019945Y013072D02*
X017486Y013072D01*
X017585Y013170D02*
X019945Y013170D01*
X019945Y013269D02*
X017625Y013269D01*
X017625Y013367D02*
X019945Y013367D01*
X019945Y013466D02*
X017625Y013466D01*
X017625Y013564D02*
X019945Y013564D01*
X019945Y013663D02*
X017562Y013663D01*
X017463Y013761D02*
X019945Y013761D01*
X019945Y013860D02*
X017365Y013860D01*
X016945Y013860D02*
X016365Y013860D01*
X016463Y013761D02*
X016847Y013761D01*
X016748Y013663D02*
X016562Y013663D01*
X016625Y013564D02*
X016685Y013564D01*
X016685Y013466D02*
X016625Y013466D01*
X016625Y013367D02*
X016685Y013367D01*
X016685Y013269D02*
X016625Y013269D01*
X016585Y013170D02*
X016725Y013170D01*
X016824Y013072D02*
X016486Y013072D01*
X016388Y012973D02*
X016865Y012973D01*
X016865Y012874D02*
X016035Y012874D01*
X015936Y012776D02*
X016865Y012776D01*
X016865Y012677D02*
X015838Y012677D01*
X015739Y012579D02*
X016865Y012579D01*
X016865Y012480D02*
X015640Y012480D01*
X015625Y012382D02*
X016865Y012382D01*
X016865Y012283D02*
X015625Y012283D01*
X015599Y012185D02*
X016865Y012185D01*
X016865Y012086D02*
X015501Y012086D01*
X015402Y011988D02*
X016865Y011988D01*
X016865Y011889D02*
X015049Y011889D01*
X014951Y011791D02*
X016865Y011791D01*
X016865Y011692D02*
X014852Y011692D01*
X014754Y011593D02*
X016865Y011593D01*
X016865Y011495D02*
X014655Y011495D01*
X014556Y011396D02*
X016865Y011396D01*
X016865Y011298D02*
X014458Y011298D01*
X014359Y011199D02*
X016865Y011199D01*
X016865Y011101D02*
X014261Y011101D01*
X014162Y011002D02*
X016865Y011002D01*
X016865Y010904D02*
X014056Y010904D01*
X013220Y010805D02*
X016865Y010805D01*
X016865Y010707D02*
X013121Y010707D01*
X012768Y010608D02*
X016865Y010608D01*
X016865Y010509D02*
X012670Y010509D01*
X012571Y010411D02*
X016865Y010411D01*
X016865Y010312D02*
X012472Y010312D01*
X012374Y010214D02*
X016865Y010214D01*
X016865Y010115D02*
X012275Y010115D01*
X012177Y010017D02*
X016865Y010017D01*
X016865Y009918D02*
X012078Y009918D01*
X011980Y009820D02*
X016865Y009820D01*
X016865Y009721D02*
X011881Y009721D01*
X011731Y009623D02*
X016865Y009623D01*
X016865Y009524D02*
X011195Y009524D01*
X011195Y009425D02*
X016865Y009425D01*
X016865Y009327D02*
X011195Y009327D01*
X011195Y009228D02*
X016865Y009228D01*
X016865Y009130D02*
X011195Y009130D01*
X011168Y009031D02*
X011617Y009031D01*
X011710Y009125D02*
X011435Y008850D01*
X011435Y008460D01*
X011710Y008185D01*
X012100Y008185D01*
X012375Y008460D01*
X012375Y008850D01*
X012100Y009125D01*
X011710Y009125D01*
X011518Y008933D02*
X011093Y008933D01*
X010994Y008834D02*
X011435Y008834D01*
X011435Y008736D02*
X010896Y008736D01*
X010797Y008637D02*
X011435Y008637D01*
X011435Y008539D02*
X010699Y008539D01*
X010600Y008440D02*
X011456Y008440D01*
X011554Y008341D02*
X010502Y008341D01*
X010403Y008243D02*
X011653Y008243D01*
X011278Y007947D02*
X012615Y007947D01*
X012615Y007849D02*
X011375Y007849D01*
X011375Y007850D02*
X011100Y008125D01*
X010710Y008125D01*
X010435Y007850D01*
X010435Y007460D01*
X010710Y007185D01*
X011100Y007185D01*
X011375Y007460D01*
X011375Y007850D01*
X011375Y007750D02*
X012615Y007750D01*
X012615Y007652D02*
X011375Y007652D01*
X011375Y007553D02*
X012615Y007553D01*
X012615Y007455D02*
X011369Y007455D01*
X011271Y007356D02*
X012615Y007356D01*
X012615Y007258D02*
X011172Y007258D01*
X010638Y007258D02*
X010172Y007258D01*
X010271Y007356D02*
X010539Y007356D01*
X010441Y007455D02*
X010369Y007455D01*
X010375Y007553D02*
X010435Y007553D01*
X010435Y007652D02*
X010375Y007652D01*
X010375Y007750D02*
X010435Y007750D01*
X010435Y007849D02*
X010375Y007849D01*
X010278Y007947D02*
X010533Y007947D01*
X010631Y008046D02*
X010206Y008046D01*
X010305Y008144D02*
X012615Y008144D01*
X012615Y008046D02*
X011179Y008046D01*
X012158Y008243D02*
X012615Y008243D01*
X012554Y008341D02*
X012256Y008341D01*
X012355Y008440D02*
X012456Y008440D01*
X012435Y008539D02*
X012375Y008539D01*
X012375Y008637D02*
X012435Y008637D01*
X012435Y008736D02*
X012375Y008736D01*
X012375Y008834D02*
X012435Y008834D01*
X012518Y008933D02*
X012292Y008933D01*
X012194Y009031D02*
X012617Y009031D01*
X013194Y009031D02*
X016865Y009031D01*
X017445Y009721D02*
X018924Y009721D01*
X018826Y009820D02*
X017445Y009820D01*
X017445Y009918D02*
X018727Y009918D01*
X018685Y010017D02*
X017445Y010017D01*
X017445Y010115D02*
X018685Y010115D01*
X018685Y010214D02*
X017445Y010214D01*
X017445Y010312D02*
X018685Y010312D01*
X018746Y010411D02*
X017445Y010411D01*
X017445Y010509D02*
X018845Y010509D01*
X018943Y010608D02*
X017445Y010608D01*
X015313Y012973D02*
X011195Y012973D01*
X011195Y012874D02*
X013960Y012874D01*
X013861Y012776D02*
X011195Y012776D01*
X011195Y013072D02*
X015411Y013072D01*
X015510Y013170D02*
X011195Y013170D01*
X011195Y013269D02*
X015609Y013269D01*
X015685Y013367D02*
X011195Y013367D01*
X011195Y013466D02*
X015685Y013466D01*
X015685Y013564D02*
X011195Y013564D01*
X011195Y013663D02*
X015748Y013663D01*
X015847Y013761D02*
X011195Y013761D01*
X011195Y013860D02*
X015945Y013860D01*
X014960Y012874D02*
X014350Y012874D01*
X014449Y012776D02*
X014861Y012776D01*
X014763Y012677D02*
X014547Y012677D01*
X014625Y012579D02*
X014685Y012579D01*
X014685Y012480D02*
X014625Y012480D01*
X014625Y012382D02*
X014685Y012382D01*
X011366Y014451D02*
X019945Y014451D01*
X019945Y014353D02*
X011267Y014353D01*
X011195Y014254D02*
X019945Y014254D01*
X019945Y014156D02*
X011195Y014156D01*
X011195Y014057D02*
X019945Y014057D01*
X019945Y013958D02*
X011195Y013958D01*
X010615Y013958D02*
X000865Y013958D01*
X000865Y013860D02*
X003445Y013860D01*
X003460Y013875D02*
X003185Y013600D01*
X003185Y013210D01*
X003460Y012935D01*
X003850Y012935D01*
X004125Y013210D01*
X004125Y013600D01*
X003850Y013875D01*
X003460Y013875D01*
X003347Y013761D02*
X000865Y013761D01*
X000865Y013663D02*
X003248Y013663D01*
X003185Y013564D02*
X000865Y013564D01*
X000865Y013466D02*
X003185Y013466D01*
X003185Y013367D02*
X000865Y013367D01*
X000865Y013269D02*
X003185Y013269D01*
X003225Y013170D02*
X000865Y013170D01*
X000865Y013072D02*
X003324Y013072D01*
X003423Y012973D02*
X000865Y012973D01*
X000865Y012874D02*
X005365Y012874D01*
X005361Y012776D02*
X000865Y012776D01*
X000865Y012677D02*
X005263Y012677D01*
X005185Y012579D02*
X000865Y012579D01*
X000865Y012480D02*
X005185Y012480D01*
X005185Y012382D02*
X000865Y012382D01*
X000865Y012283D02*
X005185Y012283D01*
X005211Y012185D02*
X000865Y012185D01*
X000865Y012086D02*
X005309Y012086D01*
X005365Y011988D02*
X000865Y011988D01*
X000865Y011889D02*
X005365Y011889D01*
X005365Y011791D02*
X000865Y011791D01*
X000865Y011692D02*
X005365Y011692D01*
X005365Y011593D02*
X000865Y011593D01*
X000865Y011495D02*
X005365Y011495D01*
X005365Y011396D02*
X000865Y011396D01*
X000865Y011298D02*
X005365Y011298D01*
X005365Y011199D02*
X000865Y011199D01*
X000865Y011101D02*
X005365Y011101D01*
X005365Y011002D02*
X000865Y011002D01*
X000865Y010904D02*
X005365Y010904D01*
X005365Y010805D02*
X000865Y010805D01*
X000865Y010707D02*
X005365Y010707D01*
X005365Y010608D02*
X000865Y010608D01*
X000865Y010509D02*
X005365Y010509D01*
X005365Y010411D02*
X000865Y010411D01*
X000865Y010312D02*
X005365Y010312D01*
X005365Y010214D02*
X000865Y010214D01*
X000865Y010115D02*
X005365Y010115D01*
X005365Y010017D02*
X000865Y010017D01*
X000865Y009918D02*
X005365Y009918D01*
X005365Y009820D02*
X000865Y009820D01*
X000865Y009721D02*
X005365Y009721D01*
X005365Y009623D02*
X000865Y009623D01*
X000865Y009524D02*
X005365Y009524D01*
X005365Y009425D02*
X000865Y009425D01*
X000865Y009327D02*
X005365Y009327D01*
X005365Y009228D02*
X000865Y009228D01*
X000865Y009130D02*
X005365Y009130D01*
X005365Y009031D02*
X003859Y009031D01*
X003825Y009065D02*
X003685Y009065D01*
X003685Y008685D01*
X004065Y008685D01*
X004065Y008825D01*
X003825Y009065D01*
X003685Y009031D02*
X003625Y009031D01*
X003625Y009065D02*
X003485Y009065D01*
X003245Y008825D01*
X003245Y008685D01*
X003625Y008685D01*
X003625Y008625D01*
X003685Y008625D01*
X003685Y008245D01*
X003825Y008245D01*
X004065Y008485D01*
X004065Y008625D01*
X003685Y008625D01*
X003685Y008685D01*
X003625Y008685D01*
X003625Y009065D01*
X003625Y008933D02*
X003685Y008933D01*
X003685Y008834D02*
X003625Y008834D01*
X003625Y008736D02*
X003685Y008736D01*
X003685Y008637D02*
X005227Y008637D01*
X005128Y008539D02*
X004065Y008539D01*
X004020Y008440D02*
X005030Y008440D01*
X004931Y008341D02*
X003921Y008341D01*
X003685Y008341D02*
X003625Y008341D01*
X003625Y008245D02*
X003485Y008245D01*
X003245Y008485D01*
X003245Y008625D01*
X003625Y008625D01*
X003625Y008245D01*
X003625Y008440D02*
X003685Y008440D01*
X003685Y008539D02*
X003625Y008539D01*
X003625Y008637D02*
X002125Y008637D01*
X002125Y008539D02*
X003245Y008539D01*
X003290Y008440D02*
X002105Y008440D01*
X002125Y008460D02*
X001850Y008185D01*
X001460Y008185D01*
X001185Y008460D01*
X001185Y008850D01*
X001460Y009125D01*
X001850Y009125D01*
X002125Y008850D01*
X002125Y008460D01*
X002006Y008341D02*
X003389Y008341D01*
X003245Y008736D02*
X002125Y008736D01*
X002125Y008834D02*
X003254Y008834D01*
X003353Y008933D02*
X002042Y008933D01*
X001944Y009031D02*
X003451Y009031D01*
X003957Y008933D02*
X005365Y008933D01*
X005365Y008834D02*
X004056Y008834D01*
X004065Y008736D02*
X005326Y008736D01*
X004833Y008243D02*
X001908Y008243D01*
X001403Y008243D02*
X000865Y008243D01*
X000865Y008341D02*
X001304Y008341D01*
X001206Y008440D02*
X000865Y008440D01*
X000865Y008539D02*
X001185Y008539D01*
X001185Y008637D02*
X000865Y008637D01*
X000865Y008736D02*
X001185Y008736D01*
X001185Y008834D02*
X000865Y008834D01*
X000865Y008933D02*
X001268Y008933D01*
X001367Y009031D02*
X000865Y009031D01*
X000865Y008144D02*
X004734Y008144D01*
X004636Y008046D02*
X000865Y008046D01*
X000865Y007947D02*
X004537Y007947D01*
X002939Y007849D02*
X000865Y007849D01*
X000865Y007750D02*
X002840Y007750D01*
X002742Y007652D02*
X000865Y007652D01*
X000865Y007553D02*
X002643Y007553D01*
X002544Y007455D02*
X000865Y007455D01*
X000865Y007356D02*
X002446Y007356D01*
X002384Y007258D02*
X000865Y007258D01*
X000865Y007159D02*
X002365Y007159D01*
X002365Y007060D02*
X000865Y007060D01*
X000865Y006962D02*
X002365Y006962D01*
X002365Y006863D02*
X000865Y006863D01*
X000865Y006765D02*
X002365Y006765D01*
X002365Y006666D02*
X000865Y006666D01*
X000865Y006568D02*
X002365Y006568D01*
X002365Y006469D02*
X000865Y006469D01*
X000865Y006371D02*
X002365Y006371D01*
X002365Y006272D02*
X000865Y006272D01*
X000865Y006174D02*
X002365Y006174D01*
X002365Y006075D02*
X000865Y006075D01*
X000865Y005976D02*
X002365Y005976D01*
X002365Y005878D02*
X000865Y005878D01*
X000865Y005779D02*
X002365Y005779D01*
X002365Y005681D02*
X000865Y005681D01*
X000865Y005582D02*
X002365Y005582D01*
X002365Y005484D02*
X000865Y005484D01*
X000865Y005385D02*
X002365Y005385D01*
X002365Y005287D02*
X000865Y005287D01*
X000865Y005188D02*
X002365Y005188D01*
X002365Y005090D02*
X002094Y005090D01*
X002244Y004991D02*
X002365Y004991D01*
X002365Y004892D02*
X002326Y004892D01*
X002359Y004498D02*
X002365Y004498D01*
X002365Y004400D02*
X002318Y004400D01*
X002365Y004301D02*
X002226Y004301D01*
X002293Y004203D02*
X002051Y004203D01*
X002059Y004104D02*
X002194Y004104D01*
X002620Y003710D02*
X002865Y003710D01*
X002865Y003809D02*
X002719Y003809D01*
X002817Y003907D02*
X002865Y003907D01*
X002865Y003611D02*
X002521Y003611D01*
X002423Y003513D02*
X002865Y003513D01*
X002865Y003414D02*
X002324Y003414D01*
X002240Y003316D02*
X002865Y003316D01*
X002807Y003217D02*
X002086Y003217D01*
X002024Y003119D02*
X002709Y003119D01*
X002610Y003020D02*
X002215Y003020D01*
X001286Y003119D02*
X000865Y003119D01*
X000865Y003217D02*
X001224Y003217D01*
X001070Y003316D02*
X000865Y003316D01*
X000865Y003414D02*
X000986Y003414D01*
X000945Y003513D02*
X000865Y003513D01*
X000865Y003611D02*
X000925Y003611D01*
X000925Y003710D02*
X000865Y003710D01*
X000865Y003809D02*
X000950Y003809D01*
X000991Y003907D02*
X000865Y003907D01*
X000865Y004006D02*
X001081Y004006D01*
X001251Y004104D02*
X000865Y004104D01*
X000865Y004203D02*
X001259Y004203D01*
X001084Y004301D02*
X000865Y004301D01*
X000865Y004400D02*
X000992Y004400D01*
X000951Y004498D02*
X000865Y004498D01*
X000865Y004597D02*
X000925Y004597D01*
X000925Y004695D02*
X000865Y004695D01*
X000865Y004794D02*
X000944Y004794D01*
X000985Y004892D02*
X000865Y004892D01*
X000865Y004991D02*
X001066Y004991D01*
X001216Y005090D02*
X000865Y005090D01*
X000865Y003020D02*
X001095Y003020D01*
X000997Y002922D02*
X000865Y002922D01*
X000865Y002823D02*
X000956Y002823D01*
X000925Y002725D02*
X000865Y002725D01*
X000865Y002626D02*
X000925Y002626D01*
X000939Y002527D02*
X000865Y002527D01*
X000865Y002429D02*
X000980Y002429D01*
X001055Y002330D02*
X000865Y002330D01*
X000865Y002232D02*
X001189Y002232D01*
X001154Y001246D02*
X000988Y001246D01*
X004625Y001246D02*
X004685Y001246D01*
X004685Y001345D02*
X004625Y001345D01*
X004625Y001443D02*
X004685Y001443D01*
X004685Y001542D02*
X004625Y001542D01*
X004625Y001739D02*
X004685Y001739D01*
X004685Y001838D02*
X004625Y001838D01*
X004625Y001936D02*
X004685Y001936D01*
X004685Y002035D02*
X004625Y002035D01*
X005416Y004006D02*
X006365Y004006D01*
X006365Y004104D02*
X005514Y004104D01*
X005613Y004203D02*
X006365Y004203D01*
X006365Y004301D02*
X005711Y004301D01*
X005810Y004400D02*
X006365Y004400D01*
X006365Y004498D02*
X005904Y004498D01*
X005945Y004794D02*
X006365Y004794D01*
X006365Y004892D02*
X005945Y004892D01*
X005945Y004991D02*
X006365Y004991D01*
X006365Y005090D02*
X005945Y005090D01*
X005945Y005188D02*
X006365Y005188D01*
X006365Y005287D02*
X005945Y005287D01*
X005945Y005385D02*
X006365Y005385D01*
X006365Y005484D02*
X005945Y005484D01*
X005945Y005582D02*
X006365Y005582D01*
X006365Y005681D02*
X005945Y005681D01*
X005945Y005779D02*
X006365Y005779D01*
X006365Y005878D02*
X005945Y005878D01*
X005945Y005976D02*
X006365Y005976D01*
X006365Y006075D02*
X005945Y006075D01*
X005945Y006174D02*
X006337Y006174D01*
X006290Y006272D02*
X005945Y006272D01*
X005945Y006371D02*
X006267Y006371D01*
X006267Y006469D02*
X005945Y006469D01*
X005945Y006568D02*
X006302Y006568D01*
X006367Y006666D02*
X005945Y006666D01*
X005945Y006765D02*
X006509Y006765D01*
X006434Y006962D02*
X005945Y006962D01*
X005945Y006863D02*
X012453Y006863D01*
X012355Y006765D02*
X006802Y006765D01*
X006943Y006666D02*
X012256Y006666D01*
X012158Y006568D02*
X007008Y006568D01*
X007044Y006469D02*
X012059Y006469D01*
X012552Y006962D02*
X006877Y006962D01*
X006975Y007060D02*
X012615Y007060D01*
X012615Y007159D02*
X007074Y007159D01*
X007125Y007258D02*
X009638Y007258D01*
X009539Y007356D02*
X007125Y007356D01*
X007125Y007455D02*
X009441Y007455D01*
X009435Y007553D02*
X007125Y007553D01*
X007073Y007652D02*
X009435Y007652D01*
X009435Y007750D02*
X006975Y007750D01*
X006876Y007849D02*
X009435Y007849D01*
X010211Y006371D02*
X007044Y006371D01*
X007020Y006272D02*
X010112Y006272D01*
X010013Y006174D02*
X006973Y006174D01*
X006945Y006075D02*
X009915Y006075D01*
X009816Y005976D02*
X006945Y005976D01*
X006945Y005878D02*
X009718Y005878D01*
X009643Y005779D02*
X006945Y005779D01*
X006945Y005681D02*
X009615Y005681D01*
X009615Y005582D02*
X006945Y005582D01*
X006945Y005484D02*
X009569Y005484D01*
X009471Y005385D02*
X006945Y005385D01*
X006945Y005287D02*
X009435Y005287D01*
X009435Y005188D02*
X006945Y005188D01*
X006945Y005090D02*
X009435Y005090D01*
X009435Y004991D02*
X006945Y004991D01*
X006945Y004892D02*
X009503Y004892D01*
X009602Y004794D02*
X006945Y004794D01*
X006335Y007060D02*
X005975Y007060D01*
X006074Y007159D02*
X006237Y007159D01*
X006185Y007258D02*
X006125Y007258D01*
X006125Y007356D02*
X006185Y007356D01*
X006185Y007455D02*
X006125Y007455D01*
X006125Y007553D02*
X006185Y007553D01*
X006237Y007652D02*
X006073Y007652D01*
X006160Y007750D02*
X006336Y007750D01*
X006259Y007849D02*
X006434Y007849D01*
X010110Y004695D02*
X010700Y004695D01*
X010602Y004794D02*
X010209Y004794D01*
X010307Y004892D02*
X010503Y004892D01*
X010435Y004991D02*
X010375Y004991D01*
X010375Y005090D02*
X010435Y005090D01*
X010435Y005188D02*
X010375Y005188D01*
X010375Y005287D02*
X010435Y005287D01*
X010471Y005385D02*
X010340Y005385D01*
X010241Y005484D02*
X010569Y005484D01*
X010668Y005582D02*
X010242Y005582D01*
X014377Y006962D02*
X014934Y006962D01*
X014835Y007060D02*
X014475Y007060D01*
X014574Y007159D02*
X014737Y007159D01*
X014685Y007258D02*
X014625Y007258D01*
X014625Y007356D02*
X014685Y007356D01*
X014685Y007455D02*
X014625Y007455D01*
X014625Y007553D02*
X014685Y007553D01*
X014737Y007652D02*
X014573Y007652D01*
X014475Y007750D02*
X014836Y007750D01*
X014865Y007849D02*
X014376Y007849D01*
X017509Y002626D02*
X019945Y002626D01*
X018764Y002527D02*
X017634Y002527D01*
X017712Y002429D02*
X018673Y002429D01*
X018622Y002330D02*
X017753Y002330D01*
X017775Y002232D02*
X018599Y002232D01*
X018595Y002133D02*
X017775Y002133D01*
X017775Y002035D02*
X018595Y002035D01*
X018595Y001936D02*
X017775Y001936D01*
X010615Y013761D02*
X004963Y013761D01*
X004865Y013860D02*
X010615Y013860D01*
X010615Y014057D02*
X000865Y014057D01*
X000865Y014156D02*
X010615Y014156D01*
X010615Y014254D02*
X010169Y014254D01*
X010100Y014185D02*
X010375Y014460D01*
X010375Y014850D01*
X010100Y015125D01*
X009710Y015125D01*
X009435Y014850D01*
X009435Y014460D01*
X009710Y014185D01*
X010100Y014185D01*
X010267Y014353D02*
X010543Y014353D01*
X010444Y014451D02*
X010366Y014451D01*
X010375Y014550D02*
X010435Y014550D01*
X010435Y014648D02*
X010375Y014648D01*
X010375Y014747D02*
X010435Y014747D01*
X010435Y014845D02*
X010375Y014845D01*
X010281Y014944D02*
X010529Y014944D01*
X010615Y015042D02*
X010182Y015042D01*
X009628Y015042D02*
X000865Y015042D01*
X000865Y014944D02*
X009529Y014944D01*
X009435Y014845D02*
X000865Y014845D01*
X000865Y014747D02*
X009435Y014747D01*
X009435Y014648D02*
X000865Y014648D01*
X000865Y014550D02*
X009435Y014550D01*
X009444Y014451D02*
X000865Y014451D01*
X000865Y014353D02*
X009543Y014353D01*
X009641Y014254D02*
X000865Y014254D01*
X000865Y015141D02*
X010615Y015141D01*
X010615Y015240D02*
X000865Y015240D01*
X000865Y015338D02*
X010615Y015338D01*
X010615Y015437D02*
X000865Y015437D01*
X000865Y015535D02*
X010615Y015535D01*
X010615Y015634D02*
X000865Y015634D01*
X000865Y015732D02*
X010615Y015732D01*
X010615Y015831D02*
X000865Y015831D01*
X000865Y015929D02*
X010615Y015929D01*
X010615Y016028D02*
X000865Y016028D01*
X000865Y016126D02*
X010615Y016126D01*
X010615Y016225D02*
X000865Y016225D01*
X000865Y016324D02*
X010615Y016324D01*
X010615Y016422D02*
X000865Y016422D01*
X000865Y016521D02*
X009625Y016521D01*
X009710Y016435D02*
X009435Y016710D01*
X009435Y017100D01*
X009710Y017375D01*
X010100Y017375D01*
X010375Y017100D01*
X010375Y016710D01*
X010100Y016435D01*
X009710Y016435D01*
X009526Y016619D02*
X000865Y016619D01*
X000865Y016718D02*
X009435Y016718D01*
X009435Y016816D02*
X000865Y016816D01*
X000865Y016915D02*
X009435Y016915D01*
X009435Y017013D02*
X000865Y017013D01*
X000865Y017112D02*
X009447Y017112D01*
X009546Y017210D02*
X000865Y017210D01*
X000865Y017309D02*
X009644Y017309D01*
X010166Y017309D02*
X010644Y017309D01*
X010546Y017210D02*
X010264Y017210D01*
X010363Y017112D02*
X010447Y017112D01*
X010435Y017013D02*
X010375Y017013D01*
X010375Y016915D02*
X010435Y016915D01*
X010435Y016816D02*
X010375Y016816D01*
X010375Y016718D02*
X010435Y016718D01*
X010526Y016619D02*
X010284Y016619D01*
X010185Y016521D02*
X010615Y016521D01*
X011195Y016521D02*
X019945Y016521D01*
X019945Y016619D02*
X011284Y016619D01*
X011375Y016718D02*
X019945Y016718D01*
X019945Y016816D02*
X011375Y016816D01*
X011375Y016915D02*
X019945Y016915D01*
X019945Y017013D02*
X011375Y017013D01*
X011363Y017112D02*
X019945Y017112D01*
X019945Y017210D02*
X011264Y017210D01*
X011166Y017309D02*
X019945Y017309D01*
X019945Y017407D02*
X000865Y017407D01*
X000865Y017506D02*
X002439Y017506D01*
X002519Y017473D02*
X002791Y017473D01*
X003042Y017577D01*
X003234Y017769D01*
X003338Y018019D01*
X003338Y018291D01*
X003234Y018542D01*
X003042Y018734D01*
X002791Y018838D01*
X002519Y018838D01*
X002269Y018734D01*
X002077Y018542D01*
X001973Y018291D01*
X001973Y018019D01*
X002077Y017769D01*
X002269Y017577D01*
X002519Y017473D01*
X002871Y017506D02*
X017939Y017506D01*
X018019Y017473D02*
X018291Y017473D01*
X018542Y017577D01*
X018734Y017769D01*
X018838Y018019D01*
X018838Y018291D01*
X018734Y018542D01*
X018542Y018734D01*
X018291Y018838D01*
X018019Y018838D01*
X017769Y018734D01*
X017577Y018542D01*
X017473Y018291D01*
X017473Y018019D01*
X017577Y017769D01*
X017769Y017577D01*
X018019Y017473D01*
X017741Y017605D02*
X003070Y017605D01*
X003168Y017703D02*
X017642Y017703D01*
X017563Y017802D02*
X003247Y017802D01*
X003288Y017900D02*
X017522Y017900D01*
X017481Y017999D02*
X003329Y017999D01*
X003338Y018097D02*
X017473Y018097D01*
X017473Y018196D02*
X003338Y018196D01*
X003336Y018294D02*
X017474Y018294D01*
X017515Y018393D02*
X003295Y018393D01*
X003254Y018491D02*
X017556Y018491D01*
X017625Y018590D02*
X003185Y018590D01*
X003087Y018689D02*
X006870Y018689D01*
X006849Y018697D02*
X007048Y018615D01*
X007263Y018615D01*
X007461Y018697D01*
X007613Y018849D01*
X007695Y019048D01*
X007695Y019263D01*
X007613Y019461D01*
X007461Y019613D01*
X007263Y019695D01*
X007048Y019695D01*
X006849Y019613D01*
X006697Y019461D01*
X006615Y019263D01*
X006615Y019048D01*
X006697Y018849D01*
X006849Y018697D01*
X006759Y018787D02*
X002913Y018787D01*
X002398Y018787D02*
X000865Y018787D01*
X000865Y018689D02*
X002223Y018689D01*
X002125Y018590D02*
X000865Y018590D01*
X000865Y018491D02*
X002056Y018491D01*
X002015Y018393D02*
X000865Y018393D01*
X000865Y018294D02*
X001974Y018294D01*
X001973Y018196D02*
X000865Y018196D01*
X000865Y018097D02*
X001973Y018097D01*
X001981Y017999D02*
X000865Y017999D01*
X000865Y017900D02*
X002022Y017900D01*
X002063Y017802D02*
X000865Y017802D01*
X000865Y017703D02*
X002142Y017703D01*
X002241Y017605D02*
X000865Y017605D01*
X000865Y018886D02*
X006682Y018886D01*
X006641Y018984D02*
X000865Y018984D01*
X000865Y019083D02*
X006615Y019083D01*
X006615Y019181D02*
X000867Y019181D01*
X000875Y019280D02*
X006622Y019280D01*
X006663Y019378D02*
X000907Y019378D01*
X000939Y019477D02*
X006713Y019477D01*
X006812Y019575D02*
X000996Y019575D01*
X001068Y019674D02*
X006997Y019674D01*
X007314Y019674D02*
X009036Y019674D01*
X009051Y019680D02*
X008858Y019600D01*
X008710Y019452D01*
X008630Y019260D01*
X008630Y019051D01*
X008710Y018858D01*
X008858Y018710D01*
X009051Y018630D01*
X009260Y018630D01*
X009452Y018710D01*
X009600Y018858D01*
X009680Y019051D01*
X009680Y019260D01*
X009600Y019452D01*
X009452Y019600D01*
X009260Y019680D01*
X009051Y019680D01*
X009274Y019674D02*
X011536Y019674D01*
X011551Y019680D02*
X011358Y019600D01*
X011210Y019452D01*
X011130Y019260D01*
X011130Y019051D01*
X011210Y018858D01*
X011358Y018710D01*
X011551Y018630D01*
X011760Y018630D01*
X011952Y018710D01*
X012100Y018858D01*
X012180Y019051D01*
X012180Y019260D01*
X012100Y019452D01*
X011952Y019600D01*
X011760Y019680D01*
X011551Y019680D01*
X011774Y019674D02*
X019743Y019674D01*
X019814Y019575D02*
X013887Y019575D01*
X013907Y019566D02*
X013839Y019600D01*
X013768Y019623D01*
X013704Y019633D01*
X013704Y019204D01*
X013607Y019204D01*
X013607Y019633D01*
X013543Y019623D01*
X013471Y019600D01*
X013404Y019566D01*
X013342Y019521D01*
X013289Y019468D01*
X013245Y019407D01*
X013210Y019339D01*
X013187Y019268D01*
X013177Y019204D01*
X013606Y019204D01*
X013606Y019107D01*
X013177Y019107D01*
X013187Y019043D01*
X013210Y018971D01*
X013245Y018904D01*
X013289Y018842D01*
X013342Y018789D01*
X013404Y018745D01*
X013471Y018710D01*
X013543Y018687D01*
X013607Y018677D01*
X013607Y019106D01*
X013704Y019106D01*
X013704Y018677D01*
X013768Y018687D01*
X013839Y018710D01*
X013907Y018745D01*
X013968Y018789D01*
X014021Y018842D01*
X014066Y018904D01*
X014100Y018971D01*
X014123Y019043D01*
X014133Y019107D01*
X013704Y019107D01*
X013704Y019204D01*
X014133Y019204D01*
X014123Y019268D01*
X014100Y019339D01*
X014066Y019407D01*
X014021Y019468D01*
X013968Y019521D01*
X013907Y019566D01*
X014012Y019477D02*
X019871Y019477D01*
X019903Y019378D02*
X014080Y019378D01*
X014119Y019280D02*
X019935Y019280D01*
X019943Y019181D02*
X013704Y019181D01*
X013606Y019181D02*
X012180Y019181D01*
X012180Y019083D02*
X013181Y019083D01*
X013206Y018984D02*
X012152Y018984D01*
X012112Y018886D02*
X013258Y018886D01*
X013345Y018787D02*
X012029Y018787D01*
X011900Y018689D02*
X013538Y018689D01*
X013607Y018689D02*
X013704Y018689D01*
X013772Y018689D02*
X017723Y018689D01*
X017898Y018787D02*
X013965Y018787D01*
X014053Y018886D02*
X019945Y018886D01*
X019945Y018984D02*
X014104Y018984D01*
X014130Y019083D02*
X019945Y019083D01*
X019945Y018787D02*
X018413Y018787D01*
X018587Y018689D02*
X019945Y018689D01*
X019945Y018590D02*
X018685Y018590D01*
X018754Y018491D02*
X019945Y018491D01*
X019945Y018393D02*
X018795Y018393D01*
X018836Y018294D02*
X019945Y018294D01*
X019945Y018196D02*
X018838Y018196D01*
X018838Y018097D02*
X019945Y018097D01*
X019945Y017999D02*
X018829Y017999D01*
X018788Y017900D02*
X019945Y017900D01*
X019945Y017802D02*
X018747Y017802D01*
X018668Y017703D02*
X019945Y017703D01*
X019945Y017605D02*
X018570Y017605D01*
X018371Y017506D02*
X019945Y017506D01*
X019945Y016422D02*
X011195Y016422D01*
X011195Y016324D02*
X019945Y016324D01*
X019945Y016225D02*
X011195Y016225D01*
X011195Y016126D02*
X019945Y016126D01*
X019945Y016028D02*
X011195Y016028D01*
X011195Y015929D02*
X019945Y015929D01*
X019945Y015831D02*
X011195Y015831D01*
X011195Y015732D02*
X019945Y015732D01*
X019945Y015634D02*
X011195Y015634D01*
X011195Y015535D02*
X019945Y015535D01*
X019945Y015437D02*
X011195Y015437D01*
X011195Y015338D02*
X019945Y015338D01*
X019945Y015240D02*
X011195Y015240D01*
X011195Y015141D02*
X019945Y015141D01*
X019945Y015042D02*
X011195Y015042D01*
X011281Y014944D02*
X019945Y014944D01*
X019945Y014845D02*
X011375Y014845D01*
X011375Y014747D02*
X019945Y014747D01*
X019945Y014648D02*
X011375Y014648D01*
X011375Y014550D02*
X019945Y014550D01*
X019633Y019773D02*
X001177Y019773D01*
X001334Y019871D02*
X019477Y019871D01*
X013704Y019575D02*
X013607Y019575D01*
X013607Y019477D02*
X013704Y019477D01*
X013704Y019378D02*
X013607Y019378D01*
X013607Y019280D02*
X013704Y019280D01*
X013704Y019083D02*
X013607Y019083D01*
X013607Y018984D02*
X013704Y018984D01*
X013704Y018886D02*
X013607Y018886D01*
X013607Y018787D02*
X013704Y018787D01*
X013191Y019280D02*
X012172Y019280D01*
X012131Y019378D02*
X013230Y019378D01*
X013298Y019477D02*
X012076Y019477D01*
X011977Y019575D02*
X013423Y019575D01*
X011333Y019575D02*
X009477Y019575D01*
X009576Y019477D02*
X011234Y019477D01*
X011179Y019378D02*
X009631Y019378D01*
X009672Y019280D02*
X011139Y019280D01*
X011130Y019181D02*
X009680Y019181D01*
X009680Y019083D02*
X011130Y019083D01*
X011158Y018984D02*
X009652Y018984D01*
X009612Y018886D02*
X011199Y018886D01*
X011281Y018787D02*
X009529Y018787D01*
X009400Y018689D02*
X011410Y018689D01*
X008910Y018689D02*
X007440Y018689D01*
X007551Y018787D02*
X008781Y018787D01*
X008699Y018886D02*
X007628Y018886D01*
X007669Y018984D02*
X008658Y018984D01*
X008630Y019083D02*
X007695Y019083D01*
X007695Y019181D02*
X008630Y019181D01*
X008639Y019280D02*
X007688Y019280D01*
X007647Y019378D02*
X008679Y019378D01*
X008734Y019477D02*
X007597Y019477D01*
X007498Y019575D02*
X008833Y019575D01*
X004445Y013860D02*
X003865Y013860D01*
X003963Y013761D02*
X004347Y013761D01*
X004248Y013663D02*
X004062Y013663D01*
X004125Y013564D02*
X004185Y013564D01*
X004185Y013466D02*
X004125Y013466D01*
X004125Y013367D02*
X004185Y013367D01*
X004185Y013269D02*
X004125Y013269D01*
X004085Y013170D02*
X004225Y013170D01*
X004324Y013072D02*
X003986Y013072D01*
X003888Y012973D02*
X004423Y012973D01*
X004888Y012973D02*
X005365Y012973D01*
X005365Y013072D02*
X004986Y013072D01*
M02*
